<svg width="450" height="400" viewbox = "0 0 450 400"  xmlns="http://www.w3.org/2000/svg">

<!--
<json>
{
    "imgurl": "",
    "imgw": 2.983971328437751,
    "imgleft": -1.4873205904167783,
    "imgtop": -1.0519856642188752,
    "imgangle": 0,
    "svgwidth": 450,
    "svgheight": 400,
    "unit": 100,
    "x0": 684,
    "y0": 380.5,
    "x0rel": 0,
    "y0rel": 0,
    "glyph": "0331,0331,0324,0362,0203,0203,0203,0203,0364,0331,0331,0332,0332,0335,0322,0331,0362,0203,0203,0203,0203,0203,0203,0364,0331,0334,0330,0332,0332,0331,0320,0221,0330,0220,0331,0331,0220,0330,0332,0220,0333,0333,0220,0333,0330,0332,0332,0332,0336,0330,0332,0331,0332,0336,0330,0337,01104,01103,01040,01115,01105,01124,01122,01117,01056,01056,01056,0331,0331,0331,0332,0332,0332,0331,0332,0332,0332,0332,0332,01107,01145,01157,01155,01145,01164,01162,01157,01156,",
    "table": []
}
</json>
-->
	<path d = "M225 400 L225 300 L225 200 L225 100 L225 0 " stroke = "yellow" stroke-width = "10" fill = "none" />	<path d = "M-75 200 L25 200 L125 200 L225 200 L325 200 L425 200 L525 200 " stroke = "red" stroke-width = "10" fill = "none" />    <circle cx="225" cy = "200" r = "25" stroke = "black" stroke-width = "4" fill = "black" />
    <circle cx="225" cy = "200" r = "16.692526771109463" stroke = "white" stroke-width = "4" fill = "white" />
    <circle cx="225" cy = "200" r = "8.346263385554732" stroke = "black" stroke-width = "4" fill = "black" />
    <circle cx="225" cy = "100" r = "12.5" stroke = "black" stroke-width = "4" fill = "black" />
    <circle cx="225" cy = "100" r = "8.346263385554732" stroke = "white" stroke-width = "4" fill = "white" />
    <circle cx="225" cy = "300" r = "12.5" stroke = "black" stroke-width = "4" fill = "black" />
    <circle cx="225" cy = "300" r = "8.346263385554732" stroke = "white" stroke-width = "4" fill = "white" />
    <circle cx="125" cy = "200" r = "12.5" stroke = "black" stroke-width = "4" fill = "black" />
    <circle cx="125" cy = "200" r = "8.346263385554732" stroke = "white" stroke-width = "4" fill = "white" />
    <circle cx="325" cy = "200" r = "12.5" stroke = "black" stroke-width = "4" fill = "black" />
    <circle cx="325" cy = "200" r = "8.346263385554732" stroke = "white" stroke-width = "4" fill = "white" />
    <circle cx="25" cy = "75" r = "1.5625" stroke = "black" stroke-width = "4" fill = "black" />
    <circle cx="25" cy = "69" r = "1.5625" stroke = "black" stroke-width = "4" fill = "black" />
    <circle cx="25" cy = "62" r = "1.5625" stroke = "black" stroke-width = "4" fill = "black" />
    <circle cx="25" cy = "56" r = "1.5625" stroke = "black" stroke-width = "4" fill = "black" />
    <circle cx="25" cy = "50" r = "1.5625" stroke = "black" stroke-width = "4" fill = "black" />
    <circle cx="25" cy = "44" r = "1.5625" stroke = "black" stroke-width = "4" fill = "black" />
    <circle cx="25" cy = "37" r = "1.5625" stroke = "black" stroke-width = "4" fill = "black" />
    <circle cx="31" cy = "37" r = "1.5625" stroke = "black" stroke-width = "4" fill = "black" />
    <circle cx="38" cy = "37" r = "1.5625" stroke = "black" stroke-width = "4" fill = "black" />
    <circle cx="44" cy = "44" r = "1.5625" stroke = "black" stroke-width = "4" fill = "black" />
    <circle cx="50" cy = "50" r = "1.5625" stroke = "black" stroke-width = "4" fill = "black" />
    <circle cx="50" cy = "56" r = "1.5625" stroke = "black" stroke-width = "4" fill = "black" />
    <circle cx="50" cy = "62" r = "1.5625" stroke = "black" stroke-width = "4" fill = "black" />
    <circle cx="44" cy = "69" r = "1.5625" stroke = "black" stroke-width = "4" fill = "black" />
    <circle cx="38" cy = "75" r = "1.5625" stroke = "black" stroke-width = "4" fill = "black" />
    <circle cx="31" cy = "75" r = "1.5625" stroke = "black" stroke-width = "4" fill = "black" />
    <circle cx="63" cy = "69" r = "1.5625" stroke = "black" stroke-width = "4" fill = "black" />
    <circle cx="63" cy = "62" r = "1.5625" stroke = "black" stroke-width = "4" fill = "black" />
    <circle cx="63" cy = "56" r = "1.5625" stroke = "black" stroke-width = "4" fill = "black" />
    <circle cx="63" cy = "50" r = "1.5625" stroke = "black" stroke-width = "4" fill = "black" />
    <circle cx="63" cy = "44" r = "1.5625" stroke = "black" stroke-width = "4" fill = "black" />
    <circle cx="69" cy = "37" r = "1.5625" stroke = "black" stroke-width = "4" fill = "black" />
    <circle cx="75" cy = "37" r = "1.5625" stroke = "black" stroke-width = "4" fill = "black" />
    <circle cx="81" cy = "37" r = "1.5625" stroke = "black" stroke-width = "4" fill = "black" />
    <circle cx="88" cy = "44" r = "1.5625" stroke = "black" stroke-width = "4" fill = "black" />
    <circle cx="88" cy = "69" r = "1.5625" stroke = "black" stroke-width = "4" fill = "black" />
    <circle cx="81" cy = "75" r = "1.5625" stroke = "black" stroke-width = "4" fill = "black" />
    <circle cx="75" cy = "75" r = "1.5625" stroke = "black" stroke-width = "4" fill = "black" />
    <circle cx="69" cy = "75" r = "1.5625" stroke = "black" stroke-width = "4" fill = "black" />
    <circle cx="150" cy = "75" r = "1.5625" stroke = "black" stroke-width = "4" fill = "black" />
    <circle cx="150" cy = "69" r = "1.5625" stroke = "black" stroke-width = "4" fill = "black" />
    <circle cx="150" cy = "62" r = "1.5625" stroke = "black" stroke-width = "4" fill = "black" />
    <circle cx="150" cy = "56" r = "1.5625" stroke = "black" stroke-width = "4" fill = "black" />
    <circle cx="150" cy = "50" r = "1.5625" stroke = "black" stroke-width = "4" fill = "black" />
    <circle cx="150" cy = "44" r = "1.5625" stroke = "black" stroke-width = "4" fill = "black" />
    <circle cx="150" cy = "37" r = "1.5625" stroke = "black" stroke-width = "4" fill = "black" />
    <circle cx="156" cy = "44" r = "1.5625" stroke = "black" stroke-width = "4" fill = "black" />
    <circle cx="163" cy = "50" r = "1.5625" stroke = "black" stroke-width = "4" fill = "black" />
    <circle cx="163" cy = "56" r = "1.5625" stroke = "black" stroke-width = "4" fill = "black" />
    <circle cx="169" cy = "44" r = "1.5625" stroke = "black" stroke-width = "4" fill = "black" />
    <circle cx="175" cy = "37" r = "1.5625" stroke = "black" stroke-width = "4" fill = "black" />
    <circle cx="175" cy = "44" r = "1.5625" stroke = "black" stroke-width = "4" fill = "black" />
    <circle cx="175" cy = "50" r = "1.5625" stroke = "black" stroke-width = "4" fill = "black" />
    <circle cx="175" cy = "56" r = "1.5625" stroke = "black" stroke-width = "4" fill = "black" />
    <circle cx="175" cy = "62" r = "1.5625" stroke = "black" stroke-width = "4" fill = "black" />
    <circle cx="175" cy = "69" r = "1.5625" stroke = "black" stroke-width = "4" fill = "black" />
    <circle cx="175" cy = "75" r = "1.5625" stroke = "black" stroke-width = "4" fill = "black" />
    <circle cx="187" cy = "75" r = "1.5625" stroke = "black" stroke-width = "4" fill = "black" />
    <circle cx="187" cy = "69" r = "1.5625" stroke = "black" stroke-width = "4" fill = "black" />
    <circle cx="187" cy = "62" r = "1.5625" stroke = "black" stroke-width = "4" fill = "black" />
    <circle cx="188" cy = "56" r = "1.5625" stroke = "black" stroke-width = "4" fill = "black" />
    <circle cx="188" cy = "50" r = "1.5625" stroke = "black" stroke-width = "4" fill = "black" />
    <circle cx="188" cy = "44" r = "1.5625" stroke = "black" stroke-width = "4" fill = "black" />
    <circle cx="188" cy = "37" r = "1.5625" stroke = "black" stroke-width = "4" fill = "black" />
    <circle cx="194" cy = "38" r = "1.5625" stroke = "black" stroke-width = "4" fill = "black" />
    <circle cx="200" cy = "38" r = "1.5625" stroke = "black" stroke-width = "4" fill = "black" />
    <circle cx="206" cy = "38" r = "1.5625" stroke = "black" stroke-width = "4" fill = "black" />
    <circle cx="213" cy = "38" r = "1.5625" stroke = "black" stroke-width = "4" fill = "black" />
    <circle cx="194" cy = "56" r = "1.5625" stroke = "black" stroke-width = "4" fill = "black" />
    <circle cx="200" cy = "56" r = "1.5625" stroke = "black" stroke-width = "4" fill = "black" />
    <circle cx="194" cy = "75" r = "1.5625" stroke = "black" stroke-width = "4" fill = "black" />
    <circle cx="200" cy = "75" r = "1.5625" stroke = "black" stroke-width = "4" fill = "black" />
    <circle cx="206" cy = "75" r = "1.5625" stroke = "black" stroke-width = "4" fill = "black" />
    <circle cx="212" cy = "75" r = "1.5625" stroke = "black" stroke-width = "4" fill = "black" />
    <circle cx="237" cy = "75" r = "1.5625" stroke = "black" stroke-width = "4" fill = "black" />
    <circle cx="237" cy = "69" r = "1.5625" stroke = "black" stroke-width = "4" fill = "black" />
    <circle cx="237" cy = "63" r = "1.5625" stroke = "black" stroke-width = "4" fill = "black" />
    <circle cx="237" cy = "56" r = "1.5625" stroke = "black" stroke-width = "4" fill = "black" />
    <circle cx="237" cy = "50" r = "1.5625" stroke = "black" stroke-width = "4" fill = "black" />
    <circle cx="237" cy = "44" r = "1.5625" stroke = "black" stroke-width = "4" fill = "black" />
    <circle cx="237" cy = "38" r = "1.5625" stroke = "black" stroke-width = "4" fill = "black" />
    <circle cx="231" cy = "38" r = "1.5625" stroke = "black" stroke-width = "4" fill = "black" />
    <circle cx="225" cy = "38" r = "1.5625" stroke = "black" stroke-width = "4" fill = "black" />
    <circle cx="244" cy = "38" r = "1.5625" stroke = "black" stroke-width = "4" fill = "black" />
    <circle cx="250" cy = "38" r = "1.5625" stroke = "black" stroke-width = "4" fill = "black" />
    <circle cx="262" cy = "75" r = "1.5625" stroke = "black" stroke-width = "4" fill = "black" />
    <circle cx="262" cy = "69" r = "1.5625" stroke = "black" stroke-width = "4" fill = "black" />
    <circle cx="262" cy = "63" r = "1.5625" stroke = "black" stroke-width = "4" fill = "black" />
    <circle cx="262" cy = "56" r = "1.5625" stroke = "black" stroke-width = "4" fill = "black" />
    <circle cx="262" cy = "50" r = "1.5625" stroke = "black" stroke-width = "4" fill = "black" />
    <circle cx="262" cy = "44" r = "1.5625" stroke = "black" stroke-width = "4" fill = "black" />
    <circle cx="262" cy = "38" r = "1.5625" stroke = "black" stroke-width = "4" fill = "black" />
    <circle cx="269" cy = "38" r = "1.5625" stroke = "black" stroke-width = "4" fill = "black" />
    <circle cx="275" cy = "38" r = "1.5625" stroke = "black" stroke-width = "4" fill = "black" />
    <circle cx="281" cy = "38" r = "1.5625" stroke = "black" stroke-width = "4" fill = "black" />
    <circle cx="287" cy = "44" r = "1.5625" stroke = "black" stroke-width = "4" fill = "black" />
    <circle cx="287" cy = "50" r = "1.5625" stroke = "black" stroke-width = "4" fill = "black" />
    <circle cx="281" cy = "56" r = "1.5625" stroke = "black" stroke-width = "4" fill = "black" />
    <circle cx="275" cy = "56" r = "1.5625" stroke = "black" stroke-width = "4" fill = "black" />
    <circle cx="269" cy = "56" r = "1.5625" stroke = "black" stroke-width = "4" fill = "black" />
    <circle cx="275" cy = "63" r = "1.5625" stroke = "black" stroke-width = "4" fill = "black" />
    <circle cx="281" cy = "69" r = "1.5625" stroke = "black" stroke-width = "4" fill = "black" />
    <circle cx="287" cy = "75" r = "1.5625" stroke = "black" stroke-width = "4" fill = "black" />
    <circle cx="300" cy = "69" r = "1.5625" stroke = "black" stroke-width = "4" fill = "black" />
    <circle cx="300" cy = "63" r = "1.5625" stroke = "black" stroke-width = "4" fill = "black" />
    <circle cx="300" cy = "56" r = "1.5625" stroke = "black" stroke-width = "4" fill = "black" />
    <circle cx="300" cy = "50" r = "1.5625" stroke = "black" stroke-width = "4" fill = "black" />
    <circle cx="300" cy = "44" r = "1.5625" stroke = "black" stroke-width = "4" fill = "black" />
    <circle cx="306" cy = "38" r = "1.5625" stroke = "black" stroke-width = "4" fill = "black" />
    <circle cx="312" cy = "38" r = "1.5625" stroke = "black" stroke-width = "4" fill = "black" />
    <circle cx="319" cy = "38" r = "1.5625" stroke = "black" stroke-width = "4" fill = "black" />
    <circle cx="325" cy = "44" r = "1.5625" stroke = "black" stroke-width = "4" fill = "black" />
    <circle cx="325" cy = "50" r = "1.5625" stroke = "black" stroke-width = "4" fill = "black" />
    <circle cx="325" cy = "56" r = "1.5625" stroke = "black" stroke-width = "4" fill = "black" />
    <circle cx="325" cy = "63" r = "1.5625" stroke = "black" stroke-width = "4" fill = "black" />
    <circle cx="325" cy = "69" r = "1.5625" stroke = "black" stroke-width = "4" fill = "black" />
    <circle cx="319" cy = "75" r = "1.5625" stroke = "black" stroke-width = "4" fill = "black" />
    <circle cx="312" cy = "75" r = "1.5625" stroke = "black" stroke-width = "4" fill = "black" />
    <circle cx="306" cy = "75" r = "1.5625" stroke = "black" stroke-width = "4" fill = "black" />
    <circle cx="344" cy = "75" r = "1.5625" stroke = "black" stroke-width = "4" fill = "black" />
    <circle cx="344" cy = "69" r = "1.5625" stroke = "black" stroke-width = "4" fill = "black" />
    <circle cx="350" cy = "69" r = "1.5625" stroke = "black" stroke-width = "4" fill = "black" />
    <circle cx="350" cy = "75" r = "1.5625" stroke = "black" stroke-width = "4" fill = "black" />
    <circle cx="381" cy = "75" r = "1.5625" stroke = "black" stroke-width = "4" fill = "black" />
    <circle cx="381" cy = "69" r = "1.5625" stroke = "black" stroke-width = "4" fill = "black" />
    <circle cx="387" cy = "69" r = "1.5625" stroke = "black" stroke-width = "4" fill = "black" />
    <circle cx="387" cy = "75" r = "1.5625" stroke = "black" stroke-width = "4" fill = "black" />
    <circle cx="419" cy = "75" r = "1.5625" stroke = "black" stroke-width = "4" fill = "black" />
    <circle cx="419" cy = "69" r = "1.5625" stroke = "black" stroke-width = "4" fill = "black" />
    <circle cx="425" cy = "69" r = "1.5625" stroke = "black" stroke-width = "4" fill = "black" />
    <circle cx="425" cy = "75" r = "1.5625" stroke = "black" stroke-width = "4" fill = "black" />
    <circle cx="50" cy = "269" r = "1.5625" stroke = "black" stroke-width = "4" fill = "black" />
    <circle cx="50" cy = "262" r = "1.5625" stroke = "black" stroke-width = "4" fill = "black" />
    <circle cx="50" cy = "256" r = "1.5625" stroke = "black" stroke-width = "4" fill = "black" />
    <circle cx="50" cy = "250" r = "1.5625" stroke = "black" stroke-width = "4" fill = "black" />
    <circle cx="50" cy = "244" r = "1.5625" stroke = "black" stroke-width = "4" fill = "black" />
    <circle cx="56" cy = "237" r = "1.5625" stroke = "black" stroke-width = "4" fill = "black" />
    <circle cx="62" cy = "237" r = "1.5625" stroke = "black" stroke-width = "4" fill = "black" />
    <circle cx="69" cy = "237" r = "1.5625" stroke = "black" stroke-width = "4" fill = "black" />
    <circle cx="75" cy = "244" r = "1.5625" stroke = "black" stroke-width = "4" fill = "black" />
    <circle cx="75" cy = "256" r = "1.5625" stroke = "black" stroke-width = "4" fill = "black" />
    <circle cx="69" cy = "256" r = "1.5625" stroke = "black" stroke-width = "4" fill = "black" />
    <circle cx="62" cy = "256" r = "1.5625" stroke = "black" stroke-width = "4" fill = "black" />
    <circle cx="75" cy = "262" r = "1.5625" stroke = "black" stroke-width = "4" fill = "black" />
    <circle cx="75" cy = "269" r = "1.5625" stroke = "black" stroke-width = "4" fill = "black" />
    <circle cx="75" cy = "275" r = "1.5625" stroke = "black" stroke-width = "4" fill = "black" />
    <circle cx="69" cy = "275" r = "1.5625" stroke = "black" stroke-width = "4" fill = "black" />
    <circle cx="62" cy = "275" r = "1.5625" stroke = "black" stroke-width = "4" fill = "black" />
    <circle cx="56" cy = "275" r = "1.5625" stroke = "black" stroke-width = "4" fill = "black" />
    <circle cx="87" cy = "269" r = "1.5625" stroke = "black" stroke-width = "4" fill = "black" />
    <circle cx="87" cy = "262" r = "1.5625" stroke = "black" stroke-width = "4" fill = "black" />
    <circle cx="87" cy = "256" r = "1.5625" stroke = "black" stroke-width = "4" fill = "black" />
    <circle cx="94" cy = "250" r = "1.5625" stroke = "black" stroke-width = "4" fill = "black" />
    <circle cx="100" cy = "250" r = "1.5625" stroke = "black" stroke-width = "4" fill = "black" />
    <circle cx="106" cy = "250" r = "1.5625" stroke = "black" stroke-width = "4" fill = "black" />
    <circle cx="112" cy = "256" r = "1.5625" stroke = "black" stroke-width = "4" fill = "black" />
    <circle cx="112" cy = "262" r = "1.5625" stroke = "black" stroke-width = "4" fill = "black" />
    <circle cx="106" cy = "262" r = "1.5625" stroke = "black" stroke-width = "4" fill = "black" />
    <circle cx="100" cy = "262" r = "1.5625" stroke = "black" stroke-width = "4" fill = "black" />
    <circle cx="94" cy = "262" r = "1.5625" stroke = "black" stroke-width = "4" fill = "black" />
    <circle cx="94" cy = "275" r = "1.5625" stroke = "black" stroke-width = "4" fill = "black" />
    <circle cx="100" cy = "275" r = "1.5625" stroke = "black" stroke-width = "4" fill = "black" />
    <circle cx="106" cy = "275" r = "1.5625" stroke = "black" stroke-width = "4" fill = "black" />
    <circle cx="125" cy = "269" r = "1.5625" stroke = "black" stroke-width = "4" fill = "black" />
    <circle cx="125" cy = "262" r = "1.5625" stroke = "black" stroke-width = "4" fill = "black" />
    <circle cx="125" cy = "256" r = "1.5625" stroke = "black" stroke-width = "4" fill = "black" />
    <circle cx="131" cy = "250" r = "1.5625" stroke = "black" stroke-width = "4" fill = "black" />
    <circle cx="137" cy = "250" r = "1.5625" stroke = "black" stroke-width = "4" fill = "black" />
    <circle cx="144" cy = "250" r = "1.5625" stroke = "black" stroke-width = "4" fill = "black" />
    <circle cx="150" cy = "256" r = "1.5625" stroke = "black" stroke-width = "4" fill = "black" />
    <circle cx="150" cy = "262" r = "1.5625" stroke = "black" stroke-width = "4" fill = "black" />
    <circle cx="150" cy = "269" r = "1.5625" stroke = "black" stroke-width = "4" fill = "black" />
    <circle cx="144" cy = "275" r = "1.5625" stroke = "black" stroke-width = "4" fill = "black" />
    <circle cx="137" cy = "275" r = "1.5625" stroke = "black" stroke-width = "4" fill = "black" />
    <circle cx="131" cy = "275" r = "1.5625" stroke = "black" stroke-width = "4" fill = "black" />
    <circle cx="162" cy = "275" r = "1.5625" stroke = "black" stroke-width = "4" fill = "black" />
    <circle cx="162" cy = "269" r = "1.5625" stroke = "black" stroke-width = "4" fill = "black" />
    <circle cx="162" cy = "262" r = "1.5625" stroke = "black" stroke-width = "4" fill = "black" />
    <circle cx="162" cy = "256" r = "1.5625" stroke = "black" stroke-width = "4" fill = "black" />
    <circle cx="162" cy = "250" r = "1.5625" stroke = "black" stroke-width = "4" fill = "black" />
    <circle cx="169" cy = "250" r = "1.5625" stroke = "black" stroke-width = "4" fill = "black" />
    <circle cx="175" cy = "256" r = "1.5625" stroke = "black" stroke-width = "4" fill = "black" />
    <circle cx="175" cy = "262" r = "1.5625" stroke = "black" stroke-width = "4" fill = "black" />
    <circle cx="175" cy = "269" r = "1.5625" stroke = "black" stroke-width = "4" fill = "black" />
    <circle cx="175" cy = "275" r = "1.5625" stroke = "black" stroke-width = "4" fill = "black" />
    <circle cx="181" cy = "250" r = "1.5625" stroke = "black" stroke-width = "4" fill = "black" />
    <circle cx="187" cy = "256" r = "1.5625" stroke = "black" stroke-width = "4" fill = "black" />
    <circle cx="187" cy = "262" r = "1.5625" stroke = "black" stroke-width = "4" fill = "black" />
    <circle cx="187" cy = "269" r = "1.5625" stroke = "black" stroke-width = "4" fill = "black" />
    <circle cx="187" cy = "275" r = "1.5625" stroke = "black" stroke-width = "4" fill = "black" />
    <circle cx="200" cy = "269" r = "1.5625" stroke = "black" stroke-width = "4" fill = "black" />
    <circle cx="200" cy = "262" r = "1.5625" stroke = "black" stroke-width = "4" fill = "black" />
    <circle cx="200" cy = "256" r = "1.5625" stroke = "black" stroke-width = "4" fill = "black" />
    <circle cx="206" cy = "250" r = "1.5625" stroke = "black" stroke-width = "4" fill = "black" />
    <circle cx="212" cy = "250" r = "1.5625" stroke = "black" stroke-width = "4" fill = "black" />
    <circle cx="219" cy = "250" r = "1.5625" stroke = "black" stroke-width = "4" fill = "black" />
    <circle cx="225" cy = "256" r = "1.5625" stroke = "black" stroke-width = "4" fill = "black" />
    <circle cx="225" cy = "262" r = "1.5625" stroke = "black" stroke-width = "4" fill = "black" />
    <circle cx="219" cy = "262" r = "1.5625" stroke = "black" stroke-width = "4" fill = "black" />
    <circle cx="212" cy = "262" r = "1.5625" stroke = "black" stroke-width = "4" fill = "black" />
    <circle cx="206" cy = "262" r = "1.5625" stroke = "black" stroke-width = "4" fill = "black" />
    <circle cx="206" cy = "275" r = "1.5625" stroke = "black" stroke-width = "4" fill = "black" />
    <circle cx="212" cy = "275" r = "1.5625" stroke = "black" stroke-width = "4" fill = "black" />
    <circle cx="219" cy = "275" r = "1.5625" stroke = "black" stroke-width = "4" fill = "black" />
    <circle cx="244" cy = "269" r = "1.5625" stroke = "black" stroke-width = "4" fill = "black" />
    <circle cx="244" cy = "262" r = "1.5625" stroke = "black" stroke-width = "4" fill = "black" />
    <circle cx="244" cy = "256" r = "1.5625" stroke = "black" stroke-width = "4" fill = "black" />
    <circle cx="244" cy = "250" r = "1.5625" stroke = "black" stroke-width = "4" fill = "black" />
    <circle cx="244" cy = "244" r = "1.5625" stroke = "black" stroke-width = "4" fill = "black" />
    <circle cx="244" cy = "237" r = "1.5625" stroke = "black" stroke-width = "4" fill = "black" />
    <circle cx="237" cy = "244" r = "1.5625" stroke = "black" stroke-width = "4" fill = "black" />
    <circle cx="250" cy = "244" r = "1.5625" stroke = "black" stroke-width = "4" fill = "black" />
    <circle cx="250" cy = "275" r = "1.5625" stroke = "black" stroke-width = "4" fill = "black" />
    <circle cx="256" cy = "275" r = "1.5625" stroke = "black" stroke-width = "4" fill = "black" />
    <circle cx="262" cy = "269" r = "1.5625" stroke = "black" stroke-width = "4" fill = "black" />
    <circle cx="275" cy = "275" r = "1.5625" stroke = "black" stroke-width = "4" fill = "black" />
    <circle cx="275" cy = "269" r = "1.5625" stroke = "black" stroke-width = "4" fill = "black" />
    <circle cx="275" cy = "262" r = "1.5625" stroke = "black" stroke-width = "4" fill = "black" />
    <circle cx="275" cy = "256" r = "1.5625" stroke = "black" stroke-width = "4" fill = "black" />
    <circle cx="275" cy = "250" r = "1.5625" stroke = "black" stroke-width = "4" fill = "black" />
    <circle cx="281" cy = "256" r = "1.5625" stroke = "black" stroke-width = "4" fill = "black" />
    <circle cx="287" cy = "250" r = "1.5625" stroke = "black" stroke-width = "4" fill = "black" />
    <circle cx="294" cy = "250" r = "1.5625" stroke = "black" stroke-width = "4" fill = "black" />
    <circle cx="300" cy = "256" r = "1.5625" stroke = "black" stroke-width = "4" fill = "black" />
    <circle cx="312" cy = "269" r = "1.5625" stroke = "black" stroke-width = "4" fill = "black" />
    <circle cx="312" cy = "262" r = "1.5625" stroke = "black" stroke-width = "4" fill = "black" />
    <circle cx="312" cy = "256" r = "1.5625" stroke = "black" stroke-width = "4" fill = "black" />
    <circle cx="319" cy = "250" r = "1.5625" stroke = "black" stroke-width = "4" fill = "black" />
    <circle cx="325" cy = "250" r = "1.5625" stroke = "black" stroke-width = "4" fill = "black" />
    <circle cx="331" cy = "250" r = "1.5625" stroke = "black" stroke-width = "4" fill = "black" />
    <circle cx="337" cy = "256" r = "1.5625" stroke = "black" stroke-width = "4" fill = "black" />
    <circle cx="337" cy = "262" r = "1.5625" stroke = "black" stroke-width = "4" fill = "black" />
    <circle cx="337" cy = "269" r = "1.5625" stroke = "black" stroke-width = "4" fill = "black" />
    <circle cx="331" cy = "275" r = "1.5625" stroke = "black" stroke-width = "4" fill = "black" />
    <circle cx="325" cy = "275" r = "1.5625" stroke = "black" stroke-width = "4" fill = "black" />
    <circle cx="319" cy = "275" r = "1.5625" stroke = "black" stroke-width = "4" fill = "black" />
    <circle cx="350" cy = "275" r = "1.5625" stroke = "black" stroke-width = "4" fill = "black" />
    <circle cx="350" cy = "269" r = "1.5625" stroke = "black" stroke-width = "4" fill = "black" />
    <circle cx="350" cy = "262" r = "1.5625" stroke = "black" stroke-width = "4" fill = "black" />
    <circle cx="350" cy = "256" r = "1.5625" stroke = "black" stroke-width = "4" fill = "black" />
    <circle cx="350" cy = "250" r = "1.5625" stroke = "black" stroke-width = "4" fill = "black" />
    <circle cx="356" cy = "256" r = "1.5625" stroke = "black" stroke-width = "4" fill = "black" />
    <circle cx="362" cy = "250" r = "1.5625" stroke = "black" stroke-width = "4" fill = "black" />
    <circle cx="369" cy = "250" r = "1.5625" stroke = "black" stroke-width = "4" fill = "black" />
    <circle cx="375" cy = "256" r = "1.5625" stroke = "black" stroke-width = "4" fill = "black" />
    <circle cx="375" cy = "262" r = "1.5625" stroke = "black" stroke-width = "4" fill = "black" />
    <circle cx="375" cy = "269" r = "1.5625" stroke = "black" stroke-width = "4" fill = "black" />
    <circle cx="375" cy = "275" r = "1.5625" stroke = "black" stroke-width = "4" fill = "black" />
</svg>