<svg width="400" height="400" viewbox = "0 0 400 400"  xmlns="http://www.w3.org/2000/svg">

<!--
<topfunctions>










function YofX(){
    X = plotparams.g*(x - plotparams.x0) - funcparams.X0;
    Y = Math.sinh(X);
    y = plotparams.y0 - plotparams.G*(Y - funcparams.Y0);
}


function YofX2(){
    X = plotparams.g*(x - plotparams.x0) - funcparams.X0;
    Y = funcparams.b*X*X + funcparams.c*X + funcparams.d;
    y = plotparams.y0 - plotparams.G*(Y - funcparams.Y0);
 }

function XYofT(){
    T = plotparams.g*t;
    X = Math.exp(-T/funcparams.tau)*Math.cos(2*Math.PI*T/funcparams.T);
    Y = Math.exp(-T/funcparams.tau)*Math.sin(2*Math.PI*T/funcparams.T);
    y = plotparams.y0 - plotparams.G*(Y - funcparams.Y0);
    x = plotparams.x0 - plotparams.G*(X - funcparams.X0);    
}


function plotfunction(){
/*

    currentStroke = "blue";
    currentLineWidth = 4;
    ctx.strokeStyle = currentStroke;
    ctx.lineWidth = currentLineWidth;
    ctx.beginPath();	
    x = 0;
    y = 0;
    t= 0;
    XYofT();
    currentSVG += "	<path d = \"M";
    currentSVG += Math.round(x).toString() + " ";
    currentSVG += Math.round(y).toString() + " ";
    for(t = 1;t < plotparams.duration;t++){
        ctx.moveTo(x,y);
        XYofT();
        ctx.lineTo(x,y);
        currentSVG += "L" + x + " " + y + " ";
    }
    ctx.stroke();
    currentSVG += "\""+ " stroke = \"" + currentStroke + "\" stroke-width = \"" + currentLineWidth.toString() + "\" fill = \"" + "none" + "\" "+"/>";


    /*plot one function:*/
    currentStroke = "blue";
    currentLineWidth = 4;
    ctx.strokeStyle = currentStroke;
    ctx.lineWidth = currentLineWidth;
    ctx.beginPath();	
    x = 0;
    YofX();
    currentSVG += "	<path d = \"M";
    currentSVG += Math.round(x).toString() + " ";
    currentSVG += Math.round(y).toString() + " ";
    for(x = 1;x < plotparams.plotwidth;x++){
        ctx.moveTo(x-1,y);
        YofX();
        ctx.lineTo(x,y);
        currentSVG += "L" + x + " " + y + " ";
    }
    ctx.stroke();
    currentSVG += "\""+ " stroke = \"" + currentStroke + "\" stroke-width = \"" + currentLineWidth.toString() + "\" fill = \"" + "none" + "\" "+"/>";
    /*finish plot one function*/
    

}


























</topfunctions>
-->

<!--
<imgurl>

</imgurl>
-->

<!--
<currentjson>
{
    "constants": {},
    "imgurl": "",
    "plotparams": {
        "G": 0.5864527076591595,
        "g": 0.038554328942953145,
        "duration": 545.4545454545454,
        "plotwidth": 400,
        "plotheight": 400,
        "x0": 200,
        "y0": 247.93388429752062
    },
    "funcparams": {
        "a": 0.12727272727272726,
        "b": 0,
        "c": 0,
        "X0": 0,
        "Y0": 0
    }
}
</currentjson>
-->

<!--
<equation>



<h2>Hyperbolic Sine</h2>
<p style="color:blue">

</p><p class="bigeq">
$$
Y = \sinh{X}$$
</p>
<p></p>

$$
X = g(x - x_0) - X_0
$$
$$
Y = f(X)
$$
    
$$
y = y_0 - G(Y - Y_0)
$$


<p>
    X and Y, and $X_0$ and $Y_0$ in physical units of the System. x and y and x0 and y0 in pixels.  G is in pixels per Y unit and g is in X units per pixel. 
</p>




</equation>
-->
	<path d = "M0 903 L1 877.7959256137216 L2 853.9741731122248 L3 831.0533724756448 L4 808.999449173855 L5 787.7796173942716 L6 767.3623313017946 L7 747.7172381421244 L8 728.8151331187399 L9 710.6279159764505 L10 693.1285492269825 L11 676.2910179544988 L12 660.0902911412913 L13 644.5022844561623 L14 629.5038244501636 L15 615.0726141064753 L16 601.1871996932051 L17 587.8269388698328 L18 574.9719699998847 L19 562.6031826242206 L20 550.7021890510345 L21 539.2512970203361 L22 528.2334834022771 L23 517.6323688902178 L24 507.43219365091545 L25 497.6177938956357 L26 488.1745793373533 L27 479.08851150053454 L28 470.34608285125216 L29 461.93429671661045 L30 453.8406479636252 L31 446.0531044088384 L32 438.5600889310285 L33 431.35046226042545 L34 424.4135064188452 L35 417.7389087861243 L36 411.31674676916805 L37 405.13747305082165 L38 399.19190139663317 L39 393.47119299841006 L40 387.9668433342662 L41 382.6706695256265 L42 377.57479817239204 L43 372.67165364818317 L44 367.9539468382587 L45 363.4146643033687 L46 359.0470578534331 L47 354.84463451554393 L48 350.8011468813799 L49 346.9105838196813 L50 343.1671615399795 L51 339.5653149942961 L52 336.09968960402927 L53 332.76513329972704 L54 329.5566888619168 L55 326.46958655160086 L56 323.4992370194652 L57 320.6412244832595 L58 317.89130016320456 L59 315.24537596566984 L60 312.6995184057299 L61 310.24994275956584 L62 307.89300743801687 L63 305.62520857292 L64 303.44317480818825 L65 301.3436622878832 L66 299.3235498338334 L67 297.37983430562645 L68 295.5096261360796 L69 293.71014503555 L70 291.9787158586995 L71 290.31276462756864 L72 288.709814705049 L73 287.1674831130635 L74 285.6834769899827 L75 284.2555901820099 L76 282.88169996346767 L77 281.55976388111105 L78 280.2878167177742 L79 279.0639675708389 L80 277.88639704118 L81 276.7533545284093 L82 275.6631556283979 L83 274.6141796292057 L84 273.60486710169897 L85 272.63371758127033 L86 271.6992873372179 L87 270.80018722646577 L88 269.93508062843506 L89 269.10268145799716 L90 268.30175225355293 L91 267.53110233739704 L92 266.78958604563223 L93 266.07610102500206 L94 265.3895865941099 L95 264.7290221665885 L96 264.0934257338753 L97 263.48185240533843 L98 262.8933930035832 L99 262.32717271285037 L100 261.78234977849695 L101 261.2581142556269 L102 260.75368680501026 L103 260.2683175345017 L104 259.80128488423554 L105 259.35189455393987 L106 258.91947847077597 L107 258.5033937961674 L108 258.103021970143 L109 257.71776779177316 L110 257.3470585343317 L111 256.99034309386906 L112 256.6470911699295 L113 256.31679247719586 L114 255.99895598688883 L115 255.6931091967937 L116 255.39879742882883 L117 255.11558315311194 L118 254.84304533751933 L119 254.58077882177074 L120 254.32839371511005 L121 254.0855148166856 L122 253.85178105776885 L123 253.62684496498244 L124 253.41037214373907 L125 253.20204078112363 L126 253.00154116747962 L127 252.80857523598843 L128 252.62285611955718 L129 252.44410772435617 L130 252.2720643193721 L131 252.10647014136714 L132 251.94707901465583 L133 251.7936539851354 L134 251.64596696802502 L135 251.50379840879023 L136 251.36693695674862 L137 251.23517915087174 L138 251.10832911731575 L139 250.9861982782312 L140 250.8686050714196 L141 250.7553746804192 L142 250.64633877461927 L143 250.5413352590164 L144 250.44020803324076 L145 250.34280675949418 L146 250.24898663905475 L147 250.15860819701618 L148 250.0715370749416 L149 249.98764383112348 L150 249.90680374815295 L151 249.8288966475125 L152 249.75380671091585 L153 249.68142230813044 L154 249.6116358310254 L155 249.54434353359935 L156 249.47944537774916 L157 249.41684488455155 L158 249.35644899083545 L159 249.29816791083232 L160 249.24191500269893 L161 249.18760663971366 L162 249.1351620859555 L163 249.08450337628025 L164 249.03555520041593 L165 248.98824479100512 L166 248.9425018154274 L167 248.89825827124145 L168 248.85544838509136 L169 248.81400851492643 L170 248.77387705538976 L171 248.73499434623434 L172 248.69730258363103 L173 248.6607457342361 L174 248.62526945189094 L175 248.59082099683008 L176 248.55734915727695 L177 248.52480417331157 L178 248.49313766289646 L179 248.4623025499508 L180 248.4322529943662 L181 248.4029443238599 L182 248.37433296756404 L183 248.3463763912523 L184 248.3190330341076 L185 248.29226224693707 L186 248.26602423174197 L187 248.24027998255332 L188 248.21499122744473 L189 248.1901203716366 L190 248.165630441607 L191 248.141485030126 L192 248.11764824213202 L193 248.09408464136942 L194 248.07075919770827 L195 248.04763723506787 L196 248.02468437986653 L197 248.0018665099212 L198 247.9791497037206 L199 247.9565001899969 L200 247.93388429752062 L201 247.91126840504435 L202 247.88861889132065 L203 247.86590208512004 L204 247.8430842151747 L205 247.82013135997337 L206 247.79700939733297 L207 247.77368395367182 L208 247.75012035290922 L209 247.72628356491524 L210 247.70213815343425 L211 247.67764822340465 L212 247.6527773675965 L213 247.62748861248792 L214 247.60174436329928 L215 247.57550634810417 L216 247.54873556093364 L217 247.52139220378893 L218 247.4934356274772 L219 247.46482427118133 L220 247.43551560067505 L221 247.40546604509044 L222 247.37463093214478 L223 247.34296442172968 L224 247.3104194377643 L225 247.27694759821117 L226 247.2424991431503 L227 247.20702286080515 L228 247.1704660114102 L229 247.1327742488069 L230 247.09389153965148 L231 247.0537600801148 L232 247.01232020994988 L233 246.9695103237998 L234 246.92526677961385 L235 246.87952380403613 L236 246.8322133946253 L237 246.783265218761 L238 246.73260650908574 L239 246.68016195532758 L240 246.6258535923423 L241 246.56960068420892 L242 246.5113196042058 L243 246.4509237104897 L244 246.38832321729208 L245 246.3234250614419 L246 246.25613276401583 L247 246.1863462869108 L248 246.1139618841254 L249 246.03887194752875 L250 245.9609648468883 L251 245.88012476391776 L252 245.79623152009964 L253 245.70916039802506 L254 245.6187819559865 L255 245.52496183554706 L256 245.42756056180048 L257 245.32643333602485 L258 245.22142982042197 L259 245.11239391462203 L260 244.99916352362163 L261 244.88157031681004 L262 244.7594394777255 L263 244.6325894441695 L264 244.50083163829262 L265 244.363970186251 L266 244.22180162701622 L267 244.07411460990585 L268 243.9206895803854 L269 243.7612984536741 L270 243.59570427566914 L271 243.42366087068507 L272 243.24491247548406 L273 243.0591933590528 L274 242.86622742756163 L275 242.6657278139176 L276 242.45739645130217 L277 242.2409236300588 L278 242.0159875372724 L279 241.78225377835565 L280 241.5393748799312 L281 241.2869897732705 L282 241.0247232575219 L283 240.7521854419293 L284 240.4689711662124 L285 240.17465939824754 L286 239.8688126081524 L287 239.55097611784538 L288 239.22067742511172 L289 238.87742550117216 L290 238.52071006070952 L291 238.1500008032681 L292 237.76474662489824 L293 237.36437479887385 L294 236.94829012426527 L295 236.5158740411014 L296 236.06648371080573 L297 235.5994510605395 L298 235.11408179003098 L299 234.60965433941436 L300 234.0854188165443 L301 233.5405958821909 L302 232.97437559145803 L303 232.38591618970284 L304 231.77434286116596 L305 231.13874642845275 L306 230.47818200093133 L307 229.79166757003918 L308 229.078182549409 L309 228.3366662576442 L310 227.56601634148828 L311 226.76508713704405 L312 225.93268796660618 L313 225.0675813685755 L314 224.16848125782332 L315 223.2340510137709 L316 222.2629014933423 L317 221.25358896583555 L318 220.2046129666434 L319 219.11441406663192 L320 217.9813715538613 L321 216.80380102420236 L322 215.57995187726704 L323 214.30800471393022 L324 212.98606863157354 L325 211.6121784130314 L326 210.18429160505855 L327 208.70028548197774 L328 207.15795388999223 L329 205.5550039674726 L330 203.88905273634177 L331 202.15762355949124 L332 200.35814245896165 L333 198.4879342894148 L334 196.54421876120784 L335 194.52410630715804 L336 192.42459378685302 L337 190.24256002212124 L338 187.9747611570244 L339 185.6178258354754 L340 183.16825018931132 L341 180.62239262937143 L342 177.97646843183668 L343 175.22654411178172 L344 172.368531575576 L345 169.39818204344039 L346 166.31107973312442 L347 163.10263529531417 L348 159.76807899101198 L349 156.30245360074514 L350 152.7006070550618 L351 148.95718477535996 L352 145.06662171366133 L353 141.0231340794973 L354 136.82071074160817 L355 132.45310429167256 L356 127.91382175678257 L357 123.19611494685806 L358 118.2929704226492 L359 113.19709906941472 L360 107.90092526077504 L361 102.39657559663115 L362 96.67586719840804 L363 90.73029554421956 L364 84.55102182587316 L365 78.12885980891693 L366 71.45426217619604 L367 64.5173063346158 L368 57.30767966401277 L369 49.81466418620283 L370 42.02712063141604 L371 33.933471878430765 L372 25.521685743789078 L373 16.779257094506733 L374 7.693189257687919 L375 -1.7500253005944444 L376 -11.564425055874239 L377 -21.764600295176564 L378 -32.36571480723583 L379 -43.383528425294884 L380 -54.83442045599318 L381 -66.7354140291794 L382 -79.1042014048434 L383 -91.95917027479155 L384 -105.31943109816385 L385 -119.20484551143406 L386 -133.63605585512235 L387 -148.63451586112106 L388 -164.22252254625013 L389 -180.42324935945751 L390 -197.2607806319413 L391 -214.76014738140927 L392 -232.94736452369872 L393 -251.84946954708315 L394 -271.4945627067533 L395 -291.91184879923026 L396 -313.13168057881376 L397 -335.1856038806035 L398 -358.1064045171835 L399 -381.9281570186803 " stroke = "blue" stroke-width = "4" fill = "none" /></svg>