<svg width="400" height="400" viewbox = "0 0 400 400"  xmlns="http://www.w3.org/2000/svg">

<!--
<json>
{
    "imgurl": "",
    "imgw": 2.983971328437751,
    "imgleft": -1.4873205904167783,
    "imgtop": -1.0519856642188752,
    "imgangle": 0,
    "svgwidth": 400,
    "svgheight": 400,
    "unit": 100,
    "x0": 615.5,
    "y0": 359,
    "x0rel": 0,
    "y0rel": 0,
    "glyph": "0336,0336,0332,0337,0332,0337,0350,0335,0304,0336,0336,0201,0337,0230,0336,0201,0335,0201,0337,0230,0336,0201,0335,0201,0337,0230,0336,0201,0335,0201,0337,0230,0336,0201,0335,0340,0337,0337,0330,0340,0335,0330,0340,0335,0330,0340,0350,0335,0335,0335,0304,0310,0337,0313,0336,0336,0201,0337,0222,0336,0201,0337,0350,0334,0334,0334,0310,0337,0313,0304,0330,0350,0335,0201,0331,0335,0335,0335,0335,0332,0335,0330,0334,0201,0304,0334,",
    "table": []
}
</json>
-->
    <line x1="125" y1="200" x2="143" y2="182" style="stroke:black;stroke-width:4" />
    <line x1="143" y1="182" x2="152" y2="173" style="stroke:black;stroke-width:4" />
	<path d = "M160 182 L178 165 L160 147 L143 165 L160 182 Z" stroke = "black" stroke-width = "4" fill = "none" />    <line x1="169" y1="173" x2="152" y2="156" style="stroke:black;stroke-width:4" />
    <line x1="169" y1="156" x2="178" y2="147" style="stroke:black;stroke-width:4" />
    <line x1="178" y1="147" x2="196" y2="129" style="stroke:black;stroke-width:4" />
    <line x1="196" y1="129" x2="213" y2="147" style="stroke:black;stroke-width:4" />
    <line x1="213" y1="147" x2="222" y2="156" style="stroke:black;stroke-width:4" />
	<path d = "M213 165 L231 182 L249 165 L231 147 L213 165 Z" stroke = "black" stroke-width = "4" fill = "none" />    <line x1="222" y1="173" x2="240" y2="156" style="stroke:black;stroke-width:4" />
    <line x1="240" y1="173" x2="249" y2="182" style="stroke:black;stroke-width:4" />
    <line x1="249" y1="182" x2="266" y2="200" style="stroke:black;stroke-width:4" />
    <line x1="266" y1="200" x2="249" y2="218" style="stroke:black;stroke-width:4" />
    <line x1="249" y1="218" x2="240" y2="227" style="stroke:black;stroke-width:4" />
	<path d = "M231 218 L213 235 L231 253 L249 235 L231 218 Z" stroke = "black" stroke-width = "4" fill = "none" />    <line x1="222" y1="227" x2="240" y2="244" style="stroke:black;stroke-width:4" />
    <line x1="222" y1="244" x2="213" y2="253" style="stroke:black;stroke-width:4" />
    <line x1="213" y1="253" x2="196" y2="271" style="stroke:black;stroke-width:4" />
    <line x1="196" y1="271" x2="178" y2="253" style="stroke:black;stroke-width:4" />
    <line x1="178" y1="253" x2="169" y2="244" style="stroke:black;stroke-width:4" />
	<path d = "M178 235 L160 218 L143 235 L160 253 L178 235 Z" stroke = "black" stroke-width = "4" fill = "none" />    <line x1="169" y1="227" x2="152" y2="244" style="stroke:black;stroke-width:4" />
    <line x1="152" y1="227" x2="143" y2="218" style="stroke:black;stroke-width:4" />
    <line x1="143" y1="218" x2="125" y2="200" style="stroke:black;stroke-width:4" />
<circle cx="125" cy = "200" r = "4" stroke = "black" stroke-width = "4" fill = "black" />
<circle cx="196" cy = "129" r = "4" stroke = "black" stroke-width = "4" fill = "black" />
<circle cx="266" cy = "200" r = "4" stroke = "black" stroke-width = "4" fill = "black" />
<circle cx="196" cy = "271" r = "4" stroke = "black" stroke-width = "4" fill = "black" />
    <line x1="196" y1="271" x2="196" y2="235" style="stroke:black;stroke-width:4" />
    <line x1="196" y1="235" x2="196" y2="218" style="stroke:black;stroke-width:4" />
    <line x1="196" y1="218" x2="196" y2="209" style="stroke:black;stroke-width:4" />
    <line x1="196" y1="209" x2="178" y2="209" style="stroke:black;stroke-width:4" />
    <line x1="196" y1="209" x2="213" y2="209" style="stroke:black;stroke-width:4" />
    <line x1="196" y1="191" x2="213" y2="191" style="stroke:black;stroke-width:4" />
    <line x1="196" y1="191" x2="178" y2="191" style="stroke:black;stroke-width:4" />
    <line x1="196" y1="191" x2="196" y2="182" style="stroke:black;stroke-width:4" />
    <line x1="196" y1="182" x2="196" y2="165" style="stroke:black;stroke-width:4" />
    <line x1="196" y1="165" x2="196" y2="129" style="stroke:black;stroke-width:4" />
    <line x1="125" y1="200" x2="25" y2="200" style="stroke:black;stroke-width:4" />
    <line x1="266" y1="200" x2="366" y2="200" style="stroke:black;stroke-width:4" />
</svg>