<svg width="500" height="500" viewbox = "0 0 500 500"  xmlns="http://www.w3.org/2000/svg">

<!--
<json>
{
    "imgurl": "",
    "imgw": 2.983971328437751,
    "imgleft": -1.4873205904167783,
    "imgtop": -1.0519856642188752,
    "imgangle": 0,
    "svgwidth": 500,
    "svgheight": 500,
    "unit": 100,
    "x0": 684,
    "y0": 399,
    "x0rel": 0,
    "y0rel": 0,
    "glyph": "0331,0220,0221,0222,",
    "table": []
}
</json>
-->
	<path d = "M250 350 L250 347 L250 341 L239 334 L250 328 L261 322 L250 316 L239 309 L250 303 L261 297 L250 291 L239 284 L250 278 L261 272 L250 266 L250 253 L250 250 " stroke = "black" stroke-width = "4" fill = "none" />	<path d = "M250 250  M250,250 C250,233 283,225 283,242  M283,242 C283,258 250,242 250,225  M250,225 C250,208 283,200 283,217  M283,217 C283,233 250,217 250,200  M250,200 C250,183 283,175 283,192  M283,192 C283,208 250,192 250,175  M250,175 C250,158 283,150 283,167  M283,167 C283,183 250,167 250,150 " stroke = "black" stroke-width = "4" fill = "none" />    <line x1="250" y1="150" x2="250" y2="125" style="stroke:black;stroke-width:4" />
    <line x1="250" y1="125" x2="250" y2="113" style="stroke:black;stroke-width:4" />
    <line x1="250" y1="113" x2="225" y2="112" style="stroke:black;stroke-width:4" />
    <line x1="250" y1="113" x2="275" y2="113" style="stroke:black;stroke-width:4" />
    <line x1="250" y1="88" x2="275" y2="88" style="stroke:black;stroke-width:4" />
    <line x1="250" y1="88" x2="225" y2="87" style="stroke:black;stroke-width:4" />
    <line x1="250" y1="88" x2="250" y2="75" style="stroke:black;stroke-width:4" />
    <line x1="250" y1="75" x2="250" y2="50" style="stroke:black;stroke-width:4" />
</svg>