<svg width="400" height="400" viewbox = "0 0 400 400"  xmlns="http://www.w3.org/2000/svg">

<!--
<topfunctions>






function YofX(){
//foobar foobar
    X = plotparams.g*(x - plotparams.x0) - funcparams.X0;

    Y = Math.abs(X%100 - 50) - 25;

    y = plotparams.y0 - plotparams.G*(Y - funcparams.Y0);
}





function plotfunction(){
    
    /*plot one function:*/
    currentStroke = "blue";
    currentLineWidth = 4;
    ctx.strokeStyle = currentStroke;
    ctx.lineWidth = currentLineWidth;
    ctx.beginPath();	
    x = 0;
    intx = x;
    YofX();
    currentSVG += "	<path d = \"M";
    currentSVG += Math.round(x).toString() + " ";
    currentSVG += Math.round(y).toString() + " ";
    for(x = 1;x < plotparams.plotwidth;x++){
        ctx.moveTo(x-1,y);
        YofX();
        ctx.lineTo(x,y);
        currentSVG += "L" + x + " " + y + " ";
    }
    ctx.stroke();
    currentSVG += "\""+ " stroke = \"" + currentStroke + "\" stroke-width = \"" + currentLineWidth.toString() + "\" fill = \"" + "none" + "\" "+"/>";
    /*finish plot one function*/
    
    

}





























</topfunctions>
-->

<!--
<imgurl>

</imgurl>
-->

<!--
<currentjson>
{
    "constants": {},
    "imgurl": "",
    "plotparams": {
        "G": 3.138428376721003,
        "g": 0.9999999999999996,
        "duration": 450.78888054094654,
        "plotwidth": 400,
        "plotheight": 400,
        "x0": 0,
        "y0": 200
    },
    "funcparams": {
        "phi": 0.2688139066614501,
        "T": 1.4465183912692552,
        "X0": 0,
        "Y0": 0
    }
}
</currentjson>
-->

<!--
<equation>


<h2>Triangle Wave</h2>
<p style="color:blue">

</p><p class="bigeq">
$$
    Y = \left|(X\mod{(100)} - 50\right| - 25;

$$
</p>
<p></p>

$$
X = g(x - x_0) - X_0
$$
$$
Y = f(X)
$$
    
$$
y = y_0 - G(Y - Y_0)
$$


<p>
    X and Y, and $X_0$ and $Y_0$ in physical units of the System. x and y and x0 and y0 in pixels.  G is in pixels per Y unit and g is in X units per pixel. 
</p>






</equation>
-->
	<path d = "M0 122 L1 124.67771895869592 L2 127.81614733541693 L3 130.95457571213794 L4 134.09300408885895 L5 137.23143246557993 L6 140.36986084230094 L7 143.50828921902195 L8 146.64671759574296 L9 149.78514597246397 L10 152.92357434918495 L11 156.06200272590593 L12 159.20043110262694 L13 162.33885947934795 L14 165.47728785606893 L15 168.61571623278994 L16 171.75414460951094 L17 174.89257298623195 L18 178.03100136295296 L19 181.16942973967394 L20 184.30785811639495 L21 187.44628649311596 L22 190.58471486983694 L23 193.72314324655795 L24 196.86157162327896 L25 199.99999999999997 L26 203.13842837672098 L27 206.27685675344196 L28 209.41528513016297 L29 212.55371350688398 L30 215.69214188360496 L31 218.83057026032597 L32 221.96899863704698 L33 225.107427013768 L34 228.245855390489 L35 231.38428376720998 L36 234.522712143931 L37 237.661140520652 L38 240.79956889737298 L39 243.937997274094 L40 247.076425650815 L41 250.21485402753598 L42 253.353282404257 L43 256.491710780978 L44 259.630139157699 L45 262.76856753442 L46 265.906995911141 L47 269.04542428786203 L48 272.183852664583 L49 275.322281041304 L50 278.460709418025 L51 275.3222810413041 L52 272.1838526645831 L53 269.04542428786215 L54 265.90699591114117 L55 262.76856753442013 L56 259.63013915769915 L57 256.49171078097817 L58 253.35328240425713 L59 250.21485402753615 L60 247.07642565081514 L61 243.93799727409413 L62 240.79956889737312 L63 237.6611405206521 L64 234.52271214393113 L65 231.38428376721012 L66 228.2458553904891 L67 225.1074270137681 L68 221.96899863704712 L69 218.8305702603261 L70 215.6921418836051 L71 212.5537135068841 L72 209.4152851301631 L73 206.2768567534421 L74 203.1384283767211 L75 200.00000000000009 L76 196.86157162327908 L77 193.7231432465581 L78 190.5847148698371 L79 187.44628649311608 L80 184.30785811639507 L81 181.16942973967411 L82 178.0310013629531 L83 174.8925729862321 L84 171.75414460951112 L85 168.6157162327901 L86 165.4772878560691 L87 162.3388594793481 L88 159.20043110262708 L89 156.0620027259061 L90 152.9235743491851 L91 149.78514597246408 L92 146.6467175957431 L93 143.5082892190221 L94 140.36986084230108 L95 137.23143246558007 L96 134.09300408885906 L97 130.95457571213808 L98 127.81614733541706 L99 124.67771895869606 L100 121.53929058197505 L101 124.67771895869579 L102 127.8161473354168 L103 130.9545757121378 L104 134.0930040888588 L105 137.23143246557981 L106 140.3698608423008 L107 143.5082892190218 L108 146.6467175957428 L109 149.78514597246382 L110 152.92357434918483 L111 156.0620027259058 L112 159.2004311026268 L113 162.33885947934778 L114 165.47728785606878 L115 168.6157162327898 L116 171.7541446095108 L117 174.8925729862318 L118 178.0310013629528 L119 181.1694297396738 L120 184.3078581163948 L121 187.44628649311582 L122 190.5847148698368 L123 193.7231432465578 L124 196.86157162327882 L125 199.99999999999983 L126 203.1384283767208 L127 206.27685675344182 L128 209.41528513016283 L129 212.55371350688384 L130 215.69214188360485 L131 218.83057026032583 L132 221.96899863704684 L133 225.10742701376785 L134 228.24585539048886 L135 231.38428376720987 L136 234.52271214393085 L137 237.66114052065186 L138 240.79956889737286 L139 243.93799727409387 L140 247.07642565081488 L141 250.21485402753586 L142 253.35328240425687 L143 256.4917107809779 L144 259.63013915769886 L145 262.7685675344199 L146 265.9069959111409 L147 269.0454242878619 L148 272.1838526645829 L149 275.3222810413039 L150 278.4607094180249 L151 275.3222810413042 L152 272.18385266458324 L153 269.04542428786226 L154 265.9069959111412 L155 262.76856753442024 L156 259.6301391576992 L157 256.4917107809782 L158 253.35328240425724 L159 250.21485402753623 L160 247.07642565081522 L161 243.9379972740943 L162 240.79956889737332 L163 237.6611405206523 L164 234.5227121439313 L165 231.3842837672103 L166 228.24585539048928 L167 225.1074270137683 L168 221.9689986370473 L169 218.83057026032628 L170 215.69214188360527 L171 212.5537135068843 L172 209.41528513016328 L173 206.27685675344227 L174 203.13842837672127 L175 200.00000000000026 L176 196.86157162327927 L177 193.72314324655827 L178 190.58471486983726 L179 187.44628649311625 L180 184.30785811639527 L181 181.16942973967426 L182 178.03100136295325 L183 174.89257298623224 L184 171.75414460951123 L185 168.61571623279025 L186 165.47728785606924 L187 162.33885947934823 L188 159.20043110262722 L189 156.0620027259062 L190 152.92357434918523 L191 149.78514597246422 L192 146.6467175957432 L193 143.5082892190222 L194 140.3698608423012 L195 137.2314324655802 L196 134.0930040888592 L197 130.9545757121382 L198 127.8161473354172 L199 124.67771895869619 L200 121.5392905819752 L201 124.67771895869566 L202 127.81614733541666 L203 130.95457571213768 L204 134.09300408885866 L205 137.23143246557967 L206 140.36986084230068 L207 143.50828921902166 L208 146.64671759574267 L209 149.78514597246368 L210 152.9235743491847 L211 156.0620027259057 L212 159.20043110262668 L213 162.3388594793477 L214 165.4772878560687 L215 168.6157162327897 L216 171.75414460951072 L217 174.8925729862317 L218 178.0310013629527 L219 181.16942973967372 L220 184.30785811639473 L221 187.4462864931157 L222 190.58471486983672 L223 193.72314324655773 L224 196.86157162327865 L225 199.99999999999963 L226 203.13842837672064 L227 206.27685675344165 L228 209.41528513016266 L229 212.55371350688367 L230 215.69214188360465 L231 218.83057026032566 L232 221.96899863704667 L233 225.10742701376768 L234 228.24585539048866 L235 231.38428376720967 L236 234.52271214393068 L237 237.66114052065168 L238 240.7995688973727 L239 243.93799727409368 L240 247.07642565081468 L241 250.2148540275357 L242 253.3532824042567 L243 256.4917107809777 L244 259.6301391576987 L245 262.76856753441973 L246 265.9069959111407 L247 269.0454242878617 L248 272.18385266458273 L249 275.3222810413037 L250 278.46070941802475 L251 275.32228104130445 L252 272.1838526645834 L253 269.04542428786243 L254 265.9069959111414 L255 262.7685675344204 L256 259.63013915769943 L257 256.4917107809784 L258 253.3532824042574 L259 250.2148540275364 L260 247.0764256508154 L261 243.9379972740944 L262 240.7995688973734 L263 237.6611405206524 L264 234.5227121439314 L265 231.38428376721038 L266 228.2458553904894 L267 225.1074270137684 L268 221.96899863704738 L269 218.83057026032637 L270 215.69214188360536 L271 212.55371350688438 L272 209.41528513016337 L273 206.27685675344236 L274 203.13842837672135 L275 200.00000000000037 L276 196.86157162327936 L277 193.72314324655835 L278 190.58471486983734 L279 187.44628649311633 L280 184.30785811639535 L281 181.16942973967434 L282 178.03100136295333 L283 174.89257298623232 L284 171.75414460951134 L285 168.61571623279033 L286 165.47728785606932 L287 162.33885947934832 L288 159.2004311026273 L289 156.06200272590632 L290 152.92357434918532 L291 149.7851459724643 L292 146.6467175957433 L293 143.5082892190223 L294 140.3698608423013 L295 137.2314324655803 L296 134.0930040888593 L297 130.9545757121383 L298 127.81614733541728 L299 124.67771895869629 L300 121.53929058197528 L301 124.67771895869556 L302 127.81614733541657 L303 130.95457571213757 L304 134.09300408885858 L305 137.2314324655796 L306 140.36986084230057 L307 143.5082892190216 L308 146.6467175957426 L309 149.7851459724636 L310 152.9235743491846 L311 156.0620027259056 L312 159.2004311026266 L313 162.3388594793476 L314 165.4772878560686 L315 168.61571623278962 L316 171.7541446095106 L317 174.8925729862316 L318 178.03100136295262 L319 181.16942973967363 L320 184.30785811639464 L321 187.44628649311545 L322 190.58471486983646 L323 193.72314324655747 L324 196.86157162327845 L325 199.99999999999946 L326 203.13842837672047 L327 206.27685675344148 L328 209.4152851301625 L329 212.55371350688347 L330 215.69214188360448 L331 218.8305702603255 L332 221.9689986370465 L333 225.10742701376748 L334 228.2458553904885 L335 231.3842837672095 L336 234.5227121439305 L337 237.6611405206515 L338 240.7995688973725 L339 243.9379972740935 L340 247.0764256508145 L341 250.21485402753552 L342 253.3532824042565 L343 256.49171078097754 L344 259.6301391576985 L345 262.7685675344195 L346 265.90699591114054 L347 269.0454242878615 L348 272.18385266458256 L349 275.32228104130354 L350 278.4607094180245 L351 275.3222810413046 L352 272.1838526645836 L353 269.0454242878626 L354 265.9069959111416 L355 262.7685675344206 L356 259.6301391576996 L357 256.49171078097856 L358 253.35328240425758 L359 250.21485402753657 L360 247.07642565081557 L361 243.93799727409458 L362 240.79956889737358 L363 237.66114052065257 L364 234.52271214393159 L365 231.38428376721058 L366 228.24585539048957 L367 225.10742701376856 L368 221.96899863704755 L369 218.83057026032657 L370 215.69214188360556 L371 212.55371350688455 L372 209.41528513016354 L373 206.27685675344253 L374 203.13842837672155 L375 200.00000000000054 L376 196.86157162327953 L377 193.72314324655852 L378 190.5847148698375 L379 187.44628649311653 L380 184.30785811639552 L381 181.1694297396745 L382 178.0310013629535 L383 174.89257298623252 L384 171.7541446095115 L385 168.6157162327905 L386 165.4772878560695 L387 162.3388594793485 L388 159.2004311026275 L389 156.0620027259065 L390 152.9235743491855 L391 149.78514597246448 L392 146.6467175957435 L393 143.5082892190225 L394 140.36986084230148 L395 137.23143246558047 L396 134.09300408885946 L397 130.95457571213848 L398 127.81614733541747 L399 124.67771895869646 " stroke = "blue" stroke-width = "4" fill = "none" /></svg>