<svg width="400" height="400" viewbox = "0 0 400 400"  xmlns="http://www.w3.org/2000/svg">

<!--
<topfunctions>






function YofX(){
//foobar foobar
    X = plotparams.g*(x - plotparams.x0) - funcparams.X0;

    Y = BesselJ0(X);

    y = plotparams.y0 - plotparams.G*(Y - funcparams.Y0);
}

function YofX2(){
//foobar foobar
    X = plotparams.g*(x - plotparams.x0) - funcparams.X0;

    Y = BesselJ1(X);

    y = plotparams.y0 - plotparams.G*(Y - funcparams.Y0);
}

function YofX3(){
//foobar foobar
    X = plotparams.g*(x - plotparams.x0) - funcparams.X0;

    Y = BesselJ(2,X);

    y = plotparams.y0 - plotparams.G*(Y - funcparams.Y0);
}

function plotfunction(){
    
    /*plot one function:*/
    currentStroke = "red";
    currentLineWidth = 4;
    ctx.strokeStyle = currentStroke;
    ctx.lineWidth = currentLineWidth;
    ctx.beginPath();	
    x = 0;
    intx = x;
    YofX();
    currentSVG += "	<path d = \"M";
    currentSVG += Math.round(x).toString() + " ";
    currentSVG += Math.round(y).toString() + " ";
    for(x = 1;x < plotparams.plotwidth;x++){
        ctx.moveTo(x-1,y);
        YofX();
        ctx.lineTo(x,y);
        currentSVG += "L" + x + " " + y + " ";
    }
    ctx.stroke();
    currentSVG += "\""+ " stroke = \"" + currentStroke + "\" stroke-width = \"" + currentLineWidth.toString() + "\" fill = \"" + "none" + "\" "+"/>";
    /*finish plot one function*/
    
        /*plot one function:*/
    currentStroke = "green";
    currentLineWidth = 4;
    ctx.strokeStyle = currentStroke;
    ctx.lineWidth = currentLineWidth;
    ctx.beginPath();	
    x = 0;
    intx = x;
    YofX2();
    currentSVG += "	<path d = \"M";
    currentSVG += Math.round(x).toString() + " ";
    currentSVG += Math.round(y).toString() + " ";
    for(x = 1;x < plotparams.plotwidth;x++){
        ctx.moveTo(x-1,y);
        YofX2();
        ctx.lineTo(x,y);
        currentSVG += "L" + x + " " + y + " ";
    }
    ctx.stroke();
    currentSVG += "\""+ " stroke = \"" + currentStroke + "\" stroke-width = \"" + currentLineWidth.toString() + "\" fill = \"" + "none" + "\" "+"/>";
    /*finish plot one function*/
    
    /*plot one function:*/
    currentStroke = "blue";
    currentLineWidth = 4;
    ctx.strokeStyle = currentStroke;
    ctx.lineWidth = currentLineWidth;
    ctx.beginPath();	
    x = 0;
    intx = x;
    YofX3();
    currentSVG += "	<path d = \"M";
    currentSVG += Math.round(x).toString() + " ";
    currentSVG += Math.round(y).toString() + " ";
    for(x = 1;x < plotparams.plotwidth;x++){
        ctx.moveTo(x-1,y);
        YofX3();
        ctx.lineTo(x,y);
        currentSVG += "L" + x + " " + y + " ";
    }
    ctx.stroke();
    currentSVG += "\""+ " stroke = \"" + currentStroke + "\" stroke-width = \"" + currentLineWidth.toString() + "\" fill = \"" + "none" + "\" "+"/>";
    /*finish plot one function*/
    
}

// http://www.mhtl.uwaterloo.ca/old/courses/me3532/js/bessel.html


function BesselJ(n,x){
	if (n == null || n.length == 0) return "n not specified";
	if (Math.floor(n) != n) return "Error: n not integer";
	if (n < 2) return "Error: n < 2";
	var ACC = 40.0;		// Make larger to increase accuracy.
	var BIGNO = 1.0e10;
	var BIGNI = 1.0e-10;
	var j,jsum,m,ax,bj,bjm,bjp,sum,tox,ans;
	ax=Math.abs(x);
	if (ax == 0.0) return 0.0;
	else if (ax > n) {
		tox = 2.0/ax;
		bjm=BesselJ0(ax);
		bj=BesselJ1(ax);
		for (j=1;j<n;j++) {
			bjp=j*tox*bj-bjm;
			bjm=bj;
			bj=bjp;
		}
		ans=bj;
	} else {
		tox=2.0/ax;
		if (Math.sqrt(ACC*n) >= 0)
			m=2*((n + Math.floor(Math.sqrt(ACC*n))) / 2);
		else
			m=2*((n + Math.ceil(Math.sqrt(ACC*n))) / 2);
		jsum=0;
		bjp=ans=sum=0.0;
		bj=1.0;
		for (j=m;j>0;j--) {
			bjm=j*tox*bj-bjp;
			bjp=bj;
			bj=bjm;
			if (Math.abs(bj) > BIGNO) {
				bj *= BIGNI;
				bjp *= BIGNI;
				ans *= BIGNI;
				sum *= BIGNI;
			}
			if (jsum) sum += bj;
			jsum=!jsum;
			if (j == n) ans=bjp;
		}
		sum=2.0*sum-bj;
		ans /= sum;
	}
	return x < 0.0 && (n & 1) ? -ans : ans;
}


function BesselJ0(x) {
	var ax,z,xx,y,ans,ans1,ans2;
	ax = Math.abs(x)
	if (ax < 8.0) {
		y = x * x;
		ans1 = 57568490574.0 + y * (-13362590354.0 + y * (651619640.7 + y * (-11214424.18 + y * (77392.33017 + y * (-184.9052456)))));
		ans2 = 57568490411.0 + y * (1029532985.0 + y * (9494680.718 + y * (59272.64853 + y * (267.8532712 + y * 1.0))));
		ans = ans1 / ans2;
	} else {
		z = 8.0 / ax;
		y = z * z;
		xx = ax - 0.785398164;
		ans1 = 1.0 + y * (-0.1098628627e-2 + y * (0.2734510407e-4 + y * (-0.2073370639e-5 + y * 0.2093887211e-6)));
		ans2 = -0.1562499995e-1 + y * (0.1430488765e-3 + y * (-0.6911147651e-5 + y * (0.7621095161e-6 - y * 0.934935152e-7)));
		ans = Math.sqrt(0.636619772 / ax) * (Math.cos(xx) * ans1 - z * Math.sin(xx) * ans2);
	}
	return ans;
}

function BesselJ1(x) {
	var ax,z,xx,y,ans,ans1,ans2;
	ax = Math.abs(x);
	if (ax < 8.0) {
		y=x*x;
		ans1 = x*(72362614232.0+y*(-7895059235.0+y*(242396853.1+y*(-2972611.439+y*(15704.48260+y*(-30.16036606))))));
		ans2 = 144725228442.0+y*(2300535178.0+y*(18583304.74+y*(99447.43394+y*(376.9991397+y*1.0))));
		ans = ans1/ans2;
	} else {
		z=8.0/ax;
		y=z*z;
		xx=ax-2.356194491;
		ans1=1.0+y*(0.183105e-2+y*(-0.3516396496e-4+y*(0.2457520174e-5+y*(-0.240337019e-6))));
		ans2=0.04687499995+y*(-0.2002690873e-3+y*(0.8449199096e-5+y*(-0.88228987e-6+y*0.105787412e-6)));
		ans=Math.sqrt(0.636619772/ax)*(Math.cos(xx)*ans1-z*Math.sin(xx)*ans2);
		if (x < 0.0) ans = -ans;
	}
	return ans;	
}
























</topfunctions>
-->

<!--
<imgurl>

</imgurl>
-->

<!--
<currentjson>
{
    "constants": {},
    "imgurl": "",
    "plotparams": {
        "G": 186.89472398554193,
        "g": 0.08810345414081139,
        "duration": 450.78888054094654,
        "plotwidth": 400,
        "plotheight": 400,
        "x0": 0,
        "y0": 200.00000000000003
    },
    "funcparams": {
        "phi": 0.2688139066614501,
        "T": 1.4465183912692552,
        "X0": 0,
        "Y0": 0
    }
}
</currentjson>
-->

<!--
<equation>
<p>
    <a style="color:blue;" href="http://www.mhtl.uwaterloo.ca/old/courses/me3532/js/bessel.html">http://www.mhtl.uwaterloo.ca/old/courses/me3532/js/bessel.html</a>
</p>
<h2>Bessel Function</h2>
<p style="color:blue">

</p><p class="bigeq">
$$
Y = J_n(X)
$$
</p>


$$
X = g(x - x_0) - X_0
$$
$$
Y = f(X)
$$
    
$$
y = y_0 - G(Y - Y_0)
$$


<p>
    X and Y, and $X_0$ and $Y_0$ in physical units of the System. x and y and x0 and y0 in pixels.  G is in pixels per Y unit and g is in X units per pixel. 
</p>






</equation>
-->
	<path d = "M0 13 L1 13.467779019085356 L2 14.553180496555939 L3 16.355166180407053 L4 18.863258531029715 L5 22.062883917013153 L6 25.935466765624653 L7 30.458549514405945 L8 35.60593755018877 L9 41.3478681526631 L10 47.651202297319855 L11 54.47963801826984 L12 61.793943886183825 L13 69.55221102141624 L14 77.71012193819865 L15 86.22123440348649 L16 95.03727839437688 L17 104.10846415168423 L18 113.3837992548399 L19 122.81141258527792 L20 132.33888300225863 L21 141.91357052695872 L22 151.48294781779393 L23 160.99492972241202 L24 170.39819870955944 L25 179.6425240169425 L26 188.67907239901902 L27 197.46070842101236 L28 205.942282321881 L29 214.08090355894169 L30 221.83619824968324 L31 229.17054884127873 L32 236.04931446457869 L33 242.4410305660385 L34 248.3175865571303 L35 253.65438037525706 L36 258.43044901193696 L37 262.62857423189655 L38 266.2353628795213 L39 269.24130134562444 L40 271.6407839464741 L41 273.43211514718456 L42 274.6174857416775 L43 275.20292328016797 L44 275.19821721129006 L45 274.6168193783009 L46 273.47572067609644 L47 271.7953048368658 L48 269.5991804659922 L49 266.91399259521256 L50 263.7692151560688 L51 260.196925902409 L52 256.2315654252473 L53 251.90968200591968 L54 247.26966414347518 L55 242.35146266903422 L56 237.19630442293163 L57 231.8463995194294 L58 226.34464425835873 L59 220.7343217630065 L60 215.058802428841 L61 209.3612462582575 L62 203.68430913255617 L63 198.0698550340472 L64 192.55867617884397 L65 187.19022295495574 L66 182.00234548126133 L67 177.03104851142558 L68 172.3102613035032 L69 167.87162396164902 L70 163.74429163185553 L71 159.9547577999054 L72 156.52669779774217 L73 153.4808334752732 L74 150.8348198393445 L75 148.60315430137632 L76 146.79710901115388 L77 145.42468658769525 L78 144.4905993902342 L79 143.996272304388 L80 143.93986885178413 L81 144.31634026703722 L82 145.11749702522985 L83 146.33210214715828 L84 147.94598545973048 L85 149.9421778461769 L86 152.3010643862243 L87 155.0005551611142 L88 158.01627238325239 L89 161.32175240620842 L90 164.88866107854605 L91 168.6870201644964 L92 172.6854415605515 L93 176.85137712579748 L94 181.15136629129773 L95 185.5512924182775 L96 190.01664087721045 L97 194.51275779605567 L98 199.00510759790856 L99 203.45952746899695 L100 207.84247693196843 L101 212.12128074646193 L102 216.2643634186485 L103 220.24147367324633 L104 224.02389732490954 L105 227.58465708017002 L106 230.8986979055667 L107 233.9430567113895 L108 236.69701522274838 L109 239.14223503949626 L110 241.2628740229241 L111 243.04568328906396 L112 244.4800842348324 L113 245.55822517301928 L114 246.27501730417362 L115 246.62814990663065 L116 246.61808477913664 L117 246.24803012264246 L118 245.52389419773758 L119 244.45421924080307 L120 243.05009626421065 L121 241.325061502764 L122 239.29497539909357 L123 236.97788514394313 L124 234.39387190236192 L125 231.5648839629302 L126 228.51455714356425 L127 225.26802387350483 L128 221.85171244621188 L129 218.29313800156234 L130 214.6206868475723 L131 210.863395771506 L132 207.0507280174658 L133 203.21234762224196 L134 199.3778938032777 L135 195.57675708214234 L136 191.83785880401717 L137 188.18943567863846 L138 184.6588309212086 L139 181.27229351340196 L140 178.05478703523073 L141 175.02980943877768 L142 172.21922504527797 L143 169.64310994846392 L144 167.31961190023677 L145 165.2648256404477 L146 163.49268451172279 L147 162.0148690738019 L148 160.84073330072994 L149 159.97724880945012 L150 159.4289674309178 L151 159.19800229581466 L152 159.28402746734545 L153 159.68429601447608 L154 160.3936762813687 L155 161.40470597369384 L156 162.70766355095495 L157 164.29065628690842 L158 166.1397242385283 L159 168.23895924863564 L160 170.5706379991138 L161 173.11536803134658 L162 175.85224555884622 L163 178.75902381464243 L164 181.812290603442 L165 184.9876536663457 L166 188.25993241444377 L167 191.60335454722951 L168 194.99175604273947 L169 198.3987829887951 L170 201.7980937187812 L171 205.1635597210268 L172 208.4694638079727 L173 211.69069405972323 L174 214.80293209603738 L175 217.78283428095386 L176 220.60820452465896 L177 223.2581574173776 L178 225.71327050944046 L179 227.9557246396071 L180 229.96943130950729 L181 231.74014620495393 L182 233.2555680740605 L183 234.50542228673186 L184 235.48152851928637 L185 236.17785213080498 L186 236.5905389233406 L187 236.71793310540392 L188 236.56057840620412 L189 236.12120241599385 L190 235.4046843545863 L191 234.41800659472725 L192 233.17019038858461 L193 231.67221636326084 L194 229.9369304640646 L195 227.97893613147204 L196 225.81447359847346 L197 223.461287288608 L198 220.93848238076376 L199 218.26637168413822 L200 215.46631403507843 L201 212.56054548636186 L202 209.5720046084428 L203 206.52415326093458 L204 203.44079422088618 L205 200.34588707206208 L206 197.26336376636803 L207 194.21694526475912 L208 191.22996065051083 L209 188.32517008276508 L210 185.52459292302916 L211 182.84934232209798 L212 180.3194675000881 L213 177.95380488835798 L214 175.76983922956754 L215 173.783575651591 L216 172.0094236430701 L217 170.46009376379124 L218 169.1465078225214 L219 168.07772314924 L220 167.26087147867025 L221 166.70111284850302 L222 166.40160479959195 L223 166.3634870475694 L224 166.5858816766933 L225 167.06590878818753 L226 167.79871741778322 L227 168.7775314214949 L228 169.99370991574273 L229 171.4368217486127 L230 173.09473337414016 L231 174.95370940179825 L232 176.99852499959707 L233 179.21258924205833 L234 181.578078414444 L235 184.07607821258216 L236 186.68673371395232 L237 189.38940594083374 L238 192.16283379065467 L239 194.98530007253217 L240 197.8348003625907 L241 200.6892133741694 L242 203.52647153255018 L243 206.32473044738154 L244 209.06253598947248 L245 211.71898770193843 L246 214.2738973086008 L247 216.70794112476776 L248 219.00280522671946 L249 221.14132229594534 L250 223.10759912196806 L251 224.88713382287412 L252 226.46692192486793 L253 227.8355505306142 L254 228.98327990014272 L255 229.90211186691855 L256 230.5858446145612 L257 231.03011344582848 L258 231.23241728404437 L259 231.19213075730786 L260 230.91050182672544 L261 230.39063503071472 L262 229.63746052728695 L263 228.65768922429308 L264 227.4597543930978 L265 226.05374026322679 L266 224.45129819345215 L267 222.66555110780172 L268 220.71098697240828 L269 218.60334217030538 L270 216.35947570563036 L271 213.99723523566277 L272 211.53531598822735 L273 208.99311367279265 L274 206.3905725357492 L275 203.74802974354748 L276 201.08605730140712 L277 198.42530273000975 L278 195.78632972788267 L279 193.18946004306247 L280 190.65461776414924 L281 188.20117721816962 L282 185.84781563095333 L283 183.61237166527468 L284 181.5117109031453 L285 179.5615992817786 L286 177.77658542833166 L287 176.16989276709387 L288 174.75332219488902 L289 173.53716603672206 L290 172.53013390477608 L291 171.73929099046242 L292 171.1700092220609 L293 170.8259316203266 L294 170.70895008205179 L295 170.8191967177524 L296 171.15504876519438 L297 171.71314699618887 L298 172.48842743076636 L299 173.47416607127246 L300 174.66203626988997 L301 176.04217824732805 L302 177.60328018865792 L303 179.33267025520442 L304 181.21641876967306 L305 183.23944975592045 L306 185.38566094551638 L307 187.63805130101323 L308 189.97885505109056 L309 192.38968118586806 L310 194.8516573220262 L311 197.3455768172 L312 199.85204799163375 L313 202.351644302431 L314 204.82505431198808 L315 207.25323029734966 L316 209.61753436121722 L317 211.89988092803085 L318 214.08287453974435 L319 216.14994190534608 L320 218.08545720552894 L321 219.8748597087816 L322 221.50476281713492 L323 222.9630537283374 L324 224.23898297582065 L325 225.32324318785507 L326 226.2080364921539 L327 226.88713008120473 L328 227.35589954608656 L329 227.61135968175452 L330 227.65218256400183 L331 227.47870279678932 L332 227.0929099276055 L333 226.49842812722554 L334 225.70048332791828 L335 224.70585811005782 L336 223.52283472050362 L337 222.16112669630317 L338 220.63179965356983 L339 218.9471818831347 L340 217.12076547115694 L341 215.16709873372557 L342 213.10167081906752 L343 210.94078938881958 L344 208.70145234048923 L345 206.4012145763656 L346 204.05805085942123 L347 201.69021582393535 L348 199.31610222746505 L349 196.95409854128692 L350 194.622446978455 L351 192.33910305219484 L352 190.12159774253269 L353 187.9869033259957 L354 185.95130389210408 L355 184.0302715314695 L356 182.23834913394492 L357 180.58904068180135 L358 179.0947098627806 L359 177.76648776155977 L360 176.61419031619627 L361 175.64624614906256 L362 174.8696353002406 L363 174.28983930595976 L364 173.9108029761006 L365 173.73490813373311 L366 173.76295948682542 L367 173.9941827083603 L368 174.42623470686033 L369 175.05522597547093 L370 175.87575481500755 L371 176.88095313544662 L372 178.0625434519242 L373 179.41090660607833 L374 180.9151596621737 L375 182.56324335049723 L376 184.34201835859935 L377 186.23736970459908 L378 188.2343183664959 L379 190.31713928765606 L380 192.46948483178434 L381 194.67451272109125 L382 196.91501745930077 L383 199.17356421684622 L384 201.43262413925223 L385 203.67471003137206 L386 205.88251136993065 L387 208.0390276046531 L388 210.12769872408302 L389 212.13253208587088 L390 214.03822454261737 L391 215.83027893306357 L392 217.49511405418144 L393 219.02016728218337 L394 220.39398906921755 L395 221.60632860706724 L396 222.64821001902743 L397 223.51199851574057 L398 224.19145602953637 L399 224.6817859241407 " stroke = "red" stroke-width = "4" fill = "none" />	<path d = "M0 200 L1 191.77495037123595 L2 183.5977532518216 L3 175.51595181655398 L4 167.57647267075055 L5 159.82532279991528 L6 152.30729275975204 L7 145.06566811871878 L8 138.1419511077205 L9 131.57559436031423 L10 125.40374854245303 L11 119.66102557393111 L12 114.37927903498955 L13 109.5874032317827 L14 105.31115226443224 L15 101.5729803021368 L16 98.39190412224588 L17 95.78338881539352 L18 93.75925739782262 L19 92.32762490604567 L20 91.49285737917027 L21 91.25555596175835 L22 91.6125661862129 L23 92.55701231962445 L24 94.07835648698378 L25 96.16248211190721 L26 98.79180104872091 L27 101.94538361709442 L28 105.5991105935384 L29 109.72584606409433 L30 114.29562990048746 L31 119.27588848888634 L32 124.63166221713892 L33 130.32584811378888 L34 136.31945593110245 L35 142.5718758754417 L36 149.0411561122216 L37 155.68428810989388 L38 162.4574978383335 L39 169.31654080198567 L40 176.21699886737946 L41 183.11457683824946 L42 189.96539673954334 L43 196.72628779394378 L44 203.3550701110067 L45 209.81083015932575 L46 216.05418615588465 L47 222.0475415834734 L48 227.75532513614306 L49 233.14421549349598 L50 238.183349436405 L51 242.84451193871385 L52 247.1023070006826 L53 250.93430812946667 L54 254.3211875187289 L55 257.2468231325224 L56 259.6983830567411 L57 261.66638664357123 L58 263.14474213933147 L59 264.1307606526683 L60 264.6251464870935 L61 264.6319640281161 L62 264.15858153954485 L63 263.2155923847572 L64 261.8167143457024 L65 259.9786678640146 L66 257.7210341738041 L67 255.06609443343632 L68 252.03865109293992 L69 248.66583285372133 L70 244.9768846871558 L71 241.00294447761738 L72 236.7768079429604 L73 232.3326835607381 L74 227.7059392910806 L75 222.93284293672804 L76 218.05029801693328 L77 213.09557705458022 L78 208.10605418484016 L79 203.11893898894255 L80 198.17101343835265 L81 193.29837380290397 L82 188.5361793316601 L83 183.9184094577439 L84 179.47763120867293 L85 175.2447784223595 L86 171.24894427663187 L87 167.51718853757853 L88 164.0743608200952 L89 160.9429410335914 L90 158.1428980578405 L91 155.69156654488057 L92 153.60354745379811 L93 151.89062208852985 L94 150.5616937827924 L95 149.622747534369 L96 149.076831702551 L97 148.9240611072222 L98 149.16164137168073 L99 149.7839141983919 L100 150.78242311694413 L101 152.1459990976095 L102 153.8608652831408 L103 155.91075995676567 L104 158.2770767367229 L105 160.9390208680275 L106 163.87378037128371 L107 167.05671070706282 L108 170.46153152332624 L109 174.06053397321517 L110 177.82479702179836 L111 181.72441110350871 L112 185.7287074473842 L113 189.8064913551212 L114 193.92627769754048 L115 198.0565268884374 L116 202.16587960093182 L117 206.22338851025773 L118 210.19874537822992 L119 214.06250183812898 L120 217.78628229406604 L121 221.34298741558445 L122 224.7069867857714 L123 227.85429934888822 L124 230.76276040077536 L125 233.41217397131075 L126 235.78444956215827 L127 237.86372232408445 L128 239.63645588530323 L129 241.09152717468507 L130 242.22029272022485 L131 243.0166360428878 L132 243.476995907794 L133 243.60037533760513 L134 243.38833143588417 L135 242.84494621005135 L136 241.9767787233171 L137 240.7927990416092 L138 239.3043045740309 L139 237.52481953282958 L140 235.46997836029388 L141 233.1573940845699 L142 230.60651267326185 L143 227.83845455211565 L144 224.87584454536938 L145 221.74263157388359 L146 218.4638995163775 L147 215.0656706975369 L148 211.574703514032 L149 208.01828574528912 L150 204.42402511998648 L151 200.8196387215552 L152 197.2327428164336 L153 193.6906446774812 L154 190.22013795195923 L155 186.84730308903352 L156 183.59731429617537 L157 180.49425443750013 L158 177.56093922047148 L159 174.8187519410412 L160 172.28748997181273 L161 169.9852240838775 L162 167.92817159132593 L163 166.13058419886107 L164 164.60465131829005 L165 163.36041949981862 L166 162.4057284999393 L167 161.74616438024125 L168 161.38502990163394 L169 161.3233323472617 L170 161.55978877576857 L171 162.09084857554822 L172 162.9107330611539 L173 164.01149172611696 L174 165.38307464296398 L175 167.01342038214852 L176 168.88855870779233 L177 170.99272720039738 L178 173.30850085582722 L179 175.81693361658836 L180 178.49771070644078 L181 181.32931056323514 L182 184.28917509814428 L183 187.35388695259437 L184 190.4993523775897 L185 193.70098832407368 L186 196.93391230770553 L187 200.1731335970994 L188 203.39374427124105 L189 206.57110869943148 L190 209.68105001562617 L191 212.70003218823754 L192 215.60533632610034 L193 218.37522991101028 L194 220.9891277066344 L195 223.42774316215687 L196 225.67322920622217 L197 227.70930741194923 L198 229.52138460633677 L199 231.09665609654292 L200 232.42419479051722 L201 233.4950255994837 L202 234.30218462396104 L203 234.8407627424896 L204 235.1079333421109 L205 235.10296405099717 L206 234.82721245553827 L207 234.28410590573546 L208 233.47910563300812 L209 232.41965552258927 L210 231.11511599768224 L211 229.57668358361798 L212 227.81729682656535 L213 225.85152934211948 L214 223.69547086358187 L215 221.36659724726866 L216 218.88363047209032 L217 216.26638974237588 L218 213.53563486594334 L219 210.71290313331286 L220 207.8203409683335 L221 204.8805316550613 L222 201.9163204702481 L223 198.9506385651441 L224 196.00632694439267 L225 193.10596188363058 L226 190.27168311107124 L227 187.52502605200954 L228 184.88675939908623 L229 182.37672922558394 L230 180.01371080439347 L231 177.81526923201972 L232 175.79762988561828 L233 173.97555966212227 L234 172.3622598626765 L235 170.96927149350563 L236 169.8063936567399 L237 168.88161560235307 L238 168.2010629060419 L239 167.76895812840436 L240 167.58759619900712 L241 167.65733465572276 L242 167.97659875593425 L243 168.54190136271117 L244 169.34787739672538 L245 170.38733253433833 L246 171.65130572479535 L247 173.12914499560682 L248 174.80859591576478 L249 176.6759019921698 L250 178.71591618623623 L251 180.91222265574575 L252 183.24726775224127 L253 185.70249923712822 L254 188.25851262067664 L255 190.89520347770184 L256 193.59192455221307 L257 196.3276464310274 L258 199.08112054348308 L259 201.8310432310791 L260 204.55621962719331 L261 207.23572609298577 L262 209.84906997109073 L263 212.37634544360452 L264 214.7983843149497 L265 217.09690058316136 L266 219.25462771463134 L267 221.25544759695026 L268 223.08451021171325 L269 224.72834314347517 L270 226.17495012185412 L271 227.41389788046317 L272 228.43639070820575 L273 229.23533216479262 L274 229.80537353237034 L275 230.14294867812467 L276 230.24629510783484 L277 230.11546109680117 L278 229.75229889153175 L279 229.160444082233 L280 228.3452813516938 L281 227.31389690977883 L282 226.0750180236684 L283 224.63894015144 L284 223.01744227984253 L285 221.22369115547477 L286 219.27213518137881 L287 217.17838882768868 L288 214.9591084748614 L289 212.6318606706548 L290 210.2149838369418 L291 207.7274445092776 L292 205.18868923051855 L293 202.61849324947534 L294 200.03680719636014 L295 197.46360291852656 L296 194.91871966264802 L297 192.42171178302942 L298 189.99169914028994 L299 187.64722133032308 L300 185.406096850463 L301 183.28528826842324 L302 181.30077441018472 L303 179.46743052598322 L304 177.79891732935278 L305 176.30757973332106 L306 175.00435603090034 L307 173.8986981845723 L308 172.9985038021755 L309 172.31006028515793 L310 171.83800154025755 L311 171.58527754806804 L312 171.55313698238047 L313 171.7411229734419 L314 172.14708200710453 L315 172.76718585103936 L316 173.5959662995191 L317 174.62636243050204 L318 175.84977997361352 L319 177.25616229584276 L320 178.83407242405107 L321 180.57078544037208 L322 182.45239050891104 L323 184.4639017203869 L324 186.58937687604828 L325 188.81204327381255 L326 191.1144295085508 L327 193.47850225514745 L328 195.885806967704 L329 198.31761140128748 L330 200.75505084411782 L331 203.1792739381796 L332 205.5715879649641 L333 207.91360248040243 L334 210.18737019894255 L335 212.37552405102062 L336 214.46140937066 L337 216.4292102103359 L338 218.26406882822923 L339 219.95219744818252 L340 221.48098145460898 L341 222.8390732528074 L342 224.0164760990563 L343 225.00461728391903 L344 225.79641013576753 L345 226.3863043989704 L346 226.77032463181308 L347 226.94609636231561 L348 226.91285983496928 L349 226.67147127729447 L350 226.2243917112859 L351 225.57566343052406 L352 224.73087435825653 L353 223.69711059436833 L354 222.48289754916132 L355 221.098130148562 L356 219.55399267812348 L357 217.86286891134935 L358 216.03824324086156 L359 214.0945935982108 L360 212.04727700918937 L361 209.9124086858922 L362 207.7067356040914 L363 205.44750555438813 L364 203.15233268780625 L365 200.83906060075557 L366 198.52562402046232 L367 196.22991015993762 L368 193.96962081127575 L369 191.76213623759148 L370 189.62438190728457 L371 187.5726990897109 L372 185.6227202989726 L373 183.78925053264828 L374 182.0861552052294 L375 180.52625562216704 L376 179.12123278019894 L377 177.88154021351363 L378 176.81632653381493 L379 175.93336823606364 L380 175.2390132611751 L381 174.73813572287642 L382 174.43410211893476 L383 174.3287492577273 L384 174.42237404032846 L385 174.71373514664617 L386 175.20006658234672 L387 175.87710295207853 L388 176.73911623453546 L389 177.77896374688282 L390 178.98814690066897 L391 180.35688026922404 L392 181.87417040831548 L393 183.52790379808778 L394 185.30494320562346 L395 187.19123170431558 L396 189.17190352914707 L397 191.2314008963258 L398 193.35359587190294 L399 195.521916337347 " stroke = "green" stroke-width = "4" fill = "none" />	<path d = "M0 200 L1 199.81877755784345 L2 199.2765161236033 L3 198.37742314929804 L4 197.12847704675363 L5 195.5393764338611 L6 193.6224695945305 L7 191.39266466303005 L8 188.86732118290726 L9 186.06612382544918 L10 183.01093918166396 L11 179.72565666409864 L12 176.23601466955046 L13 172.56941326002894 L14 168.75471471640125 L15 164.82203340629735 L16 160.80251648443016 L17 156.7281170089641 L18 152.63136111149518 L19 148.5451109002429 L20 144.50232480595804 L21 140.53581709768466 L22 136.6780183008464 L23 132.96077740555762 L24 129.4149957654581 L25 126.07057756281223 L26 122.95610525550815 L27 120.09865417056456 L28 117.52359381603708 L29 115.25440139099551 L30 113.31248883619389 L31 111.7170446696216 L32 110.48489174372479 L33 109.63036194551177 L34 109.16518873784212 L35 109.09841831085271 L36 109.43633997763399 L37 110.18243630892563 L38 111.3373533587606 L39 112.89889118770766 L40 114.86201474368325 L41 117.21888501331391 L42 119.95891021058301 L43 123.068816625066 L44 126.53273861048973 L45 130.33232705667476 L46 134.44687555513107 L47 138.8534633416411 L48 143.527113978994 L49 148.44096863050007 L50 153.56647267082548 L51 158.87357428578736 L52 164.33093362772416 L53 169.90614101850102 L54 175.56594262866665 L55 181.27647200918366 L56 187.0034858118726 L57 192.71260200653265 L58 198.36953888679042 L59 203.94035315321742 L60 209.39167537112 L61 214.69094112159559 L62 219.806616197774 L63 224.7084142433783 L64 229.36750528750068 L65 233.75671369737285 L66 237.85070414940927 L67 241.62615430733402 L68 245.06191299412262 L69 248.13914275106134 L70 250.84144579168085 L71 253.15497247979815 L72 255.06851158851904 L73 256.5735617298656 L74 257.6643834817015 L75 258.33803187885394 L76 258.59436907768134 L77 258.4360571467887 L78 257.8685310800518 L79 256.8999522704911 L80 255.5411428237842 L81 253.80550122721704 L82 251.7089000226345 L83 249.26956625941568 L84 246.50794562469696 L85 243.44655126203844 L86 240.1097983956096 L87 236.5238259738952 L88 232.71630663415675 L89 228.71624636574109 L90 224.55377531616955 L91 220.25993164590665 L92 215.86644277305186 L93 211.4054933027733 L94 206.90950072074813 L95 202.41088515510705 L96 197.94184100211973 L97 193.53411105387627 L98 189.21876474461382 L99 185.0259820978687 L100 180.98484491073853 L101 177.1231366545784 L102 173.46715250386094 L103 170.04152082724113 L104 166.86903738765244 L105 163.9705134022077 L106 161.3646385084851 L107 159.06785957225281 L108 157.0942761536408 L109 155.45555332510153 L110 154.16085240611943 L111 153.21678004749742 L112 152.62735596313274 L113 152.39399947050163 L114 152.51553486360189 L115 152.98821550486642 L116 153.80576638656822 L117 154.95944477847814 L118 156.43811844798876 L119 158.2283608125319 L120 160.31456226280528 L121 162.67905677997035 L122 165.3022628614088 L123 168.16283766862017 L124 171.2378432181169 L125 174.50292335239436 L126 177.93249015380346 L127 181.49991839996002 L128 185.17774660562097 L129 188.93788315312005 L130 192.75181598175385 L131 196.59082428615812 L132 200.42619066481961 L133 204.22941216246517 L134 207.97240866410888 L135 211.6277271238701 L136 215.1687401480959 L137 218.56983749950808 L138 221.80660914668914 L139 224.85601855074356 L140 227.69656495791332 L141 230.3084335526715 L142 232.67363241972464 L143 234.77611536468478 L144 236.60188975117092 L145 238.13910862593212 L146 239.3781465224055 L147 240.31165845602135 L148 240.9346217506373 L149 241.24436046376917 L150 241.24055230783785 L151 240.92521809450065 L152 240.30269385832543 L153 239.3795859436333 L154 238.16470946334795 L155 236.6690106602219 L156 234.905473817977 L157 232.88901348183936 L158 230.63635285385567 L159 228.1658893274825 L160 225.49754821752768 L161 222.65262582493776 L162 219.65362305057639 L163 216.5240708374979 L164 213.28834877683136 L165 209.97149825787838 L166 206.599031578077 L167 203.19673845288045 L168 199.7904913791854 L169 196.4060513086647 L170 193.06887507922065 L171 189.80392603388307 L172 186.63548922699852 L173 183.58699257775802 L174 180.68083528131092 L175 177.9382247283292 L176 175.3790231153809 L177 173.02160485139865 L178 170.88272578048185 L179 168.97740514891768 L180 167.3188211453608 L181 165.9182207383273 L182 164.78484442535205 L183 163.92586639415123 L184 163.34635047880388 L185 163.04922217419687 L186 163.03525685067427 L187 163.30308418890905 L188 163.84920873338197 L189 164.66804634242368 L190 165.75197619444626 L191 167.0914078946387 L192 168.6748631148843 L193 170.4890710927929 L194 172.519077214322 L195 174.74836380921883 L196 177.15898220015407 L197 179.73169496557176 L198 182.44612730352654 L199 185.28092631964873 L200 188.21392700730974 L201 191.22232364244798 L202 194.28284527966085 L203 197.3719340103183 L204 200.46592462775908 L205 203.5412243391841 L206 206.57449116866042 L207 209.54280971063608 L208 212.42386291838088 L209 215.1960986466014 L210 217.83888971182364 L211 220.332686287643 L212 222.65915951416133 L213 224.80133527137727 L214 226.74371714440994 L215 228.47239769359675 L216 229.97515723406195 L217 231.2415494265798 L218 232.2629730837134 L219 233.03272970150425 L220 233.54606633661007 L221 233.8002035608972 L222 233.79434833923762 L223 233.52969179077618 L224 233.00939190835413 L225 232.23854142423858 L226 231.22412112195866 L227 229.97493900305471 L228 228.50155582308926 L229 226.81619761256331 L230 224.9326558946794 L231 222.8661764024771 L232 220.6333371820804 L233 218.25191704601332 L234 215.7407554102076 L235 213.1196046099367 L236 210.40897584302857 L237 207.62997993295465 L238 204.80416413946426 L239 201.95334627009146 L240 199.0994473619471 L241 196.26432420962095 L242 193.4696030117503 L243 190.73651539591268 L244 188.0857380590948 L245 185.53723722929053 L246 183.11011911303757 L247 180.82248744427363 L248 178.69130919215922 L249 176.73228941995959 L250 174.95975621420334 L251 173.38655652373336 L252 172.02396366254587 L253 170.8815971391584 L254 169.9673553793511 L255 169.28736180924173 L256 168.84592466254549 L257 168.64551077033204 L258 168.68673348442883 L259 168.96835477765345 L260 169.48730145610716 L261 170.23869531164772 L262 171.21589693719085 L263 172.41056282446553 L264 173.81271526403708 L265 175.41082447156973 L266 177.19190227313499 L267 179.14160659656875 L268 181.24435593606825 L269 183.48345288399528 L270 185.84121575774026 L271 188.29911729099715 L272 190.83792930831228 L273 193.43787225966832 L274 196.07876845843583 L275 198.7401978415078 L276 201.40165505497512 L277 204.04270666240242 L278 206.6431472756446 L279 209.1831534201465 L280 211.64343396768928 L281 214.00537599938355 L282 216.25118500012366 L283 218.36401833237798 L284 220.3281109917317 L285 222.12889270857124 L286 223.75309552921814 L287 225.18885108513317 L288 226.42577683993505 L289 227.45505069026885 L290 228.2694733873525 L291 228.86351834061472 L292 229.23336846249072 L293 229.3769398134005 L294 229.29389190744038 L295 228.98562464158636 L296 228.4552619134596 L297 227.70762209416077 L298 226.74917562256883 L299 225.58799008506446 L300 224.23366323914314 L301 222.69724453011182 L302 220.99114573634094 L303 219.1290414597184 L304 217.12576025342509 L305 214.9971672483579 L306 212.7600392019586 L307 210.43193294840796 L308 208.03104827670938 L309 205.5760863027797 L310 203.0861044329998 L311 200.5803690395428 L312 198.07820698203693 L313 195.59885711565803 L314 193.16132292254906 L315 190.78422739159652 L316 188.48567125115616 L317 186.28309563050368 L318 184.1931501888228 L319 182.23156770574627 L320 180.41304607519095 L321 178.75113858490406 L322 177.25815329822547 L323 175.94506228260127 L324 174.82142135191873 L325 173.8953009073764 L326 173.1732283750056 L327 172.66014264778272 L328 172.35936084722613 L329 172.27255762416618 L330 172.39975712175234 L331 172.73933762645436 L332 173.28804883557572 L333 174.04104157336624 L334 174.99190969293474 L335 176.13274380854182 L336 177.45419641320115 L337 178.94555785051134 L338 180.59484252792817 L339 182.38888468188534 L340 184.31344293384984 L341 186.35331281109347 L342 188.492446347156 L343 190.71407782509772 L344 193.00085468207794 L345 195.33497255686328 L346 197.69831343283704 L347 200.07258580814232 L348 202.43946581189638 L349 204.78073818102808 L350 207.07843601623594 L351 209.31497824777884 L352 211.47330376219637 L353 213.53700116941567 L354 215.49043322581585 L355 217.31885497238306 L356 219.0085246977503 L357 220.54680689327233 L358 221.92226643087784 L359 223.12475326376838 L360 224.14547702455013 L361 224.97707097450703 L362 225.6136448408344 L363 226.05082616510575 L364 226.28578987536676 L365 226.3172758853584 L366 226.14559461675316 L367 225.77262043324131 L368 225.20177306810916 L369 224.43798721889976 L370 223.48767057313734 L371 222.35865061723433 L372 221.06011066592512 L373 219.60251563122463 L374 217.99752812738504 L375 216.25791558103444 L376 214.3974490830716 L377 212.4307947804779 L378 210.3733986615054 L379 208.24136563632547 L380 206.05133385680386 L381 203.82034525330184 L382 201.56571329305638 L383 199.3048889835695 L384 197.0553261554051 L385 194.8343470618098 L386 192.65900932760297 L387 190.5459752669105 L388 188.5113845686453 L389 186.5707313203386 L390 184.7387463052581 L391 183.02928546496952 L392 181.45522536998294 L393 180.02836648525147 L394 178.75934495550135 L395 177.65755356817115 L396 176.73107247963614 L397 175.98661021396163 L398 175.42945536327127 L399 175.0634393355408 " stroke = "blue" stroke-width = "4" fill = "none" /></svg>