<svg width="400" height="400" viewbox = "0 0 400 400"  xmlns="http://www.w3.org/2000/svg">

<!--
<topfunctions>






function YofX(){
//foobar foobar
    X = plotparams.g*(x - plotparams.x0) - funcparams.X0;

    Y = BesselJ0(X);

    y = plotparams.y0 - plotparams.G*(Y - funcparams.Y0);
}
function YofX2(){
//foobar foobar
    X = plotparams.g*(x - plotparams.x0) - funcparams.X0;

    Y = BesselJ1(X);

    y = plotparams.y0 - plotparams.G*(Y - funcparams.Y0);
}


function plotfunction(){
    
    /*plot one function:*/
    currentStroke = "blue";
    currentLineWidth = 4;
    ctx.strokeStyle = currentStroke;
    ctx.lineWidth = currentLineWidth;
    ctx.beginPath();	
    x = 0;
    intx = x;
    YofX();
    currentSVG += "	<path d = \"M";
    currentSVG += Math.round(x).toString() + " ";
    currentSVG += Math.round(y).toString() + " ";
    for(x = 1;x < plotparams.plotwidth;x++){
        ctx.moveTo(x-1,y);
        YofX();
        ctx.lineTo(x,y);
        currentSVG += "L" + x + " " + y + " ";
    }
    ctx.stroke();
    currentSVG += "\""+ " stroke = \"" + currentStroke + "\" stroke-width = \"" + currentLineWidth.toString() + "\" fill = \"" + "none" + "\" "+"/>";
    /*finish plot one function*/
    
        /*plot one function:*/
    currentStroke = "red";
    currentLineWidth = 4;
    ctx.strokeStyle = currentStroke;
    ctx.lineWidth = currentLineWidth;
    ctx.beginPath();	
    x = 0;
    intx = x;
    YofX2();
    currentSVG += "	<path d = \"M";
    currentSVG += Math.round(x).toString() + " ";
    currentSVG += Math.round(y).toString() + " ";
    for(x = 1;x < plotparams.plotwidth;x++){
        ctx.moveTo(x-1,y);
        YofX2();
        ctx.lineTo(x,y);
        currentSVG += "L" + x + " " + y + " ";
    }
    ctx.stroke();
    currentSVG += "\""+ " stroke = \"" + currentStroke + "\" stroke-width = \"" + currentLineWidth.toString() + "\" fill = \"" + "none" + "\" "+"/>";
    /*finish plot one function*/
    
}

// http://www.mhtl.uwaterloo.ca/old/courses/me3532/js/bessel.html


function BesselJ(n,x){
	if (n == null || n.length == 0) return "n not specified";
	if (Math.floor(n) != n) return "Error: n not integer";
	if (n < 2) return "Error: n < 2";
	var ACC = 40.0;		// Make larger to increase accuracy.
	var BIGNO = 1.0e10;
	var BIGNI = 1.0e-10;
	var j,jsum,m,ax,bj,bjm,bjp,sum,tox,ans;
	ax=Math.abs(x);
	if (ax == 0.0) return 0.0;
	else if (ax > n) {
		tox = 2.0/ax;
		bjm=BesselJ0(ax);
		bj=BesselJ1(ax);
		for (j=1;j<n;j++) {
			bjp=j*tox*bj-bjm;
			bjm=bj;
			bj=bjp;
		}
		ans=bj;
	} else {
		tox=2.0/ax;
		if (Math.sqrt(ACC*n) >= 0)
			m=2*((n + Math.floor(Math.sqrt(ACC*n))) / 2);
		else
			m=2*((n + Math.ceil(Math.sqrt(ACC*n))) / 2);
		jsum=0;
		bjp=ans=sum=0.0;
		bj=1.0;
		for (j=m;j>0;j--) {
			bjm=j*tox*bj-bjp;
			bjp=bj;
			bj=bjm;
			if (Math.abs(bj) > BIGNO) {
				bj *= BIGNI;
				bjp *= BIGNI;
				ans *= BIGNI;
				sum *= BIGNI;
			}
			if (jsum) sum += bj;
			jsum=!jsum;
			if (j == n) ans=bjp;
		}
		sum=2.0*sum-bj;
		ans /= sum;
	}
	return x < 0.0 && (n & 1) ? -ans : ans;
}


function BesselJ0(x) {
	var ax,z,xx,y,ans,ans1,ans2;
	ax = Math.abs(x)
	if (ax < 8.0) {
		y = x * x;
		ans1 = 57568490574.0 + y * (-13362590354.0 + y * (651619640.7 + y * (-11214424.18 + y * (77392.33017 + y * (-184.9052456)))));
		ans2 = 57568490411.0 + y * (1029532985.0 + y * (9494680.718 + y * (59272.64853 + y * (267.8532712 + y * 1.0))));
		ans = ans1 / ans2;
	} else {
		z = 8.0 / ax;
		y = z * z;
		xx = ax - 0.785398164;
		ans1 = 1.0 + y * (-0.1098628627e-2 + y * (0.2734510407e-4 + y * (-0.2073370639e-5 + y * 0.2093887211e-6)));
		ans2 = -0.1562499995e-1 + y * (0.1430488765e-3 + y * (-0.6911147651e-5 + y * (0.7621095161e-6 - y * 0.934935152e-7)));
		ans = Math.sqrt(0.636619772 / ax) * (Math.cos(xx) * ans1 - z * Math.sin(xx) * ans2);
	}
	return ans;
}

function BesselJ1(x) {
	var ax,z,xx,y,ans,ans1,ans2;
	ax = Math.abs(x);
	if (ax < 8.0) {
		y=x*x;
		ans1 = x*(72362614232.0+y*(-7895059235.0+y*(242396853.1+y*(-2972611.439+y*(15704.48260+y*(-30.16036606))))));
		ans2 = 144725228442.0+y*(2300535178.0+y*(18583304.74+y*(99447.43394+y*(376.9991397+y*1.0))));
		ans = ans1/ans2;
	} else {
		z=8.0/ax;
		y=z*z;
		xx=ax-2.356194491;
		ans1=1.0+y*(0.183105e-2+y*(-0.3516396496e-4+y*(0.2457520174e-5+y*(-0.240337019e-6))));
		ans2=0.04687499995+y*(-0.2002690873e-3+y*(0.8449199096e-5+y*(-0.88228987e-6+y*0.105787412e-6)));
		ans=Math.sqrt(0.636619772/ax)*(Math.cos(xx)*ans1-z*Math.sin(xx)*ans2);
		if (x < 0.0) ans = -ans;
	}
	return ans;	
}
























</topfunctions>
-->

<!--
<imgurl>

</imgurl>
-->

<!--
<currentjson>
{
    "constants": {},
    "imgurl": "",
    "plotparams": {
        "G": 156.24722518287507,
        "g": 0.02767637947811289,
        "duration": 450.78888054094654,
        "plotwidth": 400,
        "plotheight": 400,
        "x0": 0,
        "y0": 200.00000000000003
    },
    "funcparams": {
        "phi": 0.2688139066614501,
        "T": 1.4465183912692552,
        "X0": 0,
        "Y0": 0
    }
}
</currentjson>
-->

<!--
<equation>

<h2>Bessel Function</h2>
<p style="color:blue">

</p><p class="bigeq">
$$
Y = J_n(X)
$$
</p>
<p></p>

$$
X = g(x - x_0) - X_0
$$
$$
Y = f(X)
$$
    
$$
y = y_0 - G(Y - Y_0)
$$


<p>
    X and Y, and $X_0$ and $Y_0$ in physical units of the System. x and y and x0 and y0 in pixels.  G is in pixels per Y unit and g is in X units per pixel. 
</p>






</equation>
-->
	<path d = "M0 44 L1 43.78269358364281 L2 43.8724340232111 L3 44.021944142844376 L4 44.23113806146054 L5 44.49989562229561 L6 44.82806246959265 L7 45.2154501471141 L8 45.661836218410855 L9 46.16696440876791 L10 46.73054476873136 L11 47.35225385910678 L12 48.03173495730573 L13 48.7685982849016 L14 49.5624212562424 L15 50.4127487479542 L16 51.31909338915435 L17 52.28093587218032 L18 53.29772528362594 L19 54.36887945546343 L20 55.49378533601575 L21 56.67179938053192 L22 57.90224796110192 L23 59.18442779563895 L24 60.5176063956406 L25 61.90102253242924 L26 63.333886721560646 L27 64.81538172507572 L28 66.34466307126004 L29 67.92085959156324 L30 69.54307397431978 L31 71.21038333489994 L32 72.92183980191103 L33 74.67647111905654 L34 76.47328126225096 L35 78.31125107157852 L36 80.18933889767364 L37 82.1064812620912 L38 84.06159353122653 L39 86.05357060333476 L40 88.08128760819163 L41 90.14360061892891 L42 92.23934737556992 L43 94.36734801978284 L44 96.52640584036227 L45 98.71530802894236 L46 100.93282644543844 L47 103.17771839270746 L48 105.44872739991177 L49 107.74458401406552 L50 110.06400659923655 L51 112.40570214287352 L52 114.76836706872189 L53 117.15068805578917 L54 119.55134286281569 L55 121.96900115770381 L56 124.40232535135574 L57 126.84997143536673 L58 129.31058982301914 L59 131.78282619302013 L60 134.2653223354244 L61 136.75671699918325 L62 139.25564674075815 L63 141.76074677323976 L64 144.27065181541033 L65 146.7839969401902 L66 149.2994184219082 L67 151.815554581838 L68 154.33104663144326 L69 156.84453951277706 L70 159.35468273548273 L71 161.8601312098461 L72 164.35954607535245 L73 166.85159552420478 L74 169.3349556192633 L75 171.80831110587096 L76 174.27035621703402 L77 176.71979547143118 L78 179.15534446373096 L79 181.575730646701 L80 183.97969410460158 L81 186.3659883173578 L82 188.73338091501662 L83 191.08065442199742 L84 193.40660699065396 L85 195.7100531236744 L86 197.9898243848511 L87 200.24477009776228 L88 202.47375803191662 L89 204.6756750759178 L90 206.84942789721896 L91 208.99394358804324 L92 211.1081702970585 L93 213.19107784640306 L94 215.2416583336699 L95 217.2589267184677 L96 219.24192139318734 L97 221.18970473761343 L98 223.10136365703246 L99 224.97601010349996 L100 226.81278157994072 L101 228.61084162676875 L102 230.3693802907251 L103 232.08761457564412 L104 233.76478887487218 L105 235.40017538507308 L106 236.99307450117144 L107 238.54281519219322 L108 240.04875535778072 L109 241.51028216516897 L110 242.92681236642557 L111 244.29779259577015 L112 245.6226996468016 L113 246.90104072947642 L114 248.13235370669537 L115 249.31620731036827 L116 250.45220133684313 L117 251.5399668215973 L118 252.57916619310492 L119 253.56949340580758 L120 254.51067405212964 L121 255.40246545349532 L122 256.24465673031654 L123 257.0370688509368 L124 257.7795546595306 L125 258.47199888297075 L126 259.11431811669115 L127 259.7064607895884 L128 260.24840710801567 L129 260.7401689789417 L130 261.1817899123571 L131 261.5733449030276 L132 261.91494029170576 L133 262.20671360592735 L134 262.44883338053285 L135 262.6414989580661 L136 262.78494026921896 L137 262.8794175935007 L138 262.9252213003268 L139 262.92267157073326 L140 262.87211809993613 L141 262.7739397809694 L142 262.6285443696454 L143 262.4363681310953 L144 262.19787546816036 L145 261.91355853191396 L146 261.5839368146096 L147 261.2095567253591 L148 260.79099114885787 L149 260.3288389874843 L150 259.82372468711327 L151 259.2762977469913 L152 258.6872322140344 L153 258.05722616191764 L154 257.3870011553364 L155 256.6773016998289 L156 255.92889467755776 L157 255.1425687694599 L158 254.3191338641788 L159 253.45942045420713 L160 252.56427901966956 L161 251.6345794001887 L162 250.6712101552824 L163 249.67507791374697 L164 248.64710671248974 L165 247.5882373252797 L166 246.49942658189133 L167 245.38164667812322 L168 244.23588447717685 L169 243.0631408028898 L170 241.86442972531705 L171 240.64077783916463 L172 239.39322353557813 L173 238.12281626779782 L174 236.83061581119085 L175 235.51769151817757 L176 234.18512156856895 L177 232.83399221583812 L178 231.46539702984575 L179 230.08043613654567 L180 228.68021545519576 L181 227.26584593360053 L182 225.83844278191097 L183 224.39912470551207 L184 222.94901313752123 L185 221.4892314714259 L186 220.02090429438536 L187 218.54515662172065 L188 217.06311313311517 L189 215.57589741104542 L190 214.08463118196153 L191 212.5904335607302 L192 211.09442029885489 L193 209.59770303698014 L194 208.10138856218416 L195 206.6065780705636 L196 205.11436643560137 L197 203.6258414828143 L198 202.1420832711625 L199 200.66416338170416 L200 199.19314421396703 L201 197.73007829050925 L202 196.27600757012885 L203 194.83196277017643 L204 193.39896269842353 L205 191.97801359492246 L206 190.57010848429337 L207 189.17622653886437 L208 187.79733245307835 L209 186.434375829578 L210 185.08829057736725 L211 183.7599943224387 L212 182.45038783124804 L213 181.1603544474093 L214 179.89075954196807 L215 178.64244997760787 L216 177.41625358712827 L217 176.21297866652657 L218 175.0334134830024 L219 173.87832579819226 L220 172.74846240693495 L221 171.6445486918499 L222 170.56728819400684 L223 169.51736219994555 L224 168.49542934530143 L225 167.50212523526972 L226 166.53806208214183 L227 165.60382836011996 L228 164.69998847762125 L229 163.82708246725073 L230 162.98562569362738 L231 162.1761085792221 L232 161.39899634836073 L233 160.65472878952696 L234 159.94372003609473 L235 159.26635836559373 L236 158.62300601761513 L237 158.01399903043466 L238 157.4396470964294 L239 156.9002334363437 L240 156.3960146924529 L241 155.9272208406503 L242 155.49405512148317 L243 155.09669399013424 L244 154.73528708534982 L245 154.4099572172823 L246 154.12080037422209 L247 153.8678857481617 L248 153.65125577913932 L249 153.47092621827866 L250 153.32688620944646 L251 153.21909838941949 L252 153.1474990064536 L253 153.11199805712545 L254 153.11247944131165 L255 153.1488011351512 L256 153.2207953818302 L257 153.32826890001337 L258 153.47100310973403 L259 153.6487543755448 L260 153.8612542667162 L261 154.10820983426274 L262 154.3893039045622 L263 154.70419538932165 L264 155.05251961163793 L265 155.43388864788278 L266 155.84789168513714 L267 156.2940953938894 L268 156.77204431569484 L269 157.28126126549773 L270 157.82124774829185 L271 158.39148438979765 L272 158.99143138082164 L273 159.62052893495377 L274 160.27819775924942 L275 160.96383953754085 L276 161.6768374260031 L277 162.4165565606068 L278 163.1823445760705 L279 163.97353213592214 L280 164.78943347327854 L281 165.629346941934 L282 166.49255557735682 L283 167.37832766717025 L284 168.2859173307079 L285 169.21456510721367 L286 170.1634985522557 L287 171.13193284192758 L288 172.11907138438974 L289 173.12410643831956 L290 174.14621892079956 L291 175.1845812247842 L292 176.2383557537683 L293 177.3066963640672 L294 178.38874892321633 L295 179.48365195792616 L296 180.59053730554137 L297 181.7085307685313 L298 182.83675277153532 L299 183.97431902048726 L300 185.12034116334212 L301 186.27392745192722 L302 187.43418340444182 L303 188.60021246812786 L304 189.7711166816372 L305 190.94599733662 L306 192.12395563806143 L307 193.3040933628964 L308 194.48551351643187 L309 195.6673209861123 L310 196.84862319216253 L311 198.02853073464928 L312 199.2061580365033 L313 200.3806239820494 L314 201.55105255059593 L315 202.71657344463782 L316 203.87632271223444 L317 205.02944336312723 L318 206.1750859781672 L319 207.3124093116299 L320 208.44058088599817 L321 209.55877757880285 L322 210.6661862011156 L323 211.76200406729538 L324 212.84543955559892 L325 213.91571265926933 L326 214.97205552772866 L327 216.0137129975049 L328 217.03994311253376 L329 218.05001763348386 L330 219.04322253576134 L331 220.0188584958603 L332 220.97624136573324 L333 221.9147026348668 L334 222.83358987975436 L335 223.7322672004705 L336 224.61011564405987 L337 225.46653361446346 L338 226.30093726871618 L339 227.11276089915964 L340 227.9014573014244 L341 228.66649812794742 L342 229.40737422680078 L343 230.12359596561933 L344 230.81469354042497 L345 231.48021726915846 L346 232.11973786973934 L347 232.73284672248684 L348 233.31915611674702 L349 233.87829948158122 L350 234.40993160038474 L351 234.9137288093154 L352 235.3893891794241 L353 235.83663268239093 L354 236.2552013397835 L355 236.64485935576488 L356 237.00539323319214 L357 237.3366118730573 L358 237.63834665723613 L359 237.91045151452067 L360 238.15280296992512 L361 238.36530017726614 L362 238.54786493503073 L363 238.70044168555705 L364 238.82299749756612 L365 238.91552203209318 L366 238.97802749188094 L367 239.0105485543076 L368 239.01314228793512 L369 238.98588805277447 L370 238.92888738437682 L371 238.84226386187044 L372 238.7261629600754 L373 238.58075188583842 L374 238.40621939874265 L375 238.20277561635731 L376 237.97065180420344 L377 237.71010015062257 L378 237.4213935267463 L379 237.1048252317746 L380 236.76070872378116 L381 236.3893773362747 L382 235.99118398075413 L383 235.5665008355066 L384 235.1157190209051 L385 234.63924826147417 L386 234.13751653499838 L387 233.61096970896048 L388 233.06007116460148 L389 232.4853014089064 L390 231.8871576748256 L391 231.2661535100503 L392 230.62281835466888 L393 229.95769710803788 L394 229.27134968520846 L395 228.56435056325708 L396 227.83728831787388 L397 227.09076515057205 L398 226.32539640688344 L399 225.5418100859155 " stroke = "blue" stroke-width = "4" fill = "none" />	<path d = "M0 200 L1 197.83802826852857 L2 195.67729848132691 L3 193.51905178995955 L4 191.36452776111182 L5 189.21496358547796 L6 187.0715932882418 L7 184.93564694167844 L8 182.80834988040533 L9 180.69092191980803 L10 178.58457657816405 L11 176.49052030298665 L12 174.40995170210567 L13 172.34406078000117 L14 170.29402817990044 L15 168.26102443214626 L16 166.24620920933884 L17 164.25073058875006 L18 162.2757243225031 L19 160.3223131160056 L20 158.3916059151183 L21 156.48469720253573 L22 154.60266630384848 L23 152.74657670375035 L24 150.9174753728469 L25 149.11639210551402 L26 147.34433886924762 L27 145.60230916593855 L28 143.89127740549702 L29 142.21219829224418 L30 140.5660062244779 L31 138.9536147076119 L32 137.37591578127825 L33 135.83377946077212 L34 134.32805319320937 L35 132.8595613287572 L36 131.42910460728675 L37 130.03745966078654 L38 128.68537853186587 L39 127.37358820866372 L40 126.10279017647022 L41 124.87365998635396 L42 123.68684684107845 L43 122.54297319857825 L44 121.44263439325269 L45 120.38639827532512 L46 119.37480486850015 L47 118.40836604614117 L48 117.4875652261769 L49 116.61285708493249 L50 115.78466729006834 L51 115.00339225279656 L52 114.26939889953121 L53 113.58302446311656 L54 112.94457629376173 L55 112.35433168979984 L56 111.81253774837312 L57 111.31941123613376 L58 110.87513848003607 L59 110.47987527828106 L60 110.13374683146235 L61 109.8368476939465 L62 109.58924174550897 L63 109.39096218323174 L64 109.24201153365524 L65 109.14236168516351 L66 109.0919539405678 L67 109.09069908983979 L68 109.13847750293112 L69 109.2351392426051 L70 109.38050419718827 L71 109.5743622331407 L72 109.8164733673267 L73 110.10656795885664 L74 110.44434692035593 L75 110.82948194850464 L76 111.26161577367796 L77 111.74036242850477 L78 112.26530753514906 L79 112.83600861110527 L80 113.45199539328793 L81 114.1127701801814 L82 114.8178081918053 L83 115.5665579472376 L84 116.35844165942669 L85 117.19285564701168 L86 118.06917076285814 L87 118.98673283900654 L88 119.94486314771812 L89 120.94285887829375 L90 121.97999362932903 L91 123.0555179160602 L92 124.16865969244414 L93 125.31862488760653 L94 126.50459795628248 L95 127.72574244286471 L96 128.98120155866525 L97 130.270098771988 L98 131.5915384106006 L99 132.94460627618685 L100 134.32837027035183 L101 135.74188103174515 L102 137.1841725838601 L103 138.65426299305975 L104 140.1511550363743 L105 141.673836878607 L106 143.22128275828194 L107 144.7924536819583 L108 146.38629812643322 L109 148.00175274834893 L110 149.63774310071486 L111 151.29318435585253 L112 152.9669820342653 L113 154.65803273893306 L114 156.36522489452733 L115 158.08743949104044 L116 159.82355083131836 L117 161.5724272819868 L118 163.33293202725622 L119 165.10392382509067 L120 166.88425776522433 L121 168.67278602850945 L122 170.46835864707722 L123 172.26982426479475 L124 174.07603089750074 L125 175.8858266925038 L126 177.69806068682658 L127 179.51158356368367 L128 181.32524840667853 L129 183.1379114512107 L130 184.94843283258504 L131 186.75567733031698 L132 188.55851510813315 L133 190.35582244916793 L134 192.1464824858611 L135 193.92938592406665 L136 195.70343176088667 L137 197.46752799574824 L138 199.2205923342484 L139 200.96155288429551 L140 202.68934884408358 L141 204.4029311814395 L142 206.10126330409204 L143 207.78332172041692 L144 209.44809669021927 L145 211.09459286512302 L146 212.72182991814327 L147 214.3288431620268 L148 215.91468415595304 L149 217.4784213001975 L150 219.01914041836665 L151 220.5359453268243 L152 222.0279583909376 L153 223.49432106778076 L154 224.9341944349431 L155 226.3467597051011 L156 227.73121872602113 L157 229.0867944656707 L158 230.41273148212983 L159 231.70829637799932 L160 232.97277823901953 L161 234.20548905662167 L162 235.40576413414314 L163 236.57296247645695 L164 237.7064671627671 L165 238.80568570234357 L166 239.87005037297624 L167 240.89901854194122 L168 241.89207296928646 L169 242.8487220932546 L170 243.7685002976739 L171 244.65096816116258 L172 245.4957126880003 L173 246.30234752053968 L174 247.07051313303816 L175 247.79987700680647 L176 248.4901337865826 L177 249.14100541805237 L178 249.75224126645344 L179 250.3236182162079 L180 250.85494075154915 L181 251.34604101811362 L182 251.79677886548896 L183 252.20704187071712 L184 252.57674534277007 L185 252.90583230802218 L186 253.19427347676395 L187 253.44206719080887 L188 253.64923935226128 L189 253.8158433335263 L190 253.94195986865307 L191 254.02769692612026 L192 254.07318956318036 L193 254.07859976189488 L194 254.04411624700657 L195 253.96995428580112 L196 253.85635547013266 L197 253.70358748079008 L198 253.51194383439872 L199 253.28174361306412 L200 253.01333117697237 L201 252.7070758601779 L202 252.36337164981606 L203 251.9826368489954 L204 251.5653137236281 L205 251.1118681334739 L206 250.62278914768166 L207 250.09858864512057 L208 249.53980089980814 L209 248.94698215174748 L210 248.32071016349815 L211 247.66158376281655 L212 246.97022237170475 L213 246.2472655222237 L214 245.49337235942974 L215 244.7092211318034 L216 243.895508669548 L217 243.05294985114523 L218 242.1822770585583 L219 241.28423962148298 L220 240.3596032510592 L221 239.40914946344813 L222 238.43367499370572 L223 237.43399120037185 L224 236.41092346121218 L225 235.3653105605498 L226 234.29800406863075 L227 233.20986771347006 L228 232.1017767456359 L229 230.9746172964233 L230 229.82928572988354 L231 228.66668798917388 L232 227.48773893769135 L233 226.29336169546835 L234 225.08448697129862 L235 223.86205239107252 L236 222.62700182279906 L237 221.3802846987919 L238 220.12285533550656 L239 218.85567225150126 L240 217.5796974840124 L241 216.2958959046228 L242 215.00523453450413 L243 213.7086818597205 L244 212.40720714706688 L245 211.1017797609314 L246 209.79336848165187 L247 208.48294082584738 L248 207.1714623691988 L249 205.85989607215214 L250 204.5492016090088 L251 203.24033470087568 L252 201.934246452931 L253 200.6318826964714 L254 199.33418333618957 L255 198.04208170313547 L256 196.7565039138068 L257 195.47836823580928 L258 194.20858446051855 L259 192.94805328318097 L260 191.69766569086795 L261 190.45830235870838 L262 189.2308330548066 L263 188.01611605424972 L264 186.814997562604 L265 185.62831114928832 L266 184.45687719120497 L267 183.30150232700845 L268 182.16297892237026 L269 181.04208454660383 L270 179.93958146099578 L271 178.85621611918648 L272 177.79271867992708 L273 176.7498025325421 L274 175.72816383540248 L275 174.72848106771858 L276 173.7514145949428 L277 172.79760624806744 L278 171.86767891708843 L279 170.96223615889932 L280 170.08186181986795 L281 169.22711967333584 L282 168.3985530722714 L283 167.59668461729714 L284 166.8220158402995 L285 166.07502690381898 L286 165.35617631640014 L287 164.66590066409145 L288 164.00461435823945 L289 163.37270939974124 L290 162.7705542515344 L291 162.19849702536368 L292 161.6568604795688 L293 161.14594492329627 L294 160.6660273228863 L295 160.21736116668148 L296 159.80017634694516 L297 159.4146790589385 L298 159.06105171719577 L299 158.73945288902235 L300 158.45001724522893 L301 158.1928555281034 L302 157.96805453660824 L303 157.7756771287803 L304 157.61576224129658 L305 157.488324926158 L306 157.39335640443088 L307 157.3308241369733 L308 157.30067191206217 L309 157.30281994982425 L310 157.33716502336307 L311 157.40358059646093 L312 157.5019169777252 L313 157.63200149103446 L314 157.79363866213043 L315 157.98661042118914 L316 158.2106763211939 L317 158.4655737719223 L318 158.75101828934737 L319 159.06670376024323 L320 159.4123027217745 L321 159.787466655839 L322 160.191826297922 L323 160.6249919602114 L324 161.08655386871266 L325 161.57608251409317 L326 162.09312901597565 L327 162.6372255003918 L328 163.20788549009808 L329 163.80460430744662 L330 164.42685948949608 L331 165.0741112150385 L332 165.74580274321065 L333 166.44136086335118 L334 167.16019635575532 L335 167.90170446297378 L336 168.66526537129513 L337 169.4502447020422 L338 170.25599401231045 L339 171.0818513047657 L340 171.92714154611633 L341 172.79117719386727 L342 173.67325873095876 L343 174.57267520788815 L344 175.488704791907 L345 176.42061532288267 L346 177.36766487540885 L347 178.32910232674587 L348 179.30416793016823 L349 180.29209389329313 L350 181.29210496096164 L351 182.30341900224104 L352 183.32524760111482 L353 184.35679665042528 L354 185.3972669486314 L355 186.44585479894346 L356 187.50175261039607 L357 188.56414950041847 L358 189.63223189846346 L359 190.70518415025325 L360 191.78218912220345 L361 192.86242880558513 L362 193.9450849199878 L363 195.02933951564512 L364 196.11437557418847 L365 197.19937760739515 L366 198.283532253499 L367 199.36602887063597 L368 200.44606012699737 L369 201.5228225872687 L370 202.59551729493458 L371 203.66335035003365 L372 204.72553348195288 L373 205.78128461685242 L374 206.82982843931964 L375 207.8703969478539 L376 208.90223000378904 L377 209.9245758732677 L378 210.9366917618844 L379 211.9378443416228 L380 212.92731026971808 L381 213.90437669908084 L382 214.86834177992776 L383 215.8185151522689 L384 216.75421842891097 L385 217.6747856686415 L386 218.57956383926862 L387 219.46791327019648 L388 220.33920809422733 L389 221.1928366782877 L390 222.02820204278498 L391 222.84472226931098 L392 223.64183089641577 L393 224.4189773031858 L394 225.17562708036974 L395 225.91126238880332 L396 226.6253823048973 L397 227.31750315295835 L398 227.98715882412637 L399 228.6339010817202 " stroke = "red" stroke-width = "4" fill = "none" /></svg>