<svg width="400" height="400" viewbox = "0 0 400 400"  xmlns="http://www.w3.org/2000/svg">

<!--
<topfunctions>






function YofX(){
//foobar foobar
    X = plotparams.g*(x - plotparams.x0) - funcparams.X0;

    Y = BesselJ0(X);

    y = plotparams.y0 - plotparams.G*(Y - funcparams.Y0);
}
function YofX2(){
//foobar foobar
    X = plotparams.g*(x - plotparams.x0) - funcparams.X0;

    Y = BesselJ1(X);

    y = plotparams.y0 - plotparams.G*(Y - funcparams.Y0);
}


function plotfunction(){
    
    /*plot one function:*/
    currentStroke = "blue";
    currentLineWidth = 4;
    ctx.strokeStyle = currentStroke;
    ctx.lineWidth = currentLineWidth;
    ctx.beginPath();	
    x = 0;
    intx = x;
    YofX();
    currentSVG += "	<path d = \"M";
    currentSVG += Math.round(x).toString() + " ";
    currentSVG += Math.round(y).toString() + " ";
    for(x = 1;x < plotparams.plotwidth;x++){
        ctx.moveTo(x-1,y);
        YofX();
        ctx.lineTo(x,y);
        currentSVG += "L" + x + " " + y + " ";
    }
    ctx.stroke();
    currentSVG += "\""+ " stroke = \"" + currentStroke + "\" stroke-width = \"" + currentLineWidth.toString() + "\" fill = \"" + "none" + "\" "+"/>";
    /*finish plot one function*/
    
        /*plot one function:*/
    currentStroke = "red";
    currentLineWidth = 4;
    ctx.strokeStyle = currentStroke;
    ctx.lineWidth = currentLineWidth;
    ctx.beginPath();	
    x = 0;
    intx = x;
    YofX2();
    currentSVG += "	<path d = \"M";
    currentSVG += Math.round(x).toString() + " ";
    currentSVG += Math.round(y).toString() + " ";
    for(x = 1;x < plotparams.plotwidth;x++){
        ctx.moveTo(x-1,y);
        YofX2();
        ctx.lineTo(x,y);
        currentSVG += "L" + x + " " + y + " ";
    }
    ctx.stroke();
    currentSVG += "\""+ " stroke = \"" + currentStroke + "\" stroke-width = \"" + currentLineWidth.toString() + "\" fill = \"" + "none" + "\" "+"/>";
    /*finish plot one function*/
    
}

// http://www.mhtl.uwaterloo.ca/old/courses/me3532/js/bessel.html


function BesselJ(n,x){
	if (n == null || n.length == 0) return "n not specified";
	if (Math.floor(n) != n) return "Error: n not integer";
	if (n < 2) return "Error: n < 2";
	var ACC = 40.0;		// Make larger to increase accuracy.
	var BIGNO = 1.0e10;
	var BIGNI = 1.0e-10;
	var j,jsum,m,ax,bj,bjm,bjp,sum,tox,ans;
	ax=Math.abs(x);
	if (ax == 0.0) return 0.0;
	else if (ax > n) {
		tox = 2.0/ax;
		bjm=BesselJ0(ax);
		bj=BesselJ1(ax);
		for (j=1;j<n;j++) {
			bjp=j*tox*bj-bjm;
			bjm=bj;
			bj=bjp;
		}
		ans=bj;
	} else {
		tox=2.0/ax;
		if (Math.sqrt(ACC*n) >= 0)
			m=2*((n + Math.floor(Math.sqrt(ACC*n))) / 2);
		else
			m=2*((n + Math.ceil(Math.sqrt(ACC*n))) / 2);
		jsum=0;
		bjp=ans=sum=0.0;
		bj=1.0;
		for (j=m;j>0;j--) {
			bjm=j*tox*bj-bjp;
			bjp=bj;
			bj=bjm;
			if (Math.abs(bj) > BIGNO) {
				bj *= BIGNI;
				bjp *= BIGNI;
				ans *= BIGNI;
				sum *= BIGNI;
			}
			if (jsum) sum += bj;
			jsum=!jsum;
			if (j == n) ans=bjp;
		}
		sum=2.0*sum-bj;
		ans /= sum;
	}
	return x < 0.0 && (n & 1) ? -ans : ans;
}


function BesselJ0(x) {
	var ax,z,xx,y,ans,ans1,ans2;
	ax = Math.abs(x)
	if (ax < 8.0) {
		y = x * x;
		ans1 = 57568490574.0 + y * (-13362590354.0 + y * (651619640.7 + y * (-11214424.18 + y * (77392.33017 + y * (-184.9052456)))));
		ans2 = 57568490411.0 + y * (1029532985.0 + y * (9494680.718 + y * (59272.64853 + y * (267.8532712 + y * 1.0))));
		ans = ans1 / ans2;
	} else {
		z = 8.0 / ax;
		y = z * z;
		xx = ax - 0.785398164;
		ans1 = 1.0 + y * (-0.1098628627e-2 + y * (0.2734510407e-4 + y * (-0.2073370639e-5 + y * 0.2093887211e-6)));
		ans2 = -0.1562499995e-1 + y * (0.1430488765e-3 + y * (-0.6911147651e-5 + y * (0.7621095161e-6 - y * 0.934935152e-7)));
		ans = Math.sqrt(0.636619772 / ax) * (Math.cos(xx) * ans1 - z * Math.sin(xx) * ans2);
	}
	return ans;
}

function BesselJ1(x) {
	var ax,z,xx,y,ans,ans1,ans2;
	ax = Math.abs(x);
	if (ax < 8.0) {
		y=x*x;
		ans1 = x*(72362614232.0+y*(-7895059235.0+y*(242396853.1+y*(-2972611.439+y*(15704.48260+y*(-30.16036606))))));
		ans2 = 144725228442.0+y*(2300535178.0+y*(18583304.74+y*(99447.43394+y*(376.9991397+y*1.0))));
		ans = ans1/ans2;
	} else {
		z=8.0/ax;
		y=z*z;
		xx=ax-2.356194491;
		ans1=1.0+y*(0.183105e-2+y*(-0.3516396496e-4+y*(0.2457520174e-5+y*(-0.240337019e-6))));
		ans2=0.04687499995+y*(-0.2002690873e-3+y*(0.8449199096e-5+y*(-0.88228987e-6+y*0.105787412e-6)));
		ans=Math.sqrt(0.636619772/ax)*(Math.cos(xx)*ans1-z*Math.sin(xx)*ans2);
		if (x < 0.0) ans = -ans;
	}
	return ans;	
}
























</topfunctions>
-->

<!--
<imgurl>

</imgurl>
-->

<!--
<currentjson>
{
    "constants": {},
    "imgurl": "",
    "plotparams": {
        "G": 186.89472398554193,
        "g": 0.18885757841859155,
        "duration": 450.78888054094654,
        "plotwidth": 400,
        "plotheight": 400,
        "x0": 0,
        "y0": 200.00000000000003
    },
    "funcparams": {
        "phi": 0.2688139066614501,
        "T": 1.4465183912692552,
        "X0": 0,
        "Y0": 0
    }
}
</currentjson>
-->

<!--
<equation>

<h2>Bessel Function</h2>
<p style="color:blue">

</p><p class="bigeq">
$$
Y = J_n(X)
$$
</p>
<p></p>

$$
X = g(x - x_0) - X_0
$$
$$
Y = f(X)
$$
    
$$
y = y_0 - G(Y - Y_0)
$$


<p>
    X and Y, and $X_0$ and $Y_0$ in physical units of the System. x and y and x0 and y0 in pixels.  G is in pixels per Y unit and g is in X units per pixel. 
</p>






</equation>
-->
	<path d = "M0 13 L1 14.768066452626783 L2 19.712080068757587 L3 27.805553208075423 L4 38.83322218695761 L5 52.502693161260964 L6 68.45308157449816 L7 86.26565229808469 L8 105.47613039263749 L9 125.58830125084705 L10 146.08847987716365 L11 166.46040344092458 L12 186.20008979640696 L13 204.83020772505577 L14 221.91352208216807 L15 237.06500821938488 L16 249.96227395913462 L17 260.35398256306075 L18 268.06603474865983 L19 273.0053397516762 L20 275.16108236052037 L21 274.6034722641901 L22 271.48004138740686 L23 266.0096315806943 L24 258.47428663224224 L25 249.20932679501712 L26 238.59193885236914 L27 227.02865847223856 L28 214.9421528898228 L29 202.7577298896981 L30 190.8900031486724 L31 179.73013421931057 L32 169.6340481996456 L33 160.91198429907567 L34 153.81969533079024 L35 148.5515532592624 L36 145.2357532442205 L37 143.93173834267267 L38 144.6298935392885 L39 147.25348356869586 L40 151.66273660188637 L41 157.66090777396042 L42 165.00209507575545 L43 173.4005195609254 L44 182.54093949211557 L45 192.08985591064857 L46 201.70710400171632 L47 211.05745706720512 L48 219.82185315039996 L49 227.707878487672 L50 234.4591707602763 L51 239.8634455772195 L52 243.75889945848516 L53 246.03880005022813 L54 246.65413739494812 L55 245.61427663546655 L56 242.98562029121337 L57 238.88835492899244 L58 233.49142043542793 L59 227.0058980935099 L60 219.67706438044073 L61 211.7753992101888 L62 203.58686892868346 L63 195.40282477593777 L64 187.5098661869046 L65 180.1800150426676 L66 173.66153204082804 L67 168.17068035649652 L68 163.88470570902146 L69 160.93625716153477 L70 159.409421071013 L71 159.3374834126129 L72 160.70247522240004 L73 163.4364942289197 L74 167.42473498897112 L75 172.51010206798026 L76 178.499227951281 L77 185.16967119432593 L78 192.27803232823706 L79 199.56869644957814 L80 206.78289312467192 L81 213.667756754217 L82 219.98507402361196 L83 225.51941928180543 L84 230.0854030544021 L85 233.53379247049898 L86 235.75630392512315 L87 236.6889163056487 L88 236.31360586809032 L89 234.65845949655932 L90 231.79617967238713 L91 227.84105005899286 L92 222.94448326707248 L93 217.28932031190584 L94 211.0830928981765 L95 204.55049358724696 L96 197.92532401449557 L97 191.44220684061423 L98 185.3283525892518 L99 179.79566784354864 L100 175.0334766970117 L101 171.20210347103117 L102 168.42753243036086 L103 166.7973207404569 L104 166.35789564780387 L105 167.11331744577515 L106 169.02553796455612 L107 172.01613191390507 L108 175.9694272374706 L109 180.73691247494054 L110 186.14275562301162 L111 191.99023161294912 L112 198.06882553175933 L113 204.16175708994908 L114 210.05365926735217 L115 215.53814091543987 L116 220.42496939546004 L117 224.54662479307552 L118 227.76400126176225 L119 229.97106270589504 L120 231.09829815748154 L121 231.1148654479498 L122 230.02935858064072 L123 227.88918291045144 L124 224.7785711201535 L125 220.81532034003556 L126 216.14637494596403 L127 210.94241907026924 L128 205.39167632403053 L129 199.6931405324807 L130 194.0494795594226 L131 188.6598639602163 L132 183.71297297931048 L133 179.38042233310708 L134 175.81084163687643 L135 173.12480488517582 L136 171.4107859891539 L137 170.72227415875207 L138 171.07614223612705 L139 172.4523164288974 L140 174.79474984257914 L141 178.01365639361475 L142 181.9889177017709 L143 186.57453494274733 L144 191.60396179025022 L145 196.8961247172327 L146 202.26191406646083 L147 207.51091419734084 L148 212.4581341487898 L149 216.93050181494417 L150 220.772894503316 L151 223.85349653441904 L152 226.06829957357894 L153 227.34459273548768 L154 227.6433260299888 L155 226.96027110882486 L156 225.3259460853036 L157 222.80431491344615 L158 219.49031488900798 L159 215.50630676225344 L160 210.9975793063313 L161 206.12707267421624 L162 201.06951138853057 L163 196.00515744563288 L164 191.11340612831057 L165 186.56645132843266 L166 182.52324338015504 L167 179.12395077580484 L168 176.48511813453345 L169 174.6956871289191 L170 173.8140156878171 L171 173.86599482166264 L172 174.84432315077703 L173 176.7089580582936 L174 179.38872079625867 L175 182.783992312681 L176 186.77039846090557 L177 191.20334892871745 L178 195.92326487084605 L179 200.7613068515885 L180 205.54539809496973 L181 210.10632874670276 L182 214.28372516331763 L183 217.93167417813532 L184 220.92380560178003 L185 223.15765638887203 L186 224.55816619555983 L187 225.08018550617268 L188 224.70991298625347 L189 223.4652169523688 L190 221.39483547466793 L191 218.57648924231475 L192 215.11397952827573 L193 211.13337904875002 L194 206.77845498750983 L195 202.20548985684007 L196 197.577686289052 L197 193.05935560530156 L198 188.81009663970528 L199 184.97917060776228 L200 181.7002698590971 L201 179.08686346139748 L202 177.2282812842781 L203 176.18667137022553 L204 175.99493387017796 L205 176.65569981761223 L206 178.1413857690628 L207 180.39531717574636 L208 183.33387562153413 L209 186.8495890963983 L210 190.8150515327886 L211 195.08752906376452 L212 199.5140868622136 L213 203.93705279928582 L214 208.1996231118023 L215 212.15141115277268 L216 215.65374322994194 L217 218.58451537897096 L218 220.84244129165455 L219 222.35054391786747 L220 223.05877066868567 L221 222.94564367656082 L222 222.0188910846994 L223 220.31504160958036 L224 217.89800135893114 L225 214.85666779270508 L226 211.30166952196674 L227 207.36135116492673 L228 203.17714865654122 L229 198.8985213320365 L230 194.67762205874345 L231 190.6638951719257 L232 186.99879370677112 L233 183.81080237767404 L234 181.21094114417127 L235 179.28890645844115 L236 178.1099840649677 L237 177.71283936251845 L238 178.1082598459801 L239 179.27889014902567 L240 181.17996492006597 L241 183.7410094361827 L242 186.8684437417506 L243 190.4489943914151 L244 194.35378969214915 L245 198.44299065846522 L246 202.57079153760384 L247 206.59061135533392 L248 210.36029189275052 L249 213.74711801835485 L250 216.63248332357148 L251 218.91603726957385 L252 220.5191690553864 L253 221.38770746716875 L254 221.49374419607963 L255 220.83651950257004 L256 219.44234253585205 L257 217.3635528983042 L258 214.67656395987342 L259 211.4790607788563 L260 207.88645513438715 L261 204.0277260839923 L262 200.04079572435822 L263 196.06760572027116 L264 192.2490701337158 L265 188.72008380195587 L266 185.604762871913 L267 183.01208521545362 L268 181.03208366373562 L269 179.73272485358353 L270 179.157581707523 L271 179.32437906514537 L272 180.22446076920883 L273 181.82319369979308 L274 184.0612910108188 L275 186.85700433319715 L276 190.10910411493765 L277 193.70053964667738 L278 197.50264663828213 L279 201.3797512925678 L280 205.19400631853316 L281 208.81028669754966 L282 212.10097151102673 L283 214.9504427888743 L284 217.2591429584047 L285 218.94704866633316 L286 219.95643991960475 L287 220.25386887705125 L288 219.8312613100636 L289 218.70611470959636 L290 216.92078914501252 L291 214.54091913604 L292 211.65300584384593 L293 208.36127772554292 L294 204.78393341470843 L295 201.04890209251167 L296 197.2892732522987 L297 193.6385589621544 L298 190.22595711657087 L299 187.17178356855223 L300 184.58323448841173 L301 182.55062805665168 L302 181.14425711788573 L303 180.4119623370859 L304 180.37750950579584 L305 181.039825873857 L306 182.37311976004628 L307 184.32787631340355 L308 186.83269126987844 L309 189.79687497406178 L310 193.11373185605117 L311 196.6643969201023 L312 200.32209144074704 L313 203.95664564568713 L314 207.43912718796327 L315 210.64641097338782 L316 213.46552850954902 L317 215.79764326933693 L318 217.56151230195945 L319 218.69631297410893 L320 219.16373660728732 L321 218.94927707043297 L322 218.06267114782102 L323 216.5374777041416 L324 214.42981323721614 L325 211.8162912598159 L326 208.7912410300568 L327 205.4633064654307 L328 201.95154774013014 L329 198.38118532237823 L330 194.87913845986333 L331 191.56951694808853 L332 188.5692261929049 L333 185.9838410799711 L334 183.9038941667524 L335 182.40170858760303 L336 181.52888636070364 L337 181.31453921889567 L338 181.7643225013596 L339 182.86030399065126 L340 184.561669881342 L341 186.80624037795852 L342 189.51273879323625 L343 192.58373146433598 L344 195.90913225969413 L345 199.37014573834358 L346 202.84350783437293 L347 206.20587279701323 L348 209.33819036662507 L349 212.12991796152494 L350 214.48291894613274 L351 216.31490960852474 L352 217.5623338705238 L353 218.18256539110914 L354 218.15536086065973 L355 217.48351505392554 L356 216.1926966573049 L357 214.33047299787725 L358 211.9645605438708 L359 209.18036540097418 L360 206.07790303027642 L361 202.76820818185487 L362 199.36936381037253 L363 196.00229089644918 L364 192.7864491862776 L365 189.8356016090912 L366 187.25379245486715 L367 185.1316814027651 L368 183.5433624820514 L369 182.54377949644683 L370 182.16682798450276 L371 182.42420919408661 L372 183.30507469878623 L373 184.77647213606255 L374 186.7845741027806 L375 189.25664451265024 L376 192.10367068346966 L377 195.22356599857784 L378 198.50482800021229 L379 201.83052092215058 L380 205.08244050622517 L381 208.14531285554585 L382 210.9108782592694 L383 213.28171539473993 L384 215.17467090046418 L385 216.5237736643897 L386 217.28253176507386 L387 217.4255321682497 L388 216.9492882227928 L389 215.8723068265422 L390 214.23437488765444 L391 212.0950924045133 L392 209.53170614458202 L393 206.63632257725249 L394 203.5126005376875 L395 200.27204230119287 L396 197.03001569440028 L397 193.90164907659246 L398 190.99774517725496 L399 188.42085873979195 " stroke = "blue" stroke-width = "4" fill = "none" />	<path d = "M0 200 L1 182.4303235468728 L2 165.32924737416653 L3 149.15148506741042 L4 134.32440892305107 L5 121.23544572603981 L6 110.22071396190825 L7 101.55525382576411 L8 95.44515049195556 L9 92.02179066847941 L10 91.33842444618014 L11 93.36913107539257 L12 98.01021094440242 L13 105.08394917051409 L14 114.34462133292514 L15 125.48654139436917 L16 138.15388804383753 L17 151.95199059051407 L18 166.4597109042497 L19 181.24252513834827 L20 195.8658891016175 L21 209.90846475931681 L22 222.97479258468724 L23 234.7070150557494 L24 244.79528976269043 L25 252.98657521699815 L26 259.0915270223159 L27 262.98930474805644 L28 264.6301585526306 L29 264.03573705920826 L30 261.29713180741476 L31 256.57074637106257 L32 250.07214757398918 L33 242.068119907528 L34 232.86720020706397 L35 222.80901610038106 L36 212.25278724046208 L37 201.56537179616694 L38 191.10925142097093 L39 181.23084571026644 L40 172.24953219059717 L41 164.4477207943479 L42 158.0622936106248 L43 153.27767025550253 L44 150.22070920820295 L45 148.95757872356884 L46 149.49268608078205 L47 151.7696632314852 L48 155.67435223178302 L49 161.03966376746175 L50 167.6521221017599 L51 175.25985595897708 L52 183.58174959890525 L53 192.31743306832638 L54 201.15776642289669 L55 209.7954603023631 L56 217.93547492053358 L57 225.3048511972194 L58 231.6616509095922 L59 236.8027164906483 L60 240.570004219478 L61 242.8552954937992 L62 243.60314786114031 L63 242.81200853419546 L64 240.53347613104324 L65 236.86975921648892 L66 231.96944075552298 L67 226.02171379852837 L68 219.24930373890024 L69 211.90033468117537 L70 204.23943047480967 L71 196.53836377162168 L72 189.06657837543636 L73 182.08191086822583 L74 175.82182709877833 L75 170.4954680657256 L76 166.2767688335083 L77 163.29887453260534 L78 161.6500306456869 L79 161.3710723363672 L80 162.45458138077336 L81 164.84572127049927 L82 168.4447032696885 L83 173.11078060599925 L84 178.66761644063334 L85 184.909825526831 L86 191.61045104636827 L87 198.5291082632266 L88 205.42050630186952 L89 212.043049158952 L90 218.16721725319834 L91 223.58344131064166 L92 228.10920072024385 L93 231.5951078919427 L94 233.92977751384927 L95 235.04332358059128 L96 234.90937607684214 L97 233.54556151413442 L98 231.01244530041106 L99 227.4109872997329 L100 222.8786130722432 L101 217.58405042210538 L102 211.72112242570944 L103 205.50172267185235 L104 199.14822488009594 L105 192.88559652328365 L106 186.93349403256732 L107 181.49861540884916 L108 176.76757474156807 L109 172.90054271302856 L110 170.02586842460744 L111 168.23586188338453 L112 167.58387454094404 L113 168.08276888388457 L114 169.70481888471312 L115 172.38303286407202 L116 176.01384074680277 L117 180.4610405345692 L118 185.5608556898428 L119 191.1279175012934 L120 196.96195564839397 L121 202.85495712802435 L122 208.5985391941492 L123 213.9912764366813 L124 218.84572571487345 L125 222.9949051731215 L126 226.2980045025032 L127 228.6451321792708 L128 229.96094056080884 L129 230.20701017695586 L130 229.38291887031048 L131 227.52596803866922 L132 224.70958547245854 L133 221.04047050497533 L134 216.65459079491956 L135 211.71217953282198 L136 206.39191585339404 L137 200.88449859275448 L138 195.38584334036713 L139 190.0901443574233 L140 185.18304601375098 L141 180.8351628824168 L142 177.19617377411825 L143 174.3896933315655 L144 172.50909614627682 L145 171.61443375518445 L146 171.73054557235682 L147 172.8464222188092 L148 174.91583534409813 L149 177.85920345339196 L150 181.56662002699204 L151 185.90192985295525 L152 190.70770338531702 L153 195.81092833061982 L154 201.02921359409396 L155 206.1772839886489 L156 211.0735352673793 L157 215.54641834647737 L158 219.4404290159144 L159 222.62149468089945 L160 224.9815721564987 L161 226.44229941909276 L162 226.95757844991329 L163 226.51500465437127 L164 225.13609943545083 L165 222.87534488064898 L166 219.81806169341795 L167 216.0772119811764 L168 211.7892458896871 L169 207.1091440517558 L170 202.2048352622762 L171 197.25118976773166 L172 192.42380236480818 L173 187.89278569390567 L174 183.81679251322356 L175 180.33747644662387 L176 177.5745840823725 L177 175.62184798430482 L178 174.5438210183271 L179 174.37375845273073 L180 175.11261678054575 L181 176.72919847508496 L182 179.1614313362575 L183 182.3187311468855 L184 186.08535843783352 L185 190.324645582752 L186 194.8839404077671 L187 199.6000880426925 L188 204.30525469099297 L189 208.83288595871505 L190 213.02358871100856 L191 216.7307292107604 L192 219.82555136633226 L193 222.20163684783725 L194 223.77855295778036 L195 224.50456358136407 L196 224.35831223066697 L197 223.34942292710377 L198 221.51800312866422 L199 218.93307173830954 L200 215.68997305707705 L201 211.90687304126914 L202 207.72046614741336 L203 203.281048293017 L204 198.7471330871781 L205 194.27980375693582 L206 190.03700160429375 L207 186.16795311083928 L208 182.80793194994607 L209 180.07353941053347 L210 178.0586675632236 L211 176.83128461547165 L212 176.43115221098566 L213 176.86855100002873 L214 178.12405483750098 L215 180.1493567357507 L216 182.86911252829057 L217 186.18373240045216 L218 189.97301727078863 L219 194.1005076217592 L220 198.41838780023681 L221 202.7727698839388 L222 207.00916858209905 L223 210.97797272573456 L224 214.53971988411033 L225 217.56998845484614 L226 219.9637359101593 L227 221.63893220669868 L228 222.53936293786893 L229 222.63650670002343 L230 221.9304242833736 L231 220.44963250078155 L232 218.2499714807817 L233 215.4125097998329 L234 212.04056565925575 L235 208.25595323675248 L236 204.1945902805222 L237 200.00162503067764 L238 195.82625689044008 L239 191.81643537457643 L240 188.11362540325882 L241 184.84782388761437 L242 182.13300290611147 L243 180.06313896585505 L244 178.70896646319616 L245 178.11556728171155 L246 178.30087843684586 L247 179.25516687196045 L248 180.9414861006352 L249 183.2970945973852 L250 186.23578189477809 L251 189.65101644578655 L252 193.4198005756955 L253 197.4070932814491 L254 201.4706420902711 L255 205.46605133531955 L256 209.25190651193387 L257 212.69477309208727 L258 215.6738933179473 L259 218.085415861617 L260 219.8460104016661 L261 220.89574149911817 L262 221.2001028469625 L263 220.75114305773516 L264 219.56764656641744 L265 217.6943668058673 L266 215.20034236727295 L267 212.1763592019935 L268 208.73165191411053 L269 204.98996378281993 L270 201.08510741237546 L271 197.1561850630967 L272 193.34263918165314 L273 189.77930903747716 L274 186.59166851604144 L275 183.89141307160747 L276 181.77255087345515 L277 180.30813477051063 L278 179.54774852038653 L279 179.5158336171674 L280 180.2109129809987 L281 181.60573581613323 L282 183.648335239943 L283 186.2639579933998 L284 189.35779480493622 L285 192.81841187679868 L286 196.52175948138873 L287 200.33561364856135 L288 204.12429208606125 L289 207.7534763116801 L290 211.0949687922435 L291 214.03121677349083 L292 216.459443323429 L293 218.29524056684693 L294 219.47549962977394 L295 219.9605757309531 L296 219.73561429154952 L297 218.81099390144246 L298 217.2218734112863 L299 215.02686219653995 L300 212.305863636746 L301 209.15717097568836 L302 205.69392095079502 L303 202.04003298438624 L304 198.32577953433335 L305 194.6831457919638 L306 191.24114386175523 L307 188.1212476327918 L308 185.4331097369594 L309 183.27071147285426 L310 181.70908074800988 L311 180.80169253268934 L312 180.5786417692532 L313 181.04565102400335 L314 182.18394539267513 L315 183.95099633756251 L316 186.28210533887878 L317 189.0927685758903 L318 192.28173636177686 L319 195.73465670695595 L320 199.32817203138308 L321 202.9343223956527 L322 206.42509821337546 L323 209.6769805957876 L324 212.57530841710988 L325 215.01831782501347 L326 216.9207120022373 L327 218.2166360684079 L328 218.86195347513868 L329 218.83574531895155 L330 218.14098177645053 L331 216.80434436223862 L332 214.87520787224653 L333 212.42382063290057 L334 209.53874997687882 L335 206.32368571080082 L336 202.8937168207085 L337 199.3712149911023 L338 195.88147205539596 L339 192.54824678420619 L340 189.48937917461063 L341 186.81262754686668 L342 184.611875402639 L343 182.96384146244264 L344 181.92540807440713 L345 181.53166093094774 L346 181.79470754469847 L347 182.7033141324601 L348 184.2233714277735 L349 186.29917052502003 L350 188.85544119396513 L351 191.80007820703014 L352 195.0274570404624 L353 198.42221969424335 L354 201.86339504462038 L355 205.2287066643014 L356 208.39891481183957 L357 211.2620385098386 L358 213.7173083138602 L359 215.67871033919997 L360 217.07799699319838 L361 217.86705911549444 L362 218.01957716311594 L363 217.53189486854612 L364 216.4230865249359 L365 214.73421772542002 L366 212.52682798415145 L367 209.8806911816165 L368 206.89093523367703 L369 203.66462488580083 L370 200.31693029142258 L371 196.9670183914785 L372 193.73381357370556 L373 190.7317783329856 L374 188.06686354136218 L375 185.83277152205326 L376 184.107663647276 L377 182.95142806515864 L378 182.40360298995842 L379 182.48202748800594 L380 183.18226570118122 L381 184.4778228982396 L382 186.32114361280168 L383 188.64535441416137 L384 191.36668754467894 L385 194.38749767466 L386 197.59976321656245 L387 200.88894673471037 L388 204.1380765737955 L389 207.23190433788525 L390 210.0609905344646 L391 212.52557362416775 L392 214.53908576919943 L393 216.03119145346867 L394 216.95024238623364 L395 217.2650630763043 L396 216.96600542240216 L397 216.06523675007736 L398 214.59625300634696 L399 212.61263632957724 " stroke = "red" stroke-width = "4" fill = "none" /></svg>