<svg width="400" height="400" viewbox = "0 0 400 400"  xmlns="http://www.w3.org/2000/svg">

<!--
<topfunctions>






function YofX(){
//foobar foobar
    X = plotparams.g*(x - plotparams.x0) - funcparams.X0;

    Y = BesselJ0(X);

    y = plotparams.y0 - plotparams.G*(Y - funcparams.Y0);
}
function YofX2(){
//foobar foobar
    X = plotparams.g*(x - plotparams.x0) - funcparams.X0;

    Y = BesselJ1(X);

    y = plotparams.y0 - plotparams.G*(Y - funcparams.Y0);
}


function plotfunction(){
    
    /*plot one function:*/
    currentStroke = "blue";
    currentLineWidth = 4;
    ctx.strokeStyle = currentStroke;
    ctx.lineWidth = currentLineWidth;
    ctx.beginPath();	
    x = 0;
    intx = x;
    YofX();
    currentSVG += "	<path d = \"M";
    currentSVG += Math.round(x).toString() + " ";
    currentSVG += Math.round(y).toString() + " ";
    for(x = 1;x < plotparams.plotwidth;x++){
        ctx.moveTo(x-1,y);
        YofX();
        ctx.lineTo(x,y);
        currentSVG += "L" + x + " " + y + " ";
    }
    ctx.stroke();
    currentSVG += "\""+ " stroke = \"" + currentStroke + "\" stroke-width = \"" + currentLineWidth.toString() + "\" fill = \"" + "none" + "\" "+"/>";
    /*finish plot one function*/
    
        /*plot one function:*/
    currentStroke = "red";
    currentLineWidth = 4;
    ctx.strokeStyle = currentStroke;
    ctx.lineWidth = currentLineWidth;
    ctx.beginPath();	
    x = 0;
    intx = x;
    YofX2();
    currentSVG += "	<path d = \"M";
    currentSVG += Math.round(x).toString() + " ";
    currentSVG += Math.round(y).toString() + " ";
    for(x = 1;x < plotparams.plotwidth;x++){
        ctx.moveTo(x-1,y);
        YofX2();
        ctx.lineTo(x,y);
        currentSVG += "L" + x + " " + y + " ";
    }
    ctx.stroke();
    currentSVG += "\""+ " stroke = \"" + currentStroke + "\" stroke-width = \"" + currentLineWidth.toString() + "\" fill = \"" + "none" + "\" "+"/>";
    /*finish plot one function*/
    
}

// http://www.mhtl.uwaterloo.ca/old/courses/me3532/js/bessel.html


function BesselJ(n,x){
	if (n == null || n.length == 0) return "n not specified";
	if (Math.floor(n) != n) return "Error: n not integer";
	if (n < 2) return "Error: n < 2";
	var ACC = 40.0;		// Make larger to increase accuracy.
	var BIGNO = 1.0e10;
	var BIGNI = 1.0e-10;
	var j,jsum,m,ax,bj,bjm,bjp,sum,tox,ans;
	ax=Math.abs(x);
	if (ax == 0.0) return 0.0;
	else if (ax > n) {
		tox = 2.0/ax;
		bjm=BesselJ0(ax);
		bj=BesselJ1(ax);
		for (j=1;j<n;j++) {
			bjp=j*tox*bj-bjm;
			bjm=bj;
			bj=bjp;
		}
		ans=bj;
	} else {
		tox=2.0/ax;
		if (Math.sqrt(ACC*n) >= 0)
			m=2*((n + Math.floor(Math.sqrt(ACC*n))) / 2);
		else
			m=2*((n + Math.ceil(Math.sqrt(ACC*n))) / 2);
		jsum=0;
		bjp=ans=sum=0.0;
		bj=1.0;
		for (j=m;j>0;j--) {
			bjm=j*tox*bj-bjp;
			bjp=bj;
			bj=bjm;
			if (Math.abs(bj) > BIGNO) {
				bj *= BIGNI;
				bjp *= BIGNI;
				ans *= BIGNI;
				sum *= BIGNI;
			}
			if (jsum) sum += bj;
			jsum=!jsum;
			if (j == n) ans=bjp;
		}
		sum=2.0*sum-bj;
		ans /= sum;
	}
	return x < 0.0 && (n & 1) ? -ans : ans;
}


function BesselJ0(x) {
	var ax,z,xx,y,ans,ans1,ans2;
	ax = Math.abs(x)
	if (ax < 8.0) {
		y = x * x;
		ans1 = 57568490574.0 + y * (-13362590354.0 + y * (651619640.7 + y * (-11214424.18 + y * (77392.33017 + y * (-184.9052456)))));
		ans2 = 57568490411.0 + y * (1029532985.0 + y * (9494680.718 + y * (59272.64853 + y * (267.8532712 + y * 1.0))));
		ans = ans1 / ans2;
	} else {
		z = 8.0 / ax;
		y = z * z;
		xx = ax - 0.785398164;
		ans1 = 1.0 + y * (-0.1098628627e-2 + y * (0.2734510407e-4 + y * (-0.2073370639e-5 + y * 0.2093887211e-6)));
		ans2 = -0.1562499995e-1 + y * (0.1430488765e-3 + y * (-0.6911147651e-5 + y * (0.7621095161e-6 - y * 0.934935152e-7)));
		ans = Math.sqrt(0.636619772 / ax) * (Math.cos(xx) * ans1 - z * Math.sin(xx) * ans2);
	}
	return ans;
}

function BesselJ1(x) {
	var ax,z,xx,y,ans,ans1,ans2;
	ax = Math.abs(x);
	if (ax < 8.0) {
		y=x*x;
		ans1 = x*(72362614232.0+y*(-7895059235.0+y*(242396853.1+y*(-2972611.439+y*(15704.48260+y*(-30.16036606))))));
		ans2 = 144725228442.0+y*(2300535178.0+y*(18583304.74+y*(99447.43394+y*(376.9991397+y*1.0))));
		ans = ans1/ans2;
	} else {
		z=8.0/ax;
		y=z*z;
		xx=ax-2.356194491;
		ans1=1.0+y*(0.183105e-2+y*(-0.3516396496e-4+y*(0.2457520174e-5+y*(-0.240337019e-6))));
		ans2=0.04687499995+y*(-0.2002690873e-3+y*(0.8449199096e-5+y*(-0.88228987e-6+y*0.105787412e-6)));
		ans=Math.sqrt(0.636619772/ax)*(Math.cos(xx)*ans1-z*Math.sin(xx)*ans2);
		if (x < 0.0) ans = -ans;
	}
	return ans;	
}
























</topfunctions>
-->

<!--
<imgurl>

</imgurl>
-->

<!--
<currentjson>
{
    "constants": {},
    "imgurl": "",
    "plotparams": {
        "G": 156.24722518287507,
        "g": 0.06830134553650706,
        "duration": 450.78888054094654,
        "plotwidth": 400,
        "plotheight": 400,
        "x0": 0,
        "y0": 200.00000000000003
    },
    "funcparams": {
        "phi": 0.2688139066614501,
        "T": 1.4465183912692552,
        "X0": 0,
        "Y0": 0
    }
}
</currentjson>
-->

<!--
<equation>

<h2>Bessel Function</h2>
<p style="color:blue">

</p><p class="bigeq">
$$
Y = J_n(X)
$$
</p>
<p></p>

$$
X = g(x - x_0) - X_0
$$
$$
Y = f(X)
$$
    
$$
y = y_0 - G(Y - Y_0)
$$


<p>
    X and Y, and $X_0$ and $Y_0$ in physical units of the System. x and y and x0 and y0 in pixels.  G is in pixels per Y unit and g is in X units per pixel. 
</p>






</equation>
-->
	<path d = "M0 44 L1 43.93494746897872 L2 44.48082959028696 L3 45.388511730387194 L4 46.65482045239247 L5 48.27533022079558 L6 50.24438059298379 L7 52.55509820212927 L8 55.19942344178625 L9 58.168141743370086 L10 61.45091931899444 L11 65.03634322397681 L12 68.9119655757707 L13 73.06435174921339 L14 77.4791323518651 L15 82.14105876792479 L16 87.03406204480272 L17 92.14131488297275 L18 97.44529647726996 L19 102.92785994639905 L20 108.57030207711551 L21 114.35343510038723 L22 120.25766020886456 L23 126.2630425182272 L24 132.34938716945268 L25 138.49631626479402 L26 144.68334632727507 L27 150.88996597182543 L28 157.0957134757867 L29 163.2802539374288 L30 169.42345571331526 L31 175.5054658288377 L32 181.50678406098612 L33 187.40833539841327 L34 193.19154059105992 L35 198.83838451000113 L36 204.33148204771953 L37 209.65414129965836 L38 214.79042377962244 L39 219.7252014343149 L40 224.44421023597465 L41 228.93410014665443 L42 233.18248126308524 L43 237.1779659672469 L44 240.91020692463908 L45 244.3699307897416 L46 247.54896749620568 L47 250.4402750278371 L48 253.03795958535162 L49 255.33729108311329 L50 257.3347139295302 L51 259.02785306439574 L52 260.4155152461418 L53 261.4976856016349 L54 262.27551947070504 L55 262.75132959698135 L56 262.9285687357179 L57 262.8118077680679 L58 262.4067094296099 L59 261.7199977787716 L60 260.7594235480755 L61 259.5337255377483 L62 258.0525882271478 L63 256.32659579458664 L64 254.36718275041807 L65 252.1865814016244 L66 249.7977663785789 L67 247.21439646606422 L68 244.45075399099485 L69 241.52168202856268 L70 238.44251969665845 L71 235.22903581540288 L72 231.89736121440268 L73 228.46391997492722 L74 224.94535989754752 L75 221.35848248789276 L76 217.7201727540459 L77 214.04732910872713 L78 210.35679366779544 L79 206.66528323375698 L80 202.9893212489147 L81 199.34517099753668 L82 195.74877033001343 L83 192.21566817441104 L84 188.76096309217527 L85 185.39924412502683 L86 182.1445341693451 L87 179.01023610263945 L88 176.00908187408453 L89 173.15308475761353 L90 170.453494951786 L91 167.92075869562785 L92 165.5644810539591 L93 163.393392509434 L94 161.4153194817157 L95 159.63715887693013 L96 158.0648567529143 L97 156.7033911678273 L98 155.5567592615389 L99 154.6279686009163 L100 153.919032801779 L101 153.43097142196603 L102 153.16381410175012 L103 153.11660890979826 L104 153.28743483513372 L105 153.67341834813973 L106 154.27075393667505 L107 155.07472850690615 L108 156.0797495225562 L109 157.27937674105135 L110 158.66635739051816 L111 160.23266461785624 L112 161.96953902523646 L113 163.86753310039558 L114 165.9165583350859 L115 168.1059348160452 L116 170.42444306388734 L117 172.86037788747504 L118 175.40160183991685 L119 178.03560596425052 L120 180.7495656811867 L121 183.53040046517117 L122 186.3648338673422 L123 189.239453934889 L124 192.14077381883396 L125 195.05529230504143 L126 197.969554004889 L127 200.87020894481503 L128 203.7440712978594 L129 206.57817700531464 L130 209.35984004269125 L131 212.07670709132466 L132 214.71681038509314 L133 217.268618510829 L134 219.72108495104303 L135 222.06369416850865 L136 224.28650504400187 L137 226.38019149102198 L138 228.33608008456685 L139 230.1461845549368 L140 231.80323701204208 L141 233.30071578071107 L142 234.63286974298558 L143 235.79473909926207 L144 236.78217247633472 L145 237.59184032683734 L146 238.22124458119606 L147 238.66872452991984 L148 238.9334589307972 L149 239.01546435225853 L150 238.91558978073738 L151 238.63550753623943 L152 238.17770055644127 L153 237.5454461254178 L154 236.7427961384701 L155 235.77455400942833 L156 234.64624834117487 L157 233.36410349390405 L158 231.93500719875726 L159 230.36647537687927 L160 228.66661433559247 L161 226.84408052422197 L162 224.90803804208662 L163 222.8681141002598 L164 220.73435264685355 L165 218.51716637277025 L166 216.22728732105838 L167 213.8757163281849 L168 211.4736715296782 L169 209.03253616568125 L170 206.56380592398642 L171 204.07903605908137 L172 201.58978852563507 L173 199.10757936368654 L174 196.64382657058022 L175 194.20979869143915 L176 191.81656435568806 L177 189.47494298186794 L178 187.19545686674107 L179 184.98828486750241 L180 182.8632178778335 L181 180.8296162895836 L182 178.89636962209983 L183 177.07185849068458 L184 175.3639190743957 L185 173.7798102314708 L186 172.32618339810512 L187 171.00905539321076 L188 169.83378423817936 L189 168.80504808663892 L190 167.9268273447912 L191 167.2023900482095 L192 166.63428054603622 L193 166.2243115284082 L194 165.97355941772838 L195 165.88236312916106 L196 165.95032619052358 L197 166.1763221966476 L198 166.55850355835682 L199 167.09431349151896 L200 167.78050117724524 L201 168.61314001029356 L202 169.5876488391412 L203 170.69881608809345 L204 171.94082663923766 L205 173.3072913400964 L206 174.7912789915286 L207 176.3853506598207 L208 178.0815961470508 L209 179.8716724447324 L210 181.74684398749588 L211 183.69802451617147 L212 185.71582035313813 L213 187.79057488721085 L214 189.91241406068863 L215 192.0712926474891 L216 194.2570411085624 L217 196.45941280902738 L218 198.668131380697 L219 200.87293801386843 L220 203.06363846343933 L221 205.2301495565603 L222 207.36254499214306 L223 209.4511002265843 L224 211.48633624502565 L225 213.4590620233187 L226 215.36041549257104 L227 217.18190282568918 L228 218.915435873656 L229 220.5533675883597 L230 222.08852527857184 L231 223.51424155611298 L232 224.82438284029766 L233 226.0133753003576 L234 227.07622812765624 L235 228.00855404206663 L236 228.80658694983248 L237 229.46719668350832 L238 229.98790076812026 L239 230.36687317143466 L240 230.6029500101155 L241 230.69563219751893 L242 230.64508503285856 L243 230.45213474541097 L244 230.1182620212555 L245 229.64559255369267 L246 229.03688467190221 L247 228.29551411552134 L248 227.42545603559088 L249 226.43126431467414 L250 225.31804831084227 L251 224.09144714159638 L252 222.75760163459952 L253 221.32312408228464 L254 219.79506594693575 L255 218.18088367167118 L256 216.48840276085258 L257 214.72578030076224 L258 212.90146609791182 L259 211.02416261803165 L260 209.1027839136242 L261 207.14641373192887 L262 205.16426299821538 L263 203.16562687150176 L264 201.15984157105933 L265 199.15624117242734 L266 197.164114571114 L267 195.19266281070733 L268 193.2509569697804 L269 191.34789679875047 L270 189.49217029376956 L271 187.6922143897998 L272 185.95617694928518 L273 184.29188021630753 L274 182.7067858988316 L275 181.2079620336462 L276 179.80205177992542 L277 178.49524427801813 L278 177.29324770015958 L279 176.20126460933838 L280 175.22396973159724 L281 174.36549023563845 L282 173.6293886018118 L283 173.0186481504267 L284 172.5356612869153 L285 172.18222050873402 L286 171.95951220608606 L287 171.86811327563663 L288 171.9079905534336 L289 172.07850306030073 L290 172.3784070400952 L291 172.8058637584759 L292 173.35845001727157 L293 174.0331713272245 L294 174.82647766987313 L295 175.73428176767584 L296 176.75197977022833 L297 177.8744742536274 L298 179.0961994197443 L299 180.4111483724282 L300 181.81290233851004 L301 183.29466169296424 L302 184.8492786397366 L303 186.4692913926084 L304 188.14695969405602 L305 189.8743015044254 L306 191.64313068887657 L307 193.44509552550215 L308 195.27171785479175 L309 197.11443268821333 L310 198.96462809213196 L311 200.81368516257388 L312 202.65301790648712 L313 204.47411284613509 L314 206.26856816508166 L315 208.0281322168813 L316 209.74474122104866 L317 211.41055597514384 L318 213.01799741684198 L319 214.55978087563454 L320 216.02894886031294 L321 217.41890223556896 L322 218.72342964888975 L323 219.9367350773778 L324 221.05346337315697 L325 222.0687236955876 L326 222.97811072855873 L327 223.77772359161338 L328 224.46418236453735 L329 225.03464215625604 L330 225.4868046603844 L331 225.81892715150715 L332 226.0298288881782 L333 226.118894900661 L334 226.08607715353455 L335 225.93189308540164 L336 225.65742154000597 L337 225.26429611503514 L338 224.75469596670268 L339 224.13133411981136 L340 223.39744334434852 L341 222.55675967070064 L342 221.61350362624992 L343 220.57235928638124 L344 219.43845124273628 L345 218.21731960086382 L346 216.9148931281828 L347 215.53746068136405 L348 214.09164104981173 L349 212.58435135884676 L350 211.02277418244188 L351 209.41432352089566 L352 207.7666098036413 L353 206.08740408144692 L354 204.38460157555252 L355 202.66618475380568 L356 200.9401861055771 L357 199.21465078816684 L358 197.4975993175422 L359 195.79699047558069 L360 194.12068460453588 L361 192.47640745720454 L362 190.87171476826444 L363 189.31395770848724 L364 187.8102493790346 L365 186.36743249783396 L366 184.99204842413195 L367 183.69030766077063 L368 182.46806196654714 L369 181.33077820324775 L370 180.28351403361833 L371 179.3308955776929 L372 178.4770971255883 L373 177.7258229951295 L374 177.0802916125466 L375 176.5432218840237 L376 176.1168219151345 L377 175.80278012421704 L378 175.60225878457368 L379 175.51589001908258 L380 175.54377425942744 L381 175.68548117074354 L382 175.9400530310945 L383 176.30601054388882 L384 176.78136105016637 L385 177.363609096688 L386 178.04976930499416 L387 178.83638147611003 L388 179.71952785541416 L389 180.69485247239794 L390 181.75758246067466 L391 182.90255125468178 L392 184.12422355111124 L393 185.41672191522375 L394 186.77385490490155 L395 188.1891465785936 L396 189.6558672472402 L397 191.16706532486108 L398 192.71560012776493 L399 194.29417546832235 " stroke = "blue" stroke-width = "4" fill = "none" />	<path d = "M0 200 L1 194.66716311009424 L2 189.35297752595764 L3 184.0760220734388 L4 178.8547309142889 L5 173.7073219522319 L6 168.65172612130704 L7 163.70551784480665 L8 158.88584694822077 L9 154.2093723034987 L10 149.69219747467508 L11 145.34980862651454 L12 141.1970149483368 L13 137.24789183464208 L14 133.51572705259963 L15 130.01297011394809 L16 126.75118505543301 L17 123.74100681763542 L18 120.9921013969826 L19 118.51312992994792 L20 116.31171685200184 L21 114.39442225684621 L22 112.7667185639187 L23 111.4329715841687 L24 110.39642605575808 L25 109.6591957027057 L26 109.22225785065545 L27 109.08545261498163 L28 109.24748665743499 L29 109.70594148855618 L30 110.45728627422571 L31 111.49689508605366 L32 112.81906851692537 L33 114.4170595649824 L34 116.28310367171129 L35 118.40845278270929 L36 120.7834132831674 L37 123.39738764422853 L38 126.23891960120646 L39 129.2957426702563 L40 132.5548317965255 L41 136.00245791414855 L42 139.624245186723 L43 143.4052306861777 L44 147.32992625825216 L45 151.3823823141913 L46 155.54625328076187 L47 159.804864434338 L48 164.14127983961546 L49 168.53837110951565 L50 172.97888670004374 L51 177.44552145228678 L52 181.9209860933738 L53 186.38807640907896 L54 190.8297418028173 L55 195.22915295905574 L56 199.56976833362012 L57 203.835399199002 L58 208.01027297953166 L59 212.07909461915438 L60 216.02710573348813 L61 219.84014130781867 L62 223.50468371364803 L63 227.00791382831434 L64 230.33775905499203 L65 233.4829380539938 L66 236.43300201068837 L67 239.17837228044 L68 241.71037426671245 L69 244.02126740478778 L70 246.10427114035934 L71 247.9535868094954 L72 249.5644153440619 L73 250.9329707445604 L74 252.05648928040546 L75 252.93323439585873 L76 253.56249731806884 L77 253.94459338187048 L78 254.08085410408347 L79 253.97361505795118 L80 253.62619961599117 L81 253.04289864682514 L82 252.22894626842813 L83 251.19049177663425 L84 249.934567883566 L85 248.4690554158728 L86 246.80264463718697 L87 244.94479337299057 L88 242.9056821290562 L89 240.696166406746 L90 238.32772642965992 L91 235.81241450637535 L92 233.16280026328207 L93 230.3919139897349 L94 227.51318834490522 L95 224.54039868177878 L96 221.48760224868172 L97 218.369076532541 L98 215.19925701073151 L99 211.992674579877 L100 208.76389293031107 L101 205.52744613409328 L102 202.29777671251844 L103 199.0891744459506 L104 195.91571618460415 L105 192.79120691357977 L106 189.72912231907728 L107 186.74255309529806 L108 183.84415122312924 L109 181.04607844233234 L110 178.35995712867754 L111 175.7968237763179 L112 173.367085273752 L113 171.080478149027 L114 168.94603094643458 L115 166.97202988296414 L116 165.16598791818024 L117 163.53461735616145 L118 162.08380486788639 L119 160.81859515731074 L120 159.74316976862343 L121 158.86083762231078 L122 158.17402571528797 L123 157.6842744170091 L124 157.3922366547282 L125 157.29768097236126 L126 157.3994984306081 L127 157.6957132994002 L128 158.18349747742394 L129 158.8591885574976 L130 159.7183114410201 L131 160.75560338963317 L132 161.96504238770305 L133 163.33987867530212 L134 164.872669298108 L135 166.5553155080993 L136 168.37910283715962 L137 170.33474365475865 L138 172.41242201080712 L139 174.60184055561427 L140 176.8922693206628 L141 179.27259613667457 L142 181.73137845921613 L143 184.25689636689268 L144 186.8372064930358 L145 189.4601966487145 L146 192.1136408928939 L147 194.78525480465137 L148 197.46275071251864 L149 200.13389263726103 L150 202.78655070671627 L151 205.40875480467605 L152 207.98874722019926 L153 210.51503406915657 L154 212.97643526621147 L155 215.36213283279602 L156 217.6617173349153 L157 219.86523225377138 L158 221.9632161021842 L159 223.94674211056994 L160 225.80745531775335 L161 227.5376069140929 L162 229.13008569723195 L163 230.57844651418768 L164 231.8769355774017 L165 233.02051255673024 L166 234.0048693640866 L167 234.82644556249878 L168 235.48244034663617 L169 235.97082105733318 L170 236.29032820821334 L171 236.44047701813534 L172 236.42155545876753 L173 236.23461884208018 L174 235.88148098786246 L175 235.36470202644816 L176 234.68757290661117 L177 233.85409669300003 L178 232.8689667514593 L179 231.73754193407296 L180 230.4658188887022 L181 229.06040163012366 L182 227.52846852154795 L183 225.87773682626542 L184 224.1164249993786 L185 222.25321289899642 L186 220.297200104843 L187 218.25786253994204 L188 216.14500759783974 L189 213.9687279837031 L190 211.73935448254923 L191 209.4674078718068 L192 207.1635501983728 L193 204.83853564228826 L194 202.50316119012038 L195 200.16821734109456 L196 197.84443906797975 L197 195.54245725269922 L198 193.27275081362458 L199 191.0455997375418 L200 188.87103922436017 L201 186.75881514680745 L202 184.71834102063755 L203 182.75865667330663 L204 180.88838879068794 L205 179.11571351223222 L206 177.4483212350855 L207 175.89338377709632 L208 174.45752403742495 L209 173.1467882816711 L210 171.9666211661035 L211 170.9218436027798 L212 170.01663355412882 L213 169.25450983200747 L214 168.63831896239023 L215 168.1702251627708 L216 167.8517034651158 L217 167.68353600287182 L218 167.6658114661575 L219 167.79792771493442 L220 168.07859752570948 L221 168.5058574332406 L222 169.07707961486167 L223 169.78898675147005 L224 170.63766978599404 L225 171.61860848733534 L226 172.72669471542005 L227 173.95625827114355 L228 175.30109520371505 L229 176.75449843724124 L230 178.30929056838585 L231 179.95785867764138 L232 181.69219098819684 L233 183.5039151986082 L234 185.3843383085205 L235 187.3244877505691 L236 189.3151536363361 L237 191.34693191987475 L238 193.41026827885386 L239 195.49550251083298 L240 197.59291324056284 L241 199.69276273352122 L242 201.78534161113677 L243 203.86101326432885 L244 205.91025776407764 L245 207.92371507073744 L246 209.89222734768794 L247 211.80688018967675 L248 213.65904258180214 L249 215.44040541150187 L250 217.14301836311625 L251 218.75932503254145 L252 220.28219610815623 L253 221.7049604735343 L254 223.02143409741495 L255 224.2259465869421 L256 225.31336529124698 L257 226.27911685399565 L258 227.11920612548658 L259 227.83023235722115 L260 228.40940261451325 L261 228.85454235560275 L262 229.1641031388286 L263 229.33716743263977 L264 229.37345051651926 L265 229.27329947420313 L266 229.0376892938368 L267 228.66821610285967 L268 228.1670875783922 L269 227.53711058665448 L270 226.78167611741594 L271 225.9047415916083 L272 224.9108106319695 L273 223.80491039787842 L274 222.59256659633408 L275 221.27977629128424 L276 219.87297864316866 L277 218.37902371957426 L278 216.80513952625822 L279 215.15889741544842 L280 213.44817603524635 L281 211.6811239901001 L282 209.8661213876694 L283 208.01174045193736 L284 206.12670538612403 L285 204.21985167180938 L286 202.30008499266208 L287 200.37633997229787 L288 198.45753891604753 L289 196.55255074580145 L290 194.6701503156284 L291 192.8189782935353 L292 191.00750179157293 L293 189.2439759225008 L294 187.53640645643364 L295 185.89251374532347 L296 184.3196980768072 L297 182.8250066119132 L298 181.41510205339193 L299 180.09623318306222 L300 178.87420739758372 L301 177.75436536251445 L302 176.74155789444896 L303 175.84012517048663 L304 175.053878353319 L305 174.3860837088851 L306 173.83944928188964 L307 173.4161141825565 L308 173.11764052585963 L309 172.94500805218772 L310 172.89861144601593 L311 172.9782603567367 L312 173.18318211339314 L313 173.51202711272626 L314 173.96287684774265 L315 174.53325453199025 L316 175.22013826294875 L317 176.01997665645465 L318 176.92870687293706 L319 177.94177494549012 L320 179.05415830950355 L321 180.26039042375135 L322 181.55458736355502 L323 182.93047625792235 L324 184.38142543446142 L325 185.90047612841482 L326 187.4803756053828 L327 189.11361154123594 L328 190.79244749738706 L329 192.50895932501228 L330 194.25507232801536 L331 196.02259901151604 L332 197.80327724043997 L333 199.58880863138899 L334 201.37089700039422 L335 203.14128668938596 L336 204.89180059526424 L337 206.61437772730656 L338 208.30111012129632 L339 209.9442789421869 L340 211.53638961130517 L341 213.07020579903354 L342 214.53878212956053 L343 215.935495450628 L344 217.25407452820573 L345 218.48862803364415 L346 219.6336706990698 L347 220.6841475255497 L348 221.63545593781717 L349 222.48346578908678 L350 223.22453712963394 L351 223.85553566333596 L352 224.3738458272129 L353 224.77738144011784 L354 225.0645938780568 L355 225.2344777451159 L356 225.2865740205824 L357 225.22097067451568 L358 225.0383007556989 L359 224.73973796753003 L360 224.3269897589349 L361 223.8022879687587 L362 223.16837707325715 L363 222.42850009721926 L364 221.58638225985626 L365 220.64621243684226 L366 219.61262252974052 L367 218.49066484345607 L368 217.285787581272 L369 216.00380857542078 L370 214.6508873789703 L371 213.2334958520333 L372 211.75838738191217 L373 210.2325648827295 L374 208.66324772535364 L375 207.05783775297905 L376 205.42388454154192 L377 203.76905006723783 L378 202.10107294572992 L379 200.42773240920386 L380 198.75681218821856 L381 197.0960644653261 L382 195.45317406669093 L383 193.83572305642744 L384 192.25115589611468 L385 190.70674532893858 L386 189.20955914418164 L387 187.76642797333508 L388 186.38391426398456 L389 185.0682825718299 L390 183.82547130477832 L391 182.66106604602902 L392 181.58027457547348 L393 180.5879037006154 L394 179.68833799959683 L395 178.8855205698486 L396 178.1829358664068 L397 177.58359470409138 L398 177.09002148758344 L399 176.70424372300423 " stroke = "red" stroke-width = "4" fill = "none" /></svg>