<svg width="450" height="450" viewbox = "0 0 450 450"  xmlns="http://www.w3.org/2000/svg">

<!--
<json>
{
    "imgurl": "",
    "imgw": 2.983971328437751,
    "imgleft": -1.4873205904167783,
    "imgtop": -1.0519856642188752,
    "imgangle": 0,
    "svgwidth": 450,
    "svgheight": 450,
    "unit": 100,
    "x0": 684,
    "y0": 399,
    "x0rel": 0,
    "y0rel": 0,
    "glyph": "0330,0330,0336,0336,0336,0333,0331,0333,0336,0332,0337,0337,0337,0331,0332,0332,0332,0332,0337,0230,",
    "table": []
}
</json>
-->
	<path d = "M94 88 L94 38 L44 37 L44 88 L94 88 Z" stroke = "black" stroke-width = "2" fill = "none" /><circle cx="69" cy = "63" r = "2" stroke = "black" stroke-width = "2" fill = "black" />
    <line x1="78" y1="54" x2="86" y2="45" style="stroke:black;stroke-width:2" />
    <line x1="51" y1="80" x2="60" y2="71" style="stroke:black;stroke-width:2" />
    <line x1="51" y1="45" x2="60" y2="54" style="stroke:black;stroke-width:2" />
    <line x1="78" y1="71" x2="86" y2="80" style="stroke:black;stroke-width:2" />
    <line x1="119" y1="88" x2="140" y2="42" style="stroke:black;stroke-width:2" />
    <line x1="140" y1="42" x2="97" y2="42" style="stroke:black;stroke-width:2" />
    <line x1="97" y1="42" x2="119" y2="88" style="stroke:black;stroke-width:2" />
	<path d = "M144 88 L144 38 L94 37 L94 88 L144 88 Z" stroke = "black" stroke-width = "2" fill = "none" />	<path d = "M294 88 L294 38 L244 38 L244 88 L294 88 Z" stroke = "black" stroke-width = "2" fill = "none" />    <circle cx="269" cy = "63" r = "25" stroke = "black" stroke-width = "2" fill = "none" />
    <line x1="269" y1="63" x2="269" y2="38" style="stroke:black;stroke-width:2" />
    <line x1="269" y1="63" x2="294" y2="63" style="stroke:black;stroke-width:2" />
    <line x1="269" y1="63" x2="269" y2="88" style="stroke:black;stroke-width:2" />
    <line x1="269" y1="63" x2="244" y2="63" style="stroke:black;stroke-width:2" />
    <circle cx="260" cy = "54" r = "6.25" stroke = "black" stroke-width = "2" fill = "none" />
    <circle cx="278" cy = "54" r = "6.25" stroke = "black" stroke-width = "2" fill = "none" />
    <circle cx="278" cy = "71" r = "6.25" stroke = "black" stroke-width = "2" fill = "none" />
    <circle cx="260" cy = "71" r = "6.25" stroke = "black" stroke-width = "2" fill = "none" />
	<path d = "M344 88 L344 38 L294 38 L294 88 L344 88 Z" stroke = "black" stroke-width = "2" fill = "none" />    <line x1="319" y1="63" x2="319" y2="38" style="stroke:black;stroke-width:2" />
    <line x1="319" y1="63" x2="343" y2="55" style="stroke:black;stroke-width:2" />
    <line x1="319" y1="63" x2="333" y2="83" style="stroke:black;stroke-width:2" />
    <line x1="319" y1="63" x2="304" y2="83" style="stroke:black;stroke-width:2" />
    <line x1="319" y1="63" x2="295" y2="55" style="stroke:black;stroke-width:2" />
    <circle cx="319" cy = "63" r = "25" stroke = "black" stroke-width = "2" fill = "none" />
    <circle cx="326" cy = "52" r = "3.125" stroke = "black" stroke-width = "2" fill = "none" />
    <circle cx="331" cy = "66" r = "3.125" stroke = "black" stroke-width = "2" fill = "none" />
    <circle cx="319" cy = "75" r = "3.125" stroke = "black" stroke-width = "2" fill = "none" />
    <circle cx="307" cy = "66" r = "3.125" stroke = "black" stroke-width = "2" fill = "none" />
    <circle cx="311" cy = "52" r = "3.125" stroke = "black" stroke-width = "2" fill = "none" />
	<path d = "M394 88 L394 38 L344 38 L344 88 L394 88 Z" stroke = "black" stroke-width = "2" fill = "none" />    <line x1="369" y1="63" x2="369" y2="38" style="stroke:black;stroke-width:2" />
    <line x1="369" y1="63" x2="390" y2="50" style="stroke:black;stroke-width:2" />
    <line x1="369" y1="63" x2="390" y2="75" style="stroke:black;stroke-width:2" />
    <line x1="369" y1="63" x2="369" y2="88" style="stroke:black;stroke-width:2" />
    <line x1="369" y1="63" x2="347" y2="75" style="stroke:black;stroke-width:2" />
    <circle cx="369" cy = "63" r = "25" stroke = "black" stroke-width = "2" fill = "none" />
    <circle cx="363" cy = "52" r = "3.125" stroke = "black" stroke-width = "2" fill = "none" />
    <circle cx="375" cy = "52" r = "3.125" stroke = "black" stroke-width = "2" fill = "none" />
    <circle cx="381" cy = "63" r = "3.125" stroke = "black" stroke-width = "2" fill = "none" />
    <circle cx="375" cy = "73" r = "3.125" stroke = "black" stroke-width = "2" fill = "none" />
    <circle cx="363" cy = "73" r = "3.125" stroke = "black" stroke-width = "2" fill = "none" />
    <line x1="369" y1="63" x2="347" y2="50" style="stroke:black;stroke-width:2" />
    <circle cx="356" cy = "63" r = "3.125" stroke = "black" stroke-width = "2" fill = "none" />
    <line x1="419" y1="63" x2="419" y2="38" style="stroke:black;stroke-width:2" />
    <line x1="419" y1="63" x2="438" y2="47" style="stroke:black;stroke-width:2" />
    <line x1="419" y1="63" x2="443" y2="68" style="stroke:black;stroke-width:2" />
    <line x1="419" y1="63" x2="430" y2="85" style="stroke:black;stroke-width:2" />
    <line x1="419" y1="63" x2="408" y2="85" style="stroke:black;stroke-width:2" />
    <line x1="419" y1="63" x2="394" y2="68" style="stroke:black;stroke-width:2" />
    <line x1="419" y1="63" x2="399" y2="47" style="stroke:black;stroke-width:2" />
    <circle cx="419" cy = "63" r = "25" stroke = "black" stroke-width = "2" fill = "none" />
	<path d = "M444 88 L444 38 L394 38 L394 88 L444 88 Z" stroke = "black" stroke-width = "2" fill = "none" />	<path d = "M94 138 L94 88 L44 88 L44 138 L94 138 Z" stroke = "black" stroke-width = "2" fill = "none" />    <line x1="69" y1="138" x2="94" y2="113" style="stroke:black;stroke-width:2" />
    <line x1="94" y1="113" x2="69" y2="88" style="stroke:black;stroke-width:2" />
    <line x1="69" y1="88" x2="44" y2="113" style="stroke:black;stroke-width:2" />
    <line x1="44" y1="113" x2="69" y2="138" style="stroke:black;stroke-width:2" />
    <line x1="94" y1="138" x2="144" y2="138" style="stroke:black;stroke-width:2" />
    <line x1="94" y1="138" x2="119" y2="61" style="stroke:black;stroke-width:2" />
    <line x1="144" y1="138" x2="119" y2="61" style="stroke:black;stroke-width:2" />
	<path d = "M144 138 L144 88 L94 88 L94 138 L144 138 Z" stroke = "black" stroke-width = "2" fill = "none" />    <line x1="144" y1="138" x2="103" y2="108" style="stroke:black;stroke-width:2" />
    <line x1="103" y1="108" x2="128" y2="90" style="stroke:black;stroke-width:2" />
    <line x1="128" y1="90" x2="113" y2="79" style="stroke:black;stroke-width:2" />
	<path d = "M194 138 L194 88 L144 88 L144 138 L194 138 Z" stroke = "black" stroke-width = "2" fill = "none" />    <line x1="194" y1="138" x2="169" y2="94" style="stroke:black;stroke-width:2" />
    <line x1="169" y1="94" x2="144" y2="138" style="stroke:black;stroke-width:2" />
    <line x1="169" y1="94" x2="169" y2="138" style="stroke:black;stroke-width:2" />
    <line x1="169" y1="138" x2="188" y2="127" style="stroke:black;stroke-width:2" />
	<path d = "M244 138 L244 88 L194 88 L194 138 L244 138 Z" stroke = "black" stroke-width = "2" fill = "none" />    <line x1="219" y1="125" x2="219" y2="113" style="stroke:black;stroke-width:2" />
    <line x1="219" y1="125" x2="206" y2="125" style="stroke:black;stroke-width:2" />
    <line x1="206" y1="125" x2="206" y2="113" style="stroke:black;stroke-width:2" />
    <line x1="206" y1="113" x2="219" y2="113" style="stroke:black;stroke-width:2" />
    <line x1="219" y1="113" x2="231" y2="113" style="stroke:black;stroke-width:2" />
    <line x1="231" y1="113" x2="231" y2="125" style="stroke:black;stroke-width:2" />
    <line x1="231" y1="125" x2="219" y2="125" style="stroke:black;stroke-width:2" />
	<path d = "M294 138 L294 88 L244 88 L244 138 L294 138 Z" stroke = "black" stroke-width = "2" fill = "none" />	<path d = "M260 121 L260 104 L244 104 L244 121 L260 121 Z" stroke = "black" stroke-width = "2" fill = "none" />	<path d = "M277 121 L277 104 L260 104 L260 121 L277 121 Z" stroke = "black" stroke-width = "2" fill = "none" />	<path d = "M294 121 L294 104 L277 104 L277 121 L294 121 Z" stroke = "black" stroke-width = "2" fill = "none" />	<path d = "M394 137 L394 87 L344 88 L344 138 L394 137 Z" stroke = "black" stroke-width = "2" fill = "none" />    <circle cx="356" cy = "125" r = "6.249999999999999" stroke = "black" stroke-width = "2" fill = "none" />
    <circle cx="356" cy = "100" r = "6.249999999999999" stroke = "black" stroke-width = "2" fill = "none" />
    <circle cx="369" cy = "112" r = "6.249999999999999" stroke = "black" stroke-width = "2" fill = "none" />
    <circle cx="381" cy = "100" r = "6.249999999999999" stroke = "black" stroke-width = "2" fill = "none" />
    <circle cx="381" cy = "125" r = "6.249999999999999" stroke = "black" stroke-width = "2" fill = "none" />
    <line x1="419" y1="137" x2="440" y2="92" style="stroke:black;stroke-width:2" />
    <line x1="440" y1="92" x2="397" y2="92" style="stroke:black;stroke-width:2" />
    <line x1="397" y1="92" x2="419" y2="137" style="stroke:black;stroke-width:2" />
	<path d = "M444 137 L444 87 L394 87 L394 137 L444 137 Z" stroke = "black" stroke-width = "2" fill = "none" />    <line x1="419" y1="137" x2="419" y2="112" style="stroke:black;stroke-width:2" />
<circle cx="419" cy = "116" r = "2" stroke = "black" stroke-width = "2" fill = "black" />
<circle cx="419" cy = "109" r = "2" stroke = "black" stroke-width = "2" fill = "black" />
	<path d = "M94 188 L94 138 L44 138 L44 188 L94 188 Z" stroke = "black" stroke-width = "2" fill = "none" />	<path d = "M81 175 L81 150 L56 150 L56 175 L81 175 Z" stroke = "black" stroke-width = "2" fill = "black" />	<path d = "M144 188 L144 138 L94 138 L94 188 L144 188 Z" stroke = "black" stroke-width = "2" fill = "none" />	<path d = "M131 175 L131 150 L106 150 L106 175 L131 175 Z" stroke = "white" stroke-width = "6" fill = "white" />	<path d = "M194 188 L194 138 L144 138 L144 188 L194 188 Z" stroke = "black" stroke-width = "2" fill = "none" />	<path d = "M181 175 L181 150 L156 150 L156 175 L181 175 Z" stroke = "red" stroke-width = "6" fill = "red" />	<path d = "M244 188 L244 138 L194 138 L194 188 L244 188 Z" stroke = "black" stroke-width = "2" fill = "none" />	<path d = "M231 175 L231 150 L206 150 L206 175 L231 175 Z" stroke = "orange" stroke-width = "6" fill = "orange" />	<path d = "M294 188 L294 138 L244 138 L244 188 L294 188 Z" stroke = "black" stroke-width = "2" fill = "none" />	<path d = "M281 175 L281 150 L256 150 L256 175 L281 175 Z" stroke = "yellow" stroke-width = "6" fill = "yellow" />	<path d = "M344 188 L344 138 L294 138 L294 188 L344 188 Z" stroke = "black" stroke-width = "2" fill = "none" />	<path d = "M331 175 L331 150 L306 150 L306 175 L331 175 Z" stroke = "green" stroke-width = "6" fill = "green" />	<path d = "M394 188 L394 138 L344 138 L344 188 L394 188 Z" stroke = "black" stroke-width = "2" fill = "none" />	<path d = "M381 175 L381 150 L356 150 L356 175 L381 175 Z" stroke = "blue" stroke-width = "6" fill = "blue" />	<path d = "M444 188 L444 138 L394 138 L394 188 L444 188 Z" stroke = "black" stroke-width = "2" fill = "none" />	<path d = "M431 175 L431 150 L406 150 L406 175 L431 175 Z" stroke = "purple" stroke-width = "6" fill = "purple" />	<path d = "M94 237 L94 187 L44 187 L44 237 L94 237 Z" stroke = "black" stroke-width = "2" fill = "none" />	<path d = "M75 225 L63 225 L63 212 L56 212 L63 206 L69 200 L75 206 L81 212 L75 212 L75 225 " stroke = "black" stroke-width = "2" fill = "none" />	<path d = "M144 237 L144 187 L94 187 L94 237 L144 237 Z" stroke = "black" stroke-width = "2" fill = "none" />	<path d = "M113 200 L125 200 L125 212 L131 212 L125 219 L119 225 L113 219 L106 212 L113 212 L113 200 " stroke = "black" stroke-width = "2" fill = "none" />	<path d = "M194 237 L194 187 L144 187 L144 237 L194 237 Z" stroke = "black" stroke-width = "2" fill = "none" />	<path d = "M181 206 L181 219 L169 219 L169 225 L163 219 L156 212 L163 206 L169 200 L169 206 L181 206 " stroke = "black" stroke-width = "2" fill = "none" />	<path d = "M244 237 L244 187 L194 187 L194 237 L244 237 Z" stroke = "black" stroke-width = "2" fill = "none" />	<path d = "M206 219 L206 206 L219 206 L219 200 L225 206 L231 212 L225 219 L219 225 L219 219 L206 219 " stroke = "black" stroke-width = "2" fill = "none" />	<path d = "M294 237 L294 187 L244 187 L244 237 L294 237 Z" stroke = "black" stroke-width = "2" fill = "none" />  <path d="M259.9124878590866 203.6611652351547           A12.499999999999998 12.499999999999998 0 0 1 277.5901573887502 203.66116523515865" fill = "none" stroke = "black" stroke-width = "2" />
  <path d="M259.9124878590825 221.33883476481833           A12.499999999999998 12.499999999999998 0 0 1 259.9124878590866 203.6611652351547" fill = "none" stroke = "black" stroke-width = "2" />
  <path d="M277.59015738874615 221.33883476482248           A12.499999999999998 12.499999999999998 0 0 1 259.9124878590825 221.33883476481833" fill = "none" stroke = "black" stroke-width = "2" />
    <line x1="269" y1="212" x2="278" y2="221" style="stroke:black;stroke-width:2" />
    <line x1="269" y1="231" x2="278" y2="222" style="stroke:black;stroke-width:2" />
	<path d = "M344 238 L344 188 L294 187 L294 237 L344 238 Z" stroke = "black" stroke-width = "2" fill = "none" />  <path d="M309.9124878590871 203.66116523516604           A12.499999999999998 12.499999999999998 0 0 1 327.59015738875075 203.66116523517076" fill = "none" stroke = "black" stroke-width = "2" />
  <path d="M309.91248785908226 221.33883476482967           A12.499999999999998 12.499999999999998 0 0 1 309.9124878590871 203.66116523516604" fill = "none" stroke = "black" stroke-width = "2" />
  <path d="M327.5901573887459 221.3388347648346           A12.499999999999998 12.499999999999998 0 0 1 309.91248785908226 221.33883476482967" fill = "none" stroke = "black" stroke-width = "2" />
    <line x1="319" y1="213" x2="328" y2="204" style="stroke:black;stroke-width:2" />
    <line x1="319" y1="194" x2="328" y2="203" style="stroke:black;stroke-width:2" />
	<path d = "M394 238 L394 188 L344 188 L344 238 L394 238 Z" stroke = "black" stroke-width = "2" fill = "none" />    <line x1="381" y1="213" x2="356" y2="213" style="stroke:black;stroke-width:2" />
	<path d = "M444 238 L444 188 L394 188 L394 238 L444 238 Z" stroke = "black" stroke-width = "2" fill = "none" />    <line x1="419" y1="213" x2="419" y2="200" style="stroke:black;stroke-width:2" />
    <line x1="419" y1="213" x2="406" y2="213" style="stroke:black;stroke-width:2" />
    <line x1="419" y1="213" x2="419" y2="225" style="stroke:black;stroke-width:2" />
    <line x1="419" y1="213" x2="431" y2="213" style="stroke:black;stroke-width:2" />
	<path d = "M94 287 L94 237 L44 237 L44 287 L94 287 Z" stroke = "black" stroke-width = "2" fill = "none" /><circle cx="69" cy = "262" r = "2" stroke = "black" stroke-width = "2" fill = "black" />
	<path d = "M144 287 L144 237 L94 237 L94 287 L144 287 Z" stroke = "black" stroke-width = "2" fill = "none" />    <circle cx="119" cy = "262" r = "24.999999999999996" stroke = "black" stroke-width = "2" fill = "none" />
<circle cx="119" cy = "262" r = "2" stroke = "black" stroke-width = "2" fill = "black" />
	<path d = "M194 287 L194 237 L144 237 L144 287 L194 287 Z" stroke = "black" stroke-width = "2" fill = "none" />    <line x1="169" y1="262" x2="156" y2="262" style="stroke:black;stroke-width:2" />
<circle cx="156" cy = "262" r = "2" stroke = "black" stroke-width = "2" fill = "black" />
    <line x1="169" y1="262" x2="181" y2="262" style="stroke:black;stroke-width:2" />
<circle cx="181" cy = "262" r = "2" stroke = "black" stroke-width = "2" fill = "black" />
	<path d = "M244 287 L244 237 L194 237 L194 287 L244 287 Z" stroke = "black" stroke-width = "2" fill = "none" />  <path d="M201.0736530942445 244.82233047029212           A24.999999999999996 24.999999999999996 0 0 1 236.42899215357176 244.82233047030687" fill = "none" stroke = "black" stroke-width = "2" />
    <line x1="219" y1="262" x2="236" y2="245" style="stroke:black;stroke-width:2" />
    <line x1="219" y1="262" x2="201" y2="245" style="stroke:black;stroke-width:2" />
<circle cx="219" cy = "262" r = "2" stroke = "black" stroke-width = "2" fill = "black" />
	<path d = "M294 287 L294 237 L244 237 L244 287 L294 287 Z" stroke = "black" stroke-width = "2" fill = "none" /><circle cx="256" cy = "262" r = "2" stroke = "black" stroke-width = "2" fill = "black" />
    <line x1="256" y1="262" x2="281" y2="262" style="stroke:black;stroke-width:2" />
<circle cx="281" cy = "262" r = "2" stroke = "black" stroke-width = "2" fill = "black" />
    <line x1="244" y1="287" x2="253" y2="279" style="stroke:black;stroke-width:2" />
    <line x1="256" y1="287" x2="265" y2="279" style="stroke:black;stroke-width:2" />
    <line x1="269" y1="287" x2="278" y2="279" style="stroke:black;stroke-width:2" />
    <line x1="281" y1="287" x2="290" y2="279" style="stroke:black;stroke-width:2" />
    <line x1="294" y1="287" x2="303" y2="279" style="stroke:black;stroke-width:2" />
    <line x1="306" y1="287" x2="315" y2="279" style="stroke:black;stroke-width:2" />
    <line x1="319" y1="288" x2="328" y2="279" style="stroke:black;stroke-width:2" />
    <line x1="331" y1="288" x2="340" y2="279" style="stroke:black;stroke-width:2" />
	<path d = "M344 288 L344 238 L294 237 L294 287 L344 288 Z" stroke = "black" stroke-width = "2" fill = "none" />  <path d="M293.75132262388917 287.4999999999925           A49.99999999999999 49.99999999999999 0 0 1 343.75132262391224 237.5000000000158" fill = "none" stroke = "black" stroke-width = "2" />
    <line x1="344" y1="288" x2="353" y2="279" style="stroke:black;stroke-width:2" />
    <line x1="356" y1="288" x2="365" y2="279" style="stroke:black;stroke-width:2" />
    <line x1="369" y1="288" x2="378" y2="279" style="stroke:black;stroke-width:2" />
    <line x1="381" y1="288" x2="390" y2="279" style="stroke:black;stroke-width:2" />
	<path d = "M394 288 L394 238 L344 238 L344 288 L394 288 Z" stroke = "black" stroke-width = "2" fill = "none" />  <path d="M343.7513226239128 237.50000000001467           A49.99999999999999 49.99999999999999 0 0 1 393.75132262388865 287.50000000003854" fill = "none" stroke = "black" stroke-width = "2" />
	<path d = "M444 288 L444 238 L394 238 L394 288 L444 288 Z" stroke = "black" stroke-width = "2" fill = "none" />    <circle cx="419" cy = "263" r = "12.499999999999998" stroke = "black" stroke-width = "2" fill = "black" />
	<path d = "M94 337 L94 287 L44 287 L44 337 L94 337 Z" stroke = "black" stroke-width = "2" fill = "none" />    <line x1="69" y1="312" x2="86" y2="295" style="stroke:black;stroke-width:2" />
    <line x1="69" y1="312" x2="86" y2="330" style="stroke:black;stroke-width:2" />
    <line x1="69" y1="312" x2="75" y2="312" style="stroke:black;stroke-width:2" />
    <line x1="81" y1="312" x2="88" y2="312" style="stroke:black;stroke-width:2" />
	<path d = "M144 337 L144 287 L94 287 L94 337 L144 337 Z" stroke = "black" stroke-width = "2" fill = "none" />    <line x1="119" y1="312" x2="123" y2="308" style="stroke:black;stroke-width:2" />
    <line x1="128" y1="304" x2="132" y2="299" style="stroke:black;stroke-width:2" />
    <line x1="136" y1="295" x2="141" y2="290" style="stroke:black;stroke-width:2" />
    <line x1="119" y1="312" x2="144" y2="312" style="stroke:black;stroke-width:2" />
    <line x1="119" y1="312" x2="136" y2="330" style="stroke:black;stroke-width:2" />
	<path d = "M194 337 L194 287 L144 287 L144 337 L194 337 Z" stroke = "black" stroke-width = "2" fill = "none" />    <line x1="169" y1="312" x2="186" y2="295" style="stroke:black;stroke-width:2" />
    <line x1="169" y1="312" x2="175" y2="311" style="stroke:black;stroke-width:2" />
    <line x1="181" y1="309" x2="187" y2="308" style="stroke:black;stroke-width:2" />
    <line x1="169" y1="312" x2="175" y2="314" style="stroke:black;stroke-width:2" />
    <line x1="181" y1="316" x2="187" y2="317" style="stroke:black;stroke-width:2" />
    <line x1="169" y1="312" x2="186" y2="330" style="stroke:black;stroke-width:2" />
	<path d = "M244 337 L244 287 L194 287 L194 337 L244 337 Z" stroke = "black" stroke-width = "2" fill = "none" />    <line x1="219" y1="312" x2="243" y2="306" style="stroke:black;stroke-width:2" />
    <line x1="219" y1="312" x2="243" y2="319" style="stroke:black;stroke-width:2" />
    <line x1="219" y1="312" x2="223" y2="317" style="stroke:black;stroke-width:2" />
    <line x1="228" y1="321" x2="232" y2="326" style="stroke:black;stroke-width:2" />
    <line x1="219" y1="312" x2="223" y2="308" style="stroke:black;stroke-width:2" />
    <line x1="228" y1="304" x2="232" y2="299" style="stroke:black;stroke-width:2" />
	<path d = "M294 338 L294 288 L244 287 L244 337 L294 338 Z" stroke = "black" stroke-width = "2" fill = "none" />    <line x1="256" y1="300" x2="269" y2="300" style="stroke:black;stroke-width:2" />
    <line x1="269" y1="300" x2="281" y2="300" style="stroke:black;stroke-width:2" />
    <line x1="281" y1="300" x2="281" y2="312" style="stroke:black;stroke-width:2" />
    <line x1="281" y1="312" x2="281" y2="325" style="stroke:black;stroke-width:2" />
    <line x1="281" y1="325" x2="286" y2="321" style="stroke:black;stroke-width:2" />
    <line x1="281" y1="325" x2="277" y2="321" style="stroke:black;stroke-width:2" />
<circle cx="281" cy = "325" r = "2" stroke = "black" stroke-width = "2" fill = "black" />
    <line x1="281" y1="325" x2="256" y2="300" style="stroke:black;stroke-width:2" />
	<path d = "M94 387 L94 337 L44 337 L44 387 L94 387 Z" stroke = "black" stroke-width = "2" fill = "none" />    <line x1="56" y1="375" x2="81" y2="375" style="stroke:black;stroke-width:2" />
<circle cx="56" cy = "375" r = "2" stroke = "black" stroke-width = "2" fill = "black" />
<path    d = "M56,375 C81,375 56,350 81,350" fill = "none" stroke-width = "2" stroke = "black" />    <line x1="44" y1="387" x2="53" y2="379" style="stroke:black;stroke-width:2" />
    <line x1="56" y1="387" x2="65" y2="379" style="stroke:black;stroke-width:2" />
    <line x1="69" y1="387" x2="78" y2="379" style="stroke:black;stroke-width:2" />
    <line x1="81" y1="387" x2="90" y2="379" style="stroke:black;stroke-width:2" />
	<path d = "M144 387 L144 337 L94 337 L94 387 L144 387 Z" stroke = "black" stroke-width = "2" fill = "none" /><path    d = "M106,375 C131,375 106,350 131,350" fill = "none" stroke-width = "2" stroke = "black" /><circle cx="131" cy = "350" r = "2" stroke = "black" stroke-width = "2" fill = "black" />
    <line x1="131" y1="350" x2="106" y2="350" style="stroke:black;stroke-width:2" />
    <line x1="94" y1="387" x2="103" y2="379" style="stroke:black;stroke-width:2" />
    <line x1="106" y1="387" x2="115" y2="379" style="stroke:black;stroke-width:2" />
    <line x1="119" y1="387" x2="128" y2="379" style="stroke:black;stroke-width:2" />
    <line x1="131" y1="387" x2="140" y2="379" style="stroke:black;stroke-width:2" />
	<path d = "M194 387 L194 337 L144 337 L144 387 L194 387 Z" stroke = "black" stroke-width = "2" fill = "none" /><circle cx="156" cy = "375" r = "2" stroke = "black" stroke-width = "2" fill = "black" />
    <line x1="156" y1="375" x2="156" y2="362" style="stroke:black;stroke-width:2" />
    <line x1="156" y1="362" x2="156" y2="350" style="stroke:black;stroke-width:2" />
    <line x1="156" y1="350" x2="169" y2="350" style="stroke:black;stroke-width:2" />
    <line x1="169" y1="350" x2="181" y2="350" style="stroke:black;stroke-width:2" />
    <line x1="181" y1="350" x2="172" y2="341" style="stroke:black;stroke-width:2" />
    <line x1="181" y1="350" x2="172" y2="359" style="stroke:black;stroke-width:2" />
	<path d = "M244 387 L244 337 L194 337 L194 387 L244 387 Z" stroke = "black" stroke-width = "2" fill = "none" />    <line x1="206" y1="350" x2="219" y2="350" style="stroke:black;stroke-width:2" />
    <line x1="219" y1="350" x2="231" y2="350" style="stroke:black;stroke-width:2" />
    <line x1="231" y1="350" x2="231" y2="362" style="stroke:black;stroke-width:2" />
    <line x1="231" y1="362" x2="231" y2="375" style="stroke:black;stroke-width:2" />
    <line x1="231" y1="375" x2="240" y2="366" style="stroke:black;stroke-width:2" />
    <line x1="231" y1="375" x2="222" y2="366" style="stroke:black;stroke-width:2" />
<circle cx="231" cy = "375" r = "2" stroke = "black" stroke-width = "2" fill = "black" />
    <line x1="194" y1="387" x2="203" y2="379" style="stroke:black;stroke-width:2" />
    <line x1="206" y1="387" x2="215" y2="379" style="stroke:black;stroke-width:2" />
    <line x1="219" y1="387" x2="228" y2="379" style="stroke:black;stroke-width:2" />
    <line x1="231" y1="387" x2="240" y2="379" style="stroke:black;stroke-width:2" />
	<path d = "M294 388 L294 338 L244 337 L244 387 L294 388 Z" stroke = "black" stroke-width = "2" fill = "none" />    <line x1="256" y1="350" x2="269" y2="350" style="stroke:black;stroke-width:2" />
    <line x1="269" y1="350" x2="281" y2="350" style="stroke:black;stroke-width:2" />
    <line x1="281" y1="350" x2="281" y2="362" style="stroke:black;stroke-width:2" />
    <line x1="281" y1="362" x2="281" y2="375" style="stroke:black;stroke-width:2" />
    <line x1="281" y1="375" x2="290" y2="366" style="stroke:black;stroke-width:2" />
    <line x1="281" y1="375" x2="272" y2="366" style="stroke:black;stroke-width:2" />
<circle cx="281" cy = "375" r = "2" stroke = "black" stroke-width = "2" fill = "black" />
	<path d = "M344 388 L344 338 L294 337 L294 387 L344 388 Z" stroke = "black" stroke-width = "2" fill = "none" />    <line x1="306" y1="375" x2="297" y2="352" style="stroke:black;stroke-width:2" />
    <line x1="306" y1="375" x2="316" y2="352" style="stroke:black;stroke-width:2" />
    <line x1="331" y1="375" x2="322" y2="352" style="stroke:black;stroke-width:2" />
    <line x1="331" y1="375" x2="341" y2="352" style="stroke:black;stroke-width:2" />
	<path d = "M394 388 L394 338 L344 338 L344 388 L394 388 Z" stroke = "black" stroke-width = "2" fill = "none" />    <line x1="356" y1="375" x2="381" y2="375" style="stroke:black;stroke-width:2" />
<circle cx="356" cy = "375" r = "2" stroke = "black" stroke-width = "2" fill = "black" />
<path    d = "M356,375 C381,375 356,350 381,350" fill = "none" stroke-width = "2" stroke = "black" />	<path d = "M444 388 L444 338 L394 338 L394 388 L444 388 Z" stroke = "black" stroke-width = "2" fill = "none" /><path    d = "M406,375 C431,375 406,350 431,350" fill = "none" stroke-width = "2" stroke = "black" /><circle cx="431" cy = "350" r = "2" stroke = "black" stroke-width = "2" fill = "black" />
    <line x1="431" y1="350" x2="406" y2="350" style="stroke:black;stroke-width:2" />
	<path d = "M444 438 L444 38 L44 37 L44 437 L444 438 Z" stroke = "black" stroke-width = "2" fill = "none" />    <text x="56" y = "25" fill = "black" font-size = "12.499999999999996px" font-family = "arial">03x0</text>
    <text x="106" y = "25" fill = "black" font-size = "12.499999999999996px" font-family = "arial">03x1</text>
    <text x="156" y = "25" fill = "black" font-size = "12.499999999999996px" font-family = "arial">03x2</text>
    <text x="206" y = "25" fill = "black" font-size = "12.499999999999996px" font-family = "arial">03x3</text>
    <text x="256" y = "25" fill = "black" font-size = "12.499999999999996px" font-family = "arial">03x4</text>
    <text x="306" y = "25" fill = "black" font-size = "12.499999999999996px" font-family = "arial">03x5</text>
    <text x="356" y = "25" fill = "black" font-size = "12.499999999999996px" font-family = "arial">03x6</text>
    <text x="406" y = "25" fill = "black" font-size = "12.499999999999996px" font-family = "arial">03x7</text>
    <text x="6" y = "69" fill = "black" font-size = "12.499999999999996px" font-family = "arial">030x</text>
    <text x="6" y = "119" fill = "black" font-size = "12.499999999999996px" font-family = "arial">031x</text>
    <text x="6" y = "169" fill = "black" font-size = "12.499999999999996px" font-family = "arial">032x</text>
    <text x="6" y = "219" fill = "black" font-size = "12.499999999999996px" font-family = "arial">033x</text>
    <text x="6" y = "269" fill = "black" font-size = "12.499999999999996px" font-family = "arial">034x</text>
    <text x="6" y = "319" fill = "black" font-size = "12.499999999999996px" font-family = "arial">035x</text>
    <text x="6" y = "369" fill = "black" font-size = "12.499999999999996px" font-family = "arial">036x</text>
    <text x="6" y = "419" fill = "black" font-size = "12.499999999999996px" font-family = "arial">037x</text>
</svg>