<svg width="400" height="200" viewbox = "0 0 400 200"  xmlns="http://www.w3.org/2000/svg">

<!--
<json>
{
    "imgurl": "",
    "imgw": 2.983971328437751,
    "imgleft": -1.4873205904167783,
    "imgtop": -1.0519856642188752,
    "imgangle": 0,
    "svgwidth": 400,
    "svgheight": 200,
    "unit": 100,
    "x0": 684,
    "y0": 399,
    "x0rel": 0,
    "y0rel": 0,
    "glyph": "0333,0333,0210,0336,0336,0336,0331,0331,0331,0331,0332,0332,0337,0337,0337,01101,01102,01103,01104,",
    "table": []
}
</json>
-->
	<path d = "M314 64 L314 70 L316 73 L317 76 L319 79 L321 81 L324 82 L327 84 L329 86 L332 88 L335 90 L337 92 L339 94 L342 95 L345 97 L347 99 L349 102 L351 104 L354 106 L356 108 L358 111 L360 113 L361 116 L361 119 L361 123 L359 125 L358 128 L357 131 L355 134 L353 137 L352 140 L353 137 L353 133 L352 130 L350 128 L348 125 L346 123 L344 121 L341 119 L339 116 L337 114 L334 112 L332 110 L329 108 L327 106 L324 104 L322 102 L320 100 L317 98 L315 96 L312 94 L311 91 L309 89 L308 86 L307 83 L307 79 L308 76 L309 73 L311 70 L312 68 L314 65 Z" stroke = "black" stroke-width = "6" fill = "black" />	<path d = "M345 97 L348 92 L352 86 L346 84 L341 80 L341 79 L343 73 L347 68 L348 65 L350 68 L352 70 L355 71 L358 72 L362 72 L363 72 L358 84 L355 89 L350 94 L345 97 Z" stroke = "black" stroke-width = "6" fill = "black" />	<path d = "M316 99 L315 103 L314 106 L315 109 L316 112 L317 115 L319 117 L322 119 L325 121 L324 122 L321 128 L318 134 L317 136 L314 137 L310 137 L307 138 L304 140 L302 141 L303 138 L305 135 L306 133 L308 130 L306 127 L305 124 L304 121 L304 118 L304 115 L305 111 L306 109 L308 106 L310 103 L312 101 L314 99 Z" stroke = "black" stroke-width = "6" fill = "black" />	<path d = "M236 54 L240 58 L244 61 L248 62 L253 63 L258 63 L263 63 L267 63 L272 64 L276 68 L277 73 L278 77 L278 82 L278 87 L278 92 L278 97 L278 102 L278 107 L278 111 L278 116 L281 120 L283 121 L284 121 L279 129 L273 138 L269 137 L264 136 L259 136 L254 136 L249 136 L244 136 L239 136 L235 136 L230 136 L225 137 L220 137 L215 138 L214 138 L219 130 L225 122 L225 121 L245 120 L264 119 L267 119 L268 119 L267 114 L267 109 L267 104 L267 99 L267 95 L266 90 L265 85 L261 82 L257 81 L252 80 L247 81 L242 80 L237 79 L233 77 L229 75 L225 72 L224 71 L227 67 L230 63 L232 59 L235 55 L235 54 Z" stroke = "black" stroke-width = "6" fill = "black" />	<path d = "M156 72 L160 66 L165 60 L167 57 L167 56 L168 60 L169 63 L172 66 L175 68 L176 68 L177 69 L177 84 L177 98 L178 113 L178 121 L178 123 L179 125 L172 138 L171 138 L171 139 L169 124 L169 123 L169 121 L162 123 L155 126 L148 129 L145 131 L142 133 L139 135 L137 138 L138 135 L139 131 L140 128 L142 125 L144 122 L146 118 L149 116 L153 115 L156 114 L160 112 L163 111 L167 110 L168 107 L169 103 L169 99 L169 95 L169 92 L169 88 L166 85 L163 84 L159 83 L157 79 L156 76 L156 72 Z" stroke = "black" stroke-width = "6" fill = "black" />	<path d = "M42 52 L44 54 L46 55 L48 56 L50 57 L52 58 L54 58 L56 59 L58 59 L60 60 L62 60 L64 60 L67 60 L69 60 L71 60 L73 60 L75 60 L77 60 L80 60 L82 60 L84 60 L86 60 L88 60 L90 61 L92 61 L94 62 L96 63 L98 65 L99 67 L98 69 L98 71 L97 73 L95 75 L94 76 L93 78 L91 80 L90 81 L88 83 L87 85 L87 87 L87 89 L87 91 L87 93 L87 95 L87 98 L87 100 L87 102 L87 104 L87 106 L87 108 L87 111 L88 113 L88 115 L88 117 L88 119 L87 121 L86 123 L85 125 L84 127 L82 128 L81 130 L80 132 L79 134 L77 135 L76 137 L75 139 L74 141 L73 139 L73 137 L72 128 L72 119 L72 110 L72 102 L72 93 L73 89 L73 84 L75 80 L76 79 L71 78 L67 78 L63 78 L58 78 L54 78 L50 77 L45 77 L41 76 L37 75 L33 73 L30 70 L32 67 L35 63 L37 60 L40 56 L42 53 Z" stroke = "black" stroke-width = "6" fill = "black" /></svg>