<svg width="400" height="200" viewbox = "0 0 400 200"  xmlns="http://www.w3.org/2000/svg">

<!--
<json>
{
    "imgurl": "",
    "imgw": 2.983971328437751,
    "imgleft": -1.4873205904167783,
    "imgtop": -1.0519856642188752,
    "imgangle": 0,
    "svgwidth": 400,
    "svgheight": 200,
    "unit": 100,
    "x0": 684,
    "y0": 399,
    "x0rel": 0,
    "y0rel": 0,
    "glyph": "0333,0333,0336,0331,0337,01112,01124,01110,01105,",
    "table": []
}
</json>
-->
	<path d = "M347 56 L347 63 L350 68 L355 72 L360 76 L364 80 L363 86 L362 92 L360 98 L357 104 L354 109 L351 115 L348 120 L350 114 L352 108 L352 102 L348 97 L343 94 L338 90 L335 85 L333 79 L333 72 L336 67 L339 62 L344 57 L346 55 Z" stroke = "black" stroke-width = "6" fill = "black" />	<path d = "M214 71 L219 74 L223 77 L228 79 L234 80 L239 80 L245 79 L250 79 L255 79 L261 80 L265 83 L267 88 L269 93 L269 99 L269 104 L269 110 L270 115 L270 121 L270 126 L270 131 L270 137 L270 142 L270 148 L273 143 L276 139 L279 134 L282 130 L283 127 L283 117 L283 106 L283 95 L283 84 L281 73 L280 68 L276 64 L271 62 L266 61 L260 61 L255 61 L249 61 L244 61 L238 61 L234 58 L230 54 L226 50 L223 54 L220 59 L217 63 L214 68 Z" stroke = "black" stroke-width = "6" fill = "black" />	<path d = "M149 57 L151 60 L154 62 L157 63 L161 64 L164 64 L166 65 L166 67 L166 68 L165 70 L165 72 L165 74 L165 75 L164 77 L164 79 L164 81 L164 88 L164 95 L164 102 L164 109 L164 116 L160 123 L157 129 L154 135 L150 142 L151 134 L150 127 L150 120 L150 113 L150 106 L151 99 L153 92 L154 89 L155 85 L154 82 L152 79 L149 79 L145 79 L142 77 L139 75 L138 73 L137 72 L143 67 L146 61 L148 58 Z" stroke = "black" stroke-width = "6" fill = "black" />	<path d = "M31 57 L34 60 L37 62 L41 63 L45 64 L49 64 L54 64 L58 65 L62 65 L66 65 L70 65 L74 65 L79 65 L83 66 L87 67 L88 71 L88 75 L87 79 L85 83 L84 87 L83 89 L82 91 L82 93 L82 95 L82 97 L82 99 L83 101 L83 103 L83 106 L83 108 L83 110 L84 112 L84 114 L84 116 L85 118 L84 120 L83 121 L81 123 L80 125 L79 127 L78 128 L77 130 L76 132 L75 134 L74 135 L72 137 L71 139 L71 135 L71 131 L71 126 L70 122 L70 118 L70 114 L69 110 L69 106 L68 101 L68 97 L69 93 L69 89 L70 85 L69 83 L67 82 L65 82 L62 82 L60 82 L58 82 L56 82 L54 82 L52 82 L50 82 L48 82 L46 82 L44 82 L42 82 L39 82 L37 82 L35 82 L33 81 L31 81 L29 81 L27 80 L25 80 L23 79 L22 77 L20 76 L19 74 L18 72 L23 66 L28 59 L30 58 L30 57 Z" stroke = "black" stroke-width = "6" fill = "black" />	<path d = "M31 125 L31 117 L31 113 L31 109 L32 104 L32 100 L33 96 L33 92 L34 88 L32 91 L29 95 L27 98 L24 102 L22 105 L21 106 L21 107 L21 108 L20 109 L20 110 L20 114 L20 118 L20 122 L20 126 L20 130 L20 135 L20 139 L20 141 L22 137 L25 134 L27 131 L30 128 L31 126 Z" stroke = "black" stroke-width = "6" fill = "black" /></svg>