<svg width="400" height="200" viewbox = "0 0 400 200"  xmlns="http://www.w3.org/2000/svg">

<!--
<json>
{
    "imgurl": "",
    "imgw": 2.983971328437751,
    "imgleft": -1.4873205904167783,
    "imgtop": -1.0519856642188752,
    "imgangle": 0,
    "svgwidth": 400,
    "svgheight": 200,
    "unit": 100,
    "x0": 684,
    "y0": 399,
    "x0rel": 0,
    "y0rel": 0,
    "glyph": "0333,0333,0336,0331,0337,01112,01105,01110,01105,",
    "table": []
}
</json>
-->
	<path d = "M347 56 L347 63 L350 68 L355 72 L360 76 L364 80 L363 86 L362 92 L360 98 L357 104 L354 109 L351 115 L348 120 L350 114 L352 108 L352 102 L348 97 L343 94 L338 90 L335 85 L333 79 L333 72 L336 67 L339 62 L344 57 L346 55 Z" stroke = "black" stroke-width = "6" fill = "black" />	<path d = "M231 57 L234 60 L237 63 L241 64 L245 64 L249 64 L254 65 L258 65 L262 66 L266 66 L270 66 L274 66 L279 66 L283 66 L287 68 L288 71 L288 76 L287 80 L285 84 L284 87 L283 89 L282 91 L282 93 L282 95 L282 98 L282 100 L283 102 L283 104 L283 106 L283 108 L283 110 L284 112 L284 114 L284 116 L285 118 L284 120 L283 122 L281 124 L280 125 L279 127 L278 129 L277 131 L276 132 L275 134 L274 136 L272 137 L271 139 L271 135 L271 131 L271 127 L270 123 L270 118 L270 114 L269 110 L269 106 L268 102 L268 98 L269 93 L269 89 L270 85 L269 83 L267 83 L265 83 L262 82 L260 82 L258 82 L256 82 L254 82 L252 82 L250 82 L248 82 L246 82 L244 82 L242 82 L239 82 L237 82 L235 82 L233 82 L231 81 L229 81 L227 80 L225 80 L223 79 L222 78 L220 76 L219 74 L218 73 L223 66 L228 60 L230 58 L230 57 Z" stroke = "black" stroke-width = "6" fill = "black" />	<path d = "M231 126 L231 117 L231 113 L231 109 L232 105 L232 101 L233 97 L233 92 L234 88 L232 92 L229 95 L227 98 L224 102 L222 105 L221 106 L221 107 L221 108 L220 109 L220 110 L220 114 L220 118 L220 122 L220 127 L220 131 L220 135 L220 139 L220 141 L222 138 L225 134 L227 131 L230 128 L231 126 Z" stroke = "black" stroke-width = "6" fill = "black" />	<path d = "M150 58 L152 60 L155 62 L159 64 L162 64 L166 65 L167 65 L167 67 L167 69 L167 71 L166 72 L166 74 L166 76 L166 78 L165 79 L165 81 L165 88 L165 95 L165 103 L165 110 L165 117 L162 123 L158 130 L155 136 L151 142 L152 135 L151 128 L151 121 L151 114 L151 107 L152 99 L154 93 L155 89 L156 86 L156 82 L153 79 L150 79 L146 79 L143 78 L140 75 L139 74 L139 72 L144 67 L148 61 L150 58 Z" stroke = "black" stroke-width = "6" fill = "black" />	<path d = "M32 58 L35 61 L38 63 L42 64 L46 64 L51 65 L55 65 L59 65 L63 66 L67 66 L71 66 L76 66 L80 66 L84 66 L88 68 L89 72 L89 76 L88 80 L86 84 L85 88 L84 90 L83 92 L83 94 L83 96 L83 98 L83 100 L84 102 L84 104 L84 106 L84 108 L85 110 L85 112 L85 114 L86 116 L86 118 L85 120 L84 122 L83 124 L82 126 L80 127 L79 129 L78 131 L77 133 L76 134 L75 136 L74 138 L72 139 L72 135 L72 131 L72 127 L72 123 L71 119 L71 115 L70 110 L70 106 L70 102 L70 98 L70 94 L70 90 L71 85 L70 84 L68 83 L66 83 L64 83 L62 83 L59 83 L57 83 L55 83 L53 83 L51 83 L49 83 L47 83 L45 83 L43 83 L41 83 L39 82 L36 82 L34 82 L32 82 L30 81 L28 81 L26 80 L24 79 L23 78 L21 76 L20 75 L19 73 L24 66 L30 60 L31 58 L32 58 Z" stroke = "black" stroke-width = "6" fill = "black" />	<path d = "M32 126 L32 118 L32 113 L32 109 L33 105 L33 101 L34 97 L34 93 L35 89 L33 92 L30 95 L28 99 L25 102 L23 105 L22 106 L22 107 L22 108 L22 109 L22 110 L21 114 L21 119 L21 123 L21 127 L21 131 L21 135 L21 139 L21 141 L24 138 L26 134 L29 131 L31 128 L32 126 Z" stroke = "black" stroke-width = "6" fill = "black" /></svg>