<svg width="400" height="400" viewbox = "0 0 400 400"  xmlns="http://www.w3.org/2000/svg">

<!--
<topfunctions>






function YofX(){
//foobar foobar
    X = plotparams.g*(x - plotparams.x0) - funcparams.X0;

    Y = BesselJ0(X);

    y = plotparams.y0 - plotparams.G*(Y - funcparams.Y0);
}

function YofX2(){
//foobar foobar
    X = plotparams.g*(x - plotparams.x0) - funcparams.X0;

    Y = BesselJ1(X);

    y = plotparams.y0 - plotparams.G*(Y - funcparams.Y0);
}

function YofX3(){
//foobar foobar
    X = plotparams.g*(x - plotparams.x0) - funcparams.X0;

    Y = BesselJ(2,X);

    y = plotparams.y0 - plotparams.G*(Y - funcparams.Y0);
}

function plotfunction(){
    
    /*plot one function:*/
    currentStroke = "red";
    currentLineWidth = 4;
    ctx.strokeStyle = currentStroke;
    ctx.lineWidth = currentLineWidth;
    ctx.beginPath();	
    x = 0;
    intx = x;
    YofX();
    currentSVG += "	<path d = \"M";
    currentSVG += Math.round(x).toString() + " ";
    currentSVG += Math.round(y).toString() + " ";
    for(x = 1;x < plotparams.plotwidth;x++){
        ctx.moveTo(x-1,y);
        YofX();
        ctx.lineTo(x,y);
        currentSVG += "L" + x + " " + y + " ";
    }
    ctx.stroke();
    currentSVG += "\""+ " stroke = \"" + currentStroke + "\" stroke-width = \"" + currentLineWidth.toString() + "\" fill = \"" + "none" + "\" "+"/>";
    /*finish plot one function*/
    
        /*plot one function:*/
    currentStroke = "green";
    currentLineWidth = 4;
    ctx.strokeStyle = currentStroke;
    ctx.lineWidth = currentLineWidth;
    ctx.beginPath();	
    x = 0;
    intx = x;
    YofX2();
    currentSVG += "	<path d = \"M";
    currentSVG += Math.round(x).toString() + " ";
    currentSVG += Math.round(y).toString() + " ";
    for(x = 1;x < plotparams.plotwidth;x++){
        ctx.moveTo(x-1,y);
        YofX2();
        ctx.lineTo(x,y);
        currentSVG += "L" + x + " " + y + " ";
    }
    ctx.stroke();
    currentSVG += "\""+ " stroke = \"" + currentStroke + "\" stroke-width = \"" + currentLineWidth.toString() + "\" fill = \"" + "none" + "\" "+"/>";
    /*finish plot one function*/
    
    /*plot one function:*/
    currentStroke = "blue";
    currentLineWidth = 4;
    ctx.strokeStyle = currentStroke;
    ctx.lineWidth = currentLineWidth;
    ctx.beginPath();	
    x = 0;
    intx = x;
    YofX3();
    currentSVG += "	<path d = \"M";
    currentSVG += Math.round(x).toString() + " ";
    currentSVG += Math.round(y).toString() + " ";
    for(x = 1;x < plotparams.plotwidth;x++){
        ctx.moveTo(x-1,y);
        YofX3();
        ctx.lineTo(x,y);
        currentSVG += "L" + x + " " + y + " ";
    }
    ctx.stroke();
    currentSVG += "\""+ " stroke = \"" + currentStroke + "\" stroke-width = \"" + currentLineWidth.toString() + "\" fill = \"" + "none" + "\" "+"/>";
    /*finish plot one function*/
    
}

// http://www.mhtl.uwaterloo.ca/old/courses/me3532/js/bessel.html


function BesselJ(n,x){
	if (n == null || n.length == 0) return "n not specified";
	if (Math.floor(n) != n) return "Error: n not integer";
	if (n < 2) return "Error: n < 2";
	var ACC = 40.0;		// Make larger to increase accuracy.
	var BIGNO = 1.0e10;
	var BIGNI = 1.0e-10;
	var j,jsum,m,ax,bj,bjm,bjp,sum,tox,ans;
	ax=Math.abs(x);
	if (ax == 0.0) return 0.0;
	else if (ax > n) {
		tox = 2.0/ax;
		bjm=BesselJ0(ax);
		bj=BesselJ1(ax);
		for (j=1;j<n;j++) {
			bjp=j*tox*bj-bjm;
			bjm=bj;
			bj=bjp;
		}
		ans=bj;
	} else {
		tox=2.0/ax;
		if (Math.sqrt(ACC*n) >= 0)
			m=2*((n + Math.floor(Math.sqrt(ACC*n))) / 2);
		else
			m=2*((n + Math.ceil(Math.sqrt(ACC*n))) / 2);
		jsum=0;
		bjp=ans=sum=0.0;
		bj=1.0;
		for (j=m;j>0;j--) {
			bjm=j*tox*bj-bjp;
			bjp=bj;
			bj=bjm;
			if (Math.abs(bj) > BIGNO) {
				bj *= BIGNI;
				bjp *= BIGNI;
				ans *= BIGNI;
				sum *= BIGNI;
			}
			if (jsum) sum += bj;
			jsum=!jsum;
			if (j == n) ans=bjp;
		}
		sum=2.0*sum-bj;
		ans /= sum;
	}
	return x < 0.0 && (n & 1) ? -ans : ans;
}


function BesselJ0(x) {
	var ax,z,xx,y,ans,ans1,ans2;
	ax = Math.abs(x)
	if (ax < 8.0) {
		y = x * x;
		ans1 = 57568490574.0 + y * (-13362590354.0 + y * (651619640.7 + y * (-11214424.18 + y * (77392.33017 + y * (-184.9052456)))));
		ans2 = 57568490411.0 + y * (1029532985.0 + y * (9494680.718 + y * (59272.64853 + y * (267.8532712 + y * 1.0))));
		ans = ans1 / ans2;
	} else {
		z = 8.0 / ax;
		y = z * z;
		xx = ax - 0.785398164;
		ans1 = 1.0 + y * (-0.1098628627e-2 + y * (0.2734510407e-4 + y * (-0.2073370639e-5 + y * 0.2093887211e-6)));
		ans2 = -0.1562499995e-1 + y * (0.1430488765e-3 + y * (-0.6911147651e-5 + y * (0.7621095161e-6 - y * 0.934935152e-7)));
		ans = Math.sqrt(0.636619772 / ax) * (Math.cos(xx) * ans1 - z * Math.sin(xx) * ans2);
	}
	return ans;
}

function BesselJ1(x) {
	var ax,z,xx,y,ans,ans1,ans2;
	ax = Math.abs(x);
	if (ax < 8.0) {
		y=x*x;
		ans1 = x*(72362614232.0+y*(-7895059235.0+y*(242396853.1+y*(-2972611.439+y*(15704.48260+y*(-30.16036606))))));
		ans2 = 144725228442.0+y*(2300535178.0+y*(18583304.74+y*(99447.43394+y*(376.9991397+y*1.0))));
		ans = ans1/ans2;
	} else {
		z=8.0/ax;
		y=z*z;
		xx=ax-2.356194491;
		ans1=1.0+y*(0.183105e-2+y*(-0.3516396496e-4+y*(0.2457520174e-5+y*(-0.240337019e-6))));
		ans2=0.04687499995+y*(-0.2002690873e-3+y*(0.8449199096e-5+y*(-0.88228987e-6+y*0.105787412e-6)));
		ans=Math.sqrt(0.636619772/ax)*(Math.cos(xx)*ans1-z*Math.sin(xx)*ans2);
		if (x < 0.0) ans = -ans;
	}
	return ans;	
}
























</topfunctions>
-->

<!--
<imgurl>

</imgurl>
-->

<!--
<currentjson>
{
    "constants": {},
    "imgurl": "",
    "plotparams": {
        "G": 145.50684646671886,
        "g": 0.05147442263685142,
        "duration": 450.78888054094654,
        "plotwidth": 400,
        "plotheight": 400,
        "x0": 0,
        "y0": 200.00000000000003
    },
    "funcparams": {
        "phi": 0.2688139066614501,
        "T": 1.4465183912692552,
        "X0": 0,
        "Y0": 0
    }
}
</currentjson>
-->

<!--
<equation>
<p>
    <a style="color:blue;" href="http://www.mhtl.uwaterloo.ca/old/courses/me3532/js/bessel.html">http://www.mhtl.uwaterloo.ca/old/courses/me3532/js/bessel.html</a>
</p>
<h2>Bessel Function</h2>
<p style="color:blue">

</p><p class="bigeq">
$$
Y = J_n(X)
$$
</p>


$$
X = g(x - x_0) - X_0
$$
$$
Y = f(X)
$$
    
$$
y = y_0 - G(Y - Y_0)
$$


<p>
    X and Y, and $X_0$ and $Y_0$ in physical units of the System. x and y and x0 and y0 in pixels.  G is in pixels per Y unit and g is in X units per pixel. 
</p>






</equation>
-->
	<path d = "M0 54 L1 54.589521489950755 L2 54.878435130185096 L3 55.359320067437324 L4 56.03122108537232 L5 56.892803834340555 L6 57.94235777638184 L7 59.1777999599432 L8 60.59667961556315 L9 62.19618356187277 L10 63.97314240938849 L11 65.92403754772437 L12 68.04500890004113 L13 70.33186342677459 L14 72.78008435895688 L15 75.38484113975888 L16 78.1410000512511 L17 81.04313550180098 L18 84.0855419480066 L19 87.26224642360832 L20 90.56702164642923 L21 93.99339967307216 L22 97.53468606985012 L23 101.1839745672522 L24 104.93416216414742 L25 108.77796464691289 L26 112.70793248773656 L27 116.7164670854955 L28 120.79583731184593 L29 124.93819632448914 L30 129.13559860898965 L31 133.3800172100323 L32 137.66336111260154 L33 141.9774927332625 L34 146.3142454815077 L35 150.66544135101756 L36 155.02290850065907 L37 159.37849878511756 L38 163.72410519522487 L39 168.0516791683056 L40 172.35324772921788 L41 176.6209304232114 L42 180.84695600226226 L43 185.02367882717317 L44 189.14359494844163 L45 193.19935782970305 L46 197.1837936784418 L47 201.08991634963283 L48 204.9109417890276 L49 208.64030198392194 L50 212.27165839044855 L51 215.79891480770772 L52 219.21622967039315 L53 222.51802773297533 L54 225.69901111997626 L55 228.7541697183943 L56 231.6787908899205 L57 234.46846848222077 L58 237.11911112023702 L59 239.62694976018065 L60 241.98854449065522 L61 244.20079056713584 L62 246.26092366785957 L63 248.16652436102908 L64 249.9155217751036 L65 251.50619646583647 L66 252.93718247561867 L67 254.20746858259324 L68 255.3163987389136 L69 256.2636716994263 L70 257.04933984395865 L71 257.67380719828043 L72 258.1378266606833 L73 258.4424964429744 L74 258.58925573651 L75 258.579879615695 L76 258.41647319314126 L77 258.1014650424077 L78 257.63759990593235 L79 257.0279307074113 L80 256.27580988947034 L81 255.38488009901795 L82 254.35906424415086 L83 253.20255494790678 L84 251.9198034255198 L85 250.51550781312687 L86 248.9946009770976 L87 247.36223783431157 L88 245.62378221478224 L89 243.78479329902808 L90 241.85101166350623 L91 239.8283449682652 L92 237.7228533217251 L93 235.54073435815883 L94 233.28830806403536 L95 230.9720013898723 L96 228.59833268465286 L97 226.17389599017807 L98 223.70534523294248 L99 221.1993783512628 L100 218.66272139542284 L101 216.1021126385571 L102 213.52428673584794 L103 210.93595896938916 L104 208.34380961574453 L105 205.75446847282618 L106 203.17449958222124 L107 200.61038618251652 L108 198.06851592850575 L109 195.55516641041757 L110 193.07649100647367 L111 190.63850510118326 L112 188.2470727007976 L113 185.90789347628973 L114 183.6264902631047 L115 181.40819704572777 L116 179.25814745385858 L117 177.181263795666 L118 175.18224665220873 L119 173.2655650556851 L120 171.43544727268335 L121 169.6958722120751 L122 168.05056147561967 L123 166.50297206772967 L124 165.0562897791997 L125 163.71342325802135 L126 162.47699877868894 L127 161.34935571968245 L128 160.33254275705153 L129 159.42831478026883 L130 158.63813053474345 L131 157.96315099360706 L132 157.40423845960527 L133 156.9619563961564 L134 156.63656998486434 L135 156.428047405026 L136 156.33606182893533 L137 156.35999412506658 L138 156.49893625954223 L139 156.75169538461842 L140 157.11679860131247 L141 157.59249838170297 L142 158.17677863489732 L143 158.867361399166 L144 159.6617141413009 L145 160.55705764286475 L146 161.5503744516741 L147 162.63841787557925 L148 163.8177214944168 L149 165.0846091648553 L150 166.43520549180766 L151 167.86544673908082 L152 169.37109215102348 L153 170.9477356560906 L154 172.59081792249376 L155 174.29563873542284 L156 176.05736878482708 L157 177.87106380370443 L158 179.7316775632914 L159 181.634074578794 L160 183.57304381609302 L161 185.54331226694174 L162 187.5395586094408 L163 189.5564269196172 L164 191.58854039993352 L165 193.63051509064107 L166 195.67697353005477 L167 197.72255833008495 L168 199.76194563369123 L169 201.78985842134196 L170 203.80107963405987 L171 205.7904650812063 L172 207.75295610181297 L173 209.6835919489933 L174 211.57752186777003 L175 213.43001683752448 L176 215.2364809512148 L177 216.99246240451834 L178 218.69366406912025 L179 220.33595362550523 L180 221.9153732317941 L181 223.42814870641308 L182 224.87069820367583 L183 226.23964036270098 L184 227.53180191147646 L185 228.74422470930574 L186 229.87417221234023 L187 230.9191353483964 L188 231.876837788787 L189 232.74524060644654 L190 233.52254631120923 L191 234.2072022546873 L192 234.79790339880745 L193 235.29359444367742 L194 235.69347131207698 L195 235.99698198949181 L196 236.20382672022856 L197 236.31395756176477 L198 236.32757730108972 L199 236.24513773838282 L200 236.06733734494492 L201 235.79511830384814 L202 235.4296629432891 L203 234.97238957412475 L204 234.4249477445265 L205 233.78921292611022 L206 233.06728064727957 L207 232.26146009085664 L208 231.3742671743634 L209 230.40841713255492 L210 229.36681662299253 L211 228.2525553765727 L212 227.06889741599906 L213 225.81927186619382 L214 224.50726338158927 L215 223.13660221612184 L216 221.71115396255985 L217 220.23490898854095 L218 218.71197159736263 L219 217.14654894216963 L220 215.5429397227023 L221 213.9055226942205 L222 212.23874501858796 L223 210.54711048779595 L224 208.83516765042467 L225 207.10749787167745 L226 205.3687033576869 L227 203.62339517477278 L228 201.87618129424067 L229 200.13165469313685 L230 198.39438154112727 L231 196.66888950334774 L232 194.95965618867018 L233 193.27109777236322 L234 191.60755782157807 L235 189.97329635147935 L236 188.37247913915766 L237 186.80916732170996 L238 185.28730730406338 L239 183.81072100123743 L240 182.38309643880837 L241 181.00797873434115 L242 179.68876148150954 L243 178.42867855752266 L244 177.23079637332722 L245 176.09800658486 L246 175.03301928238574 L247 174.03835667367952 L248 173.11634727549688 L249 172.26912062643046 L250 171.49860253287386 L251 170.80651085841404 L252 170.1943518655487 L253 169.66341711718337 L254 169.21478094390744 L255 168.84929848157964 L256 168.5676042822806 L257 168.37011150021107 L258 168.25701165263786 L259 168.22827495451634 L260 168.28365122395306 L261 168.42267135421875 L262 168.64464934658358 L263 168.94868489682767 L264 169.33366652688323 L265 169.7982752516931 L266 170.34098877003092 L267 170.96008616671838 L268 171.6536531124027 L269 172.41958754582515 L270 173.25560582231952 L271 174.1592493111341 L272 175.1278914230722 L273 176.15874504890024 L274 177.2488703879764 L275 178.3951831456159 L276 179.5944630768278 L277 180.843362853236 L278 182.13841722924082 L279 183.47605248277858 L280 184.85259610540965 L281 186.26428671589963 L282 187.70728417096322 L283 189.1776798464149 L284 190.67150706161073 L285 192.1847516197837 L286 193.7133624366551 L287 195.25326222956593 L288 196.80035823929614 L289 198.35055295674243 L290 199.89975482669615 L291 201.44388890110326 L292 202.9789074144057 L293 204.5008002538412 L294 206.00560529793577 L295 207.48941859683868 L296 208.94840436863797 L297 210.37880478634673 L298 211.77694953086308 L299 213.1392650858866 L300 214.4622837515077 L301 215.74265235398462 L302 216.97714063006924 L303 218.1626492651507 L304 219.2962175654365 L305 220.37503074539734 L306 221.39642681274765 L307 222.35790303432682 L308 223.25712196737695 L309 224.09191704188027 L310 224.8602976808228 L311 225.56045394648152 L312 226.1907607020932 L313 226.74978127954645 L314 227.23627064504348 L315 227.64917805599825 L316 227.98764920377556 L317 228.2510278382189 L318 228.43885687126968 L319 228.5508789583349 L320 228.58703655741698 L321 228.54747146737125 L322 228.4325238480017 L323 228.24273072604 L324 227.97882399237355 L325 227.64172789719015 L326 227.23255605099166 L327 226.7526079406845 L328 226.20336497118825 L329 225.5864860442046 L330 224.90380268695506 L331 224.15731374483 L332 223.34917965298143 L333 222.48171630294596 L334 221.55738852138757 L335 220.57880317901282 L336 219.5487019486194 L337 218.46995373209822 L338 217.34554677701678 L339 216.17858050415936 L340 214.97225706809337 L341 213.7298726734661 L342 212.45480867030736 L343 211.15052245212811 L344 209.820538181052 L345 208.46843736460255 L346 207.09784930908825 L347 205.7124414747842 L348 204.31590975829602 L349 202.9119687276146 L350 201.50434183542848 L351 200.09675163624607 L352 198.6929100328092 L353 197.29650857713182 L354 195.91120885129376 L355 194.54063295284428 L356 193.18835410933704 L357 191.85788744611656 L358 190.55268093101736 L359 189.27610651911627 L360 188.0314515200972 L361 186.82191021015433 L362 185.65057570966476 L363 184.52043214711787 L364 183.43434712899202 L365 182.39506453442226 L366 181.40519765261251 L367 180.46722268000522 L368 179.58347259324574 L369 178.75613141295784 L370 177.9872288722938 L371 177.27863550313296 L372 176.6320581516835 L373 176.04903593409523 L374 175.5309366415184 L375 175.0789536028514 L376 174.69410301220614 L377 174.37722172689288 L378 174.12896554048743 L379 173.949807934293 L380 173.84003930925653 L381 173.79976669914078 L382 173.82891396449924 L383 173.92722246574743 L384 174.09425221238132 L385 174.32938348415874 L386 174.63181891884025 L387 175.00058605988204 L388 175.4345403562914 L389 175.93236860569425 L390 176.49259283053036 L391 177.1135745761865 L392 177.79351961880522 L393 178.5304830694655 L394 179.3223748604317 L395 180.16696559820323 L396 181.0618927671768 L397 182.0046672668573 L398 182.99268026472257 L399 184.02321034606612 " stroke = "red" stroke-width = "4" fill = "none" />	<path d = "M0 200 L1 196.25629973857536 L2 192.52003736127156 L3 188.7986343328856 L4 185.09947931762485 L5 181.42991187386792 L6 177.7972062627376 L7 174.20855540800187 L8 170.6710550444567 L9 167.19168809149613 L10 163.77730928803763 L11 160.43463012434847 L12 157.17020410561085 L13 153.9904123812731 L14 150.90144977336354 L15 147.90931123599196 L16 145.01977877723812 L17 142.23840887352463 L18 139.5705204054003 L19 137.02118314241727 L20 134.59520680348123 L21 132.2971307176824 L22 130.1312141091893 L23 128.10142702830197 L24 126.21144194922691 L25 124.46462605355104 L26 122.8640342167649 L27 121.4124027135148 L28 120.11214365555979 L29 118.9653401746705 L30 117.97374236094171 L31 117.13876396520044 L32 116.4614798723818 L33 115.94262435092155 L34 115.58259008137698 L35 115.3814279656487 L36 115.33884771633 L37 115.45421922387143 L38 115.72657469741318 L39 116.15461157331563 L40 116.73669618361168 L41 117.47086817481832 L42 118.35484566578158 L43 119.38603113149692 L44 120.5615179981451 L45 121.87809793292111 L46 123.33226881060959 L47 124.92024333728297 L48 126.63795830996887 L49 128.4810844896552 L50 130.445037063581 L51 132.52498667139747 L52 134.715870968484 L53 137.0124066984689 L54 139.40910224583826 L55 141.9002706384217 L56 144.48004296852037 L57 147.14238220049896 L58 149.88109733179476 L59 152.68985787351048 L60 155.56220861605226 L61 158.49158464465341 L62 161.47132656908792 L63 164.49469593142868 L64 167.55489075534214 L65 170.64506120013775 L66 173.7583252826036 L67 176.88778462956506 L68 180.02654022409297 L69 183.16770810837244 L70 186.30443500641087 L71 189.4299138300246 L72 192.53739903188745 L73 195.62022176985866 L74 198.67180484732458 L75 201.68567739488992 L76 204.65548925943997 L77 207.57502506735878 L78 210.43821792953142 L79 213.23916275668128 L80 215.97212915458354 L81 218.631573869765 L82 221.21215275743376 L83 223.7087322445842 L84 226.1164002624853 L85 228.43047662408594 L86 230.64652282325088 L87 232.76035123417336 L88 234.76803369079755 L89 236.66590942760834 L90 238.45059236472207 L91 240.11897772181896 L92 241.6682479471025 L93 243.09587794914626 L94 244.39963962118742 L95 245.5776056491509 L96 246.6281525964252 L97 247.54996326016732 L98 248.3420282956743 L99 249.0036471071288 L100 249.53442800479138 L101 249.93428763047908 L102 250.20344965492376 L103 250.34244275234911 L104 250.35209785933017 L105 250.2335447267086 L106 249.98820777501652 L107 249.61780126551304 L108 249.12432380056165 L109 248.51005216865147 L110 247.77753455091937 L111 246.92958310751328 L112 245.96926596360063 L113 244.89989861621214 L114 243.72503478446652 L115 242.4484567269965 L116 241.07416505162925 L117 239.60636804353396 L118 238.04947053913708 L119 236.408062374145 L120 234.6869064349518 L121 232.89092634360122 L122 231.02519380727492 L123 229.09491566399947 L124 227.10542065692277 L125 225.06214597006652 L126 222.97062355896082 L127 220.83646630995395 L128 218.66535406232308 L129 216.4630195275396 L130 214.235234140194 L131 211.9877938751556 L132 209.72650506551383 L133 207.45717025575738 L134 205.18557412444758 L135 202.91746951038294 L136 200.6585635758896 L137 198.41450414044408 L138 196.1908662173204 L139 193.99313878535955 L140 191.8267118272895 L141 189.69686366528563 L142 187.60874862363607 L143 185.56738504750143 L144 183.5776437057918 L145 181.64423660517483 L146 179.77170624114024 L147 177.96441531090562 L148 176.22653691175543 L149 174.56204524714684 L150 172.97470686162208 L151 171.46807242422088 L152 170.04546907868865 L153 168.7099933773659 L154 167.46450481416102 L155 166.31161997053755 L156 165.25370641401423 L157 164.2928810774054 L158 163.4310022276596 L159 162.66966871638567 L160 162.01021671744095 L161 161.45371773871813 L162 161.00097729726787 L163 160.652534258577 L164 160.40866083917837 L165 160.2693632701295 L166 160.23438311727145 L167 160.30319925256632 L168 160.47503046921776 L169 160.7488387317082 L170 161.12333305034096 L171 161.59697396836063 L172 162.16797864824488 L173 162.83432654231572 L174 163.59376563141723 L175 164.44381921404735 L176 165.38179322702064 L177 166.40478407747963 L178 167.5096869648649 L179 168.6932046703055 L180 169.9518567897997 L181 171.28198938652952 L182 172.67978503668576 L183 174.1412732422852 L184 175.6623411836313 L185 177.23874478331146 L186 178.86612005293867 L187 180.53999469323125 L188 182.25579991748987 L189 184.0088824680668 L190 185.7945167950422 L191 187.60791736601317 L192 189.4442510756766 L193 191.2986497237384 L194 193.16622252961082 L195 195.04206865237228 L196 196.92128968455066 L197 198.79900208846058 L198 200.67034954406802 L199 202.53051517767952 L200 204.37473364115158 L201 206.19830301178666 L202 207.99659648363195 L203 209.7650738215119 L204 211.49929254981734 L205 213.19491884882768 L206 214.84773813216765 L207 216.45366527988674 L208 218.0087545025954 L209 219.50920881310384 L210 220.95138908306777 L211 222.33182266326713 L212 223.64721154730853 L213 224.8944400597581 L214 226.0705820509727 L215 227.1729075821941 L216 228.19888908581382 L217 229.14620698708327 L218 230.01275477495233 L219 230.79664351114417 L220 231.49620576803224 L221 232.10999898735406 L222 232.63680825328862 L223 233.07564847492313 L224 233.4257659746445 L225 233.68663948050477 L226 233.8579805221234 L227 233.9397332312003 L228 233.93207354921813 L229 233.83540784640354 L230 233.65037095749835 L231 233.3778236413487 L232 233.0188494727613 L233 232.57475117648684 L234 232.04704641457545 L235 231.43746303970028 L236 230.74793382836086 L237 229.98059070915454 L238 229.13775850253953 L239 228.221948189701 L240 227.2358497292757 L241 226.1823244417778 L242 225.0643969826092 L243 223.88524692551655 L244 222.64819997928112 L245 221.35671886129037 L246 220.01439385243967 L247 218.62493305854898 L248 217.19215240414815 L249 215.71996538508807 L250 214.21237260696577 L251 212.6734511368174 L252 211.10734369592313 L253 209.51824772188792 L254 207.91040432841172 L255 206.28808719133403 L256 204.6555913896425 L257 203.01722223015963 L258 201.37728408457988 L259 199.74006926740896 L260 198.10984698316648 L261 196.49085237095372 L262 194.88727567415066 L263 193.3032515626079 L264 191.74284863422358 L265 190.21005912225937 L266 188.70878883414343 L267 187.24284734683917 L268 185.8159384831293 L269 184.43165109237214 L270 183.09345015843923 L271 181.80466825663729 L272 180.5684973804621 L273 179.38798115802007 L274 178.26600747690017 L275 177.20530153517504 L276 176.20841933506705 L277 175.2777416346331 L278 174.41546837160084 L279 173.6236135722402 L280 172.9040007568694 L281 172.25825885229014 L282 171.68781862011403 L283 171.19390960859374 L284 170.77755763420654 L285 170.4395827978599 L286 170.18059803920175 L287 170.0010082311272 L288 169.90100981517878 L289 169.8805909771464 L290 169.93953236078698 L291 170.07740831620663 L292 170.29358867808372 L293 170.5872410675627 L294 170.95733371031938 L295 171.40263876199202 L296 171.9217361308922 L297 172.51301778665888 L298 173.17469254229903 L299 173.90479129587757 L300 174.70117271697123 L301 175.56152936190063 L302 176.48339420069263 L303 177.4641475377139 L304 178.5010243069512 L305 179.59112172200224 L306 180.73140725998184 L307 181.91872695774384 L308 183.14981399807584 L309 184.42129756283418 L310 185.72971192936527 L311 187.07150578599303 L312 188.44305174185556 L313 189.8406560059385 L314 191.26056820978636 L315 192.6989913480678 L316 194.1520918109411 L317 195.6160094819946 L318 197.08686787544283 L319 198.56078428622388 L320 200.03387992668414 L321 201.50229002364003 L322 202.96217384977837 L323 204.40972466359742 L324 205.84117953239328 L325 207.2528290131677 L326 208.64102666676683 L327 210.00219838105522 L328 211.33285147948942 L329 212.62958359206885 L330 213.88909126632 L331 215.10817829669733 L332 216.2837637515729 L333 217.41288967781873 L334 218.49272846387538 L335 219.52058984313257 L336 220.49392752042354 L337 221.41034540545837 L338 222.26760343807624 L339 223.06362299129538 L340 223.79649183926725 L341 224.46446867840012 L342 225.06598719110696 L343 225.5996596428401 L344 226.0642800043119 L345 226.45882659204761 L346 226.78246422168414 L347 227.03454586970406 L348 227.21461384057903 L349 227.32240043758603 L350 227.35782813685097 L351 227.32100926546275 L352 227.21224518578416 L353 227.03202498936145 L354 226.78102370509765 L355 226.46010002760144 L356 226.07029357285504 L357 225.61282166955144 L358 225.0890756956357 L359 224.5006169707415 L360 223.84917221633958 L361 223.1366285965081 L362 222.36502835329088 L363 221.5365630516281 L364 220.65356744982054 L365 219.7185130124211 L366 218.734001083336 L367 217.7027557377553 L368 216.62761633232302 L369 215.51152977369154 L370 214.35754252629084 L371 213.16879238076723 L372 211.94850000511826 L373 210.6999603010621 L374 209.4265335886297 L375 208.13163664236322 L376 206.81873360282987 L377 205.4913267874316 L378 204.15294742469214 L379 202.80714633634872 L380 201.45748459164992 L381 200.10752415827832 L382 198.7608185742672 L383 197.42090366516715 L384 196.0912883305469 L385 194.77544542367292 L386 193.47680274791574 L387 192.1987341930725 L388 190.94455103437582 L389 189.717493416485 L390 188.52072204422092 L391 187.35731010121813 L392 186.23023541702548 L393 185.14237290249338 L394 184.09648727254068 L395 183.09522607460312 L396 182.1411130402278 L397 181.23654177639517 L398 180.38376981223036 L399 179.58491301580227 " stroke = "green" stroke-width = "4" fill = "none" />	<path d = "M0 200 L1 199.95181847807055 L2 199.8074015501599 L3 199.56713181291192 L4 199.23164587155114 L5 198.80183275885113 L6 198.2788317271657 L7 197.66402941898139 L8 196.95905642298735 L9 196.1657832241765 L10 195.28631555799026 L11 194.32298917999248 L12 193.27836406400127 L13 192.15521804302094 L14 190.956539908691 L15 189.68552198630786 L16 188.3455522037669 L17 186.94020567402413 L18 185.47323581187243 L19 183.94856500697801 L20 182.37027487621273 L21 180.74259611935372 L22 179.06989800319548 L23 177.35667750003162 L24 175.60754810730995 L25 173.82722837604334 L26 172.0205301762713 L27 170.19234672850519 L28 168.34764043065962 L29 166.49143051046724 L30 164.62878053379336 L31 162.76478579961463 L32 160.9045606526937 L33 159.05322574517726 L34 157.21589527846103 L35 155.39766425670885 L36 153.60359578337687 L37 151.83870843198642 L38 150.10796372220395 L39 148.416281251663 L40 146.7684251802528 L41 145.16913341203988 L42 143.62301776443232 L43 142.13457313480032 L44 140.70816625599895 L45 139.3480247643682 L46 138.05822660711277 L47 136.84268981512278 L48 135.70516266638697 L49 134.6492142641799 L50 133.67822555317562 L51 132.79538079555238 L52 132.0036595280129 L53 131.30582901945252 L54 130.70443724776482 L55 130.20180641299044 L56 129.8000270026853 L57 129.5009524240166 L58 129.3061942156934 L59 129.21711785140474 L60 129.23483914497206 L61 129.36022126594 L62 129.59387237281635 L63 129.9361438696501 L64 130.38712929009398 L65 130.9466638115517 L66 131.61432440045405 L67 132.3894305881519 L68 133.2710458753595 L69 134.25797976153427 L70 135.34879039403748 L71 136.54178783039842 L72 137.83503790549344 L73 139.22636669396633 L74 140.713365556753 L75 142.29339675914062 L76 143.96359964638808 L77 145.7208973615684 L78 147.5620040889674 L79 149.48343280508362 L80 151.4815035180378 L81 153.55235197500446 L82 155.6919388161382 L83 157.89605915238133 L84 160.16035254350567 L85 162.48031335177245 L86 164.8513014456839 L87 167.26855322745183 L88 169.72719295703175 L89 172.22224434485318 L90 174.74864238473978 L91 177.3012453979347 L92 179.8748472586487 L93 182.46418977112484 L94 185.06397516785492 L95 187.66887869831316 L96 190.27356127736712 L97 192.87268216240147 L98 195.46091162814696 L99 198.03294360822915 L100 200.58350827256336 L101 203.10738450989808 L102 205.5994122850729 L103 208.0545048408832 L104 210.46766071485536 L105 212.83397554171378 L106 215.14865361287363 L107 217.40701916491474 L108 219.6045273696842 L109 221.73677499943125 L110 223.79951074120692 L111 225.78864513563914 L112 227.7002601161485 L113 229.53061812567378 L114 231.27617078903717 L115 232.9335671201943 L116 234.49966124478345 L117 235.9715196195948 L118 237.34642773184663 L119 238.6218962624484 L120 239.79566669876928 L121 240.86571638380437 L122 241.83026299003194 L123 242.68776840768732 L124 243.43694203863387 L125 244.07674348848215 L126 244.6063846511123 L127 245.0253311812425 L128 245.33330335221606 L129 245.53027629768803 L130 245.616479637417 L131 245.59239648888467 L132 245.45876186797722 L133 245.21656048345864 L134 244.86702393146047 L135 244.41162729767285 L136 243.85208517637045 L137 243.19034711682923 L138 242.42859250907355 L139 241.5692249222617 L140 240.61486591032488 L141 239.5683483007669 L142 238.43270898375965 L143 237.21118121986504 L144 235.90718648584848 L145 234.52432587914024 L146 233.06637110252382 L147 231.53725505161208 L148 229.94106202856716 L149 228.28201760638262 L150 226.56447816880976 L151 224.79292015173195 L152 222.97192901242474 L153 221.10618795371613 L154 219.20046643054562 L155 217.25960846685456 L156 215.28852147358032 L157 213.29216380188163 L158 211.27553179882793 L159 209.24364893002704 L160 207.2015532224755 L161 205.15428510357904 L162 203.1068752616131 L163 201.0643325574077 L164 199.03163201686885 L165 197.01370293369465 L166 195.01541711132762 L167 193.0415772727871 L168 191.09690566656474 L169 189.18603289623084 L170 187.31348700079758 L171 185.48368281221954 L172 183.70091161567615 L173 181.96933113748898 L174 180.2929558846679 L175 178.67564785916824 L176 177.12110766896964 L177 175.63286605706344 L178 174.21427586836174 L179 172.8685044734171 L180 171.5985266666753 L181 170.40711805577175 L182 169.2968489571336 L183 168.2700788118641 L184 167.3289511345665 L185 166.4753890064189 L186 165.71109112243585 L187 165.0375284014585 L188 164.45594116599813 L189 163.96733689762937 L190 163.57248857218553 L191 163.27193357755974 L192 163.06597321545922 L193 162.95467278700596 L194 162.9378622606228 L195 163.01513751919833 L196 163.18586218208767 L197 163.44916999608301 L198 163.80396778808225 L199 164.24893897080028 L200 164.78254759150502 L201 165.40304291242836 L202 166.10846451019958 L203 166.89664788037962 L204 167.76523053194438 L205 168.7116585553731 L206 169.73319364685048 L207 170.82692056998954 L208 171.9897550354268 L209 173.2184519776423 L210 174.5096142074042 L211 175.85970141734896 L212 177.26503951737013 L213 178.72183027571546 L214 180.22616124097988 L215 181.77401591953017 L216 183.36128418231647 L217 184.98377287450415 L218 186.63721660091372 L219 188.31728865987031 L220 190.0196120977578 L221 191.73977085632563 L222 193.47332098462897 L223 195.21580188738187 L224 196.9627475814728 L225 198.70969793243623 L226 200.45220984278433 L227 202.1858683642888 L228 203.90629770655354 L229 205.60917211454225 L230 207.29022658811607 L231 208.94526741709134 L232 210.5701825058536 L233 212.16095146214835 L234 213.71365542532223 L235 215.2244866099963 L236 216.6897575419254 L237 218.10590996362458 L238 219.4695233882235 L239 220.77732328094703 L240 222.0261888486024 L241 223.21316041848712 L242 224.33544638920648 L243 225.39042973701038 L244 226.37567406241556 L245 227.28892916307342 L246 228.1281361200711 L247 228.89143188610873 L248 229.5771533652811 L249 230.18384097549628 L250 230.71024168589219 L251 231.15531152295364 L252 231.51821754038977 L253 231.79833924919686 L254 231.99526950570404 L255 232.10881485677413 L256 232.13899534270567 L257 232.0860437597523 L258 231.9504043855375 L259 231.73273117199406 L260 231.4338854117932 L261 231.054932885548 L262 230.59714049837194 L263 230.061972415647 L264 229.45108570910065 L265 228.76632552550535 L266 228.0097197914959 L267 227.18347346914217 L268 226.28996237802153 L269 225.33172660059523 L270 224.31146348871303 L271 223.23202029003693 L272 222.0963864140996 L273 220.90768535857677 L274 219.66916631717098 L275 218.38419549125996 L276 217.0562471281641 L277 215.68889430952882 L278 214.28579951389557 L279 212.85070497805586 L280 211.3874228822325 L281 209.8998253845252 L282 208.39183453037896 L283 206.8674120630915 L284 205.33054916156874 L285 203.78525613165766 L286 202.23555207744653 L287 200.68545457890733 L288 199.13896940218137 L289 197.6000802686621 L290 196.07273870881784 L291 194.5608540264234 L292 193.0682833985246 L293 191.59882213605795 L294 190.15619412957727 L295 188.74404250401238 L296 187.36592050579458 L297 186.02528264503624 L298 184.72547611475088 L299 183.46973250833784 L300 182.26115985574947 L301 181.10273499789363 L302 179.9972963179191 L303 178.9475368470733 L304 177.95599776182644 L305 177.02506228791734 L306 176.15695002589848 L307 175.35371171164985 L308 174.61722442418508 L309 173.94918725190382 L310 173.35111742724405 L311 172.82434693846915 L312 172.3700196260822 L313 171.98908877010393 L314 171.682315173179 L315 171.4502657431971 L316 171.29331257782502 L317 171.21163255205857 L318 171.2052074086098 L319 171.2738243496596 L320 171.41707712722348 L321 171.63436762810773 L322 171.92490794817485 L323 172.2877229493952 L324 172.72165329193882 L325 173.22535893236147 L326 173.79732307776413 L327 174.4358565846582 L328 175.13910279015477 L329 175.9050427620137 L330 176.73150095304555 L331 177.61615124435335 L332 178.55652336093925 L333 179.55000964228165 L334 180.59387214961635 L335 181.68525009083274 L336 182.82116754312142 L337 183.99854145279232 L338 185.214189891013 L339 186.4648405436101 L340 187.74713941252273 L341 189.05765970600234 L342 190.39291089422235 L343 191.74934790658327 L344 193.1233804466917 L345 194.51138240074002 L346 195.9097013148292 L347 197.31466791665133 L348 198.72260565689243 L349 200.1298402457172 L350 201.53270915976566 L351 202.92757109522302 L352 204.3108153427134 L353 205.67887106002763 L354 207.02821641900638 L355 208.3553876032809 L356 209.65698763400394 L357 210.9296950012012 L358 212.1702720789206 L359 213.37557330296238 L360 214.5425530906322 L361 215.66827348266725 L362 216.7499114882462 L363 217.78476611480104 L364 218.77026506519974 L365 219.70397108576657 L366 220.5835879495408 L367 221.40696606015084 L368 222.1721076626905 L369 222.87717164902818 L370 223.52047794605122 L371 224.10051147645186 L372 224.61592568278417 L373 225.0655456066696 L374 225.44837051619504 L375 225.7635760757277 L376 226.0105160535657 L377 226.18872356404614 L378 226.2979118419426 L379 226.3379745481962 L380 226.30898560723688 L381 226.21119857736238 L382 226.0450455568444 L383 225.81113562962642 L384 225.51025285565953 L385 225.143353812088 L386 224.71156469264557 L387 224.21617797374927 L388 223.6586486568801 L389 223.04059009791612 L390 222.36376943512875 L391 221.6301026285666 L392 220.84164912453014 L393 220.00060615978182 L394 219.109302721037 L395 218.1701931761422 L396 217.18585059416102 L397 216.15895977235857 L398 215.0923099887962 L399 213.98878749991997 " stroke = "blue" stroke-width = "4" fill = "none" /></svg>