<svg width="400" height="400" viewbox = "0 0 400 400"  xmlns="http://www.w3.org/2000/svg">

<!--
<topfunctions>






function YofX(){
//foobar foobar
    X = plotparams.g*(x - plotparams.x0) - funcparams.X0;

    Y = BesselJ0(X);

    y = plotparams.y0 - plotparams.G*(Y - funcparams.Y0);
}

function YofX2(){
//foobar foobar
    X = plotparams.g*(x - plotparams.x0) - funcparams.X0;

    Y = BesselJ1(X);

    y = plotparams.y0 - plotparams.G*(Y - funcparams.Y0);
}

function YofX3(){
//foobar foobar
    X = plotparams.g*(x - plotparams.x0) - funcparams.X0;

    Y = BesselJ(2,X);

    y = plotparams.y0 - plotparams.G*(Y - funcparams.Y0);
}

function plotfunction(){
    
    /*plot one function:*/
    currentStroke = "red";
    currentLineWidth = 4;
    ctx.strokeStyle = currentStroke;
    ctx.lineWidth = currentLineWidth;
    ctx.beginPath();	
    x = 0;
    intx = x;
    YofX();
    currentSVG += "	<path d = \"M";
    currentSVG += Math.round(x).toString() + " ";
    currentSVG += Math.round(y).toString() + " ";
    for(x = 1;x < plotparams.plotwidth;x++){
        ctx.moveTo(x-1,y);
        YofX();
        ctx.lineTo(x,y);
        currentSVG += "L" + x + " " + y + " ";
    }
    ctx.stroke();
    currentSVG += "\""+ " stroke = \"" + currentStroke + "\" stroke-width = \"" + currentLineWidth.toString() + "\" fill = \"" + "none" + "\" "+"/>";
    /*finish plot one function*/
    
        /*plot one function:*/
    currentStroke = "green";
    currentLineWidth = 4;
    ctx.strokeStyle = currentStroke;
    ctx.lineWidth = currentLineWidth;
    ctx.beginPath();	
    x = 0;
    intx = x;
    YofX2();
    currentSVG += "	<path d = \"M";
    currentSVG += Math.round(x).toString() + " ";
    currentSVG += Math.round(y).toString() + " ";
    for(x = 1;x < plotparams.plotwidth;x++){
        ctx.moveTo(x-1,y);
        YofX2();
        ctx.lineTo(x,y);
        currentSVG += "L" + x + " " + y + " ";
    }
    ctx.stroke();
    currentSVG += "\""+ " stroke = \"" + currentStroke + "\" stroke-width = \"" + currentLineWidth.toString() + "\" fill = \"" + "none" + "\" "+"/>";
    /*finish plot one function*/
    
    /*plot one function:*/
    currentStroke = "blue";
    currentLineWidth = 4;
    ctx.strokeStyle = currentStroke;
    ctx.lineWidth = currentLineWidth;
    ctx.beginPath();	
    x = 0;
    intx = x;
    YofX3();
    currentSVG += "	<path d = \"M";
    currentSVG += Math.round(x).toString() + " ";
    currentSVG += Math.round(y).toString() + " ";
    for(x = 1;x < plotparams.plotwidth;x++){
        ctx.moveTo(x-1,y);
        YofX3();
        ctx.lineTo(x,y);
        currentSVG += "L" + x + " " + y + " ";
    }
    ctx.stroke();
    currentSVG += "\""+ " stroke = \"" + currentStroke + "\" stroke-width = \"" + currentLineWidth.toString() + "\" fill = \"" + "none" + "\" "+"/>";
    /*finish plot one function*/
    
}

// http://www.mhtl.uwaterloo.ca/old/courses/me3532/js/bessel.html


function BesselJ(n,x){
	if (n == null || n.length == 0) return "n not specified";
	if (Math.floor(n) != n) return "Error: n not integer";
	if (n < 2) return "Error: n < 2";
	var ACC = 40.0;		// Make larger to increase accuracy.
	var BIGNO = 1.0e10;
	var BIGNI = 1.0e-10;
	var j,jsum,m,ax,bj,bjm,bjp,sum,tox,ans;
	ax=Math.abs(x);
	if (ax == 0.0) return 0.0;
	else if (ax > n) {
		tox = 2.0/ax;
		bjm=BesselJ0(ax);
		bj=BesselJ1(ax);
		for (j=1;j<n;j++) {
			bjp=j*tox*bj-bjm;
			bjm=bj;
			bj=bjp;
		}
		ans=bj;
	} else {
		tox=2.0/ax;
		if (Math.sqrt(ACC*n) >= 0)
			m=2*((n + Math.floor(Math.sqrt(ACC*n))) / 2);
		else
			m=2*((n + Math.ceil(Math.sqrt(ACC*n))) / 2);
		jsum=0;
		bjp=ans=sum=0.0;
		bj=1.0;
		for (j=m;j>0;j--) {
			bjm=j*tox*bj-bjp;
			bjp=bj;
			bj=bjm;
			if (Math.abs(bj) > BIGNO) {
				bj *= BIGNI;
				bjp *= BIGNI;
				ans *= BIGNI;
				sum *= BIGNI;
			}
			if (jsum) sum += bj;
			jsum=!jsum;
			if (j == n) ans=bjp;
		}
		sum=2.0*sum-bj;
		ans /= sum;
	}
	return x < 0.0 && (n & 1) ? -ans : ans;
}


function BesselJ0(x) {
	var ax,z,xx,y,ans,ans1,ans2;
	ax = Math.abs(x)
	if (ax < 8.0) {
		y = x * x;
		ans1 = 57568490574.0 + y * (-13362590354.0 + y * (651619640.7 + y * (-11214424.18 + y * (77392.33017 + y * (-184.9052456)))));
		ans2 = 57568490411.0 + y * (1029532985.0 + y * (9494680.718 + y * (59272.64853 + y * (267.8532712 + y * 1.0))));
		ans = ans1 / ans2;
	} else {
		z = 8.0 / ax;
		y = z * z;
		xx = ax - 0.785398164;
		ans1 = 1.0 + y * (-0.1098628627e-2 + y * (0.2734510407e-4 + y * (-0.2073370639e-5 + y * 0.2093887211e-6)));
		ans2 = -0.1562499995e-1 + y * (0.1430488765e-3 + y * (-0.6911147651e-5 + y * (0.7621095161e-6 - y * 0.934935152e-7)));
		ans = Math.sqrt(0.636619772 / ax) * (Math.cos(xx) * ans1 - z * Math.sin(xx) * ans2);
	}
	return ans;
}

function BesselJ1(x) {
	var ax,z,xx,y,ans,ans1,ans2;
	ax = Math.abs(x);
	if (ax < 8.0) {
		y=x*x;
		ans1 = x*(72362614232.0+y*(-7895059235.0+y*(242396853.1+y*(-2972611.439+y*(15704.48260+y*(-30.16036606))))));
		ans2 = 144725228442.0+y*(2300535178.0+y*(18583304.74+y*(99447.43394+y*(376.9991397+y*1.0))));
		ans = ans1/ans2;
	} else {
		z=8.0/ax;
		y=z*z;
		xx=ax-2.356194491;
		ans1=1.0+y*(0.183105e-2+y*(-0.3516396496e-4+y*(0.2457520174e-5+y*(-0.240337019e-6))));
		ans2=0.04687499995+y*(-0.2002690873e-3+y*(0.8449199096e-5+y*(-0.88228987e-6+y*0.105787412e-6)));
		ans=Math.sqrt(0.636619772/ax)*(Math.cos(xx)*ans1-z*Math.sin(xx)*ans2);
		if (x < 0.0) ans = -ans;
	}
	return ans;	
}
























</topfunctions>
-->

<!--
<imgurl>

</imgurl>
-->

<!--
<currentjson>
{
    "constants": {},
    "imgurl": "",
    "plotparams": {
        "G": 132.2789513333808,
        "g": 0.05662186490053656,
        "duration": 450.78888054094654,
        "plotwidth": 400,
        "plotheight": 400,
        "x0": 0,
        "y0": 200.00000000000003
    },
    "funcparams": {
        "phi": 0.2688139066614501,
        "T": 1.4465183912692552,
        "X0": 0,
        "Y0": 0
    }
}
</currentjson>
-->

<!--
<equation>
<p>
    <a style="color:blue;" href="http://www.mhtl.uwaterloo.ca/old/courses/me3532/js/bessel.html">http://www.mhtl.uwaterloo.ca/old/courses/me3532/js/bessel.html</a>
</p>
<h2>Bessel Function</h2>
<p style="color:blue">

</p><p class="bigeq">
$$
Y = J_n(X)
$$
</p>


$$
X = g(x - x_0) - X_0
$$
$$
Y = f(X)
$$
    
$$
y = y_0 - G(Y - Y_0)
$$


<p>
    X and Y, and $X_0$ and $Y_0$ in physical units of the System. x and y and x0 and y0 in pixels.  G is in pixels per Y unit and g is in X units per pixel. 
</p>






</equation>
-->
	<path d = "M0 68 L1 67.82704981113585 L2 68.1447995470835 L3 68.67353371693079 L4 69.41198161589185 L5 70.35836901102417 L6 71.51042287898403 L7 72.86537747461736 L8 74.41998171337026 L9 76.17050784682203 L10 78.11276140702213 L11 80.24209239176217 L12 82.55340765944163 L13 85.04118449880741 L14 87.69948533556594 L15 90.5219735346959 L16 93.50193025423815 L17 96.63227230341406 L18 99.90557095513522 L19 103.31407166032193 L20 106.84971460895466 L21 110.50415608044716 L22 114.26879052375988 L23 118.13477330567356 L24 122.09304406382152 L25 126.13435059943859 L26 130.24927324333282 L27 134.42824962732294 L28 138.66159979231793 L29 142.9395515633431 L30 147.25226612114773 L31 151.58986369955903 L32 155.94244933747996 L33 160.3001386143663 L34 164.65308329815605 L35 168.99149683496856 L36 173.3056796104328 L37 177.58604391324894 L38 181.82313853252788 L39 186.00767292158844 L40 190.13054086221968 L41 194.18284356492705 L42 198.15591214237995 L43 202.04132939514813 L44 205.8309508508631 L45 209.51692500014693 L46 213.0917126750253 L47 216.5481055180588 L48 219.87924349309583 L49 223.0786313913516 L50 226.14015428944938 L51 229.0580919191105 L52 231.8271319113419 L53 234.44238188123182 L54 236.8993803228198 L55 239.19410628694234 L56 241.3229878184662 L57 243.28290913288797 L58 245.07121651590293 L59 246.68572293320491 L60 248.12471134147154 L61 249.38693669519927 L62 250.4716266477709 L63 251.37848094885402 L64 252.10766954393125 L65 252.659829385442 L66 253.03605996865724 L67 253.23791760900912 L68 253.26740848113658 L69 253.12698044338765 L70 252.8195136749161 L71 252.34831015582603 L72 251.71708202403892 L73 250.9299388456676 L74 249.99137383868887 L75 248.90624909258088 L76 247.67977982934417 L77 246.31751775393593 L78 244.8253335446123 L79 243.20939853599145 L80 241.47616564980206 L81 239.6323496302779 L82 237.68490664297687 L83 235.64101329745404 L84 233.50804515568285 L85 231.29355478940516 L86 229.00524945068753 L87 226.65096842087303 L88 224.23866010383023 L89 221.77635892993055 L90 219.27216213751163 L91 216.73420649871971 L92 214.17064505656685 L93 211.58962393977933 L94 208.9992593215741 L95 206.4076145878541 L96 203.82267777949156 L97 201.25233937235222 L98 198.70437045751683 L99 196.18640138278252 L100 193.705900914976 L101 191.2701559808914 L102 188.88625204278145 L103 186.56105416229028 L104 184.30118880452167 L105 182.11302643159857 L106 180.00266493259153 L107 177.97591393408962 L108 176.03828003295493 L109 174.1949529899611 L110 172.45079292006827 L111 170.81031851203753 L112 169.27769630696505 L113 167.85673106209742 L114 166.55085722302036 L115 165.3631315239745 L116 164.29622673267215 L117 163.3524265525702 L118 162.53362169210575 L119 161.84130710694492 L120 161.27658041782288 L121 160.84014150309127 L122 160.53229326164748 L123 160.35294353849662 L124 160.3016082018104 L125 160.37741535702224 L126 160.5791106802047 L127 160.90506384978193 L128 161.35327605248062 L129 161.92138853639165 L130 162.60669218106 L131 163.4061380516784 L132 164.31634890173584 L133 165.33363158587173 L134 166.45399034220523 L135 167.67314090108948 L136 168.9865253750447 L137 170.38932788259814 L138 171.87649085688284 L139 173.44273198813778 L140 175.0825617477216 L141 176.79030143987555 L142 178.56010060806344 L143 180.3859577512456 L144 182.2617387726089 L145 184.18119630906043 L146 186.1379896571894 L147 188.1257047088978 L148 190.13787399685805 L149 192.1679967892473 L150 194.20955917331008 L151 196.25605406757785 L152 198.3010011030352 L153 200.33796631415595 L154 202.3605815815457 L155 204.36256376890634 L156 206.33773349819285 L157 208.2800335081441 L158 210.1835465428466 L159 212.04251271861924 L160 213.85134631928622 L161 215.60465197182978 L162 217.29724015647338 L163 218.92414200744014 L164 220.48062336294365 L165 221.96219802540432 L166 223.36464019542197 L167 224.6839960456799 L168 225.916594403688 L169 227.05905651509346 L170 228.10830486217856 L171 229.06157101512818 L172 229.91640249666432 L173 230.67066864371208 L174 231.3225654528641 L175 231.87061939954336 L176 232.31369022391647 L177 232.65097267977112 L178 232.88199724573317 L179 233.00662980135232 L180 233.02507027371794 L181 232.93785026337306 L182 232.74582966136143 L183 232.45019227226453 L184 232.05244046104923 L185 231.5543888444487 L186 230.9581570504251 L187 230.26616157200883 L188 229.48110674446536 L189 228.60597487729808 L190 227.64401557504993 L191 226.5987342832079 L192 225.47388009773678 L193 224.27343287886615 L194 223.0015897117209 L195 221.66275075821451 L196 220.26150454631227 L197 218.8026127443129 L198 217.29099446918556 L199 215.7317101792366 L200 214.12994520245658 L201 212.4909929528163 L202 210.82023788753264 L203 209.1231382589167 L204 207.40520871483773 L205 205.6720028020946 L206 203.92909542707423 L207 202.1820653280006 L208 200.43647761283344 L209 198.69786641646803 L210 196.97171773031607 L211 195.26345245661628 L212 193.57840973893195 L213 191.92183061925073 L214 190.2988420709028 L215 188.71444145517347 L216 187.17348144800033 L217 185.68065548152194 L218 184.24048374349178 L219 182.85729977568985 L220 181.5352377104632 L221 180.27822018241451 L222 179.089946950034 L223 177.97388425975288 L224 176.93325498248123 L225 175.97102955019898 L226 175.0899177175934 L227 174.29236117109656 L228 173.5805270049733 L229 172.9563020813589 L230 172.42128828834853 L231 171.97679870741104 L232 171.62385469854507 L233 171.3631839087228 L234 171.19521920628824 L235 171.12009854109914 L236 171.13766572733354 L237 171.24747214303358 L238 171.44877933763902 L239 171.74056253597746 L240 172.1215150244393 L241 172.59005340237877 L242 173.14432367915734 L243 173.78220819468964 L244 174.50133333887283 L245 175.29907804288598 L246 176.17258301304204 L247 177.11876067567013 L248 178.13430579940604 L249 179.2157067592782 L250 180.3592574051054 L251 181.56106949497115 L252 182.81708565291632 L253 184.1230928085019 L254 185.4747360745369 L255 186.8675330180528 L256 188.29688827853306 L257 189.75810848648126 L258 191.2464174346339 L259 192.7569714534973 L260 194.28487494241378 L261 195.82519600704111 L262 197.37298215396046 L263 198.9232759931148 L264 200.47113089891891 L265 202.01162658117298 L266 203.5398845173547 L267 205.05108319845712 L268 206.54047314127712 L269 208.00339162094346 L270 209.43527707849702 L271 210.83168315949678 L272 212.18829234092144 L273 213.50092910505964 L274 214.76557262063014 L275 215.97836889304148 L276 217.135642347481 L277 218.23390681041212 L278 219.2698758570496 L279 220.24047249446636 L280 221.14283815216086 L281 221.9743409541681 L282 222.73258324912578 L283 223.41540837710397 L284 224.02090665445982 L285 224.547420560485 L286 224.99354911216307 L287 225.358151415936 L288 225.640349387992 L289 225.839529637215 L290 225.9553445075772 L291 225.9877122793973 L292 225.93681653152558 L293 225.80310466913653 L294 225.58728562441217 L295 225.29032673996724 L296 224.9134498473991 L297 224.4581265558308 L298 223.92607276774703 L299 223.31924244179234 L300 222.6398206245046 L301 221.89021577518196 L302 221.07305141022582 L303 220.1911570953606 L304 219.24755881608854 L305 218.24546875860244 L306 217.1882745351296 L307 216.07952788932718 L308 214.92293291887273 L309 213.7223338538014 L310 212.48170243042372 L311 211.20512490180812 L312 209.89678872683749 L313 208.56096898073233 L314 207.20201453068697 L315 205.82433402087204 L316 204.43238171153237 L317 203.03064321723426 L318 201.62362118950503 L319 200.21582098915403 L320 198.8117363934628 L321 197.41583538319864 L322 196.03254605402032 L323 194.66624269633365 L324 193.32123208699278 L325 192.0017400354596 L326 190.7118982261099 L327 189.4557313973258 L328 188.23714489684207 L329 187.05991265151684 L330 185.927665588289 L331 184.84388054155897 L332 183.81186968060413 L333 182.83477048890643 L334 181.9155363254454 L335 181.05692759609582 L336 180.26150356126743 L337 179.53161480385225 L338 178.86939637939628 L339 178.2767616682062 L340 177.75539694683488 L341 177.30675669407714 L342 176.93205964425078 L343 176.63228559814996 L344 176.40817299964075 L345 176.26021728343613 L346 176.18866999714072 L347 176.1935386982073 L348 176.2745876240029 L349 176.43133913074922 L350 176.66307589468977 L351 176.96884386644967 L352 177.34745596720356 L353 177.79749651295728 L354 178.31732635098888 L355 178.90508869028946 L356 179.5587156057046 L357 180.27593519340203 L358 181.05427935329772 L359 181.89109217215594 L360 182.78353887925164 L361 183.7286153447517 L362 184.7231580893322 L363 185.7638547720212 L364 186.84725512182695 L365 187.96978227740402 L366 189.12774449780915 L367 190.31734720632352 L368 191.5347053283642 L369 192.77585588367523 L370 194.0367707922909 L371 195.31336985318646 L372 196.6015338540957 L373 197.89711777065912 L374 199.1959640128942 L375 200.49391567693368 L376 201.7868297600648 L377 203.07059029732685 L378 204.341121378272 L379 205.5944000029807 L380 206.82646873702757 L381 208.0334481258339 L382 209.21154882969654 L383 210.35708344176464 L384 211.4664779523295 L385 212.53628282399984 L386 213.56318364365424 L387 214.54401131848076 L388 215.47575178493832 L389 216.35555520108753 L390 217.18074459444608 L391 217.94882393931255 L392 218.65748563936916 L393 219.30461739331543 L394 219.88830842328662 L395 220.40685504787896 L396 220.85876558371695 L397 221.24276456166353 L398 221.55779624597386 L399 221.80302744692716 " stroke = "red" stroke-width = "4" fill = "none" />	<path d = "M0 200 L1 196.25656014472142 L2 192.52211908591983 L3 188.80565158444145 L4 185.11608439727956 L5 181.4622724439755 L6 177.8529751744689 L7 174.2968332046414 L8 170.80234528502777 L9 167.37784566720504 L10 164.03148193122587 L11 160.77119333613103 L12 157.604689754069 L13 154.53943124686802 L14 151.5826083420543 L15 148.74112306329448 L16 146.0215707680673 L17 143.4302228430446 L18 140.97301030519154 L19 138.65550835398906 L20 136.4829219174448 L21 134.4600722316991 L22 132.5913844910615 L23 130.88087660223476 L24 129.33214907331228 L25 127.94837606487428 L26 126.73229762717268 L27 125.68621314399245 L28 124.81197600031471 L29 124.1109894874024 L30 123.58420395538322 L31 123.23211521983507 L32 123.0547642252932 L33 123.05173796500554 L34 123.22217165267638 L35 123.56475213836767 L36 124.07772255718017 L37 124.7588881958292 L38 125.6056235587654 L39 126.6148806120846 L40 127.78319818013192 L41 129.10671246643915 L42 130.58116866745797 L43 132.20193364446655 L44 133.96400961604658 L45 135.86204883066142 L46 137.8903691761172 L47 140.04297068006966 L48 142.3135528532586 L49 144.69553282480848 L50 147.182064216747 L51 149.7660567028566 L52 152.44019619510328 L53 155.19696559918086 L54 158.02866607917497 L55 160.92743876999552 L56 163.8852868750469 L57 166.89409808561203 L58 169.94566725761814 L59 173.03171928083106 L60 176.1439320750942 L61 179.2739596479878 L62 182.4134551482355 L63 185.55409384932517 L64 188.68759599814484 L65 191.80574946395237 L66 194.90043212370892 L67 197.96363392069637 L68 200.9874785344132 L69 203.9642446010007 L70 206.88638642487163 L71 209.74655412382114 L72 212.5376131516531 L73 215.25266314428507 L74 217.88505603736857 L75 220.42841340568577 L76 222.87664297694943 L77 225.2239542751315 L78 227.4648733510698 L79 229.5942565608446 L80 231.60730335527057 L81 233.49956804680204 L82 235.2669705231968 L83 236.90580588041064 L84 238.41275295040242 L85 239.78488170279203 L86 241.0196595026396 L87 242.11495620997914 L88 243.0690481101433 L89 243.8806206673409 L90 244.54877009738982 L91 245.073003758954 L92 245.45323936607286 L93 245.68980302819315 L94 245.78342612731294 L95 245.73524104520715 L96 245.5467757570214 L97 245.2199473107791 L98 244.75705421554295 L99 244.16076776409298 L100 243.4341223190176 L101 242.58050459406485 L102 241.60364196543696 L103 240.50758985045428 L104 239.2967181936257 L105 237.97569710266433 L106 236.54948167934003 L107 235.02329609229201 L108 233.40261694099985 L109 231.69315596204282 L110 229.90084213054658 L111 228.03180321133158 L112 226.0923468157274 L113 224.0889410212866 L114 222.02819461274595 L115 219.916837003508 L116 217.76169789767323 L117 215.5696867532155 L118 213.34777210730232 L119 211.10296082495537 L120 208.8422773322854 L121 206.57274289538475 L122 204.30135500561917 L123 202.0350669315616 L124 199.78076749711462 L125 197.5452611445096 L126 195.3352483398401 L127 193.15730637758688 L128 191.01787063922762 L129 188.92321635950793 L130 186.87944095227405 L131 184.89244694595195 L132 182.96792557678697 L133 181.1113410858732 L134 179.32791576377085 L135 177.6226157841646 L136 176.00013786556786 L137 174.46489679750772 L138 173.02101386497475 L139 171.6723062021722 L140 170.42227710378273 L141 169.27410731907835 L142 168.23064648573498 L143 167.29440930827826 L144 166.46756604395645 L145 165.7519403061379 L146 165.1490049506403 L147 164.65987960163096 L148 164.28532924668878 L149 164.02576390087717 L150 163.88123933648137 L151 163.85145887188534 L152 163.93577620991707 L153 164.1331993128796 L154 164.4423952984261 L155 164.86169633743037 L156 165.38910653206688 L157 166.02230974944936 L158 166.75867838339508 L159 167.5952830141923 L160 168.52890293365513 L161 169.55603750026694 L162 170.6729182868387 L163 171.87552198086067 L164 173.1595839955981 L165 174.5206127479929 L166 175.95390455757882 L167 177.4545591189086 L168 179.0174954984318 L169 180.63746860535383 L170 182.30908608475568 L171 184.02682558016394 L172 185.7850523118306 L173 187.5780369162222 L174 189.39997349162013 L175 191.24499779430755 L176 193.10720552956073 L177 194.98067068157374 L178 196.85946382652702 L179 198.7376703732602 L180 200.6094086764255 L181 202.4688479675833 L182 204.31022605044524 L183 206.12786670737907 L184 207.9161967653534 L185 209.6697627707193 L186 211.3832472235938 L187 213.05148432412406 L188 214.66947518456365 L189 216.23240246288273 L190 217.73564437554896 L191 219.17478804915706 L192 220.54564217274174 L193 221.8442489148727 L194 223.06689507199945 L195 224.21012241697505 L196 225.27073721923767 L197 226.24581891075525 L198 227.1327278745395 L199 227.92911233529375 L200 228.6329143345748 L201 229.24237477570765 L202 229.75603752658745 L203 230.17275257142464 L204 230.4916782054302 L205 230.7122822693871 L206 230.8343424240034 L207 230.85794546688294 L208 230.78348569787238 L209 230.61166234143835 L210 230.34347603758974 L211 229.98022441567497 L212 229.5234967681479 L213 228.9751678440983 L214 228.33739078497553 L215 227.6125892274906 L216 226.80344860115306 L217 225.9129066502791 L218 224.94414321258762 L219 223.9005692886768 L220 222.78581543873563 L221 221.6037195447919 L222 220.3583139786171 L223 219.0538122171038 L224 217.69459494848797 L225 216.28519571421106 L226 214.83028613249408 L227 213.33466075083055 L228 211.80322157558774 L229 210.24096232774085 L230 208.65295247444357 L231 207.04432108666296 L232 205.420240573476 L233 203.78591034383598 L234 202.14654044667242 L235 200.50733524008447 L236 198.87347714013075 L237 197.25011049930382 L238 195.64232566421316 L239 194.05514326128008 L240 192.49349875838502 L241 190.96222734939536 L242 189.46604920734882 L243 188.00955515077783 L244 186.5971927662355 L245 185.23325302853152 L246 183.92185745851026 L247 182.66694585640863 L248 181.4722646469255 L249 180.34135587012182 L250 179.2775468501591 L251 178.2839405716795 L252 177.36340679134085 L253 176.5185739096515 L254 175.7518216258114 L255 175.06527439576348 L256 174.4607957111026 L257 173.93998321388497 L258 173.50416465973836 L259 173.1543947389997 L260 172.89145276291066 L261 172.71584121919264 L262 172.6277851986073 L263 172.62723269139724 L264 172.71385574979954 L265 172.8870525101461 L266 173.14595006540975 L267 173.48940817643953 L268 173.91602380755572 L269 174.4241364696541 L270 175.01183435150807 L271 175.6769612175638 L272 176.41712404820285 L273 177.22970139621015 L274 178.11185243103284 L275 179.0605266403622 L276 180.07247415661377 L277 181.14425667403333 L278 182.2722589204192 L279 183.45270064583133 L280 184.68164908915986 L281 185.95503188205328 L282 187.26865034846438 L283 188.61819315696292 L284 189.9992502819925 L285 191.40732722941425 L286 192.83785948099126 L287 194.28622711191494 L288 195.74776953507524 L289 197.2178003255131 L290 198.69162207838534 L291 200.16454125380096 L292 201.63188296206843 L293 203.08900564321647 L294 204.53131559511291 L295 205.95428130511792 L296 207.3534475409477 L297 208.72444915731202 L298 210.0630245758982 L299 211.36502889742377 L300 212.62644660574549 L301 213.8434038254063 L302 215.01218009551076 L303 216.1292196244352 L304 217.19114199161135 L305 218.19475226444266 L306 219.13705050034025 L307 220.01524060587118 L308 220.82673852710707 L309 221.5691797474281 L310 222.24042607127285 L311 222.83857167462278 L312 223.36194840536086 L313 223.80913031904188 L314 224.17893743804802 L315 224.47043872457138 L316 224.68295426035553 L317 224.81605662863507 L318 224.86957149622606 L319 224.8435773962336 L320 224.73840471434923 L321 224.5546338841998 L322 224.29309279967643 L323 223.9548534546061 L324 223.5412278225253 L325 223.05376299166392 L326 222.49423557254553 L327 221.86464539784342 L328 221.16720853630352 L329 220.40434964463645 L330 219.57869368329827 L331 218.69305702400467 L332 217.7504379786606 L333 216.7540067811246 L334 215.7070950548608 L335 214.61318480106138 L336 213.47589694323256 L337 212.29897946554044 L338 211.08629518338572 L339 209.8418091857356 L340 208.56957598966338 L341 207.2737264483499 L342 205.9584544544636 L343 204.62800348137097 L344 203.28665300502982 L345 201.93870484967744 L346 200.58846950055838 L347 199.24025242692224 L348 197.89834045838273 L349 196.56698825744712 L350 195.25040493061167 L351 193.9527408198772 L352 192.67807451585838 L353 191.43040013286313 L354 190.21361488538497 L355 189.03150700440767 L356 187.8877440307484 L357 186.7858615213883 L358 185.72925220334614 L359 184.7211556081524 L360 183.7646482183889 L361 182.86263415606078 L362 182.01783644079242 L363 181.23278884396848 L364 180.50982836300264 L365 179.85108833789874 L366 179.2584922301935 L367 178.73374808222994 L368 178.27834367252365 L369 177.89354238075072 L370 177.58037977361593 L371 177.3396609205598 L372 177.17195844594 L373 177.07761132198485 L374 177.05672440446992 L375 177.10916871072217 L376 177.23458243721623 L377 177.4323727117012 L378 177.70171807249213 L379 178.04157166528458 L380 178.4506651456099 L381 178.92751327285225 L382 179.4704191795998 L383 180.07748029801007 L384 180.74659492284235 L385 181.4754693888457 L386 182.26162583831012 L387 183.10241055277837 L388 183.99500282120206 L389 184.93642431519302 L390 185.92354894049367 L391 186.95311313235652 L392 188.02172656119902 L393 189.12588321368372 L394 190.26197281326807 L395 191.42629254328315 L396 192.61505903472795 L397 193.82442058022215 L398 195.05046953493087 L399 196.28925486477888 " stroke = "green" stroke-width = "4" fill = "none" />	<path d = "M0 200 L1 199.94700278347443 L2 199.78818100514297 L3 199.52404376829293 L4 199.1554378784343 L5 198.68354529868645 L6 198.1098795979831 L7 197.43628140272054 L8 196.66491286545477 L9 195.7982511671938 L10 194.83908107272043 L11 193.79048656121338 L12 192.6558415571978 L13 191.43879978954607 L14 190.14328380885365 L15 188.77347319602885 L16 187.3337919973485 L17 185.82889542353882 L18 184.26365585263406 L19 182.64314817843805 L20 180.9726345483595 L21 179.2575485362056 L22 177.50347879719325 L23 175.7161522539693 L24 173.9014168638165 L25 172.06522401845436 L26 170.21361062892296 L27 168.35268094895935 L28 166.48858819103611 L29 164.6275159898322 L30 162.77565976834296 L31 160.93920806211023 L32 159.12432385716392 L33 157.33712599721528 L34 155.58367071542892 L35 153.86993334572875 L36 152.2018198372071 L37 150.58504102550887 L38 149.02524479456423 L39 147.52790626851223 L40 146.09833295999903 L41 144.74164869520325 L42 143.46277808109193 L43 142.26643156114622 L44 141.1570911040233 L45 140.13899656772173 L46 139.2161327797864 L47 138.39221737194035 L48 137.67068940526798 L49 137.05469881969998 L50 136.5470967390822 L51 136.15042666054472 L52 135.86691655423732 L53 135.69847189677373 L54 135.64666965893005 L55 135.7127532652881 L56 135.8976285406072 L57 136.20186065475838 L58 136.62567207506928 L59 137.16894153192135 L60 137.83120400041275 L61 138.6116516978703 L62 139.50913609396216 L63 140.52217092714648 L64 141.6489362181898 L65 142.8872832685223 L66 144.23474062826654 L67 145.68852101589013 L68 147.24552916860864 L69 148.9023705998986 L70 150.65536123778946 L71 152.50053791499633 L72 154.43366967942654 L73 156.4502698911741 L74 158.54560906978602 L75 160.71472845337644 L76 162.95245422906345 L77 165.2534123922328 L78 167.61204419028516 L79 170.02262210481186 L80 172.4792663245743 L81 174.97596166022967 L82 177.5065748504691 L83 180.06487220810064 L84 182.644537553639 L85 185.23919038314457 L86 187.84240421639947 L87 190.44772507101004 L88 193.04869000769858 L89 195.6388456918743 L90 198.21176691657197 L91 200.7610750320088 L92 203.2804562273312 L93 205.7636796106155 L94 208.20461503382649 L95 210.59725061025378 L96 212.9357098729014 L97 215.21426852342722 L98 217.42737072249338 L99 219.56964487380196 L100 221.6359188556427 L101 223.62123465547347 L102 225.52086236487338 L103 227.33031349416103 L104 229.04535356803495 L105 230.662013965781 L106 232.17660297187848 L107 233.5857160052283 L108 234.88624499771086 L109 236.07538689535 L110 237.15065125800396 L111 238.109866936226 L112 238.95118780670794 L113 239.67309755055595 L114 240.274413461519 L115 240.75428927420154 L116 241.11221700522808 L117 241.34802780327774 L118 241.46189180687398 L119 241.45431701176773 L120 241.32614715270665 L121 241.07855860731578 L122 240.7130563327085 L123 240.2314688483175 L124 239.63594228125362 L125 238.92893349325254 L126 238.11320231097883 L127 237.19180288406795 L128 236.1680741978405 L129 235.0456297700661 L130 233.82834656351366 L131 232.5203531482766 L132 231.12601714999417 L133 229.64993202210852 L134 228.09690318219614 L135 226.4719335541601 L136 224.7802085597039 L137 223.02708060397703 L138 221.21805310161847 L139 219.3587640906033 L140 217.4549694823142 L141 215.51252599713672 L142 213.53737473850953 L143 211.53552258786397 L144 209.51302438279757 L145 207.47596597109458 L146 205.43044610652578 L147 203.38255865458774 L148 201.338374856772 L149 199.30392570596814 L150 197.28518448517696 L151 195.28804952112435 L152 193.31832720362877 L153 191.38171532068455 L154 189.48378675818316 L155 187.62997361201093 L156 185.82555175893344 L157 184.07562593121415 L158 182.38511533831638 L159 180.75873987731444 L160 179.20100697179055 L161 177.7161990770322 L162 176.3083618872684 L163 174.98129327850597 L164 173.7385330182507 L165 172.5833532710321 L166 171.51874992620162 L167 170.5474347719492 L168 169.67182853689243 L169 168.89405481793827 L170 168.21593491041682 L171 167.63898355373763 L172 167.16440560303943 L173 166.79309363449423 L174 166.52562648910364 L175 166.36226875698742 L176 166.30297120133076 L177 166.34737211832822 L178 166.49479962665117 L179 166.74427487717912 L180 167.09451617098387 L181 167.54394397084226 L182 168.0906867888945 L183 168.73258793045963 L184 169.4672130714839 L185 170.2918586446318 L186 171.2035610066469 L187 172.19910635731313 L188 173.27504137814475 L189 174.42768455683432 L190 175.65313816149302 L191 176.94730082683813 L192 178.30588071272064 L193 179.72440919374824 L194 181.1982550372486 L195 182.7226390254424 L196 184.29264897645493 L197 185.90325511769504 L198 187.54932576417517 L199 189.2256432535352 L200 190.9269200888708 L201 192.64781523995515 L202 194.38295055308194 L203 196.12692721954872 L204 197.87434225274325 L205 199.61980492389088 L206 201.35795310676917 L207 203.0834694820934 L208 204.79109755282366 L209 206.47565742233937 L210 208.1320612882649 L211 209.75532860571235 L212 211.34060087482572 L213 212.88315600876615 L214 214.37842223966322 L215 215.82199152156898 L216 217.20963239108409 L217 218.53730224807603 L218 219.80115902076892 L219 220.99757218144933 L220 222.12313308109682 L221 223.1746645734029 L222 224.1492299008835 L223 225.04414081810938 L224 225.85696492946872 L225 226.5855322213308 L226 227.22794077098882 L227 227.78256161731844 L228 228.24804278068606 L229 228.623312422273 L230 228.9075811356335 L231 229.1003433659781 L232 229.2013779553492 L233 229.21074781453527 L234 229.1287987252377 L235 228.95615727865723 L236 228.69372795929326 L237 228.34268938534356 L238 227.9044897196455 L239 227.38084126760413 L240 226.77371428100057 L241 226.0853299889601 L242 225.3181528796722 L243 224.47488225869193 L244 223.55844311180445 L245 222.57197630249408 L246 221.51882813602575 L247 220.40253932400606 L248 219.22683338504547 L249 217.9956045187829 L250 216.71290499205446 L251 215.38293207738792 L252 214.01001458527594 L253 212.59859903282296 L254 211.15323549236876 L255 209.67856316456357 L256 208.17929572110208 L257 206.66020646291642 L258 205.12611334007784 L259 203.5818638799633 L260 202.0323200704059 L261 200.4823432445661 L262 198.93677901413557 L263 197.40044229721678 L264 195.87810248680964 L265 194.37446880528597 L266 192.89417588954262 L267 191.44176965069698 L268 190.02169345123056 L269 188.63827464139607 L270 187.2957114954875 L271 185.9980605872358 L272 184.74922464213503 L273 183.5529409029352 L274 182.4127700428611 L275 181.33208565933518 L276 180.31406437910573 L277 179.36167660371314 L278 178.47767792217456 L279 177.66460121563517 L280 176.9247494765319 L281 176.2601893625487 L282 175.6727455033168 L283 175.16399557544 L284 174.7352661590062 L285 174.38762938629583 L286 174.1219003909166 L287 173.93863556309546 L288 173.83813161434674 L289 173.8204254522211 L290 173.88529486332692 L291 174.03226000031668 L292 174.26058566604863 L293 174.56928438568133 L294 174.95712025503707 L295 175.42261355119362 L296 175.96404608893286 L297 176.57946730440398 L298 177.2667010451472 L299 178.02335304348492 L300 178.84681904822324 L301 179.7342935876244 L302 180.68277933472038 L303 181.6890970442351 L304 182.7498960286881 L305 183.86166513965338 L306 185.02074421866544 L307 186.22333598089045 L308 187.46551829342658 L309 188.74325680896715 L310 190.0524179145476 L311 191.38878195422194 L312 192.7480566837581 L313 194.12589091482735 L314 195.51788830567344 L315 196.91962125490065 L316 198.3266448548011 L317 199.7345108605648 L318 201.13878163177424 L319 202.53504400277288 L320 203.91892303883046 L321 205.28609563548162 L322 206.63230391901268 L323 207.95336840678615 L324 209.24520088694703 L325 210.5038169780218 L326 211.7253483300175 L327 212.90605442983724 L328 214.04233397514997 L329 215.1307357822876 L330 216.16796919527368 L331 217.1509139647279 L332 218.07662956711368 L333 218.9423639366174 L334 219.7455615838441 L335 220.48387107748994 L336 221.15515186719745 L337 221.75748042790744 L338 222.28915570818657 L339 222.74870386722415 L340 223.13488228745004 L341 223.44668285201834 L342 223.68333447872294 L343 223.84430490425527 L344 223.92930171506939 L345 223.93827262348458 L346 223.87140499001617 L347 223.72912459528033 L348 223.51209366715634 L349 223.2212081712047 L350 222.85759437462545 L351 222.42260469628874 L352 221.91781285757307 L353 221.34500835090105 L354 220.70619024495642 L355 220.00356034759938 L356 219.2395157494573 L357 218.41664077305435 L358 217.5376983541472 L359 216.60562088364844 L360 215.6235005401464 L361 214.59457914455288 L362 213.5222375698378 L363 212.4099847401256 L364 211.26144625463868 L365 210.08035267306587 L366 208.87052749991292 L367 207.63587490625002 L368 206.38036722800598 L369 205.10803228057387 L370 203.82294052997463 L371 202.5291921611891 L372 201.23090408449545 L373 199.9321969207562 L374 198.63718200657019 L375 197.34994846005176 L376 196.07455034772107 L377 194.81499399257717 L378 193.57522546289943 L379 192.35911828066227 L380 191.17046138767884 L381 190.01294740669042 L382 188.89016123361588 L383 187.80556899605338 L384 186.76250741189898 L385 185.76417358062068 L386 184.81361523829096 L387 183.91372150596283 L388 183.06721415935473 L389 182.2766394461177 L390 181.54436047517515 L391 180.87255020078118 L392 180.26318502202227 L393 179.71803901651032 L394 179.23867882498288 L395 178.82645920144347 L396 178.48251924135366 L397 178.20777929822978 L398 178.0029385968122 L399 177.86847354876804 " stroke = "blue" stroke-width = "4" fill = "none" /></svg>