<svg width="400" height="400" viewbox = "0 0 400 400"  xmlns="http://www.w3.org/2000/svg">

<!--
<topfunctions>






function YofX(){
//foobar foobar
    X = plotparams.g*(x - plotparams.x0) - funcparams.X0;

    Y = BesselJ0(X);

    y = plotparams.y0 - plotparams.G*(Y - funcparams.Y0);
}

function YofX2(){
//foobar foobar
    X = plotparams.g*(x - plotparams.x0) - funcparams.X0;

    Y = BesselJ1(X);

    y = plotparams.y0 - plotparams.G*(Y - funcparams.Y0);
}

function YofX3(){
//foobar foobar
    X = plotparams.g*(x - plotparams.x0) - funcparams.X0;

    Y = BesselJ(2,X);

    y = plotparams.y0 - plotparams.G*(Y - funcparams.Y0);
}

function plotfunction(){
    
    /*plot one function:*/
    currentStroke = "red";
    currentLineWidth = 4;
    ctx.strokeStyle = currentStroke;
    ctx.lineWidth = currentLineWidth;
    ctx.beginPath();	
    x = 0;
    intx = x;
    YofX();
    currentSVG += "	<path d = \"M";
    currentSVG += Math.round(x).toString() + " ";
    currentSVG += Math.round(y).toString() + " ";
    for(x = 1;x < plotparams.plotwidth;x++){
        ctx.moveTo(x-1,y);
        YofX();
        ctx.lineTo(x,y);
        currentSVG += "L" + x + " " + y + " ";
    }
    ctx.stroke();
    currentSVG += "\""+ " stroke = \"" + currentStroke + "\" stroke-width = \"" + currentLineWidth.toString() + "\" fill = \"" + "none" + "\" "+"/>";
    /*finish plot one function*/
    
        /*plot one function:*/
    currentStroke = "green";
    currentLineWidth = 4;
    ctx.strokeStyle = currentStroke;
    ctx.lineWidth = currentLineWidth;
    ctx.beginPath();	
    x = 0;
    intx = x;
    YofX2();
    currentSVG += "	<path d = \"M";
    currentSVG += Math.round(x).toString() + " ";
    currentSVG += Math.round(y).toString() + " ";
    for(x = 1;x < plotparams.plotwidth;x++){
        ctx.moveTo(x-1,y);
        YofX2();
        ctx.lineTo(x,y);
        currentSVG += "L" + x + " " + y + " ";
    }
    ctx.stroke();
    currentSVG += "\""+ " stroke = \"" + currentStroke + "\" stroke-width = \"" + currentLineWidth.toString() + "\" fill = \"" + "none" + "\" "+"/>";
    /*finish plot one function*/
    
    /*plot one function:*/
    currentStroke = "blue";
    currentLineWidth = 4;
    ctx.strokeStyle = currentStroke;
    ctx.lineWidth = currentLineWidth;
    ctx.beginPath();	
    x = 0;
    intx = x;
    YofX3();
    currentSVG += "	<path d = \"M";
    currentSVG += Math.round(x).toString() + " ";
    currentSVG += Math.round(y).toString() + " ";
    for(x = 1;x < plotparams.plotwidth;x++){
        ctx.moveTo(x-1,y);
        YofX3();
        ctx.lineTo(x,y);
        currentSVG += "L" + x + " " + y + " ";
    }
    ctx.stroke();
    currentSVG += "\""+ " stroke = \"" + currentStroke + "\" stroke-width = \"" + currentLineWidth.toString() + "\" fill = \"" + "none" + "\" "+"/>";
    /*finish plot one function*/
    
}

// http://www.mhtl.uwaterloo.ca/old/courses/me3532/js/bessel.html


function BesselJ(n,x){
	if (n == null || n.length == 0) return "n not specified";
	if (Math.floor(n) != n) return "Error: n not integer";
	if (n < 2) return "Error: n < 2";
	var ACC = 40.0;		// Make larger to increase accuracy.
	var BIGNO = 1.0e10;
	var BIGNI = 1.0e-10;
	var j,jsum,m,ax,bj,bjm,bjp,sum,tox,ans;
	ax=Math.abs(x);
	if (ax == 0.0) return 0.0;
	else if (ax > n) {
		tox = 2.0/ax;
		bjm=BesselJ0(ax);
		bj=BesselJ1(ax);
		for (j=1;j<n;j++) {
			bjp=j*tox*bj-bjm;
			bjm=bj;
			bj=bjp;
		}
		ans=bj;
	} else {
		tox=2.0/ax;
		if (Math.sqrt(ACC*n) >= 0)
			m=2*((n + Math.floor(Math.sqrt(ACC*n))) / 2);
		else
			m=2*((n + Math.ceil(Math.sqrt(ACC*n))) / 2);
		jsum=0;
		bjp=ans=sum=0.0;
		bj=1.0;
		for (j=m;j>0;j--) {
			bjm=j*tox*bj-bjp;
			bjp=bj;
			bj=bjm;
			if (Math.abs(bj) > BIGNO) {
				bj *= BIGNI;
				bjp *= BIGNI;
				ans *= BIGNI;
				sum *= BIGNI;
			}
			if (jsum) sum += bj;
			jsum=!jsum;
			if (j == n) ans=bjp;
		}
		sum=2.0*sum-bj;
		ans /= sum;
	}
	return x < 0.0 && (n & 1) ? -ans : ans;
}


function BesselJ0(x) {
	var ax,z,xx,y,ans,ans1,ans2;
	ax = Math.abs(x)
	if (ax < 8.0) {
		y = x * x;
		ans1 = 57568490574.0 + y * (-13362590354.0 + y * (651619640.7 + y * (-11214424.18 + y * (77392.33017 + y * (-184.9052456)))));
		ans2 = 57568490411.0 + y * (1029532985.0 + y * (9494680.718 + y * (59272.64853 + y * (267.8532712 + y * 1.0))));
		ans = ans1 / ans2;
	} else {
		z = 8.0 / ax;
		y = z * z;
		xx = ax - 0.785398164;
		ans1 = 1.0 + y * (-0.1098628627e-2 + y * (0.2734510407e-4 + y * (-0.2073370639e-5 + y * 0.2093887211e-6)));
		ans2 = -0.1562499995e-1 + y * (0.1430488765e-3 + y * (-0.6911147651e-5 + y * (0.7621095161e-6 - y * 0.934935152e-7)));
		ans = Math.sqrt(0.636619772 / ax) * (Math.cos(xx) * ans1 - z * Math.sin(xx) * ans2);
	}
	return ans;
}

function BesselJ1(x) {
	var ax,z,xx,y,ans,ans1,ans2;
	ax = Math.abs(x);
	if (ax < 8.0) {
		y=x*x;
		ans1 = x*(72362614232.0+y*(-7895059235.0+y*(242396853.1+y*(-2972611.439+y*(15704.48260+y*(-30.16036606))))));
		ans2 = 144725228442.0+y*(2300535178.0+y*(18583304.74+y*(99447.43394+y*(376.9991397+y*1.0))));
		ans = ans1/ans2;
	} else {
		z=8.0/ax;
		y=z*z;
		xx=ax-2.356194491;
		ans1=1.0+y*(0.183105e-2+y*(-0.3516396496e-4+y*(0.2457520174e-5+y*(-0.240337019e-6))));
		ans2=0.04687499995+y*(-0.2002690873e-3+y*(0.8449199096e-5+y*(-0.88228987e-6+y*0.105787412e-6)));
		ans=Math.sqrt(0.636619772/ax)*(Math.cos(xx)*ans1-z*Math.sin(xx)*ans2);
		if (x < 0.0) ans = -ans;
	}
	return ans;	
}
























</topfunctions>
-->

<!--
<imgurl>

</imgurl>
-->

<!--
<currentjson>
{
    "constants": {},
    "imgurl": "",
    "plotparams": {
        "G": 186.89472398554193,
        "g": 0.04933603059032346,
        "duration": 450.78888054094654,
        "plotwidth": 400,
        "plotheight": 400,
        "x0": 0,
        "y0": 200.00000000000003
    },
    "funcparams": {
        "phi": 0.2688139066614501,
        "T": 1.4465183912692552,
        "X0": 0,
        "Y0": 0
    }
}
</currentjson>
-->

<!--
<equation>
<p>
    <a style="color:blue;" href="http://www.mhtl.uwaterloo.ca/old/courses/me3532/js/bessel.html">http://www.mhtl.uwaterloo.ca/old/courses/me3532/js/bessel.html</a>
</p>
<h2>Bessel Function</h2>
<p style="color:blue">

</p><p class="bigeq">
$$
Y = J_n(X)
$$
</p>


$$
X = g(x - x_0) - X_0
$$
$$
Y = f(X)
$$
    
$$
y = y_0 - G(Y - Y_0)
$$


<p>
    X and Y, and $X_0$ and $Y_0$ in physical units of the System. x and y and x0 and y0 in pixels.  G is in pixels per Y unit and g is in X units per pixel. 
</p>






</equation>
-->
	<path d = "M0 13 L1 13.218985682563726 L2 13.559908731173067 L3 14.127422422302402 L4 14.920491143359271 L5 15.937667977962803 L6 17.177097639675566 L7 18.636520233223905 L8 20.313275835199676 L9 22.204309884490982 L10 24.306179370969005 L11 26.61505980925901 L12 29.12675298275647 L13 31.836695441413326 L14 34.739967735218585 L15 37.831304363738724 L16 41.10510442056477 L17 44.55544291004338 L18 48.17608271224617 L19 51.96048717076454 L20 55.901833276602105 L21 59.99302542018415 L22 64.22670968230761 L23 68.59528863372671 L24 73.09093661200558 L25 77.70561544327325 L26 82.43109057559205 L27 87.2589475897994 L28 92.18060905290427 L29 97.18735167841854 L30 102.2703237573812 L31 107.42056282328576 L32 112.62901351365954 L33 117.88654559065748 L34 123.18397208273292 L35 128.5120675092276 L36 133.86158614958654 L37 139.22328031885147 L38 144.58791861111342 L39 149.94630407272203 L40 155.28929226724023 L41 160.6078091944147 L42 165.89286902578903 L43 171.1355916200284 L44 176.3272197815436 L45 181.45913622660032 L46 186.52288022177564 L47 191.51016386037404 L48 196.41288794323972 L49 201.22315743129985 L50 205.93329643813794 L51 210.53586273193287 L52 215.02366171719734 L53 219.38975986791294 L54 223.62749758488033 L55 227.73050145138637 L56 231.6926958626208 L57 235.5083140056659 L58 239.17190816831464 L59 242.67835935645513 L60 246.02288620128064 L61 249.20105313914613 L62 252.2087778484887 L63 255.04233792985633 L64 257.6983768167461 L65 260.1739089066324 L66 262.4663239032659 L67 264.5733903630435 L68 266.493258439976 L69 268.22446182552324 L70 269.76591888130883 L71 271.11693296447385 L72 272.27719194717093 L73 273.2467669334392 L74 274.02611017842577 L75 274.61605221663484 L76 275.01779820757787 L77 275.2329235088754 L78 275.26336848850764 L79 275.11143258953246 L80 274.7797676621768 L81 274.2713705797599 L82 273.5895751564195 L83 272.73804338608466 L84 271.72075602356 L85 270.54200252996924 L86 269.2063704061242 L87 267.71873393865997 L88 266.0842423849911 L89 264.308307624293 L90 262.3965913028088 L91 260.3549915028077 L92 258.1896289654796 L93 255.9068328989433 L94 253.51312640336965 L95 251.0152115459644 L96 248.41995411923767 L97 245.73436811658001 L98 242.96559995969562 L99 240.12091251288663 L100 237.2076689195494 L101 234.23331629653939 L102 231.20536932226418 L103 228.13139375450248 L104 225.0189899139925 L105 221.8757761698083 L106 218.70937246243295 L107 215.5273839002507 L108 212.33738446491537 L109 209.14690086070823 L110 205.96339654257903 L111 202.79425595706806 L112 199.64676902973375 L113 196.5281159320738 L114 193.44535216020324 L115 190.40539395677615 L116 187.41500410677946 L117 184.48077813691108 L118 181.6091309472718 L119 178.8062839030546 L120 176.07825241281486 L121 173.43083401874395 L122 170.86959702315355 L123 168.39986967412145 L124 166.0267299319269 L125 163.75499583655852 L126 161.5892164951686 L127 159.53366370692035 L128 157.59232424119455 L129 155.76889278362503 L130 154.06676556289352 L131 152.48903466966564 L132 151.03848307746233 L133 149.71758037367604 L134 148.5284792073233 L135 147.47301245850963 L136 146.55269113295813 L137 145.76870298332526 L138 145.12191185739647 L139 144.6128577716391 L140 144.2417577069725 L141 144.00850712201898 L142 143.91268217751195 L143 143.95354266397774 L144 144.13003562326614 L145 144.44079965299227 L146 144.88416988147387 L147 145.4581835992971 L148 146.16058653224056 L149 146.98883973891148 L150 147.94012711513892 L151 149.01136348587596 L152 150.19920326415203 L153 151.50004965543985 L154 152.9100643846812 L155 154.42517792217444 L156 156.04110018351187 L157 157.75333167784257 L158 159.55717507785542 L159 161.44774718409485 L160 163.4199912554764 L161 165.4686896772335 L162 167.58847693691723 L163 169.7738512293117 L164 172.01919132744388 L165 174.31876780092085 L166 176.66675741427693 L167 179.0572571724585 L168 181.48429843779004 L169 183.94186112832367 L170 186.42388796495223 L171 188.92429873467265 L172 191.43700453746348 L173 193.95592198439525 L174 196.474987314816 L175 198.98817040075448 L176 201.48948860705227 L177 203.97302047617677 L178 206.43291920717692 L179 208.86342589882096 L180 211.25888252759987 L181 213.61374463198928 L182 215.92259367513475 L183 218.1801490589583 L184 220.38127976357694 L185 222.52101558687224 L186 224.594557960055 L187 226.5972903161232 L188 228.5247879892185 L189 230.37282762403743 L190 232.1373960756501 L191 233.8146987813178 L192 235.40116758717525 L193 236.89346801395536 L194 238.28850594727777 L195 239.58343373939468 L196 240.77565571068527 L197 241.8628330406114 L198 242.8428880392873 L199 243.71400779226997 L200 244.47464717264845 L201 245.12353121598392 L202 245.65965685513765 L203 246.0822940135086 L204 246.39098605668545 L205 246.58554960399834 L206 246.66607370292581 L207 246.63291837077307 L208 246.48671250948257 L209 246.22835120086495 L210 245.8589923909449 L211 245.38005297349744 L212 244.79320428420473 L213 244.10036701818683 L214 243.3037055849495 L215 242.40562191604621 L216 241.40874874196572 L217 240.31594235592874 L218 239.13027488340538 L219 237.85502607724652 L220 236.49367465935293 L221 235.0498892307868 L222 233.52751877315666 L223 231.93058276497715 L224 230.26326093751752 L225 228.52988269540867 L226 226.73491622796828 L227 224.88295733783775 L228 222.9787180140887 L229 221.0270147774612 L230 219.03275682583143 L231 217.00093400837676 L232 214.93660465720967 L233 212.8448833054859 L234 210.73092832116063 L235 208.59992948566406 L236 206.45709554679885 L237 204.30764177512393 L238 202.15677755298302 L239 200.00969402516364 L240 197.87155183993184 L241 195.7474690088808 L242 193.6425089136616 L243 191.56166848722614 L244 189.50986659671557 L245 187.49193265456506 L246 185.51259548377595 L247 183.576472462626 L248 181.68805897335235 L249 179.8517181785507 L250 178.07167114818785 L251 176.35198735923223 L252 174.69657558895977 L253 173.109175222004 L254 171.59334799018387 L255 170.1524701630671 L256 168.78972520611214 L257 167.50809692208105 L258 166.31036309023168 L259 165.19908961658268 L260 164.17662520730354 L261 163.24509657601428 L262 162.40640419449244 L263 161.66221859497733 L264 161.0139772309409 L265 160.46288190185868 L266 160.00989674617313 L267 159.6557468052908 L268 159.4009171601038 L269 159.24565264017454 L270 159.1899581043744 L271 159.23359929042667 L272 159.37610422947185 L273 159.6167652204563 L274 159.9546413578415 L275 160.38856160484923 L276 160.91712840319585 L277 161.53872180903255 L278 162.25150414359973 L279 163.05342514592536 L280 163.94222761375178 L281 164.91545351776628 L282 165.97045057313917 L283 167.1043792513429 L284 168.3142202142376 L285 169.5967821514669 L286 170.9487100013117 L287 172.3664935343041 L288 173.84647627810952 L289 175.3848647614413 L290 176.97773805408647 L291 178.62105757948908 L292 180.31067717576164 L293 182.04235338048184 L294 183.8117559141734 L295 185.61447833697446 L296 187.44604885266233 L297 189.30194123393045 L298 191.17758584260227 L299 193.06838071831947 L300 194.9697027091567 L301 196.87691861759225 L302 198.78539633530508 L303 200.69051594037194 L304 202.58768073060256 L305 204.47232816697866 L306 206.33994070144934 L307 208.1860564636839 L308 210.00627978178858 L309 211.7962915124601 L310 213.5518591565687 L311 215.26884673674118 L312 216.94322441414477 L313 218.57107782235508 L314 220.14861709692542 L315 221.67218558005618 L316 223.1382681805917 L317 224.5434993704454 L318 225.8846707994693 L319 227.15873851173984 L320 228.36282974722582 L321 229.49424931383248 L322 230.55048551587765 L323 231.52921562614887 L324 232.42831088980756 L325 233.2458410495537 L326 233.98007838262797 L327 234.6295012414166 L328 235.19279709062488 L329 235.66886503520107 L330 236.05681783442026 L331 236.35598339876947 L332 236.5659057675174 L333 236.68634556608905 L334 236.7172799436091 L335 236.65890199221053 L336 236.5116196509348 L337 236.2760540982693 L338 235.95303763857248 L339 235.543611088829 L340 235.0490206733482 L341 234.47071443517217 L342 233.8103381740849 L343 233.0697309222177 L344 232.25091996931548 L345 231.3561154507729 L346 230.3877045125526 L347 229.3482450680726 L348 228.24045916307952 L349 227.06722596542002 L350 225.8315743974689 L351 224.53667542978275 L352 223.18583405530248 L353 221.782480964145 L354 220.3301639396813 L355 218.83253899721515 L356 217.29336128713038 L357 215.7164757848862 L358 214.10580779068528 L359 212.46535326204207 L360 210.79916900281142 L361 209.1113627325276 L362 207.40608306012209 L363 205.68750938626314 L364 203.95984175866224 L365 202.22729070475143 L366 200.4940670661206 L367 198.7643718590466 L368 197.04238618531483 L369 195.33226121736286 L370 193.6381082815289 L371 191.96398906290406 L372 190.3139059549304 L373 188.69179257649188 L374 187.10150447878166 L375 185.54681006372857 L376 184.03138173519952 L377 182.55878730359356 L378 181.13248166378094 L379 179.75579876564495 L380 178.43194389573193 L381 177.16398628773294 L382 175.9548520786849 L383 174.80731762691858 L384 173.72400320687066 L385 172.70736709494557 L386 171.75970005963913 L387 170.88312026814035 L388 170.07956862060178 L389 169.3508045222181 L390 168.6984021021833 L391 168.12374688750393 L392 167.62803293854097 L393 167.21226045202977 L394 166.87723383619715 L395 166.62356026145267 L396 166.45164868898564 L397 166.36170937844972 L398 166.35375387476736 L399 166.4275954729398 " stroke = "red" stroke-width = "4" fill = "none" />	<path d = "M0 200 L1 195.39108066294045 L2 190.7905733534841 L3 186.20687303998957 L4 181.6483406086516 L5 177.12328591315244 L6 172.63995093297132 L7 168.2064930762002 L8 163.83096866239833 L9 159.5213166206236 L10 155.28534243730778 L11 151.1307023880951 L12 147.06488808714275 L13 143.09521138668617 L14 139.22878965890595 L15 135.4725314912965 L16 131.83312282583123 L17 128.31701357124882 L18 124.93040471675042 L19 121.67923597430027 L20 118.56917397556772 L21 115.60560104833533 L22 112.79360459593225 L23 110.1379671019343 L24 107.64315678100708 L25 105.31331889535771 L26 103.15226775480745 L27 101.16347941700789 L28 99.35008510279414 L29 97.71486534011245 L30 96.26024484836903 L31 94.98828817343767 L32 93.900696081927 L33 92.99880272165849 L34 92.28357355363873 L35 91.7556040591343 L36 91.415119223774 L37 91.26197379891609 L38 91.29565333883419 L39 91.51527601059315 L40 91.91959517181382 L41 92.50700270986471 L42 93.27553313437234 L43 94.2228684133169 L44 95.34634354137506 L45 96.64295282759477 L46 98.10935688794046 L47 99.74189032673094 L48 101.53657008951593 L49 103.48910446849877 L50 105.59490274021701 L51 107.84908541384452 L52 110.24649506717789 L53 112.78170774612192 L54 115.4490449022945 L55 118.24258584223449 L56 121.15618066062034 L57 124.18346362888914 L58 127.31786700969735 L59 130.5526352667779 L60 133.88083963893115 L61 137.29539304614102 L62 140.78906529513165 L63 144.35449855107524 L64 147.98422304163566 L65 151.67067295907643 L66 155.40620252578475 L67 159.18310218826298 L68 162.99361490441527 L69 166.82995248881102 L70 170.68431198054128 L71 174.548891998292 L72 178.4159090473509 L73 182.277613743427 L74 186.12630691840877 L75 189.95435557350683 L76 193.75420864562173 L77 197.5184125532505 L78 201.23962648878972 L79 204.91063742470976 L80 208.52437480176422 L81 212.07392486815405 L82 215.55254463939437 L83 218.95367544951705 L84 222.27095606520308 L85 225.49823533544807 L86 228.62958435044308 L87 231.65930808447953 L88 234.58195649887762 L89 237.39233508216637 L90 240.08551480603316 L91 242.65684147688813 L92 245.1019444642602 L93 247.4167447886535 L94 249.5974625529393 L95 251.64062370283983 L96 253.54306610356727 L97 255.30194492121836 L98 256.9147372990816 L99 258.37924632059173 L100 259.693604252255 L101 260.8562750614781 L102 261.86605620583856 L103 262.72207969195864 L104 263.42381240375386 L105 263.9710557014508 L106 264.3639442943705 L107 264.60294439207604 L108 264.6888511400669 L109 264.6227853477718 L110 264.4061895181393 L111 264.04082318964856 L112 263.5287576030603 L113 262.87236970669426 L114 262.07433551545057 L115 261.13762284018947 L116 260.0654834054376 L117 258.8614443747009 L118 257.5292993039338 L119 256.07309854492695 L120 254.49713912154874 L121 252.8059541028792 L122 251.00430149834122 L123 249.09715270092528 L124 247.08968050554185 L125 244.98724673041332 L126 242.795389470222 L127 240.51981001047983 L128 238.1663594332582 L129 235.7410249450226 L130 233.24991595785556 L131 230.69924995581468 L132 228.0953381785691 L133 225.4445711547644 L134 222.75340411783483 L135 220.02834233712895 L136 217.27592639732882 L137 214.50271745916143 L138 211.715282534348 L139 208.92017980761324 L140 206.12394403838513 L141 203.33307207453078 L142 200.55400851014687 L143 197.7931315189999 L144 195.05673889472877 L145 192.35103432837468 L146 189.68211395318227 L147 187.0559531859252 L148 184.4783938932783 L149 181.95513191092599 L150 179.4917049422483 L151 177.09348086248616 L152 174.76564645331246 L153 172.51319659170056 L154 170.3409239158899 L155 168.25340899013563 L156 166.25501098873673 L157 164.34985891861683 L158 162.54184339850548 L159 160.83460901143948 L160 159.23154724600556 L161 157.73579004038783 L162 156.35020394190656 L163 155.07738365482794 L164 153.91965169058966 L165 152.879048666233 L166 151.95733359626075 L167 151.15598040099215 L168 150.4761759267592 L169 149.91881862681402 L170 149.48451790359857 L171 149.17359411152438 L172 148.98607921791287 L173 148.92171811825676 L174 148.97997060048866 L175 149.1600139514817 L176 149.46074619756695 L177 149.88078996943483 L178 150.41849698039374 L179 151.07195310559771 L180 151.83898404852187 L181 152.71716157966756 L182 153.7038103312217 L183 154.79601513017408 L184 155.99062885122373 L185 157.28428076967333 L186 158.67338539343228 L187 160.1541517522165 L188 161.72259312105638 L189 163.37453715430206 L190 165.10563640544885 L191 166.91137920729972 L192 168.7871008862348 L193 170.72799528367494 L194 172.72912655720424 L195 174.7854412332626 L196 176.89178048282812 L197 179.04289259108677 L198 181.23344559173188 L199 183.45804003624863 L200 185.71122186832096 L201 187.9874953733496 L202 190.28133617299014 L203 192.58720423461017 L204 194.89955686562382 L205 197.21286166278946 L206 199.52160938675345 L207 201.82032673238692 L208 204.10358896579362 L209 206.3660323992653 L210 208.60236667592224 L211 210.8073868363047 L212 212.97598513976823 L213 215.10316261418717 L214 217.1840403081785 L215 219.21387022082564 L216 221.18804588470417 L217 223.10211257888645 L218 224.95177714953056 L219 226.73291741663454 L220 228.44159114656054 L221 230.07404457100102 L222 231.6267204341684 L223 233.0962655511376 L224 234.47953786145655 L225 235.77361296335593 L226 236.975790115141 L227 238.0835976916215 L228 239.09479808473924 L229 240.00739203887403 L230 240.81962241264938 L231 241.52997736041695 L232 242.13719292796497 L233 242.64025505837455 L234 243.03840100533003 L235 243.33112015257433 L236 243.51815423958544 L237 243.5994969949304 L238 243.57539318012573 L239 243.44633704819813 L240 243.213070222486 L241 242.87657900255817 L242 242.43809110543734 L243 241.89907185160743 L244 241.26121980654898 L245 240.5264618897835 L246 239.69694796461243 L247 238.77504492290905 L248 237.76333028045477 L249 236.66458529940903 L250 235.4817876555536 L251 234.21810366896455 L252 232.87688011772732 L253 231.4616356552266 L254 229.97605185240758 L255 228.42396388721863 L256 226.80935090420377 L257 225.13632606791685 L258 223.40912633447556 L259 221.63210196616112 L260 219.80970581449728 L261 217.94648239770942 L262 216.04705679886993 L263 214.11612341137885 L264 212.15843455870834 L265 210.1787890155558 L266 208.1820204577017 L267 206.17298586795647 L268 204.15655392560396 L269 202.13759340670808 L270 200.1209616225447 L271 198.11149292325248 L272 196.11398729356517 L273 194.13319906719465 L274 192.17382578607817 L275 190.24049723028944 L276 188.33776464393645 L277 186.47009018183826 L278 184.64183660118115 L279 182.8572572217123 L280 181.12048617732853 L281 179.43552898116963 L282 177.80625342552426 L283 176.2363808370103 L284 174.729477706596 L285 173.2889477130929 L286 171.9180241577723 L287 170.61976282673902 L288 169.3970352966439 L289 168.25252269822792 L290 167.18870995107181 L291 166.20788048177877 L292 165.3121114366434 L293 164.5032693986655 L294 163.78300661754972 L295 163.15275776009972 L296 162.61373718716789 L297 162.1669367620624 L298 161.81312419404694 L299 161.5528419192953 L300 161.3864065203889 L301 161.31390868417137 L302 161.3352136965035 L303 161.44996247119877 L304 161.65757310916567 L305 161.95724298254103 L306 162.34795133737384 L307 162.8284624072098 L308 163.3973290287419 L309 164.05289674952803 L310 164.79330841664193 L311 165.61650923401552 L312 166.5202522751558 L313 167.5021044368783 L314 168.55945281869404 L315 169.68951151152083 L316 170.88932877846517 L317 172.15579460953862 L318 173.4856486313356 L319 174.87548835190987 L320 176.32177772034453 L321 177.8208559798208 L322 179.3689467923497 L323 180.96216761274604 L324 182.59653928889148 L325 184.2679958648577 L326 185.97239456304072 L327 187.70552592109553 L328 189.4631240591567 L329 191.24087705258273 L330 193.03443738528057 L331 194.83943245853385 L332 196.6514751301979 L333 198.46617425911043 L334 200.27914522962627 L335 202.0860204312877 L336 203.8824596688212 L337 205.664160477871 L338 207.42686832217456 L339 209.16638664822042 L340 210.8785867738358 L341 212.55941758759684 L342 214.20491503647085 L343 215.8112113796508 L344 217.3745441871618 L345 218.89126506247098 L346 220.35784806904812 L347 221.7708978415704 L348 223.12715736326876 L349 224.42351539174723 L350 225.6570135164917 L351 226.82485283219597 L352 227.9244002129916 L353 228.95319417364794 L354 229.9089503048316 L355 230.78956627055268 L356 231.59312635700292 L357 232.31790556307732 L358 232.9623732239917 L359 233.52519616053505 L360 234.0052413476471 L361 234.4015780971671 L362 234.7134797507723 L363 234.9404248802968 L364 235.0820979938045 L365 235.1383897469675 L366 235.10939666048333 L367 234.9954203454365 L368 234.7969662396792 L369 234.51474185946242 L370 234.14965457169384 L371 233.70280889332847 L372 233.17550332550815 L373 232.56922673115895 L374 231.88565426582002 L375 231.12664287252227 L376 230.29422635254605 L377 229.3906100248734 L378 228.41816498809723 L379 227.37942199947 L380 226.27706498664799 L381 225.11392420853235 L382 223.89296908240124 L383 222.61730069528915 L384 221.29014401827527 L385 219.914839843014 L386 218.4948364604536 L387 217.03368110226157 L388 215.53501116599398 L389 214.0025452455107 L390 212.44007398855973 L391 210.8514508038086 L392 209.24058243991777 L393 207.61141945949657 L394 205.96794663098868 L395 204.31417326167096 L396 202.65412349504396 L397 200.99182659591838 L398 199.33130724648447 L399 197.67657587656706 " stroke = "green" stroke-width = "4" fill = "none" />	<path d = "M0 200 L1 199.9431477874999 L2 199.77272950622304 L3 199.48915990918206 L4 199.09312919992135 L5 198.58560145780996 L6 197.96781243846107 L7 197.24126675427425 L8 196.40773444150392 L9 195.46924692165106 L10 194.42809236635026 L11 193.28681047627902 L12 192.04818668594592 L13 190.7152458075181 L14 189.29124512812055 L15 187.77966697628094 L16 186.1842107743958 L17 184.50878459526098 L18 182.75749624183103 L19 180.93464387045327 L20 179.04470617885426 L21 177.09233218114088 L22 175.08233059301094 L23 173.0196588512474 L24 170.90941179239462 L25 168.7568100162811 L26 166.5671879607624 L27 164.34598171470324 L28 162.0987165968049 L29 159.83099452840537 L30 157.5484812288379 L31 155.25689326232677 L32 152.96198496572705 L33 150.66953528667432 L34 148.385334561907 L35 146.1151712656505 L36 143.86481875801323 L37 141.64002206333936 L38 139.4464847083923 L39 137.28985565010356 L40 135.17571632242192 L41 133.10960623848234 L42 131.0968683125737 L43 129.1428351897669 L44 127.25269275775254 L45 125.43149753474727 L46 123.6841650474322 L47 122.01545852472283 L48 120.42997793293178 L49 118.9321493771044 L50 117.52621489247232 L51 116.21622264907855 L52 115.00601759168711 L53 113.89923253609642 L54 112.89927974193661 L55 112.00934298094401 L56 111.23237011858082 L57 110.57106622569526 L58 110.0278872357153 L59 109.60503416162605 L60 109.30444788570804 L61 109.12780453371312 L62 109.0765114438248 L63 109.15170373939995 L64 109.35424151311807 L65 109.68470762877524 L66 110.1434061455601 L67 110.73036136823538 L68 111.44531752523176 L69 112.28773907523585 L70 113.25681164143154 L71 114.35144357113184 L72 115.57026811712488 L73 116.91164623564872 L74 118.37366999451775 L75 119.9541665835438 L76 121.65070291803538 L77 123.46059082481877 L78 125.38089279891318 L79 127.4084283177041 L80 129.53978069820357 L81 131.77130448176587 L82 134.09913332943907 L83 136.51918840998692 L84 139.0271872615108 L85 141.61865310653846 L86 144.28892459943296 L87 147.0331659840074 L88 149.84637763831552 L89 152.7234069827286 L90 155.65895972659578 L91 158.6476114280395 L92 161.68381934074029 L93 164.7619345209366 L94 167.8762141672885 L95 171.02083416575078 L96 174.1899018111481 L97 177.3774686767731 L98 180.57754360300282 L99 183.78410577568698 L100 186.99111786487552 L101 190.1925391943358 L102 193.382338912265 L103 196.55450913361736 L104 199.70307802455415 L105 202.8221227996772 L106 205.90578260292412 L107 208.94827124328995 L108 211.94388975688994 L109 214.88703876729315 L110 217.77223061653444 L111 220.59410123975343 L112 223.34742175701257 L113 226.0271097565028 L114 228.62824024407143 L115 231.14605623477786 L116 233.57597896301567 L117 235.91361768862222 L118 238.15477907733094 L119 240.29547613490513 L120 242.33193667531907 L121 244.260611304425 L122 246.07818090166273 L123 247.78156358351256 L124 249.36792113359286 L125 250.8346648855141 L126 252.17946104586497 L127 253.4002354459775 L128 254.49517771243094 L129 255.46274484757453 L130 256.3016642127019 L131 257.01093590786195 L132 257.58983454367655 L133 258.0379104019009 L134 258.35498998286846 L135 258.5411759393401 L136 258.5968463976721 L137 258.52265366860166 L138 258.31952235133076 L139 257.9886468359506 L140 257.5314882106112 L141 256.9497705811679 L142 256.2454768123636 L143 255.420843700891 L144 254.47835659194902 L145 253.420743452145 L146 252.25096841279645 L147 250.97222479885764 L148 249.5879276598243 L149 248.10170582006344 L150 246.51739346705023 L151 244.8390212970075 L152 243.07080723838132 L153 241.21714677448935 L154 239.28260288752756 L155 237.27189564690008 L156 235.1898914655849 L157 233.0415920489017 L158 230.83212306068248 L159 228.56672253237062 L160 226.2507290410835 L161 223.8895696830709 L162 221.48874786938356 L163 219.053832312083 L164 216.59044223115563 L165 214.10423584092612 L166 211.60089810759487 L167 209.0861278637564 L168 206.5656251748145 L169 204.04507872983558 L170 201.5301532852575 L171 199.0264771897062 L172 196.539630017943 L173 194.0751303416733 L174 191.63842366459036 L175 189.23487054861155 L176 186.86973495778363 L177 184.54817284579696 L178 182.27522101244986 L179 180.05578625375068 L180 177.89463482963515 L181 175.79638227251345 L182 173.76548355904544 L183 171.80622366667706 L184 169.92270853555823 L185 168.11885645550188 L186 166.39838989664236 L187 164.7648278014071 L188 163.22147835433202 L189 161.77143224513364 L190 160.4175564392975 L191 159.1624884692601 L192 158.00863125804932 L193 156.95814848601304 L194 156.01296051000546 L195 155.17474084312343 L196 154.44491320178955 L197 153.82464912567085 L198 153.31486617460263 L199 152.91622670536202 L200 152.6291372298038 L201 152.4537483545407 L202 152.38995530101946 L203 152.4373990035195 L204 152.59546778128356 L205 152.86329957968343 L206 153.2397847740317 L207 153.7235695283752 L208 154.31305970034933 L209 155.00642528194047 L210 155.80160536479593 L211 156.69631361754062 L212 157.68804426141233 L213 158.77407852941187 L214 159.95149159308556 L215 161.21715994001693 L216 162.5677691841043 L217 163.9998222897451 L218 165.50964819013515 L219 167.09341077902684 L220 168.74711825447548 L221 170.46663279233806 L222 172.2476805265762 L223 174.08586181275905 L224 175.97666175055807 L225 177.91546094048078 L226 179.89754644960476 L227 181.91812296064222 L228 183.97232407830035 L229 186.05522376659283 L230 188.16184789051326 L231 190.28718583529627 L232 192.42620217636969 L233 194.57384837304213 L234 196.7250744589716 L235 198.87484070252654 L236 201.01812921027673 L237 203.14995544703936 L238 205.26537964615594 L239 207.35951808398423 L240 209.42755419295904 L241 211.4647494880034 L242 213.4664542815567 L243 215.42811816302796 L244 217.34530021907906 L245 219.2136789717917 L246 221.02906201247478 L247 222.78739530961968 L248 224.48477217031152 L249 226.11744183525053 L250 227.68181768842936 L251 229.17448506344357 L252 230.5922086293868 L253 231.93193934029196 L254 233.19082093312554 L255 234.36619596042036 L256 235.4556113447407 L257 236.45682344331047 L258 237.36780261229413 L259 238.18673726140534 L260 238.9120373907187 L261 239.54233760277953 L262 240.07649958433925 L263 240.51361405328586 L264 240.85300216759134 L265 241.09421639435237 L266 241.23704083825945 L267 241.28149103008545 L268 241.22781317703817 L269 241.0764828780675 L270 240.82820330845374 L271 240.48390287922814 L272 240.04473237818513 L273 239.5120616004354 L274 238.88747547761974 L275 238.17276971604852 L276 237.36994595515137 L277 236.4812064587136 L278 235.508948352434 L279 234.45575742236687 L280 233.32440148979862 L281 232.11782337906337 L282 230.83913349571222 L283 229.4916020333203 L284 228.07865082804 L285 226.6038448807874 L286 225.07088356767994 L287 223.48359156002286 L288 221.84590947577334 L289 220.1618842849875 L290 218.43565949227988 L291 216.67146511979277 L292 214.87360751458783 L293 213.0464590047264 L294 211.19444742860549 L295 209.3220455623575 L296 207.43376047030273 L297 205.53412280356952 L298 203.6276760720602 L299 201.7189659149476 L300 199.81252939483366 L301 197.91288434059 L302 196.02451876373019 L303 194.15188037293586 L304 192.29936621107407 L305 190.47131243870166 L306 188.6719842876555 L307 186.90556620787765 L308 185.1761522301179 L309 183.4877365666018 L310 181.84420447114374 L311 180.24932337953 L312 178.70673435029136 L313 177.21994382523755 L314 175.79231572833135 L315 174.42706392064562 L316 173.12724502827172 L317 171.89575165913487 L318 170.73530602372392 L319 169.64845397376143 L320 168.63755947182761 L321 167.70479950391046 L322 166.8521594457888 L323 166.08142889306234 L324 165.3941979635349 L325 164.7918540795246 L326 164.2755792365325 L327 163.84634776354227 L328 163.5049245790563 L329 163.25186394579933 L330 163.08750872584062 L331 163.01199013670535 L332 163.0252280078653 L333 163.1269315358237 L334 163.31660053483876 L335 163.59352717917008 L336 163.95679823158562 L337 164.40529775173064 L338 164.93771027684699 L339 165.55252446623217 L340 166.2480371997566 L341 167.02235811970596 L342 167.87341460419694 L343 168.79895715942067 L344 169.79656521701082 L345 170.86365332190533 L346 171.9974776951851 L347 173.19514315551805 L348 174.45361038203143 L349 175.76970350066154 L350 177.14011797531154 L351 178.5614287844626 L352 180.03009886325836 L353 181.54248779049203 L354 183.0948606993991 L355 184.6833973906676 L356 186.30420162565412 L357 187.9533105774086 L358 189.6267044167926 L359 191.3203160106983 L360 193.030040709167 L361 194.75174619803767 L362 196.48128239365872 L363 198.21449135613904 L364 199.9472171976282 L365 201.67531596216918 L366 203.39466545379253 L367 205.10117498968424 L368 206.79079505549365 L369 208.45952684012013 L370 210.10343162765807 L371 211.71864002455604 L372 213.3013610004916 L373 214.8478907219396 L374 216.35462115795573 L375 217.81804843827155 L376 219.23478094443146 L377 220.60154711536967 L378 221.91520294954458 L379 223.17273918649963 L380 224.3712881515199 L381 225.50813024787993 L382 226.58070008205158 L383 227.58659220813516 L384 228.5235664787133 L385 229.38955299028106 L386 230.18265661239676 L387 230.90116109070246 L388 231.5435327149971 L389 232.10842354459348 L390 232.5946741842559 L391 233.00131610509644 L392 233.32757350589685 L393 233.57286471142444 L394 233.7368031054151 L395 233.81919759700492 L396 233.82005262050347 L397 233.73956766950752 L398 233.57813636745857 L399 233.3363450778437 " stroke = "blue" stroke-width = "4" fill = "none" /></svg>