<svg width="372.55279383549293" height="490.1480247034604" viewbox = "0 0 372.55279383549293 490.1480247034604"  xmlns="http://www.w3.org/2000/svg">

<!--
<topfunctions>






function YofX(){
//foobar foobar
    X = plotparams.g*(x - plotparams.x0) - funcparams.X0;
    Y = Math.sin(funcparams.phi + (Math.PI*2*X/funcparams.T));
    y = plotparams.y0 - plotparams.G*(Y - funcparams.Y0);
}

//foo
function YofX2(){
    X = plotparams.g*(x - plotparams.x0) - funcparams.X0;
    Y = Math.sin(0.5*Math.PI + funcparams.phi + (Math.PI*2*X/funcparams.T));    
    y = plotparams.y0 - plotparams.G*(Y - funcparams.Y0);
 }



function plotfunction(){

/*
    currentStroke = "blue";
    currentLineWidth = 4;
    ctx.strokeStyle = currentStroke;
    ctx.lineWidth = currentLineWidth;
    ctx.beginPath();	
    x = 0;
    y = 0;
    t= 0;
    XYofT();
    currentSVG += "	<path d = \"M";
    currentSVG += Math.round(x).toString() + " ";
    currentSVG += Math.round(y).toString() + " ";
    for(t = 1;t < plotparams.duration;t++){
        ctx.moveTo(x,y);
        XYofT();
        ctx.lineTo(x,y);
        currentSVG += "L" + x + " " + y + " ";
    }
    ctx.stroke();
    currentSVG += "\""+ " stroke = \"" + currentStroke + "\" stroke-width = \"" + currentLineWidth.toString() + "\" fill = \"" + "none" + "\" "+"/>";


    /*plot one function:*/
    currentStroke = "blue";
    currentLineWidth = 4;
    ctx.strokeStyle = currentStroke;
    ctx.lineWidth = currentLineWidth;
    ctx.beginPath();	
    x = 0;
    YofX();
    currentSVG += "	<path d = \"M";
    currentSVG += Math.round(x).toString() + " ";
    currentSVG += Math.round(y).toString() + " ";
    for(x = 1;x < plotparams.plotwidth;x++){
        ctx.moveTo(x-1,y);
        YofX();
        ctx.lineTo(x,y);
        currentSVG += "L" + x + " " + y + " ";
    }
    ctx.stroke();
    currentSVG += "\""+ " stroke = \"" + currentStroke + "\" stroke-width = \"" + currentLineWidth.toString() + "\" fill = \"" + "none" + "\" "+"/>";
    /*finish plot one function*/
    
    

}

























</topfunctions>
-->

<!--
<imgurl>

</imgurl>
-->

<!--
<currentjson>
{
    "constants": {},
    "imgurl": "",
    "plotparams": {
        "G": 28.96643797366877,
        "g": 0.017985878990921366,
        "duration": 409.8080732190423,
        "plotwidth": 372.55279383549293,
        "plotheight": 490.1480247034604,
        "x0": 92.12624699075768,
        "y0": 223.48293984071955
    },
    "funcparams": {
        "phi": 2196.150000000003,
        "T": 0.7136847570346335,
        "X0": 0,
        "Y0": 0
    }
}
</currentjson>
-->

<!--
<equation>



<h2>Sin</h2>
<p style="color:blue">

</p><p class="bigeq">
$$
Y = \sin{\left(\phi + \frac{2\pi X}{T}\right)}

$$
</p>
<p></p>

$$
X = g(x - x_0) - X_0
$$
$$
Y = f(X)
$$
    
$$
y = y_0 - G(Y - Y_0)
$$


<p>
    X and Y, and $X_0$ and $Y_0$ in physical units of the System. x and y and x0 and y0 in pixels.  G is in pixels per Y unit and g is in X units per pixel. 
</p>




</equation>
-->
	<path d = "M0 196 L1 194.70952614153748 L2 194.54307404923898 L3 195.10072291395804 L4 196.36851986944671 L5 198.31474351812184 L6 200.89069762840003 L7 204.03192955734482 L8 207.65984291261805 L9 211.68366410349856 L10 216.0027135762003 L11 220.50892490500303 L12 225.08954870954605 L13 229.6299737437198 L14 234.01659457009058 L15 238.13965406810595 L16 241.8959896540083 L17 245.19161449967598 L18 247.944069165862 L19 250.08448481010893 L20 251.5593063458942 L21 252.33163243811188 L22 252.3821388070112 L23 251.70956173871613 L24 250.3307297044511 L25 248.28014229736544 L26 245.6091070222907 L27 242.38445553673498 L28 238.68687146389004 L29 234.608871617244 L30 230.25249114835282 L31 225.72673053733837 L32 221.1448283048501 L33 216.62142768439196 L34 212.2697081475568 L35 208.19855355386204 L36 204.509827780587 L37 201.29582599876295 L38 198.6369653665865 L39 196.59977292127672 L40 195.23522101391174 L41 194.57745193627485 L42 194.64292365061254 L43 195.42999799690875 L44 196.91898168108756 L45 199.07261901861264 L46 201.8370241045354 L47 205.14302908636049 L48 208.90791480469392 L49 213.03748049954086 L50 217.42840079637296 L51 221.97081099809608 L52 226.55105599662124 L53 231.0545340239256 L54 235.36856408924868 L55 239.38520535687923 L56 243.00395792101796 L57 246.13427740202673 L58 248.6978404466356 L59 250.63050444729126 L60 251.88391244676967 L61 252.4267030718467 L62 252.24529522253005 L63 251.34422788314828 L64 249.7460465529614 L65 247.49073913789172 L66 244.63473541787147 L67 241.249495123963 L68 237.41971995293392 L69 233.24123425609554 L70 228.81858742955654 L71 224.262437996156 L72 219.68678483165968 L73 215.2061148123935 L74 210.93253825260922 L75 206.9729838056566 L76 203.42652301475079 L77 200.38189145562748 L78 197.91526849420399 L79 196.08837121168023 L80 194.9469101887564 L81 194.51944578659183 L82 194.8166735414082 L83 195.8311565527283 L84 197.53751156118705 L85 199.8930440600601 L86 202.83881654946376 L87 206.30112320455385 L88 210.19333406028738 L89 214.41806256946595 L90 218.86960230004604 L91 223.43657180325587 L92 228.0047014756436 L93 232.45969268530152 L94 236.6900776243967 L95 240.59000833204635 L96 244.06190510354753 L97 247.01889802066972 L98 249.3870005135853 L99 251.10696057007726 L100 252.13574327312446 L101 252.44760757246755 L102 252.03475034838308 L103 250.90750165261207 L104 249.09406624136483 L105 246.63981786745123 L106 243.60616398898165 L107 240.06900930062494 L108 236.11685653122623 L109 231.8485920275152 L110 227.37101153047772 L111 222.79614805183303 L112 218.23846870925826 L113 213.81201065819545 L114 209.62752778168155 L115 205.7897195305481 L116 202.394611250862 L117 199.5271515450684 L118 197.25908678312067 L119 195.64716594500842 L120 194.7317207112559 L121 194.53565632871636 L122 195.06387850110173 L123 196.30317064394578 L124 198.22252457521623 L125 200.7739163673463 L126 203.8935079482551 L127 207.5032443861915 L128 211.512806892944 L129 215.82187267955152 L130 220.32262512091995 L131 224.9024514228909 L132 229.4467602935595 L133 233.84184911847882 L134 237.9777489003069 L135 241.75097578007458 L136 245.06712029457393 L137 247.84320958435683 L138 250.00978344786185 L139 251.51263229684926 L140 252.31415352812652 L141 252.39429237382356 L142 251.7510436893664 L143 250.4005021239622 L144 248.3764594182862 L145 245.7295589053458 L146 242.52602836960693 L147 238.84602296948233 L148 234.78161968457027 L149 230.43451346845197 L150 225.9134727512932 L151 221.33161795782564 L152 216.80359113459994 L153 212.44268750485494 L154 208.35802072222305 L155 204.65179275086376 L156 201.41673668222688 L157 198.73379647134607 L158 196.67010164771938 L159 195.27728767529936 L160 194.59020398764636 L161 194.62604202439974 L162 195.38390508628322 L163 196.84483077131634 L164 198.9722654308303 L165 201.7129787739853 L166 204.99839573656772 L167 208.7463122895954 L168 212.8629522565417 L169 217.24531367598627 L170 221.78374600149326 L171 226.36469365495677 L172 230.87353728728164 L173 235.19746165554028 L174 239.22827835986348 L175 242.86513281251536 L176 246.0170277086475 L177 248.60509985908166 L178 250.5645934168328 L179 251.84648012549292 L180 252.4186860494317 L181 252.2668940919485 L182 251.3949022216447 L183 249.82452844390937 L184 247.59506489518597 L185 244.7622947190764 L186 241.3970963229068 L187 237.58366993748604 L188 233.41743085310785 L189 229.00262204481606 L190 224.4497059213343 L191 219.8726004581635 L192 215.3858288694102 L193 211.10165413599992 L194 207.12727008691738 L195 203.5621193151071 L196 200.49540503608472 L197 198.00385914489948 L198 196.14982231642742 L199 194.97968418673366 L200 194.52272264347883 L201 194.79037126735653 L202 195.77593325382037 L203 197.45474897305112 L204 199.78481297561922 L205 202.70782500587288 L206 206.15064872573328 L207 210.02714165035422 L208 214.24031050904074 L209 218.68473810238322 L210 223.24922093357952 L211 227.81955161789142 L212 232.2813764521524 L213 236.52305664522873 L214 240.43846161900032 L215 243.92962448899547 L216 246.9091932822055 L217 249.30261656049615 L218 251.05000876326682 L219 252.10764859701086 L220 252.44907298061688 L221 252.06573917498926 L222 250.96723852991215 L223 249.18105650002767 L224 246.75188493450574 L225 243.74050384760585 L226 240.22226064911493 L227 236.2851848857283 L228 232.02778566417996 L229 227.55658686654107 L230 222.98346182878683 L231 218.42283417124432 L232 213.9888148188086 L233 209.79234684494332 L234 205.9384295781825 L235 202.52349142635757 L236 199.6329771528171 L237 197.33920997311512 L238 195.69958196439794 L239 194.75511806501686 L240 194.52944959442937 L241 195.02822297673083 L242 196.2389584621511 L243 198.13136238139654 L244 200.6580851199644 L245 203.75590584723378 L246 207.34731435742373 L247 211.3424504432257 L248 215.64135227744984 L249 220.1364575460649 L250 224.71529475212782 L251 229.26329735179812 L252 233.66667031026032 L253 237.81523735387265 L254 241.60519767759519 L255 244.94172313269905 L256 247.7413309106405 L257 249.93397235653327 L258 251.46478564825256 L259 252.29546848759236 L260 252.4052364575432 L261 251.79134306671634 L262 250.46914846899108 L263 248.4717351389191 L264 245.84908011904395 L265 242.66680455023416 L266 239.00453177289472 L267 234.95389508074686 L268 230.6162449750933 L269 226.10011328587902 L270 221.51849760962847 L271 216.9860340099559 L272 212.61612872218444 L273 208.51812062936486 L274 204.79454550697642 L275 201.5385704874941 L276 198.83166293654494 L277 196.7415520676064 L278 195.32053429737147 L279 194.60416474329583 L280 194.6103676032116 L281 195.33898767609196 L282 196.77179424532753 L283 198.87293722731704 L284 201.58984417217246 L285 204.8545356727648 L286 208.5853262694247 L287 212.68886829216166 L288 217.06248750165446 L289 221.5967520892929 L290 226.1782107574348 L291 230.69223137094727 L292 235.0258691542811 L293 239.07069266933328 L294 242.72549686562706 L295 245.89883531989437 L296 248.51130830624479 L297 250.49754944725572 L298 251.807861238404 L299 252.40945852343495 L300 252.28728880787713 L301 251.44440888572515 L302 249.90190835576405 L303 247.6983819411946 L304 244.88896381565812 L305 241.5439480975869 L306 237.74703002938978 L307 233.59321184869654 L308 229.18642574861377 L309 224.6369334026341 L310 220.05856712030072 L311 215.56588166254016 L312 211.2712879804944 L313 207.282240594429 L314 203.69854898689817 L315 200.60988028149427 L316 198.0935156923663 L317 196.21241688007984 L318 195.01365059540245 L319 194.5272110276725 L320 194.76526932374537 L321 195.72186905516855 L322 197.373075253273 L323 199.67757328318396 L324 202.5777025724391 L325 206.0008993293083 L326 209.8615121528636 L327 214.06294510653942 L328 218.50007463362945 L329 223.06187984135815 L330 227.63422034149957 L331 232.1026921435107 L332 236.35549014328998 L333 240.28620558537847 L334 243.79648850388872 L335 246.7985085253487 L336 249.21715246208203 L337 250.99190371038736 L338 252.07835642931553 L339 252.44932661397104 L340 252.09553226326278 L341 251.02582562376926 L342 249.2669716987205 L343 246.86297856401978 L344 243.87399624738464 L345 240.3748117216328 L346 236.45297766864437 L347 232.20662183413066 L348 227.74199178488286 L349 223.17079650098685 L350 218.60741131865302 L351 214.16601615846486 L352 209.9577386431105 L353 206.08787358623985 L354 202.65324842346575 L355 199.73980050450783 L356 197.42042686494804 L357 195.7531602781305 L358 194.77971722400773 L359 194.52445410603235 L360 194.9937578324681 L361 196.1758860103184 L362 198.0412607503468 L363 200.5432087319448 L364 203.6191290107633 L365 207.19205934953243 L366 211.17260188109202 L367 215.46115992183323 L368 219.9504299685819 L369 224.5280865267788 L370 229.07959259343394 L371 233.4910654739114 L372 237.65212622735407 " stroke = "blue" stroke-width = "4" fill = "none" /></svg>