<svg width="372.55279383549293" height="490.1480247034604" viewbox = "0 0 372.55279383549293 490.1480247034604"  xmlns="http://www.w3.org/2000/svg">

<!--
<topfunctions>






function YofX(){
//foobar foobar
    X = plotparams.g*(x - plotparams.x0) - funcparams.X0;
    Y = Math.sin(funcparams.phi + (Math.PI*2*X/funcparams.T));
    y = plotparams.y0 - plotparams.G*(Y - funcparams.Y0);
}

//foo
function YofX2(){
    X = plotparams.g*(x - plotparams.x0) - funcparams.X0;
    Y = Math.sin(0.5*Math.PI + funcparams.phi + (Math.PI*2*X/funcparams.T));    
    y = plotparams.y0 - plotparams.G*(Y - funcparams.Y0);
 }



function plotfunction(){

/*
    currentStroke = "blue";
    currentLineWidth = 4;
    ctx.strokeStyle = currentStroke;
    ctx.lineWidth = currentLineWidth;
    ctx.beginPath();	
    x = 0;
    y = 0;
    t= 0;
    XYofT();
    currentSVG += "	<path d = \"M";
    currentSVG += Math.round(x).toString() + " ";
    currentSVG += Math.round(y).toString() + " ";
    for(t = 1;t < plotparams.duration;t++){
        ctx.moveTo(x,y);
        XYofT();
        ctx.lineTo(x,y);
        currentSVG += "L" + x + " " + y + " ";
    }
    ctx.stroke();
    currentSVG += "\""+ " stroke = \"" + currentStroke + "\" stroke-width = \"" + currentLineWidth.toString() + "\" fill = \"" + "none" + "\" "+"/>";


    /*plot one function:*/
    currentStroke = "blue";
    currentLineWidth = 4;
    ctx.strokeStyle = currentStroke;
    ctx.lineWidth = currentLineWidth;
    ctx.beginPath();	
    x = 0;
    YofX();
    currentSVG += "	<path d = \"M";
    currentSVG += Math.round(x).toString() + " ";
    currentSVG += Math.round(y).toString() + " ";
    for(x = 1;x < plotparams.plotwidth;x++){
        ctx.moveTo(x-1,y);
        YofX();
        ctx.lineTo(x,y);
        currentSVG += "L" + x + " " + y + " ";
    }
    ctx.stroke();
    currentSVG += "\""+ " stroke = \"" + currentStroke + "\" stroke-width = \"" + currentLineWidth.toString() + "\" fill = \"" + "none" + "\" "+"/>";
    /*finish plot one function*/
    
    

}

























</topfunctions>
-->

<!--
<imgurl>

</imgurl>
-->

<!--
<currentjson>
{
    "constants": {},
    "imgurl": "",
    "plotparams": {
        "G": 146.41000000000008,
        "g": 0.003914251301220405,
        "duration": 409.8080732190423,
        "plotwidth": 372.55279383549293,
        "plotheight": 490.1480247034604,
        "x0": 92.12624699075768,
        "y0": 223.48293984071955
    },
    "funcparams": {
        "phi": 2196.150000000003,
        "T": 0.7136847570346335,
        "X0": 0,
        "Y0": 0
    }
}
</currentjson>
-->

<!--
<equation>



<h2>Sin</h2>
<p style="color:blue">

</p><p class="bigeq">
$$
Y = \sin{\left(\phi + \frac{2\pi X}{T}\right)}

$$
</p>
<p></p>

$$
X = g(x - x_0) - X_0
$$
$$
Y = f(X)
$$
    
$$
y = y_0 - G(Y - Y_0)
$$


<p>
    X and Y, and $X_0$ and $Y_0$ in physical units of the System. x and y and x0 and y0 in pixels.  G is in pixels per Y unit and g is in X units per pixel. 
</p>




</equation>
-->
	<path d = "M0 203 L1 197.54962257617797 L2 192.60041186534866 L3 187.6878714297343 L4 182.81783447721216 L5 177.99608374678434 L6 173.22834464157202 L7 168.5202784309135 L8 163.87747552760368 L9 159.30544885026922 L10 154.80962727677462 L11 150.39534919839144 L12 146.06785618045578 L13 141.83228673888257 L14 137.6936702384515 L15 133.6569209207221 L16 129.72683206918458 L17 125.90807031723313 L18 122.20517010736543 L19 118.62252830652973 L20 115.16439898562402 L21 111.83488836778479 L22 108.6379499529742 L23 105.57737982319686 L24 102.65681213532484 L25 99.87971480553435 L26 97.24938539176964 L27 94.76894717789114 L28 92.4413454653291 L29 90.2693440755366 L30 88.25552206844105 L31 86.40227067980922 L32 84.71179048207824 L33 83.18608877117481 L34 81.8269771832066 L35 80.63606954314363 L36 79.61477994868685 L37 78.76432109102635 L38 78.0857028149855 L39 77.57973091982947 L40 77.24700620252159 L41 77.08792374427642 L42 77.1026724414709 L43 77.2912347813297 L44 77.65338686271875 L45 78.18869866202772 L46 78.89653454374695 L47 79.77605401528507 L48 80.82621272490499 L49 82.0457637018921 L50 83.43325883711123 L51 84.98705060263694 L52 86.70529400790116 L53 88.58594879062039 L54 90.62678183924598 L55 92.82536984478497 L56 95.17910217805056 L57 97.68518398978556 L58 100.34063952905079 L59 103.14231567693103 L60 106.08688569030514 L61 109.17085315235525 L62 112.39055612394259 L63 115.74217149216197 L64 119.22171950961135 L65 122.82506852034389 L66 126.5479398654776 L67 130.38591296410507 L68 134.33443056195023 L69 138.38880414311035 L70 142.544219496838 L71 146.79574243441914 L72 151.13832464764815 L73 155.56680970369632 L74 160.07593916746288 L75 164.66035884596903 L76 169.31462514551416 L77 174.033211535946 L78 178.8105151124364 L79 183.6408632489337 L80 188.51852033340157 L81 193.4376945788611 L82 198.39254490011228 L83 203.37718785002554 L84 208.38570460509314 L85 213.41214799403534 L86 218.45054955901284 L87 223.49492664317367 L88 228.5392894939984 L89 233.57764837613465 L90 238.60402068314673 L91 243.61243804186395 L92 248.5969533987668 L93 253.55164808211595 L94 258.47063882932673 L95 263.3480847733465 L96 268.17819437764973 L97 272.95523231369083 L98 277.67352627059074 L99 282.3274736910092 L100 286.9115484231892 L101 291.42030728326523 L102 295.8483965180799 L103 300.1905581627687 L104 304.441636283662 L105 308.5965831009588 L106 312.65046498207164 L107 316.5984683003173 L108 320.4359051502464 L109 324.1582189145333 L110 327.76098967415214 L111 331.2399394570333 L112 334.59093731739705 L113 337.8100042412542 L114 340.89331787078027 L115 343.8372170433675 L116 346.63820613860696 L117 349.2929592293396 L118 351.7983240306057 L119 354.151325642985 L120 356.34917008476265 L121 358.3892476097841 L122 360.2691358060663 L123 361.98660247241355 L124 363.5396082687605 L125 364.92630913789026 L126 366.1450584949248 L127 367.1944091826464 L128 368.0731151897395 L129 368.78013313043084 L130 369.3146234833242 L131 369.67595158833353 L132 369.86368840022845 L133 369.87761099812633 L134 369.7177028501712 L135 369.3841538331651 L136 368.87736000712334 L137 368.19792314495277 L138 367.34665001795327 L139 366.3245514377762 L140 365.13284105626474 L141 363.77293392424144 L142 362.2464448113865 L143 360.5551862886973 L144 358.70116657638187 L145 356.68658715909623 L146 354.513840172071 L147 352.1855055604499 L148 349.7043480160618 L149 347.07331369434735 L150 344.295526716322 L151 341.37428545867965 L152 338.3130586375553 L153 335.11548118942255 L154 331.78534995525024 L155 328.3266191717521 L156 324.74339577643065 L157 321.03993453058706 L158 317.2206329675456 L159 313.2900261705805 L160 309.2527813883077 L161 305.1136924923249 L162 300.8776742852814 L163 296.54975666483006 L164 292.1350786508907 L165 287.63888228392057 L166 283.0665063999881 L167 278.42338029185106 L168 273.7150172616683 L169 268.9470080749302 L170 264.1250143214214 L171 259.25476169308587 L172 254.3420331847649 L173 249.39266222791454 L174 244.4125257634032 L175 239.4075372636849 L176 234.38363971054778 L177 229.34679853887587 L178 224.30299455269196 L179 219.25821682401212 L180 214.2184555808196 L181 209.1896950947301 L182 204.1779065746659 L183 199.18904107710316 L184 194.22902243918898 L185 189.3037402452341 L186 184.41904283282858 L187 179.58073034897643 L188 174.79454786241834 L189 170.06617854237984 L190 165.4012369098051 L191 160.8052621711075 L192 156.28371164035934 L193 151.84195425969773 L194 147.4852642237032 L195 143.2188147172277 L196 139.04767177223482 L197 134.97678825278416 L198 131.01099797350278 L199 127.15500996028622 L200 123.41340285832806 L201 119.79061949578949 L202 116.29096160793873 L203 112.91858472960212 L204 109.67749326046449 L205 106.57153571055372 L206 103.60440013013302 L207 100.77960973079456 L208 98.10051870164381 L209 95.570308226794 L210 93.19198270770843 L211 90.96836619600577 L212 88.90209903989734 L213 86.99563474924125 L214 85.25123708199814 L215 83.67097735641957 L216 82.25673199135645 L217 81.01018027834414 L218 79.93280238744273 L219 79.02587760979733 L220 78.29048283847914 L221 77.72749128986564 L222 77.33757146669575 L223 77.12118636434121 L224 77.07859292099931 L225 77.2098417126243 L226 77.51477689286833 L227 77.99303637812162 L228 78.64405227748665 L229 79.46705156704826 L230 80.4610570078398 L231 81.62488830614134 L232 82.95716351507917 L233 84.45630067544286 L234 86.12051969426264 L235 87.94784445835458 L236 89.93610518095605 L237 92.082940977963 L238 94.3858026714814 L239 96.84195581652419 L240 99.44848394816624 L241 102.20229204433001 L242 105.10011020112567 L243 108.13849751528294 L244 111.31384617022559 L245 114.62238571971442 L246 118.06018756525435 L247 121.6231696206092 L248 125.30710115928126 L249 129.10760783774964 L250 133.0201768900056 L251 137.04016248566268 L252 141.16279124688305 L253 145.38316791591785 L254 149.69628116822872 L255 154.0970095625478 L256 158.5801276225921 L257 163.14031204139093 L258 167.77214800271582 L259 172.47013561021572 L260 177.22869641854678 L261 182.04218005678808 L262 186.90487093826022 L263 191.81099504677206 L264 196.75472679326802 L265 201.73019593268322 L266 206.73149453486263 L267 211.75268399918173 L268 216.78780210663774 L269 221.83087009892893 L270 226.87589977823293 L271 231.91690061713132 L272 236.94788687236382 L273 241.96288469183844 L274 246.95593920858389 L275 251.92112161109932 L276 256.85253618382126 L277 261.7443273072414 L278 266.590686411458 L279 271.385858872824 L280 276.1241508475649 L281 280.79993603221084 L282 285.40766234483397 L283 289.9418585171629 L284 294.39714059171666 L285 298.76821831430004 L286 303.049901416184 L287 307.23710577663 L288 311.3248594602861 L289 315.3083086204798 L290 319.18272326316327 L291 322.94350286294355 L292 326.58618182620904 L293 330.10643479323073 L294 333.5000817745294 L295 336.76309311387257 L296 339.8915942734935 L297 342.88187043441854 L298 345.7303709078165 L299 348.4337133508129 L300 350.9886877830238 L301 353.3922603978391 L302 355.64157716506907 L303 357.73396721960046 L304 359.6669460330493 L305 361.43821836369926 L306 363.0456809821015 L307 364.4874251682877 L308 365.7617389783759 L309 366.8671092772005 L310 367.80222353516115 L311 368.56597138662823 L312 369.15744594845773 L313 369.5759448968482 L314 369.8209713012395 L315 369.89223421441784 L316 369.78964901796417 L317 369.5133375227386 L318 369.06362782425174 L319 368.44105391305084 L320 367.64635504070077 L321 366.68047484192226 L322 365.544560214193 L323 364.23995995580594 L324 362.7682231644108 L325 361.1310973974592 L326 359.33052659729003 L327 357.3686487826967 L328 355.2477935104088 L329 352.9704791087421 L330 350.5394096875294 L331 347.95747192698946 L332 345.22773165030463 L333 342.35343018295487 L334 339.3379805042175 L335 336.1849631942528 L336 332.89812218279883 L337 329.48136030325327 L338 325.93873465874987 L339 322.2744518043464 L340 318.4928627524857 L341 314.5984578061656 L342 310.5958612275001 L343 306.48982574640536 L344 302.2852269175746 L345 297.9870573307547 L346 293.6004206829296 L347 289.13052571767815 L348 284.58268004071306 L349 279.96228381709665 L350 275.2748233595013 L351 270.52586461321016 L352 265.721046547543 L353 260.8660744595771 L354 255.9667132001177 L355 251.0287803279345 L356 246.05813920244094 L357 241.060692020952 L358 236.04237281087003 L359 231.00914038302443 L360 225.96697125663889 L361 220.92185256221182 L362 215.87977493285933 L363 210.84672539043518 L364 205.82868023700283 L365 200.8315979579735 L366 195.86141214746016 L367 190.92402446213143 L368 186.02529761403954 L369 181.1710484086467 L370 176.3670408383988 L371 171.6189792379815 L372 166.93250151143303 " stroke = "blue" stroke-width = "4" fill = "none" /></svg>