<svg width="400" height="400" viewbox = "0 0 400 400"  xmlns="http://www.w3.org/2000/svg">

<!--
<topfunctions>







function YofX(){
    X = plotparams.g*(x - plotparams.x0) - funcparams.X0;
    Y = funcparams.a*X*X + funcparams.b*X + funcparams.c;
    y = plotparams.y0 - plotparams.G*(Y - funcparams.Y0);
}


function YofX2(){
    X = plotparams.g*(x - plotparams.x0) - funcparams.X0;
    Y = funcparams.b*X*X + funcparams.c*X + funcparams.d;
    y = plotparams.y0 - plotparams.G*(Y - funcparams.Y0);
 }

function XYofT(){
    T = plotparams.g*t;
    X = Math.exp(-T/funcparams.tau)*Math.cos(2*Math.PI*T/funcparams.T);
    Y = Math.exp(-T/funcparams.tau)*Math.sin(2*Math.PI*T/funcparams.T);
    y = plotparams.y0 - plotparams.G*(Y - funcparams.Y0);
    x = plotparams.x0 - plotparams.G*(X - funcparams.X0);    
}


function plotfunction(){
/*

    currentStroke = "blue";
    currentLineWidth = 4;
    ctx.strokeStyle = currentStroke;
    ctx.lineWidth = currentLineWidth;
    ctx.beginPath();	
    x = 0;
    y = 0;
    t= 0;
    XYofT();
    currentSVG += "	<path d = \"M";
    currentSVG += Math.round(x).toString() + " ";
    currentSVG += Math.round(y).toString() + " ";
    for(t = 1;t < plotparams.duration;t++){
        ctx.moveTo(x,y);
        XYofT();
        ctx.lineTo(x,y);
        currentSVG += "L" + x + " " + y + " ";
    }
    ctx.stroke();
    currentSVG += "\""+ " stroke = \"" + currentStroke + "\" stroke-width = \"" + currentLineWidth.toString() + "\" fill = \"" + "none" + "\" "+"/>";


    /*plot one function:*/
    currentStroke = "blue";
    currentLineWidth = 4;
    ctx.strokeStyle = currentStroke;
    ctx.lineWidth = currentLineWidth;
    ctx.beginPath();	
    x = 0;
    YofX();
    currentSVG += "	<path d = \"M";
    currentSVG += Math.round(x).toString() + " ";
    currentSVG += Math.round(y).toString() + " ";
    for(x = 1;x < plotparams.plotwidth;x++){
        ctx.moveTo(x-1,y);
        YofX();
        ctx.lineTo(x,y);
        currentSVG += "L" + x + " " + y + " ";
    }
    ctx.stroke();
    currentSVG += "\""+ " stroke = \"" + currentStroke + "\" stroke-width = \"" + currentLineWidth.toString() + "\" fill = \"" + "none" + "\" "+"/>";
    /*finish plot one function*/
    

}
























</topfunctions>
-->

<!--
<imgurl>

</imgurl>
-->

<!--
<currentjson>
{
    "constants": {},
    "imgurl": "",
    "plotparams": {
        "G": 100.79476910000022,
        "g": 0.017985878990921366,
        "duration": 545.4545454545454,
        "plotwidth": 400,
        "plotheight": 400,
        "x0": 200,
        "y0": 247.93388429752062
    },
    "funcparams": {
        "a": 0.12727272727272726,
        "b": 0,
        "c": 0,
        "X0": 0,
        "Y0": 0
    }
}
</currentjson>
-->

<!--
<equation>


<h2>Parabola</h2>
<p style="color:blue">

</p><p class="bigeq">
$$
Y = aX^2 + bX
 + c$$
</p>
<p></p>

$$
X = g(x - x_0) - X_0
$$
$$
Y = f(X)
$$
    
$$
y = y_0 - G(Y - Y_0)
$$


<p>
    X and Y, and $X_0$ and $Y_0$ in physical units of the System. x and y and x0 and y0 in pixels.  G is in pixels per Y unit and g is in X units per pixel. 
</p>



</equation>
-->
	<path d = "M0 82 L1 83.59405483855085 L2 85.24156152512975 L3 86.88076842991231 L4 88.51167555289845 L5 90.13428289408824 L6 91.74859045348165 L7 93.35459823107871 L8 94.95230622687947 L9 96.54171444088377 L10 98.12282287309174 L11 99.6956315235033 L12 101.26014039211853 L13 102.81634947893738 L14 104.36425878395988 L15 105.90386830718603 L16 107.4351780486158 L17 108.95818800824915 L18 110.47289818608618 L19 111.97930858212683 L20 113.47741919637113 L21 114.96723002881905 L22 116.44874107947064 L23 117.92195234832582 L24 119.38686383538462 L25 120.84347554064705 L26 122.29178746411316 L27 123.73179960578288 L28 125.16351196565621 L29 126.58692454373323 L30 128.00203734001383 L31 129.4088503544981 L32 130.807363587186 L33 132.19757703807747 L34 133.57949070717262 L35 134.95310459447143 L36 136.31841869997382 L37 137.67543302367983 L38 139.02414756558954 L39 140.36456232570285 L40 141.69667730401977 L41 143.02049250054037 L42 144.3360079152646 L43 145.64322354819245 L44 146.94213939932388 L45 148.232755468659 L46 149.51507175619776 L47 150.7890882619401 L48 152.0548049858861 L49 153.31222192803577 L50 154.56133908838905 L51 155.80215646694595 L52 157.03467406370646 L53 158.25889187867062 L54 159.47480991183843 L55 160.68242816320986 L56 161.88174663278497 L57 163.07276532056366 L58 164.255484226546 L59 165.42990335073193 L60 166.59602269312154 L61 167.75384225371477 L62 168.90336203251167 L63 170.04458202951216 L64 171.17750224471627 L65 172.30212267812405 L66 173.41844332973542 L67 174.52646419955045 L68 175.62618528756911 L69 176.7176065937914 L70 177.80072811821736 L71 178.8755498608469 L72 179.9420718216801 L73 181.0002940007169 L74 182.05021639795737 L75 183.09183901340145 L76 184.12516184704918 L77 185.15018489890056 L78 186.16690816895553 L79 187.17533165721414 L80 188.1754553636764 L81 189.16727928834229 L82 190.1508034312118 L83 191.12602779228496 L84 192.09295237156175 L85 193.05157716904216 L86 194.00190218472622 L87 194.9439274186139 L88 195.87765287070522 L89 196.80307854100016 L90 197.72020442949875 L91 198.62903053620096 L92 199.5295568611068 L93 200.42178340421628 L94 201.3057101655294 L95 202.18133714504614 L96 203.04866434276653 L97 203.90769175869053 L98 204.75841939281818 L99 205.60084724514945 L100 206.43497531568437 L101 207.2608036044229 L102 208.07833211136509 L103 208.8875608365109 L104 209.68848977986033 L105 210.4811189414134 L106 211.26544832117008 L107 212.04147791913044 L108 212.80920773529442 L109 213.56863776966202 L110 214.31976802223323 L111 215.06259849300812 L112 215.79712918198663 L113 216.52336008916876 L114 217.2412912145545 L115 217.95092255814393 L116 218.65225411993697 L117 219.34528589993363 L118 220.0300178981339 L119 220.70645011453786 L120 221.3745825491454 L121 222.03441520195662 L122 222.68594807297143 L123 223.3291811621899 L124 223.96411446961199 L125 224.59074799523773 L126 225.20908173906707 L127 225.8191157011001 L128 226.42084988133672 L129 227.01428427977697 L130 227.59941889642084 L131 228.1762537312684 L132 228.74478878431952 L133 229.30502405557434 L134 229.85695954503274 L135 230.4005952526948 L136 230.93593117856048 L137 231.46296732262982 L138 231.98170368490275 L139 232.49214026537936 L140 232.99427706405956 L141 233.4881140809434 L142 233.9736513160309 L143 234.450888769322 L144 234.91982644081676 L145 235.38046433051517 L146 235.83280243841716 L147 236.27684076452283 L148 236.7125793088321 L149 237.14001807134503 L150 237.55915705206155 L151 237.96999625098172 L152 238.37253566810554 L153 238.76677530343298 L154 239.15271515696406 L155 239.53035522869877 L156 239.89969551863712 L157 240.26073602677909 L158 240.6134767531247 L159 240.95791769767393 L160 241.29405886042682 L161 241.62190024138332 L162 241.94144184054346 L163 242.25268365790723 L164 242.55562569347464 L165 242.85026794724567 L166 243.13661041922035 L167 243.41465310939864 L168 243.68439601778059 L169 243.94583914436615 L170 244.19898248915536 L171 244.44382605214818 L172 244.68036983334466 L173 244.90861383274475 L174 245.1285580503485 L175 245.34020248615585 L176 245.54354714016685 L177 245.73859201238147 L178 245.92533710279974 L179 246.10378241142163 L180 246.27392793824717 L181 246.43577368327632 L182 246.58931964650913 L183 246.73456582794554 L184 246.8715122275856 L185 247.0001588454293 L186 247.12050568147663 L187 247.23255273572758 L188 247.33630000818218 L189 247.4317474988404 L190 247.51889520770226 L191 247.59774313476774 L192 247.66829128003687 L193 247.73053964350962 L194 247.784488225186 L195 247.83013702506602 L196 247.86748604314968 L197 247.89653527943696 L198 247.9172847339279 L199 247.92973440662243 L200 247.93388429752062 L201 247.92973440662243 L202 247.9172847339279 L203 247.89653527943696 L204 247.86748604314968 L205 247.83013702506602 L206 247.784488225186 L207 247.73053964350962 L208 247.66829128003687 L209 247.59774313476774 L210 247.51889520770226 L211 247.4317474988404 L212 247.33630000818218 L213 247.23255273572758 L214 247.12050568147663 L215 247.0001588454293 L216 246.8715122275856 L217 246.73456582794554 L218 246.58931964650913 L219 246.43577368327632 L220 246.27392793824717 L221 246.10378241142163 L222 245.92533710279974 L223 245.73859201238147 L224 245.54354714016685 L225 245.34020248615585 L226 245.1285580503485 L227 244.90861383274475 L228 244.68036983334466 L229 244.44382605214818 L230 244.19898248915536 L231 243.94583914436615 L232 243.68439601778059 L233 243.41465310939864 L234 243.13661041922035 L235 242.85026794724567 L236 242.55562569347464 L237 242.25268365790723 L238 241.94144184054346 L239 241.62190024138332 L240 241.29405886042682 L241 240.95791769767393 L242 240.6134767531247 L243 240.26073602677909 L244 239.89969551863712 L245 239.53035522869877 L246 239.15271515696406 L247 238.76677530343298 L248 238.37253566810554 L249 237.96999625098172 L250 237.55915705206155 L251 237.14001807134503 L252 236.7125793088321 L253 236.27684076452283 L254 235.83280243841716 L255 235.38046433051517 L256 234.91982644081676 L257 234.450888769322 L258 233.9736513160309 L259 233.4881140809434 L260 232.99427706405956 L261 232.49214026537936 L262 231.98170368490275 L263 231.46296732262982 L264 230.93593117856048 L265 230.4005952526948 L266 229.85695954503274 L267 229.30502405557434 L268 228.74478878431952 L269 228.1762537312684 L270 227.59941889642084 L271 227.01428427977697 L272 226.42084988133672 L273 225.8191157011001 L274 225.20908173906707 L275 224.59074799523773 L276 223.96411446961199 L277 223.3291811621899 L278 222.68594807297143 L279 222.03441520195662 L280 221.3745825491454 L281 220.70645011453786 L282 220.0300178981339 L283 219.34528589993363 L284 218.65225411993697 L285 217.95092255814393 L286 217.2412912145545 L287 216.52336008916876 L288 215.79712918198663 L289 215.06259849300812 L290 214.31976802223323 L291 213.56863776966202 L292 212.80920773529442 L293 212.04147791913044 L294 211.26544832117008 L295 210.4811189414134 L296 209.68848977986033 L297 208.8875608365109 L298 208.07833211136509 L299 207.2608036044229 L300 206.43497531568437 L301 205.60084724514945 L302 204.75841939281818 L303 203.90769175869053 L304 203.04866434276653 L305 202.18133714504614 L306 201.3057101655294 L307 200.42178340421628 L308 199.5295568611068 L309 198.62903053620096 L310 197.72020442949875 L311 196.80307854100016 L312 195.87765287070522 L313 194.9439274186139 L314 194.00190218472622 L315 193.05157716904216 L316 192.09295237156175 L317 191.12602779228496 L318 190.1508034312118 L319 189.16727928834229 L320 188.1754553636764 L321 187.17533165721414 L322 186.16690816895553 L323 185.15018489890056 L324 184.12516184704918 L325 183.09183901340145 L326 182.05021639795737 L327 181.0002940007169 L328 179.9420718216801 L329 178.8755498608469 L330 177.80072811821736 L331 176.7176065937914 L332 175.62618528756911 L333 174.52646419955045 L334 173.41844332973542 L335 172.30212267812405 L336 171.17750224471627 L337 170.04458202951216 L338 168.90336203251167 L339 167.75384225371477 L340 166.59602269312154 L341 165.42990335073193 L342 164.255484226546 L343 163.07276532056366 L344 161.88174663278497 L345 160.68242816320986 L346 159.47480991183843 L347 158.25889187867062 L348 157.03467406370646 L349 155.80215646694595 L350 154.56133908838905 L351 153.31222192803577 L352 152.0548049858861 L353 150.7890882619401 L354 149.51507175619776 L355 148.232755468659 L356 146.94213939932388 L357 145.64322354819245 L358 144.3360079152646 L359 143.02049250054037 L360 141.69667730401977 L361 140.36456232570285 L362 139.02414756558954 L363 137.67543302367983 L364 136.31841869997382 L365 134.95310459447143 L366 133.57949070717262 L367 132.19757703807747 L368 130.807363587186 L369 129.4088503544981 L370 128.00203734001383 L371 126.58692454373323 L372 125.16351196565621 L373 123.73179960578288 L374 122.29178746411316 L375 120.84347554064705 L376 119.38686383538462 L377 117.92195234832582 L378 116.44874107947064 L379 114.96723002881905 L380 113.47741919637113 L381 111.97930858212683 L382 110.47289818608618 L383 108.95818800824915 L384 107.4351780486158 L385 105.90386830718603 L386 104.36425878395988 L387 102.81634947893738 L388 101.26014039211853 L389 99.6956315235033 L390 98.12282287309174 L391 96.54171444088377 L392 94.95230622687947 L393 93.35459823107871 L394 91.74859045348165 L395 90.13428289408824 L396 88.51167555289845 L397 86.88076842991231 L398 85.24156152512975 L399 83.59405483855085 " stroke = "blue" stroke-width = "4" fill = "none" /></svg>