<svg width="200" height="400" viewbox = "0 0 200 400"  xmlns="http://www.w3.org/2000/svg">

<!--
<json>
{
    "imgurl": "",
    "imgw": 2.983971328437751,
    "imgleft": -1.4873205904167783,
    "imgtop": -1.0519856642188752,
    "imgangle": 0,
    "svgwidth": 200,
    "svgheight": 400,
    "unit": 100,
    "x0": 684,
    "y0": 399,
    "x0rel": 0,
    "y0rel": 0,
    "glyph": "0210,0336,0336,0330,0337,0337,0231,0331,0331,0335,0335,0331,0331,0336,0331,0337,0330,0233,",
    "table": []
}
</json>
-->
  <path d="M12.596795110235789 178.14919877755898           A87.40320488976421 87.40320488976421 0 0 1 24.306604193287924 134.44759633267685" fill = "none" stroke = "black" stroke-width = "6" />
  <path d="M24.306604193287924 134.44759633267685           A87.40320488976421 87.40320488976421 0 0 1 56.298397555117916 102.45580297084688" fill = "none" stroke = "black" stroke-width = "6" />
  <path d="M56.298397555117916 102.45580297084688           A87.40320488976421 87.40320488976421 0 0 1 100 90.74599388779474" fill = "none" stroke = "black" stroke-width = "6" />
  <path d="M122.62161402846874 93.72418587410071           A87.40320488976421 87.40320488976421 0 0 1 133.44775844692415 97.39916670401537" fill = "none" stroke = "black" stroke-width = "6" />
  <path d="M99.99999999999999 90.74599388779474           A87.40320488976421 87.40320488976421 0 0 1 122.62161402846874 93.72418587410071" fill = "none" stroke = "black" stroke-width = "6" />
  <path d="M153.20769990863488 108.80757422610529           A87.40320488976421 87.40320488976421 0 0 1 169.34162455145366 124.94149886892409" fill = "none" stroke = "black" stroke-width = "6" />
  <path d="M169.34162455145366 124.94149886892409           A87.40320488976421 87.40320488976421 0 0 1 180.75003207354357 144.7014403306348" fill = "none" stroke = "black" stroke-width = "6" />
  <path d="M180.75003207354357 144.7014403306348           A87.40320488976421 87.40320488976421 0 0 1 186.655458355559 166.74079125546902" fill = "none" stroke = "black" stroke-width = "6" />
  <path d="M186.655458355559 166.74079125546902           A87.40320488976421 87.40320488976421 0 0 1 187.4032048897642 178.14919877755892" fill = "none" stroke = "black" stroke-width = "6" />
  <path d="M99.99999999999996 26.762407164134785           A87.40320488976421 87.40320488976421 0 0 1 131.99179336182993 58.754200525964734" fill = "none" stroke = "black" stroke-width = "6" />
  <path d="M131.99179336182993 58.754200525964734           A87.40320488976421 87.40320488976421 0 0 1 143.7016024448821 102.45580297084683" fill = "none" stroke = "black" stroke-width = "6" />
  <path d="M143.7016024448821 102.45580297084683           A87.40320488976421 87.40320488976421 0 0 1 131.99179336183 146.15740541572893" fill = "none" stroke = "black" stroke-width = "6" />
  <path d="M118.1017964301074 164.25920184583632           A87.40320488976421 87.40320488976421 0 0 1 109.50609746375278 171.7974275223005" fill = "none" stroke = "black" stroke-width = "6" />
  <path d="M131.99179336183 146.15740541572893           A87.40320488976421 87.40320488976421 0 0 1 118.1017964301074 164.25920184583632" fill = "none" stroke = "black" stroke-width = "6" />
  <path d="M89.7461560020421 183.20583504439043           A87.40320488976421 87.40320488976421 0 0 1 67.70680507720783 189.1112613264059" fill = "none" stroke = "black" stroke-width = "6" />
  <path d="M67.70680507720783 189.1112613264059           A87.40320488976421 87.40320488976421 0 0 1 44.88999003302799 189.1112613264059" fill = "none" stroke = "black" stroke-width = "6" />
  <path d="M44.88999003302799 189.1112613264059           A87.40320488976421 87.40320488976421 0 0 1 22.850639108193732 183.20583504439045" fill = "none" stroke = "black" stroke-width = "6" />
  <path d="M22.850639108193747 183.20583504439048           A87.40320488976421 87.40320488976421 0 0 1 12.596795110235824 178.14919877755898" fill = "none" stroke = "black" stroke-width = "6" />
  <path d="M187.40320488976423 178.1491987775589           A87.40320488976421 87.40320488976421 0 0 1 143.70160244488216 189.85900786061103" fill = "none" stroke = "black" stroke-width = "6" />
  <path d="M143.70160244488216 189.85900786061103           A87.40320488976421 87.40320488976421 0 0 1 100.00000000000006 178.14919877755892" fill = "none" stroke = "black" stroke-width = "6" />
  <path d="M100.00000000000006 178.14919877755892           A87.40320488976421 87.40320488976421 0 0 1 68.00820663817004 146.15740541572896" fill = "none" stroke = "black" stroke-width = "6" />
  <path d="M59.276589541423874 125.0774169993156           A87.40320488976421 87.40320488976421 0 0 1 57.04614408932308 113.86421049293679" fill = "none" stroke = "black" stroke-width = "6" />
  <path d="M68.00820663817002 146.15740541572893           A87.40320488976421 87.40320488976421 0 0 1 59.276589541423874 125.0774169993156" fill = "none" stroke = "black" stroke-width = "6" />
  <path d="M57.046144089323064 91.04739544875697           A87.40320488976421 87.40320488976421 0 0 1 62.95157037133849 69.00804452392275" fill = "none" stroke = "black" stroke-width = "6" />
  <path d="M62.95157037133849 69.00804452392275           A87.40320488976421 87.40320488976421 0 0 1 74.35997789342838 49.24810306221207" fill = "none" stroke = "black" stroke-width = "6" />
  <path d="M74.35997789342838 49.24810306221207           A87.40320488976421 87.40320488976421 0 0 1 90.49390253624716 33.11417841939324" fill = "none" stroke = "black" stroke-width = "6" />
  <path d="M90.49390253624716 33.11417841939324           A87.40320488976421 87.40320488976421 0 0 1 99.99999999999996 26.76240716413477" fill = "none" stroke = "black" stroke-width = "6" />
<circle cx="100" cy = "27" r = "6" stroke = "black" stroke-width = "6" fill = "black" />
<circle cx="187" cy = "178" r = "6" stroke = "black" stroke-width = "6" fill = "black" />
<circle cx="13" cy = "178" r = "6" stroke = "black" stroke-width = "6" fill = "black" />
  <path d="M100.00000000000011 309.2540061122051           A87.40320488976421 87.40320488976421 0 0 1 56.29839755511805 297.544197029153" fill = "none" stroke = "black" stroke-width = "6" />
  <path d="M122.62161402846883 306.27581412589916           A87.40320488976421 87.40320488976421 0 0 1 100.00000000000011 309.2540061122051" fill = "none" stroke = "black" stroke-width = "6" />
  <path d="M133.44775844692424 302.6008332959845           A87.40320488976421 87.40320488976421 0 0 1 122.62161402846876 306.27581412589916" fill = "none" stroke = "black" stroke-width = "6" />
  <path d="M161.80339887498968 283.65420009743025           A87.40320488976421 87.40320488976421 0 0 1 153.20769990863505 291.1924257738945" fill = "none" stroke = "black" stroke-width = "6" />
  <path d="M169.3416245514539 275.05850113107556           A87.40320488976421 87.40320488976421 0 0 1 161.80339887498968 283.65420009743025" fill = "none" stroke = "black" stroke-width = "6" />
  <path d="M175.69339580671232 265.5524036673227           A87.40320488976421 87.40320488976421 0 0 1 169.3416245514539 275.05850113107556" fill = "none" stroke = "black" stroke-width = "6" />
  <path d="M180.75003207354382 255.29855966936472           A87.40320488976421 87.40320488976421 0 0 1 175.69339580671232 265.5524036673227" fill = "none" stroke = "black" stroke-width = "6" />
  <path d="M184.42501290345842 244.47241525090925           A87.40320488976421 87.40320488976421 0 0 1 180.75003207354382 255.29855966936472" fill = "none" stroke = "black" stroke-width = "6" />
  <path d="M186.65545835555918 233.25920874453033           A87.40320488976421 87.40320488976421 0 0 1 184.42501290345842 244.47241525090925" fill = "none" stroke = "black" stroke-width = "6" />
  <path d="M187.4032048897643 221.85080122244034           A87.40320488976421 87.40320488976421 0 0 1 186.65545835555918 233.25920874453033" fill = "none" stroke = "black" stroke-width = "6" />
  <path d="M56.298397555118456 297.5441970291532           A87.40320488976421 87.40320488976421 0 0 1 12.596795110235874 221.85080122244156" fill = "none" stroke = "black" stroke-width = "6" />
  <path d="M131.9917933618303 253.84259458427073           A87.40320488976421 87.40320488976421 0 0 1 143.70160244488267 297.5441970291527" fill = "none" stroke = "black" stroke-width = "6" />
  <path d="M118.10179643010764 235.74079815416343           A87.40320488976421 87.40320488976421 0 0 1 131.9917933618304 253.84259458427084" fill = "none" stroke = "black" stroke-width = "6" />
  <path d="M109.50609746375292 228.20257247769928           A87.40320488976421 87.40320488976421 0 0 1 118.10179643010764 235.74079815416343" fill = "none" stroke = "black" stroke-width = "6" />
  <path d="M78.92001158358654 213.1191841256948           A87.40320488976421 87.40320488976421 0 0 1 89.74615600204206 216.7941649556094" fill = "none" stroke = "black" stroke-width = "6" />
  <path d="M67.70680507720763 210.8887386735941           A87.40320488976421 87.40320488976421 0 0 1 78.92001158358654 213.1191841256948" fill = "none" stroke = "black" stroke-width = "6" />
  <path d="M56.29839755511764 210.14099213938903           A87.40320488976421 87.40320488976421 0 0 1 67.70680507720763 210.8887386735941" fill = "none" stroke = "black" stroke-width = "6" />
  <path d="M44.88999003302767 210.88873867359433           A87.40320488976421 87.40320488976421 0 0 1 56.29839755511764 210.14099213938903" fill = "none" stroke = "black" stroke-width = "6" />
  <path d="M33.6767835266488 213.11918412569526           A87.40320488976421 87.40320488976421 0 0 1 44.88999003302767 210.88873867359433" fill = "none" stroke = "black" stroke-width = "6" />
  <path d="M22.850639108193363 216.79416495561003           A87.40320488976421 87.40320488976421 0 0 1 33.6767835266488 213.11918412569526" fill = "none" stroke = "black" stroke-width = "6" />
  <path d="M12.59679511023542 221.8508012224417           A87.40320488976421 87.40320488976421 0 0 1 22.850639108193363 216.79416495561003" fill = "none" stroke = "black" stroke-width = "6" />
  <path d="M143.70160244488267 297.54419702915226           A87.40320488976421 87.40320488976421 0 0 1 100.00000000000149 373.23759283586475" fill = "none" stroke = "black" stroke-width = "6" />
  <path d="M68.00820663817001 253.84259458427118           A87.40320488976421 87.40320488976421 0 0 1 99.9999999999995 221.8508012224408" fill = "none" stroke = "black" stroke-width = "6" />
  <path d="M59.276589541424144 274.9225830006846           A87.40320488976421 87.40320488976421 0 0 1 68.00820663817008 253.84259458427104" fill = "none" stroke = "black" stroke-width = "6" />
  <path d="M57.04614408932348 286.1357895070635           A87.40320488976421 87.40320488976421 0 0 1 59.276589541424144 274.9225830006846" fill = "none" stroke = "black" stroke-width = "6" />
  <path d="M59.2765895414248 320.16581105762236           A87.40320488976421 87.40320488976421 0 0 1 57.04614408932382 308.9526045512435" fill = "none" stroke = "black" stroke-width = "6" />
  <path d="M62.951570371339656 330.9919554760778           A87.40320488976421 87.40320488976421 0 0 1 59.2765895414248 320.16581105762236" fill = "none" stroke = "black" stroke-width = "6" />
  <path d="M68.00820663817136 341.2457994740357           A87.40320488976421 87.40320488976421 0 0 1 62.951570371339656 330.9919554760778" fill = "none" stroke = "black" stroke-width = "6" />
  <path d="M74.35997789342998 350.7518969377884           A87.40320488976421 87.40320488976421 0 0 1 68.00820663817136 341.2457994740357" fill = "none" stroke = "black" stroke-width = "6" />
  <path d="M81.89820356989435 359.3475959041429           A87.40320488976421 87.40320488976421 0 0 1 74.35997789342998 350.7518969377884" fill = "none" stroke = "black" stroke-width = "6" />
  <path d="M90.49390253624918 366.88582158060694           A87.40320488976421 87.40320488976421 0 0 1 81.89820356989435 359.3475959041429" fill = "none" stroke = "black" stroke-width = "6" />
  <path d="M100.0000000000021 373.2375928358652           A87.40320488976421 87.40320488976421 0 0 1 90.49390253624918 366.88582158060694" fill = "none" stroke = "black" stroke-width = "6" />
  <path d="M99.99999999999909 221.85080122244102           A87.40320488976421 87.40320488976421 0 0 1 187.40320488976323 221.8508012224393" fill = "none" stroke = "black" stroke-width = "6" />
<circle cx="13" cy = "222" r = "6" stroke = "black" stroke-width = "6" fill = "black" />
<circle cx="100" cy = "373" r = "6" stroke = "black" stroke-width = "6" fill = "black" />
<circle cx="187" cy = "222" r = "6" stroke = "black" stroke-width = "6" fill = "black" />
</svg>