<svg width="400" height="400" viewbox = "0 0 400 400"  xmlns="http://www.w3.org/2000/svg">

<!--
<topfunctions>












function YofX(){
    X = plotparams.g*(x - plotparams.x0) - funcparams.X0;
    if(X == 0){
        Y = funcparams.G*(funcparams.Tn + funcparams.T);
    }   
    else{
        Y = funcparams.G*(funcparams.Tn +  X/Math.tanh(X/funcparams.T));
    }
    y = plotparams.y0 - plotparams.G*(Y - funcparams.Y0);
}



function plotfunction(){
/*

    currentStroke = "blue";
    currentLineWidth = 4;
    ctx.strokeStyle = currentStroke;
    ctx.lineWidth = currentLineWidth;
    ctx.beginPath();	
    x = 0;
    y = 0;
    t= 0;
    XYofT();
    currentSVG += "	<path d = \"M";
    currentSVG += Math.round(x).toString() + " ";
    currentSVG += Math.round(y).toString() + " ";
    for(t = 1;t < plotparams.duration;t++){
        ctx.moveTo(x,y);
        XYofT();
        ctx.lineTo(x,y);
        currentSVG += "L" + x + " " + y + " ";
    }
    ctx.stroke();
    currentSVG += "\""+ " stroke = \"" + currentStroke + "\" stroke-width = \"" + currentLineWidth.toString() + "\" fill = \"" + "none" + "\" "+"/>";


    /*plot one function:*/
    currentStroke = "blue";
    currentLineWidth = 4;
    ctx.strokeStyle = currentStroke;
    ctx.lineWidth = currentLineWidth;
    ctx.beginPath();	
    x = 0;
    YofX();
    currentSVG += "	<path d = \"M";
    currentSVG += Math.round(x).toString() + " ";
    currentSVG += Math.round(y).toString() + " ";
    for(x = 1;x < plotparams.plotwidth;x++){
        ctx.moveTo(x-1,y);
        YofX();
        ctx.lineTo(x,y);
        currentSVG += "L" + x + " " + y + " ";
    }
    ctx.stroke();
    currentSVG += "\""+ " stroke = \"" + currentStroke + "\" stroke-width = \"" + currentLineWidth.toString() + "\" fill = \"" + "none" + "\" "+"/>";
    /*finish plot one function*/
    

}
































</topfunctions>
-->

<!--
<imgurl>

</imgurl>
-->

<!--
<currentjson>
{
    "constants": {},
    "imgurl": "",
    "plotparams": {
        "G": 0.1698744598089914,
        "g": 6.626407607736663,
        "duration": 545.4545454545454,
        "plotwidth": 400,
        "plotheight": 400,
        "x0": 200,
        "y0": 400
    },
    "funcparams": {
        "T": 142.04293198443187,
        "Tn": 602.400691612424,
        "G": 1,
        "X0": 0,
        "Y0": 0
    }
}
</currentjson>
-->

<!--
<equation>

<h2>Shot Noise from Tunnel Junction at low Frequency</h2>

<p style="color:blue">

</p><p class="bigeq">
$$
Y = G(T_N  +  X\coth{X/T})$$
</p>
<p></p>

$$
X = g(x - x_0) - X_0
$$
$$
Y = f(X)
$$
    
$$
y = y_0 - G(Y - Y_0)
$$


<p>
    X and Y, and $X_0$ and $Y_0$ in physical units of the System. x and y and x0 and y0 in pixels.  G is in pixels per Y unit and g is in X units per pixel. 
</p>







</equation>
-->
	<path d = "M0 73 L1 73.66167889860805 L2 74.78733595430896 L3 75.91299297717228 L4 77.03864996419105 L5 78.16430691208404 L6 79.28996381727126 L7 80.41562067584636 L8 81.54127748354762 L9 82.66693423572548 L10 83.79259092730769 L11 84.9182475527607 L12 86.04390410604822 L13 87.16956058058588 L14 88.29521696919159 L15 89.42087326403174 L16 90.54652945656221 L17 91.67218553746466 L18 92.7978414965765 L19 93.92349732281525 L20 95.04915300409533 L21 96.17480852723833 L22 97.3004638778745 L23 98.42611904033606 L24 99.55177399754035 L25 100.67742873086337 L26 101.80308322000138 L27 102.92873744282088 L28 104.0543913751942 L29 105.18004499082184 L30 106.305698261038 L31 107.43135115459967 L32 108.55700363745626 L33 109.68265567249938 L34 110.80830721929095 L35 111.93395823376602 L36 113.05960866791065 L37 114.18525846941077 L38 115.31090758127056 L39 116.43655594139665 L40 117.56220348214663 L41 118.68785012983727 L42 119.81349580420988 L43 120.93914041784916 L44 122.06478387555092 L45 123.19042607363446 L46 124.31606689919545 L47 125.44170622929329 L48 126.56734393006815 L49 127.69297985578055 L50 128.81861384776852 L51 129.94424573331372 L52 131.06987532440957 L53 132.1955024164228 L54 133.32112678663958 L55 134.44674819268613 L56 135.57236637081343 L57 136.69798103403446 L58 137.82359187010144 L59 138.94919853930975 L60 140.0748006721139 L61 141.2003978665399 L62 142.32598968537638 L63 143.4515756531274 L64 144.57715525270524 L65 145.70272792184306 L66 146.82829304920367 L67 147.953849970159 L68 149.07939796221345 L69 150.20493624004166 L70 151.33046395010967 L71 152.4559801648437 L72 153.58148387631198 L73 154.70697398937813 L74 155.83244931428368 L75 156.95790855861443 L76 158.08335031859966 L77 159.2087730696916 L78 160.33417515636694 L79 161.45955478108883 L80 162.58490999236182 L81 163.71023867180904 L82 164.83553852019344 L83 165.96080704230053 L84 167.0860415305942 L85 168.21123904754864 L86 169.3363964065552 L87 170.46151015129348 L88 171.58657653344858 L89 172.71159148864893 L90 173.83655061048873 L91 174.96144912249068 L92 176.08628184785437 L93 177.211043176825 L94 178.33572703150514 L95 179.4603268279227 L96 180.5848354351525 L97 181.70924513127886 L98 182.83354755596986 L99 183.95773365942324 L100 185.08179364742332 L101 186.20571692223865 L102 187.32949201906877 L103 188.4531065377328 L104 189.57654706927647 L105 190.6997991171529 L106 191.82284701261506 L107 192.94567382393825 L108 194.068261259071 L109 195.19058956129115 L110 196.31263739742522 L111 197.43438173816696 L112 198.55579773001065 L113 199.67685855829376 L114 200.79753530082428 L115 201.9177967715463 L116 203.0376093536807 L117 204.15693682175805 L118 205.27574015194602 L119 206.3939773200571 L120 207.51160308661176 L121 208.62856876832166 L122 209.74482199534978 L123 210.860306453705 L124 211.97496161212493 L125 213.08872243281294 L126 214.20151906540426 L127 215.31327652355637 L128 216.42391434358646 L129 217.5333462246127 L130 218.64147964970286 L131 219.74821548758771 L132 220.85344757456588 L133 221.95706227630708 L134 223.05893802935563 L135 224.15894486224803 L136 225.2569438962861 L137 226.35278682615422 L138 227.44631538073668 L139 228.53736076467823 L140 229.6257430814438 L141 230.71127073886626 L142 231.7937398384334 L143 232.8729335498499 L144 233.94862147272477 L145 235.02055898757425 L146 236.0884865986996 L147 237.15212927189472 L148 238.21119577036114 L149 239.2653779926577 L150 240.31435031698297 L151 241.35776895658523 L152 242.39527133160496 L153 243.42647546318378 L154 244.4509793962086 L155 245.46836065760053 L156 246.47817575759257 L157 247.47995974196522 L158 248.4732258037109 L159 249.45746496306856 L160 250.4321458252973 L161 251.39671442592865 L162 252.35059417353597 L163 253.29318590027842 L164 254.2238680305882 L165 255.14199687837265 L166 256.04690708296744 L167 256.93791219379744 L168 257.81430541325744 L169 258.6753605067023 L170 259.52033288762516 L171 260.34846088508834 L172 261.15896719924865 L173 261.95106054938674 L174 262.72393751719494 L175 263.4767845862228 L176 264.2087803763133 L177 264.9190980696165 L178 265.6069080223449 L179 266.2713805538823 L180 266.9116889021841 L181 267.5270123316708 L182 268.1165393770514 L183 268.6794712037655 L184 269.2150250630698 L185 269.72243781725456 L186 270.20096950813354 L187 270.6499069398559 L188 271.0685672453044 L189 271.4563014039254 L190 271.8124976778331 L191 272.1365849324884 L192 272.42803580821095 L193 272.68636970926457 L194 272.9111555782786 L195 273.1020144253378 L196 273.25862158317636 L197 273.3807086625296 L198 273.4680651847907 L199 273.52053987264367 L200 273.538041583236 L201 273.52053987264367 L202 273.4680651847907 L203 273.3807086625296 L204 273.25862158317636 L205 273.1020144253378 L206 272.9111555782786 L207 272.68636970926457 L208 272.42803580821095 L209 272.1365849324884 L210 271.8124976778331 L211 271.4563014039254 L212 271.0685672453044 L213 270.6499069398559 L214 270.20096950813354 L215 269.72243781725456 L216 269.2150250630698 L217 268.6794712037655 L218 268.1165393770514 L219 267.5270123316708 L220 266.9116889021841 L221 266.2713805538823 L222 265.6069080223449 L223 264.9190980696165 L224 264.2087803763133 L225 263.4767845862228 L226 262.72393751719494 L227 261.95106054938674 L228 261.15896719924865 L229 260.34846088508834 L230 259.52033288762516 L231 258.6753605067023 L232 257.81430541325744 L233 256.93791219379744 L234 256.04690708296744 L235 255.14199687837265 L236 254.2238680305882 L237 253.29318590027842 L238 252.35059417353597 L239 251.39671442592865 L240 250.4321458252973 L241 249.45746496306856 L242 248.4732258037109 L243 247.47995974196522 L244 246.47817575759257 L245 245.46836065760053 L246 244.4509793962086 L247 243.42647546318378 L248 242.39527133160496 L249 241.35776895658523 L250 240.31435031698297 L251 239.2653779926577 L252 238.21119577036114 L253 237.15212927189472 L254 236.0884865986996 L255 235.02055898757425 L256 233.94862147272477 L257 232.8729335498499 L258 231.7937398384334 L259 230.71127073886626 L260 229.6257430814438 L261 228.53736076467823 L262 227.44631538073668 L263 226.35278682615422 L264 225.2569438962861 L265 224.15894486224803 L266 223.05893802935563 L267 221.95706227630708 L268 220.85344757456588 L269 219.74821548758771 L270 218.64147964970286 L271 217.5333462246127 L272 216.42391434358646 L273 215.31327652355637 L274 214.20151906540426 L275 213.08872243281294 L276 211.97496161212493 L277 210.860306453705 L278 209.74482199534978 L279 208.62856876832166 L280 207.51160308661176 L281 206.3939773200571 L282 205.27574015194602 L283 204.15693682175805 L284 203.0376093536807 L285 201.9177967715463 L286 200.79753530082428 L287 199.67685855829376 L288 198.55579773001065 L289 197.43438173816696 L290 196.31263739742522 L291 195.19058956129115 L292 194.068261259071 L293 192.94567382393825 L294 191.82284701261506 L295 190.6997991171529 L296 189.57654706927647 L297 188.4531065377328 L298 187.32949201906877 L299 186.20571692223865 L300 185.08179364742332 L301 183.95773365942324 L302 182.83354755596986 L303 181.70924513127886 L304 180.5848354351525 L305 179.4603268279227 L306 178.33572703150514 L307 177.211043176825 L308 176.08628184785437 L309 174.96144912249068 L310 173.83655061048873 L311 172.71159148864893 L312 171.58657653344858 L313 170.46151015129348 L314 169.3363964065552 L315 168.21123904754864 L316 167.0860415305942 L317 165.96080704230053 L318 164.83553852019344 L319 163.71023867180904 L320 162.58490999236182 L321 161.45955478108883 L322 160.33417515636694 L323 159.2087730696916 L324 158.08335031859966 L325 156.95790855861443 L326 155.83244931428368 L327 154.70697398937813 L328 153.58148387631198 L329 152.4559801648437 L330 151.33046395010967 L331 150.20493624004166 L332 149.07939796221345 L333 147.953849970159 L334 146.82829304920367 L335 145.70272792184306 L336 144.57715525270524 L337 143.4515756531274 L338 142.32598968537638 L339 141.2003978665399 L340 140.0748006721139 L341 138.94919853930975 L342 137.82359187010144 L343 136.69798103403446 L344 135.57236637081343 L345 134.44674819268613 L346 133.32112678663958 L347 132.1955024164228 L348 131.06987532440957 L349 129.94424573331372 L350 128.81861384776852 L351 127.69297985578055 L352 126.56734393006815 L353 125.44170622929329 L354 124.31606689919545 L355 123.19042607363446 L356 122.06478387555092 L357 120.93914041784916 L358 119.81349580420988 L359 118.68785012983727 L360 117.56220348214663 L361 116.43655594139665 L362 115.31090758127056 L363 114.18525846941077 L364 113.05960866791065 L365 111.93395823376602 L366 110.80830721929095 L367 109.68265567249938 L368 108.55700363745626 L369 107.43135115459967 L370 106.305698261038 L371 105.18004499082184 L372 104.0543913751942 L373 102.92873744282088 L374 101.80308322000138 L375 100.67742873086337 L376 99.55177399754035 L377 98.42611904033606 L378 97.3004638778745 L379 96.17480852723833 L380 95.04915300409533 L381 93.92349732281525 L382 92.7978414965765 L383 91.67218553746466 L384 90.54652945656221 L385 89.42087326403174 L386 88.29521696919159 L387 87.16956058058588 L388 86.04390410604822 L389 84.9182475527607 L390 83.79259092730769 L391 82.66693423572548 L392 81.54127748354762 L393 80.41562067584636 L394 79.28996381727126 L395 78.16430691208404 L396 77.03864996419105 L397 75.91299297717228 L398 74.78733595430896 L399 73.66167889860805 " stroke = "blue" stroke-width = "4" fill = "none" /></svg>