<svg width="250" height="250" viewbox = "0 0 250 250"  xmlns="http://www.w3.org/2000/svg">

<!--
<json>
{
    "imgurl": "",
    "imgw": 4.743971328437736,
    "imgleft": -2.2873205904167726,
    "imgtop": -3.171985664218851,
    "imgangle": 0,
    "svgwidth": 250,
    "svgheight": 250,
    "unit": 100,
    "x0": 684,
    "y0": 399,
    "x0rel": 0,
    "y0rel": 0,
    "glyph": "0336,0331,0337,0235,",
    "table": []
}
</json>
-->
	<path d = "M25 175 L25 125 L25 75 M25 75           A50 50 0 0 1 75 25L125 25 L175 25 M175 25           A50 50 0 0 1 225 75L225 125 L225 175 M225 175           A50 50 0 0 1 175 225L125 225 L75 225 M74.99999999999999 225           A50 50 0 0 1 24.999999999999986 175" stroke = "black" stroke-width = "8" fill = "none" />	<path d = "M49 175 L49 99 L125 99 L201 99 L201 175 L125 175 L49 175 Z" stroke = "black" stroke-width = "8" fill = "none" />    <circle cx="125" cy = "137" r = "33.38505354221893" stroke = "black" stroke-width = "8" fill = "none" />
    <circle cx="125" cy = "137" r = "16.692526771109463" stroke = "black" stroke-width = "8" fill = "none" />
    <circle cx="68" cy = "118" r = "9.54915028125263" stroke = "black" stroke-width = "8" fill = "none" />
	<path d = "M87 99 L106 80 L125 80 L144 80 L163 99 " stroke = "black" stroke-width = "8" fill = "none" /></svg>