<svg width="350" height="250" viewbox = "0 0 350 250"  xmlns="http://www.w3.org/2000/svg">

<!--
<json>
{
    "imgurl": "",
    "imgw": 4.743971328437736,
    "imgleft": -2.2873205904167726,
    "imgtop": -3.171985664218851,
    "imgangle": 0,
    "svgwidth": 350,
    "svgheight": 250,
    "unit": 100,
    "x0": 684,
    "y0": 399,
    "x0rel": 0,
    "y0rel": 0,
    "glyph": "0331,0336,0330,0332,0337,0242,",
    "table": []
}
</json>
-->
	<path d = "M25 75 L25 25 L75 25 L25 75 Z" stroke = "black" stroke-width = "1" fill = "black" />	<path d = "M25 75 L75 75 L125 25 L75 25 L25 75 Z" stroke = "yellow" stroke-width = "1" fill = "yellow" />	<path d = "M75 75 L125 25 L125 75 L75 75 Z" stroke = "black" stroke-width = "1" fill = "black" />	<path d = "M125 75 L125 25 L175 25 L125 75 Z" stroke = "black" stroke-width = "1" fill = "black" />	<path d = "M125 75 L175 75 L225 25 L175 25 L125 75 Z" stroke = "yellow" stroke-width = "1" fill = "yellow" />	<path d = "M175 75 L225 25 L225 75 L175 75 Z" stroke = "black" stroke-width = "1" fill = "black" />	<path d = "M225 75 L225 25 L275 25 L225 75 Z" stroke = "black" stroke-width = "1" fill = "black" />	<path d = "M225 75 L275 75 L325 25 L275 25 L225 75 Z" stroke = "yellow" stroke-width = "1" fill = "yellow" />	<path d = "M275 75 L325 25 L325 75 L275 75 Z" stroke = "black" stroke-width = "1" fill = "black" />	<path d = "M25 225 L25 175 L75 175 L25 225 Z" stroke = "black" stroke-width = "1" fill = "black" />	<path d = "M25 225 L75 225 L125 175 L75 175 L25 225 Z" stroke = "yellow" stroke-width = "1" fill = "yellow" />	<path d = "M75 225 L125 175 L125 225 L75 225 Z" stroke = "black" stroke-width = "1" fill = "black" />	<path d = "M125 225 L125 175 L175 175 L125 225 Z" stroke = "black" stroke-width = "1" fill = "black" />	<path d = "M125 225 L175 225 L225 175 L175 175 L125 225 Z" stroke = "yellow" stroke-width = "1" fill = "yellow" />	<path d = "M175 225 L225 175 L225 225 L175 225 Z" stroke = "black" stroke-width = "1" fill = "black" />	<path d = "M225 225 L225 175 L275 175 L225 225 Z" stroke = "black" stroke-width = "1" fill = "black" />	<path d = "M225 225 L275 225 L325 175 L275 175 L225 225 Z" stroke = "yellow" stroke-width = "1" fill = "yellow" />	<path d = "M275 225 L325 175 L325 225 L275 225 Z" stroke = "black" stroke-width = "1" fill = "black" />	<path d = "M75 150 L75 100 L100 125 L75 150 Z" stroke = "black" stroke-width = "1" fill = "black" />	<path d = "M160 150 L160 100 L185 125 L160 150 Z" stroke = "black" stroke-width = "1" fill = "black" />	<path d = "M246 150 L246 100 L271 125 L246 150 Z" stroke = "black" stroke-width = "1" fill = "black" /></svg>