<svg width="250" height="250" viewbox = "0 0 250 250"  xmlns="http://www.w3.org/2000/svg">

<!--
<json>
{
    "imgurl": "",
    "imgw": 4.743971328437736,
    "imgleft": -2.2873205904167726,
    "imgtop": -3.171985664218851,
    "imgangle": 0,
    "svgwidth": 250,
    "svgheight": 250,
    "unit": 100,
    "x0": 684,
    "y0": 399,
    "x0rel": 0,
    "y0rel": 0,
    "glyph": "0336,0331,0337,0220,0336,0330,0337,0210,0231,",
    "table": []
}
</json>
-->
	<path d = "M25 175 L25 125 L25 75 M25 75           A50 50 0 0 1 75 25L125 25 L175 25 M175 25           A50 50 0 0 1 225 75L225 125 L225 175 M225 175           A50 50 0 0 1 175 225L125 225 L75 225 M74.99999999999999 225           A50 50 0 0 1 24.999999999999986 175" stroke = "black" stroke-width = "8" fill = "none" />	<path d = "M125 125 L103 103 L125 36 Z" stroke = "black" stroke-width = "1" fill = "black" />	<path d = "M125 125 L147 103 L214 125 Z" stroke = "black" stroke-width = "1" fill = "black" />	<path d = "M125 125 L147 147 L125 214 Z" stroke = "black" stroke-width = "1" fill = "black" />	<path d = "M125 125 L103 147 L36 125 Z" stroke = "black" stroke-width = "1" fill = "black" />    <line x1="147" y1="103" x2="125" y2="36" style="stroke:black;stroke-width:1" />
    <line x1="103" y1="103" x2="36" y2="125" style="stroke:black;stroke-width:1" />
    <line x1="103" y1="147" x2="125" y2="214" style="stroke:black;stroke-width:1" />
    <line x1="147" y1="147" x2="214" y2="125" style="stroke:black;stroke-width:1" />
</svg>