<svg width="600" height="500" viewbox = "0 0 600 500"  xmlns="http://www.w3.org/2000/svg">

<!--
<json>
{
    "imgurl": "",
    "imgw": 2.983971328437751,
    "imgleft": -1.4873205904167783,
    "imgtop": -1.0519856642188752,
    "imgangle": 0,
    "svgwidth": 600,
    "svgheight": 500,
    "unit": 100,
    "x0": 615.5,
    "y0": 359,
    "x0rel": 0,
    "y0rel": 0,
    "glyph": "0332,0331,0332,0337,0245,0333,0331,0333,0336,0336,0162,0157,0157,0164,0336,0332,0332,0332,0332,0332,0332,0365,0330,0330,0141,0143,0164,0151,0157,0156,0330,0333,0333,0333,0333,0333,0330,0336,0333,0337,0330,0330,0365,0330,0330,0154,0157,0157,0160,0163,0365,0330,0163,0150,0141,0160,0145,0163,0330,0365,",
    "table": []
}
</json>
-->
	<path d = "M100 350 L273 250 L473 250 L300 350 L100 350 Z" stroke = "white" stroke-width = "3" fill = "white" />	<path d = "M100 350 L273 250 L473 250 L300 350 L100 350 Z" stroke = "black" stroke-width = "3" fill = "none" />	<path d = "M100 300 L273 200 L473 200 L300 300 L100 300 Z" stroke = "white" stroke-width = "3" fill = "white" />	<path d = "M100 300 L273 200 L473 200 L300 300 L100 300 Z" stroke = "black" stroke-width = "3" fill = "none" />	<path d = "M100 250 L273 150 L473 150 L300 250 L100 250 Z" stroke = "white" stroke-width = "3" fill = "white" />	<path d = "M100 250 L273 150 L473 150 L300 250 L100 250 Z" stroke = "black" stroke-width = "3" fill = "none" />	<path d = "M100 200 L273 100 L473 100 L300 200 L100 200 Z" stroke = "white" stroke-width = "3" fill = "white" />	<path d = "M100 200 L273 100 L473 100 L300 200 L100 200 Z" stroke = "black" stroke-width = "3" fill = "none" />    <text x="350" y = "350" fill = "black" font-size = "25px" font-family = "arial">root</text>
    <text x="487" y = "200" fill = "black" font-size = "25px" font-family = "arial">action</text>
    <text x="487" y = "150" fill = "black" font-size = "25px" font-family = "arial">loops</text>
    <text x="488" y = "100" fill = "black" font-size = "25px" font-family = "arial">shapes</text>
</svg>