<svg width="700" height="400" viewbox = "0 0 700 400"  xmlns="http://www.w3.org/2000/svg">

<!--
<json>
{
    "imgurl": "",
    "imgw": 2.983971328437751,
    "imgleft": -1.4873205904167783,
    "imgtop": -1.0519856642188752,
    "imgangle": 0,
    "svgwidth": 700,
    "svgheight": 400,
    "unit": 100,
    "x0": 615.5,
    "y0": 359,
    "x0rel": 0,
    "y0rel": 0,
    "glyph": "0336,0331,0337,0330,0332,0332,0332,0331,0336,0330,0330,0333,0336,0332,0337,01150,01153,01150,01153,01150,01153,0331,0331,0332,0332,0332,0332,0332,0332,01141,01163,01144,01146,01141,01163,01144,01146,01141,01163,01144,01146,0331,0331,0332,0332,0332,0332,0332,0332,0332,0332,0332,0332,0332,0332,01141,01163,01144,01146,01141,01163,01144,01146,01141,01163,01144,01146,",
    "table": []
}
</json>
-->
    <text x="100" y = "88" fill = "black" font-size = "12.5px" font-family = "arial">h</text>
	<path d = "M88 150 L100 150 L94 139 L88 150 Z" stroke = "red" stroke-width = "3" fill = "red" />	<path d = "M88 150 L100 150 L94 139 L88 150 Z" stroke = "black" stroke-width = "3" fill = "none" />	<path d = "M97 137 L91 137 L91 131 L91 128 L87 128 L91 125 L94 122 L97 125 L100 128 L97 128 L97 131 L97 137 Z" stroke = "black" stroke-width = "3" fill = "black" />	<path d = "M81 119 L106 119 L94 97 L81 119 Z" stroke = "red" stroke-width = "3" fill = "red" />	<path d = "M81 119 L106 119 L94 97 L81 119 Z" stroke = "black" stroke-width = "3" fill = "none" />    <text x="150" y = "75" fill = "black" font-size = "12.5px" font-family = "arial">k</text>
	<path d = "M156 150 L156 138 L144 138 L144 150 L156 150 Z" stroke = "blue" stroke-width = "3" fill = "blue" />	<path d = "M156 150 L156 138 L144 138 L144 150 L156 150 Z" stroke = "black" stroke-width = "3" fill = "none" />	<path d = "M153 134 L147 134 L147 128 L147 125 L144 125 L147 122 L150 119 L153 122 L156 125 L153 125 L153 128 L153 134 Z" stroke = "black" stroke-width = "3" fill = "black" />	<path d = "M162 116 L162 91 L137 91 L137 116 L162 116 Z" stroke = "blue" stroke-width = "3" fill = "blue" />	<path d = "M162 116 L162 91 L137 91 L137 116 L162 116 Z" stroke = "black" stroke-width = "3" fill = "none" />    <text x="200" y = "87" fill = "black" font-size = "12.5px" font-family = "arial">h</text>
	<path d = "M188 150 L200 150 L194 139 L188 150 Z" stroke = "red" stroke-width = "3" fill = "red" />	<path d = "M188 150 L200 150 L194 139 L188 150 Z" stroke = "black" stroke-width = "3" fill = "none" />	<path d = "M197 137 L191 137 L191 131 L191 128 L188 128 L191 125 L194 122 L197 125 L200 128 L197 128 L197 131 L197 137 Z" stroke = "black" stroke-width = "3" fill = "black" />	<path d = "M181 119 L206 119 L194 97 L181 119 Z" stroke = "red" stroke-width = "3" fill = "red" />	<path d = "M181 119 L206 119 L194 97 L181 119 Z" stroke = "black" stroke-width = "3" fill = "none" />    <text x="250" y = "75" fill = "black" font-size = "12.5px" font-family = "arial">k</text>
	<path d = "M256 150 L256 137 L244 137 L244 150 L256 150 Z" stroke = "blue" stroke-width = "3" fill = "blue" />	<path d = "M256 150 L256 137 L244 137 L244 150 L256 150 Z" stroke = "black" stroke-width = "3" fill = "none" />	<path d = "M253 134 L247 134 L247 128 L247 125 L244 125 L247 122 L250 119 L253 122 L256 125 L253 125 L253 128 L253 134 Z" stroke = "black" stroke-width = "3" fill = "black" />	<path d = "M263 116 L263 91 L238 91 L238 116 L263 116 Z" stroke = "blue" stroke-width = "3" fill = "blue" />	<path d = "M263 116 L263 91 L238 91 L238 116 L263 116 Z" stroke = "black" stroke-width = "3" fill = "none" />    <text x="300" y = "88" fill = "black" font-size = "12.5px" font-family = "arial">h</text>
	<path d = "M287 150 L300 150 L294 139 L287 150 Z" stroke = "red" stroke-width = "3" fill = "red" />	<path d = "M287 150 L300 150 L294 139 L287 150 Z" stroke = "black" stroke-width = "3" fill = "none" />	<path d = "M297 137 L291 138 L291 131 L291 128 L287 128 L291 125 L294 122 L297 125 L300 128 L297 128 L297 131 L297 137 Z" stroke = "black" stroke-width = "3" fill = "black" />	<path d = "M281 119 L306 119 L294 97 L281 119 Z" stroke = "red" stroke-width = "3" fill = "red" />	<path d = "M281 119 L306 119 L294 97 L281 119 Z" stroke = "black" stroke-width = "3" fill = "none" />    <text x="350" y = "75" fill = "black" font-size = "12.5px" font-family = "arial">k</text>
	<path d = "M356 150 L356 137 L344 137 L344 150 L356 150 Z" stroke = "blue" stroke-width = "3" fill = "blue" />	<path d = "M356 150 L356 137 L344 137 L344 150 L356 150 Z" stroke = "black" stroke-width = "3" fill = "none" />	<path d = "M353 134 L347 134 L347 128 L347 125 L344 125 L347 122 L350 119 L353 122 L356 125 L353 125 L353 128 L353 134 Z" stroke = "black" stroke-width = "3" fill = "black" />	<path d = "M362 116 L362 91 L337 91 L337 116 L362 116 Z" stroke = "blue" stroke-width = "3" fill = "blue" />	<path d = "M362 116 L362 91 L337 91 L337 116 L362 116 Z" stroke = "black" stroke-width = "3" fill = "none" />    <text x="88" y = "188" fill = "black" font-size = "12.5px" font-family = "arial">a</text>
	<path d = "M113 250 L113 225 L88 225 L88 250 L113 250 Z" stroke = "black" stroke-width = "3" fill = "none" />    <line x1="109" y1="225" x2="109" y2="219" style="stroke:black;stroke-width:3" />
    <line x1="91" y1="225" x2="91" y2="219" style="stroke:black;stroke-width:3" />
    <line x1="88" y1="219" x2="113" y2="219" style="stroke:black;stroke-width:3" />
	<path d = "M94 244 L106 244 L100 233 L94 244 Z" stroke = "red" stroke-width = "3" fill = "red" />	<path d = "M94 244 L106 244 L100 233 L94 244 Z" stroke = "black" stroke-width = "3" fill = "none" />	<path d = "M103 213 L97 213 L97 206 L97 203 L94 203 L97 200 L100 197 L103 200 L106 203 L103 203 L103 206 L103 213 Z" stroke = "black" stroke-width = "3" fill = "black" />    <text x="137" y = "188" fill = "black" font-size = "12.5px" font-family = "arial">s</text>
	<path d = "M163 250 L163 225 L138 225 L138 250 L163 250 Z" stroke = "black" stroke-width = "3" fill = "none" />    <line x1="159" y1="225" x2="159" y2="200" style="stroke:black;stroke-width:3" />
    <line x1="141" y1="225" x2="141" y2="200" style="stroke:black;stroke-width:3" />
    <line x1="138" y1="200" x2="163" y2="200" style="stroke:black;stroke-width:3" />
	<path d = "M144 244 L156 244 L150 233 L144 244 Z" stroke = "red" stroke-width = "3" fill = "red" />	<path d = "M144 244 L156 244 L150 233 L144 244 Z" stroke = "black" stroke-width = "3" fill = "none" />	<path d = "M147 203 L153 203 L153 209 L153 212 L156 212 L153 216 L150 219 L147 216 L144 212 L147 212 L147 209 L147 203 Z" stroke = "black" stroke-width = "3" fill = "black" />    <text x="187" y = "187" fill = "black" font-size = "12.5px" font-family = "arial">d</text>
	<path d = "M213 250 L213 225 L188 225 L188 250 L213 250 Z" stroke = "black" stroke-width = "3" fill = "none" />    <line x1="209" y1="225" x2="209" y2="219" style="stroke:black;stroke-width:3" />
    <line x1="191" y1="225" x2="191" y2="219" style="stroke:black;stroke-width:3" />
    <line x1="188" y1="219" x2="213" y2="219" style="stroke:black;stroke-width:3" />
	<path d = "M206 244 L206 231 L194 231 L194 244 L206 244 Z" stroke = "blue" stroke-width = "3" fill = "blue" />	<path d = "M206 244 L206 231 L194 231 L194 244 L206 244 Z" stroke = "black" stroke-width = "3" fill = "none" />	<path d = "M203 212 L197 212 L197 206 L197 203 L194 203 L197 200 L200 197 L203 200 L206 203 L203 203 L203 206 L203 212 Z" stroke = "black" stroke-width = "3" fill = "black" />    <text x="237" y = "187" fill = "black" font-size = "12.5px" font-family = "arial">f</text>
	<path d = "M263 250 L263 225 L238 225 L238 250 L263 250 Z" stroke = "black" stroke-width = "3" fill = "none" />    <line x1="259" y1="225" x2="259" y2="200" style="stroke:black;stroke-width:3" />
    <line x1="241" y1="225" x2="241" y2="200" style="stroke:black;stroke-width:3" />
    <line x1="238" y1="200" x2="263" y2="200" style="stroke:black;stroke-width:3" />
	<path d = "M256 244 L256 231 L244 231 L244 244 L256 244 Z" stroke = "blue" stroke-width = "3" fill = "blue" />	<path d = "M256 244 L256 231 L244 231 L244 244 L256 244 Z" stroke = "black" stroke-width = "3" fill = "none" />	<path d = "M247 203 L253 203 L253 209 L253 212 L256 212 L253 216 L250 219 L247 216 L244 212 L247 212 L247 209 L247 203 Z" stroke = "black" stroke-width = "3" fill = "black" />    <text x="288" y = "187" fill = "black" font-size = "12.5px" font-family = "arial">a</text>
	<path d = "M313 250 L313 225 L288 225 L288 250 L313 250 Z" stroke = "black" stroke-width = "3" fill = "none" />    <line x1="309" y1="225" x2="309" y2="219" style="stroke:black;stroke-width:3" />
    <line x1="291" y1="225" x2="291" y2="219" style="stroke:black;stroke-width:3" />
    <line x1="288" y1="219" x2="313" y2="219" style="stroke:black;stroke-width:3" />
	<path d = "M294 244 L306 244 L300 233 L294 244 Z" stroke = "red" stroke-width = "3" fill = "red" />	<path d = "M294 244 L306 244 L300 233 L294 244 Z" stroke = "black" stroke-width = "3" fill = "none" />	<path d = "M303 212 L297 212 L297 206 L297 203 L294 203 L297 200 L300 197 L303 200 L306 203 L303 203 L303 206 L303 212 Z" stroke = "black" stroke-width = "3" fill = "black" />    <text x="337" y = "187" fill = "black" font-size = "12.5px" font-family = "arial">s</text>
	<path d = "M363 250 L363 225 L338 225 L338 250 L363 250 Z" stroke = "black" stroke-width = "3" fill = "none" />    <line x1="359" y1="225" x2="359" y2="200" style="stroke:black;stroke-width:3" />
    <line x1="341" y1="225" x2="341" y2="200" style="stroke:black;stroke-width:3" />
    <line x1="338" y1="200" x2="363" y2="200" style="stroke:black;stroke-width:3" />
	<path d = "M344 244 L356 244 L350 233 L344 244 Z" stroke = "red" stroke-width = "3" fill = "red" />	<path d = "M344 244 L356 244 L350 233 L344 244 Z" stroke = "black" stroke-width = "3" fill = "none" />	<path d = "M347 203 L353 203 L353 209 L353 212 L356 212 L353 216 L350 219 L347 216 L344 212 L347 212 L347 209 L347 203 Z" stroke = "black" stroke-width = "3" fill = "black" />    <text x="387" y = "187" fill = "black" font-size = "12.5px" font-family = "arial">d</text>
	<path d = "M413 250 L413 225 L388 225 L388 250 L413 250 Z" stroke = "black" stroke-width = "3" fill = "none" />    <line x1="409" y1="225" x2="409" y2="219" style="stroke:black;stroke-width:3" />
    <line x1="391" y1="225" x2="391" y2="219" style="stroke:black;stroke-width:3" />
    <line x1="388" y1="219" x2="413" y2="219" style="stroke:black;stroke-width:3" />
	<path d = "M406 244 L406 231 L394 231 L394 244 L406 244 Z" stroke = "blue" stroke-width = "3" fill = "blue" />	<path d = "M406 244 L406 231 L394 231 L394 244 L406 244 Z" stroke = "black" stroke-width = "3" fill = "none" />	<path d = "M403 212 L397 212 L397 206 L397 203 L394 203 L397 200 L400 197 L403 200 L406 203 L403 203 L403 206 L403 212 Z" stroke = "black" stroke-width = "3" fill = "black" />    <text x="437" y = "187" fill = "black" font-size = "12.5px" font-family = "arial">f</text>
	<path d = "M463 250 L463 225 L438 225 L438 250 L463 250 Z" stroke = "black" stroke-width = "3" fill = "none" />    <line x1="459" y1="225" x2="459" y2="200" style="stroke:black;stroke-width:3" />
    <line x1="441" y1="225" x2="441" y2="200" style="stroke:black;stroke-width:3" />
    <line x1="438" y1="200" x2="463" y2="200" style="stroke:black;stroke-width:3" />
	<path d = "M456 244 L456 231 L444 231 L444 244 L456 244 Z" stroke = "blue" stroke-width = "3" fill = "blue" />	<path d = "M456 244 L456 231 L444 231 L444 244 L456 244 Z" stroke = "black" stroke-width = "3" fill = "none" />	<path d = "M447 203 L453 203 L453 209 L453 212 L456 212 L453 216 L450 219 L447 216 L444 212 L447 212 L447 209 L447 203 Z" stroke = "black" stroke-width = "3" fill = "black" />    <text x="488" y = "187" fill = "black" font-size = "12.5px" font-family = "arial">a</text>
	<path d = "M513 250 L513 225 L488 225 L488 250 L513 250 Z" stroke = "black" stroke-width = "3" fill = "none" />    <line x1="509" y1="225" x2="509" y2="219" style="stroke:black;stroke-width:3" />
    <line x1="491" y1="225" x2="491" y2="219" style="stroke:black;stroke-width:3" />
    <line x1="488" y1="219" x2="513" y2="219" style="stroke:black;stroke-width:3" />
	<path d = "M494 244 L506 244 L500 233 L494 244 Z" stroke = "red" stroke-width = "3" fill = "red" />	<path d = "M494 244 L506 244 L500 233 L494 244 Z" stroke = "black" stroke-width = "3" fill = "none" />	<path d = "M503 212 L497 212 L497 206 L497 203 L494 203 L497 200 L500 197 L503 200 L506 203 L503 203 L503 206 L503 212 Z" stroke = "black" stroke-width = "3" fill = "black" />    <text x="537" y = "187" fill = "black" font-size = "12.5px" font-family = "arial">s</text>
	<path d = "M563 250 L563 225 L538 225 L538 250 L563 250 Z" stroke = "black" stroke-width = "3" fill = "none" />    <line x1="559" y1="225" x2="559" y2="200" style="stroke:black;stroke-width:3" />
    <line x1="541" y1="225" x2="541" y2="200" style="stroke:black;stroke-width:3" />
    <line x1="538" y1="200" x2="563" y2="200" style="stroke:black;stroke-width:3" />
	<path d = "M544 244 L556 244 L550 233 L544 244 Z" stroke = "red" stroke-width = "3" fill = "red" />	<path d = "M544 244 L556 244 L550 233 L544 244 Z" stroke = "black" stroke-width = "3" fill = "none" />	<path d = "M547 203 L553 203 L553 209 L553 212 L556 212 L553 216 L550 219 L547 216 L544 212 L547 212 L547 209 L547 203 Z" stroke = "black" stroke-width = "3" fill = "black" />    <text x="587" y = "187" fill = "black" font-size = "12.5px" font-family = "arial">d</text>
	<path d = "M613 250 L613 225 L588 225 L588 250 L613 250 Z" stroke = "black" stroke-width = "3" fill = "none" />    <line x1="609" y1="225" x2="609" y2="219" style="stroke:black;stroke-width:3" />
    <line x1="591" y1="225" x2="591" y2="219" style="stroke:black;stroke-width:3" />
    <line x1="588" y1="219" x2="613" y2="219" style="stroke:black;stroke-width:3" />
	<path d = "M606 244 L606 231 L594 231 L594 244 L606 244 Z" stroke = "blue" stroke-width = "3" fill = "blue" />	<path d = "M606 244 L606 231 L594 231 L594 244 L606 244 Z" stroke = "black" stroke-width = "3" fill = "none" />	<path d = "M603 212 L597 212 L597 206 L597 203 L594 203 L597 200 L600 197 L603 200 L606 203 L603 203 L603 206 L603 212 Z" stroke = "black" stroke-width = "3" fill = "black" />    <text x="637" y = "187" fill = "black" font-size = "12.5px" font-family = "arial">f</text>
	<path d = "M663 250 L663 225 L638 225 L638 250 L663 250 Z" stroke = "black" stroke-width = "3" fill = "none" />    <line x1="659" y1="225" x2="659" y2="200" style="stroke:black;stroke-width:3" />
    <line x1="641" y1="225" x2="641" y2="200" style="stroke:black;stroke-width:3" />
    <line x1="638" y1="200" x2="663" y2="200" style="stroke:black;stroke-width:3" />
	<path d = "M656 244 L656 231 L644 231 L644 244 L656 244 Z" stroke = "blue" stroke-width = "3" fill = "blue" />	<path d = "M656 244 L656 231 L644 231 L644 244 L656 244 Z" stroke = "black" stroke-width = "3" fill = "none" />	<path d = "M647 203 L653 203 L653 209 L653 212 L656 212 L653 216 L650 219 L647 216 L644 212 L647 212 L647 209 L647 203 Z" stroke = "black" stroke-width = "3" fill = "black" />    <text x="88" y = "288" fill = "black" font-size = "12.5px" font-family = "arial">a</text>
	<path d = "M113 350 L113 325 L88 325 L88 350 L113 350 Z" stroke = "black" stroke-width = "3" fill = "none" />    <line x1="109" y1="325" x2="109" y2="319" style="stroke:black;stroke-width:3" />
    <line x1="91" y1="325" x2="91" y2="319" style="stroke:black;stroke-width:3" />
    <line x1="88" y1="319" x2="113" y2="319" style="stroke:black;stroke-width:3" />
	<path d = "M94 344 L106 344 L100 333 L94 344 Z" stroke = "red" stroke-width = "3" fill = "red" />	<path d = "M94 344 L106 344 L100 333 L94 344 Z" stroke = "black" stroke-width = "3" fill = "none" />	<path d = "M103 313 L97 313 L97 306 L97 303 L94 303 L97 300 L100 297 L103 300 L106 303 L103 303 L103 306 L103 313 Z" stroke = "black" stroke-width = "3" fill = "black" />    <text x="138" y = "288" fill = "black" font-size = "12.5px" font-family = "arial">s</text>
	<path d = "M163 350 L163 325 L138 325 L138 350 L163 350 Z" stroke = "black" stroke-width = "3" fill = "none" />    <line x1="159" y1="325" x2="159" y2="300" style="stroke:black;stroke-width:3" />
    <line x1="141" y1="325" x2="141" y2="300" style="stroke:black;stroke-width:3" />
    <line x1="138" y1="300" x2="163" y2="300" style="stroke:black;stroke-width:3" />
	<path d = "M144 344 L156 344 L150 333 L144 344 Z" stroke = "red" stroke-width = "3" fill = "red" />	<path d = "M144 344 L156 344 L150 333 L144 344 Z" stroke = "black" stroke-width = "3" fill = "none" />	<path d = "M147 303 L153 303 L153 309 L153 313 L156 313 L153 316 L150 319 L147 316 L144 313 L147 313 L147 309 L147 303 Z" stroke = "black" stroke-width = "3" fill = "black" />    <text x="188" y = "288" fill = "black" font-size = "12.5px" font-family = "arial">d</text>
	<path d = "M213 350 L213 325 L188 325 L188 350 L213 350 Z" stroke = "black" stroke-width = "3" fill = "none" />    <line x1="209" y1="325" x2="209" y2="319" style="stroke:black;stroke-width:3" />
    <line x1="191" y1="325" x2="191" y2="319" style="stroke:black;stroke-width:3" />
    <line x1="188" y1="319" x2="213" y2="319" style="stroke:black;stroke-width:3" />
	<path d = "M206 344 L206 331 L194 331 L194 344 L206 344 Z" stroke = "blue" stroke-width = "3" fill = "blue" />	<path d = "M206 344 L206 331 L194 331 L194 344 L206 344 Z" stroke = "black" stroke-width = "3" fill = "none" />	<path d = "M203 313 L197 313 L197 306 L197 303 L194 303 L197 300 L200 297 L203 300 L206 303 L203 303 L203 306 L203 313 Z" stroke = "black" stroke-width = "3" fill = "black" />    <text x="238" y = "288" fill = "black" font-size = "12.5px" font-family = "arial">f</text>
	<path d = "M263 350 L263 325 L238 325 L238 350 L263 350 Z" stroke = "black" stroke-width = "3" fill = "none" />    <line x1="259" y1="325" x2="259" y2="300" style="stroke:black;stroke-width:3" />
    <line x1="241" y1="325" x2="241" y2="300" style="stroke:black;stroke-width:3" />
    <line x1="238" y1="300" x2="263" y2="300" style="stroke:black;stroke-width:3" />
	<path d = "M256 344 L256 331 L244 331 L244 344 L256 344 Z" stroke = "blue" stroke-width = "3" fill = "blue" />	<path d = "M256 344 L256 331 L244 331 L244 344 L256 344 Z" stroke = "black" stroke-width = "3" fill = "none" />	<path d = "M247 303 L253 303 L253 309 L253 313 L256 313 L253 316 L250 319 L247 316 L244 313 L247 313 L247 309 L247 303 Z" stroke = "black" stroke-width = "3" fill = "black" />    <text x="288" y = "288" fill = "black" font-size = "12.5px" font-family = "arial">a</text>
	<path d = "M313 350 L313 325 L288 325 L288 350 L313 350 Z" stroke = "black" stroke-width = "3" fill = "none" />    <line x1="309" y1="325" x2="309" y2="319" style="stroke:black;stroke-width:3" />
    <line x1="291" y1="325" x2="291" y2="319" style="stroke:black;stroke-width:3" />
    <line x1="288" y1="319" x2="313" y2="319" style="stroke:black;stroke-width:3" />
	<path d = "M294 344 L306 344 L300 333 L294 344 Z" stroke = "red" stroke-width = "3" fill = "red" />	<path d = "M294 344 L306 344 L300 333 L294 344 Z" stroke = "black" stroke-width = "3" fill = "none" />	<path d = "M303 313 L297 313 L297 306 L297 303 L294 303 L297 300 L300 297 L303 300 L306 303 L303 303 L303 306 L303 313 Z" stroke = "black" stroke-width = "3" fill = "black" />    <text x="338" y = "288" fill = "black" font-size = "12.5px" font-family = "arial">s</text>
	<path d = "M363 350 L363 325 L338 325 L338 350 L363 350 Z" stroke = "black" stroke-width = "3" fill = "none" />    <line x1="359" y1="325" x2="359" y2="300" style="stroke:black;stroke-width:3" />
    <line x1="341" y1="325" x2="341" y2="300" style="stroke:black;stroke-width:3" />
    <line x1="338" y1="300" x2="363" y2="300" style="stroke:black;stroke-width:3" />
	<path d = "M344 344 L356 344 L350 333 L344 344 Z" stroke = "red" stroke-width = "3" fill = "red" />	<path d = "M344 344 L356 344 L350 333 L344 344 Z" stroke = "black" stroke-width = "3" fill = "none" />	<path d = "M347 303 L353 303 L353 309 L353 313 L356 313 L353 316 L350 319 L347 316 L344 313 L347 313 L347 309 L347 303 Z" stroke = "black" stroke-width = "3" fill = "black" />    <text x="388" y = "288" fill = "black" font-size = "12.5px" font-family = "arial">d</text>
	<path d = "M413 350 L413 325 L388 325 L388 350 L413 350 Z" stroke = "black" stroke-width = "3" fill = "none" />    <line x1="409" y1="325" x2="409" y2="319" style="stroke:black;stroke-width:3" />
    <line x1="391" y1="325" x2="391" y2="319" style="stroke:black;stroke-width:3" />
    <line x1="388" y1="319" x2="413" y2="319" style="stroke:black;stroke-width:3" />
	<path d = "M406 344 L406 331 L394 331 L394 344 L406 344 Z" stroke = "blue" stroke-width = "3" fill = "blue" />	<path d = "M406 344 L406 331 L394 331 L394 344 L406 344 Z" stroke = "black" stroke-width = "3" fill = "none" />	<path d = "M403 313 L397 313 L397 306 L397 303 L394 303 L397 300 L400 297 L403 300 L406 303 L403 303 L403 306 L403 313 Z" stroke = "black" stroke-width = "3" fill = "black" />    <text x="438" y = "288" fill = "black" font-size = "12.5px" font-family = "arial">f</text>
	<path d = "M463 350 L463 325 L438 325 L438 350 L463 350 Z" stroke = "black" stroke-width = "3" fill = "none" />    <line x1="459" y1="325" x2="459" y2="300" style="stroke:black;stroke-width:3" />
    <line x1="441" y1="325" x2="441" y2="300" style="stroke:black;stroke-width:3" />
    <line x1="438" y1="300" x2="463" y2="300" style="stroke:black;stroke-width:3" />
	<path d = "M456 344 L456 331 L444 331 L444 344 L456 344 Z" stroke = "blue" stroke-width = "3" fill = "blue" />	<path d = "M456 344 L456 331 L444 331 L444 344 L456 344 Z" stroke = "black" stroke-width = "3" fill = "none" />	<path d = "M447 303 L453 303 L453 309 L453 313 L456 313 L453 316 L450 319 L447 316 L444 313 L447 313 L447 309 L447 303 Z" stroke = "black" stroke-width = "3" fill = "black" />    <text x="488" y = "288" fill = "black" font-size = "12.5px" font-family = "arial">a</text>
	<path d = "M513 350 L513 325 L488 325 L488 350 L513 350 Z" stroke = "black" stroke-width = "3" fill = "none" />    <line x1="509" y1="325" x2="509" y2="319" style="stroke:black;stroke-width:3" />
    <line x1="491" y1="325" x2="491" y2="319" style="stroke:black;stroke-width:3" />
    <line x1="488" y1="319" x2="513" y2="319" style="stroke:black;stroke-width:3" />
	<path d = "M494 344 L506 344 L500 333 L494 344 Z" stroke = "red" stroke-width = "3" fill = "red" />	<path d = "M494 344 L506 344 L500 333 L494 344 Z" stroke = "black" stroke-width = "3" fill = "none" />	<path d = "M503 313 L497 313 L497 306 L497 303 L494 303 L497 300 L500 297 L503 300 L506 303 L503 303 L503 306 L503 313 Z" stroke = "black" stroke-width = "3" fill = "black" />    <text x="538" y = "288" fill = "black" font-size = "12.5px" font-family = "arial">s</text>
	<path d = "M562 350 L563 325 L538 325 L537 350 L562 350 Z" stroke = "black" stroke-width = "3" fill = "none" />    <line x1="559" y1="325" x2="559" y2="300" style="stroke:black;stroke-width:3" />
    <line x1="541" y1="325" x2="541" y2="300" style="stroke:black;stroke-width:3" />
    <line x1="538" y1="300" x2="563" y2="300" style="stroke:black;stroke-width:3" />
	<path d = "M544 344 L556 344 L550 333 L544 344 Z" stroke = "red" stroke-width = "3" fill = "red" />	<path d = "M544 344 L556 344 L550 333 L544 344 Z" stroke = "black" stroke-width = "3" fill = "none" />	<path d = "M547 303 L553 303 L553 309 L553 313 L556 313 L553 316 L550 319 L547 316 L544 313 L547 313 L547 309 L547 303 Z" stroke = "black" stroke-width = "3" fill = "black" />    <text x="588" y = "288" fill = "black" font-size = "12.5px" font-family = "arial">d</text>
	<path d = "M612 350 L613 325 L588 325 L587 350 L612 350 Z" stroke = "black" stroke-width = "3" fill = "none" />    <line x1="609" y1="325" x2="609" y2="319" style="stroke:black;stroke-width:3" />
    <line x1="591" y1="325" x2="591" y2="319" style="stroke:black;stroke-width:3" />
    <line x1="588" y1="319" x2="613" y2="319" style="stroke:black;stroke-width:3" />
	<path d = "M606 344 L606 331 L594 331 L594 344 L606 344 Z" stroke = "blue" stroke-width = "3" fill = "blue" />	<path d = "M606 344 L606 331 L594 331 L594 344 L606 344 Z" stroke = "black" stroke-width = "3" fill = "none" />	<path d = "M603 313 L597 313 L597 306 L597 303 L594 303 L597 300 L600 297 L603 300 L606 303 L603 303 L603 306 L603 313 Z" stroke = "black" stroke-width = "3" fill = "black" />    <text x="638" y = "288" fill = "black" font-size = "12.5px" font-family = "arial">f</text>
	<path d = "M662 350 L663 325 L638 325 L637 350 L662 350 Z" stroke = "black" stroke-width = "3" fill = "none" />    <line x1="659" y1="325" x2="659" y2="300" style="stroke:black;stroke-width:3" />
    <line x1="641" y1="325" x2="641" y2="300" style="stroke:black;stroke-width:3" />
    <line x1="638" y1="300" x2="663" y2="300" style="stroke:black;stroke-width:3" />
	<path d = "M656 344 L656 331 L644 331 L644 344 L656 344 Z" stroke = "blue" stroke-width = "3" fill = "blue" />	<path d = "M656 344 L656 331 L644 331 L644 344 L656 344 Z" stroke = "black" stroke-width = "3" fill = "none" />	<path d = "M647 303 L653 303 L653 309 L653 313 L656 313 L653 316 L650 319 L647 316 L644 313 L647 313 L647 309 L647 303 Z" stroke = "black" stroke-width = "3" fill = "black" /></svg>