<svg width="400" height="400" viewbox = "0 0 400 400"  xmlns="http://www.w3.org/2000/svg">

<!--
<json>
{
    "imgurl": "",
    "imgw": 2.983971328437751,
    "imgleft": -1.4873205904167783,
    "imgtop": -1.0519856642188752,
    "imgangle": 0,
    "svgwidth": 400,
    "svgheight": 400,
    "unit": 100,
    "x0": 615.5,
    "y0": 359,
    "x0rel": 0,
    "y0rel": 0,
    "glyph": "0330,0332,0336,0332,0336,0332,0337,01101,01102,0331,0332,0332,0332,0332,0336,0333,0337,01103,01104,01105,01106,0331,0332,0332,0332,0332,0332,0332,0332,01107,",
    "table": []
}
</json>
-->
    <circle cx="25" cy = "97" r = "3.125" stroke = "black" stroke-width = "6" fill = "black" />
	<path d = "M38 100 L38 94 L63 94 L63 100 L38 100 Z" stroke = "black" stroke-width = "6" fill = "black" />	<path d = "M100 100 L100 94 L125 94 L125 100 L100 100 Z" stroke = "black" stroke-width = "6" fill = "black" />    <circle cx="138" cy = "97" r = "3.125" stroke = "black" stroke-width = "6" fill = "black" />
    <circle cx="150" cy = "97" r = "3.125" stroke = "black" stroke-width = "6" fill = "black" />
    <circle cx="163" cy = "97" r = "3.125" stroke = "black" stroke-width = "6" fill = "black" />
	<path d = "M25 150 L25 144 L50 144 L50 150 L25 150 Z" stroke = "black" stroke-width = "6" fill = "black" />    <circle cx="63" cy = "147" r = "3.125" stroke = "black" stroke-width = "6" fill = "black" />
	<path d = "M75 150 L75 144 L100 144 L100 150 L75 150 Z" stroke = "black" stroke-width = "6" fill = "black" />    <circle cx="113" cy = "147" r = "3.125" stroke = "black" stroke-width = "6" fill = "black" />
	<path d = "M150 150 L150 144 L175 144 L175 150 L150 150 Z" stroke = "black" stroke-width = "6" fill = "black" />    <circle cx="188" cy = "147" r = "3.125" stroke = "black" stroke-width = "6" fill = "black" />
    <circle cx="200" cy = "147" r = "3.125" stroke = "black" stroke-width = "6" fill = "black" />
    <circle cx="238" cy = "147" r = "3.125" stroke = "black" stroke-width = "6" fill = "black" />
    <circle cx="275" cy = "147" r = "3.125" stroke = "black" stroke-width = "6" fill = "black" />
    <circle cx="288" cy = "147" r = "3.125" stroke = "black" stroke-width = "6" fill = "black" />
	<path d = "M300 150 L300 144 L325 144 L325 150 L300 150 Z" stroke = "black" stroke-width = "6" fill = "black" />    <circle cx="338" cy = "147" r = "3.125" stroke = "black" stroke-width = "6" fill = "black" />
	<path d = "M25 200 L25 194 L50 194 L50 200 L25 200 Z" stroke = "black" stroke-width = "6" fill = "black" />	<path d = "M62 200 L62 194 L87 194 L87 200 L62 200 Z" stroke = "black" stroke-width = "6" fill = "black" />    <circle cx="100" cy = "197" r = "3.125" stroke = "black" stroke-width = "6" fill = "black" />
</svg>