<svg width="400" height="400" viewbox = "0 0 400 400"  xmlns="http://www.w3.org/2000/svg">

<!--
<topfunctions>






function YofX(){
//foobar foobar
    X = plotparams.g*(x - plotparams.x0) - funcparams.X0;

    Y = Math.abs(X%100);

    y = plotparams.y0 - plotparams.G*(Y - funcparams.Y0);
}





function plotfunction(){
    
    /*plot one function:*/
    currentStroke = "blue";
    currentLineWidth = 4;
    ctx.strokeStyle = currentStroke;
    ctx.lineWidth = currentLineWidth;
    ctx.beginPath();	
    x = 0;
    intx = x;
    YofX();
    currentSVG += "	<path d = \"M";
    currentSVG += Math.round(x).toString() + " ";
    currentSVG += Math.round(y).toString() + " ";
    for(x = 1;x < plotparams.plotwidth;x++){
        ctx.moveTo(x-1,y);
        YofX();
        ctx.lineTo(x,y);
        currentSVG += "L" + x + " " + y + " ";
    }
    ctx.stroke();
    currentSVG += "\""+ " stroke = \"" + currentStroke + "\" stroke-width = \"" + currentLineWidth.toString() + "\" fill = \"" + "none" + "\" "+"/>";
    /*finish plot one function*/
    
    

}





























</topfunctions>
-->

<!--
<imgurl>

</imgurl>
-->

<!--
<currentjson>
{
    "constants": {},
    "imgurl": "",
    "plotparams": {
        "G": 1.7715610000000006,
        "g": 2.1435888100000002,
        "duration": 450.78888054094654,
        "plotwidth": 400,
        "plotheight": 400,
        "x0": 0,
        "y0": 200.00000000000003
    },
    "funcparams": {
        "phi": 0.2688139066614501,
        "T": 1.4465183912692552,
        "X0": 0,
        "Y0": 48.30020556225738
    }
}
</currentjson>
-->

<!--
<equation>





<h2>Sin</h2>
<p style="color:blue">

</p><p class="bigeq">
$$
square wave
$$
</p>
<p></p>

$$
X = g(x - x_0) - X_0
$$
$$
Y = f(X)
$$
    
$$
y = y_0 - G(Y - Y_0)
$$


<p>
    X and Y, and $X_0$ and $Y_0$ in physical units of the System. x and y and x0 and y0 in pixels.  G is in pixels per Y unit and g is in X units per pixel. 
</p>






</equation>
-->
	<path d = "M0 286 L1 281.7692621302459 L2 277.9717637944135 L3 274.1742654585811 L4 270.3767671227487 L5 266.57926878691626 L6 262.78177045108384 L7 258.98427211525143 L8 255.186773779419 L9 251.3892754435866 L10 247.59177710775418 L11 243.79427877192177 L12 239.99678043608938 L13 236.19928210025697 L14 232.40178376442455 L15 228.60428542859214 L16 224.80678709275972 L17 221.0092887569273 L18 217.2117904210949 L19 213.4142920852625 L20 209.61679374943006 L21 205.81929541359767 L22 202.02179707776526 L23 198.22429874193284 L24 194.42680040610043 L25 190.629302070268 L26 186.8318037344356 L27 183.03430539860318 L28 179.2368070627708 L29 175.43930872693835 L30 171.64181039110593 L31 167.84431205527355 L32 164.04681371944113 L33 160.24931538360872 L34 156.45181704777633 L35 152.6543187119439 L36 148.8568203761115 L37 145.05932204027908 L38 141.26182370444667 L39 137.46432536861425 L40 133.66682703278184 L41 129.86932869694942 L42 126.07183036111702 L43 122.27433202528461 L44 118.47683368945218 L45 114.67933535361978 L46 110.88183701778738 L47 284.240438681955 L48 280.4429403461226 L49 276.6454420102902 L50 272.8479436744578 L51 269.05044533862537 L52 265.25294700279295 L53 261.45544866696054 L54 257.6579503311281 L55 253.86045199529573 L56 250.06295365946332 L57 246.2654553236309 L58 242.4679569877985 L59 238.67045865196607 L60 234.87296031613363 L61 231.07546198030127 L62 227.27796364446883 L63 223.48046530863644 L64 219.68296697280402 L65 215.88546863697158 L66 212.0879703011392 L67 208.29047196530678 L68 204.4929736294744 L69 200.69547529364198 L70 196.89797695780953 L71 193.10047862197715 L72 189.30298028614473 L73 185.50548195031234 L74 181.7079836144799 L75 177.91048527864749 L76 174.1129869428151 L77 170.31548860698265 L78 166.51799027115024 L79 162.72049193531785 L80 158.9229935994854 L81 155.12549526365302 L82 151.3279969278206 L83 147.5304985919882 L84 143.73300025615578 L85 139.93550192032336 L86 136.13800358449097 L87 132.34050524865853 L88 128.54300691282612 L89 124.74550857699374 L90 120.94801024116131 L91 117.15051190532893 L92 113.3530135694965 L93 109.55551523366407 L94 282.9141168978317 L95 279.1166185619993 L96 275.31912022616694 L97 271.5216218903345 L98 267.72412355450206 L99 263.9266252186697 L100 260.1291268828372 L101 256.3316285470048 L102 252.53413021117245 L103 248.73663187534 L104 244.93913353950762 L105 241.1416352036752 L106 237.34413686784276 L107 233.54663853201038 L108 229.74914019617796 L109 225.95164186034557 L110 222.15414352451313 L111 218.35664518868072 L112 214.55914685284833 L113 210.76164851701589 L114 206.96415018118353 L115 203.16665184535108 L116 199.36915350951867 L117 195.57165517368628 L118 191.77415683785384 L119 187.97665850202142 L120 184.17916016618898 L121 180.3816618303566 L122 176.5841634945242 L123 172.78666515869185 L124 168.98916682285935 L125 165.19166848702696 L126 161.3941701511946 L127 157.5966718153621 L128 153.7991734795297 L129 150.00167514369735 L130 146.20417680786488 L131 142.4066784720325 L132 138.6091801362001 L133 134.81168180036764 L134 131.01418346453522 L135 127.21668512870286 L136 123.41918679287048 L137 119.621688457038 L138 115.82419012120562 L139 112.02669178537323 L140 285.3852934495408 L141 281.58779511370847 L142 277.79029677787605 L143 273.9927984420436 L144 270.1953001062112 L145 266.3978017703788 L146 262.60030343454645 L147 258.802805098714 L148 255.00530676288156 L149 251.2078084270492 L150 247.4103100912167 L151 243.6128117553843 L152 239.81531341955196 L153 236.01781508371946 L154 232.22031674788707 L155 228.4228184120547 L156 224.6253200762222 L157 220.82782174038982 L158 217.03032340455746 L159 213.23282506872508 L160 209.43532673289258 L161 205.63782839706022 L162 201.84033006122783 L163 198.04283172539536 L164 194.24533338956297 L165 190.44783505373059 L166 186.6503367178981 L167 182.85283838206573 L168 179.05534004623334 L169 175.25784171040095 L170 171.46034337456848 L171 167.6628450387361 L172 163.8653467029037 L173 160.06784836707124 L174 156.27035003123885 L175 152.47285169540646 L176 148.675353359574 L177 144.8778550237416 L178 141.08035668790922 L179 137.28285835207674 L180 133.48536001624439 L181 129.68786168041197 L182 125.8903633445796 L183 122.09286500874713 L184 118.29536667291474 L185 114.49786833708237 L186 110.70037000124988 L187 284.0589716654176 L188 280.26147332958516 L189 276.4639749937527 L190 272.6664766579203 L191 268.8689783220879 L192 265.07147998625555 L193 261.2739816504231 L194 257.47648331459067 L195 253.6789849787583 L196 249.88148664292584 L197 246.08398830709345 L198 242.28648997126106 L199 238.4889916354286 L200 234.6914932995962 L201 230.89399496376382 L202 227.09649662793134 L203 223.29899829209896 L204 219.50149995626657 L205 215.70400162043418 L206 211.9065032846017 L207 208.10900494876932 L208 204.31150661293694 L209 200.51400827710447 L210 196.71650994127208 L211 192.91901160543972 L212 189.12151326960722 L213 185.32401493377483 L214 181.52651659794248 L215 177.72901826210997 L216 173.9315199262776 L217 170.13402159044523 L218 166.33652325461284 L219 162.53902491878034 L220 158.74152658294798 L221 154.9440282471156 L222 151.1465299112831 L223 147.34903157545074 L224 143.55153323961835 L225 139.75403490378588 L226 135.9565365679535 L227 132.1590382321211 L228 128.36153989628872 L229 124.56404156045625 L230 120.76654322462386 L231 116.96904488879149 L232 113.171546552959 L233 109.37404821712661 L234 282.73264988129426 L235 278.93515154546185 L236 275.13765320962943 L237 271.3401548737971 L238 267.5426565379646 L239 263.7451582021323 L240 259.9476598662997 L241 256.15016153046736 L242 252.35266319463494 L243 248.55516485880258 L244 244.7576665229702 L245 240.9601681871378 L246 237.16266985130542 L247 233.36517151547284 L248 229.56767317964045 L249 225.7701748438081 L250 221.9726765079757 L251 218.17517817214332 L252 214.37767983631093 L253 210.58018150047835 L254 206.782683164646 L255 202.9851848288136 L256 199.18768649298121 L257 195.39018815714883 L258 191.59268982131644 L259 187.79519148548408 L260 183.9976931496515 L261 180.2001948138191 L262 176.40269647798672 L263 172.60519814215434 L264 168.80769980632198 L265 165.0102014704896 L266 161.212703134657 L267 157.41520479882462 L268 153.61770646299223 L269 149.82020812715984 L270 146.0227097913275 L271 142.2252114554951 L272 138.4277131196627 L273 134.63021478383013 L274 130.83271644799777 L275 127.03521811216537 L276 123.237719776333 L277 119.44022144050061 L278 115.64272310466822 L279 111.84522476883565 L280 285.2038264330033 L281 281.40632809717096 L282 277.60882976133854 L283 273.8113314255062 L284 270.01383308967377 L285 266.2163347538414 L286 262.4188364180088 L287 258.62133808217646 L288 254.82383974634408 L289 251.0263414105117 L290 247.2288430746793 L291 243.43134473884692 L292 239.63384640301456 L293 235.83634806718197 L294 232.0388497313496 L295 228.2413513955172 L296 224.4438530596848 L297 220.64635472385245 L298 216.84885638802007 L299 213.05135805218748 L300 209.2538597163551 L301 205.4563613805227 L302 201.65886304469035 L303 197.86136470885796 L304 194.06386637302558 L305 190.2663680371932 L306 186.4688697013606 L307 182.67137136552822 L308 178.87387302969586 L309 175.07637469386347 L310 171.27887635803108 L311 167.4813780221987 L312 163.68387968636614 L313 159.88638135053372 L314 156.08888301470137 L315 152.29138467886898 L316 148.4938863430366 L317 144.69638800720423 L318 140.89888967137182 L319 137.10139133553926 L320 133.30389299970687 L321 129.5063946638745 L322 125.70889632804212 L323 121.91139799220973 L324 118.11389965637734 L325 114.31640132054477 L326 110.51890298471238 L327 283.87750464888006 L328 280.0800063130477 L329 276.2825079772153 L330 272.48500964138293 L331 268.6875113055505 L332 264.890012969718 L333 261.09251463388557 L334 257.2950162980532 L335 253.49751796222083 L336 249.70001962638844 L337 245.90252129055605 L338 242.10502295472367 L339 238.30752461889108 L340 234.51002628305872 L341 230.71252794722633 L342 226.91502961139395 L343 223.11753127556156 L344 219.32003293972917 L345 215.5225346038966 L346 211.72503626806423 L347 207.92753793223184 L348 204.13003959639946 L349 200.33254126056707 L350 196.5350429247347 L351 192.73754458890232 L352 188.94004625306974 L353 185.14254791723735 L354 181.34504958140496 L355 177.5475512455726 L356 173.75005290974022 L357 169.95255457390783 L358 166.15505623807525 L359 162.35755790224286 L360 158.56005956641047 L361 154.76256123057811 L362 150.96506289474573 L363 147.16756455891334 L364 143.37006622308095 L365 139.57256788724837 L366 135.77506955141598 L367 131.97757121558362 L368 128.18007287975124 L369 124.38257454391885 L370 120.58507620808648 L371 116.78757787225389 L372 112.9900795364215 L373 109.19258120058913 L374 282.5511828647568 L375 278.7536845289244 L376 274.95618619309204 L377 271.1586878572597 L378 267.3611895214271 L379 263.5636911855947 L380 259.7661928497623 L381 255.96869451392993 L382 252.17119617809755 L383 248.3736978422652 L384 244.5761995064328 L385 240.77870117060021 L386 236.98120283476783 L387 233.18370449893544 L388 229.38620616310308 L389 225.5887078272707 L390 221.7912094914383 L391 217.99371115560572 L392 214.19621281977334 L393 210.39871448394098 L394 206.6012161481086 L395 202.8037178122762 L396 199.00621947644382 L397 195.20872114061143 L398 191.41122280477884 L399 187.6137244689465 " stroke = "blue" stroke-width = "4" fill = "none" /></svg>