<svg width="400" height="400" viewbox = "0 0 400 400"  xmlns="http://www.w3.org/2000/svg">

<!--
<topfunctions>






function YofX(){
//foobar foobar
    X = plotparams.g*(x - plotparams.x0) - funcparams.X0;

    Y = Math.abs(X%100);

    y = plotparams.y0 - plotparams.G*(Y - funcparams.Y0);
}





function plotfunction(){
    
    /*plot one function:*/
    currentStroke = "blue";
    currentLineWidth = 4;
    ctx.strokeStyle = currentStroke;
    ctx.lineWidth = currentLineWidth;
    ctx.beginPath();	
    x = 0;
    intx = x;
    YofX();
    currentSVG += "	<path d = \"M";
    currentSVG += Math.round(x).toString() + " ";
    currentSVG += Math.round(y).toString() + " ";
    for(x = 1;x < plotparams.plotwidth;x++){
        ctx.moveTo(x-1,y);
        YofX();
        ctx.lineTo(x,y);
        currentSVG += "L" + x + " " + y + " ";
    }
    ctx.stroke();
    currentSVG += "\""+ " stroke = \"" + currentStroke + "\" stroke-width = \"" + currentLineWidth.toString() + "\" fill = \"" + "none" + "\" "+"/>";
    /*finish plot one function*/
    
    

}





























</topfunctions>
-->

<!--
<imgurl>

</imgurl>
-->

<!--
<currentjson>
{
    "constants": {},
    "imgurl": "",
    "plotparams": {
        "G": 1.331,
        "g": 1.771561,
        "duration": 450.78888054094654,
        "plotwidth": 400,
        "plotheight": 400,
        "x0": 0,
        "y0": 200.00000000000003
    },
    "funcparams": {
        "phi": 0.2688139066614501,
        "T": 1.4465183912692552,
        "X0": 0,
        "Y0": 48.30020556225738
    }
}
</currentjson>
-->

<!--
<equation>





<h2>Sin</h2>
<p style="color:blue">

</p><p class="bigeq">
$$
square wave
$$
</p>
<p></p>

$$
X = g(x - x_0) - X_0
$$
$$
Y = f(X)
$$
    
$$
y = y_0 - G(Y - Y_0)
$$


<p>
    X and Y, and $X_0$ and $Y_0$ in physical units of the System. x and y and x0 and y0 in pixels.  G is in pixels per Y unit and g is in X units per pixel. 
</p>






</equation>
-->
	<path d = "M0 264 L1 261.9296259123646 L2 259.5716782213646 L3 257.2137305303646 L4 254.8557828393646 L5 252.4978351483646 L6 250.1398874573646 L7 247.7819397663646 L8 245.4239920753646 L9 243.0660443843646 L10 240.7080966933646 L11 238.35014900236462 L12 235.9922013113646 L13 233.6342536203646 L14 231.2763059293646 L15 228.9183582383646 L16 226.5604105473646 L17 224.2024628563646 L18 221.8445151653646 L19 219.48656747436462 L20 217.1286197833646 L21 214.7706720923646 L22 212.4127244013646 L23 210.0547767103646 L24 207.6968290193646 L25 205.3388813283646 L26 202.98093363736461 L27 200.6229859463646 L28 198.2650382553646 L29 195.9070905643646 L30 193.54914287336462 L31 191.1911951823646 L32 188.8332474913646 L33 186.4752998003646 L34 184.11735210936462 L35 181.7594044183646 L36 179.4014567273646 L37 177.0435090363646 L38 174.68556134536462 L39 172.3276136543646 L40 169.9696659633646 L41 167.6117182723646 L42 165.2537705813646 L43 162.89582289036463 L44 160.5378751993646 L45 158.1799275083646 L46 155.8219798173646 L47 153.4640321263646 L48 151.1060844353646 L49 148.74813674436461 L50 146.39018905336462 L51 144.0322413623646 L52 141.6742936713646 L53 139.31634598036462 L54 136.9583982893646 L55 134.6004505983646 L56 132.2425029073646 L57 262.9845552163646 L58 260.6266075253646 L59 258.2686598343646 L60 255.9107121433646 L61 253.5527644523646 L62 251.19481676136462 L63 248.83686907036463 L64 246.4789213793646 L65 244.1209736883646 L66 241.76302599736462 L67 239.4050783063646 L68 237.0471306153646 L69 234.68918292436462 L70 232.3312352333646 L71 229.9732875423646 L72 227.6153398513646 L73 225.25739216036462 L74 222.8994444693646 L75 220.5414967783646 L76 218.1835490873646 L77 215.82560139636462 L78 213.4676537053646 L79 211.1097060143646 L80 208.7517583233646 L81 206.3938106323646 L82 204.0358629413646 L83 201.67791525036463 L84 199.31996755936458 L85 196.96201986836462 L86 194.60407217736463 L87 192.24612448636458 L88 189.88817679536461 L89 187.53022910436462 L90 185.17228141336463 L91 182.8143337223646 L92 180.45638603136462 L93 178.09843834036462 L94 175.7404906493646 L95 173.3825429583646 L96 171.02459526736462 L97 168.6666475763646 L98 166.3086998853646 L99 163.9507521943646 L100 161.59280450336462 L101 159.2348568123646 L102 156.87690912136463 L103 154.51896143036464 L104 152.1610137393646 L105 149.8030660483646 L106 147.44511835736463 L107 145.0871706663646 L108 142.72922297536462 L109 140.37127528436463 L110 138.01332759336458 L111 135.6553799023646 L112 133.29743221136462 L113 264.0394845203646 L114 261.68153682936463 L115 259.3235891383646 L116 256.96564144736465 L117 254.6076937563646 L118 252.2497460653646 L119 249.8917983743646 L120 247.5338506833646 L121 245.1759029923646 L122 242.81795530136463 L123 240.46000761036464 L124 238.1020599193646 L125 235.7441122283646 L126 233.38616453736464 L127 231.02821684636461 L128 228.67026915536462 L129 226.31232146436463 L130 223.9543737733646 L131 221.59642608236462 L132 219.23847839136462 L133 216.8805307003646 L134 214.5225830093646 L135 212.16463531836462 L136 209.80668762736462 L137 207.4487399363646 L138 205.0907922453646 L139 202.73284455436462 L140 200.3748968633646 L141 198.0169491723646 L142 195.6590014813646 L143 193.3010537903646 L144 190.9431060993646 L145 188.58515840836458 L146 186.22721071736464 L147 183.8692630263646 L148 181.51131533536457 L149 179.15336764436464 L150 176.79541995336461 L151 174.43747226236457 L152 172.07952457136463 L153 169.7215768803646 L154 167.36362918936464 L155 165.00568149836462 L156 162.6477338073646 L157 160.28978611636467 L158 157.93183842536462 L159 155.5738907343646 L160 153.21594304336463 L161 150.8579953523646 L162 148.5000476613646 L163 146.14209997036465 L164 143.7841522793646 L165 141.42620458836458 L166 139.06825689736465 L167 136.71030920636463 L168 134.35236151536458 L169 131.99441382436464 L170 262.7364661333646 L171 260.37851844236457 L172 258.02057075136463 L173 255.6626230603646 L174 253.3046753693646 L175 250.94672767836462 L176 248.5887799873646 L177 246.23083229636467 L178 243.87288460536462 L179 241.5149369143646 L180 239.15698922336463 L181 236.79904153236464 L182 234.4410938413646 L183 232.08314615036466 L184 229.7251984593646 L185 227.36725076836458 L186 225.00930307736465 L187 222.65135538636463 L188 220.29340769536458 L189 217.93546000436464 L190 215.57751231336462 L191 213.2195646223646 L192 210.86161693136464 L193 208.50366924036462 L194 206.1457215493646 L195 203.78777385836463 L196 201.4298261673646 L197 199.0718784763646 L198 196.71393078536462 L199 194.3559830943646 L200 191.99803540336467 L201 189.64008771236462 L202 187.2821400213646 L203 184.92419233036466 L204 182.56624463936464 L205 180.2082969483646 L206 177.85034925736466 L207 175.49240156636463 L208 173.13445387536458 L209 170.77650618436465 L210 168.41855849336463 L211 166.06061080236458 L212 163.70266311136464 L213 161.34471542036462 L214 158.9867677293646 L215 156.62882003836464 L216 154.27087234736462 L217 151.9129246563646 L218 149.55497696536463 L219 147.1970292743646 L220 144.8390815833646 L221 142.48113389236465 L222 140.1231862013646 L223 137.76523851036467 L224 135.40729081936462 L225 133.04934312836463 L226 263.79139543736466 L227 261.4334477463646 L228 259.0755000553646 L229 256.7175523643647 L230 254.35960467336463 L231 252.00165698236458 L232 249.64370929136464 L233 247.28576160036462 L234 244.9278139093646 L235 242.56986621836464 L236 240.21191852736462 L237 237.8539708363646 L238 235.49602314536463 L239 233.1380754543646 L240 230.7801277633646 L241 228.42218007236465 L242 226.0642323813646 L243 223.70628469036458 L244 221.34833699936465 L245 218.9903893083646 L246 216.63244161736466 L247 214.27449392636464 L248 211.9165462353646 L249 209.55859854436466 L250 207.20065085336464 L251 204.84270316236461 L252 202.48475547136465 L253 200.12680778036463 L254 197.7688600893646 L255 195.41091239836464 L256 193.05296470736462 L257 190.6950170163646 L258 188.33706932536464 L259 185.97912163436462 L260 183.6211739433646 L261 181.26322625236463 L262 178.9052785613646 L263 176.5473308703646 L264 174.18938317936465 L265 171.8314354883646 L266 169.47348779736458 L267 167.11554010636465 L268 164.75759241536463 L269 162.39964472436466 L270 160.04169703336464 L271 157.6837493423646 L272 155.32580165136466 L273 152.96785396036464 L274 150.60990626936461 L275 148.25195857836465 L276 145.89401088736463 L277 143.5360631963646 L278 141.17811550536464 L279 138.82016781436462 L280 136.4622201233646 L281 134.10427243236467 L282 131.74632474136462 L283 262.4883770503646 L284 260.13042935936465 L285 257.7724816683646 L286 255.41453397736458 L287 253.05658628636465 L288 250.69863859536463 L289 248.34069090436458 L290 245.98274321336456 L291 243.62479552236468 L292 241.26684783136466 L293 238.90890014036464 L294 236.55095244936462 L295 234.19300475836457 L296 231.83505706736457 L297 229.4771093763647 L298 227.11916168536465 L299 224.76121399436462 L300 222.4032663033646 L301 220.04531861236458 L302 217.68737092136456 L303 215.32942323036468 L304 212.97147553936466 L305 210.6135278483646 L306 208.2555801573646 L307 205.89763246636457 L308 203.5396847753647 L309 201.18173708436467 L310 198.82378939336465 L311 196.46584170236463 L312 194.10789401136458 L313 191.74994632036456 L314 189.3919986293647 L315 187.03405093836466 L316 184.67610324736464 L317 182.31815555636462 L318 179.9602078653646 L319 177.60226017436457 L320 175.2443124833647 L321 172.88636479236465 L322 170.52841710136462 L323 168.1704694103646 L324 165.81252171936458 L325 163.45457402836456 L326 161.09662633736468 L327 158.73867864636466 L328 156.38073095536464 L329 154.0227832643646 L330 151.66483557336457 L331 149.3068878823647 L332 146.94894019136467 L333 144.59099250036465 L334 142.23304480936463 L335 139.8750971183646 L336 137.5171494273646 L337 135.1592017363647 L338 132.80125404536466 L339 263.54330635436463 L340 261.1853586633646 L341 258.8274109723646 L342 256.46946328136454 L343 254.1115155903647 L344 251.75356789936467 L345 249.39562020836462 L346 247.0376725173646 L347 244.67972482636458 L348 242.32177713536456 L349 239.96382944436468 L350 237.60588175336466 L351 235.24793406236464 L352 232.8899863713646 L353 230.53203868036456 L354 228.1740909893647 L355 225.81614329836466 L356 223.45819560736464 L357 221.10024791636462 L358 218.7423002253646 L359 216.38435253436458 L360 214.0264048433647 L361 211.66845715236468 L362 209.31050946136463 L363 206.9525617703646 L364 204.5946140793646 L365 202.23666638836457 L366 199.8787186973647 L367 197.52077100636467 L368 195.16282331536465 L369 192.8048756243646 L370 190.44692793336458 L371 188.08898024236456 L372 185.73103255136468 L373 183.37308486036466 L374 181.01513716936464 L375 178.65718947836461 L376 176.29924178736456 L377 173.94129409636471 L378 171.5833464053647 L379 169.22539871436464 L380 166.86745102336462 L381 164.5095033323646 L382 162.15155564136458 L383 159.7936079503647 L384 157.43566025936468 L385 155.07771256836463 L386 152.7197648773646 L387 150.3618171863646 L388 148.00386949536457 L389 145.6459218043647 L390 143.28797411336467 L391 140.93002642236465 L392 138.57207873136463 L393 136.21413104036458 L394 133.85618334936456 L395 131.4982356583647 L396 262.2402879673647 L397 259.88234027636463 L398 257.5243925853646 L399 255.1664448943646 " stroke = "blue" stroke-width = "4" fill = "none" /></svg>