<svg width="400" height="400" viewbox = "0 0 400 400"  xmlns="http://www.w3.org/2000/svg">

<!--
<topfunctions>









function YofX(){
//foobar foobar
    X = plotparams.g*(x - plotparams.x0) - funcparams.X0;
    Y = Math.sin(funcparams.phi + (Math.PI*2*X/funcparams.T));
    y = plotparams.y0 - plotparams.G*(Y - funcparams.Y0);
}

//foo
function YofX2(){
    X = plotparams.g*(x - plotparams.x0) - funcparams.X0;
    Y = Math.sin(0.5*Math.PI + funcparams.phi + (Math.PI*2*X/funcparams.T));    
    y = plotparams.y0 - plotparams.G*(Y - funcparams.Y0);
 }



function plotfunction(){

/*
    currentStroke = "blue";
    currentLineWidth = 4;
    ctx.strokeStyle = currentStroke;
    ctx.lineWidth = currentLineWidth;
    ctx.beginPath();	
    x = 0;
    y = 0;
    t= 0;
    XYofT();
    currentSVG += "	<path d = \"M";
    currentSVG += Math.round(x).toString() + " ";
    currentSVG += Math.round(y).toString() + " ";
    for(t = 1;t < plotparams.duration;t++){
        ctx.moveTo(x,y);
        XYofT();
        ctx.lineTo(x,y);
        currentSVG += "L" + x + " " + y + " ";
    }
    ctx.stroke();
    currentSVG += "\""+ " stroke = \"" + currentStroke + "\" stroke-width = \"" + currentLineWidth.toString() + "\" fill = \"" + "none" + "\" "+"/>";


    /*plot one function:*/
    currentStroke = "blue";
    currentLineWidth = 4;
    ctx.strokeStyle = currentStroke;
    ctx.lineWidth = currentLineWidth;
    ctx.beginPath();	
    x = 0;
    YofX();
    currentSVG += "	<path d = \"M";
    currentSVG += Math.round(x).toString() + " ";
    currentSVG += Math.round(y).toString() + " ";
    for(x = 1;x < plotparams.plotwidth;x++){
        ctx.moveTo(x-1,y);
        YofX();
        ctx.lineTo(x,y);
        currentSVG += "L" + x + " " + y + " ";
    }
    ctx.stroke();
    currentSVG += "\""+ " stroke = \"" + currentStroke + "\" stroke-width = \"" + currentLineWidth.toString() + "\" fill = \"" + "none" + "\" "+"/>";
    /*finish plot one function*/
    
    

}



























</topfunctions>
-->

<!--
<imgurl>

</imgurl>
-->

<!--
<currentjson>
{
    "constants": {},
    "imgurl": "",
    "plotparams": {
        "G": 121.00000000000004,
        "g": 0.009229599817706406,
        "duration": 409.8080732190423,
        "plotwidth": 400,
        "plotheight": 400,
        "x0": 101.33887168983345,
        "y0": 200
    },
    "funcparams": {
        "phi": 0.2688139066614501,
        "T": 1.4465183912692552,
        "X0": 0,
        "Y0": 0
    }
}
</currentjson>
-->

<!--
<equation>




<h2>Sin</h2>
<p style="color:blue">

</p><p class="bigeq">
$$
Y = \sin{\left(\phi + \frac{2\pi X}{T}\right)}

$$
</p>
<p></p>

$$
X = g(x - x_0) - X_0
$$
$$
Y = f(X)
$$
    
$$
y = y_0 - G(Y - Y_0)
$$


<p>
    X and Y, and $X_0$ and $Y_0$ in physical units of the System. x and y and x0 and y0 in pixels.  G is in pixels per Y unit and g is in X units per pixel. 
</p>





</equation>
-->
	<path d = "M0 127 L1 130.4646157472193 L2 134.48933733586614 L3 138.61933541130864 L4 142.84797301293344 L5 147.16845466512598 L6 151.57383729768813 L7 156.0570414034421 L8 160.61086241509065 L9 165.2279822830509 L10 169.9009812356543 L11 174.62234970281673 L12 179.38450038401527 L13 184.17978044117874 L14 189.00048379689784 L15 193.83886351819197 L16 198.68714426593118 L17 203.53753478990743 L18 208.38224044947444 L19 213.21347573963726 L20 218.02347680245967 L21 222.80451390368503 L22 227.5489038545195 L23 232.24902235861617 L24 236.89731626441957 L25 241.48631570317679 L26 246.00864609311486 L27 250.45703999048925 L28 254.82434876846042 L29 259.10355410503007 L30 263.28777926157585 L31 267.37030013386004 L32 271.34455605775213 L33 275.20416035230164 L34 278.9429105832172 L35 282.5547985302594 L36 286.0340198425288 L37 289.37498336613305 L38 292.5723201292441 L39 295.62089197010573 L40 298.5157997941265 L41 301.252391446788 L42 303.82626918971806 L43 306.23329676791326 L44 308.46960605675474 L45 310.53160327813464 L46 312.415974775704 L47 314.1196923399622 L48 315.64001807462853 L49 316.97450879647704 L50 318.12101996156423 L51 319.07770911153875 L52 319.8430388344957 L53 320.41577923561823 L54 320.79500991363375 L55 320.9801214399112 L56 320.97081633782074 L57 320.7671095607824 L58 320.3693284682359 L59 319.7781122995696 L60 318.99441114685476 L61 318.01948442803484 L62 316.85489886302497 L63 315.5025259559722 L64 313.9645389877244 L65 312.24340952333915 L66 310.3419034402474 L67 308.2630764834514 L68 306.01026935490387 L69 303.5871023449555 L70 300.997469514502 L71 298.24553243717713 L72 295.33571351165017 L73 292.2726888547735 L74 289.06138078700184 L75 285.70694992215977 L76 282.2147868742678 L77 278.5905035947556 L78 274.8399243539832 L79 270.9690763815626 L80 266.9841801805218 L81 262.89163953087495 L82 258.6980311986651 L83 254.41009436701538 L84 250.03471980617417 L85 245.57893879995768 L86 241.04991184638547 L87 236.45491715066697 L88 231.8013389290311 L89 227.09665554219467 L90 222.3484274775396 L91 217.56428519931129 L92 212.7519168863634 L93 207.9190560771544 L94 203.07346924185077 L95 198.2229433015084 L96 193.37527311438916 L97 188.53824894952243 L98 183.71964396764133 L99 178.92720172961242 L100 174.16862375243272 L101 169.4515571327916 L102 164.78358225808714 L103 160.17220062464486 L104 155.6248227827157 L105 151.14875642762533 L106 146.75119465621268 L107 142.43920440742988 L108 138.21971510567946 L109 134.09950752513916 L110 130.08520289296973 L111 126.18325224891665 L112 122.39992607840554 L113 118.7413042357904 L114 115.2132661739487 L115 111.8214814959241 L116 108.57140084380062 L117 105.46824713944997 L118 102.51700719122815 L119 99.72242368010957 L120 97.08898753813716 L121 94.62093073143596 L122 92.32221945938875 L123 90.19654778090192 L124 88.24733167800484 L125 86.47770356632229 L126 84.8905072612418 L127 83.48829340786538 L128 82.2733153820897 L129 81.2475256694016 L130 80.41257272720866 L131 79.76979833574664 L132 79.32023544182118 L133 79.0646064988489 L134 79.00332230586532 L135 79.13648134736553 L136 79.46386963503821 L137 79.98496105164777 L138 80.69891819651149 L139 81.60459373121333 L140 82.70053222339173 L141 83.98497248563827 L142 85.45585040574878 L143 87.11080226377847 L144 88.94716853057066 L145 90.96199814165469 L146 93.1520532396449 L147 95.51381437751954 L148 98.04348617441791 L149 100.73700341486685 L150 103.5900375816346 L151 106.59800381171469 L152 109.75606826426005 L153 113.05915588862821 L154 116.50195858005385 L155 120.07894370984194 L156 123.78436301637414 L157 127.61226184263987 L158 131.55648870544778 L159 135.6107051809389 L160 139.7683960905166 L161 144.02287997082286 L162 148.36731981093718 L163 152.7947340395417 L164 157.29800774439752 L165 161.86990410610082 L166 166.50307602774564 L167 171.1900779418047 L168 175.92337777525282 L169 180.69536905370626 L170 185.49838312512583 L171 190.32470148344106 L172 195.16656817228906 L173 200.0162022489377 L174 204.86581028836156 L175 209.70759890737745 L176 214.53378728871263 L177 219.3366196848788 L178 224.10837788175968 L179 228.84139360188166 L180 233.52806082743464 L181 238.16084802324218 L182 242.73231024003636 L183 247.23510107858795 L184 251.66198449546548 L185 256.0058464314512 L186 260.25970624392687 L187 264.4167279248571 L188 268.4702310863431 L189 272.4137016960929 L190 276.2408025455562 L191 279.9453834339007 L192 283.5214910514648 L193 286.9633785468035 L194 290.26551476195414 L195 293.4225931210781 L196 296.4295401581979 L197 299.2815236703229 L198 301.97396048286225 L199 304.502523814846 L200 306.8631502321183 L201 309.05204617732943 L202 311.0656940662311 L203 312.90085794048065 L204 314.5545886678678 L205 316.02422868160875 L206 317.3074162510903 L207 318.40208927720175 L208 319.3064886061553 L209 320.01916085646855 L210 320.5389607545677 L211 320.865052975257 L212 320.9969134840975 L213 320.9343303795366 L214 320.67740423343736 L215 320.2265479294574 L216 319.58248599954027 L217 318.74625345958253 L218 317.71919414615036 L219 316.502958556916 L220 315.0995011982874 L221 313.51107744449007 L222 311.7402399131522 L223 309.7898343632145 L224 307.66299512175846 L225 305.36314004710243 L226 302.89396503625846 L227 300.25943808557787 L228 297.46379291412956 L229 294.51152216005846 L230 291.4073701608572 L231 288.1563253291547 L232 284.7636121362718 L233 281.23468271642787 L234 277.5752081050906 L235 273.7910691255478 L236 269.8883469383484 L237 265.8733132687973 L238 261.75242032821325 L239 257.532290445139 L240 253.219705423175 L241 248.82159564253195 L242 244.34502892281995 L243 239.79719916497046 L244 235.18541479054386 L245 230.51708699700106 L246 225.7997178478128 L247 221.04088821654622 L248 216.24824560430173 L249 211.42949185008027 L250 206.59237075382813 L251 201.74465563204782 L252 196.8941368259795 L253 192.04860918242014 L254 187.2158595273038 L255 182.4036541521708 L256 177.61972633363646 L257 172.87176390591495 L258 168.16739690636982 L259 163.5141853139441 L260 158.91960690017692 L261 154.3910452123265 L262 149.93577770791478 L263 145.56096405975666 L264 141.27363465027452 L265 137.08067927358147 L266 132.98883606349264 L267 129.0046806652566 L268 125.13461566840785 L269 121.38486031772247 L270 117.76144051881016 L271 114.27017915440655 L272 110.91668672692407 L273 107.70635234230268 L274 104.64433504964487 L275 101.73555555055827 L276 98.98468829152344 L277 96.39615395199763 L278 93.97411234032553 L279 91.7224557088731 L280 89.6448024991275 L281 87.74449152681419 L282 86.02457661637725 L283 84.4878216934433 L284 83.13669634315742 L285 81.97337184152747 L286 80.99971766615516 L287 80.2172984919617 L288 79.62737167673453 L289 79.23088524053706 L290 79.02847634222812 L291 79.02047025553944 L292 79.20687984635637 L293 79.58740555204248 L294 80.16143586284042 L295 80.92804830457604 L296 81.88601092108652 L297 83.03378425398992 L298 84.36952381661472 L299 85.89108305811394 L300 87.59601681300026 L301 89.48158523055882 L302 91.54475817782284 L303 93.78222010903663 L304 96.19037539378122 L305 98.76535409519849 L306 101.5030181890305 L307 104.3989682134781 L308 107.44855033919339 L309 110.64686384804385 L310 113.98876900863019 L311 117.46889533590137 L312 121.08165022159471 L313 124.8212279216285 L314 128.6816188860097 L315 132.65661941625868 L316 136.73984163483263 L317 140.92472375052853 L318 145.20454060336658 L319 149.57241447200977 L320 154.02132612635236 L321 158.54412610751203 L322 163.13354621710494 L323 167.78221119733504 L324 172.4826505831283 L325 177.22731070726724 L326 182.0085668392333 L327 186.8187354382478 L328 191.65008650082095 L329 196.49485598296874 L330 201.3452582771325 L331 206.19349872375128 L332 211.0317861373811 L333 215.85234532723206 L334 220.64742959199998 L335 225.40933316891594 L336 230.1304036170093 L337 234.80305411467702 L338 239.41977565180645 L339 243.973149096853 L340 248.45585711947808 L341 252.8606959495968 L342 257.18058695392904 L343 261.4085880114554 L344 265.5379046694957 L345 269.5619010624836 L346 273.474110575888 L347 277.2682462381464 L348 280.938210823911 L349 284.4781066523689 L350 287.8822450648912 L351 291.1451555667819 L352 294.26159461843383 L353 297.22655406176506 L354 300.0352691683941 L355 302.68322629662055 L356 305.16617014490544 L357 307.48011059019643 L358 309.621329100108 L359 311.58638470865026 L360 313.37211954590686 L361 314.97566391277314 L362 316.39444089259894 L363 317.6261704923281 L364 318.6688733064765 L365 319.52087369806264 L366 320.1808024913779 L367 320.6475991722698 L368 320.920513592402 L369 320.9991071747523 L370 320.8832536184119 L371 320.5731391015524 L372 320.06926198223505 L373 319.37243199754295 L374 318.4837689623231 L375 317.40470096962906 L376 316.1369620957573 L377 314.68258961356366 L378 313.0439207185394 L379 311.2235887729083 L380 309.22451907377797 L381 307.04992415215077 L382 304.70329861034423 L383 302.1884135061191 L384 299.50931029254104 L385 296.6702943233132 L386 293.6759279340169 L387 290.53102311037736 L388 287.2406337553426 L389 283.8100475673946 L390 280.24477754314756 L391 276.55055311789306 L392 272.73331095832214 L393 268.79918542222435 L394 264.7544987004946 L395 260.60575065729216 L396 256.3596083846719 L397 252.02289548848242 L398 247.60258112274218 L399 243.10576879011847 " stroke = "blue" stroke-width = "4" fill = "none" /></svg>