<svg width="400" height="400" viewbox = "0 0 400 400"  xmlns="http://www.w3.org/2000/svg">

<!--
<topfunctions>






function YofX(){
    X = plotparams.g*(x - plotparams.x0) - funcparams.X0;
    Y = 1/Math.tanh(X);
    y = plotparams.y0 - plotparams.G*(Y - funcparams.Y0);
}


function YofX2(){
    X = plotparams.g*(x - plotparams.x0) - funcparams.X0;
    Y = funcparams.b*X*X + funcparams.c*X + funcparams.d;
    y = plotparams.y0 - plotparams.G*(Y - funcparams.Y0);
 }

function XYofT(){
    T = plotparams.g*t;
    X = Math.exp(-T/funcparams.tau)*Math.cos(2*Math.PI*T/funcparams.T);
    Y = Math.exp(-T/funcparams.tau)*Math.sin(2*Math.PI*T/funcparams.T);
    y = plotparams.y0 - plotparams.G*(Y - funcparams.Y0);
    x = plotparams.x0 - plotparams.G*(X - funcparams.X0);    
}


function plotfunction(){
/*

    currentStroke = "blue";
    currentLineWidth = 4;
    ctx.strokeStyle = currentStroke;
    ctx.lineWidth = currentLineWidth;
    ctx.beginPath();	
    x = 0;
    y = 0;
    t= 0;
    XYofT();
    currentSVG += "	<path d = \"M";
    currentSVG += Math.round(x).toString() + " ";
    currentSVG += Math.round(y).toString() + " ";
    for(t = 1;t < plotparams.duration;t++){
        ctx.moveTo(x,y);
        XYofT();
        ctx.lineTo(x,y);
        currentSVG += "L" + x + " " + y + " ";
    }
    ctx.stroke();
    currentSVG += "\""+ " stroke = \"" + currentStroke + "\" stroke-width = \"" + currentLineWidth.toString() + "\" fill = \"" + "none" + "\" "+"/>";


    /*plot one function:*/
    currentStroke = "blue";
    currentLineWidth = 4;
    ctx.strokeStyle = currentStroke;
    ctx.lineWidth = currentLineWidth;
    ctx.beginPath();	
    x = 0;
    YofX();
    currentSVG += "	<path d = \"M";
    currentSVG += Math.round(x).toString() + " ";
    currentSVG += Math.round(y).toString() + " ";
    for(x = 1;x < plotparams.plotwidth;x++){
        ctx.moveTo(x-1,y);
        YofX();
        ctx.lineTo(x,y);
        currentSVG += "L" + x + " " + y + " ";
    }
    ctx.stroke();
    currentSVG += "\""+ " stroke = \"" + currentStroke + "\" stroke-width = \"" + currentLineWidth.toString() + "\" fill = \"" + "none" + "\" "+"/>";
    /*finish plot one function*/
    

}




























</topfunctions>
-->

<!--
<imgurl>

</imgurl>
-->

<!--
<currentjson>
{
    "constants": {},
    "imgurl": "",
    "plotparams": {
        "G": 3.58669141914442,
        "g": 0.008390545288824004,
        "duration": 545.4545454545454,
        "plotwidth": 400,
        "plotheight": 400,
        "x0": 200,
        "y0": 204.90403660952114
    },
    "funcparams": {
        "a": 0.12727272727272726,
        "b": 0,
        "c": 0,
        "X0": 0,
        "Y0": 0
    }
}
</currentjson>
-->

<!--
<equation>




<h2>Hyperbolic Cotangent</h2>
<p style="color:blue">

</p><p class="bigeq">
$$
Y = \coth{X}$$
</p>
<p></p>

$$
X = g(x - x_0) - X_0
$$
$$
Y = f(X)
$$
    
$$
y = y_0 - G(Y - Y_0)
$$


<p>
    X and Y, and $X_0$ and $Y_0$ in physical units of the System. x and y and x0 and y0 in pixels.  G is in pixels per Y unit and g is in X units per pixel. 
</p>





</equation>
-->
	<path d = "M0 209 L1 208.75442388432194 L2 208.75905324659522 L3 208.76376686425073 L4 208.76856637660617 L5 208.7734534586395 L6 208.7784298218976 L7 208.78349721543253 L8 208.78865742676697 L9 208.793912282889 L10 208.79926365127818 L11 208.80471344096327 L12 208.8102636036137 L13 208.81591613466506 L14 208.82167307448069 L15 208.82753650955019 L16 208.83350857372648 L17 208.83959144950302 L18 208.84578736933236 L19 208.85209861698794 L20 208.85852752897063 L21 208.86507649596186 L22 208.8717479643252 L23 208.87854443765812 L24 208.88546847839595 L25 208.8925227094705 L26 208.899709816025 L27 208.90703254718792 L28 208.91449371790804 L29 208.92209621085337 L30 208.92984297837614 L31 208.93773704454725 L32 208.94578150726227 L33 208.95397954042295 L34 208.96233439619638 L35 208.97084940735593 L36 208.97952798970695 L37 208.98837364460124 L38 208.99738996154363 L39 209.00658062089536 L40 209.01594939667777 L41 209.02550015948114 L42 209.0352368794835 L43 209.04516362958364 L44 209.0552845886542 L45 209.06560404491967 L46 209.07612639946564 L47 209.08685616988433 L48 209.09779799406365 L49 209.10895663412606 L50 209.1203369805238 L51 209.13194405629883 L52 209.14378302151403 L53 209.1558591778651 L54 209.1681779734806 L55 209.18074500792036 L56 209.19356603738083 L57 209.20664698011845 L58 209.21999392210117 L59 209.2336131228995 L60 209.2475110218296 L61 209.26169424436043 L62 209.2761696087986 L63 209.29094413326544 L64 209.30602504298088 L65 209.32141977787015 L66 209.33713600051055 L67 209.35318160443555 L68 209.36956472281582 L69 209.38629373753687 L70 209.4033772886949 L71 209.4208242845335 L72 209.43864391184528 L73 209.45684564686422 L74 209.4754392666758 L75 209.4944348611739 L76 209.5138428455958 L77 209.5336739736675 L78 209.55393935139497 L79 209.5746504515383 L80 209.595819128809 L81 209.61745763583266 L82 209.63957863992238 L83 209.6621952407119 L84 209.68532098869986 L85 209.70896990476095 L86 209.73315650068307 L87 209.7578958007945 L88 209.7832033647488 L89 209.80909531154063 L90 209.8355883448309 L91 209.8626997796654 L92 209.89044757067688 L93 209.91885034186825 L94 209.94792741808075 L95 209.97769885825983 L96 210.00818549063962 L97 210.03940894997635 L98 210.0713917169715 L99 210.10415716003646 L100 210.1377295795623 L101 210.17213425487242 L102 210.2073974940491 L103 210.24354668684194 L104 210.28061036088232 L105 210.3186182414483 L106 210.35760131504355 L107 210.397591897078 L108 210.43862370396215 L109 210.48073192995457 L110 210.52395332913227 L111 210.568326302887 L112 210.61389099338695 L113 210.66068938348417 L114 210.70876540359194 L115 210.7581650461064 L116 210.80893648800117 L117 210.8611302222843 L118 210.9147991990739 L119 210.9699989771242 L120 211.02678788671565 L121 211.0852272049175 L122 211.14538134433127 L123 211.20731805654273 L124 211.27110865163561 L125 211.336828235267 L126 211.40455596496554 L127 211.47437532749564 L128 211.54637443933584 L129 211.62064637255054 L130 211.6972895085941 L131 211.77640792288122 L132 211.85811180329077 L133 211.94251790614862 L134 212.0297500536642 L135 212.11993967728523 L136 212.21322641199322 L137 212.30975874719954 L138 212.40969474063266 L139 212.51320280244514 L140 212.62046255773268 L141 212.73166579676845 L142 212.84701752353908 L143 212.96673711465445 L144 213.09105960242823 L145 213.22023709793257 L146 213.35454037217193 L147 213.49426061625994 L148 213.6397114046954 L149 213.79123088961447 L150 213.94918425835542 L151 214.1139664919521 L152 214.28600546844186 L153 214.46576546234286 L154 214.65375110058835 L155 214.8505118459214 L156 215.05664709166504 L157 215.27281196739366 L158 215.49972397398997 L159 215.73817058968888 L160 215.98901801703238 L161 216.2532212755133 L162 216.531835887799 L163 216.82603146102224 L164 217.13710753162553 L165 217.466512126469 L166 217.8158635994332 L167 218.186976438318 L168 218.58189191054137 L169 219.00291464026867 L170 219.45265650097434 L171 219.93408958922947 L172 220.4506105500218 L173 221.00611919659838 L174 221.60511527335632 L175 222.25281844183485 L176 222.95531826321363 L177 223.71976330668878 L178 224.5546018328698 L179 225.46989124387068 L180 226.47770036843883 L181 227.5926387845039 L182 228.83256258258749 L183 230.21952922219393 L184 231.78111045936018 L185 233.55223044524033 L186 235.57779158124137 L187 237.91651230731532 L188 240.6466837844155 L189 243.8750665855851 L190 247.75112540172094 L191 252.49075355120436 L192 258.41779087178276 L193 266.04112837695317 L194 276.2089175687663 L195 290.44783092604087 L196 311.8112131249551 L197 347.42353470089694 L198 418.658206695977 L199 632.382283191849 L200 -Infinity L201 -222.57420997280673 L202 -8.850133476934758 L203 62.38453851814535 L204 97.99686009408717 L205 119.36024229300143 L206 133.59915565027597 L207 143.76694484208912 L208 151.39028234725953 L209 157.31731966783792 L210 162.05694781732134 L211 165.93300663345718 L212 169.16138943462678 L213 171.89156091172697 L214 174.2302816378009 L215 176.25584277380196 L216 178.0269627596821 L217 179.58854399684836 L218 180.9755106364548 L219 182.2154344345384 L220 183.33037285060345 L221 184.3381819751716 L222 185.2534713861725 L223 186.0883099123535 L224 186.85275495582866 L225 187.55525477720744 L226 188.20295794568597 L227 188.8019540224439 L228 189.3574626690205 L229 189.8739836298128 L230 190.35541671806794 L231 190.80515857877361 L232 191.2261813085009 L233 191.6210967807243 L234 191.9922096196091 L235 192.34156109257327 L236 192.67096568741675 L237 192.98204175802005 L238 193.2762373312433 L239 193.55485194352897 L240 193.8190552020099 L241 194.0699026293534 L242 194.3083492450523 L243 194.53526125164862 L244 194.75142612737724 L245 194.95756137312088 L246 195.15432211845393 L247 195.34230775669943 L248 195.52206775060043 L249 195.69410672709017 L250 195.85888896068687 L251 196.01684232942782 L252 196.1683618143469 L253 196.31381260278235 L254 196.45353284687036 L255 196.58783612110972 L256 196.71701361661405 L257 196.84133610438784 L258 196.9610556955032 L259 197.07640742227383 L260 197.1876106613096 L261 197.29487041659715 L262 197.39837847840963 L263 197.49831447184275 L264 197.59484680704907 L265 197.68813354175705 L266 197.77832316537808 L267 197.86555531289366 L268 197.94996141575152 L269 198.03166529616107 L270 198.11078371044817 L271 198.18742684649175 L272 198.26169877970645 L273 198.33369789154665 L274 198.40351725407675 L275 198.47124498377528 L276 198.53696456740667 L277 198.60075516249955 L278 198.66269187471102 L279 198.7228460141248 L280 198.78128533232663 L281 198.8380742419181 L282 198.89327401996837 L283 198.946942996758 L284 198.99913673104112 L285 199.0499081729359 L286 199.09930781545035 L287 199.14738383555812 L288 199.19418222565534 L289 199.2397469161553 L290 199.28411988991002 L291 199.3273412890877 L292 199.36944951508013 L293 199.41048132196428 L294 199.45047190399873 L295 199.489454977594 L296 199.52746285815996 L297 199.56452653220035 L298 199.60067572499318 L299 199.63593896416987 L300 199.67034363948 L301 199.70391605900582 L302 199.73668150207078 L303 199.76866426906594 L304 199.79988772840267 L305 199.83037436078246 L306 199.86014580096153 L307 199.88922287717403 L308 199.9176256483654 L309 199.94537343937688 L310 199.97248487421137 L311 199.99897790750165 L312 200.02486985429348 L313 200.05017741824778 L314 200.07491671835922 L315 200.09910331428134 L316 200.12275223034243 L317 200.1458779783304 L318 200.1684945791199 L319 200.19061558320962 L320 200.21225409023327 L321 200.23342276750398 L322 200.2541338676473 L323 200.27439924537478 L324 200.29423037344648 L325 200.3136383578684 L326 200.33263395236648 L327 200.35122757217806 L328 200.369429307197 L329 200.3872489345088 L330 200.40469593034737 L331 200.4217794815054 L332 200.43850849622646 L333 200.45489161460674 L334 200.47093721853173 L335 200.48665344117214 L336 200.5020481760614 L337 200.51712908577684 L338 200.5319036102437 L339 200.54637897468186 L340 200.56056219721268 L341 200.5744600961428 L342 200.58807929694112 L343 200.60142623892384 L344 200.61450718166145 L345 200.62732821112192 L346 200.6398952455617 L347 200.6522140411772 L348 200.66429019752826 L349 200.67612916274345 L350 200.68773623851848 L351 200.69911658491623 L352 200.71027522497863 L353 200.72121704915796 L354 200.73194681957665 L355 200.74246917412262 L356 200.7527886303881 L357 200.76290958945864 L358 200.77283633955878 L359 200.78257305956114 L360 200.79212382236452 L361 200.80149259814692 L362 200.81068325749865 L363 200.81969957444105 L364 200.82854522933533 L365 200.83722381168636 L366 200.8457388228459 L367 200.85409367861934 L368 200.86229171178002 L369 200.87033617449504 L370 200.87823024066614 L371 200.88597700818892 L372 200.89357950113424 L373 200.90104067185436 L374 200.9083634030173 L375 200.91555050957177 L376 200.92260474064634 L377 200.92952878138416 L378 200.93632525471708 L379 200.94299672308043 L380 200.94954569007166 L381 200.95597460205434 L382 200.96228584970993 L383 200.96848176953927 L384 200.9745646453158 L385 200.9805367094921 L386 200.9864001445616 L387 200.99215708437723 L388 200.9978096154286 L389 201.00335977807902 L390 201.0088095677641 L391 201.01416093615327 L392 201.0194157922753 L393 201.02457600360975 L394 201.0296433971447 L395 201.0346197604028 L396 201.0395068424361 L397 201.04430635479156 L398 201.04901997244707 L399 201.05364933472035 " stroke = "blue" stroke-width = "4" fill = "none" /></svg>