<svg width="600" height="600" viewbox = "0 0 600 600"  xmlns="http://www.w3.org/2000/svg">

<!--
<json>
{
    "imgurl": "",
    "imgw": 2.983971328437751,
    "imgleft": -1.4873205904167783,
    "imgtop": -1.0519856642188752,
    "imgangle": 0,
    "svgwidth": 600,
    "svgheight": 600,
    "unit": 100,
    "x0": 684,
    "y0": 399,
    "x0rel": 0,
    "y0rel": 0,
    "glyph": "0331,0332,0332,0336,0336,0336,0336,0332,0332,0332,0332,0332,0330,0330,0337,0337,0337,0210,0331,0223,0335,0223,0335,0223,0335,0223,0335,0223,0335,0223,",
    "table": []
}
</json>
-->
	<path d = "M78 371 L88 388 L78 404 L59 404 L50 388 L59 371 L78 371 Z" stroke = "red" stroke-width = "6" fill = "red" />	<path d = "M78 327 L88 344 L78 360 L59 360 L50 344 L59 327 L78 327 Z" stroke = "orange" stroke-width = "6" fill = "orange" />	<path d = "M78 284 L88 300 L78 317 L59 317 L50 300 L59 284 L78 284 Z" stroke = "yellow" stroke-width = "6" fill = "yellow" />	<path d = "M78 240 L88 256 L78 273 L59 273 L50 256 L59 240 L78 240 Z" stroke = "green" stroke-width = "6" fill = "green" />	<path d = "M78 196 L88 213 L78 229 L59 229 L50 213 L59 196 L78 196 Z" stroke = "blue" stroke-width = "6" fill = "blue" />	<path d = "M78 152 L88 169 L78 186 L59 186 L50 169 L59 152 L78 152 Z" stroke = "purple" stroke-width = "6" fill = "purple" />	<path d = "M126 147 L116 164 L97 164 L87 147 L97 131 L116 131 L126 147 Z" stroke = "red" stroke-width = "6" fill = "red" />	<path d = "M164 125 L154 142 L135 142 L125 125 L135 109 L154 109 L164 125 Z" stroke = "orange" stroke-width = "6" fill = "orange" />	<path d = "M201 103 L192 120 L173 120 L163 103 L173 87 L192 87 L201 103 Z" stroke = "yellow" stroke-width = "6" fill = "yellow" />	<path d = "M239 82 L230 98 L211 98 L201 82 L211 65 L230 65 L239 82 Z" stroke = "green" stroke-width = "6" fill = "green" />	<path d = "M277 60 L268 76 L248 76 L239 60 L248 43 L268 43 L277 60 Z" stroke = "blue" stroke-width = "6" fill = "blue" />	<path d = "M315 38 L305 54 L286 54 L277 38 L286 21 L305 21 L315 38 Z" stroke = "purple" stroke-width = "6" fill = "purple" />	<path d = "M343 76 L324 76 L315 60 L324 43 L343 43 L353 60 L343 76 Z" stroke = "red" stroke-width = "6" fill = "red" />	<path d = "M381 98 L362 98 L352 82 L362 65 L381 65 L391 82 L381 98 Z" stroke = "orange" stroke-width = "6" fill = "orange" />	<path d = "M419 120 L400 120 L390 103 L400 87 L419 87 L428 103 L419 120 Z" stroke = "yellow" stroke-width = "6" fill = "yellow" />	<path d = "M457 142 L438 142 L428 125 L438 109 L457 109 L466 125 L457 142 Z" stroke = "green" stroke-width = "6" fill = "green" />	<path d = "M495 164 L476 164 L466 147 L476 131 L495 131 L504 147 L495 164 Z" stroke = "blue" stroke-width = "6" fill = "blue" />	<path d = "M532 186 L513 186 L504 169 L513 152 L532 152 L542 169 L532 186 Z" stroke = "purple" stroke-width = "6" fill = "purple" />	<path d = "M513 229 L504 213 L513 196 L532 196 L542 213 L532 229 L513 229 Z" stroke = "red" stroke-width = "6" fill = "red" />	<path d = "M513 273 L504 256 L513 240 L532 240 L542 256 L532 273 L513 273 Z" stroke = "orange" stroke-width = "6" fill = "orange" />	<path d = "M513 317 L504 300 L513 284 L532 284 L542 300 L532 317 L513 317 Z" stroke = "yellow" stroke-width = "6" fill = "yellow" />	<path d = "M513 360 L504 344 L513 327 L532 327 L542 344 L532 360 L513 360 Z" stroke = "green" stroke-width = "6" fill = "green" />	<path d = "M513 404 L504 388 L513 371 L532 371 L542 388 L532 404 L513 404 Z" stroke = "blue" stroke-width = "6" fill = "blue" />	<path d = "M513 448 L504 431 L513 415 L532 415 L542 431 L532 448 L513 448 Z" stroke = "purple" stroke-width = "6" fill = "purple" />	<path d = "M466 453 L476 437 L495 437 L504 453 L495 470 L476 470 L466 453 Z" stroke = "red" stroke-width = "6" fill = "red" />	<path d = "M428 475 L438 458 L457 458 L466 475 L457 491 L438 491 L428 475 Z" stroke = "orange" stroke-width = "6" fill = "orange" />	<path d = "M390 497 L400 480 L419 480 L428 497 L419 513 L400 513 L390 497 Z" stroke = "yellow" stroke-width = "6" fill = "yellow" />	<path d = "M352 519 L362 502 L381 502 L391 519 L381 535 L362 535 L352 519 Z" stroke = "green" stroke-width = "6" fill = "green" />	<path d = "M315 540 L324 524 L343 524 L353 540 L343 557 L324 557 L315 540 Z" stroke = "blue" stroke-width = "6" fill = "blue" />	<path d = "M277 562 L286 546 L305 546 L315 562 L305 579 L286 579 L277 562 Z" stroke = "purple" stroke-width = "6" fill = "purple" />	<path d = "M248 524 L268 524 L277 540 L268 557 L248 557 L239 540 L248 524 Z" stroke = "red" stroke-width = "6" fill = "red" />	<path d = "M211 502 L230 502 L239 519 L230 535 L211 535 L201 519 L211 502 Z" stroke = "orange" stroke-width = "6" fill = "orange" />	<path d = "M173 480 L192 480 L201 497 L192 513 L173 513 L163 497 L173 480 Z" stroke = "yellow" stroke-width = "6" fill = "yellow" />	<path d = "M135 458 L154 458 L164 475 L154 491 L135 491 L125 475 L135 458 Z" stroke = "green" stroke-width = "6" fill = "green" />	<path d = "M97 437 L116 437 L126 453 L116 470 L97 470 L87 453 L97 437 Z" stroke = "blue" stroke-width = "6" fill = "blue" />	<path d = "M59 415 L78 415 L88 431 L78 448 L59 448 L50 431 L59 415 Z" stroke = "purple" stroke-width = "6" fill = "purple" /></svg>