<svg width="200" height="600" viewbox = "0 0 200 600"  xmlns="http://www.w3.org/2000/svg">

<!--
<json>
{
    "imgurl": "",
    "imgw": 2.983971328437751,
    "imgleft": -1.4873205904167783,
    "imgtop": -1.0519856642188752,
    "imgangle": 0,
    "svgwidth": 200,
    "svgheight": 600,
    "unit": 100,
    "x0": 684,
    "y0": 399,
    "x0rel": 0,
    "y0rel": 0,
    "glyph": "0331,0331,0331,0336,0331,0337,0322,0221,0323,0221,0324,0221,0325,0221,0326,0221,0327,0221,",
    "table": []
}
</json>
-->
	<path d = "M122 512 L144 550 L122 588 L78 588 L56 550 L78 512 L122 512 Z" stroke = "red" stroke-width = "6" fill = "red" />	<path d = "M122 412 L144 450 L122 488 L78 488 L56 450 L78 412 L122 412 Z" stroke = "orange" stroke-width = "6" fill = "orange" />	<path d = "M122 312 L144 350 L122 388 L78 388 L56 350 L78 312 L122 312 Z" stroke = "yellow" stroke-width = "6" fill = "yellow" />	<path d = "M122 212 L144 250 L122 288 L78 288 L56 250 L78 212 L122 212 Z" stroke = "green" stroke-width = "6" fill = "black" />	<path d = "M122 112 L144 150 L122 188 L78 188 L56 150 L78 112 L122 112 Z" stroke = "blue" stroke-width = "6" fill = "blue" />	<path d = "M122 12 L144 50 L122 88 L78 88 L56 50 L78 12 L122 12 Z" stroke = "purple" stroke-width = "6" fill = "purple" /></svg>