<svg width="600" height="600" viewbox = "0 0 600 600"  xmlns="http://www.w3.org/2000/svg">

<!--
<json>
{
    "imgurl": "",
    "imgw": 2.983971328437751,
    "imgleft": -1.4873205904167783,
    "imgtop": -1.0519856642188752,
    "imgangle": 0,
    "svgwidth": 600,
    "svgheight": 600,
    "unit": 100,
    "x0": 684,
    "y0": 399,
    "x0rel": 0,
    "y0rel": 0,
    "glyph": "0210,0331,0331,0331,0331,0336,0330,0330,0330,0330,0332,0332,0332,0332,0330,0332,0223,0335,0223,0335,0223,0335,0223,0335,0223,0335,0223,",
    "table": []
}
</json>
-->
	<path d = "M91 371 L101 387 L91 404 L72 404 L62 387 L72 371 L91 371 Z" stroke = "red" stroke-width = "6" fill = "red" />	<path d = "M91 327 L101 344 L91 360 L72 360 L62 344 L72 327 L91 327 Z" stroke = "orange" stroke-width = "6" fill = "orange" />	<path d = "M91 283 L101 300 L91 317 L72 317 L62 300 L72 283 L91 283 Z" stroke = "yellow" stroke-width = "6" fill = "yellow" />	<path d = "M91 240 L101 256 L91 273 L72 273 L62 256 L72 240 L91 240 Z" stroke = "green" stroke-width = "6" fill = "black" />	<path d = "M91 196 L101 213 L91 229 L72 229 L62 213 L72 196 L91 196 Z" stroke = "blue" stroke-width = "6" fill = "blue" />	<path d = "M91 152 L101 169 L91 185 L72 185 L62 169 L72 152 L91 152 Z" stroke = "purple" stroke-width = "6" fill = "purple" />	<path d = "M138 147 L129 164 L110 164 L100 147 L110 131 L129 131 L138 147 Z" stroke = "red" stroke-width = "6" fill = "red" />	<path d = "M176 125 L167 142 L148 142 L138 125 L148 109 L167 109 L176 125 Z" stroke = "orange" stroke-width = "6" fill = "orange" />	<path d = "M214 103 L205 120 L185 120 L176 103 L185 87 L205 87 L214 103 Z" stroke = "yellow" stroke-width = "6" fill = "yellow" />	<path d = "M252 81 L242 98 L223 98 L214 81 L223 65 L242 65 L252 81 Z" stroke = "green" stroke-width = "6" fill = "black" />	<path d = "M290 60 L280 76 L261 76 L252 60 L261 43 L280 43 L290 60 Z" stroke = "blue" stroke-width = "6" fill = "blue" />	<path d = "M328 38 L318 54 L299 54 L289 38 L299 21 L318 21 L328 38 Z" stroke = "purple" stroke-width = "6" fill = "purple" />	<path d = "M356 76 L337 76 L327 60 L337 43 L356 43 L366 60 L356 76 Z" stroke = "red" stroke-width = "6" fill = "red" />	<path d = "M394 98 L375 98 L365 81 L375 65 L394 65 L403 81 L394 98 Z" stroke = "orange" stroke-width = "6" fill = "orange" />	<path d = "M432 120 L413 120 L403 103 L413 87 L432 87 L441 103 L432 120 Z" stroke = "yellow" stroke-width = "6" fill = "yellow" />	<path d = "M470 142 L450 142 L441 125 L450 109 L470 109 L479 125 L470 142 Z" stroke = "green" stroke-width = "6" fill = "black" />	<path d = "M507 164 L488 164 L479 147 L488 131 L507 131 L517 147 L507 164 Z" stroke = "blue" stroke-width = "6" fill = "blue" />	<path d = "M545 185 L526 185 L517 169 L526 152 L545 152 L555 169 L545 185 Z" stroke = "purple" stroke-width = "6" fill = "purple" />	<path d = "M526 229 L517 213 L526 196 L545 196 L555 213 L545 229 L526 229 Z" stroke = "red" stroke-width = "6" fill = "red" />	<path d = "M526 273 L517 256 L526 240 L545 240 L555 256 L545 273 L526 273 Z" stroke = "orange" stroke-width = "6" fill = "orange" />	<path d = "M526 317 L517 300 L526 283 L545 283 L555 300 L545 317 L526 317 Z" stroke = "yellow" stroke-width = "6" fill = "yellow" />	<path d = "M526 360 L517 344 L526 327 L545 327 L555 344 L545 360 L526 360 Z" stroke = "green" stroke-width = "6" fill = "black" />	<path d = "M526 404 L517 387 L526 371 L545 371 L555 387 L545 404 L526 404 Z" stroke = "blue" stroke-width = "6" fill = "blue" />	<path d = "M526 448 L517 431 L526 415 L545 415 L555 431 L545 448 L526 448 Z" stroke = "purple" stroke-width = "6" fill = "purple" />	<path d = "M479 453 L488 436 L507 436 L517 453 L507 469 L488 469 L479 453 Z" stroke = "red" stroke-width = "6" fill = "red" />	<path d = "M441 475 L450 458 L470 458 L479 475 L470 491 L450 491 L441 475 Z" stroke = "orange" stroke-width = "6" fill = "orange" />	<path d = "M403 497 L413 480 L432 480 L441 497 L432 513 L413 513 L403 497 Z" stroke = "yellow" stroke-width = "6" fill = "yellow" />	<path d = "M365 519 L375 502 L394 502 L403 519 L394 535 L375 535 L365 519 Z" stroke = "green" stroke-width = "6" fill = "black" />	<path d = "M327 540 L337 524 L356 524 L366 540 L356 557 L337 557 L327 540 Z" stroke = "blue" stroke-width = "6" fill = "blue" />	<path d = "M289 562 L299 546 L318 546 L328 562 L318 579 L299 579 L289 562 Z" stroke = "purple" stroke-width = "6" fill = "purple" />	<path d = "M261 524 L280 524 L290 540 L280 557 L261 557 L252 540 L261 524 Z" stroke = "red" stroke-width = "6" fill = "red" />	<path d = "M223 502 L242 502 L252 519 L242 535 L223 535 L214 519 L223 502 Z" stroke = "orange" stroke-width = "6" fill = "orange" />	<path d = "M185 480 L205 480 L214 497 L205 513 L185 513 L176 497 L185 480 Z" stroke = "yellow" stroke-width = "6" fill = "yellow" />	<path d = "M148 458 L167 458 L176 475 L167 491 L148 491 L138 475 L148 458 Z" stroke = "green" stroke-width = "6" fill = "black" />	<path d = "M110 436 L129 436 L138 453 L129 469 L110 469 L100 453 L110 436 Z" stroke = "blue" stroke-width = "6" fill = "blue" />	<path d = "M72 415 L91 415 L101 431 L91 448 L72 448 L62 431 L72 415 Z" stroke = "purple" stroke-width = "6" fill = "purple" /></svg>