<svg width="600" height="600" viewbox = "0 0 600 600"  xmlns="http://www.w3.org/2000/svg">

<!--
<json>
{
    "imgurl": "",
    "imgw": 2.983971328437751,
    "imgleft": -1.4873205904167783,
    "imgtop": -1.0519856642188752,
    "imgangle": 0,
    "svgwidth": 600,
    "svgheight": 600,
    "unit": 100,
    "x0": 615.5,
    "y0": 359,
    "x0rel": 0,
    "y0rel": 0,
    "glyph": "0306,0336,0341,0330,0330,0341,0330,0330,0341,0335,0335,0330,0330,0330,0330,0341,0335,0335,0330,0330,0341,0334,0330,0330,0341,0334,0330,0330,0341,0331,0331,0335,0335,0330,0330,0341,0334,0330,0330,0341,0331,0331,0331,0331,0335,0330,0330,0341,0330,0330,0341,0331,0331,0335,0335,0330,0330,0341,0334,0330,0330,0341,0335,0335,0337,0337,0362,0203,0335,0203,0335,0203,0335,0203,0335,0203,0335,0203,0354,0335,0335,0337,0342,0336,0330,0335,0342,0335,0342,0335,0335,0342,0335,0342,0330,0334,0334,0334,0350,0335,0312,0337,0362,0203,0334,0334,0334,0334,0203,0334,0334,0334,0334,0203,0354,0336,0334,0334,0334,0330,0334,0334,0334,0337,0362,0203,0334,0334,0334,0334,0203,0334,0334,0334,0334,0203,0354,0334,0334,0334,0336,0334,0313,0336,0334,0330,0336,0335,0335,0337,0362,0203,0334,0334,0203,0334,0334,0203,0334,0334,0203,0334,0334,0203,0334,0334,0203,0354,0334,0334,0334,0312,0337,0362,0203,0334,0334,0334,0334,0203,0334,0334,0334,0334,0203,0334,0334,0334,0336,0362,0334,0334,0334,0335,0330,0335,0335,0335,0335,0330,0335,0335,0335,0335,0335,0337,0362,0203,0335,0335,0335,0335,0203,0335,0335,0335,0335,0203,0354,0335,0335,0334,",
    "table": []
}
</json>
-->
    <circle cx="300" cy = "300" r = "50" stroke = "black" stroke-width = "3" fill = "none" />
    <circle cx="300" cy = "200" r = "50" stroke = "black" stroke-width = "3" fill = "none" />
    <circle cx="300" cy = "100" r = "50" stroke = "black" stroke-width = "3" fill = "none" />
    <circle cx="473" cy = "200" r = "50" stroke = "black" stroke-width = "3" fill = "none" />
    <circle cx="387" cy = "250" r = "50" stroke = "black" stroke-width = "3" fill = "none" />
    <circle cx="387" cy = "350" r = "50" stroke = "black" stroke-width = "3" fill = "none" />
    <circle cx="473" cy = "400" r = "50" stroke = "black" stroke-width = "3" fill = "none" />
    <circle cx="300" cy = "400" r = "50" stroke = "black" stroke-width = "3" fill = "none" />
    <circle cx="300" cy = "500" r = "50" stroke = "black" stroke-width = "3" fill = "none" />
    <circle cx="213" cy = "350" r = "50" stroke = "black" stroke-width = "3" fill = "none" />
    <circle cx="127" cy = "400" r = "50" stroke = "black" stroke-width = "3" fill = "none" />
    <circle cx="213" cy = "250" r = "50" stroke = "black" stroke-width = "3" fill = "none" />
    <circle cx="127" cy = "200" r = "50" stroke = "black" stroke-width = "3" fill = "none" />
	<path d = "M127 200 L300 100 L473 200 L473 400 L300 500 L127 400 L127 200 Z" stroke = "black" stroke-width = "3" fill = "none" />    <line x1="127" y1="200" x2="473" y2="400" style="stroke:black;stroke-width:3" />
    <line x1="300" y1="300" x2="300" y2="500" style="stroke:black;stroke-width:3" />
    <line x1="300" y1="300" x2="127" y2="400" style="stroke:black;stroke-width:3" />
    <line x1="300" y1="300" x2="300" y2="100" style="stroke:black;stroke-width:3" />
    <line x1="300" y1="300" x2="473" y2="200" style="stroke:black;stroke-width:3" />
	<path d = "M473 200 L127 200 L300 500 L473 200 Z" stroke = "black" stroke-width = "3" fill = "none" />	<path d = "M300 100 L127 400 L473 400 L300 100 Z" stroke = "black" stroke-width = "3" fill = "none" />	<path d = "M300 200 L213 250 L213 350 L300 400 L387 350 L387 250 L300 200 Z" stroke = "black" stroke-width = "3" fill = "none" />	<path d = "M300 200 L213 350 L387 350 L300 200 	<path d = "M300 200 	<path d = "M213 250 L387 250 L300 400 L213 250 Z" stroke = "black" stroke-width = "3" fill = "none" /></svg>