<svg width="400" height="400" viewbox = "0 0 400 400"  xmlns="http://www.w3.org/2000/svg">

<!--
<topfunctions>







function XYofT(){
    T = plotparams.g*t;
    
    
    X = funcparams.a*Math.cosh(2*Math.PI*T/funcparams.T);
    Y = funcparams.b*Math.sinh(2*Math.PI*T/funcparams.T);
    
    Xrot = Math.cos(Math.PI*funcparams.theta/180)*X - Math.sin(funcparams.theta*Math.PI/180)*Y;
    Yrot = Math.sin(funcparams.theta*Math.PI/180)*X + Math.cos(funcparams.theta*Math.PI/180)*Y;
    X = Xrot;
    Y = Yrot;
    y = plotparams.y0 - plotparams.G*(Y - funcparams.Y0);
    x = plotparams.x0 - plotparams.G*(X - funcparams.X0);    
}

function XYofT2(){
    T = plotparams.g*t;
    X = -funcparams.a*Math.cosh(2*Math.PI*T/funcparams.T);
    Y = funcparams.b*Math.sinh(2*Math.PI*T/funcparams.T);
       Xrot = Math.cos(funcparams.theta*Math.PI/180)*X - Math.sin(funcparams.theta*Math.PI/180)*Y;
    Yrot = Math.sin(funcparams.theta*Math.PI/180)*X + Math.cos(funcparams.theta*Math.PI/180)*Y;
    X = Xrot;
    Y = Yrot;
    y = plotparams.y0 - plotparams.G*(Y - funcparams.Y0);
    x = plotparams.x0 - plotparams.G*(X - funcparams.X0);   
}

function plotfunction(){


    currentStroke = "blue";
    currentLineWidth = 4;
    ctx.strokeStyle = currentStroke;
    ctx.lineWidth = currentLineWidth;
    ctx.beginPath();	
    x = 0;
    y = 0;
    t = plotparams.tstart;
    XYofT();
    currentSVG += "	<path d = \"M";
    currentSVG += Math.round(x).toString() + " ";
    currentSVG += Math.round(y).toString() + " ";
    for(t = 1 + plotparams.tstart; t < plotparams.tstart + plotparams.duration;t++){
        ctx.moveTo(x,y);
        XYofT();
        ctx.lineTo(x,y);
        currentSVG += "L" + x + " " + y + " ";
    }
    ctx.stroke();
    currentSVG += "\""+ " stroke = \"" + currentStroke + "\" stroke-width = \"" + currentLineWidth.toString() + "\" fill = \"" + "none" + "\" "+"/>";


    currentStroke = "blue";
    currentLineWidth = 4;
    ctx.strokeStyle = currentStroke;
    ctx.lineWidth = currentLineWidth;
    ctx.beginPath();	
    x = 0;
    y = 0;
    t = plotparams.tstart;
    XYofT();
    currentSVG += "	<path d = \"M";
    currentSVG += Math.round(x).toString() + " ";
    currentSVG += Math.round(y).toString() + " ";
    for(t = 1 + plotparams.tstart; t < plotparams.tstart + plotparams.duration;t++){
        ctx.moveTo(x,y);
        XYofT2();
        ctx.lineTo(x,y);
        currentSVG += "L" + x + " " + y + " ";
    }
    ctx.stroke();
    currentSVG += "\""+ " stroke = \"" + currentStroke + "\" stroke-width = \"" + currentLineWidth.toString() + "\" fill = \"" + "none" + "\" "+"/>";

    /*plot one function:
    currentStroke = "blue";
    currentLineWidth = 4;
    ctx.strokeStyle = currentStroke;
    ctx.lineWidth = currentLineWidth;
    ctx.beginPath();	
    x = 0;
    YofX();
    currentSVG += "	<path d = \"M";
    currentSVG += Math.round(x).toString() + " ";
    currentSVG += Math.round(y).toString() + " ";
    for(x = 1;x < plotparams.plotwidth;x++){
        ctx.moveTo(x-1,y);
        YofX();
        ctx.lineTo(x,y);
        currentSVG += "L" + x + " " + y + " ";
    }
    ctx.stroke();
    currentSVG += "\""+ " stroke = \"" + currentStroke + "\" stroke-width = \"" + currentLineWidth.toString() + "\" fill = \"" + "none" + "\" "+"/>";
    /*finish plot one function*/
    

}
























</topfunctions>
-->

<!--
<imgurl>

</imgurl>
-->

<!--
<currentjson>
{
    "constants": {},
    "imgurl": "",
    "plotparams": {
        "G": 100.79476910000022,
        "g": 0.017985878990921366,
        "tstart": -200,
        "duration": 545.4545454545454,
        "plotwidth": 400,
        "plotheight": 400,
        "x0": 200,
        "y0": 200
    },
    "funcparams": {
        "theta": 90,
        "a": 0.19784466890013488,
        "b": -0.1978446689001349,
        "T": 1.4655609018152753,
        "X0": 0,
        "Y0": 0
    }
}
</currentjson>
-->

<!--
<equation>


<h2>Hyperbola</h2>
<p style="color:blue">

</p><p class="bigeq">
$$
(X,Y) = (\pm a\cosh{\frac{2\pi t}{T}},b\sinh{\frac{2\pi t}{T}})
$$
</p>
<p></p>

$$
X = g(x - x_0) - X_0
$$
$$
Y = f(X)
$$
    
$$
y = y_0 - G(Y - Y_0)
$$


<p>
    X and Y, and $X_0$ and $Y_0$ in physical units of the System. x and y and x0 and y0 in pixels.  G is in pixels per Y unit and g is in X units per pixel. 
</p>



</equation>
-->
	<path d = "M49702330 -49701930 L46013860.70465672 -46013460.70466105 L42599118.415438734 -42598718.41544339 L39437789.23709257 -39437389.237097606 L36511067.00525145 -36510667.00525689 L33801541.189014174 -33801141.189020045 L31293093.318907116 -31292693.31891346 L28970801.101081964 -28970401.101088822 L26820849.64734042 -26820449.647347827 L24830449.29291216 -24830049.292920165 L22987759.513097063 -22987359.5131057 L21281818.486167017 -21281418.486176357 L19702477.883510087 -19702077.88352018 L18240342.499094453 -18239942.49910535 L16886714.359120127 -16886314.3591319 L15633540.979376948 -15633140.979389662 L14473367.462500433 -14472967.46251417 L13399292.150162235 -13398892.150177073 L12404925.566377161 -12404525.56639319 L11484352.40768869 -11483952.407706004 L10632096.354119621 -10631696.354138322 L9843087.491554102 -9842687.491574302 L9112632.151753394 -9112232.151775213 L8436384.990589185 -8435984.990612755 L7810323.138392413 -7809923.13841787 L7230722.268643373 -7230322.26867087 L6694134.442640083 -6693734.4426697865 L6197367.598346699 -6196967.598378786 L5737466.561404942 -5737066.561439599 L5311695.465346839 -5311295.465384274 L4917521.476429564 -4917121.476469999 L4552599.726274474 -4552199.72631815 L4214759.362677534 -4214359.362724711 L3901990.635609829 -3901590.635660788 L3612432.9415852157 -3612032.941640261 L3344363.7552732574 -3343963.7553327144 L3096188.3825136614 -3095788.382577886 L2866430.473774749 -2866030.47384412 L2653723.241622296 -2653323.241697229 L2456801.3299531667 -2456401.3300341056 L2274493.286625118 -2274093.286712545 L2105714.594704018 -2105314.5947984536 L1949461.220872612 -1949061.2209746176 L1804803.6426214091 -1804403.6427315918 L1670881.318690698 -1670481.3188097125 L1546897.5698692468 -1546497.5699978024 L1432114.8396965773 -1431714.8398354372 L1325850.3068755982 -1325450.307025589 L1227471.8232945914 -1227071.8234566057 L1136394.1534946577 -1135994.1536696595 L1052075.4932119076 -1051675.493400937 L974014.2462837718 -973614.2464879543 L901746.0407459224 -901346.0409664722 L834840.9663690936 -834440.9666073229 L772901.0172023969 -772501.0174597226 L715557.7239092942 -715157.7241872472 L662469.9618114706 -662069.9621117043 L613321.9216010198 -612921.9219253205 L567821.2306490978 -567421.2309993946 L525697.2137350687 -525297.2141134451 L486699.2828495256 -486299.2832582329 L450595.4464924287 -450195.4469338981 L417170.92959844734 -416770.93007530505 L386226.8958797014 -385826.8963947844 L357579.26498534397 -357179.265541716 L331057.6174414986 -330657.61804246966 L306504.1808572332 -306104.1815063782 L283772.891365697 -283372.8920668777 L262728.52471710974 -262328.5254744973 L243245.89185463297 -242845.892672733 L225209.09418775633 -224809.0950714355 L208510.83413295026 -208110.8350874654 L193051.77682012782 -192651.7778511572 L178739.95916781877 -178339.96028149582 L165490.24281175443 -165090.24401470413 L153223.80763243744 -152823.80893181596 L141867.68286878432 -141467.68427232146 L131354.3130285237 -130954.31454456877 L121621.15601302766 -121221.15765059937 L112610.31106590027 -112210.31283474024 L104268.17433205384 -103868.17624268455 L96545.11997825878 -96145.12204204625 L89395.20497821242 -88995.20720743373 L82775.89580594664 -82375.89821386297 L76647.81541172514 -76247.8180126608 L70974.5089752346 -70574.51178466206 L65722.22704258088 -65322.23007721289 L60859.72475701083 -60459.72803489988 L56358.07598902062 -55958.07952966625 L52190.50126014499 -51790.50508460986 L48332.20843677766 -47932.21256781281 L44760.245246340215 -44360.24970852041 L41453.36273844419 -41053.367558314094 L38391.88887880358 -37991.894085035725 L35557.611523930194 -35157.6171474955 L32933.67008045004 -32533.67615480205 L30504.455204542548 -30104.46176581647 L28255.515944831815 -27855.523032059456 L26173.473776341987 -25773.48143168396 L24245.943014119017 -23845.951283115548 L22461.457133074233 -22061.46606491604 L20809.40055574129 -20409.410203562253 L19279.94550216304 -18879.955923356272 L17863.993526240814 -17464.004782800075 L16553.12139075611 -16153.133549644599 L15339.530959085665 -14939.544092634364 L14216.002805524424 -13816.016991862389 L13175.853268253368 -12775.86859177251 L12212.894689467614 -11812.911241324726 L11321.398606141187 -10921.416484800211 L10496.061672456608 -10096.080984274391 L9731.974111178644 -9331.99497103763 L9024.590506294777 -8624.613038286418 L8369.702763173445 -7969.727101336407 L7763.415075385089 -7363.441364502615 L7202.120749267944 -6802.149145729147 L6682.480748372584 -6282.511421102777 L6201.403830149693 -5801.436961615291 L5756.028156718159 -5356.0639440121395 L5343.704270319221 -4943.742926333601 L4961.979332180774 -4562.021086873053 L4608.582531031784 -4208.627632792928 L4281.41157446479 -3881.4602915968585 L3978.520182785973 -3578.5728050982034 L3698.106510956146 -3298.1633514889695 L3438.5024297468376 -3038.5638266341048 L3198.1636023471524 -2798.229920827624 L2975.6602973887666 -2575.731931978854 L2769.668883737693 -2369.7462605783644 L2578.9639564567246 -2179.0475358485373 L2402.411047097397 -2002.5013262387429 L2238.9598749563847 -1839.057390901228 L2087.6380991492597 -1687.7434320019759 L1947.545534333848 -1547.6593107001552 L1817.8487956736221 -1417.9716923881447 L1697.776341184972 -1297.909089337604 L1586.613881976214 -1186.7572712612377 L1483.7001330746743 -1083.8550164885069 L1388.4228795643226 -988.5901784798341 L1300.2153346321263 -900.3960442797174 L1218.5527678578042 -818.747963245847 L1142.9493836893128 -743.1602259991793 L1072.9554315346827 -673.1831750283968 L1008.154530278678 -608.4005297602906 L948.1611913083138 -548.4269101833816 L892.61852531218 -492.90554429329484 L841.1961192117365 -441.5061457218935 L793.5880705948279 -393.92294892457085 L749.5111679586439 -349.87289023740857 L708.703205936707 -309.0939239836318 L670.9214254874987 -271.34346361220065 L635.9410697656788 -236.39693859514233 L603.5540470850588 -204.04645849889334 L573.5676930195302 -174.09957628244126 L545.8036242779173 -146.3781434653623 L520.0966775346717 -120.71725035536167 L496.2939269037017 -96.96424503091993 L474.2537742104743 -74.97782524316023 L453.84510665058417 -54.62719783482399 L434.946516823856 -35.79130067589554 L417.44558050410694 -18.358082487313112 L401.2381878481546 -2.223836268569812 L386.2279240655578 12.707417636107863 L372.3254958648042 26.524502503037013 L359.4482002639858 39.30961362236911 L347.51943260600797 51.138807262716426 L336.46823085160935 62.08245311586958 L326.2288534392758 72.20565291311856 L316.74038820081194 81.56862770344827 L307.94639000608504 90.22707609745474 L299.7945449813533 98.23250560810922 L292.23635930367675 105.6325390594558 L285.22687072010706 112.47119788601 L278.72438107553467 118.78916400815609 L272.690208258053 124.62402184138973 L267.0884560862074 130.010481879076 L261.8858007692302 134.98058717877387 L257.0512926699543 139.5639039804774 L252.55617219112838 143.78769759072566 L248.37369868987565 147.67709457888398 L244.4789914025402 151.25523225047206 L240.8488814336117 154.54339628672813 L237.46177392823816 157.5611473692019 L234.29751960841628 160.32643754264217 L231.3372949086518 162.855717008401 L228.56348999803942 165.16403198364839 L225.95960402262557 167.26511420854362 L223.51014694487108 169.17146263382568 L221.20054739627383 170.8944177747665 L219.01706599498456 172.44422917380513 L216.94671361275738 173.83011637318594 L214.9771741050211 175.06032376031538 L213.09673104440606 176.14216961210252 L211.29419802187812 177.0820896300389 L209.55885210085393 177.8856752250001 L207.8803700284284 178.557706779518 L206.24876682424664 179.10218208539513 L204.65433638169705 179.52234012583068 L203.08759372807273 179.82068034353466 L201.53921860021768 179.9989775094514 L200 180.05829228054492 L198.46078139978232 179.9989775094514 L196.91240627192727 179.82068034353466 L195.34566361830295 179.52234012583068 L193.75123317575336 179.10218208539513 L192.1196299715716 178.557706779518 L190.44114789914607 177.8856752250001 L188.70580197812185 177.0820896300389 L186.90326895559394 176.14216961210252 L185.0228258949789 175.06032376031538 L183.05328638724262 173.83011637318594 L180.98293400501544 172.44422917380513 L178.79945260372614 170.8944177747665 L176.48985305512892 169.17146263382568 L174.04039597737443 167.26511420854362 L171.43651000196058 165.16403198364839 L168.6627050913482 162.855717008401 L165.70248039158372 160.32643754264217 L162.53822607176184 157.5611473692019 L159.1511185663883 154.54339628672813 L155.5210085974598 151.25523225047206 L151.62630131012435 147.67709457888398 L147.44382780887162 143.78769759072566 L142.9487073300457 139.5639039804774 L138.11419923076983 134.98058717877387 L132.91154391379263 130.010481879076 L127.30979174194698 124.62402184138973 L121.27561892446535 118.78916400815609 L114.77312927989293 112.47119788601 L107.76364069632322 105.63253905945582 L100.20545501864669 98.23250560810922 L92.05360999391493 90.22707609745474 L83.25961179918806 81.56862770344827 L73.77114656072425 72.20565291311856 L63.53176914839065 62.08245311586958 L52.48056739399203 51.138807262716426 L40.551799736014175 39.30961362236911 L27.674504135195775 26.524502503037013 L13.772075934442142 12.707417636107891 L-1.2381878481546664 -2.223836268569812 L-17.44558050410697 -18.358082487313112 L-34.94651682385597 -35.79130067589554 L-53.84510665058417 -54.62719783482399 L-74.25377421047432 -74.97782524316023 L-96.29392690370167 -96.96424503091993 L-120.09667753467176 -120.71725035536167 L-145.80362427791727 -146.3781434653623 L-173.56769301953022 -174.09957628244115 L-203.55404708505876 -204.04645849889334 L-235.94106976567872 -236.39693859514233 L-270.92142548749877 -271.34346361220065 L-308.70320593670704 -309.0939239836318 L-349.5111679586439 -349.87289023740857 L-393.58807059482785 -393.92294892457085 L-441.19611921173646 -441.5061457218935 L-492.61852531218005 -492.90554429329484 L-548.161191308314 -548.4269101833813 L-608.154530278678 -608.4005297602906 L-672.9554315346827 -673.1831750283968 L-742.9493836893128 -743.1602259991793 L-818.552767857804 -818.747963245847 L-900.2153346321263 -900.3960442797174 L-988.4228795643226 -988.5901784798341 L-1083.7001330746743 -1083.8550164885069 L-1186.613881976214 -1186.7572712612377 L-1297.7763411849721 -1297.9090893376035 L-1417.8487956736221 -1417.9716923881447 L-1547.545534333848 -1547.6593107001552 L-1687.6380991492597 -1687.7434320019759 L-1838.9598749563847 -1839.057390901228 L-2002.411047097397 -2002.5013262387429 L-2178.9639564567246 -2179.0475358485373 L-2369.668883737693 -2369.7462605783644 L-2575.6602973887666 -2575.731931978854 L-2798.163602347153 -2798.2299208276236 L-3038.5024297468376 -3038.5638266341048 L-3298.106510956146 -3298.1633514889695 L-3578.520182785973 -3578.5728050982034 L-3881.4115744647893 -3881.4602915968585 L-4208.582531031784 -4208.627632792928 L-4561.979332180774 -4562.021086873053 L-4943.704270319221 -4943.742926333601 L-5356.028156718159 -5356.0639440121395 L-5801.403830149695 -5801.436961615289 L-6282.480748372584 -6282.511421102777 L-6802.120749267944 -6802.149145729147 L-7363.415075385089 -7363.441364502615 L-7969.702763173445 -7969.727101336407 L-8624.590506294777 -8624.613038286418 L-9331.974111178644 -9331.99497103763 L-10096.061672456608 -10096.080984274391 L-10921.398606141187 -10921.416484800211 L-11812.894689467616 -11812.911241324724 L-12775.853268253368 -12775.86859177251 L-13816.002805524424 -13816.016991862389 L-14939.530959085665 -14939.544092634364 L-16153.121390756109 -16153.133549644599 L-17463.993526240814 -17464.004782800075 L-18879.94550216304 -18879.955923356272 L-20409.40055574129 -20409.410203562253 L-22061.457133074233 -22061.46606491604 L-23845.94301411902 -23845.95128311554 L-25773.473776341987 -25773.48143168396 L-27855.515944831815 -27855.523032059456 L-30104.455204542548 -30104.46176581647 L-32533.67008045004 -32533.67615480205 L-35157.611523930194 -35157.6171474955 L-37991.88887880358 -37991.894085035725 L-41053.36273844419 -41053.367558314094 L-44360.245246340215 -44360.24970852041 L-47932.20843677767 -47932.21256781279 L-51790.50126014499 -51790.50508460986 L-55958.07598902062 -55958.07952966625 L-60459.72475701083 -60459.72803489988 L-65322.22704258088 -65322.23007721289 L-70574.5089752346 -70574.51178466206 L-76247.81541172514 -76247.8180126608 L-82375.89580594664 -82375.89821386297 L-88995.20497821242 -88995.20720743373 L-96145.11997825881 -96145.12204204623 L-103868.17433205384 -103868.17624268455 L-112210.31106590027 -112210.31283474024 L-121221.15601302766 -121221.15765059937 L-130954.3130285237 -130954.31454456877 L-141467.68286878432 -141467.68427232146 L-152823.80763243744 -152823.80893181596 L-165090.24281175443 -165090.24401470413 L-178339.95916781877 -178339.96028149582 L-192651.77682012788 -192651.77785115718 L-208110.83413295026 -208110.8350874654 L-224809.09418775633 -224809.0950714355 L-242845.89185463297 -242845.892672733 L-262328.52471710974 -262328.5254744973 L-283372.891365697 -283372.8920668777 L-306104.1808572332 -306104.1815063782 L-330657.6174414986 -330657.61804246966 L-357179.26498534397 -357179.265541716 L-385826.8958797015 -385826.89639478433 L-416770.92959844734 -416770.93007530505 L-450195.4464924287 -450195.4469338981 L-486299.2828495256 -486299.2832582329 L-525297.2137350687 -525297.2141134451 L-567421.2306490978 -567421.2309993946 L-612921.9216010198 -612921.9219253205 L-662069.9618114706 -662069.9621117043 L-715157.7239092942 -715157.7241872472 L-772501.017202397 -772501.0174597224 L-834440.9663690936 -834440.9666073229 L-901346.0407459224 -901346.0409664722 L-973614.2462837718 -973614.2464879543 L-1051675.4932119076 -1051675.493400937 L-1135994.1534946577 -1135994.1536696595 L-1227071.8232945914 -1227071.8234566057 L-1325450.3068755982 -1325450.307025589 L-1431714.8396965773 -1431714.8398354372 L-1546497.5698692473 -1546497.5699978021 L-1670481.318690698 -1670481.3188097125 L-1804403.6426214091 -1804403.6427315918 L-1949061.220872612 -1949061.2209746176 L-2105314.594704018 -2105314.5947984536 L-2274093.286625118 -2274093.286712545 L-2456401.3299531667 -2456401.3300341056 L-2653323.241622296 -2653323.241697229 L-2866030.473774749 -2866030.47384412 L-3095788.3825136623 -3095788.382577885 L-3343963.7552732574 -3343963.7553327144 L-3612032.9415852157 -3612032.941640261 L-3901590.635609829 -3901590.635660788 L-4214359.362677534 -4214359.362724711 L-4552199.726274474 -4552199.72631815 L-4917121.476429564 -4917121.476469999 L-5311295.465346839 -5311295.465384274 L-5737066.561404942 -5737066.561439599 L-6196967.598346701 -6196967.598378785 L-6693734.442640083 -6693734.4426697865 L-7230322.268643373 -7230322.26867087 L-7809923.138392413 -7809923.13841787 L-8435984.990589185 -8435984.990612755 L-9112232.151753394 -9112232.151775213 L-9842687.491554102 -9842687.491574302 L-10631696.354119621 -10631696.354138322 L-11483952.40768869 -11483952.407706004 L-12404525.566377163 -12404525.566393187 L-13398892.150162235 -13398892.150177073 L-14472967.462500433 -14472967.46251417 L-15633140.979376948 -15633140.979389662 L-16886314.359120127 -16886314.3591319 L-18239942.499094453 -18239942.49910535 L-19702077.883510087 -19702077.88352018 L-21281418.486167017 -21281418.486176357 L-22987359.513097063 -22987359.5131057 L-24830049.292912167 -24830049.292920157 L-26820449.64734042 -26820449.647347827 L-28970401.101081964 -28970401.101088822 L-31292693.318907116 -31292693.31891346 L-33801141.189014174 -33801141.189020045 L-36510667.00525145 -36510667.00525689 L-39437389.23709257 -39437389.237097606 L-42598718.415438734 -42598718.41544339 L-46013460.70465672 -46013460.70466105 L-49701929.77698351 -49701929.77698748 L-53686067.65481626 -53686067.65481995 L-57989575.23975845 -57989575.239761874 L-62638053.30491219 -62638053.30491535 L-67659154.78915775 -67659154.78916068 L-73082749.29938829 -73082749.29939099 L-78941100.79929265 -78941100.79929517 L-85269059.54172638 -85269059.5417287 L-92104269.38644147 -92104269.3864436 L-99487391.73646465 -99487391.73646662 L-107462347.42528774 -107462347.4252896 L-116076577.99380887 -116076577.99381055 L-125381327.91130763 -125381327.91130921 L-135431949.4193481 -135431949.41934952 L-146288231.8120552 -146288231.8120565 L-158014757.11160165 -158014757.1116029 L-170681284.25474963 -170681284.2547508 L-184363164.07590255 -184363164.07590365 L-199141787.55532533 -199141787.55532622 L-215105069.9990787 -215105069.99907953 L-232347974.03096104 -232347974.03096193 L-250973074.5076556 -250973074.5076564 L-271091168.7176279 -271091168.7176286 L-292821935.49377406 -292821935.49377465 L-316294647.16072613 -316294647.16072667 L-341648938.5520757 -341648938.5520763 L-369035637.6722518 -369035637.6722523 L-398617662.94450814 -398617662.9445085 L-430570992.38258255 -430570992.3825829 L-465085710.4514526 -465085710.45145303 L-502367138.844768 -502367138.84476835 L-542637057.9057468 -542637057.905747 L-586135025.9575435 -586135025.9575437 L-633119804.3915417 -633119804.391542 L-683870896.9911585 -683870896.9911586 L-738690212.6483144 -738690212.6483145 L-797903861.3637654 -797903861.3637654 L-861864094.2153552 -861864094.2153554 L-930951398.8347434 -930951398.8347436 L-1005576762.858156 -1005576762.8581561 L-1086184118.816055 -1086184118.8160553 L-1173252985.0059063 -1173252985.0059066 L-1267301318.0581129 -1267301318.0581129 L-1368888594.1645024 -1368888594.1645024 L-1478619137.2990332 -1478619137.2990332 L-1597145714.229683 -1597145714.2296822 L-1725173417.7075875 -1725173417.7075875 L-1863463860.933809 -1863463860.9338086 L-2012839708.2558322 -2012839708.2558322 L-2174189569.046079 -2174189569.0460787 L-2348473283.875224 -2348473283.8752236 L-2536727634.426729 -2536727634.426729 L-2740072511.1199613 -2740072511.119961 L-2959717575.131762 -2959717575.1317616 L-3196969454.4477563 -3196969454.4477553 L-3453239516.7513037 -3453239516.751303 L-3730052265.389611 -3730052265.3896103 L-4029054408.363038 -4029054408.363038 L-4352024654.287362 -4352024654.287362 L-4700884293.603353 -4700884293.603352 L-5077708627.979342 -5077708627.9793415 L-5484739315.898186 -5484739315.898186 L-5924397707.870242 -5924397707.870241 L-6399299250.601104 -6399299250.601101 L-6912269045.801704 -6912269045.8017025 L-7466358656.197614 -7466358656.197614 L-8064864258.712919 -8064864258.712919 L-8711346252.819006 -8711346252.819004 L-9409650440.694492 -9409650440.69449 L-10163930905.193283 -10163930905.193281 L-10978674721.717493 -10978674721.717491 L-11858728651.001646 -11858728651.001644 L-12809327971.598587 -12809327971.598581 L-13836127623.586273 -13836127623.586273 L-14945235848.763596 -14945235848.763592 L-16143250527.454525 -16143250527.454521 L-17437298428.081593 -17437298428.08159 L-18835077602.997208 -18835077602.997204 L-20344903182.7774 -20344903182.777397 L-21975756841.400776 -21975756841.40077 L-23737340226.570637 -23737340226.570633 L-25640132673.02837 -25640132673.02836 L-27695453542.183525 -27695453542.18352 L-29915529558.90769 -29915529558.907684 L-32313567546.066254 -32313567546.066246 L-34903832989.472466 -34903832989.47246 L-37701734900.632095 -37701734900.632095 L-40723917482.11169 -40723917482.11169 L-43988359140.83055 -43988359140.83054 L-47514479438.28872 -47514479438.28871 L-51323254613.95684 -51323254613.95682 L-55437342369.058014 -55437342369.058014 L-59881216653.05391 -59881216653.05391 L-64681313254.6577 -64681313254.65769 L-69866187063.46529 -69866187063.46529 L-75466681937.73187 -75466681937.73186 L-81516114188.79254 -81516114188.79254 L-88050470773.65903 -88050470773.65901 L-95108623374.78972 -95108623374.7897 L-102732559640.56184 -102732559640.56181 L-110967632962.04727 -110967632962.04727 L-119862832271.97903 -119862832271.979 L-129471073470.87141 -129471073470.87141 L-139849514213.96094 -139849514213.96094 L-151059893931.55667 -151059893931.55667 L-163168901105.52267 -163168901105.52267 L-176248569986.76855 -176248569986.76855 L-190376709113.71835 -190376709113.71832 L-205637364180.96158 -205637364180.9615 L-222121318011.59293 -222121318011.59286 L-239926630607.48825 -239926630607.48825 L-259159222490.1702 -259159222490.17014 L-279933504802.4686 -279933504802.4686 L-302373059919.3048 -302373059919.30475 L-326611376616.4566 -326611376616.4566 L-352792644170.67096 -352792644170.6709 L-381072610115.0856 -381072610115.0856 L-411619506752.58026 -411619506752.5801 L-444615051938.73395 -444615051938.7339 L-480255530087.8363 -480255530087.8362 L-518752959832.6779 -518752959832.6779 L-560336355284.2921 -560336355284.2921 L-605253088394.702 -605253088394.7019 L-653770360527.0121 -653770360527.012 L-706176791987.0771 -706176791987.077 L-762784138972.4719 -762784138972.4718 L-823929148152.6307 -823929148152.6305 L-889975559912.6732 -889975559912.673 L-961316272177.9319 -961316272177.9316 L-1038375677691.2014 -1038375677691.2012 L-1121612188646.9592 -1121612188646.959 L-1211520963700.9749 -1211520963700.9746 L-1308636853577.813 -1308636853577.8127 L-1413537582799.2449 -1413537582799.2446 L-1526847186460.8403 -1526847186460.84 L-1649239722501.7122 -1649239722501.7117 L-1781443281550.9026 -1781443281550.902 L-1924244318204.29 -1924244318204.2896 L-2078492329497.933 -2078492329497.9326 L-2245104908409.3667 -2245104908409.366 L-2425073202448.964 -2425073202448.964 L-2619467809813.7524 -2619467809813.752 L-2829445148178.6733 -2829445148178.673 L-3056254334012.113 -3056254334012.113 L-3301244613339.403 -3301244613339.402 L-3565873388158.7036 -3565873388158.7036 " stroke = "blue" stroke-width = "4" fill = "none" />	<path d = "M49702330 -49701930 L46013860.70465672 46013860.70466105 L42599118.415438734 42599118.41544339 L39437789.23709257 39437789.237097606 L36511067.00525145 36511067.00525689 L33801541.189014174 33801541.189020045 L31293093.318907116 31293093.31891346 L28970801.101081964 28970801.101088822 L26820849.64734042 26820849.647347827 L24830449.292912167 24830449.292920157 L22987759.513097063 22987759.5131057 L21281818.486167017 21281818.486176357 L19702477.883510087 19702477.88352018 L18240342.499094453 18240342.49910535 L16886714.359120127 16886714.3591319 L15633540.979376948 15633540.979389662 L14473367.462500433 14473367.46251417 L13399292.150162235 13399292.150177073 L12404925.566377163 12404925.566393187 L11484352.40768869 11484352.407706004 L10632096.354119621 10632096.354138322 L9843087.491554102 9843087.491574302 L9112632.151753394 9112632.151775213 L8436384.990589185 8436384.990612755 L7810323.138392413 7810323.13841787 L7230722.268643373 7230722.26867087 L6694134.442640083 6694134.4426697865 L6197367.598346701 6197367.598378785 L5737466.561404942 5737466.561439599 L5311695.465346839 5311695.465384274 L4917521.476429564 4917521.476469999 L4552599.726274474 4552599.72631815 L4214759.362677534 4214759.362724711 L3901990.635609829 3901990.635660788 L3612432.9415852157 3612432.941640261 L3344363.7552732574 3344363.7553327144 L3096188.3825136623 3096188.382577885 L2866430.473774749 2866430.47384412 L2653723.241622296 2653723.241697229 L2456801.3299531667 2456801.3300341056 L2274493.286625118 2274493.286712545 L2105714.594704018 2105714.5947984536 L1949461.220872612 1949461.2209746176 L1804803.6426214091 1804803.6427315918 L1670881.318690698 1670881.3188097125 L1546897.5698692473 1546897.5699978021 L1432114.8396965773 1432114.8398354372 L1325850.3068755982 1325850.307025589 L1227471.8232945914 1227471.8234566057 L1136394.1534946577 1136394.1536696595 L1052075.4932119076 1052075.493400937 L974014.2462837718 974014.2464879543 L901746.0407459224 901746.0409664722 L834840.9663690936 834840.9666073229 L772901.017202397 772901.0174597224 L715557.7239092942 715557.7241872472 L662469.9618114706 662469.9621117043 L613321.9216010198 613321.9219253205 L567821.2306490978 567821.2309993946 L525697.2137350687 525697.2141134451 L486699.2828495256 486699.2832582329 L450595.4464924287 450595.4469338981 L417170.92959844734 417170.93007530505 L386226.8958797015 386226.89639478433 L357579.26498534397 357579.265541716 L331057.6174414986 331057.61804246966 L306504.1808572332 306504.1815063782 L283772.891365697 283772.8920668777 L262728.52471710974 262728.5254744973 L243245.89185463297 243245.892672733 L225209.09418775633 225209.0950714355 L208510.83413295026 208510.8350874654 L193051.77682012788 193051.77785115718 L178739.95916781877 178739.96028149582 L165490.24281175443 165490.24401470413 L153223.80763243744 153223.80893181596 L141867.68286878432 141867.68427232146 L131354.3130285237 131354.31454456877 L121621.15601302766 121621.15765059937 L112610.31106590027 112610.31283474024 L104268.17433205384 104268.17624268455 L96545.11997825881 96545.12204204623 L89395.20497821242 89395.20720743373 L82775.89580594664 82775.89821386297 L76647.81541172514 76647.8180126608 L70974.5089752346 70974.51178466206 L65722.22704258088 65722.23007721288 L60859.72475701083 60859.72803489988 L56358.07598902062 56358.07952966625 L52190.50126014499 52190.50508460986 L48332.20843677767 48332.21256781279 L44760.245246340215 44760.24970852041 L41453.36273844419 41453.367558314094 L38391.88887880358 38391.894085035725 L35557.611523930194 35557.6171474955 L32933.67008045004 32933.67615480205 L30504.455204542548 30504.46176581647 L28255.515944831815 28255.523032059456 L26173.473776341987 26173.48143168396 L24245.94301411902 24245.95128311554 L22461.457133074233 22461.46606491604 L20809.40055574129 20809.410203562253 L19279.94550216304 19279.955923356272 L17863.993526240814 17864.004782800075 L16553.12139075611 16553.133549644597 L15339.530959085665 15339.544092634364 L14216.002805524424 14216.016991862389 L13175.853268253368 13175.86859177251 L12212.894689467616 12212.911241324724 L11321.398606141187 11321.416484800211 L10496.061672456608 10496.080984274391 L9731.974111178644 9731.99497103763 L9024.590506294777 9024.613038286418 L8369.702763173445 8369.727101336408 L7763.415075385089 7763.441364502615 L7202.120749267944 7202.149145729147 L6682.480748372584 6682.511421102777 L6201.403830149695 6201.436961615289 L5756.028156718159 5756.0639440121395 L5343.704270319221 5343.742926333601 L4961.979332180774 4962.021086873053 L4608.582531031784 4608.627632792928 L4281.41157446479 4281.460291596859 L3978.520182785973 3978.5728050982034 L3698.106510956146 3698.1633514889695 L3438.5024297468376 3438.5638266341048 L3198.163602347153 3198.2299208276236 L2975.6602973887666 2975.731931978854 L2769.668883737693 2769.7462605783644 L2578.9639564567246 2579.0475358485373 L2402.411047097397 2402.501326238743 L2238.9598749563847 2239.0573909012282 L2087.6380991492597 2087.7434320019756 L1947.545534333848 1947.6593107001552 L1817.8487956736221 1817.9716923881447 L1697.7763411849721 1697.9090893376035 L1586.613881976214 1586.7572712612377 L1483.7001330746743 1483.8550164885069 L1388.4228795643226 1388.590178479834 L1300.2153346321263 1300.3960442797174 L1218.5527678578042 1218.7479632458471 L1142.9493836893128 1143.1602259991791 L1072.9554315346827 1073.1831750283968 L1008.154530278678 1008.4005297602906 L948.161191308314 948.4269101833813 L892.61852531218 892.9055442932948 L841.1961192117365 841.5061457218935 L793.5880705948279 793.9229489245708 L749.5111679586439 749.8728902374086 L708.703205936707 709.0939239836318 L670.9214254874987 671.3434636122006 L635.9410697656788 636.3969385951423 L603.5540470850588 604.0464584988933 L573.5676930195302 574.0995762824411 L545.8036242779173 546.3781434653623 L520.0966775346717 520.7172503553617 L496.2939269037017 496.9642450309199 L474.2537742104743 474.9778252431602 L453.84510665058417 454.62719783482396 L434.946516823856 435.7913006758955 L417.44558050410694 418.35808248731314 L401.23818784815467 402.2238362685698 L386.2279240655579 387.2925823638921 L372.3254958648042 373.475497496963 L359.4482002639858 360.6903863776309 L347.51943260600797 348.86119273728355 L336.46823085160935 337.9175468841304 L326.2288534392758 327.79434708688143 L316.74038820081194 318.43137229655173 L307.94639000608504 309.77292390254524 L299.7945449813533 301.76749439189075 L292.23635930367675 294.36746094054416 L285.22687072010706 287.52880211398997 L278.72438107553467 281.2108359918439 L272.690208258053 275.3759781586103 L267.0884560862074 269.989518120924 L261.8858007692302 265.0194128212261 L257.0512926699543 260.4360960195226 L252.55617219112838 256.21230240927434 L248.37369868987565 252.32290542111602 L244.4789914025402 248.74476774952794 L240.8488814336117 245.45660371327187 L237.46177392823816 242.4388526307981 L234.29751960841628 239.67356245735783 L231.3372949086518 237.144282991599 L228.56348999803942 234.83596801635161 L225.95960402262557 232.73488579145638 L223.51014694487108 230.82853736617432 L221.20054739627386 229.1055822252335 L219.01706599498456 227.55577082619487 L216.94671361275738 226.16988362681406 L214.9771741050211 224.93967623968462 L213.09673104440606 223.85783038789748 L211.29419802187815 222.9179103699611 L209.55885210085393 222.1143247749999 L207.8803700284284 221.442293220482 L206.24876682424664 220.89781791460487 L204.65433638169705 220.47765987416932 L203.08759372807273 220.17931965646534 L201.53921860021768 220.0010224905486 L200 219.94170771945508 L198.46078139978232 220.0010224905486 L196.91240627192727 220.17931965646534 L195.34566361830295 220.47765987416932 L193.75123317575336 220.89781791460487 L192.1196299715716 221.442293220482 L190.44114789914607 222.1143247749999 L188.70580197812188 222.9179103699611 L186.90326895559394 223.85783038789748 L185.0228258949789 224.93967623968462 L183.05328638724262 226.16988362681406 L180.98293400501544 227.55577082619487 L178.79945260372617 229.1055822252335 L176.48985305512892 230.82853736617432 L174.04039597737443 232.73488579145638 L171.43651000196058 234.83596801635161 L168.6627050913482 237.144282991599 L165.70248039158372 239.67356245735783 L162.53822607176184 242.4388526307981 L159.1511185663883 245.45660371327187 L155.5210085974598 248.74476774952794 L151.62630131012435 252.32290542111602 L147.44382780887162 256.21230240927434 L142.9487073300457 260.4360960195226 L138.11419923076983 265.0194128212261 L132.91154391379263 269.989518120924 L127.30979174194698 275.3759781586103 L121.27561892446535 281.2108359918439 L114.77312927989293 287.52880211398997 L107.76364069632325 294.3674609405442 L100.20545501864672 301.76749439189075 L92.05360999391493 309.77292390254524 L83.25961179918806 318.43137229655173 L73.77114656072425 327.79434708688143 L63.53176914839065 337.9175468841304 L52.48056739399203 348.86119273728355 L40.551799736014175 360.6903863776309 L27.674504135195775 373.475497496963 L13.7720759344422 387.29258236389217 L-1.2381878481546096 402.2238362685698 L-17.44558050410697 418.35808248731314 L-34.94651682385597 435.7913006758955 L-53.84510665058417 454.62719783482396 L-74.25377421047432 474.9778252431602 L-96.29392690370167 496.9642450309199 L-120.09667753467176 520.7172503553617 L-145.80362427791727 546.3781434653623 L-173.56769301953017 574.0995762824413 L-203.55404708505876 604.0464584988933 L-235.94106976567872 636.3969385951423 L-270.92142548749877 671.3434636122006 L-308.70320593670704 709.0939239836318 L-349.5111679586439 749.8728902374086 L-393.58807059482785 793.9229489245708 L-441.19611921173646 841.5061457218935 L-492.61852531218005 892.9055442932948 L-548.1611913083138 948.4269101833816 L-608.154530278678 1008.4005297602906 L-672.9554315346827 1073.1831750283968 L-742.9493836893128 1143.1602259991791 L-818.552767857804 1218.7479632458471 L-900.2153346321263 1300.3960442797174 L-988.4228795643226 1388.590178479834 L-1083.7001330746743 1483.8550164885069 L-1186.613881976214 1586.7572712612377 L-1297.776341184972 1697.909089337604 L-1417.8487956736221 1817.9716923881447 L-1547.545534333848 1947.6593107001552 L-1687.6380991492597 2087.7434320019756 L-1838.9598749563847 2239.0573909012282 L-2002.411047097397 2402.501326238743 L-2178.9639564567246 2579.0475358485373 L-2369.668883737693 2769.7462605783644 L-2575.6602973887666 2975.731931978854 L-2798.1636023471524 3198.229920827624 L-3038.5024297468376 3438.5638266341048 L-3298.106510956146 3698.1633514889695 L-3578.520182785973 3978.5728050982034 L-3881.4115744647893 4281.460291596859 L-4208.582531031784 4608.627632792928 L-4561.979332180774 4962.021086873053 L-4943.704270319221 5343.742926333601 L-5356.028156718159 5756.0639440121395 L-5801.403830149693 6201.436961615291 L-6282.480748372584 6682.511421102777 L-6802.120749267944 7202.149145729147 L-7363.415075385089 7763.441364502615 L-7969.702763173445 8369.727101336408 L-8624.590506294777 9024.613038286418 L-9331.974111178644 9731.99497103763 L-10096.061672456608 10496.080984274391 L-10921.398606141187 11321.416484800211 L-11812.894689467614 12212.911241324726 L-12775.853268253368 13175.86859177251 L-13816.002805524424 14216.016991862389 L-14939.530959085665 15339.544092634364 L-16153.121390756109 16553.133549644597 L-17463.993526240814 17864.004782800075 L-18879.94550216304 19279.955923356272 L-20409.40055574129 20809.410203562253 L-22061.457133074233 22461.46606491604 L-23845.943014119017 24245.951283115548 L-25773.473776341987 26173.48143168396 L-27855.515944831815 28255.523032059456 L-30104.455204542548 30504.46176581647 L-32533.67008045004 32933.67615480205 L-35157.611523930194 35557.6171474955 L-37991.88887880358 38391.894085035725 L-41053.36273844419 41453.367558314094 L-44360.245246340215 44760.24970852041 L-47932.20843677766 48332.21256781281 L-51790.50126014499 52190.50508460986 L-55958.07598902062 56358.07952966625 L-60459.72475701083 60859.72803489988 L-65322.22704258088 65722.23007721288 L-70574.5089752346 70974.51178466206 L-76247.81541172514 76647.8180126608 L-82375.89580594664 82775.89821386297 L-88995.20497821242 89395.20720743373 L-96145.11997825878 96545.12204204625 L-103868.17433205384 104268.17624268455 L-112210.31106590027 112610.31283474024 L-121221.15601302766 121621.15765059937 L-130954.3130285237 131354.31454456877 L-141467.68286878432 141867.68427232146 L-152823.80763243744 153223.80893181596 L-165090.24281175443 165490.24401470413 L-178339.95916781877 178739.96028149582 L-192651.77682012782 193051.7778511572 L-208110.83413295026 208510.8350874654 L-224809.09418775633 225209.0950714355 L-242845.89185463297 243245.892672733 L-262328.52471710974 262728.5254744973 L-283372.891365697 283772.8920668777 L-306104.1808572332 306504.1815063782 L-330657.6174414986 331057.61804246966 L-357179.26498534397 357579.265541716 L-385826.8958797014 386226.8963947844 L-416770.92959844734 417170.93007530505 L-450195.4464924287 450595.4469338981 L-486299.2828495256 486699.2832582329 L-525297.2137350687 525697.2141134451 L-567421.2306490978 567821.2309993946 L-612921.9216010198 613321.9219253205 L-662069.9618114706 662469.9621117043 L-715157.7239092942 715557.7241872472 L-772501.0172023969 772901.0174597226 L-834440.9663690936 834840.9666073229 L-901346.0407459224 901746.0409664722 L-973614.2462837718 974014.2464879543 L-1051675.4932119076 1052075.493400937 L-1135994.1534946577 1136394.1536696595 L-1227071.8232945914 1227471.8234566057 L-1325450.3068755982 1325850.307025589 L-1431714.8396965773 1432114.8398354372 L-1546497.5698692468 1546897.5699978024 L-1670481.318690698 1670881.3188097125 L-1804403.6426214091 1804803.6427315918 L-1949061.220872612 1949461.2209746176 L-2105314.594704018 2105714.5947984536 L-2274093.286625118 2274493.286712545 L-2456401.3299531667 2456801.3300341056 L-2653323.241622296 2653723.241697229 L-2866030.473774749 2866430.47384412 L-3095788.3825136614 3096188.382577886 L-3343963.7552732574 3344363.7553327144 L-3612032.9415852157 3612432.941640261 L-3901590.635609829 3901990.635660788 L-4214359.362677534 4214759.362724711 L-4552199.726274474 4552599.72631815 L-4917121.476429564 4917521.476469999 L-5311295.465346839 5311695.465384274 L-5737066.561404942 5737466.561439599 L-6196967.598346699 6197367.598378786 L-6693734.442640083 6694134.4426697865 L-7230322.268643373 7230722.26867087 L-7809923.138392413 7810323.13841787 L-8435984.990589185 8436384.990612755 L-9112232.151753394 9112632.151775213 L-9842687.491554102 9843087.491574302 L-10631696.354119621 10632096.354138322 L-11483952.40768869 11484352.407706004 L-12404525.566377161 12404925.56639319 L-13398892.150162235 13399292.150177073 L-14472967.462500433 14473367.46251417 L-15633140.979376948 15633540.979389662 L-16886314.359120127 16886714.3591319 L-18239942.499094453 18240342.49910535 L-19702077.883510087 19702477.88352018 L-21281418.486167017 21281818.486176357 L-22987359.513097063 22987759.5131057 L-24830049.29291216 24830449.292920165 L-26820449.64734042 26820849.647347827 L-28970401.101081964 28970801.101088822 L-31292693.318907116 31293093.31891346 L-33801141.189014174 33801541.189020045 L-36510667.00525145 36511067.00525689 L-39437389.23709257 39437789.237097606 L-42598718.415438734 42599118.41544339 L-46013460.70465672 46013860.70466105 L-49701929.77698349 49702329.77698749 L-53686067.65481626 53686467.65481995 L-57989575.23975845 57989975.239761874 L-62638053.30491219 62638453.30491535 L-67659154.78915775 67659554.78916068 L-73082749.29938829 73083149.29939099 L-78941100.79929265 78941500.79929517 L-85269059.54172638 85269459.5417287 L-92104269.38644147 92104669.3864436 L-99487391.73646462 99487791.73646665 L-107462347.42528774 107462747.4252896 L-116076577.99380887 116076977.99381055 L-125381327.91130763 125381727.91130921 L-135431949.4193481 135432349.41934952 L-146288231.8120552 146288631.8120565 L-158014757.11160165 158015157.1116029 L-170681284.25474963 170681684.2547508 L-184363164.07590255 184363564.07590365 L-199141787.55532527 199142187.55532625 L-215105069.9990787 215105469.99907953 L-232347974.03096104 232348374.03096193 L-250973074.5076556 250973474.5076564 L-271091168.7176279 271091568.7176286 L-292821935.49377406 292822335.49377465 L-316294647.16072613 316295047.16072667 L-341648938.5520757 341649338.5520763 L-369035637.6722518 369036037.6722523 L-398617662.9445081 398618062.94450855 L-430570992.38258255 430571392.3825829 L-465085710.4514526 465086110.45145303 L-502367138.844768 502367538.84476835 L-542637057.9057468 542637457.905747 L-586135025.9575435 586135425.9575437 L-633119804.3915417 633120204.391542 L-683870896.9911585 683871296.9911586 L-738690212.6483144 738690612.6483145 L-797903861.3637651 797904261.3637655 L-861864094.2153552 861864494.2153554 L-930951398.8347434 930951798.8347436 L-1005576762.858156 1005577162.8581561 L-1086184118.816055 1086184518.8160553 L-1173252985.0059063 1173253385.0059066 L-1267301318.0581129 1267301718.0581129 L-1368888594.1645024 1368888994.1645024 L-1478619137.2990332 1478619537.2990332 L-1597145714.2296824 1597146114.2296827 L-1725173417.7075875 1725173817.7075875 L-1863463860.933809 1863464260.9338086 L-2012839708.2558322 2012840108.2558322 L-2174189569.046079 2174189969.0460787 L-2348473283.875224 2348473683.8752236 L-2536727634.426729 2536728034.426729 L-2740072511.1199613 2740072911.119961 L-2959717575.131762 2959717975.1317616 L-3196969454.447756 3196969854.4477563 L-3453239516.7513037 3453239916.751303 L-3730052265.389611 3730052665.3896103 L-4029054408.363038 4029054808.363038 L-4352024654.287362 4352025054.287362 L-4700884293.603353 4700884693.603352 L-5077708627.979342 5077709027.9793415 L-5484739315.898186 5484739715.898186 L-5924397707.870242 5924398107.870241 L-6399299250.601102 6399299650.601103 L-6912269045.801704 6912269445.8017025 L-7466358656.197614 7466359056.197614 L-8064864258.712919 8064864658.712919 L-8711346252.819006 8711346652.819004 L-9409650440.694492 9409650840.69449 L-10163930905.193283 10163931305.193281 L-10978674721.717493 10978675121.717491 L-11858728651.001646 11858729051.001644 L-12809327971.598583 12809328371.598585 L-13836127623.586273 13836128023.586273 L-14945235848.763596 14945236248.763592 L-16143250527.454525 16143250927.454521 L-17437298428.081593 17437298828.08159 L-18835077602.997208 18835078002.997204 L-20344903182.7774 20344903582.777397 L-21975756841.400776 21975757241.40077 L-23737340226.570637 23737340626.570633 L-25640132673.028366 25640133073.028366 L-27695453542.183525 27695453942.18352 L-29915529558.90769 29915529958.907684 L-32313567546.066254 32313567946.066246 L-34903832989.472466 34903833389.47246 L-37701734900.632095 37701735300.632095 L-40723917482.11169 40723917882.11169 L-43988359140.83055 43988359540.83054 L-47514479438.28872 47514479838.28871 L-51323254613.956825 51323255013.95683 L-55437342369.058014 55437342769.058014 L-59881216653.05391 59881217053.05391 L-64681313254.6577 64681313654.65769 L-69866187063.46529 69866187463.46529 L-75466681937.73187 75466682337.73186 L-81516114188.79254 81516114588.79254 L-88050470773.65903 88050471173.65901 L-95108623374.78972 95108623774.7897 L-102732559640.56183 102732560040.56184 L-110967632962.04727 110967633362.04727 L-119862832271.97903 119862832671.979 L-129471073470.87141 129471073870.87141 L-139849514213.96094 139849514613.96094 L-151059893931.55667 151059894331.55667 L-163168901105.52267 163168901505.52267 L-176248569986.76855 176248570386.76855 L-190376709113.71835 190376709513.71832 L-205637364180.96152 205637364580.96155 L-222121318011.59293 222121318411.59286 L-239926630607.48825 239926631007.48825 L-259159222490.1702 259159222890.17014 L-279933504802.4686 279933505202.4686 L-302373059919.3048 302373060319.30475 L-326611376616.4566 326611377016.4566 L-352792644170.67096 352792644570.6709 L-381072610115.0856 381072610515.0856 L-411619506752.58014 411619507152.58014 L-444615051938.73395 444615052338.7339 L-480255530087.8363 480255530487.8362 L-518752959832.6779 518752960232.6779 L-560336355284.2921 560336355684.2921 L-605253088394.702 605253088794.7019 L-653770360527.0121 653770360927.012 L-706176791987.0771 706176792387.077 L-762784138972.4719 762784139372.4718 L-823929148152.6305 823929148552.6306 L-889975559912.6732 889975560312.673 L-961316272177.9319 961316272577.9316 L-1038375677691.2014 1038375678091.2012 L-1121612188646.9592 1121612189046.959 L-1211520963700.9749 1211520964100.9746 L-1308636853577.813 1308636853977.8127 L-1413537582799.2449 1413537583199.2446 L-1526847186460.8403 1526847186860.84 L-1649239722501.712 1649239722901.7122 L-1781443281550.9026 1781443281950.902 L-1924244318204.29 1924244318604.2896 L-2078492329497.933 2078492329897.9326 L-2245104908409.3667 2245104908809.366 L-2425073202448.964 2425073202848.964 L-2619467809813.7524 2619467810213.752 L-2829445148178.6733 2829445148578.673 L-3056254334012.113 3056254334412.113 L-3301244613339.4023 3301244613739.403 L-3565873388158.7036 3565873388558.7036 " stroke = "blue" stroke-width = "4" fill = "none" /></svg>