<svg width="400" height="400" viewbox = "0 0 400 400"  xmlns="http://www.w3.org/2000/svg">

<!--
<topfunctions>






function YofX(){
    X = plotparams.g*(x - plotparams.x0) - funcparams.X0;
    Y = funcparams.G*(funcparams.Tn +  (X - funcparams.f)/Math.tanh( (X - funcparams.f)/funcparams.T) +  (X + funcparams.f)/Math.tanh( (X + funcparams.f)/funcparams.T));
    
    y = plotparams.y0 - plotparams.G*(Y - funcparams.Y0);
}



function plotfunction(){
/*

    currentStroke = "blue";
    currentLineWidth = 4;
    ctx.strokeStyle = currentStroke;
    ctx.lineWidth = currentLineWidth;
    ctx.beginPath();	
    x = 0;
    y = 0;
    t= 0;
    XYofT();
    currentSVG += "	<path d = \"M";
    currentSVG += Math.round(x).toString() + " ";
    currentSVG += Math.round(y).toString() + " ";
    for(t = 1;t < plotparams.duration;t++){
        ctx.moveTo(x,y);
        XYofT();
        ctx.lineTo(x,y);
        currentSVG += "L" + x + " " + y + " ";
    }
    ctx.stroke();
    currentSVG += "\""+ " stroke = \"" + currentStroke + "\" stroke-width = \"" + currentLineWidth.toString() + "\" fill = \"" + "none" + "\" "+"/>";


    /*plot one function:*/
    currentStroke = "blue";
    currentLineWidth = 4;
    ctx.strokeStyle = currentStroke;
    ctx.lineWidth = currentLineWidth;
    ctx.beginPath();	
    x = 0;
    YofX();
    currentSVG += "	<path d = \"M";
    currentSVG += Math.round(x).toString() + " ";
    currentSVG += Math.round(y).toString() + " ";
    for(x = 1;x < plotparams.plotwidth;x++){
        ctx.moveTo(x-1,y);
        YofX();
        ctx.lineTo(x,y);
        currentSVG += "L" + x + " " + y + " ";
    }
    ctx.stroke();
    currentSVG += "\""+ " stroke = \"" + currentStroke + "\" stroke-width = \"" + currentLineWidth.toString() + "\" fill = \"" + "none" + "\" "+"/>";
    /*finish plot one function*/
    

}


































</topfunctions>
-->

<!--
<imgurl>

</imgurl>
-->

<!--
<currentjson>
{
    "constants": {},
    "imgurl": "",
    "plotparams": {
        "G": 8.457230750101099,
        "g": 0.06830134553650705,
        "duration": 545.4545454545454,
        "plotwidth": 400,
        "plotheight": 400,
        "x0": 200,
        "y0": 400
    },
    "funcparams": {
        "f": 5.360676760535051,
        "T": 1.7186016995268678,
        "Tn": 11,
        "G": 1,
        "X0": 0,
        "Y0": 0
    }
}
</currentjson>
-->

<!--
<equation>







<h2>X  times Hyperbolic Cotangent</h2>
<p style="color:blue">

</p><p class="bigeq">
$$
Y = X\coth{X}$$
</p>
<p></p>

$$
X = g(x - x_0) - X_0
$$
$$
Y = f(X)
$$
    
$$
y = y_0 - G(Y - Y_0)
$$


<p>
    X and Y, and $X_0$ and $Y_0$ in physical units of the System. x and y and x0 and y0 in pixels.  G is in pixels per Y unit and g is in X units per pixel. 
</p>








</equation>
-->
	<path d = "M0 76 L1 77.0600162748114 L2 78.2145865276562 L3 79.36910517259514 L4 80.52356853087298 L5 81.6779726681574 L6 82.83231337741319 L7 83.98658616068855 L8 85.14078620975204 L9 86.29490838551186 L10 87.44894719615121 L11 88.60289677390409 L12 89.75675085039848 L13 90.91050273048586 L14 92.06414526447526 L15 93.21767081868626 L16 94.37107124423085 L17 95.52433784393133 L18 96.67746133727832 L19 97.83043182332835 L20 98.98323874143864 L21 100.13587082973112 L22 101.28831608117781 L23 102.44056169719369 L24 103.59259403862035 L25 104.74439857398454 L26 105.89595982490869 L27 107.04726130855192 L28 108.19828547695676 L29 109.34901365317461 L30 110.49942596404674 L31 111.64950126950993 L32 112.79921708830517 L33 113.94854951996064 L34 115.09747316292942 L35 116.24596102876086 L36 117.39398445219024 L37 118.54151299703716 L38 119.68851435780834 L39 120.83495425691075 L40 121.98079633738678 L41 123.12600205109948 L42 124.27053054230475 L43 125.41433852656405 L44 126.5573801649702 L45 127.69960693367517 L46 128.84096748873424 L47 129.98140752630337 L48 131.12086963825624 L49 132.25929316331673 L50 133.39661403383735 L51 134.5327646183914 L52 135.66767356038685 L53 136.80126561295583 L54 137.93346147041967 L55 139.06417759668295 L56 140.19332605096622 L57 141.3208143113451 L58 142.44654509662928 L59 143.5704161871817 L60 144.69232024534944 L61 145.81214463625338 L62 146.929771249763 L63 148.04507632456304 L64 149.15793027530364 L65 150.26819752391438 L66 151.37573633624763 L67 152.48039866531064 L68 153.58203000243267 L69 154.68046923780548 L70 155.77554853192262 L71 156.86709319952942 L72 157.95492160777815 L73 159.038845090359 L74 160.11866787944794 L75 161.19418705737752 L76 162.2651925299851 L77 163.33146702363848 L78 164.3927861079641 L79 165.44891824631648 L80 166.49962487602238 L81 167.54466052041062 L82 168.58377293459185 L83 169.61670328688604 L84 170.64318637770234 L85 171.66295089755673 L86 172.67571972576692 L87 173.68121027118733 L88 174.679134856142 L89 175.66920114447694 L90 176.65111261438634 L91 177.6245690763712 L92 178.58926723636105 L93 179.54490130367594 L94 180.49116364312408 L95 181.42774547012675 L96 182.35433758733654 L97 183.27063116077338 L98 184.17631853304826 L99 185.07109407078445 L100 185.95465504288103 L101 186.8267025258078 L102 187.68694233167054 L103 188.53508595435764 L104 189.370851528675 L105 190.19396479700185 L106 191.00416007767097 L107 191.8011812289867 L108 192.58478260256493 L109 193.35472997950282 L110 194.11080148277992 L111 194.8527884592519 L112 195.58049632463286 L113 196.2937453649738 L114 196.9923714883323 L115 197.6762269205941 L116 198.34518083975044 L117 198.99911994335136 L118 199.6379489443407 L119 200.26159099103023 L120 200.8699880075809 L121 201.46310095201545 L122 202.04090998949238 L123 202.60341457930056 L124 203.150633474793 L125 203.68260463624074 L126 204.19938505735752 L127 204.7010505069999 L128 205.18769518828202 L129 205.65943131804622 L130 206.11638863029242 L131 206.55871380777802 L132 206.98656984655474 L133 207.40013535869483 L134 207.79960381887832 L135 208.1851827608572 L136 208.5570929300786 L137 208.91556739894062 L138 209.26085065126586 L139 209.59319764261315 L140 209.91287284301202 L141 210.22014926859504 L142 210.51530750843233 L143 210.798634752639 L144 211.07042382754162 L145 211.33097224335677 L146 211.58058125946184 L147 211.8195549719352 L148 212.04819942761043 L149 212.2668217684424 L150 212.47572940952304 L151 212.67522925361885 L152 212.86562694464146 L153 213.04722616200402 L154 213.22032795737348 L155 213.38523013490072 L156 213.54222667560384 L157 213.69160720619553 L158 213.8336565122872 L159 213.96865409557552 L160 214.09687377431223 L161 214.21858332609338 L162 214.33404417175927 L163 214.44351109899122 L164 214.5472320240095 L165 214.6454477896269 L166 214.73839199779022 L167 214.82629087464414 L168 214.90936316608207 L169 214.98782006169776 L170 215.06186514502525 L171 215.13169436794578 L172 215.19749604714784 L173 215.2594508805532 L174 215.31773198165553 L175 215.37250492977034 L176 215.42392783425237 L177 215.4721514108032 L178 215.51731906806654 L179 215.55956700278648 L180 215.59902430188822 L181 215.63581304992377 L182 215.67004844041517 L183 215.70183888971385 L184 215.73128615208273 L185 215.7584854347958 L186 215.78352551213442 L187 215.8064888372439 L188 215.8274516508967 L189 215.84648408628576 L190 215.86365026904969 L191 215.87900841180553 L192 215.89261090253342 L193 215.90450438622926 L194 215.91472983930223 L195 215.92332263626201 L196 215.93031260829542 L197 215.93572409339404 L198 215.93957597774846 L199 215.9418817281793 L200 215.94264941542755 L201 215.9418817281793 L202 215.93957597774846 L203 215.93572409339404 L204 215.93031260829542 L205 215.92332263626201 L206 215.91472983930223 L207 215.90450438622926 L208 215.89261090253342 L209 215.87900841180553 L210 215.86365026904969 L211 215.84648408628576 L212 215.8274516508967 L213 215.8064888372439 L214 215.78352551213442 L215 215.75848543479583 L216 215.73128615208273 L217 215.70183888971385 L218 215.67004844041517 L219 215.63581304992374 L220 215.59902430188822 L221 215.55956700278648 L222 215.51731906806648 L223 215.4721514108032 L224 215.42392783425237 L225 215.37250492977034 L226 215.31773198165553 L227 215.25945088055323 L228 215.19749604714784 L229 215.13169436794578 L230 215.06186514502528 L231 214.98782006169776 L232 214.90936316608207 L233 214.82629087464414 L234 214.7383919977902 L235 214.6454477896269 L236 214.5472320240095 L237 214.44351109899125 L238 214.33404417175927 L239 214.21858332609338 L240 214.09687377431223 L241 213.96865409557552 L242 213.83365651228723 L243 213.69160720619553 L244 213.54222667560384 L245 213.3852301349007 L246 213.22032795737348 L247 213.04722616200402 L248 212.86562694464146 L249 212.67522925361885 L250 212.47572940952304 L251 212.26682176844244 L252 212.04819942761043 L253 211.8195549719352 L254 211.58058125946184 L255 211.33097224335677 L256 211.07042382754162 L257 210.798634752639 L258 210.5153075084323 L259 210.22014926859507 L260 209.91287284301202 L261 209.59319764261315 L262 209.26085065126586 L263 208.91556739894062 L264 208.5570929300786 L265 208.1851827608572 L266 207.79960381887832 L267 207.40013535869483 L268 206.98656984655477 L269 206.55871380777805 L270 206.11638863029242 L271 205.65943131804622 L272 205.18769518828202 L273 204.7010505069999 L274 204.19938505735752 L275 203.68260463624074 L276 203.150633474793 L277 202.60341457930053 L278 202.04090998949235 L279 201.46310095201548 L280 200.86998800758093 L281 200.26159099103023 L282 199.63794894434065 L283 198.99911994335136 L284 198.34518083975044 L285 197.6762269205941 L286 196.99237148833237 L287 196.29374536497383 L288 195.58049632463286 L289 194.8527884592519 L290 194.11080148277992 L291 193.35472997950282 L292 192.58478260256493 L293 191.80118122898676 L294 191.00416007767097 L295 190.19396479700188 L296 189.370851528675 L297 188.53508595435767 L298 187.68694233167054 L299 186.82670252580783 L300 185.95465504288103 L301 185.07109407078445 L302 184.1763185330483 L303 183.27063116077338 L304 182.35433758733654 L305 181.42774547012675 L306 180.49116364312408 L307 179.54490130367594 L308 178.58926723636105 L309 177.6245690763712 L310 176.65111261438634 L311 175.66920114447694 L312 174.67913485614199 L313 173.68121027118733 L314 172.67571972576692 L315 171.66295089755673 L316 170.64318637770234 L317 169.61670328688604 L318 168.58377293459185 L319 167.54466052041062 L320 166.49962487602238 L321 165.4489182463165 L322 164.3927861079641 L323 163.33146702363848 L324 162.2651925299851 L325 161.19418705737752 L326 160.11866787944797 L327 159.03884509035902 L328 157.95492160777818 L329 156.86709319952942 L330 155.7755485319226 L331 154.6804692378055 L332 153.58203000243267 L333 152.48039866531062 L334 151.37573633624763 L335 150.26819752391435 L336 149.15793027530364 L337 148.04507632456307 L338 146.929771249763 L339 145.81214463625338 L340 144.69232024534944 L341 143.5704161871817 L342 142.44654509662934 L343 141.3208143113451 L344 140.19332605096622 L345 139.06417759668295 L346 137.93346147041967 L347 136.80126561295583 L348 135.66767356038685 L349 134.53276461839135 L350 133.39661403383735 L351 132.25929316331673 L352 131.12086963825624 L353 129.98140752630331 L354 128.84096748873424 L355 127.69960693367517 L356 126.5573801649702 L357 125.41433852656405 L358 124.27053054230475 L359 123.12600205109948 L360 121.98079633738683 L361 120.83495425691069 L362 119.68851435780834 L363 118.5415129970371 L364 117.39398445219024 L365 116.24596102876086 L366 115.09747316292942 L367 113.94854951996064 L368 112.79921708830523 L369 111.64950126950993 L370 110.49942596404674 L371 109.34901365317461 L372 108.19828547695676 L373 107.04726130855192 L374 105.89595982490857 L375 104.74439857398454 L376 103.59259403862035 L377 102.44056169719374 L378 101.28831608117792 L379 100.13587082973112 L380 98.98323874143864 L381 97.83043182332841 L382 96.67746133727832 L383 95.52433784393133 L384 94.37107124423079 L385 93.21767081868626 L386 92.0641452644752 L387 90.91050273048586 L388 89.75675085039848 L389 88.60289677390409 L390 87.44894719615115 L391 86.29490838551186 L392 85.14078620975204 L393 83.98658616068866 L394 82.83231337741319 L395 81.6779726681574 L396 80.52356853087298 L397 79.36910517259514 L398 78.2145865276562 L399 77.0600162748114 " stroke = "blue" stroke-width = "4" fill = "none" /></svg>