<svg width="400" height="400" viewbox = "0 0 400 400"  xmlns="http://www.w3.org/2000/svg">

<!--
<topfunctions>







function XYofT(){
    T = plotparams.g*t;
    
    
    X = funcparams.a*Math.cosh(2*Math.PI*T/funcparams.T);
    Y = funcparams.b*Math.sinh(2*Math.PI*T/funcparams.T);
    
    Xrot = Math.cos(Math.PI*funcparams.theta/180)*X - Math.sin(funcparams.theta*Math.PI/180)*Y;
    Yrot = Math.sin(funcparams.theta*Math.PI/180)*X + Math.cos(funcparams.theta*Math.PI/180)*Y;
    X = Xrot;
    Y = Yrot;
    y = plotparams.y0 - plotparams.G*(Y - funcparams.Y0);
    x = plotparams.x0 - plotparams.G*(X - funcparams.X0);    
}

function XYofT2(){
    T = plotparams.g*t;
    X = -funcparams.a*Math.cosh(2*Math.PI*T/funcparams.T);
    Y = funcparams.b*Math.sinh(2*Math.PI*T/funcparams.T);
       Xrot = Math.cos(funcparams.theta*Math.PI/180)*X - Math.sin(funcparams.theta*Math.PI/180)*Y;
    Yrot = Math.sin(funcparams.theta*Math.PI/180)*X + Math.cos(funcparams.theta*Math.PI/180)*Y;
    X = Xrot;
    Y = Yrot;
    y = plotparams.y0 - plotparams.G*(Y - funcparams.Y0);
    x = plotparams.x0 - plotparams.G*(X - funcparams.X0);   
}

function plotfunction(){


    currentStroke = "blue";
    currentLineWidth = 4;
    ctx.strokeStyle = currentStroke;
    ctx.lineWidth = currentLineWidth;
    ctx.beginPath();	
    x = 0;
    y = 0;
    t = plotparams.tstart;
    XYofT();
    currentSVG += "	<path d = \"M";
    currentSVG += Math.round(x).toString() + " ";
    currentSVG += Math.round(y).toString() + " ";
    for(t = 1 + plotparams.tstart; t < plotparams.tstart + plotparams.duration;t++){
        ctx.moveTo(x,y);
        XYofT();
        ctx.lineTo(x,y);
        currentSVG += "L" + x + " " + y + " ";
    }
    ctx.stroke();
    currentSVG += "\""+ " stroke = \"" + currentStroke + "\" stroke-width = \"" + currentLineWidth.toString() + "\" fill = \"" + "none" + "\" "+"/>";


    currentStroke = "blue";
    currentLineWidth = 4;
    ctx.strokeStyle = currentStroke;
    ctx.lineWidth = currentLineWidth;
    ctx.beginPath();	
    x = 0;
    y = 0;
    t = plotparams.tstart;
    XYofT();
    currentSVG += "	<path d = \"M";
    currentSVG += Math.round(x).toString() + " ";
    currentSVG += Math.round(y).toString() + " ";
    for(t = 1 + plotparams.tstart; t < plotparams.tstart + plotparams.duration;t++){
        ctx.moveTo(x,y);
        XYofT2();
        ctx.lineTo(x,y);
        currentSVG += "L" + x + " " + y + " ";
    }
    ctx.stroke();
    currentSVG += "\""+ " stroke = \"" + currentStroke + "\" stroke-width = \"" + currentLineWidth.toString() + "\" fill = \"" + "none" + "\" "+"/>";

    /*plot one function:
    currentStroke = "blue";
    currentLineWidth = 4;
    ctx.strokeStyle = currentStroke;
    ctx.lineWidth = currentLineWidth;
    ctx.beginPath();	
    x = 0;
    YofX();
    currentSVG += "	<path d = \"M";
    currentSVG += Math.round(x).toString() + " ";
    currentSVG += Math.round(y).toString() + " ";
    for(x = 1;x < plotparams.plotwidth;x++){
        ctx.moveTo(x-1,y);
        YofX();
        ctx.lineTo(x,y);
        currentSVG += "L" + x + " " + y + " ";
    }
    ctx.stroke();
    currentSVG += "\""+ " stroke = \"" + currentStroke + "\" stroke-width = \"" + currentLineWidth.toString() + "\" fill = \"" + "none" + "\" "+"/>";
    /*finish plot one function*/
    

}
























</topfunctions>
-->

<!--
<imgurl>

</imgurl>
-->

<!--
<currentjson>
{
    "constants": {},
    "imgurl": "",
    "plotparams": {
        "G": 100.79476910000022,
        "g": 0.017985878990921366,
        "tstart": -200,
        "duration": 545.4545454545454,
        "plotwidth": 400,
        "plotheight": 400,
        "x0": 200,
        "y0": 200
    },
    "funcparams": {
        "theta": 90.00000000000001,
        "a": 0.19784466890013488,
        "b": -0.466507380209733,
        "T": 1.4655609018152753,
        "X0": 0,
        "Y0": 0
    }
}
</currentjson>
-->

<!--
<equation>


<h2>Hyperbola</h2>
<p style="color:blue">

</p><p class="bigeq">
$$
(X,Y) = (\pm a\cosh{\frac{2\pi t}{T}},b\sinh{\frac{2\pi t}{T}})
$$
</p>
<p></p>

$$
X = g(x - x_0) - X_0
$$
$$
Y = f(X)
$$
    
$$
y = y_0 - G(Y - Y_0)
$$


<p>
    X and Y, and $X_0$ and $Y_0$ in physical units of the System. x and y and x0 and y0 in pixels.  G is in pixels per Y unit and g is in X units per pixel. 
</p>



</equation>
-->
	<path d = "M117195222 -49701930 L108498005.01300287 -46013460.704661004 L100446221.31678124 -42598718.41544335 L92991972.48020896 -39437389.23709757 L86090914.55144083 -36510667.00525686 L79701994.40933923 -33801141.189020015 L73787205.54602642 -31292693.31891343 L68311361.97317833 -28970401.101088796 L63241888.90706637 -26820449.6473478 L58548628.987176664 -24830049.29292014 L54203662.87563235 -22987359.513105683 L50181143.17020048 -21281418.486176334 L46457140.64286302 -19702077.88352016 L43009501.88925076 -18239942.49910533 L39817717.54212568 -16886314.359131884 L36862800.26493759 -15633140.979389647 L34127171.79965926 -14472967.462514158 L31594558.396971297 -13398892.150177062 L29249894.00672772 -12404525.566393176 L27079230.652801666 -11483952.407705992 L25069655.459147703 -10631696.354138313 L23209213.8334828 -9842687.491574295 L21486838.351621095 -9112232.151775206 L19892282.919408645 -8435984.990612747 L18416061.820598084 -7809923.138417862 L17049393.288071737 -7230322.268670864 L15784147.26272857 -6693734.44266978 L14612797.02926163 -6196967.598378779 L13528374.441116305 -5737066.561439593 L12524428.468271563 -5311295.465384268 L11594986.821251811 -4917121.4764699945 L10734520.423077935 -4552199.726318145 L9937910.51780793 -4214359.362724707 L9200418.220001627 -3901590.6356607843 L8517656.323965006 -3612032.9416402583 L7885563.205072473 -3343963.7553327116 L7300378.657910921 -3095788.3825778826 L6758621.527511012 -2866030.4738441175 L6257069.0005981345 -2653323.241697226 L5792737.433670604 -2456401.3300341037 L5362864.6038545035 -2274093.2867125426 L4964893.276949145 -2105314.5947984518 L4596455.994912421 -1949061.2209746158 L4255360.992289346 -1804403.6427315904 L3939579.15780357 -1670481.3188097111 L3647231.963548506 -1546497.5699978007 L3376580.2899711826 -1431714.8398354359 L3126014.080170761 -1325450.3070255877 L2894042.7619668446 -1227071.8234566045 L2679286.3807604304 -1135994.1536696583 L2480467.3904385054 -1051675.493400936 L2296403.0534877274 -973614.2464879534 L2125998.4051070414 -901346.0409664714 L1968239.739464015 -834440.9666073221 L1822188.5793457448 -772501.0174597218 L1686976.0933309374 -715157.7241872465 L1561797.9272720166 -662069.9621117037 L1445909.419340609 -612921.9219253199 L1338621.1701716199 -567421.230999394 L1239294.9417535397 -525297.2141134447 L1147339.8606681959 -486299.28325823246 L1062208.9030937373 -450195.44693389774 L983395.6406607835 -416770.9300753047 L910431.2278034403 -385826.896394784 L842881.6126834699 -357179.26554171566 L780344.9550959438 -330657.6180424693 L722449.2359959601 -306104.181506378 L668850.0444259397 -283372.8920668774 L619228.5286783458 -262328.52547449706 L573289.4995056681 -242845.89267273276 L530759.6740940221 -224809.09507143532 L491386.05035407445 -208110.83508746524 L454934.40185826825 -192651.777851157 L421187.884470993 -178339.96028149565 L389945.74638280604 -165090.24401470396 L361022.13387493434 -152823.80893181582 L334244.9857097706 -141467.68427232132 L309455.009570299 -130954.31454456865 L286504.73445946956 -121221.15765059926 L265257.6334224316 -112210.31283474015 L245587.31137285204 -103868.17624268447 L227376.75319185352 -96145.12204204615 L210517.6276266479 -88995.20720743365 L194909.6428478886 -82375.89821386289 L180459.94983207167 -76247.81801266073 L167082.59001981333 -70574.51178466198 L154697.98396423148 -65322.23007721283 L143232.45792748933 -60459.728034899825 L132617.80560931383 -55958.0795296662 L122790.88240029161 -51790.50508460981 L113693.22974623072 -47932.212567812756 L105270.72738900174 -44360.249708520365 L97473.27141510001 -41053.36755831406 L90254.47619670356 -37991.894085035696 L83571.39845212628 -35157.61714749547 L77384.28178415302 -32533.676154802022 L71656.3201765641 -30104.461765816446 L66353.43904192992 -27855.523032059435 L61444.09251817469 -25773.481431683937 L56899.07580805958 -23845.951283115523 L52691.35144522793 -22061.466064916018 L48795.88845330433 -20409.410203562238 L45189.51344123121 -18879.955923356258 L41850.77274903851 -17464.004782800057 L38759.80482397611 -16153.133549644586 L35898.22206779909 -14939.544092634349 L33249.00145233587 -13816.016991862378 L30796.38325263286 -12775.8685917725 L28525.777295256346 -11812.911241324713 L26423.676164041255 -10921.416484800202 L24477.574846962678 -10096.080984274382 L22675.896346125483 -9331.99497103762 L21007.922808338306 -8624.613038286408 L19463.731766581164 -7969.7271013364 L18034.13711307888 -7363.441364502608 L16710.634452839553 -6802.149145729141 L15485.350512577103 -6282.511421102771 L14350.996304060041 -5801.436961615284 L13300.823763264583 -5356.063944012135 L12328.585607386056 -4943.742926333597 L11428.498170905388 -4562.021086873048 L10595.206999629343 -4208.627632792924 L9823.754998029932 -3881.460291596855 L9109.55294039709 -3578.5728050981998 L8448.352170381117 -3298.1633514889663 L7836.219326519452 -3038.5638266341016 L7269.512943394719 -2798.229920827621 L6744.861789228222 -2575.7319319788517 L6259.144811043846 -2369.746260578362 L5809.472568099362 -2179.047535848535 L5393.170043136204 -2002.5013262387406 L5007.760729195061 -1839.0573909012264 L4650.95189733263 -1687.743432001974 L4320.620957599862 -1547.6593107001538 L4014.802832145752 -1417.9716923881433 L3731.6782653315363 -1297.9090893376024 L3469.5630013143636 -1186.7572712612366 L3226.897764719824 -1083.8550164885057 L3002.2389848002676 -988.590178479833 L2794.2502078986167 -900.3960442797163 L2601.6941471319706 -818.7479632458462 L2423.42532200009 -743.1602259991784 L2258.3832441331156 -673.1831750283961 L2105.5861086418 -608.4005297602899 L1964.1249535412496 -548.4269101833808 L1833.1582525036815 -492.90554429329427 L1711.9069087734758 -441.50614572189295 L1599.6496204642206 -393.9229489245704 L1495.7185896667988 -349.872890237408 L1399.4955498427569 -309.0939239836313 L1310.4080878706775 -271.3434636122002 L1227.926238866053 -236.396938595142 L1151.5593335179205 -204.04645849889295 L1080.8530791875987 -174.09957628244086 L1015.3868574055473 -146.37814346536203 L954.7712216896515 -120.71725035536139 L898.6455807999067 -96.9642450309197 L846.6760536476237 -74.97782524316 L798.5534830983942 -54.62719783482376 L753.9915968533044 -35.791300675895314 L712.7253044678141 -18.35808248731294 L674.5091203775809 -2.2238362685696416 L639.1157035501058 12.707417636108062 L606.3345050748455 26.524502503037183 L575.9705156465714 39.309613622369255 L547.843105490967 51.13880726271654 L521.7849498314075 62.082453115869725 L497.64103350471794 72.20565291311867 L475.26772880454837 81.56862770344839 L454.531941066634 90.22707609745483 L435.31031691317787 98.23250560810932 L417.4885104463512 105.63253905945588 L400.96050302563214 112.47119788601009 L385.6279725824612 118.78916400815615 L371.3997087203854 124.6240218413898 L358.19107012122777 130.01048187907605 L345.92348102949245 134.98058717877393 L334.5239638196841 139.56390398047745 L323.9247048658697 143.78769759072568 L314.0626511309221 147.67709457888404 L304.8791350756286 151.2552322504721 L296.3195256563176 154.54339628672818 L288.33290333485326 157.56114736920193 L280.87175716769246 160.3264375426422 L273.8917021720417 162.85571700840103 L267.3512152877787 165.1640319836484 L261.21138836442435 167.26511420854365 L255.43569670372952 169.1714626338257 L249.98978178098002 170.8944177747665 L244.8412468524685 172.44422917380516 L239.95946423323957 173.83011637318594 L235.3153930986395 175.0603237603154 L230.88140672580533 176.14216961210252 L226.63112814738435 177.08208963003892 L222.53927323981904 177.8856752250001 L218.58150031275832 178.55770677951804 L214.73426530482976 179.10218208539513 L210.9746817243599 179.5223401258307 L207.28038450185517 179.82068034353466 L203.62939694432754 179.9989775094514 L200 180.05829228054492 L196.3706030556725 179.9989775094514 L192.71961549814486 179.82068034353466 L189.02531827564013 179.52234012583068 L185.26573469517024 179.10218208539513 L181.41849968724168 178.557706779518 L177.46072676018096 177.88567522500009 L173.36887185261568 177.0820896300389 L169.11859327419467 176.14216961210252 L164.6846069013605 175.06032376031538 L160.04053576676046 173.83011637318592 L155.15875314753154 172.4442291738051 L150.01021821901998 170.89441777476648 L144.5643032962705 169.17146263382566 L138.78861163557565 167.2651142085436 L132.6487847122213 165.16403198364836 L126.10829782795834 162.85571700840097 L119.12824283230756 160.3264375426421 L111.66709666514677 157.56114736920188 L103.68047434368248 154.5433962867281 L95.12086492437143 151.25523225047203 L85.93734886907792 147.67709457888395 L76.07529513413031 143.7876975907256 L65.4760361803159 139.56390398047733 L54.07651897050761 134.98058717877382 L41.80892987877232 130.01048187907594 L28.600291279614652 124.62402184138966 L14.372027417538845 118.78916400815602 L-0.9605030256320788 112.47119788600993 L-17.488510446351114 105.63253905945572 L-35.310316913177786 98.23250560810914 L-54.53194106663392 90.22707609745466 L-75.26772880454831 81.56862770344817 L-97.64103350471783 72.20565291311844 L-121.78494983140746 62.08245311586947 L-147.84310549096682 51.138807262716284 L-175.9705156465712 39.309613622369 L-206.33450507484537 26.52450250303687 L-239.1157035501056 12.707417636107692 L-274.5091203775807 -2.223836268570011 L-312.7253044678139 -18.358082487313283 L-353.99159685330415 -35.79130067589574 L-398.55348309839405 -54.62719783482419 L-446.6760536476236 -74.97782524316051 L-498.6455807999065 -96.96424503092021 L-554.7712216896513 -120.71725035536195 L-615.386857405547 -146.37814346536265 L-680.8530791875985 -174.0995762824416 L-751.5593335179201 -204.04645849889368 L-827.9262388660527 -236.39693859514273 L-910.408087870677 -271.3434636122011 L-999.4955498427564 -309.09392398363224 L-1095.7185896667984 -349.872890237409 L-1199.6496204642203 -393.9229489245714 L-1311.9069087734756 -441.506145721894 L-1433.1582525036808 -492.9055442932955 L-1564.124953541249 -548.4269101833821 L-1705.5861086417995 -608.4005297602914 L-1858.383244133115 -673.1831750283976 L-2023.4253220000896 -743.16022599918 L-2201.6941471319697 -818.7479632458479 L-2394.250207898616 -900.3960442797184 L-2602.238984800267 -988.5901784798352 L-2826.897764719823 -1083.855016488508 L-3069.5630013143623 -1186.757271261239 L-3331.6782653315345 -1297.909089337605 L-3614.8028321457505 -1417.971692388146 L-3920.620957599861 -1547.6593107001565 L-4250.951897332629 -1687.7434320019777 L-4607.76072919506 -1839.0573909012298 L-4993.170043136202 -2002.5013262387447 L-5409.4725680993615 -2179.0475358485396 L-5859.144811043844 -2369.7462605783667 L-6344.861789228219 -2575.7319319788567 L-6869.512943394716 -2798.2299208276268 L-7436.219326519449 -3038.5638266341075 L-8048.352170381113 -3298.1633514889722 L-8709.552940397089 -3578.572805098207 L-9423.754998029928 -3881.460291596862 L-10195.20699962934 -4208.627632792933 L-11028.498170905385 -4562.021086873057 L-11928.585607386052 -4943.742926333605 L-12900.823763264578 -5356.063944012145 L-13950.996304060036 -5801.436961615295 L-15085.350512577095 -6282.511421102782 L-16310.63445283955 -6802.149145729152 L-17634.137113078872 -7363.4413645026225 L-19063.731766581157 -7969.727101336413 L-20607.922808338302 -8624.613038286427 L-22275.896346125475 -9331.994971037639 L-24077.57484696267 -10096.0809842744 L-26023.676164041244 -10921.416484800222 L-28125.777295256335 -11812.911241324737 L-30396.383252632848 -12775.868591772523 L-32849.001452335855 -13816.0169918624 L-35498.222067799084 -14939.544092634378 L-38359.8048239761 -16153.133549644614 L-41450.7727490385 -17464.004782800093 L-44789.513441231196 -18879.95592335629 L-48395.888453304324 -20409.41020356227 L-52291.3514452279 -22061.466064916058 L-56499.07580805955 -23845.951283115566 L-61044.09251817467 -25773.481431683984 L-65953.4390419299 -27855.523032059482 L-71256.32017656408 -30104.4617658165 L-76984.28178415299 -32533.67615480208 L-83171.39845212625 -35157.61714749553 L-89854.47619670354 -37991.89408503576 L-97073.27141509998 -41053.36755831413 L-104870.7273890017 -44360.249708520445 L-113293.22974623067 -47932.21256781284 L-122390.88240029155 -51790.505084609904 L-132217.80560931377 -55958.0795296663 L-142832.4579274893 -60459.72803489994 L-154297.98396423145 -65322.230077212946 L-166682.59001981327 -70574.51178466211 L-180059.9498320716 -76247.81801266088 L-194509.64284788855 -82375.89821386305 L-210117.62762664782 -88995.2072074338 L-226976.75319185344 -96145.12204204634 L-245187.31137285195 -103868.17624268465 L-264857.6334224315 -112210.31283474034 L-286104.7344594695 -121221.15765059949 L-309055.0095702989 -130954.31454456889 L-333844.98570977047 -141467.68427232158 L-360622.1338749342 -152823.8089318161 L-389545.7463828059 -165090.24401470428 L-420787.88447099284 -178339.96028149597 L-454534.4018582681 -192651.77785115739 L-490986.0503540743 -208110.83508746562 L-530359.674094022 -224809.09507143567 L-572889.499505668 -242845.89267273323 L-618828.5286783456 -262328.5254744975 L-668450.0444259394 -283372.892066878 L-722049.2359959598 -306104.1815063785 L-779944.9550959435 -330657.61804246996 L-842481.6126834694 -357179.2655417163 L-910031.22780344 -385826.89639478474 L-982995.640660783 -416770.93007530546 L-1061808.903093737 -450195.4469338985 L-1146939.8606681954 -486299.2832582334 L-1238894.9417535395 -525297.2141134456 L-1338221.1701716196 -567421.2309993951 L-1445509.4193406086 -612921.9219253211 L-1561397.9272720164 -662069.962111705 L-1686576.0933309367 -715157.7241872478 L-1821788.579345744 -772501.0174597233 L-1967839.739464014 -834440.9666073236 L-2125598.405107041 -901346.0409664729 L-2296003.0534877265 -973614.2464879552 L-2480067.390438505 -1051675.4934009379 L-2678886.3807604294 -1135994.1536696604 L-2893642.7619668436 -1227071.8234566068 L-3125614.08017076 -1325450.3070255902 L-3376180.289971181 -1431714.8398354384 L-3646831.9635485047 -1546497.5699978038 L-3939179.1578035685 -1670481.3188097142 L-4254960.992289344 -1804403.6427315932 L-4596055.99491242 -1949061.2209746195 L-4964493.276949143 -2105314.5947984555 L-5362464.603854502 -2274093.2867125473 L-5792337.433670602 -2456401.330034108 L-6256669.000598133 -2653323.2416972313 L-6758221.527511009 -2866030.4738441226 L-7299978.657910918 -3095788.382577888 L-7885163.20507247 -3343963.755332717 L-8517256.323965002 -3612032.941640264 L-9200018.220001625 -3901590.635660792 L-9937510.517807929 -4214359.362724715 L-10734120.423077933 -4552199.7263181545 L-11594586.821251808 -4917121.476470004 L-12524028.46827156 -5311295.465384278 L-13527974.4411163 -5737066.561439604 L-14612397.029261624 -6196967.5983787915 L-15783747.262728564 -6693734.442669792 L-17048993.288071733 -7230322.2686708765 L-18415661.820598077 -7809923.138417877 L-19891882.919408638 -8435984.990612762 L-21486438.35162109 -9112232.151775222 L-23208813.83348279 -9842687.491574312 L-25069255.4591477 -10631696.354138333 L-27078830.652801655 -11483952.407706013 L-29249494.00672771 -12404525.5663932 L-31594158.396971285 -13398892.150177084 L-34126771.799659245 -14472967.46251418 L-36862400.26493757 -15633140.979389677 L-39817317.54212567 -16886314.359131914 L-43009101.889250755 -18239942.499105368 L-46456740.64286301 -19702077.883520197 L-50180743.17020047 -21281418.486176375 L-54203262.87563232 -22987359.513105724 L-58548228.98717664 -24830049.292920187 L-63241488.907066345 -26820449.64734785 L-68310961.97317831 -28970401.101088844 L-73786805.54602641 -31292693.31891349 L-79701594.4093392 -33801141.189020075 L-86090514.5514408 -36510667.00525693 L-92991572.48020893 -39437389.23709764 L-100445821.31678121 -42598718.415443435 L-108497605.01300283 -46013460.704661086 L-117194822.14542066 -49701929.77698753 L-126589210.85508208 -53686067.654819995 L-136736656.6281975 -57989575.239761926 L-147697524.7485909 -62638053.30491541 L-159537019.3996444 -67659154.78916074 L-172325571.55196276 -73082749.29939106 L-186139257.9442287 -78941100.79929523 L-201060253.64969355 -85269059.54172878 L-217177320.92053995 -92104269.38644369 L-234586337.2181476 -99487391.73646672 L-253390865.5704354 -107462347.42528969 L-273702770.64922136 -116076577.99381064 L-295642884.23252004 -125381327.91130933 L-319341724.010519 -135431949.41934964 L-344940270.0112466 -146288231.81205666 L-372590803.2647654 -158014757.11160305 L-402457811.69494 -170681284.25475097 L-434718968.627767 -184363164.0759038 L-469566189.73723024 -199141787.55532643 L-507206774.7162594 -215105069.9990797 L-547864640.4643711 -232347974.0309621 L-591781653.1280361 -250973074.50765663 L-639219066.9177607 -271091168.71762884 L-690459078.2612342 -292821935.49377495 L-745806504.5378326 -316294647.16072696 L-805590597.3810066 -341648938.5520766 L-870167001.3355373 -369035637.67225266 L-939919869.5213579 -398617662.9445089 L-1015264148.889628 -430570992.3825833 L-1096648048.6656363 -465085710.4514534 L-1184555706.6628358 -502367138.8447688 L-1279510069.329428 -542637057.9057475 L-1382076002.660354 -586135025.9575442 L-1492863652.4809465 -633119804.3915426 L-1612532074.0919402 -683870896.9911593 L-1741793152.867931 -738690212.6483152 L-1881415839.1322134 -797903861.3637662 L-2032230722.5004427 -861864094.2153561 L-2195134972.905143 -930951398.8347443 L-2371097677.694183 -1005576762.858157 L-2561165606.5527263 -1086184118.8160563 L-2766469438.5430746 -1173252985.0059078 L-2988230488.3059235 -1267301318.0581138 L-3227767971.435965 -1368888594.1645036 L-3486506852.2522078 -1478619137.2990344 L-3765986320.647966 -1597145714.2296839 L-4067868948.447725 -1725173417.707589 L-4393950579.740361 -1863463860.9338102 L-4746171014.024494 -2012839708.2558339 L-5126625545.718029 -2174189569.0460806 L-5537577428.678313 -2348473283.875226 L-5981471339.881941 -2536727634.426731 L-6460947922.357427 -2740072511.1199636 L-6978859493.883598 -2959717575.1317644 L-7538287014.902159 -3196969454.4477587 L-8142558416.583236 -3453239516.751306 L-8795268398.074295 -3730052265.389613 L-9500299810.702541 -4029054408.363042 L-10261846756.341503 -4352024654.287366 L-11084439537.349735 -4700884293.603356 L-11972971606.504213 -5077708627.979346 L-12932728677.248594 -5484739315.8981905 L-13969420167.427876 -5924397707.870246 L-15089213163.562449 -6399299250.601109 L-16298769107.708448 -6912269045.801709 L-17605283425.148575 -7466358656.197619 L-19016528328.650105 -8064864258.712927 L-20540899053.92563 -8711346252.819012 L-22187463801.342262 -9409650440.6945 L-23966017680.973595 -10163930905.19329 L-25887140981.903385 -10978674721.717503 L-27962262112.414425 -11858728651.001654 L-30203725585.482155 -12809327971.598597 L-32624865454.00613 -13836127623.586285 L-35240084632.6321 -14945235848.763605 L-38064940578.035484 -16143250527.454536 L-41116237837.36248 -17437298428.081604 L-44412128015.382645 -18835077602.997223 L-47972217755.03809 -20344903182.777416 L-51817685373.74798 -21975756841.40079 L-55971406849.31322 -23737340226.570656 L-60458091904.890465 -25640132673.028385 L-65304431002.57899 -27695453542.183544 L-70539254120.05821 -29915529558.907707 L-76193702254.80904 -32313567546.066277 L-82301412676.1658 -34903832989.47249 L-88898719027.22917 -37701734900.632126 L-96024867467.0094 -40723917482.11172 L-103722250138.58975 -43988359140.83059 L-112036657352.16945 -47514479438.28876 L-121017549983.17422 -51323254613.95688 L-130718353705.88644 -55437342369.05806 L-141196776812.92883 -59881216653.053955 L-152515153511.25745 -64681313254.65775 L-164740814736.8617 -69866187063.46535 L-177946488694.09592 -75466681937.73193 L-192210733502.3454 -81516114188.79262 L-207618404523.80197 -88050470773.6591 L-224261159152.3637 -95108623374.7898 L-242238002066.57227 -102732559640.56192 L-261655874190.18454 -110967632962.04736 L-282630288864.02295 -119862832271.97913 L-305286019013.52234 -129471073470.87154 L-329757839399.8706 -139849514213.96103 L-356191328370.20874 -151059893931.5568 L-384743733876.3643 -163168901105.5228 L-415584908913.9426 -176248569986.7687 L-448898321946.46063 -190376709113.71848 L-484882148325.41425 -205637364180.9617 L-523750449198.9021 -222121318011.59305 L-565734444921.9268 -239926630607.4885 L-611083890543.6421 -259159222490.17038 L-660068561554.1084 -279933504802.4689 L-712979858728.9194 -302373059919.30505 L-770132541618.6953 -326611376616.45685 L-831866600995.6082 -352792644170.67126 L-898549281395.7994 -381072610115.0859 L-970577265789.3955 -411619506752.5805 L-1048379035374.3729 -444615051938.73425 L-1132417418532.1848 -480255530087.8367 L-1223192344108.469 -518752959832.6784 L-1321243815397.5425 -560336355284.2925 L-1427155122522.497 -605253088394.7025 L-1541556312320.4963 -653770360527.0126 L-1665127936375.3066 -706176791987.0778 L-1798605099493.154 -762784138972.4725 L-1942781832705.6829 -823929148152.6313 L-2098515816814.1106 -889975559912.6737 L-2266733484574.2725 -961316272177.9326 L-2448435531874.119 -1038375677691.2021 L-2644702870689.1455 -1121612188646.96 L-2856703059228.3994 -1211520963700.9758 L-3085697247522.901 -1308636853577.814 L-3333047679774.7925 -1413537582799.246 L-3600225798096.7764 -1526847186460.8413 L-3888820995849.9844 -1649239722501.7134 L-4200550072652.0054 -1781443281550.9036 L-4537267447301.267 -1924244318204.2915 L-4900976189372.455 -2078492329497.9346 L-5293839935108.225 -2245104908409.368 L-5718195758492.103 -2425073202448.966 L-6176568074070.758 -2619467809813.754 L-6671683654230.649 -2829445148178.676 L-7206487850264.197 -3056254334012.115 L-7784162113721.427 -3301244613339.4053 L-8408142922278.756 -3565873388158.7065 " stroke = "blue" stroke-width = "4" fill = "none" />	<path d = "M117195222 -49701930 L108498005.01300283 46013860.704661086 L100446221.31678121 42599118.415443435 L92991972.48020893 39437789.23709764 L86090914.5514408 36511067.00525693 L79701994.4093392 33801541.189020075 L73787205.54602641 31293093.31891349 L68311361.97317831 28970801.101088844 L63241888.907066345 26820849.64734785 L58548628.98717664 24830449.292920187 L54203662.87563232 22987759.513105724 L50181143.17020047 21281818.486176375 L46457140.64286301 19702477.883520197 L43009501.889250755 18240342.499105368 L39817717.54212567 16886714.359131914 L36862800.26493757 15633540.979389677 L34127171.799659245 14473367.46251418 L31594558.396971285 13399292.150177084 L29249894.00672771 12404925.5663932 L27079230.652801655 11484352.407706013 L25069655.4591477 10632096.354138333 L23209213.83348279 9843087.491574312 L21486838.35162109 9112632.151775222 L19892282.919408638 8436384.990612762 L18416061.820598077 7810323.138417877 L17049393.288071733 7230722.2686708765 L15784147.262728564 6694134.442669792 L14612797.029261624 6197367.5983787915 L13528374.4411163 5737466.561439604 L12524428.46827156 5311695.465384278 L11594986.821251808 4917521.476470004 L10734520.423077933 4552599.7263181545 L9937910.517807929 4214759.362724715 L9200418.220001625 3901990.635660792 L8517656.323965002 3612432.941640264 L7885563.20507247 3344363.755332717 L7300378.657910918 3096188.382577888 L6758621.527511009 2866430.4738441226 L6257069.000598133 2653723.2416972313 L5792737.433670602 2456801.330034108 L5362864.603854502 2274493.2867125473 L4964893.276949143 2105714.5947984555 L4596455.99491242 1949461.2209746195 L4255360.992289344 1804803.6427315932 L3939579.1578035685 1670881.3188097142 L3647231.9635485047 1546897.5699978038 L3376580.289971181 1432114.8398354384 L3126014.08017076 1325850.3070255902 L2894042.7619668436 1227471.8234566068 L2679286.3807604294 1136394.1536696604 L2480467.390438505 1052075.4934009379 L2296403.0534877265 974014.2464879552 L2125998.405107041 901746.0409664729 L1968239.739464014 834840.9666073236 L1822188.579345744 772901.0174597233 L1686976.0933309367 715557.7241872478 L1561797.9272720164 662469.962111705 L1445909.4193406086 613321.9219253211 L1338621.1701716196 567821.2309993951 L1239294.9417535395 525697.2141134456 L1147339.8606681954 486699.2832582334 L1062208.903093737 450595.4469338985 L983395.640660783 417170.93007530546 L910431.22780344 386226.89639478474 L842881.6126834694 357579.2655417163 L780344.9550959435 331057.61804246996 L722449.2359959598 306504.1815063785 L668850.0444259394 283772.892066878 L619228.5286783456 262728.5254744975 L573289.499505668 243245.89267273323 L530759.674094022 225209.09507143567 L491386.0503540743 208510.83508746562 L454934.4018582681 193051.77785115739 L421187.88447099284 178739.96028149597 L389945.7463828059 165490.24401470428 L361022.1338749342 153223.8089318161 L334244.98570977047 141867.68427232158 L309455.0095702989 131354.3145445689 L286504.7344594695 121621.15765059949 L265257.6334224315 112610.31283474034 L245587.31137285195 104268.17624268465 L227376.75319185344 96545.12204204634 L210517.62762664782 89395.2072074338 L194909.64284788855 82775.89821386305 L180459.9498320716 76647.81801266088 L167082.59001981327 70974.51178466211 L154697.98396423145 65722.23007721294 L143232.4579274893 60859.72803489994 L132617.80560931377 56358.0795296663 L122790.88240029155 52190.505084609904 L113693.22974623067 48332.21256781284 L105270.7273890017 44760.249708520445 L97473.27141509998 41453.36755831413 L90254.47619670354 38391.89408503576 L83571.39845212625 35557.61714749553 L77384.28178415299 32933.67615480208 L71656.32017656408 30504.4617658165 L66353.4390419299 28255.523032059482 L61444.09251817467 26173.481431683984 L56899.07580805955 24245.951283115566 L52691.3514452279 22461.466064916058 L48795.888453304324 20809.41020356227 L45189.513441231196 19279.95592335629 L41850.7727490385 17864.004782800093 L38759.8048239761 16553.13354964461 L35898.222067799084 15339.544092634378 L33249.001452335855 14216.0169918624 L30796.383252632848 13175.868591772523 L28525.777295256335 12212.911241324737 L26423.676164041244 11321.416484800222 L24477.57484696267 10496.0809842744 L22675.896346125475 9731.994971037639 L21007.922808338302 9024.613038286427 L19463.731766581157 8369.727101336413 L18034.137113078872 7763.4413645026225 L16710.63445283955 7202.149145729152 L15485.350512577095 6682.511421102782 L14350.996304060036 6201.436961615295 L13300.823763264578 5756.063944012145 L12328.585607386052 5343.742926333605 L11428.498170905385 4962.021086873057 L10595.20699962934 4608.627632792933 L9823.754998029928 4281.460291596863 L9109.552940397089 3978.572805098207 L8448.352170381113 3698.1633514889722 L7836.219326519449 3438.5638266341075 L7269.512943394716 3198.2299208276268 L6744.861789228219 2975.7319319788567 L6259.144811043844 2769.7462605783667 L5809.4725680993615 2579.0475358485396 L5393.170043136202 2402.5013262387447 L5007.76072919506 2239.05739090123 L4650.951897332629 2087.7434320019775 L4320.620957599861 1947.6593107001565 L4014.8028321457505 1817.971692388146 L3731.6782653315345 1697.909089337605 L3469.5630013143623 1586.757271261239 L3226.897764719823 1483.855016488508 L3002.238984800267 1388.5901784798352 L2794.250207898616 1300.3960442797184 L2601.6941471319697 1218.747963245848 L2423.4253220000896 1143.16022599918 L2258.383244133115 1073.1831750283977 L2105.5861086417995 1008.4005297602914 L1964.124953541249 948.4269101833821 L1833.1582525036808 892.9055442932955 L1711.9069087734756 841.506145721894 L1599.6496204642203 793.9229489245714 L1495.7185896667984 749.872890237409 L1399.4955498427564 709.0939239836323 L1310.408087870677 671.343463612201 L1227.9262388660527 636.3969385951427 L1151.55933351792 604.0464584988937 L1080.8530791875985 574.0995762824416 L1015.386857405547 546.3781434653627 L954.7712216896513 520.717250355362 L898.6455807999065 496.9642450309202 L846.6760536476236 474.9778252431605 L798.553483098394 454.6271978348242 L753.9915968533041 435.79130067589574 L712.7253044678139 418.35808248731325 L674.5091203775808 402.22383626857004 L639.1157035501055 387.2925823638923 L606.3345050748453 373.47549749696316 L575.9705156465711 360.690386377631 L547.8431054909668 348.8611927372837 L521.7849498314074 337.9175468841305 L497.6410335047178 327.79434708688154 L475.2677288045483 318.43137229655184 L454.5319410666339 309.77292390254536 L435.31031691317776 301.76749439189086 L417.48851044635114 294.3674609405443 L400.9605030256321 287.5288021139901 L385.62797258246115 281.21083599184396 L371.3997087203853 275.37597815861034 L358.19107012122765 269.98951812092406 L345.9234810294924 265.0194128212262 L334.5239638196841 260.43609601952267 L323.92470486586967 256.2123024092744 L314.06265113092206 252.32290542111605 L304.8791350756286 248.74476774952797 L296.3195256563175 245.4566037132719 L288.3329033348532 242.43885263079812 L280.8717571676924 239.6735624573579 L273.8917021720417 237.14428299159903 L267.3512152877787 234.83596801635164 L261.21138836442435 232.7348857914564 L255.4356967037295 230.82853736617434 L249.98978178098002 229.10558222523352 L244.84124685246846 227.5557708261949 L239.95946423323954 226.16988362681408 L235.3153930986395 224.93967623968462 L230.88140672580533 223.85783038789748 L226.63112814738432 222.9179103699611 L222.53927323981904 222.11432477499991 L218.58150031275832 221.442293220482 L214.73426530482976 220.89781791460487 L210.97468172435987 220.47765987416932 L207.28038450185514 220.17931965646534 L203.6293969443275 220.0010224905486 L200 219.94170771945508 L196.37060305567246 220.0010224905486 L192.71961549814483 220.17931965646534 L189.0253182756401 220.4776598741693 L185.26573469517024 220.89781791460487 L181.41849968724168 221.44229322048196 L177.46072676018096 222.1143247749999 L173.36887185261565 222.91791036996108 L169.11859327419467 223.85783038789748 L164.6846069013605 224.9396762396846 L160.04053576676043 226.16988362681406 L155.1587531475315 227.55577082619484 L150.01021821901998 229.1055822252335 L144.56430329627048 230.8285373661743 L138.78861163557565 232.73488579145635 L132.6487847122213 234.8359680163516 L126.10829782795831 237.14428299159897 L119.12824283230754 239.6735624573578 L111.66709666514674 242.43885263079807 L103.68047434368243 245.45660371327182 L95.12086492437139 248.7447677495279 L85.93734886907788 252.32290542111596 L76.07529513413027 256.2123024092743 L65.47603618031587 260.43609601952255 L54.07651897050755 265.01941282122607 L41.80892987877226 269.98951812092395 L28.600291279614623 275.3759781586102 L14.372027417538817 281.21083599184385 L-0.9605030256321356 287.5288021139899 L-17.4885104463512 294.3674609405441 L-35.31031691317787 301.7674943918907 L-54.531941066634005 309.7729239025452 L-75.26772880454837 318.4313722965516 L-97.64103350471794 327.7943470868813 L-121.78494983140752 337.9175468841303 L-147.84310549096693 348.86119273728343 L-175.9705156465713 360.6903863776307 L-206.33450507484554 373.4754974969628 L-239.11570355010576 387.29258236389194 L-274.50912037758087 402.22383626856964 L-312.7253044678141 418.3580824873129 L-353.9915968533044 435.7913006758953 L-398.55348309839417 454.62719783482373 L-446.6760536476237 474.97782524316 L-498.6455807999067 496.9642450309197 L-554.7712216896515 520.7172503553613 L-615.3868574055473 546.378143465362 L-680.8530791875988 574.0995762824409 L-751.5593335179204 604.0464584988929 L-827.9262388660529 636.396938595142 L-910.4080878706775 671.3434636122001 L-999.4955498427569 709.0939239836314 L-1095.7185896667988 749.872890237408 L-1199.6496204642206 793.9229489245704 L-1311.9069087734758 841.506145721893 L-1433.1582525036815 892.9055442932943 L-1564.1249535412496 948.4269101833808 L-1705.5861086418001 1008.4005297602899 L-1858.3832441331156 1073.1831750283961 L-2023.42532200009 1143.1602259991782 L-2201.6941471319706 1218.7479632458462 L-2394.2502078986167 1300.3960442797163 L-2602.2389848002676 1388.590178479833 L-2826.897764719824 1483.8550164885057 L-3069.5630013143636 1586.7572712612366 L-3331.6782653315363 1697.9090893376024 L-3614.802832145752 1817.9716923881433 L-3920.620957599862 1947.6593107001538 L-4250.95189733263 2087.743432001974 L-4607.760729195061 2239.0573909012264 L-4993.170043136204 2402.5013262387406 L-5409.472568099362 2579.047535848535 L-5859.144811043846 2769.746260578362 L-6344.861789228222 2975.7319319788517 L-6869.512943394719 3198.229920827621 L-7436.219326519452 3438.5638266341016 L-8048.352170381117 3698.1633514889663 L-8709.55294039709 3978.5728050981998 L-9423.754998029932 4281.460291596855 L-10195.206999629343 4608.627632792924 L-11028.498170905388 4962.021086873048 L-11928.585607386056 5343.742926333597 L-12900.823763264583 5756.063944012135 L-13950.996304060041 6201.436961615284 L-15085.350512577103 6682.511421102771 L-16310.634452839553 7202.149145729141 L-17634.13711307888 7763.441364502608 L-19063.731766581164 8369.7271013364 L-20607.922808338306 9024.613038286408 L-22275.896346125483 9731.99497103762 L-24077.574846962678 10496.080984274382 L-26023.676164041255 11321.416484800202 L-28125.777295256346 12212.911241324713 L-30396.38325263286 13175.8685917725 L-32849.00145233587 14216.016991862378 L-35498.22206779909 15339.544092634349 L-38359.80482397611 16553.133549644586 L-41450.77274903851 17864.004782800057 L-44789.51344123121 19279.955923356258 L-48395.88845330433 20809.410203562238 L-52291.35144522793 22461.466064916018 L-56499.07580805958 24245.951283115523 L-61044.09251817469 26173.481431683937 L-65953.43904192992 28255.523032059435 L-71256.3201765641 30504.461765816446 L-76984.28178415302 32933.67615480202 L-83171.39845212628 35557.61714749547 L-89854.47619670356 38391.894085035696 L-97073.27141510001 41453.36755831406 L-104870.72738900174 44760.249708520365 L-113293.22974623072 48332.212567812756 L-122390.88240029161 52190.50508460981 L-132217.80560931383 56358.0795296662 L-142832.45792748933 60859.728034899825 L-154297.98396423148 65722.23007721282 L-166682.59001981333 70974.51178466198 L-180059.94983207167 76647.81801266073 L-194509.6428478886 82775.89821386289 L-210117.6276266479 89395.20720743365 L-226976.75319185352 96545.12204204615 L-245187.31137285204 104268.17624268447 L-264857.6334224316 112610.31283474015 L-286104.73445946956 121621.15765059926 L-309055.009570299 131354.31454456865 L-333844.9857097706 141867.68427232132 L-360622.13387493434 153223.80893181582 L-389545.74638280604 165490.24401470396 L-420787.884470993 178739.96028149565 L-454534.40185826825 193051.777851157 L-490986.05035407445 208510.83508746524 L-530359.6740940221 225209.09507143532 L-572889.4995056681 243245.89267273276 L-618828.5286783458 262728.52547449706 L-668450.0444259397 283772.8920668774 L-722049.2359959601 306504.181506378 L-779944.9550959438 331057.6180424693 L-842481.6126834699 357579.26554171566 L-910031.2278034403 386226.896394784 L-982995.6406607835 417170.9300753047 L-1061808.9030937373 450595.44693389774 L-1146939.8606681959 486699.28325823246 L-1238894.9417535397 525697.2141134447 L-1338221.1701716199 567821.230999394 L-1445509.419340609 613321.9219253199 L-1561397.9272720166 662469.9621117037 L-1686576.0933309374 715557.7241872465 L-1821788.5793457448 772901.0174597218 L-1967839.739464015 834840.9666073221 L-2125598.4051070414 901746.0409664714 L-2296003.0534877274 974014.2464879534 L-2480067.3904385054 1052075.493400936 L-2678886.3807604304 1136394.1536696583 L-2893642.7619668446 1227471.8234566045 L-3125614.080170761 1325850.3070255877 L-3376180.2899711826 1432114.8398354359 L-3646831.963548506 1546897.5699978007 L-3939179.15780357 1670881.3188097111 L-4254960.992289346 1804803.6427315904 L-4596055.994912421 1949461.2209746158 L-4964493.276949145 2105714.5947984518 L-5362464.6038545035 2274493.2867125426 L-5792337.433670604 2456801.3300341037 L-6256669.0005981345 2653723.241697226 L-6758221.527511012 2866430.4738441175 L-7299978.657910921 3096188.3825778826 L-7885163.205072473 3344363.7553327116 L-8517256.323965006 3612432.9416402583 L-9200018.220001627 3901990.6356607843 L-9937510.51780793 4214759.362724707 L-10734120.423077935 4552599.726318145 L-11594586.821251811 4917521.4764699945 L-12524028.468271563 5311695.465384268 L-13527974.441116305 5737466.561439593 L-14612397.02926163 6197367.598378779 L-15783747.26272857 6694134.44266978 L-17048993.288071737 7230722.268670864 L-18415661.820598084 7810323.138417862 L-19891882.919408645 8436384.990612747 L-21486438.351621095 9112632.151775206 L-23208813.8334828 9843087.491574295 L-25069255.459147703 10632096.354138313 L-27078830.652801666 11484352.407705992 L-29249494.00672772 12404925.566393176 L-31594158.396971297 13399292.150177062 L-34126771.79965926 14473367.462514158 L-36862400.26493759 15633540.979389647 L-39817317.54212568 16886714.359131884 L-43009101.88925076 18240342.49910533 L-46456740.64286302 19702477.88352016 L-50180743.17020048 21281818.486176334 L-54203262.87563235 22987759.513105683 L-58548228.987176664 24830449.29292014 L-63241488.90706637 26820849.6473478 L-68310961.97317833 28970801.101088796 L-73786805.54602642 31293093.31891343 L-79701594.40933923 33801541.189020015 L-86090514.55144083 36511067.00525686 L-92991572.48020896 39437789.23709757 L-100445821.31678124 42599118.41544335 L-108497605.01300287 46013860.704661004 L-117194822.14542072 49702329.77698744 L-126589210.85508212 53686467.6548199 L-136736656.62819755 57989975.23976183 L-147697524.74859095 62638453.304915294 L-159537019.39964446 67659554.78916062 L-172325571.55196282 73083149.29939091 L-186139257.94422874 78941500.7992951 L-201060253.6496936 85269459.54172862 L-217177320.92054003 92104669.38644353 L-234586337.2181477 99487791.73646654 L-253390865.5704355 107462747.4252895 L-273702770.6492215 116076977.99381046 L-295642884.23252016 125381727.9113091 L-319341724.0105191 135432349.4193494 L-344940270.01124674 146288631.8120564 L-372590803.2647655 158015157.11160275 L-402457811.6949401 170681684.25475064 L-434718968.6277672 184363564.07590348 L-469566189.7372304 199142187.55532604 L-507206774.7162596 215105469.99907935 L-547864640.4643713 232348374.03096172 L-591781653.1280363 250973474.50765616 L-639219066.917761 271091568.71762836 L-690459078.2612343 292822335.4937744 L-745806504.5378327 316295047.1607264 L-805590597.3810067 341649338.5520759 L-870167001.3355377 369036037.672252 L-939919869.5213583 398618062.94450814 L-1015264148.8896284 430571392.38258255 L-1096648048.6656365 465086110.4514526 L-1184555706.6628363 502367538.84476787 L-1279510069.3294282 542637457.9057466 L-1382076002.6603541 586135425.9575431 L-1492863652.480947 633120204.3915414 L-1612532074.0919406 683871296.991158 L-1741793152.8679316 738690612.6483139 L-1881415839.132214 797904261.3637646 L-2032230722.5004435 861864494.2153546 L-2195134972.9051433 930951798.8347428 L-2371097677.694184 1005577162.8581553 L-2561165606.552727 1086184518.8160543 L-2766469438.5430756 1173253385.0059054 L-2988230488.305924 1267301718.0581117 L-3227767971.4359655 1368888994.164501 L-3486506852.252209 1478619537.2990317 L-3765986320.6479673 1597146114.229681 L-4067868948.4477262 1725173817.7075858 L-4393950579.740362 1863464260.9338071 L-4746171014.024496 2012840108.2558303 L-5126625545.718031 2174189969.046077 L-5537577428.678314 2348473683.8752213 L-5981471339.881943 2536728034.426727 L-6460947922.357428 2740072911.1199584 L-6978859493.883602 2959717975.131759 L-7538287014.902162 3196969854.4477525 L-8142558416.583239 3453239916.7513003 L-8795268398.074299 3730052665.3896074 L-9500299810.702543 4029054808.3630342 L-10261846756.341507 4352025054.287358 L-11084439537.34974 4700884693.603347 L-11972971606.504217 5077709027.979337 L-12932728677.248598 5484739715.89818 L-13969420167.427881 5924398107.870235 L-15089213163.562454 6399299650.601096 L-16298769107.708454 6912269445.801697 L-17605283425.148582 7466359056.197607 L-19016528328.650112 8064864658.712912 L-20540899053.925632 8711346652.818996 L-22187463801.34227 9409650840.694483 L-23966017680.973602 10163931305.193274 L-25887140981.903393 10978675121.717482 L-27962262112.414436 11858729051.001633 L-30203725585.482166 12809328371.598572 L-32624865454.00614 13836128023.586262 L-35240084632.63212 14945236248.76358 L-38064940578.0355 16143250927.454506 L-41116237837.362495 17437298828.081573 L-44412128015.38265 18835078002.997185 L-47972217755.0381 20344903582.777378 L-51817685373.74799 21975757241.40075 L-55971406849.31324 23737340626.570614 L-60458091904.89049 25640133073.028336 L-65304431002.57901 27695453942.183495 L-70539254120.05823 29915529958.907658 L-76193702254.80905 32313567946.06622 L-82301412676.16583 34903833389.47243 L-88898719027.22919 37701735300.63206 L-96024867467.00941 40723917882.11165 L-103722250138.58977 43988359540.830505 L-112036657352.1695 47514479838.28867 L-121017549983.17427 51323255013.95678 L-130718353705.88649 55437342769.05797 L-141196776812.9289 59881217053.053856 L-152515153511.2575 64681313654.65763 L-164740814736.86176 69866187463.46523 L-177946488694.09598 75466682337.73178 L-192210733502.34546 81516114588.79248 L-207618404523.802 88050471173.65894 L-224261159152.3638 95108623774.78963 L-242238002066.57236 102732560040.56174 L-261655874190.18463 110967633362.04716 L-282630288864.023 119862832671.97888 L-305286019013.52246 129471073870.87129 L-329757839399.8707 139849514613.96082 L-356191328370.20886 151059894331.55652 L-384743733876.3644 163168901505.52252 L-415584908913.94275 176248570386.76837 L-448898321946.4608 190376709513.71814 L-484882148325.4144 205637364580.96133 L-523750449198.9023 222121318411.59268 L-565734444921.927 239926631007.488 L-611083890543.6422 259159222890.16992 L-660068561554.1085 279933505202.4684 L-712979858728.9196 302373060319.3045 L-770132541618.6954 326611377016.4563 L-831866600995.6084 352792644570.6706 L-898549281395.7998 381072610515.0852 L-970577265789.3959 411619507152.5797 L-1048379035374.3734 444615052338.73346 L-1132417418532.1853 480255530487.8357 L-1223192344108.4692 518752960232.6774 L-1321243815397.5427 560336355684.2916 L-1427155122522.4973 605253088794.7013 L-1541556312320.4968 653770360927.0115 L-1665127936375.307 706176792387.0764 L-1798605099493.1548 762784139372.4712 L-1942781832705.6836 823929148552.6298 L-2098515816814.1113 889975560312.6722 L-2266733484574.2734 961316272577.9307 L-2448435531874.12 1038375678091.2002 L-2644702870689.146 1121612189046.9583 L-2856703059228.4004 1211520964100.9734 L-3085697247522.9014 1308636853977.8115 L-3333047679774.7935 1413537583199.2434 L-3600225798096.778 1526847186860.8386 L-3888820995849.986 1649239722901.7102 L-4200550072652.007 1781443281950.9006 L-4537267447301.269 1924244318604.2876 L-4900976189372.456 2078492329897.931 L-5293839935108.227 2245104908809.3643 L-5718195758492.1045 2425073202848.9614 L-6176568074070.759 2619467810213.7495 L-6671683654230.651 2829445148578.6704 L-7206487850264.2 3056254334412.11 L-7784162113721.43 3301244613739.399 L-8408142922278.759 3565873388558.7007 " stroke = "blue" stroke-width = "4" fill = "none" /></svg>