<svg width="400" height="400" viewbox = "0 0 400 400"  xmlns="http://www.w3.org/2000/svg">

<!--
<topfunctions>







function XYofT(){
    T = plotparams.g*t;
    
    
    X = funcparams.a*Math.cosh(2*Math.PI*T/funcparams.T);
    Y = funcparams.b*Math.sinh(2*Math.PI*T/funcparams.T);
    
    Xrot = Math.cos(Math.PI*funcparams.theta/180)*X - Math.sin(funcparams.theta*Math.PI/180)*Y;
    Yrot = Math.sin(funcparams.theta*Math.PI/180)*X + Math.cos(funcparams.theta*Math.PI/180)*Y;
    X = Xrot;
    Y = Yrot;
    y = plotparams.y0 - plotparams.G*(Y - funcparams.Y0);
    x = plotparams.x0 - plotparams.G*(X - funcparams.X0);    
}

function XYofT2(){
    T = plotparams.g*t;
    X = -funcparams.a*Math.cosh(2*Math.PI*T/funcparams.T);
    Y = funcparams.b*Math.sinh(2*Math.PI*T/funcparams.T);
       Xrot = Math.cos(funcparams.theta*Math.PI/180)*X - Math.sin(funcparams.theta*Math.PI/180)*Y;
    Yrot = Math.sin(funcparams.theta*Math.PI/180)*X + Math.cos(funcparams.theta*Math.PI/180)*Y;
    X = Xrot;
    Y = Yrot;
    y = plotparams.y0 - plotparams.G*(Y - funcparams.Y0);
    x = plotparams.x0 - plotparams.G*(X - funcparams.X0);   
}

function plotfunction(){


    currentStroke = "blue";
    currentLineWidth = 4;
    ctx.strokeStyle = currentStroke;
    ctx.lineWidth = currentLineWidth;
    ctx.beginPath();	
    x = 0;
    y = 0;
    t = plotparams.tstart;
    XYofT();
    currentSVG += "	<path d = \"M";
    currentSVG += Math.round(x).toString() + " ";
    currentSVG += Math.round(y).toString() + " ";
    for(t = 1 + plotparams.tstart; t < plotparams.tstart + plotparams.duration;t++){
        ctx.moveTo(x,y);
        XYofT();
        ctx.lineTo(x,y);
        currentSVG += "L" + x + " " + y + " ";
    }
    ctx.stroke();
    currentSVG += "\""+ " stroke = \"" + currentStroke + "\" stroke-width = \"" + currentLineWidth.toString() + "\" fill = \"" + "none" + "\" "+"/>";


    currentStroke = "blue";
    currentLineWidth = 4;
    ctx.strokeStyle = currentStroke;
    ctx.lineWidth = currentLineWidth;
    ctx.beginPath();	
    x = 0;
    y = 0;
    t = plotparams.tstart;
    XYofT();
    currentSVG += "	<path d = \"M";
    currentSVG += Math.round(x).toString() + " ";
    currentSVG += Math.round(y).toString() + " ";
    for(t = 1 + plotparams.tstart; t < plotparams.tstart + plotparams.duration;t++){
        ctx.moveTo(x,y);
        XYofT2();
        ctx.lineTo(x,y);
        currentSVG += "L" + x + " " + y + " ";
    }
    ctx.stroke();
    currentSVG += "\""+ " stroke = \"" + currentStroke + "\" stroke-width = \"" + currentLineWidth.toString() + "\" fill = \"" + "none" + "\" "+"/>";

    /*plot one function:
    currentStroke = "blue";
    currentLineWidth = 4;
    ctx.strokeStyle = currentStroke;
    ctx.lineWidth = currentLineWidth;
    ctx.beginPath();	
    x = 0;
    YofX();
    currentSVG += "	<path d = \"M";
    currentSVG += Math.round(x).toString() + " ";
    currentSVG += Math.round(y).toString() + " ";
    for(x = 1;x < plotparams.plotwidth;x++){
        ctx.moveTo(x-1,y);
        YofX();
        ctx.lineTo(x,y);
        currentSVG += "L" + x + " " + y + " ";
    }
    ctx.stroke();
    currentSVG += "\""+ " stroke = \"" + currentStroke + "\" stroke-width = \"" + currentLineWidth.toString() + "\" fill = \"" + "none" + "\" "+"/>";
    /*finish plot one function*/
    

}
























</topfunctions>
-->

<!--
<imgurl>

</imgurl>
-->

<!--
<currentjson>
{
    "constants": {},
    "imgurl": "",
    "plotparams": {
        "G": 100.79476910000022,
        "g": 0.017985878990921366,
        "tstart": -200,
        "duration": 545.4545454545454,
        "plotwidth": 400,
        "plotheight": 400,
        "x0": 200,
        "y0": 200
    },
    "funcparams": {
        "theta": 90.00000000000001,
        "a": 0.564473930053777,
        "b": -0.466507380209733,
        "T": 1.4655609018152753,
        "X0": 0,
        "Y0": 0
    }
}
</currentjson>
-->

<!--
<equation>


<h2>Hyperbola</h2>
<p style="color:blue">

</p><p class="bigeq">
$$
(X,Y) = (\pm a\cosh{\frac{2\pi t}{T}},b\sinh{\frac{2\pi t}{T}})
$$
</p>
<p></p>

$$
X = g(x - x_0) - X_0
$$
$$
Y = f(X)
$$
    
$$
y = y_0 - G(Y - Y_0)
$$


<p>
    X and Y, and $X_0$ and $Y_0$ in physical units of the System. x and y and x0 and y0 in pixels.  G is in pixels per Y unit and g is in X units per pixel. 
</p>



</equation>
-->
	<path d = "M117195222 -141805777 L108498005.01300289 -131282144.06574574 L100446221.31678127 -121539485.79331854 L92991972.480209 -112519844.7010672 L86090914.55144085 -104169564.6072589 L79701994.40933925 -96438971.2353172 L73787205.54602645 -89282076.71071006 L68311361.97317836 -82656305.98756534 L63241888.90706638 -76522243.57757142 L58548628.98717668 -70843399.07450658 L54203662.87563236 -65585990.07953979 L50181143.1702005 -60718741.235969216 L46457140.64286304 -56212698.177893035 L43009501.88925078 -52041055.28602452 L39817717.542125694 -48178996.22600566 L36862800.264937595 -44603546.320610754 L34127171.79965927 -41293435.87762689 L31594558.396971304 -38228973.6603776 L29249894.00672773 -35391929.74818626 L27079230.652801674 -32765427.0899394 L25069655.45914771 -30333841.105622068 L23209213.833482806 -28082706.73857181 L21486838.351621103 -25998632.405523773 L19892282.91940865 -24069220.332551703 L18416061.82059809 -22282992.802996308 L17049393.288071744 -20629323.878645252 L15784147.262728574 -19098376.18798631 L14612797.029261632 -17681042.40549811 L13528374.441116307 -16368891.073849604 L12524428.468271567 -15154116.44671539 L11594986.821251815 -14029492.053830057 L10734520.42307794 -12988327.712048914 L9937910.517807934 -12024429.726682197 L9200418.22000163 -11132064.046347361 L8517656.323965007 -10305922.152154705 L7885563.205072475 -9541089.47830733 L7300378.657910923 -8833016.17625545 L6758621.527511013 -8177490.048486246 L6257069.000598136 -7570611.490937533 L5792737.4336706055 -7008770.294972356 L5362864.603854504 -6488624.170913387 L4964893.276949146 -6007078.865377899 L4596455.994912423 -5561269.754135063 L4255360.992289347 -5148544.80098447 L3939579.157803571 -4766448.781281882 L3647231.9635485066 -4412708.676260474 L3376580.2899711835 -4085220.151261314 L3126014.080170762 -3782035.037434561 L2894042.7619668455 -3501349.742442127 L2679286.3807604313 -3241494.52121942 L2480467.3904385064 -3000923.5429699146 L2296403.053487728 -2778205.695302706 L2125998.4051070423 -2572016.0708087743 L1968239.7394640152 -2381128.085431153 L1822188.5793457453 -2204406.181742531 L1686976.0933309377 -2040799.073723466 L1561797.9272720173 -1889333.4928557416 L1445909.4193406096 -1749108.3983274042 L1338621.1701716203 -1619289.616907097 L1239294.9417535402 -1499104.8806013353 L1147339.8606681963 -1387839.2325746063 L1062208.9030937378 -1284830.7740029858 L983395.6406607836 -1189466.7265600786 L910431.2278034405 -1101179.7871117543 L842881.61268347 -1019444.7529343925 L780344.955095944 -943775.3973807322 L722449.2359959603 -873721.577407198 L668850.0444259399 -808866.5557559372 L619228.5286783461 -748824.5218617135 L573289.4995056683 -693238.2967359931 L530759.6740940224 -641777.2081750064 L491386.05035407457 -594135.1236517732 L454934.40185826836 -550028.6291901516 L421187.8844709931 -509195.3433873519 L389945.74638280616 -471392.35655535106 L361022.13387493446 -436394.785695949 L334244.9857097707 -403994.43671327754 L309455.00957029907 -373998.5659055152 L286504.7344594697 -346228.7333681414 L265257.63342243165 -320519.7414878489 L245587.3113728521 -296718.6522124033 L227376.75319185358 -274683.8772503691 L210517.62762664794 -254284.33578847244 L194909.64284788867 -235398.67471601153 L180459.94983207172 -217914.54671757962 L167082.5900198134 -201727.9419395985 L154697.98396423153 -186742.56925487934 L143232.4579274894 -172869.2834444621 L132617.8056093139 -160025.55488914493 L122790.88240029162 -148134.9786159974 L113693.22974623075 -137126.81977926448 L105270.72738900177 -126935.59287181291 L97473.27141510004 -117500.67216392231 L90254.4761967036 -108765.93105199921 L83571.39845212629 -100679.4081717609 L77384.28178415303 -93192.99828966033 L71656.32017656413 -86262.16613372279 L66353.43904192995 -79845.68146142279 L61444.09251817471 -73905.37378857544 L56899.075808059584 -68405.9053201642 L52691.351445227934 -63314.56073231284 L48795.88845330435 -58601.0525548574 L45189.513441231225 -54237.34099677027 L41850.77274903852 -50197.46714261388 L38759.80482397612 -46457.398527738966 L35898.222067799106 -42994.8861735841 L33249.00145233588 -39789.33223260424 L30796.383252632862 -36821.66745547422 L28525.777295256354 -34074.23775164021 L26423.676164041262 -31530.69916839066 L24477.574846962685 -29175.92066369478 L22675.89634612549 -26995.89409442398 L21007.922808338313 -24977.650884491122 L19463.731766581168 -23109.184877182543 L18034.137113078883 -21379.380912745844 L16710.63445283956 -19777.94870635371 L15485.350512577104 -18295.36163309722 L14350.996304060043 -16922.800055850636 L13300.823763264585 -15652.098858876463 L12328.58560738606 -14475.698875057546 L11428.498170905392 -13386.601917805614 L10595.206999629345 -12378.329150139694 L9823.754998029935 -11444.882543279597 L9109.552940397094 -10580.709195478617 L8448.35217038112 -9780.668298834935 L7836.219326519454 -9040.0005575733 L7269.51294339472 -8354.299875872162 L6744.861789228223 -7719.487146811861 L6259.144811043848 -7131.785986519837 L5809.472568099364 -6587.700269159297 L5393.170043136206 -6083.993329121193 L5007.760729195063 -5617.668706697366 L4650.951897332632 -5185.952322694267 L4320.620957599864 -4786.275975947304 L4014.8028321457527 -4416.262065565689 L3731.6782653315367 -4073.709447023137 L3469.5630013143646 -3756.5803379549575 L3226.897764719825 -3462.98819576649 L3002.238984800269 -3191.186494939084 L2794.2502078986176 -2939.558337271823 L2601.694147131971 -2706.6068332522646 L2423.425322000091 -2490.9461973367434 L2258.3832441331165 -2291.293504167693 L2105.586108641801 -2106.4610566872616 L1964.1249535412499 -1935.3493207464953 L1833.158252503682 -1776.9403841794435 L1711.9069087734765 -1630.2919014313716 L1599.6496204642212 -1494.5314877188107 L1495.718589666799 -1368.8515293733415 L1399.495549842757 -1252.504379496795 L1310.4080878706777 -1144.7979103477217 L1227.9262388660534 -1045.0913960010614 L1151.5593335179205 -952.7917007877743 L1080.853079187599 -867.3497508401063 L1015.3868574055475 -788.2572677523923 L954.7712216896517 -715.0437449265463 L898.645580799907 -647.2736486150619 L846.6760536476239 -584.5438270110571 L798.5534830983944 -526.4811119725128 L753.9915968533045 -472.74009911380426 L712.7253044678143 -423.00109305869887 L674.509120377581 -376.9682056315104 L639.1157035501059 -334.36759567290414 L606.3345050748455 -294.94584000932895 L575.9705156465714 -258.46842588528966 L547.843105490967 -224.71835589020475 L521.7849498314076 -193.49485708082187 L497.641033504718 -164.61218662000152 L475.2677288045485 -137.898526826825 L454.5319410666341 -113.19496306489384 L435.3103169131779 -90.35453838845956 L417.48851044635126 -69.24137932264972 L400.9605030256322 -49.72988757722129 L385.62797258246127 -31.7039928854893 L371.39970872038543 -15.056462523713606 L358.19107012122777 0.31173659660302633 L345.92348102949245 14.492027058296912 L334.5239638196842 27.568764794631818 L323.9247048658698 39.61974090719178 L314.0626511309222 50.7166444308003 L304.8791350756286 60.9254887983698 L296.3195256563176 70.30700454264212 L288.3329033348533 78.91700057092956 L280.8717571676925 86.80669616201372 L273.89170217204173 94.02302566019131 L267.35121528777876 100.6089176790335 L261.2113883644244 106.60355047579286 L255.43569670372955 112.04258501563162 L249.98978178098005 116.95837711212795 L244.84124685246852 121.38016990604478 L239.95946423323957 125.33426782738216 L235.31539309863953 128.84419307558113 L230.88140672580536 131.93082554875082 L226.63112814738435 134.6125270543323 L222.53927323981907 136.90525054010547 L218.58150031275835 138.82263499533363 L214.7342653048298 140.37608658659596 L210.9746817243599 141.57484651096908 L207.28038450185517 142.42604597020477 L203.62939694432754 142.9347485929339 L200.00000000000003 143.1039805572599 L196.3706030556725 142.9347485929339 L192.71961549814486 142.42604597020477 L189.02531827564013 141.57484651096908 L185.26573469517027 140.37608658659593 L181.4184996872417 138.8226349953336 L177.460726760181 136.90525054010544 L173.3688718526157 134.6125270543323 L169.1185932741947 131.93082554875082 L164.68460690136052 128.84419307558113 L160.04053576676048 125.33426782738213 L155.15875314753154 121.38016990604474 L150.01021821902 116.9583771121279 L144.5643032962705 112.04258501563157 L138.78861163557568 106.60355047579282 L132.64878471222133 100.60891767903345 L126.10829782795837 94.02302566019127 L119.12824283230759 86.80669616201368 L111.6670966651468 78.91700057092946 L103.6804743436825 70.307004542642 L95.12086492437146 60.92548879836971 L85.93734886907797 50.71664443080019 L76.07529513413036 39.6197409071917 L65.47603618031596 27.568764794631733 L54.076518970507664 14.492027058296799 L41.80892987877235 0.3117365966028842 L28.600291279614737 -15.05646252371369 L14.37202741753893 -31.70399288548947 L-0.960503025632022 -49.72988757722146 L-17.488510446351086 -69.24137932264989 L-35.31031691317773 -90.35453838845973 L-54.531941066633834 -113.19496306489401 L-75.2677288045482 -137.89852682682522 L-97.64103350471777 -164.6121866200018 L-121.78494983140735 -193.49485708082216 L-147.8431054909667 -224.71835589020492 L-175.97051564657107 -258.46842588529 L-206.33450507484525 -294.9458400093293 L-239.11570355010548 -334.3675956729045 L-274.5091203775806 -376.9682056315107 L-312.72530446781377 -423.0010930586992 L-353.99159685330403 -472.7400991138046 L-398.5534830983938 -526.4811119725133 L-446.67605364762335 -584.5438270110577 L-498.64558079990627 -647.2736486150624 L-554.771221689651 -715.043744926547 L-615.3868574055467 -788.2572677523931 L-680.8530791875983 -867.3497508401069 L-751.5593335179199 -952.791700787775 L-827.9262388660522 -1045.091396001062 L-910.4080878706766 -1144.7979103477223 L-999.4955498427562 -1252.5043794967962 L-1095.7185896667982 -1368.8515293733426 L-1199.6496204642197 -1494.5314877188116 L-1311.906908773475 -1630.291901431373 L-1433.1582525036806 -1776.940384179445 L-1564.1249535412485 -1935.3493207464967 L-1705.586108641799 -2106.461056687263 L-1858.3832441331142 -2291.2935041676947 L-2023.4253220000887 -2490.9461973367447 L-2201.694147131969 -2706.606833252267 L-2394.2502078986154 -2939.558337271825 L-2602.238984800266 -3191.186494939085 L-2826.897764719822 -3462.988195766493 L-3069.5630013143614 -3756.58033795496 L-3331.678265331534 -4073.7094470231395 L-3614.8028321457496 -4416.262065565692 L-3920.620957599859 -4786.2759759473065 L-4250.951897332628 -5185.952322694271 L-4607.760729195058 -5617.668706697371 L-4993.1700431362015 -6083.993329121196 L-5409.472568099359 -6587.7002691593 L-5859.144811043842 -7131.785986519843 L-6344.861789228217 -7719.487146811867 L-6869.512943394714 -8354.299875872168 L-7436.219326519448 -9040.000557573305 L-8048.352170381111 -9780.66829883494 L-8709.552940397085 -10580.709195478623 L-9423.754998029926 -11444.882543279606 L-10195.206999629336 -12378.329150139703 L-11028.49817090538 -13386.601917805625 L-11928.585607386049 -14475.698875057558 L-12900.823763264574 -15652.098858876476 L-13950.996304060032 -16922.800055850646 L-15085.350512577093 -18295.361633097233 L-16310.634452839542 -19777.948706353724 L-17634.137113078865 -21379.380912745855 L-19063.73176658115 -23109.18487718256 L-20607.922808338295 -24977.65088449114 L-22275.896346125468 -26995.894094424002 L-24077.574846962663 -29175.920663694804 L-26023.67616404124 -31530.69916839068 L-28125.777295256332 -34074.237751640234 L-30396.38325263284 -36821.66745547424 L-32849.00145233584 -39789.33223260426 L-35498.22206779907 -42994.88617358413 L-38359.80482397609 -46457.398527739 L-41450.772749038486 -50197.46714261392 L-44789.51344123118 -54237.34099677032 L-48395.8884533043 -58601.052554857444 L-52291.35144522789 -63314.560732312886 L-56499.07580805954 -68405.90532016424 L-61044.092518174664 -73905.37378857548 L-65953.43904192987 -79845.68146142284 L-71256.32017656406 -86262.16613372283 L-76984.28178415298 -93192.9982896604 L-83171.39845212623 -100679.40817176097 L-89854.4761967035 -108765.9310519993 L-97073.27141509995 -117500.6721639224 L-104870.72738900168 -126935.59287181302 L-113293.22974623066 -137126.81977926457 L-122390.88240029154 -148134.97861599748 L-132217.80560931374 -160025.55488914502 L-142832.45792748925 -172869.2834444622 L-154297.9839642314 -186742.56925487946 L-166682.59001981324 -201727.94193959865 L-180059.94983207155 -217914.54671757983 L-194509.6428478885 -235398.6747160117 L-210117.62762664777 -254284.33578847264 L-226976.75319185338 -274683.8772503693 L-245187.3113728519 -296718.6522124035 L-264857.6334224314 -320519.74148784915 L-286104.7344594694 -346228.7333681416 L-309055.00957029883 -373998.56590551545 L-333844.9857097704 -403994.4367132778 L-360622.1338749341 -436394.78569594934 L-389545.7463828058 -471392.3565553514 L-420787.8844709928 -509195.34338735224 L-454534.40185826796 -550028.6291901519 L-490986.0503540742 -594135.1236517736 L-530359.6740940218 -641777.2081750068 L-572889.4995056677 -693238.2967359935 L-618828.5286783455 -748824.521861714 L-668450.0444259393 -808866.5557559378 L-722049.2359959596 -873721.5774071988 L-779944.9550959433 -943775.397380733 L-842481.6126834693 -1019444.7529343932 L-910031.2278034397 -1101179.787111755 L-982995.6406607829 -1189466.7265600793 L-1061808.9030937366 -1284830.7740029865 L-1146939.8606681952 -1387839.2325746072 L-1238894.941753539 -1499104.8806013362 L-1338221.1701716192 -1619289.616907098 L-1445509.4193406082 -1749108.3983274056 L-1561397.9272720157 -1889333.492855743 L-1686576.0933309363 -2040799.0737234673 L-1821788.5793457439 -2204406.181742532 L-1967839.7394640138 -2381128.0854311544 L-2125598.40510704 -2572016.0708087757 L-2296003.0534877256 -2778205.6953027076 L-2480067.390438504 -3000923.542969917 L-2678886.380760429 -3241494.521219422 L-2893642.7619668427 -3501349.74244213 L-3125614.080170759 -3782035.0374345644 L-3376180.2899711803 -4085220.1512613166 L-3646831.963548504 -4412708.676260477 L-3939179.1578035676 -4766448.781281885 L-4254960.992289342 -5148544.800984473 L-4596055.994912419 -5561269.754135066 L-4964493.276949142 -6007078.865377904 L-5362464.603854501 -6488624.170913391 L-5792337.4336706 -7008770.294972362 L-6256669.000598131 -7570611.490937538 L-6758221.527511007 -8177490.048486252 L-7299978.657910916 -8833016.176255455 L-7885163.205072469 -9541089.478307335 L-8517256.323965 -10305922.152154712 L-9200018.220001621 -11132064.046347367 L-9937510.517807925 -12024429.726682207 L-10734120.42307793 -12988327.712048924 L-11594586.821251804 -14029492.053830069 L-12524028.468271555 -15154116.446715401 L-13527974.441116296 -16368891.073849617 L-14612397.02926162 -17681042.40549812 L-15783747.262728563 -19098376.18798632 L-17048993.288071726 -20629323.878645267 L-18415661.82059807 -22282992.80299632 L-19891882.919408634 -24069220.33255172 L-21486438.351621084 -25998632.405523792 L-23208813.833482783 -28082706.738571834 L-25069255.459147688 -30333841.10562209 L-27078830.65280165 -32765427.089939423 L-29249494.006727707 -35391929.74818628 L-31594158.396971278 -38228973.66037762 L-34126771.79965924 -41293435.87762691 L-36862400.26493756 -44603546.32061078 L-39817317.54212566 -48178996.22600569 L-43009101.88925074 -52041055.28602455 L-46456740.64286299 -56212698.17789308 L-50180743.17020045 -60718741.23596926 L-54203262.875632316 -65585990.079539835 L-58548228.987176634 -70843399.07450663 L-63241488.90706633 -76522243.57757147 L-68310961.97317828 -82656305.98756538 L-73786805.54602638 -89282076.71071011 L-79701594.40933917 -96438971.23531727 L-86090514.55144079 -104169564.60725896 L-92991572.4802089 -112519844.7010673 L-100445821.31678118 -121539485.79331863 L-108497605.0130028 -131282144.06574585 L-117194822.14542064 -141805776.7959705 L-126589210.85508205 -153172987.13465995 L-136736656.62819746 -165451396.52012888 L-147697524.74859083 -178714046.94580415 L-159537019.39964437 -193039835.47357824 L-172325571.55196273 -208513983.57788283 L-186139257.94422862 -225228544.1125241 L-201060253.6496935 -243282948.91613606 L-217177320.9205399 -262784600.3138597 L-234586337.21814758 -283849510.0339645 L-253390865.5704353 -306602989.3402323 L-273702770.6492213 -331180394.4855629 L-295642884.23252 -357727931.92135406 L-319341724.0105189 -386403528.05273247 L-344940270.01124656 -417377768.7136127 L-372590803.26476526 -450834913.95037 L-402457811.69493985 -486973994.1508811 L-434718968.6277669 -526009994.0396016 L-469566189.7372302 -568175131.5820518 L-507206774.7162592 -613720239.4066769 L-547864640.4643708 -662916256.9618919 L-591781653.1280359 -716055842.2849264 L-639219066.9177606 -773455112.9704931 L-690459078.2612339 -835455526.6960957 L-745806504.5378323 -902425912.4907798 L-805590597.3810062 -974764664.8310202 L-870167001.3355372 -1052902113.6160026 L-939919869.5213577 -1137303084.1208453 L-1015264148.8896277 -1228469662.156452 L-1096648048.6656358 -1326944180.885422 L-1184555706.6628356 -1433312447.0620337 L-1279510069.3294275 -1548207225.8886096 L-1382076002.6603534 -1672312005.21903 L-1492863652.480946 -1806365061.5019474 L-1612532074.0919397 -1951163851.65125 L-1741793152.8679304 -2107569756.9701986 L-1881415839.132213 -2276513207.349981 L-2032230722.500442 -2458999216.2255383 L-2195134972.905142 -2656113359.215225 L-2371097677.694182 -2869028232.009964 L-2561165606.552726 -3099010425.928802 L-2766469438.543074 -3347428062.637123 L-2988230488.3059225 -3615758932.850171 L-3227767971.4359636 -3905599287.43752 L-3486506852.252207 -4218673333.2251744 L-3765986320.647965 -4556843489.984042 L-4067868948.4477234 -4922121469.621751 L-4393950579.740359 -5316680243.48584 L-4746171014.024493 -5742866968.969642 L-5126625545.718027 -6203216952.318818 L-5537577428.678311 -6700468730.700764 L-5981471339.881939 -7237580363.2571535 L-6460947922.357424 -7817747028.05249 L-6978859493.883597 -8444420029.599162 L-7538287014.902157 -9121327330.031618 L-8142558416.583233 -9852495726.065722 L-8795268398.074291 -10642274803.669905 L-9500299810.702538 -11495362812.950083 L-10261846756.3415 -12416834617.173227 L-11084439537.349733 -13412171882.19319 L-11972971606.50421 -14487295685.870108 L-12932728677.24859 -15648601741.47081 L-13969420167.427872 -16902998444.587742 L-15089213163.562445 -18257947969.910576 L-16298769107.708443 -19721510662.327236 L-17605283425.14857 -21302392986.429787 L-19016528328.6501 -23009999319.66664 L-20540899053.92562 -24854487897.250027 L-22187463801.342255 -26846831241.624153 L-23966017680.973587 -28998881435.978073 L-25887140981.903378 -31323440630.10312 L-27962262112.41442 -33834337198.021484 L-30203725585.482147 -36546508000.43343 L-32624865454.00612 -39476087241.34744 L-35240084632.632095 -42640502447.48487 L-38064940578.03548 -46058578141.422966 L-41116237837.36247 -49750647825.20863 L-44412128015.38263 -53738674940.61303 L-47972217755.03807 -58046383525.59612 L-51817685373.74796 -62699399344.23509 L-55971406849.31321 -67725402329.669044 L-60458091904.89045 -73154291246.91751 L-65304431002.57896 -79018361555.12064 L-70539254120.05818 -85352497527.2705 L-76193702254.809 -92194379770.31898 L-82301412676.16579 -99584709380.16069 L-88898719027.22914 -107567450064.94736 L-96024867467.00935 -116190089677.08145 L-103722250138.5897 -125503922709.69368 L-112036657352.16942 -135564355438.12515 L-121017549983.1742 -146431235521.6409 L-130718353705.8864 -158169208026.12268 L-141196776812.9288 -170848099985.64398 L-152515153511.2574 -184543335790.6216 L-164740814736.86163 -199336385873.60278 L-177946488694.0959 -215315251361.8562 L-192210733502.34534 -232574987579.8381 L-207618404523.80188 -251218269515.80054 L-224261159152.36368 -271356002616.3603 L-242238002066.5722 -293107982542.5526 L-261655874190.18445 -316603607812.12354 L-282630288864.0228 -341982649567.46796 L-305286019013.5223 -369396083048.36224 L-329757839399.87054 -399006985715.84375 L-356191328370.2087 -430991507369.9529 L-384743733876.36414 -465539918032.4011 L-415584908913.9425 -502857739827.8709 L-448898321946.4605 -543166969597.2177 L-484882148325.4141 -586707399515.7516 L-523750449198.9019 -633738043572.672 L-565734444921.9266 -684538678397.5319 L-611083890543.6418 -739411507599.8073 L-660068561554.1082 -798682959522.4716 L-712979858728.9192 -862705629103.993 L-770132541618.695 -931860375400.6221 L-831866600995.6079 -1006558587246.6865 L-898549281395.7992 -1087244630530.918 L-970577265789.3953 -1174398491647.1692 L-1048379035374.3726 -1268538632844.9922 L-1132417418532.1846 -1370225076465.9443 L-1223192344108.4685 -1480062736413.2483 L-1321243815397.542 -1598705016673.0276 L-1427155122522.4966 -1726857698294.2224 L-1541556312320.4958 -1865283137949.8018 L-1665127936375.306 -2014804803056.1223 L-1798605099493.1536 -2176312170428.7175 L-1942781832705.6824 -2350766017615.878 L-2098515816814.1099 -2539204138387.075 L-2266733484574.272 -2742747516376.8716 L-2448435531874.1187 -2962606993609.686 L-2644702870689.1445 -3200090473575.868 L-2856703059228.3984 -3456610701708.3657 L-3085697247522.8994 -3733693669544.7124 L-3333047679774.7915 -4032987692569.5015 L-3600225798096.7754 -4356273215739.1025 L-3888820995849.9834 -4705473405020.484 L-4200550072652.004 -5082665587950.93 L-4537267447301.266 -5490093611276.536 L-4900976189372.453 -5930181189182.674 L-5293839935108.224 -6405546321522.956 L-5718195758492.102 -6919016867817.449 L-6176568074070.755 -7473647369667.621 L-6671683654230.647 -8072737221661.091 L-7206487850264.196 -8719850298861.686 L-7784162113721.425 -9418836157644.932 L-8408142922278.753 -10173852935999.303 " stroke = "blue" stroke-width = "4" fill = "none" />	<path d = "M117195222 -141805777 L108498005.0130028 131282544.06574585 L100446221.31678118 121539885.79331863 L92991972.4802089 112520244.7010673 L86090914.55144079 104169964.60725896 L79701994.40933917 96439371.23531727 L73787205.54602638 89282476.71071011 L68311361.97317828 82656705.98756538 L63241888.90706633 76522643.57757147 L58548628.987176634 70843799.07450663 L54203662.875632316 65586390.079539835 L50181143.17020045 60719141.23596926 L46457140.64286299 56213098.17789308 L43009501.88925074 52041455.28602455 L39817717.54212566 48179396.22600569 L36862800.26493756 44603946.32061078 L34127171.79965924 41293835.87762691 L31594558.396971278 38229373.66037762 L29249894.006727707 35392329.74818628 L27079230.65280165 32765827.089939423 L25069655.459147688 30334241.10562209 L23209213.833482783 28083106.738571834 L21486838.351621084 25999032.405523792 L19892282.919408634 24069620.33255172 L18416061.82059807 22283392.80299632 L17049393.288071726 20629723.878645267 L15784147.262728563 19098776.18798632 L14612797.02926162 17681442.40549812 L13528374.441116296 16369291.073849617 L12524428.468271555 15154516.446715401 L11594986.821251804 14029892.053830069 L10734520.42307793 12988727.712048924 L9937910.517807925 12024829.726682207 L9200418.220001621 11132464.046347367 L8517656.323965 10306322.152154712 L7885563.205072469 9541489.478307335 L7300378.657910916 8833416.176255455 L6758621.527511007 8177890.048486252 L6257069.000598131 7571011.490937538 L5792737.4336706 7009170.294972362 L5362864.603854501 6489024.170913391 L4964893.276949142 6007478.865377904 L4596455.994912419 5561669.754135066 L4255360.992289342 5148944.800984473 L3939579.1578035676 4766848.781281885 L3647231.963548504 4413108.676260477 L3376580.2899711803 4085620.1512613166 L3126014.080170759 3782435.0374345644 L2894042.7619668427 3501749.74244213 L2679286.380760429 3241894.521219422 L2480467.390438504 3001323.542969917 L2296403.0534877256 2778605.6953027076 L2125998.40510704 2572416.0708087757 L1968239.7394640138 2381528.0854311544 L1822188.5793457439 2204806.181742532 L1686976.0933309363 2041199.0737234673 L1561797.9272720157 1889733.492855743 L1445909.4193406082 1749508.3983274056 L1338621.1701716192 1619689.616907098 L1239294.941753539 1499504.8806013362 L1147339.8606681952 1388239.2325746072 L1062208.9030937366 1285230.7740029865 L983395.6406607829 1189866.7265600793 L910431.2278034397 1101579.787111755 L842881.6126834693 1019844.7529343932 L780344.9550959433 944175.397380733 L722449.2359959596 874121.5774071988 L668850.0444259393 809266.5557559378 L619228.5286783455 749224.521861714 L573289.4995056677 693638.2967359935 L530759.6740940218 642177.2081750068 L491386.0503540742 594535.1236517736 L454934.40185826796 550428.6291901519 L421187.8844709928 509595.34338735224 L389945.7463828058 471792.3565553514 L361022.1338749341 436794.78569594934 L334244.9857097704 404394.4367132778 L309455.00957029883 374398.56590551545 L286504.7344594694 346628.7333681416 L265257.6334224314 320919.74148784915 L245587.3113728519 297118.6522124035 L227376.75319185338 275083.8772503693 L210517.62762664777 254684.33578847264 L194909.6428478885 235798.6747160117 L180459.94983207155 218314.54671757983 L167082.59001981324 202127.94193959865 L154697.9839642314 187142.56925487946 L143232.45792748925 173269.2834444622 L132617.80560931374 160425.55488914502 L122790.88240029154 148534.97861599748 L113693.22974623066 137526.81977926457 L105270.72738900168 127335.59287181302 L97473.27141509995 117900.6721639224 L90254.4761967035 109165.9310519993 L83571.39845212623 101079.40817176097 L77384.28178415298 93592.9982896604 L71656.32017656406 86662.16613372283 L66353.43904192987 80245.68146142284 L61444.092518174664 74305.37378857548 L56899.07580805954 68805.90532016424 L52691.35144522789 63714.560732312886 L48795.8884533043 59001.052554857444 L45189.51344123118 54637.34099677032 L41850.772749038486 50597.46714261392 L38759.80482397609 46857.398527739 L35898.22206779907 43394.88617358413 L33249.00145233584 40189.33223260426 L30796.38325263284 37221.66745547424 L28525.777295256332 34474.237751640234 L26423.67616404124 31930.69916839068 L24477.574846962663 29575.920663694804 L22675.896346125468 27395.894094424002 L21007.922808338295 25377.65088449114 L19463.73176658115 23509.18487718256 L18034.137113078865 21779.380912745855 L16710.634452839542 20177.948706353724 L15485.350512577093 18695.361633097233 L14350.996304060032 17322.800055850646 L13300.823763264574 16052.098858876476 L12328.585607386049 14875.698875057558 L11428.49817090538 13786.601917805625 L10595.206999629336 12778.329150139703 L9823.754998029926 11844.882543279606 L9109.552940397085 10980.709195478623 L8448.352170381111 10180.66829883494 L7836.219326519448 9440.000557573305 L7269.512943394714 8754.299875872168 L6744.861789228217 8119.487146811867 L6259.144811043842 7531.785986519843 L5809.472568099359 6987.7002691593 L5393.1700431362015 6483.993329121196 L5007.760729195058 6017.668706697371 L4650.951897332628 5585.952322694271 L4320.620957599859 5186.2759759473065 L4014.8028321457496 4816.262065565692 L3731.678265331534 4473.70944702314 L3469.5630013143614 4156.58033795496 L3226.897764719822 3862.988195766493 L3002.238984800266 3591.186494939085 L2794.2502078986154 3339.558337271825 L2601.694147131969 3106.606833252267 L2423.4253220000887 2890.9461973367447 L2258.383244133114 2691.2935041676947 L2105.586108641799 2506.461056687263 L1964.1249535412485 2335.3493207464967 L1833.1582525036806 2176.9403841794447 L1711.906908773475 2030.291901431373 L1599.6496204642197 1894.5314877188116 L1495.7185896667982 1768.8515293733426 L1399.4955498427562 1652.5043794967962 L1310.4080878706766 1544.7979103477223 L1227.9262388660522 1445.091396001062 L1151.5593335179199 1352.791700787775 L1080.8530791875983 1267.349750840107 L1015.3868574055467 1188.257267752393 L954.771221689651 1115.0437449265469 L898.6455807999063 1047.2736486150625 L846.6760536476233 984.5438270110577 L798.5534830983938 926.4811119725133 L753.991596853304 872.7400991138046 L712.7253044678138 823.0010930586992 L674.5091203775805 776.9682056315107 L639.1157035501055 734.3675956729045 L606.3345050748453 694.9458400093292 L575.9705156465711 658.46842588529 L547.8431054909668 624.718355890205 L521.7849498314074 593.4948570808222 L497.64103350471777 564.6121866200018 L475.2677288045482 537.8985268268252 L454.53194106663386 513.194963064894 L435.31031691317776 490.35453838845973 L417.4885104463511 469.2413793226499 L400.960503025632 449.72988757722146 L385.6279725824611 431.70399288548947 L371.39970872038526 415.05646252371366 L358.19107012122765 399.6882634033971 L345.92348102949234 385.5079729417032 L334.523963819684 372.43123520536824 L323.92470486586967 360.3802590928083 L314.06265113092206 349.2833555691998 L304.87913507562854 339.0745112016303 L296.3195256563175 329.692995457358 L288.3329033348532 321.0829994290705 L280.8717571676924 313.1933038379863 L273.8917021720416 305.97697433980875 L267.3512152877787 299.3910823209666 L261.21138836442435 293.3964495242072 L255.4356967037295 287.9574149843684 L249.98978178098 283.0416228878721 L244.84124685246846 278.6198300939553 L239.95946423323952 274.6657321726179 L235.31539309863948 271.15580692441887 L230.8814067258053 268.0691744512492 L226.6311281473843 265.3874729456677 L222.539273239819 263.09474945989456 L218.5815003127583 261.1773650046664 L214.73426530482973 259.62391341340407 L210.97468172435987 258.4251534890309 L207.28038450185514 257.57395402979523 L203.6293969443275 257.0652514070661 L199.99999999999997 256.8960194427401 L196.37060305567246 257.0652514070661 L192.71961549814483 257.57395402979523 L189.0253182756401 258.4251534890309 L185.2657346951702 259.623913413404 L181.41849968724165 261.17736500466634 L177.46072676018093 263.09474945989456 L173.36887185261565 265.3874729456677 L169.11859327419464 268.0691744512492 L164.68460690136047 271.15580692441887 L160.04053576676043 274.6657321726178 L155.15875314753148 278.6198300939552 L150.01021821901995 283.04162288787205 L144.56430329627045 287.95741498436837 L138.78861163557562 293.3964495242071 L132.64878471222124 299.3910823209665 L126.10829782795828 305.9769743398087 L119.1282428323075 313.19330383798626 L111.66709666514672 321.08299942907047 L103.68047434368242 329.6929954573579 L95.12086492437138 339.07451120163023 L85.93734886907784 349.28335556919967 L76.07529513413023 360.3802590928082 L65.47603618031582 372.4312352053682 L54.07651897050752 385.5079729417031 L41.80892987877223 399.68826340339695 L28.600291279614538 415.0564625237136 L14.372027417538732 431.7039928854893 L-0.9605030256321925 449.7298875772213 L-17.488510446351256 469.2413793226497 L-35.31031691317793 490.35453838845956 L-54.53194106663409 513.1949630648938 L-75.26772880454848 537.898526826825 L-97.641033504718 564.6121866200015 L-121.78494983140763 593.4948570808219 L-147.84310549096705 624.7183558902047 L-175.9705156465714 658.4684258852897 L-206.3345050748456 694.945840009329 L-239.11570355010588 734.3675956729041 L-274.509120377581 776.9682056315104 L-312.72530446781434 823.0010930586989 L-353.9915968533045 872.7400991138043 L-398.5534830983944 926.4811119725128 L-446.6760536476239 984.5438270110571 L-498.64558079990695 1047.273648615062 L-554.7712216896517 1115.0437449265464 L-615.3868574055475 1188.2572677523922 L-680.853079187599 1267.3497508401063 L-751.5593335179207 1352.7917007877743 L-827.9262388660534 1445.0913960010614 L-910.4080878706777 1544.7979103477217 L-999.4955498427571 1652.504379496795 L-1095.718589666799 1768.8515293733415 L-1199.6496204642212 1894.5314877188107 L-1311.9069087734765 2030.2919014313716 L-1433.158252503682 2176.9403841794438 L-1564.1249535412499 2335.3493207464953 L-1705.5861086418006 2506.4610566872616 L-1858.3832441331165 2691.293504167693 L-2023.425322000091 2890.9461973367434 L-2201.694147131971 3106.6068332522646 L-2394.2502078986176 3339.558337271823 L-2602.238984800269 3591.186494939084 L-2826.897764719825 3862.98819576649 L-3069.5630013143646 4156.580337954958 L-3331.6782653315367 4473.709447023137 L-3614.8028321457527 4816.262065565689 L-3920.6209575998637 5186.275975947304 L-4250.951897332632 5585.952322694267 L-4607.760729195063 6017.668706697366 L-4993.170043136206 6483.993329121193 L-5409.472568099364 6987.700269159297 L-5859.144811043848 7531.785986519837 L-6344.861789228223 8119.487146811861 L-6869.51294339472 8754.299875872162 L-7436.219326519454 9440.0005575733 L-8048.35217038112 10180.668298834935 L-8709.552940397094 10980.709195478617 L-9423.754998029935 11844.882543279597 L-10195.206999629345 12778.329150139694 L-11028.498170905392 13786.601917805614 L-11928.58560738606 14875.698875057546 L-12900.823763264585 16052.098858876463 L-13950.996304060043 17322.800055850636 L-15085.350512577104 18695.36163309722 L-16310.63445283956 20177.94870635371 L-17634.137113078883 21779.380912745844 L-19063.731766581168 23509.184877182543 L-20607.922808338313 25377.650884491122 L-22275.89634612549 27395.89409442398 L-24077.574846962685 29575.92066369478 L-26023.676164041262 31930.69916839066 L-28125.777295256354 34474.23775164021 L-30396.383252632862 37221.66745547422 L-32849.00145233588 40189.33223260424 L-35498.222067799106 43394.8861735841 L-38359.80482397612 46857.398527738966 L-41450.77274903852 50597.46714261388 L-44789.513441231225 54637.34099677027 L-48395.88845330435 59001.0525548574 L-52291.351445227934 63714.56073231284 L-56499.075808059584 68805.9053201642 L-61044.09251817471 74305.37378857544 L-65953.43904192995 80245.68146142279 L-71256.32017656413 86662.16613372279 L-76984.28178415303 93592.99828966033 L-83171.39845212629 101079.4081717609 L-89854.4761967036 109165.93105199921 L-97073.27141510004 117900.67216392231 L-104870.72738900177 127335.59287181291 L-113293.22974623075 137526.81977926448 L-122390.88240029162 148534.9786159974 L-132217.8056093139 160425.55488914493 L-142832.4579274894 173269.2834444621 L-154297.98396423153 187142.56925487934 L-166682.5900198134 202127.9419395985 L-180059.94983207172 218314.54671757962 L-194509.64284788867 235798.67471601153 L-210117.62762664794 254684.33578847244 L-226976.75319185358 275083.8772503691 L-245187.3113728521 297118.6522124033 L-264857.63342243165 320919.7414878489 L-286104.7344594697 346628.7333681414 L-309055.00957029907 374398.5659055152 L-333844.9857097707 404394.43671327754 L-360622.13387493446 436794.785695949 L-389545.74638280616 471792.35655535106 L-420787.8844709931 509595.3433873519 L-454534.40185826836 550428.6291901516 L-490986.05035407457 594535.1236517732 L-530359.6740940224 642177.2081750064 L-572889.4995056683 693638.2967359931 L-618828.5286783461 749224.5218617135 L-668450.0444259399 809266.5557559372 L-722049.2359959603 874121.577407198 L-779944.955095944 944175.3973807322 L-842481.61268347 1019844.7529343925 L-910031.2278034405 1101579.7871117543 L-982995.6406607836 1189866.7265600786 L-1061808.9030937378 1285230.7740029858 L-1146939.8606681963 1388239.2325746063 L-1238894.9417535402 1499504.8806013353 L-1338221.1701716203 1619689.616907097 L-1445509.4193406096 1749508.3983274042 L-1561397.9272720173 1889733.4928557416 L-1686576.0933309377 2041199.073723466 L-1821788.5793457453 2204806.181742531 L-1967839.7394640152 2381528.085431153 L-2125598.4051070423 2572416.0708087743 L-2296003.053487728 2778605.695302706 L-2480067.3904385064 3001323.5429699146 L-2678886.3807604313 3241894.52121942 L-2893642.7619668455 3501749.742442127 L-3125614.080170762 3782435.037434561 L-3376180.2899711835 4085620.151261314 L-3646831.9635485066 4413108.676260474 L-3939179.157803571 4766848.781281882 L-4254960.992289347 5148944.80098447 L-4596055.994912423 5561669.754135063 L-4964493.276949146 6007478.865377899 L-5362464.603854504 6489024.170913387 L-5792337.4336706055 7009170.294972356 L-6256669.000598136 7571011.490937533 L-6758221.527511013 8177890.048486246 L-7299978.657910923 8833416.17625545 L-7885163.205072475 9541489.47830733 L-8517256.323965007 10306322.152154705 L-9200018.22000163 11132464.046347361 L-9937510.517807934 12024829.726682197 L-10734120.42307794 12988727.712048914 L-11594586.821251815 14029892.053830057 L-12524028.468271567 15154516.44671539 L-13527974.441116307 16369291.073849604 L-14612397.029261632 17681442.40549811 L-15783747.262728574 19098776.18798631 L-17048993.288071744 20629723.878645252 L-18415661.82059809 22283392.802996308 L-19891882.91940865 24069620.332551703 L-21486438.351621103 25999032.405523773 L-23208813.833482806 28083106.73857181 L-25069255.45914771 30334241.105622068 L-27078830.652801674 32765827.0899394 L-29249494.00672773 35392329.74818626 L-31594158.396971304 38229373.6603776 L-34126771.79965927 41293835.87762689 L-36862400.264937595 44603946.320610754 L-39817317.542125694 48179396.22600566 L-43009101.88925078 52041455.28602452 L-46456740.64286304 56213098.177893035 L-50180743.1702005 60719141.235969216 L-54203262.87563236 65586390.07953979 L-58548228.98717668 70843799.07450658 L-63241488.90706638 76522643.57757142 L-68310961.97317836 82656705.98756534 L-73786805.54602645 89282476.71071006 L-79701594.40933925 96439371.2353172 L-86090514.55144085 104169964.6072589 L-92991572.480209 112520244.7010672 L-100445821.31678127 121539885.79331854 L-108497605.01300289 131282544.06574574 L-117194822.14542073 141806176.7959704 L-126589210.85508215 153173387.13465986 L-136736656.62819758 165451796.5201288 L-147697524.74859098 178714446.94580406 L-159537019.3996445 193040235.4735781 L-172325571.55196288 208514383.57788268 L-186139257.94422883 225228944.1125239 L-201060253.64969367 243283348.91613585 L-217177320.9205401 262785000.31385952 L-234586337.21814775 283849910.03396434 L-253390865.57043558 306603389.34023213 L-273702770.64922154 331180794.48556274 L-295642884.2325202 357728331.9213539 L-319341724.0105192 386403928.05273217 L-344940270.01124686 417378168.7136124 L-372590803.2647656 450835313.95036966 L-402457811.6949402 486974394.15088075 L-434718968.62776726 526010394.03960127 L-469566189.73723054 568175531.5820514 L-507206774.7162598 613720639.4066765 L-547864640.4643714 662916656.9618915 L-591781653.1280365 716056242.284926 L-639219066.9177612 773455512.9704926 L-690459078.2612345 835455926.6960952 L-745806504.537833 902426312.490779 L-805590597.3810071 974765064.8310195 L-870167001.3355379 1052902513.6160018 L-939919869.5213584 1137303484.1208444 L-1015264148.8896288 1228470062.1564512 L-1096648048.665637 1326944580.8854213 L-1184555706.6628366 1433312847.0620327 L-1279510069.3294287 1548207625.8886085 L-1382076002.6603546 1672312405.219029 L-1492863652.4809475 1806365461.501946 L-1612532074.091941 1951164251.6512485 L-1741793152.8679318 2107570156.9701972 L-1881415839.1322145 2276513607.3499794 L-2032230722.5004444 2458999616.2255363 L-2195134972.905144 2656113759.215224 L-2371097677.6941843 2869028632.0099626 L-2561165606.5527277 3099010825.9287996 L-2766469438.543076 3347428462.637121 L-2988230488.3059254 3615759332.8501678 L-3227767971.435967 3905599687.437517 L-3486506852.2522097 4218673733.225171 L-3765986320.6479683 4556843889.984039 L-4067868948.4477277 4922121869.621748 L-4393950579.740364 5316680643.485837 L-4746171014.024497 5742867368.969638 L-5126625545.718032 6203217352.318814 L-5537577428.678316 6700469130.700759 L-5981471339.881945 7237580763.257148 L-6460947922.35743 7817747428.0524845 L-6978859493.883603 8444420429.599155 L-7538287014.902163 9121327730.031612 L-8142558416.583241 9852496126.065716 L-8795268398.0743 10642275203.669899 L-9500299810.702547 11495363212.950075 L-10261846756.341509 12416835017.173218 L-11084439537.349743 13412172282.19318 L-11972971606.504221 14487296085.870096 L-12932728677.248602 15648602141.470798 L-13969420167.427883 16902998844.587729 L-15089213163.562456 18257948369.91056 L-16298769107.708462 19721511062.327225 L-17605283425.14859 21302393386.429775 L-19016528328.650116 23009999719.66663 L-20540899053.92564 24854488297.25001 L-22187463801.342274 26846831641.624138 L-23966017680.97361 28998881835.978046 L-25887140981.9034 31323441030.103096 L-27962262112.414444 33834337598.02146 L-30203725585.48217 36546508400.4334 L-32624865454.006157 39476087641.34742 L-35240084632.632126 42640502847.48485 L-38064940578.03551 46058578541.42294 L-41116237837.3625 49750648225.208595 L-44412128015.38267 53738675340.61299 L-47972217755.038124 58046383925.59608 L-51817685373.74801 62699399744.23505 L-55971406849.313255 67725402729.669 L-60458091904.8905 73154291646.91747 L-65304431002.57903 79018361955.12057 L-70539254120.05826 85352497927.27045 L-76193702254.80908 92194380170.31894 L-82301412676.16585 99584709780.16063 L-88898719027.22922 107567450464.94728 L-96024867467.00946 116190090077.08136 L-103722250138.58981 125503923109.69359 L-112036657352.16953 135564355838.12506 L-121017549983.17429 146431235921.6408 L-130718353705.88654 158169208426.1226 L-141196776812.92892 170848100385.6439 L-152515153511.25754 184543336190.62152 L-164740814736.8618 199336386273.60263 L-177946488694.096 215315251761.85605 L-192210733502.34552 232574987979.83792 L-207618404523.8021 251218269915.80032 L-224261159152.36386 271356003016.36008 L-242238002066.57242 293107982942.5524 L-261655874190.18472 316603608212.12335 L-282630288864.02313 341982649967.4678 L-305286019013.5226 369396083448.36206 L-329757839399.8708 399006986115.84344 L-356191328370.209 430991507769.9526 L-384743733876.36456 465539918432.40076 L-415584908913.9429 502857740227.87054 L-448898321946.4609 543166969997.21735 L-484882148325.4145 586707399915.7512 L-523750449198.90247 633738043972.6716 L-565734444921.9272 684538678797.5315 L-611083890543.6425 739411507999.8068 L-660068561554.1088 798682959922.4711 L-712979858728.9198 862705629503.9924 L-770132541618.6958 931860375800.6213 L-831866600995.6086 1006558587646.6858 L-898549281395.7999 1087244630930.9172 L-970577265789.3961 1174398492047.1685 L-1048379035374.3738 1268538633244.9912 L-1132417418532.1855 1370225076865.9436 L-1223192344108.4697 1480062736813.2476 L-1321243815397.5432 1598705017073.0264 L-1427155122522.4978 1726857698694.2212 L-1541556312320.4973 1865283138349.8 L-1665127936375.3074 2014804803456.1208 L-1798605099493.155 2176312170828.716 L-1942781832705.684 2350766018015.8765 L-2098515816814.112 2539204138787.0737 L-2266733484574.2744 2742747516776.87 L-2448435531874.1206 2962606994009.6846 L-2644702870689.147 3200090473975.8657 L-2856703059228.401 3456610702108.3633 L-3085697247522.903 3733693669944.7095 L-3333047679774.7944 4032987692969.4985 L-3600225798096.779 4356273216139.0996 L-3888820995849.9863 4705473405420.481 L-4200550072652.0083 5082665588350.927 L-4537267447301.27 5490093611676.533 L-4900976189372.458 5930181189582.671 L-5293839935108.229 6405546321922.952 L-5718195758492.106 6919016868217.444 L-6176568074070.761 7473647370067.615 L-6671683654230.653 8072737222061.085 L-7206487850264.202 8719850299261.68 L-7784162113721.431 9418836158044.926 L-8408142922278.763 10173852936399.297 " stroke = "blue" stroke-width = "4" fill = "none" /></svg>