<svg width="400" height="400" viewbox = "0 0 400 400"  xmlns="http://www.w3.org/2000/svg">

<!--
<topfunctions>







function XYofT(){
    T = plotparams.g*t;
    
    
    X = funcparams.a*Math.cosh(2*Math.PI*T/funcparams.T);
    Y = funcparams.b*Math.sinh(2*Math.PI*T/funcparams.T);
    
    Xrot = Math.cos(Math.PI*funcparams.theta/180)*X - Math.sin(funcparams.theta*Math.PI/180)*Y;
    Yrot = Math.sin(funcparams.theta*Math.PI/180)*X + Math.cos(funcparams.theta*Math.PI/180)*Y;
    X = Xrot;
    Y = Yrot;
    y = plotparams.y0 - plotparams.G*(Y - funcparams.Y0);
    x = plotparams.x0 - plotparams.G*(X - funcparams.X0);    
}

function XYofT2(){
    T = plotparams.g*t;
    X = -funcparams.a*Math.cosh(2*Math.PI*T/funcparams.T);
    Y = funcparams.b*Math.sinh(2*Math.PI*T/funcparams.T);
       Xrot = Math.cos(funcparams.theta*Math.PI/180)*X - Math.sin(funcparams.theta*Math.PI/180)*Y;
    Yrot = Math.sin(funcparams.theta*Math.PI/180)*X + Math.cos(funcparams.theta*Math.PI/180)*Y;
    X = Xrot;
    Y = Yrot;
    y = plotparams.y0 - plotparams.G*(Y - funcparams.Y0);
    x = plotparams.x0 - plotparams.G*(X - funcparams.X0);   
}

function plotfunction(){


    currentStroke = "blue";
    currentLineWidth = 4;
    ctx.strokeStyle = currentStroke;
    ctx.lineWidth = currentLineWidth;
    ctx.beginPath();	
    x = 0;
    y = 0;
    t = plotparams.tstart;
    XYofT();
    currentSVG += "	<path d = \"M";
    currentSVG += Math.round(x).toString() + " ";
    currentSVG += Math.round(y).toString() + " ";
    for(t = 1 + plotparams.tstart; t < plotparams.tstart + plotparams.duration;t++){
        ctx.moveTo(x,y);
        XYofT();
        ctx.lineTo(x,y);
        currentSVG += "L" + x + " " + y + " ";
    }
    ctx.stroke();
    currentSVG += "\""+ " stroke = \"" + currentStroke + "\" stroke-width = \"" + currentLineWidth.toString() + "\" fill = \"" + "none" + "\" "+"/>";


    currentStroke = "blue";
    currentLineWidth = 4;
    ctx.strokeStyle = currentStroke;
    ctx.lineWidth = currentLineWidth;
    ctx.beginPath();	
    x = 0;
    y = 0;
    t = plotparams.tstart;
    XYofT();
    currentSVG += "	<path d = \"M";
    currentSVG += Math.round(x).toString() + " ";
    currentSVG += Math.round(y).toString() + " ";
    for(t = 1 + plotparams.tstart; t < plotparams.tstart + plotparams.duration;t++){
        ctx.moveTo(x,y);
        XYofT2();
        ctx.lineTo(x,y);
        currentSVG += "L" + x + " " + y + " ";
    }
    ctx.stroke();
    currentSVG += "\""+ " stroke = \"" + currentStroke + "\" stroke-width = \"" + currentLineWidth.toString() + "\" fill = \"" + "none" + "\" "+"/>";

    /*plot one function:
    currentStroke = "blue";
    currentLineWidth = 4;
    ctx.strokeStyle = currentStroke;
    ctx.lineWidth = currentLineWidth;
    ctx.beginPath();	
    x = 0;
    YofX();
    currentSVG += "	<path d = \"M";
    currentSVG += Math.round(x).toString() + " ";
    currentSVG += Math.round(y).toString() + " ";
    for(x = 1;x < plotparams.plotwidth;x++){
        ctx.moveTo(x-1,y);
        YofX();
        ctx.lineTo(x,y);
        currentSVG += "L" + x + " " + y + " ";
    }
    ctx.stroke();
    currentSVG += "\""+ " stroke = \"" + currentStroke + "\" stroke-width = \"" + currentLineWidth.toString() + "\" fill = \"" + "none" + "\" "+"/>";
    /*finish plot one function*/
    

}
























</topfunctions>
-->

<!--
<imgurl>

</imgurl>
-->

<!--
<currentjson>
{
    "constants": {},
    "imgurl": "",
    "plotparams": {
        "G": 100.79476910000022,
        "g": 0.017985878990921366,
        "tstart": -200,
        "duration": 545.4545454545454,
        "plotwidth": 400,
        "plotheight": 400,
        "x0": 200,
        "y0": 200
    },
    "funcparams": {
        "theta": 46.18423064076359,
        "a": 0.19784466890013488,
        "b": -0.1978446689001349,
        "T": 1.4655609018152753,
        "X0": 0,
        "Y0": 0
    }
}
</currentjson>
-->

<!--
<equation>


<h2>Hyperbola</h2>
<p style="color:blue">

</p><p class="bigeq">
$$
(X,Y) = (\pm a\cosh{\frac{2\pi t}{T}},b\sinh{\frac{2\pi t}{T}})
$$
</p>
<p></p>

$$
X = g(x - x_0) - X_0
$$
$$
Y = f(X)
$$
    
$$
y = y_0 - G(Y - Y_0)
$$


<p>
    X and Y, and $X_0$ and $Y_0$ in physical units of the System. x and y and x0 and y0 in pixels.  G is in pixels per Y unit and g is in X units per pixel. 
</p>



</equation>
-->
	<path d = "M1452889 -70274213 L1345083.0593346953 -65059044.0199212 L1245277.284561396 -60230900.628215946 L1152878.2449751084 -55761060.948181905 L1067336.2757267307 -51622934.72775305 L988142.5034142272 -47791905.01706988 L914825.8188885773 -44245181.726783894 L846950.0747123442 -40961666.054019004 L784111.4905989923 -37921824.969482675 L725936.2513983784 -35107575.019077085 L672078.2833393889 -32502174.74876463 L622217.1953008681 -30090125.112744775 L576056.3728639238 -27857077.272488974 L533321.2138074418 -25789747.23814551 L493757.49455009005 -23875836.844533294 L457129.85782113473 -22103960.59162533 L423220.4125634116 -20463577.914307874 L391827.43773962406 -18944930.47850253 L362764.1823310715 -17538984.13063591 L335857.75439027674 -16237375.15512582 L310948.09253867524 -15032360.5201797 L287887.01379098784 -13916771.815925976 L266537.3320419577 -12883972.610865487 L246772.04197151033 -11927818.97296446 L228473.56351352631 -11042622.920535471 L211533.0423936974 -10223118.585483173 L195849.70257553057 -9464430.887626106 L181330.24676229045 -8762046.533743609 L167888.3013885734 -8111787.168826492 L155443.90279990222 -7509784.519813686 L143923.02156368236 -6952457.38394904 L133257.12208177065 -6436490.324866404 L123382.75488482257 -5958813.94967006 L114241.17918311183 -5516586.649682338 L105778.01342839649 -5107177.696237566 L97942.91180811924 -4728151.590962289 L90689.26474744843 -4377253.577444568 L83973.9216375154 -4052396.228103804 L77756.93414039457 -3751647.0264689378 L72001.31854381257 -3473216.8709943774 L66672.83575185842 -3215449.4320247252 L61739.787602916535 -2976811.2985950704 L57172.82830315136 -2755882.856451958 L52944.789853785434 -2551349.8430298925 L49030.52043368956 -2361995.5291457195 L45406.73477583154 -2186693.4809010355 L42051.87564752037 -2024400.8587346307 L38945.98561040118 -1874152.2137622596 L36070.58829733616 -1735053.7444992114 L33408.57849990166 -1606277.9798000876 L30944.12041265938 -1487058.8563855686 L28662.55342886747 -1376687.1616731856 L26550.304927235622 -1274506.314802437 L24594.809530903545 -1179908.4607563373 L22784.434358331113 -1092330.8543439966 L21108.40982142983 -1011252.5125332293 L19556.765559270727 -936191.1152185758 L18120.271126244643 -866700.1359879278 L16790.38108184387 -802366.1858192278 L15559.184155411476 -742806.5539054096 L14419.356183451457 -687666.9309783726 L13364.116539530869 -636619.3015884755 L12387.187797582632 -589359.9928011099 L11482.758388655999 -545607.8677024092 L10645.44802896454 -505102.6529675806 L9870.275713569286 -467603.39054289175 L9152.630085299383 -432887.004230638 L8488.242002638544 -400746.9726499754 L7873.159143388784 -370992.1006793061 L7303.722493035115 -343445.3820717536 L6776.54457794272 -317942.94647764106 L6288.489313900496 -294333.0846099929 L5836.653350134915 -272475.3457539623 L5418.348797811072 -252239.7022514265 L5031.087240278161 -233505.77599042343 L4672.564929937249 -216162.12229796054 L4340.649083671696 -200105.56697620387 L4033.3651953138633 -185240.5925382008 L3748.885289671725 -171478.7699919604 L3485.51704824162 -158738.2327926869 L3241.693741917575 -146943.18983379958 L3015.964910808661 -136023.4745796148 L2806.9877357205232 -125914.12765756328 L2613.519049971772 -116555.0104268602 L2434.4079440243713 -107890.44722482088 L2268.5889189352474 -99868.89416260822 L2115.0755478993588 -92442.63250014314 L1972.9546081785993 -85567.4847761182 L1841.3806485081936 -79202.55200442638 L1719.5709596628626 -73309.97037363387 L1606.8009182640442 -67854.68600214756 L1502.3996761290366 -62804.246409137355 L1405.7461695188772 -58128.60746071097 L1316.2654245445683 -53799.95464290163 L1233.4251367535626 -49792.53759825315 L1156.7325045486505 -46082.51694169134 L1085.731297602129 -42647.82244441841 L1019.9991428257325 -39468.02174219047 L959.1450117510033 -36524.198786950954 L902.8068943730145 -33798.8413187486 L850.6496456196419 -31275.73668853145 L802.3629916352762 -28939.875412087702 L757.6596840189005 -26777.361881391393 L716.2737910363167 -24775.33170219267 L677.9591156412778 -22921.87516610822 L642.4877308946876 -21205.96640196235 L609.6486240692163 -19617.39778491217 L579.2464413735399 -18146.71921316984 L551.1003258286405 -16785.181891089305 L525.0428413829745 -15524.686284194375 L500.9189768663015 -14357.733936541372 L478.5852238567891 -13277.382863787583 L457.9087229758865 -12277.206256606301 L438.76647353237865 -11351.254248783172 L421.04460181394984 -10494.01852255926 L404.63768367346916 -9700.399540664246 L389.4481173801762 -8965.676210109661 L375.3855430049902 -8285.477797277088 L362.36630488593437 -7655.757927229835 L350.31295397604686 -7072.770512574567 L339.15378711327537 -6533.047468678093 L328.8224204715817 -6033.378082671372 L319.25739465580716 -5570.789913510711 L310.4018090910613 -5142.531109474054 L302.2029835316954 -4746.054037902491 L294.61214467622835 -4379.000129803325 L287.58413602398184 -4039.1858491580915 L281.0771492473701 -3724.5897034693035 L275.0524754818788 -3433.3402182743976 L269.4742750541618 -3163.7048040892246 L264.3093642784336 -2914.079449552656 L259.5270180528444 -2682.979179458779 L255.0987870815107 -2469.0292209132094 L250.99832863490263 -2270.9568250626235 L247.20124984180092 -2087.583695746522 L243.6849625806064 -1917.8189800306309 L240.4285491067674 -1760.6527789239433 L237.41263761697596 -1615.1501396758288 L234.6192870098804 -1480.4454939145176 L232.0318801577831 -1355.7375085404633 L229.63502505441107 -1240.284318743483 L227.41446325070842 -1133.3991147857994 L225.35698503395264 -1034.446056297546 L223.4503508456089 -942.8364897796566 L221.68321847045385 -858.0254468127318 L220.04507556382748 -779.5084021404035 L218.52617711563457 -706.8182723416144 L217.11748747907507 -639.5226372374674 L215.81062661924827 -577.221167503318 L214.5978202618703 -519.5432431834362 L213.4718536455494 -466.14574894123325 L212.4260286025012 -416.711032929383 L211.45412371238348 -370.9450171375604 L210.5503572922138 -328.57544797658034 L209.70935300220322 -289.35027669199553 L208.92610786290282 -253.03615997253365 L208.19596249340057 -219.41707183376207 L207.51457339352442 -188.29301851934076 L206.87788710516006 -159.4788487750422 L206.282116098976 -132.8031524180803 L205.72371624311015 -108.10724064953854 L205.19936571978303 -85.24420204396517 L204.70594526441593 -64.07802860039453 L204.24051960970115 -44.482806655824334 L203.80032002423837 -26.34196784805465 L203.38272784186177 -9.547595671993093 L202.98525888367783 6.00021649573452 L202.6055486801433 20.393959722864878 L202.24133840527185 33.71925973380513 L201.8904614392947 46.05538628127857 L201.5508304798392 57.475724707467236 L201.22042512495184 68.04821249988132 L200.89727985409957 77.83574343894493 L200.57947233565062 86.89654174149943 L200.26511199127796 95.28450842593304 L199.95232874925767 103.04954195940086 L199.63926191975673 110.23783509460496 L199.32404912593267 116.89214966196282 L199.00481522499686 123.0520709518518 L198.67966115333584 128.75424320020232 L198.34665262933234 134.0325875783007 L198.00380864668014 138.9185039835824 L197.64908968974322 143.44105783183218 L197.28038560085312 147.627152961983 L196.89550302737007 151.5016916820933 L196.49215237383265 155.08772290858587 L196.06793418157648 158.40657928000155 L195.62032485479705 161.47800406093256 L195.14666164814372 164.32026859106304 L194.64412682653847 166.95028097799974 L194.10973090298964 169.38368668048665 L193.54029485468482 171.63496158035403 L192.93243121157056 173.7174980968704 L192.28252390491744 175.64368485577518 L191.58670675599413 177.42498038692904 L190.84084047688285 179.0719812889951 L190.04048804661883 180.59448526665054 L189.18088831617086 182.0015494153251 L188.25692768524343 183.30154410019176 L187.26310968241148 184.50220274992583 L186.19352226762553 185.61066786144602 L185.0418026625754 186.63353348931173 L183.80109949969537 187.57688447253776 L182.4640320646417 188.44633263217958 L181.02264638978414 189.24705015502198 L179.46836793751893 189.98380036196468 L177.79195059192574 190.66096604414003 L175.9834216553289 191.2825755353292 L174.0320225225579 191.85232667577714 L171.9261446799888 192.37360880996246 L169.65326064863737 192.8495229491826 L167.19984946049647 193.28290021889836 L164.55131622479036 193.67631870057718 L161.69190530566084 194.03211876822442 L158.60460659479457 194.3524170108368 L155.27105432142525 194.6391188236001 L151.67141779774968 194.89392974273375 L147.78428344982274 195.11836559141125 L143.5865274321543 195.3137614971128 L139.05317806821617 195.4812798340526 L134.15726729854313 195.62191713792848 L128.86967025271957 195.73651003412917 L123.1589319908958 195.82574021466456 L116.99108038415079 195.89013849342547 L110.32942402056145 195.93008796389796 L103.13433393475836 195.9458262781156 L95.36300786251823 195.9374470604077 L86.96921561798612 195.90490046435315 L77.90302407882405 195.84799287625324 L68.1105001432737 195.76638576335958 L57.53338989207825 195.659593660005 L46.10877204665863 195.52698127965792 L33.76868366202868 195.36775973571997 L20.439715827767714 195.18098184858502 L6.0425769719477955 194.96553651104236 L-9.508378829807242 194.72014207850467 L-26.305661346133235 194.44333874474088 L-44.4491945134819 194.1334798577581 L-64.04691086519404 193.78872212417218 L-85.21539360223767 193.40701464379563 L-108.08057012517617 192.9860867092105 L-132.77846115305135 192.52343429774857 L-159.4559898855639 192.01630517552204 L-188.27185602209443 191.46168252489196 L-219.39747983695378 190.85626699797623 L-253.01802192698705 190.19645708943733 L-289.333484697822 189.4783277117911 L-328.5599021413027 188.69760684578543 L-370.93062498187123 187.84965012694474 L-416.69770883700187 186.9294132171029 L-466.1334136495914 185.9314217965649 L-519.531823312158 184.84973899838891 L-577.2105951176951 183.6779300910592 L-639.5128494443271 182.40902419945508 L-706.8092109151801 181.0354728364 L-779.5000131759201 179.54910499810273 L-858.0176804057965 177.94107855636432 L-942.8292997293461 176.20182765838487 L-1034.439399831577 174.32100582127194 L-1133.3929523060835 172.28742438271928 L-1240.278613590565 170.08898594171976 L-1355.7322267754398 167.71261239335632 L-1480.4406041171428 165.1441671295675 L-1615.1456127576 162.3683709430723 L-1760.6485879550578 159.36871113418434 L-1917.8151000797875 156.12734327980544 L-2087.5801037326096 152.62498508024345 L-2270.9534996174134 148.84080165236617 L-2469.026142254241 144.75228158672314 L-2682.9763292716775 140.3351030313241 L-2914.0768108821844 135.56298900542222 L-3163.7023612384173 130.40755108260427 L-3433.337956711188 124.83812051327425 L-3724.5876097400674 118.8215657819187 L-4039.18391080762 112.32209551382823 L-4378.998335300729 105.30104555881017 L-4746.052376572606 97.7166489852885 L-5142.529571433933 89.52378761652734 L-5570.788489610839 80.67372363092066 L-6033.376764441229 71.11380962967402 L-6533.046248275773 60.78717544713925 L-7072.769382740121 49.632389840683516 L-7655.756881242085 37.5830950475582 L-8285.476828913645 24.56761203479718 L-8965.675313609912 10.508514093871753 L-9700.398710695079 -4.677833756517998 L-10494.01775418334 -21.081772299540063 L-11351.253537429575 -38.800885540874816 L-12277.205598043316 -57.94058121798258 L-13277.382254097536 -78.6147178512922 L-14357.733372097331 -100.94628206754777 L-15524.685761638566 -125.06812022457314 L-16785.181407313143 -151.1237286897516 L-18146.718765295427 -179.26810747347656 L-19617.397370275186 -209.66868229560725 L-21205.96601809619 -242.5063005702263 L-22921.874810729343 -277.97630723354246 L-24775.33137318699 -316.289706814906 L-26777.36157680171 -357.6744186638572 L-28939.875130102075 -402.37663280028664 L-31275.7364274724 -450.66227445348636 L-33798.84107706312 -502.8185860022927 L-36524.19856320132 -559.1558357270517 L-39468.02153504563 -620.0091635383984 L-42647.822252646096 -685.7405746627805 L-46082.51676415074 -756.7410931448138 L-49792.53743388809 -833.4330879772206 L-53799.95449073436 -916.2727856960707 L-58128.60731983626 -1005.7529843883556 L-62804.24627871716 -1102.4059852569194 L-67854.68588140604 -1206.806759182126 L-73309.97026185277 -1319.5763671177156 L-79202.5519009407 -1441.3856546677798 L-85567.48468031235 -1572.9592428236365 L-92442.63241144718 -1715.0798386004424 L-99868.89408049453 -1868.5928912170257 L-107890.44714880096 -2034.4116215172262 L-116555.01035648186 -2213.5224545523824 L-125914.1275924078 -2406.990887642168 L-136023.4745192946 -2615.9678288214664 L-146943.18977795582 -2841.6964433803346 L-158738.2327409874 -3085.5195492247985 L-171478.7699440976 -3348.8876050532 L-185240.59249389 -3633.3673388674333 L-200105.56693518138 -3940.651068148979 L-216162.1222599824 -4272.566767143472 L-233505.77595526376 -4631.08894114259 L-252239.70221887605 -5018.35037245183 L-272475.3457238275 -5436.654807919194 L-294333.0845820944 -5888.490663500496 L-317942.946451813 -6376.54582738685 L-343445.38204784226 -6903.723649756165 L-370992.1006571692 -7473.160214267725 L-400746.9726294814 -8088.242994045959 L-432887.00421166484 -8752.631003133123 L-467603.3905253267 -9470.276563289126 L-505102.65295131906 -10245.448815625337 L-545607.8676873543 -11082.759116937668 L-589359.9927871722 -11987.188471817242 L-636619.3015755722 -12964.117163729496 L-687666.930966427 -14019.356761327517 L-742806.5538943507 -15159.184690402404 L-802366.1858089895 -16390.381577132393 L-866700.1359784493 -17720.271584777154 L-936191.1152098008 -19156.76598377466 L-1011252.5125251055 -20708.410214430573 L-1092330.8543364755 -22384.43472216668 L-1179908.4607493742 -24194.809867738593 L-1274506.314795991 -26150.305239073463 L-1376687.1616672177 -28262.553717563373 L-1487058.8563800438 -30544.120679930544 L-1606277.9797949726 -33008.5787473386 L-1735053.7444944764 -35670.588526410036 L-1874152.2137578758 -38545.98582247534 L-2024400.8587305723 -41651.875843856054 L-2186693.4808972785 -45006.73495759737 L-2361995.5291422405 -48630.520601965996 L-2551349.843026672 -52544.79000957427 L-2755882.856448976 -56772.8284473783 L-2976811.29859231 -61339.78773644037 L-3215449.432022169 -66272.8358754723 L-3473216.8709920123 -71601.31865825297 L-3751647.0264667477 -77356.93424634283 L-4052396.2281017764 -83573.92173560002 L-4377253.577442692 -90289.26483825462 L-4728151.59096055 -97542.91189218641 L-5107177.696235957 -105378.01350622556 L-5516586.64968085 -113841.17925516405 L-5958813.94966868 -122982.75495152737 L-6436490.324865127 -132857.1221435248 L-6952457.383947859 -143523.02162085508 L-7509784.519812591 -155043.90285283013 L-8111787.168825479 -167488.30143757554 L-8762046.53374267 -180930.24680765579 L-9464430.887625238 -195449.7026175282 L-10223118.58548237 -211133.04243257598 L-11042622.920534728 -228073.5635495198 L-11927818.97296377 -246372.04200483506 L-12883972.61086485 -266137.33207280876 L-13916771.81592539 -287487.01381955144 L-15032360.520179154 -310548.0925651179 L-16237375.155125309 -335457.754414754 L-17538984.13063544 -362364.1823537315 L-18944930.478502095 -391427.43776060455 L-20463577.91430747 -422820.41258283437 L-22103960.591624957 -456729.85783911136 L-23875836.844532948 -493357.4945667348 L-25789747.238145187 -532921.2138228515 L-27857077.272488683 -575656.3728781923 L-30090125.1127445 -621817.1953140718 L-32502174.748764373 -671678.2833516098 L-35107575.019076854 -725536.2514096871 L-37921824.96948245 -783711.4906094591 L-40961666.0540188 -846550.0747220423 L-44245181.72678371 -914425.8188975421 L-47791905.01706971 -987742.503422529 L-51622934.727752894 -1066936.2757344225 L-55761060.94818176 -1152478.244982231 L-60230900.62821581 -1244877.2845679848 L-65059044.019921064 -1344683.0593408088 L-70274212.85807726 -1452489.295451685 L-75907431.2204815 -1568937.3123209674 L-81992210.08446741 -1694719.8377292429 L-88564746.67752875 -1830585.1287272056 L-95664139.80795269 -1977341.4228789129 L-103332622.456421 -2135861.74631799 L-111615813.0122238 -2307089.107219167 L-120562986.6486456 -2492042.105579917 L-130227368.4518881 -2691820.9926841776 L-140666450.04729033 -2907614.2162942705 L-151942331.60640875 -3140705.490507473 L-164122091.26948923 -3392481.4323345725 L-177278184.18094927 -3664439.810428744 L-191488873.51167798 -3958198.4550350634 L-206838696.03220585 -4275504.8821643405 L-223418965.00636563 -4618246.689243732 L-241328313.39706165 -4988462.784085645 L-260673280.61557928 -5388355.5139743965 L-281568946.3048981 -5820303.767024132 L-304139614.9272691 -6286877.123745839 L-328519555.2285356 -6790851.143007418 L-354853798.9781561 -7335223.873322078 L-383299003.7364426 -7923233.687685956 L-414024384.78151435 -8558378.54806211 L-447212721.73977894 -9244436.814111039 L-483061445.90822977 -9985489.719955737 L-521783814.7368262 -10785945.6526908 L-563610180.457742 -11650566.377064653 L-608789360.4083197 -12584495.362339966 L-657590117.1995316 -13593288.379843632 L-710302757.5351946 -14682946.553226193 L-767240859.193023 -15859952.058039786 L-828743136.4410065 -17131306.683005556 L-895175454.9861364 -18504573.482363433 L-966933008.4420335 -19987921.767086912 L-1044442669.262888 -21590175.702608477 L-1128165528.1289802 -23320866.80215242 L-1218599636.8901038 -25190290.627948876 L-1316282971.3842077 -27209568.037635922 L-1421796631.756443 -29390711.34019077 L-1535768299.3167818 -31746695.754941143 L-1658875970.5003932 -34291536.59875218 L-1791851990.14342 -37040372.660562314 L-1935487408.067374 -40009556.259247586 L-2090636684.8886616 -43216750.520551376 L-2258222775.047237 -46681034.45176185 L-2439242617.292385 -50423016.439209536 L-2634773065.2875137 -54464956.8437558 L-2845977293.614038 -58830900.42357805 L-3074111717.282489 -63546819.37199859 L-3320533465.9137516 -68640767.821278 L-3586708457.052896 -74143048.73147096 L-3874220116.6424193 -80086394.15715161 L-4184778798.5311685 -86506159.96436822 L-4520231959.054023 -93440536.15617199 L-4882575147.208987 -100930774.05790353 L-5273963875.810216 -109021431.71372223 L-5696726444.23629 -117760638.95419183 L-6153377789.053919 -127200383.71176977 L-6646634444.911831 -137396821.28743127 L-7179430704.704515 -148410608.40820193 L-7754936075.139587 -160307264.06283978 L-8376574131.5487795 -173157559.26221687 L-9048042884.106339 -187037938.04302254 L-9773336776.609566 -202030972.21922687 L-10556770448.68862 -218225852.58659366 L-11403004402.801962 -235718919.5022646 L-12317072728.706196 -254614235.99578753 L-13304413050.327778 -275024206.82089263 L-14370898873.185108 -297070247.13063884 L-15522874524.789883 -320883504.7537726 L-16767192895.8816 -346605640.3689908 L-18111256207.01098 -374389670.2181836 L-19563060042.985138 -404400876.37184566 L-21131240917.127304 -436817789.96163994 L-22825127648.302094 -471833253.2291883 L-24654796856.3388 -509655566.70899147 L-26631132905.984844 -550509728.3699175 L-28765892655.984325 -594638772.0866144 L-31071775398.46337 -642305213.4032344 L-33562498404.677063 -693792611.1899978 L-36252878526.526886 -749407254.4826055 L-39158920339.28061 -809479984.5392742 L-42297911349.839516 -874368162.9543438 L-45688524836.9293 -944457797.5365232 L-49350930934.992065 -1020165838.5981693 L-53306916622.59696 -1101942659.3158162 L-57580015329.158424 -1190274734.917134 L-62195646930.968414 -1285687536.6324046 L-67181268969.35365 -1388748657.625943 L-72566539990.525 -1500071189.5031755 L-78383495978.80168 -1620317369.4795606 L-84666740932.77399 -1750202519.9076686 L-91453652718.11072 -1890499303.5979898 L-98784605421.58812 -2042042320.2474601 L-106703209529.09253 -2205733071.319267 L-115256571356.35286 -2382545322.9087043 L-124495573275.73206 -2573530898.498197 L-134475176406.07611 -2779825936.061261 L-145254747566.27667 -3002657646.737771 L-156898412437.52692 -3243351615.2867517 L-169475437035.1827 -3503339685.7457466 L-183060639759.5056 -3784168479.206942 L-197734836476.5381 -4087508594.380774 L-213585321276.7876 -4415164545.6798725 L-230706385771.66846 -4769085497.942141 L-249199880016.9239 -5151376861.653479 L-269175818399.81714 -5564312817.646179 L-290753034094.44006 -6010349845.781466 L-314059885978.35406 -6492141338.095338 L-339235022215.8855 -7012553383.338438 L-366428205050.4837 -7574681816.809385 L-395801201712.7056 -8181870636.908716 L-427528746743.62946 -8837731897.967901 L-461799581458.4267 -9546167197.695343 L-498817576733.6432 -10311390887.061296 L-538802945797.4535 -11137955140.694805 L-581993554237.5433 -12030777036.931063 L-628646335019.6418 -12995167808.60422 L-679038816934.3514 -14036864438.591585 L-733470775564.7552 -15162063788.067507 L-792266016596.0675 -16377459460.486908 L-855774302075.9913 -17690281620.599567 L-924373431084.5923 -19108340005.365654 L-998471487191.4048 -20640070382.64148 L-1078509266069.3251 -22294584734.006756 L-1164962897706.7986 -24081725460.26331 L-1258346678817.301 -26012123932.061714 L-1359216132295.7222 -28097263733.96665 L-1468171311921.5466 -30349548978.181995 L-1585860371968.2124 -32782378094.32859 L-1712983422953.3547 -35410223534.23088 L-1850296696467.1326 -38248717865.864136 L-1998617043854.6162 -41314746768.62012 L-2158826795513.7334 -44626549483.097824 L-2331879009716.153 -48203827312.98563 L-2518803142175.2007 -52067860824.48176 L-2720711170088.089 -56241636440.46012 L-2938804207083.178 -60749983182.46044 L-3174379648423.5757 -65619720373.961 L-3428838888972.233 -70879817183.58653 L-3703695659831.6313 -76561564957.35254 L-4000585033250.986 -82698763365.112 L-4321273149369.5825 -89327921468.55951 L-4667667722658.748 -96488474906.9069 L-5041829390563.569 -104223020492.23058 " stroke = "blue" stroke-width = "4" fill = "none" />	<path d = "M1452889 -70274213 L65059444.019921064 1345083.0593408088 L60231300.62821581 1245277.2845679848 L55761460.94818176 1152878.244982231 L51623334.727752894 1067336.2757344225 L47792305.01706971 988142.503422529 L44245581.72678371 914825.8188975421 L40962066.0540188 846950.0747220423 L37922224.96948245 784111.4906094591 L35107975.019076854 725936.2514096871 L32502574.748764373 672078.2833516098 L30090525.1127445 622217.1953140718 L27857477.272488683 576056.3728781923 L25790147.238145187 533321.2138228515 L23876236.844532948 493757.4945667348 L22104360.591624957 457129.85783911136 L20463977.91430747 423220.41258283437 L18945330.478502095 391827.43776060455 L17539384.13063544 362764.1823537315 L16237775.155125309 335857.754414754 L15032760.520179154 310948.0925651179 L13917171.81592539 287887.01381955144 L12884372.61086485 266537.33207280876 L11928218.97296377 246772.04200483506 L11043022.920534728 228473.5635495198 L10223518.58548237 211533.04243257598 L9464830.887625238 195849.7026175282 L8762446.53374267 181330.24680765579 L8112187.168825479 167888.30143757554 L7510184.519812591 155443.90285283013 L6952857.383947859 143923.02162085508 L6436890.324865127 133257.1221435248 L5959213.94966868 123382.75495152737 L5516986.64968085 114241.17925516405 L5107577.696235957 105778.01350622556 L4728551.59096055 97942.91189218641 L4377653.577442692 90689.26483825462 L4052796.2281017764 83973.92173560002 L3752047.0264667477 77756.93424634283 L3473616.8709920123 72001.31865825297 L3215849.432022169 66672.8358754723 L2977211.29859231 61739.78773644037 L2756282.856448976 57172.8284473783 L2551749.843026672 52944.79000957427 L2362395.5291422405 49030.520601965996 L2187093.4808972785 45406.73495759737 L2024800.8587305723 42051.875843856054 L1874552.2137578758 38945.98582247534 L1735453.7444944764 36070.588526410036 L1606677.9797949726 33408.5787473386 L1487458.8563800438 30944.120679930544 L1377087.1616672177 28662.553717563373 L1274906.314795991 26550.305239073463 L1180308.4607493742 24594.809867738593 L1092730.8543364755 22784.43472216668 L1011652.5125251055 21108.410214430573 L936591.1152098008 19556.76598377466 L867100.1359784493 18120.271584777154 L802766.1858089895 16790.381577132393 L743206.5538943507 15559.184690402404 L688066.930966427 14419.356761327517 L637019.3015755722 13364.117163729496 L589759.9927871722 12387.188471817242 L546007.8676873543 11482.759116937668 L505502.65295131906 10645.448815625337 L468003.3905253267 9870.276563289126 L433287.00421166484 9152.631003133123 L401146.9726294814 8488.242994045959 L371392.1006571692 7873.160214267725 L343845.38204784226 7303.723649756165 L318342.946451813 6776.54582738685 L294733.0845820944 6288.490663500496 L272875.3457238275 5836.654807919194 L252639.70221887605 5418.35037245183 L233905.77595526376 5031.08894114259 L216562.1222599824 4672.566767143472 L200505.56693518138 4340.651068148979 L185640.59249389 4033.3673388674333 L171878.7699440976 3748.8876050532 L159138.2327409874 3485.5195492247985 L147343.18977795582 3241.6964433803346 L136423.4745192946 3015.9678288214664 L126314.1275924078 2806.990887642168 L116955.01035648186 2613.5224545523824 L108290.44714880096 2434.411621517226 L100268.89408049453 2268.5928912170257 L92842.63241144718 2115.0798386004426 L85967.48468031235 1972.9592428236365 L79602.5519009407 1841.3856546677798 L73709.97026185277 1719.5763671177156 L68254.68588140604 1606.806759182126 L63204.24627871716 1502.4059852569194 L58528.60731983626 1405.7529843883556 L54199.95449073436 1316.2727856960707 L50192.53743388809 1233.4330879772206 L46482.51676415074 1156.741093144814 L43047.822252646096 1085.7405746627805 L39868.02153504563 1020.0091635383984 L36924.19856320132 959.1558357270517 L34198.84107706312 902.8185860022927 L31675.7364274724 850.6622744534864 L29339.875130102075 802.3766328002866 L27177.36157680171 757.6744186638572 L25175.33137318699 716.289706814906 L23321.874810729343 677.9763072335425 L21605.96601809619 642.5063005702264 L20017.397370275186 609.6686822956073 L18546.718765295427 579.2681074734766 L17185.181407313143 551.1237286897516 L15924.685761638566 525.0681202245731 L14757.733372097331 500.94628206754777 L13677.382254097536 478.6147178512922 L12677.205598043316 457.9405812179826 L11751.253537429575 438.8008855408748 L10894.01775418334 421.08177229954003 L10100.398710695079 404.677833756518 L9365.675313609912 389.4914859061282 L8685.476828913645 375.4323879652028 L8055.756881242085 362.41690495244177 L7472.769382740121 350.3676101593165 L6933.046248275773 339.21282455286075 L6433.376764441229 328.88619037032595 L5970.788489610839 319.3262763690793 L5542.529571433933 310.47621238347267 L5146.052376572606 302.2833510147115 L4778.998335300729 294.6989544411898 L4439.18391080762 287.67790448617177 L4124.587609740067 281.1784342180813 L3833.337956711188 275.16187948672575 L3563.7023612384173 269.5924489173957 L3314.0768108821844 264.4370109945778 L3082.9763292716775 259.66489696867586 L2869.026142254241 255.24771841327686 L2670.9534996174134 251.15919834763383 L2487.5801037326096 247.37501491975655 L2317.8151000797875 243.87265672019456 L2160.648587955058 240.63128886581566 L2015.1456127576 237.6316290569277 L1880.4406041171428 234.8558328704325 L1755.7322267754398 232.28738760664368 L1640.278613590565 229.91101405828024 L1533.3929523060835 227.71257561728072 L1434.439399831577 225.67899417872806 L1342.829299729346 223.79817234161513 L1258.0176804057965 222.05892144363568 L1179.5000131759202 220.45089500189727 L1106.80921091518 218.9645271636 L1039.512849444327 217.59097580054492 L977.2105951176951 216.3220699089408 L919.531823312158 215.15026100161109 L866.1334136495914 214.0685782034351 L816.6977088370019 213.0705867828971 L770.9306249818712 212.15034987305526 L728.5599021413027 211.30239315421457 L689.333484697822 210.5216722882089 L653.0180219269871 209.80354291056267 L619.3974798369538 209.14373300202377 L588.2718560220944 208.53831747510804 L559.4559898855639 207.98369482447796 L532.7784611530514 207.47656570225143 L508.08057012517617 207.0139132907895 L485.21539360223767 206.59298535620437 L464.04691086519404 206.21127787582782 L444.44919451348187 205.8665201422419 L426.3056613461332 205.55666125525912 L409.50837882980727 205.27985792149533 L393.9574230280522 205.03446348895764 L379.5602841722323 204.81901815141498 L366.2313163379713 204.63224026428003 L353.8912279533414 204.47301872034208 L342.4666101079217 204.340406339995 L331.8894998567263 204.23361423664042 L322.09697592117595 204.15200712374676 L313.03078438201385 204.09509953564685 L304.6369921374818 204.0625529395923 L296.8656660652416 204.0541737218844 L289.6705759794386 204.06991203610204 L283.0089196158492 204.10986150657453 L276.8410680091042 204.17425978533544 L271.1303297472804 204.26348996587083 L265.84273270145684 204.37808286207152 L260.9468219317838 204.5187201659474 L256.4134725678457 204.6862385028872 L252.21571655017726 204.88163440858875 L248.32858220225032 205.10607025726625 L244.72894567857475 205.3608811763999 L241.39539340520543 205.6475829891632 L238.30809469433916 205.96788123177558 L235.44868377520964 206.32368129942282 L232.80015053950353 206.71709978110164 L230.34673935136263 207.1504770508174 L228.0738553200112 207.62639119003754 L225.9679774774421 208.14767332422286 L224.0165783446711 208.7174244646708 L222.20804940807426 209.33903395585997 L220.53163206248107 210.01619963803532 L218.97735361021586 210.75294984497802 L217.5359679353583 211.55366736782042 L216.19890050030463 212.42311552746224 L214.9581973374246 213.36646651068827 L213.80647773237447 214.38933213855398 L212.73689031758852 215.49779725007417 L211.74307231475657 216.69845589980824 L210.81911168382914 217.9984505846749 L209.95951195338117 219.40551473334946 L209.15915952311715 220.9280187110049 L208.41329324400587 222.57501961307096 L207.71747609508256 224.35631514422482 L207.06756878842944 226.2825019031296 L206.45970514531518 228.36503841964597 L205.89026909701036 230.61631331951335 L205.35587317346153 233.04971902200026 L204.85333835185628 235.67973140893696 L204.37967514520295 238.52199593906744 L203.93206581842352 241.59342071999845 L203.50784762616735 244.91227709141413 L203.10449697262993 248.4983083179067 L202.71961439914688 252.372847038017 L202.35091031025678 256.5589421681678 L201.99619135331986 261.0814960164176 L201.65334737066766 265.9674124216993 L201.32033884666416 271.2457567997977 L200.99518477500314 276.9479290481482 L200.67595087406733 283.10785033803717 L200.36073808024327 289.762164905395 L200.04767125074233 296.95045804059913 L199.73488800872204 304.71549157406696 L199.42052766434938 313.10345825850055 L199.10272014590043 322.1642565610551 L198.77957487504816 331.9517875001187 L198.4491695201608 342.52427529253276 L198.1095385607053 353.9446137187214 L197.75866159472815 366.28074026619487 L197.3944513198567 379.6060402771351 L197.01474111632217 393.99978350426545 L196.61727215813823 409.5475956719931 L196.19967997576163 426.34196784805465 L195.75948039029885 444.48280665582433 L195.29405473558407 464.07802860039453 L194.80063428021697 485.2442020439652 L194.27628375688985 508.10724064953854 L193.717883901024 532.8031524180803 L193.12211289483994 559.4788487750423 L192.48542660647558 588.2930185193408 L191.80403750659943 619.4170718337621 L191.07389213709718 653.0361599725336 L190.29064699779678 689.3502766919955 L189.4496427077862 728.5754479765803 L188.54587628761652 770.9450171375604 L187.5739713974988 816.711032929383 L186.5281463544506 866.1457489412333 L185.4021797381297 919.5432431834362 L184.18937338075173 977.221167503318 L182.88251252092493 1039.5226372374673 L181.47382288436543 1106.8182723416144 L179.95492443617252 1179.5084021404036 L178.31678152954615 1258.0254468127318 L176.5496491543911 1342.8364897796566 L174.64301496604736 1434.446056297546 L172.58553674929158 1533.3991147857994 L170.36497494558893 1640.284318743483 L167.9681198422169 1755.7375085404633 L165.3807129901196 1880.4454939145176 L162.58736238302404 2015.1501396758288 L159.5714508932326 2160.6527789239435 L156.3150374193936 2317.818980030631 L152.79875015819908 2487.583695746522 L149.00167136509737 2670.9568250626235 L144.9012129184893 2869.0292209132094 L140.47298194715557 3082.979179458779 L135.6906357215664 3314.079449552656 L130.5257249458382 3563.7048040892246 L124.9475245181212 3833.3402182743976 L118.92285075262991 4124.5897034693035 L112.41586397601814 4439.1858491580915 L105.38785532377166 4779.000129803325 L97.79701646830459 5146.054037902491 L89.5981909089387 5542.531109474054 L80.74260534419281 5970.789913510711 L71.1775795284183 6433.378082671372 L60.84621288672463 6933.047468678093 L49.687046023953144 7472.770512574567 L37.63369511406563 8055.757927229835 L24.61445699500979 8685.477797277088 L10.5518826198238 9365.676210109661 L-4.637683673469155 10100.399540664246 L-21.044601813949868 10894.01852255926 L-38.76647353237868 11751.254248783172 L-57.90872297588652 12677.206256606301 L-78.58522385678913 13677.382863787583 L-100.91897686630148 14757.733936541372 L-125.04284138297459 15924.686284194375 L-151.1003258286405 17185.181891089305 L-179.24644137354 18546.71921316984 L-209.6486240692164 20017.39778491217 L-242.48773089468762 21605.96640196235 L-277.9591156412778 23321.87516610822 L-316.27379103631665 25175.33170219267 L-357.6596840189005 27177.361881391393 L-402.3629916352762 29339.875412087702 L-450.6496456196419 31675.73668853145 L-502.80689437301453 34198.8413187486 L-559.1450117510033 36924.198786950954 L-619.9991428257325 39868.02174219047 L-685.731297602129 43047.82244441841 L-756.7325045486505 46482.51694169134 L-833.4251367535626 50192.53759825315 L-916.2654245445683 54199.95464290163 L-1005.7461695188772 58528.60746071097 L-1102.3996761290366 63204.246409137355 L-1206.8009182640442 68254.68600214756 L-1319.5709596628626 73709.97037363387 L-1441.3806485081936 79602.55200442638 L-1572.9546081785993 85967.4847761182 L-1715.0755478993588 92842.63250014314 L-1868.5889189352474 100268.89416260822 L-2034.4079440243713 108290.44722482088 L-2213.519049971772 116955.0104268602 L-2406.9877357205232 126314.12765756328 L-2615.964910808661 136423.4745796148 L-2841.693741917575 147343.18983379958 L-3085.51704824162 159138.2327926869 L-3348.885289671725 171878.7699919604 L-3633.3651953138633 185640.5925382008 L-3940.6490836716957 200505.56697620387 L-4272.564929937249 216562.12229796054 L-4631.087240278161 233905.77599042343 L-5018.348797811072 252639.7022514265 L-5436.653350134915 272875.3457539623 L-5888.489313900496 294733.0846099929 L-6376.54457794272 318342.94647764106 L-6903.722493035115 343845.3820717536 L-7473.159143388784 371392.1006793061 L-8088.242002638544 401146.9726499754 L-8752.630085299383 433287.004230638 L-9470.275713569286 468003.39054289175 L-10245.44802896454 505502.6529675806 L-11082.758388655999 546007.8677024092 L-11987.187797582632 589759.9928011099 L-12964.116539530869 637019.3015884755 L-14019.356183451457 688066.9309783726 L-15159.184155411476 743206.5539054096 L-16390.38108184387 802766.1858192278 L-17720.271126244643 867100.1359879278 L-19156.765559270727 936591.1152185758 L-20708.40982142983 1011652.5125332293 L-22384.434358331113 1092730.8543439966 L-24194.809530903545 1180308.4607563373 L-26150.304927235622 1274906.314802437 L-28262.55342886747 1377087.1616731856 L-30544.12041265938 1487458.8563855686 L-33008.57849990166 1606677.9798000876 L-35670.58829733616 1735453.7444992114 L-38545.98561040118 1874552.2137622596 L-41651.87564752037 2024800.8587346307 L-45006.73477583154 2187093.4809010355 L-48630.52043368956 2362395.5291457195 L-52544.789853785434 2551749.8430298925 L-56772.82830315136 2756282.856451958 L-61339.787602916535 2977211.2985950704 L-66272.83575185842 3215849.4320247252 L-71601.31854381257 3473616.8709943774 L-77356.93414039457 3752047.0264689378 L-83573.9216375154 4052796.228103804 L-90289.26474744843 4377653.577444568 L-97542.91180811924 4728551.590962289 L-105378.01342839649 5107577.696237566 L-113841.17918311183 5516986.649682338 L-122982.75488482257 5959213.94967006 L-132857.12208177065 6436890.324866404 L-143523.02156368236 6952857.38394904 L-155043.90279990222 7510184.519813686 L-167488.3013885734 8112187.168826492 L-180930.24676229045 8762446.533743609 L-195449.70257553057 9464830.887626106 L-211133.0423936974 10223518.585483173 L-228073.56351352631 11043022.920535471 L-246372.04197151033 11928218.97296446 L-266137.3320419577 12884372.610865487 L-287487.01379098784 13917171.815925976 L-310548.09253867524 15032760.5201797 L-335457.75439027674 16237775.15512582 L-362364.1823310715 17539384.13063591 L-391427.43773962406 18945330.47850253 L-422820.4125634116 20463977.914307874 L-456729.85782113473 22104360.59162533 L-493357.49455009005 23876236.844533294 L-532921.2138074418 25790147.23814551 L-575656.3728639238 27857477.272488974 L-621817.1953008681 30090525.112744775 L-671678.2833393889 32502574.74876463 L-725536.2513983784 35107975.019077085 L-783711.4905989923 37922224.969482675 L-846550.0747123442 40962066.054019004 L-914425.8188885773 44245581.726783894 L-987742.5034142272 47792305.01706988 L-1066936.2757267307 51623334.72775305 L-1152478.2449751084 55761460.948181905 L-1244877.284561396 60231300.628215946 L-1344683.0593346953 65059444.0199212 L-1452489.2954460527 70274612.85807738 L-1568937.3123157574 75907831.22048162 L-1694719.8377243967 81992610.08446752 L-1830585.128722723 88565146.67752886 L-1977341.422874759 95664539.80795276 L-2135861.746314171 103333022.45642109 L-2307089.1072156117 111616213.01222387 L-2492042.105576631 120563386.64864567 L-2691820.992681162 130227768.45188817 L-2907614.216291454 140666850.04729038 L-3140705.4905048446 151942731.6064088 L-3392481.4323321786 164122491.2694893 L-3664439.8104265262 177278584.18094933 L-3958198.455032998 191489273.511678 L-4275504.882162452 206839096.0322059 L-4618246.689241972 223419365.00636563 L-4988462.784083979 241328713.39706165 L-5388355.513972871 260673680.61557934 L-5820303.767022818 281569346.3048981 L-6286877.123744641 304140014.9272691 L-6790851.143006174 328519955.22853565 L-7335223.873320951 354854198.9781561 L-7923233.687684971 383299403.7364427 L-8558378.548061242 414024784.78151435 L-9244436.81411024 447213121.73977906 L-9985489.719954891 483061845.90822977 L-10785945.65269005 521784214.7368262 L-11650566.37706409 563610580.457742 L-12584495.362339402 608789760.4083197 L-13593288.379843067 657590517.1995316 L-14682946.55322563 710303157.5351946 L-15859952.05803941 767241259.193023 L-17131306.68300532 828743536.4410065 L-18504573.482362963 895175854.9861362 L-19987921.767086536 966933408.4420335 L-21590175.70260829 1044443069.262888 L-23320866.802152235 1128165928.1289802 L-25190290.627948593 1218600036.8901038 L-27209568.03763564 1316283371.384208 L-29390711.34019058 1421797031.756443 L-31746695.75494086 1535768699.316782 L-34291536.598751895 1658876370.5003932 L-37040372.660562314 1791852390.14342 L-40009556.25924796 1935487808.067374 L-43216750.52055156 2090637084.8886616 L-46681034.45176222 2258223175.047237 L-50423016.439209536 2439243017.292385 L-54464956.84375618 2634773465.2875137 L-58830900.42357805 2845977693.614038 L-63546819.37199897 3074112117.282489 L-68640767.82127875 3320533865.9137516 L-74143048.7314717 3586708857.052896 L-80086394.15715235 3874220516.6424193 L-86506159.96436897 4184779198.5311685 L-93440536.15617274 4520232359.054023 L-100930774.05790503 4882575547.208987 L-109021431.71372297 5273964275.810216 L-117760638.95419183 5696726844.23629 L-127200383.71176977 6153378189.053919 L-137396821.2874324 6646634844.911831 L-148410608.40820342 7179431104.704515 L-160307264.06284055 7754936475.139587 L-173157559.26221988 8376574531.5487795 L-187037938.04302403 9048043284.106339 L-202030972.21922913 9773337176.609566 L-218225852.58659366 10556770848.68862 L-235718919.5022646 11403004802.801962 L-254614235.99579054 12317073128.706196 L-275024206.8208949 13304413450.327778 L-297070247.13063884 14370899273.185108 L-320883504.7537756 15522874924.789883 L-346605640.3689938 16767193295.8816 L-374389670.2181836 18111256607.01098 L-404400876.37184566 19563060442.985138 L-436817789.9616444 21131241317.1273 L-471833253.2291913 22825128048.302094 L-509655566.70899594 24654797256.3388 L-550509728.3699205 26631133305.984848 L-594638772.0866174 28765893055.984325 L-642305213.4032433 31071775798.46337 L-693792611.1900009 33562498804.677063 L-749407254.4826144 36252878926.52688 L-809479984.5392833 39158920739.2806 L-874368162.9543529 42297911749.83951 L-944457797.5365323 45688525236.9293 L-1020165838.5981814 49350931334.992065 L-1101942659.315819 53306917022.59696 L-1190274734.917146 57580015729.158424 L-1285687536.6324165 62195647330.968414 L-1388748657.625955 67181269369.35365 L-1500071189.5031817 72566540390.525 L-1620317369.4795606 78383496378.80168 L-1750202519.9076686 84666741332.77399 L-1890499303.5980077 91453653118.1107 L-2042042320.2474842 98784605821.58812 L-2205733071.319285 106703209929.09253 L-2382545322.9087043 115256571756.35286 L-2573530898.498221 124495573675.73206 L-2779825936.061285 134475176806.07611 L-3002657646.737783 145254747966.2767 L-3243351615.2867517 156898412837.52692 L-3503339685.7457705 169475437435.1827 L-3784168479.206942 183060640159.5056 L-4087508594.38081 197734836876.5381 L-4415164545.679884 213585321676.78763 L-4769085497.942141 230706386171.66846 L-5151376861.653503 249199880416.9239 L-5564312817.646203 269175818799.8171 L-6010349845.781513 290753034494.44006 L-6492141338.095386 314059886378.35406 L-7012553383.338438 339235022615.8855 L-7574681816.809482 366428205450.4837 L-8181870636.908716 395801202112.7056 L-8837731897.967974 427528747143.62946 L-9546167197.695438 461799581858.4267 L-10311390887.061344 498817577133.64307 L-11137955140.6949 538802946197.4535 L-12030777036.931255 581993554637.5433 L-12995167808.604364 628646335419.6418 L-14036864438.59173 679038817334.3516 L-15162063788.067507 733470775964.7552 L-16377459460.486908 792266016996.0675 L-17690281620.599712 855774302475.9913 L-19108340005.36585 924373431484.5923 L-20640070382.64158 998471487591.4048 L-22294584734.006855 1078509266469.3252 L-24081725460.2635 1164962898106.7986 L-26012123932.062004 1258346679217.3008 L-28097263733.966938 1359216132695.722 L-30349548978.182377 1468171312321.5466 L-32782378094.328785 1585860372368.2124 L-35410223534.23126 1712983423353.3547 L-38248717865.864525 1850296696867.1326 L-41314746768.62012 1998617044254.6162 L-44626549483.098206 2158826795913.7334 L-48203827312.98582 2331879010116.153 L-52067860824.48214 2518803142575.2007 L-56241636440.4605 2720711170488.089 L-60749983182.46102 2938804207483.178 L-65619720373.96139 3174379648823.5757 L-70879817183.58711 3428838889372.233 L-76561564957.35292 3703695660231.6313 L-82698763365.11278 4000585033650.986 L-89327921468.56027 4321273149769.5825 L-96488474906.90729 4667667723058.748 L-104223020492.23058 5041829390963.569 " stroke = "blue" stroke-width = "4" fill = "none" /></svg>