<svg width="400" height="400" viewbox = "0 0 400 400"  xmlns="http://www.w3.org/2000/svg">

<!--
<topfunctions>









function YofX(){
//foobar foobar
    X = plotparams.g*(x - plotparams.x0) - funcparams.X0;
    Y = Math.sin(funcparams.phi + (Math.PI*2*X/funcparams.T));
    if(Y >= 0){
        Y = 1;
    }
    else{
        Y = -1
    }
    y = plotparams.y0 - plotparams.G*(Y - funcparams.Y0);
}

//foo
function YofX2(){
    X = plotparams.g*(x - plotparams.x0) - funcparams.X0;
    Y = Math.sin(0.5*Math.PI + funcparams.phi + (Math.PI*2*X/funcparams.T));    
    y = plotparams.y0 - plotparams.G*(Y - funcparams.Y0);
 }



function plotfunction(){

/*
    currentStroke = "blue";
    currentLineWidth = 4;
    ctx.strokeStyle = currentStroke;
    ctx.lineWidth = currentLineWidth;
    ctx.beginPath();	
    x = 0;
    y = 0;
    t= 0;
    XYofT();
    currentSVG += "	<path d = \"M";
    currentSVG += Math.round(x).toString() + " ";
    currentSVG += Math.round(y).toString() + " ";
    for(t = 1;t < plotparams.duration;t++){
        ctx.moveTo(x,y);
        XYofT();
        ctx.lineTo(x,y);
        currentSVG += "L" + x + " " + y + " ";
    }
    ctx.stroke();
    currentSVG += "\""+ " stroke = \"" + currentStroke + "\" stroke-width = \"" + currentLineWidth.toString() + "\" fill = \"" + "none" + "\" "+"/>";


    /*plot one function:*/
    currentStroke = "blue";
    currentLineWidth = 4;
    ctx.strokeStyle = currentStroke;
    ctx.lineWidth = currentLineWidth;
    ctx.beginPath();	
    x = 0;
    YofX();
    currentSVG += "	<path d = \"M";
    currentSVG += Math.round(x).toString() + " ";
    currentSVG += Math.round(y).toString() + " ";
    for(x = 1;x < plotparams.plotwidth;x++){
        ctx.moveTo(x-1,y);
        YofX();
        ctx.lineTo(x,y);
        currentSVG += "L" + x + " " + y + " ";
    }
    ctx.stroke();
    currentSVG += "\""+ " stroke = \"" + currentStroke + "\" stroke-width = \"" + currentLineWidth.toString() + "\" fill = \"" + "none" + "\" "+"/>";
    /*finish plot one function*/
    
    

}



























</topfunctions>
-->

<!--
<imgurl>

</imgurl>
-->

<!--
<currentjson>
{
    "constants": {},
    "imgurl": "",
    "plotparams": {
        "G": 75.13148009015778,
        "g": 0.013513057093103952,
        "duration": 409.8080732190423,
        "plotwidth": 400,
        "plotheight": 400,
        "x0": 101.33887168983345,
        "y0": 200
    },
    "funcparams": {
        "phi": 0.2688139066614501,
        "T": 1.4465183912692552,
        "X0": 0,
        "Y0": 0
    }
}
</currentjson>
-->

<!--
<equation>




<h2>Sin</h2>
<p style="color:blue">

</p><p class="bigeq">
$$
square wave
$$
</p>
<p></p>

$$
X = g(x - x_0) - X_0
$$
$$
Y = f(X)
$$
    
$$
y = y_0 - G(Y - Y_0)
$$


<p>
    X and Y, and $X_0$ and $Y_0$ in physical units of the System. x and y and x0 and y0 in pixels.  G is in pixels per Y unit and g is in X units per pixel. 
</p>





</equation>
-->
	<path d = "M0 125 L1 124.86851990984222 L2 124.86851990984222 L3 124.86851990984222 L4 124.86851990984222 L5 124.86851990984222 L6 124.86851990984222 L7 124.86851990984222 L8 124.86851990984222 L9 124.86851990984222 L10 124.86851990984222 L11 124.86851990984222 L12 124.86851990984222 L13 124.86851990984222 L14 124.86851990984222 L15 124.86851990984222 L16 124.86851990984222 L17 124.86851990984222 L18 124.86851990984222 L19 124.86851990984222 L20 124.86851990984222 L21 124.86851990984222 L22 124.86851990984222 L23 124.86851990984222 L24 124.86851990984222 L25 124.86851990984222 L26 124.86851990984222 L27 124.86851990984222 L28 124.86851990984222 L29 124.86851990984222 L30 124.86851990984222 L31 124.86851990984222 L32 124.86851990984222 L33 124.86851990984222 L34 124.86851990984222 L35 124.86851990984222 L36 124.86851990984222 L37 124.86851990984222 L38 124.86851990984222 L39 124.86851990984222 L40 124.86851990984222 L41 124.86851990984222 L42 124.86851990984222 L43 124.86851990984222 L44 275.13148009015777 L45 275.13148009015777 L46 275.13148009015777 L47 275.13148009015777 L48 275.13148009015777 L49 275.13148009015777 L50 275.13148009015777 L51 275.13148009015777 L52 275.13148009015777 L53 275.13148009015777 L54 275.13148009015777 L55 275.13148009015777 L56 275.13148009015777 L57 275.13148009015777 L58 275.13148009015777 L59 275.13148009015777 L60 275.13148009015777 L61 275.13148009015777 L62 275.13148009015777 L63 275.13148009015777 L64 275.13148009015777 L65 275.13148009015777 L66 275.13148009015777 L67 275.13148009015777 L68 275.13148009015777 L69 275.13148009015777 L70 275.13148009015777 L71 275.13148009015777 L72 275.13148009015777 L73 275.13148009015777 L74 275.13148009015777 L75 275.13148009015777 L76 275.13148009015777 L77 275.13148009015777 L78 275.13148009015777 L79 275.13148009015777 L80 275.13148009015777 L81 275.13148009015777 L82 275.13148009015777 L83 275.13148009015777 L84 275.13148009015777 L85 275.13148009015777 L86 275.13148009015777 L87 275.13148009015777 L88 275.13148009015777 L89 275.13148009015777 L90 275.13148009015777 L91 275.13148009015777 L92 275.13148009015777 L93 275.13148009015777 L94 275.13148009015777 L95 275.13148009015777 L96 275.13148009015777 L97 124.86851990984222 L98 124.86851990984222 L99 124.86851990984222 L100 124.86851990984222 L101 124.86851990984222 L102 124.86851990984222 L103 124.86851990984222 L104 124.86851990984222 L105 124.86851990984222 L106 124.86851990984222 L107 124.86851990984222 L108 124.86851990984222 L109 124.86851990984222 L110 124.86851990984222 L111 124.86851990984222 L112 124.86851990984222 L113 124.86851990984222 L114 124.86851990984222 L115 124.86851990984222 L116 124.86851990984222 L117 124.86851990984222 L118 124.86851990984222 L119 124.86851990984222 L120 124.86851990984222 L121 124.86851990984222 L122 124.86851990984222 L123 124.86851990984222 L124 124.86851990984222 L125 124.86851990984222 L126 124.86851990984222 L127 124.86851990984222 L128 124.86851990984222 L129 124.86851990984222 L130 124.86851990984222 L131 124.86851990984222 L132 124.86851990984222 L133 124.86851990984222 L134 124.86851990984222 L135 124.86851990984222 L136 124.86851990984222 L137 124.86851990984222 L138 124.86851990984222 L139 124.86851990984222 L140 124.86851990984222 L141 124.86851990984222 L142 124.86851990984222 L143 124.86851990984222 L144 124.86851990984222 L145 124.86851990984222 L146 124.86851990984222 L147 124.86851990984222 L148 124.86851990984222 L149 124.86851990984222 L150 124.86851990984222 L151 275.13148009015777 L152 275.13148009015777 L153 275.13148009015777 L154 275.13148009015777 L155 275.13148009015777 L156 275.13148009015777 L157 275.13148009015777 L158 275.13148009015777 L159 275.13148009015777 L160 275.13148009015777 L161 275.13148009015777 L162 275.13148009015777 L163 275.13148009015777 L164 275.13148009015777 L165 275.13148009015777 L166 275.13148009015777 L167 275.13148009015777 L168 275.13148009015777 L169 275.13148009015777 L170 275.13148009015777 L171 275.13148009015777 L172 275.13148009015777 L173 275.13148009015777 L174 275.13148009015777 L175 275.13148009015777 L176 275.13148009015777 L177 275.13148009015777 L178 275.13148009015777 L179 275.13148009015777 L180 275.13148009015777 L181 275.13148009015777 L182 275.13148009015777 L183 275.13148009015777 L184 275.13148009015777 L185 275.13148009015777 L186 275.13148009015777 L187 275.13148009015777 L188 275.13148009015777 L189 275.13148009015777 L190 275.13148009015777 L191 275.13148009015777 L192 275.13148009015777 L193 275.13148009015777 L194 275.13148009015777 L195 275.13148009015777 L196 275.13148009015777 L197 275.13148009015777 L198 275.13148009015777 L199 275.13148009015777 L200 275.13148009015777 L201 275.13148009015777 L202 275.13148009015777 L203 275.13148009015777 L204 124.86851990984222 L205 124.86851990984222 L206 124.86851990984222 L207 124.86851990984222 L208 124.86851990984222 L209 124.86851990984222 L210 124.86851990984222 L211 124.86851990984222 L212 124.86851990984222 L213 124.86851990984222 L214 124.86851990984222 L215 124.86851990984222 L216 124.86851990984222 L217 124.86851990984222 L218 124.86851990984222 L219 124.86851990984222 L220 124.86851990984222 L221 124.86851990984222 L222 124.86851990984222 L223 124.86851990984222 L224 124.86851990984222 L225 124.86851990984222 L226 124.86851990984222 L227 124.86851990984222 L228 124.86851990984222 L229 124.86851990984222 L230 124.86851990984222 L231 124.86851990984222 L232 124.86851990984222 L233 124.86851990984222 L234 124.86851990984222 L235 124.86851990984222 L236 124.86851990984222 L237 124.86851990984222 L238 124.86851990984222 L239 124.86851990984222 L240 124.86851990984222 L241 124.86851990984222 L242 124.86851990984222 L243 124.86851990984222 L244 124.86851990984222 L245 124.86851990984222 L246 124.86851990984222 L247 124.86851990984222 L248 124.86851990984222 L249 124.86851990984222 L250 124.86851990984222 L251 124.86851990984222 L252 124.86851990984222 L253 124.86851990984222 L254 124.86851990984222 L255 124.86851990984222 L256 124.86851990984222 L257 124.86851990984222 L258 275.13148009015777 L259 275.13148009015777 L260 275.13148009015777 L261 275.13148009015777 L262 275.13148009015777 L263 275.13148009015777 L264 275.13148009015777 L265 275.13148009015777 L266 275.13148009015777 L267 275.13148009015777 L268 275.13148009015777 L269 275.13148009015777 L270 275.13148009015777 L271 275.13148009015777 L272 275.13148009015777 L273 275.13148009015777 L274 275.13148009015777 L275 275.13148009015777 L276 275.13148009015777 L277 275.13148009015777 L278 275.13148009015777 L279 275.13148009015777 L280 275.13148009015777 L281 275.13148009015777 L282 275.13148009015777 L283 275.13148009015777 L284 275.13148009015777 L285 275.13148009015777 L286 275.13148009015777 L287 275.13148009015777 L288 275.13148009015777 L289 275.13148009015777 L290 275.13148009015777 L291 275.13148009015777 L292 275.13148009015777 L293 275.13148009015777 L294 275.13148009015777 L295 275.13148009015777 L296 275.13148009015777 L297 275.13148009015777 L298 275.13148009015777 L299 275.13148009015777 L300 275.13148009015777 L301 275.13148009015777 L302 275.13148009015777 L303 275.13148009015777 L304 275.13148009015777 L305 275.13148009015777 L306 275.13148009015777 L307 275.13148009015777 L308 275.13148009015777 L309 275.13148009015777 L310 275.13148009015777 L311 124.86851990984222 L312 124.86851990984222 L313 124.86851990984222 L314 124.86851990984222 L315 124.86851990984222 L316 124.86851990984222 L317 124.86851990984222 L318 124.86851990984222 L319 124.86851990984222 L320 124.86851990984222 L321 124.86851990984222 L322 124.86851990984222 L323 124.86851990984222 L324 124.86851990984222 L325 124.86851990984222 L326 124.86851990984222 L327 124.86851990984222 L328 124.86851990984222 L329 124.86851990984222 L330 124.86851990984222 L331 124.86851990984222 L332 124.86851990984222 L333 124.86851990984222 L334 124.86851990984222 L335 124.86851990984222 L336 124.86851990984222 L337 124.86851990984222 L338 124.86851990984222 L339 124.86851990984222 L340 124.86851990984222 L341 124.86851990984222 L342 124.86851990984222 L343 124.86851990984222 L344 124.86851990984222 L345 124.86851990984222 L346 124.86851990984222 L347 124.86851990984222 L348 124.86851990984222 L349 124.86851990984222 L350 124.86851990984222 L351 124.86851990984222 L352 124.86851990984222 L353 124.86851990984222 L354 124.86851990984222 L355 124.86851990984222 L356 124.86851990984222 L357 124.86851990984222 L358 124.86851990984222 L359 124.86851990984222 L360 124.86851990984222 L361 124.86851990984222 L362 124.86851990984222 L363 124.86851990984222 L364 124.86851990984222 L365 275.13148009015777 L366 275.13148009015777 L367 275.13148009015777 L368 275.13148009015777 L369 275.13148009015777 L370 275.13148009015777 L371 275.13148009015777 L372 275.13148009015777 L373 275.13148009015777 L374 275.13148009015777 L375 275.13148009015777 L376 275.13148009015777 L377 275.13148009015777 L378 275.13148009015777 L379 275.13148009015777 L380 275.13148009015777 L381 275.13148009015777 L382 275.13148009015777 L383 275.13148009015777 L384 275.13148009015777 L385 275.13148009015777 L386 275.13148009015777 L387 275.13148009015777 L388 275.13148009015777 L389 275.13148009015777 L390 275.13148009015777 L391 275.13148009015777 L392 275.13148009015777 L393 275.13148009015777 L394 275.13148009015777 L395 275.13148009015777 L396 275.13148009015777 L397 275.13148009015777 L398 275.13148009015777 L399 275.13148009015777 " stroke = "blue" stroke-width = "4" fill = "none" /></svg>