<svg width="400" height="400" viewbox = "0 0 400 400"  xmlns="http://www.w3.org/2000/svg">

<!--
<topfunctions>






function YofX(){
    X = plotparams.g*(x - plotparams.x0) - funcparams.X0;
    F1 = 0.5*(1 + Math.tanh(X/funcparams.risetime));
    F2 = 0.5*(1 + Math.tanh((funcparams.duration - X)/funcparams.risetime));
    Y = F1*F2*Math.cos(funcparams.phi + 2*Math.PI*X/funcparams.T)
    y = plotparams.y0 - plotparams.G*(Y - funcparams.Y0);
}


function YofX2(){
    X = plotparams.g*(x - plotparams.x0) - funcparams.X0;
    Y = funcparams.b*X*X + funcparams.c*X + funcparams.d;
    y = plotparams.y0 - plotparams.G*(Y - funcparams.Y0);
 }

function XYofT(){
    T = plotparams.g*t;
    X = Math.exp(-T/funcparams.tau)*Math.cos(2*Math.PI*T/funcparams.T);
    Y = Math.exp(-T/funcparams.tau)*Math.sin(2*Math.PI*T/funcparams.T);
    y = plotparams.y0 - plotparams.G*(Y - funcparams.Y0);
    x = plotparams.x0 - plotparams.G*(X - funcparams.X0);    
}


function plotfunction(){
/*

    currentStroke = "blue";
    currentLineWidth = 4;
    ctx.strokeStyle = currentStroke;
    ctx.lineWidth = currentLineWidth;
    ctx.beginPath();	
    x = 0;
    y = 0;
    t= 0;
    XYofT();
    currentSVG += "	<path d = \"M";
    currentSVG += Math.round(x).toString() + " ";
    currentSVG += Math.round(y).toString() + " ";
    for(t = 1;t < plotparams.duration;t++){
        ctx.moveTo(x,y);
        XYofT();
        ctx.lineTo(x,y);
        currentSVG += "L" + x + " " + y + " ";
    }
    ctx.stroke();
    currentSVG += "\""+ " stroke = \"" + currentStroke + "\" stroke-width = \"" + currentLineWidth.toString() + "\" fill = \"" + "none" + "\" "+"/>";


    /*plot one function:*/
    currentStroke = "blue";
    currentLineWidth = 4;
    ctx.strokeStyle = currentStroke;
    ctx.lineWidth = currentLineWidth;
    ctx.beginPath();	
    x = 0;
    YofX();
    currentSVG += "	<path d = \"M";
    currentSVG += Math.round(x).toString() + " ";
    currentSVG += Math.round(y).toString() + " ";
    for(x = 1;x < plotparams.plotwidth;x++){
        ctx.moveTo(x-1,y);
        YofX();
        ctx.lineTo(x,y);
        currentSVG += "L" + x + " " + y + " ";
    }
    ctx.stroke();
    currentSVG += "\""+ " stroke = \"" + currentStroke + "\" stroke-width = \"" + currentLineWidth.toString() + "\" fill = \"" + "none" + "\" "+"/>";
    /*finish plot one function*/
    

}
































</topfunctions>
-->

<!--
<imgurl>

</imgurl>
-->

<!--
<currentjson>
{
    "constants": {},
    "imgurl": "",
    "plotparams": {
        "G": -83.30146206611592,
        "g": 1.1,
        "duration": 545.4545454545454,
        "plotwidth": 400,
        "plotheight": 400,
        "x0": 136.60269107301414,
        "y0": 200
    },
    "funcparams": {
        "T": 28.531167061100035,
        "risetime": 23.579476910000015,
        "phi": 2.8559090909090905,
        "duration": 161.0510000000001,
        "X0": 0,
        "Y0": 0
    }
}
</currentjson>
-->

<!--
<equation>

<h2>Pulse</h2>
<p style="color:blue">

</p><p class="bigeq">
$$
F_1 = \frac{1}{2}(\tanh{\frac{X}{\textrm{risetime}}} + 1)
$$
$$
F_2 = \frac{1}{2}(\tanh{\frac{\textrm{duration} - X}{\textrm{risetime}}} + 1)$$
$$
Y = F_1F_2\sin{\left(\phi + \frac{2\pi X}{T}\right)}
$$
</p>
<p></p>

$$
X = g(x - x_0) - X_0
$$
$$
Y = f(X)
$$
    
$$
y = y_0 - G(Y - Y_0)
$$


<p>
    X and Y, and $X_0$ and $Y_0$ in physical units of the System. x and y and x0 and y0 in pixels.  G is in pixels per Y unit and g is in X units per pixel. 
</p>







</equation>
-->
	<path d = "M0 200 L1 200.00003929754075 L2 199.9999724205138 L3 199.9998938555797 L4 199.99980699285436 L5 199.99971652922613 L6 199.99962839041743 L7 199.99954954652912 L8 199.99948771280486 L9 199.99945093411264 L10 199.9994470599001 L11 199.9994831258345 L12 199.99956466853934 L13 199.99969501018518 L14 199.99987455945606 L15 200.0001001837489 L16 200.00036471346974 L17 200.00065664204564 L18 200.00096008390346 L19 200.0012550464329 L20 200.00151806031158 L21 200.00172319527252 L22 200.0018434655541 L23 200.00185260143328 L24 200.00172713143098 L25 200.00144868552283 L26 200.00100639501096 L27 200.0003992320815 L28 199.99963810431095 L29 199.9987474995407 L30 199.99776646769286 L31 199.99674873116683 L32 199.99576173691185 L33 199.99488450289903 L34 199.99420417032664 L35 199.99381125006028 L36 199.99379364565763 L37 199.99422964236268 L38 199.99518016649657 L39 199.99668073588884 L40 199.99873363105795 L41 200.0013009092648 L42 200.00429894909573 L43 200.0075952415391 L44 200.0110081248777 L45 200.01431008686126 L46 200.01723512266722 L47 200.0194904385013 L48 200.02077252990549 L49 200.02078734739274 L50 200.01927390181595 L51 200.01603027546975 L52 200.01094061542176 L53 200.00400132105798 L54 199.99534433030317 L55 199.98525519282646 L56 199.9741835284605 L57 199.96274353759318 L58 199.95170248496007 L59 199.94195553853194 L60 199.9344860193526 L61 199.93031100045633 L62 199.93041326106407 L63 199.93566181549846 L64 199.94672453497566 L65 199.96397768633298 L66 199.98741842988858 L67 200.01658734097822 L68 200.0505087304525 L69 200.08765682185623 L70 200.1259555880557 L71 200.1628191658313 L72 200.19523818908243 L73 200.21991508347992 L74 200.2334483691712 L75 200.23256240117541 L76 200.21437487915654 L77 200.17669008370387 L78 200.11830141237178 L79 200.0392827190527 L80 199.94124457223688 L81 199.82752923468342 L82 199.70331732438214 L83 199.57562011292757 L84 199.45313456109105 L85 199.34594369541898 L86 199.26505287541144 L87 199.2217628039391 L88 199.22689251524017 L89 199.28987954122692 L90 199.41779929000404 L91 199.61436043434 L92 199.87894667147978 L93 200.20578629675495 L94 200.58333826214607 L95 200.99398539506242 L96 201.4141209615847 L97 201.81470272331893 L98 202.1623283607096 L99 202.4208574060769 L100 202.5535680464852 L101 202.5257934403632 L102 202.3079334626067 L103 201.8786868047755 L104 201.2282986746669 L105 200.36157524391825 L106 199.30038230370442 L107 198.0853274000967 L108 196.77632703849386 L109 195.4517878423513 L110 194.2061862393121 L111 193.14591711081772 L112 192.38339744456232 L113 192.02955317174758 L114 192.1849796419707 L115 192.9302387069108 L116 194.31592481237954 L117 196.35328242049522 L118 199.00626882956172 L119 202.1860104357127 L120 205.74857802377136 L121 209.49689237213295 L122 213.18735579684497 L123 216.54148737004834 L124 219.26242965649246 L125 221.05571599439503 L126 221.65317604714647 L127 220.8383622014829 L128 218.47145796607217 L129 214.51134295374754 L130 209.0323946436773 L131 202.2337498862872 L132 194.43915293604246 L133 186.08617712145167 L134 177.7044865691557 L135 169.88383195267215 L136 163.2335509270205 L137 158.3363522176276 L138 155.6999804285183 L139 155.71087672789722 L140 158.59408691930528 L141 164.38338229258676 L142 172.9048579349569 L143 183.77621503873027 L144 196.42261829310507 L145 210.1085773844035 L146 223.98387785734678 L147 237.1403225524012 L148 248.67506219476684 L149 257.75568160848525 L150 263.6820153118607 L151 265.9398991485623 L152 264.24268944904884 L153 258.55733112220395 L154 249.1129402527569 L155 236.39118092507675 L156 221.09905254263188 L157 204.1259611229108 L158 186.4880373099877 L159 169.26351492220397 L160 153.5235480249793 L161 140.26309583278385 L162 130.33643960305318 L163 124.40153113386629 L164 122.87674349149631 L165 125.91275066282603 L166 133.3812640953926 L167 144.88126727349092 L168 159.76228376842624 L169 177.16315728384396 L170 196.06387661759533 L171 215.34719830518011 L172 233.8662480416526 L173 250.5139487375767 L174 264.29004378658965 L175 274.36165942503635 L176 280.11376592354975 L177 281.18652614798424 L178 277.49732231095027 L179 269.24617859775765 L180 256.9042932955162 L181 241.1864001982627 L182 223.00863649738227 L183 203.4344475054736 L184 183.61175826552085 L185 164.70514843624346 L186 147.82705132125724 L187 133.97204502662527 L188 123.9581118150533 L189 118.37832296082402 L190 117.56578608552282 L191 121.57390695742895 L192 130.17311438766598 L193 142.86422820601928 L194 158.9076730484096 L195 177.36681189446904 L196 197.16284706929414 L197 217.13806080365063 L198 236.12368161549907 L199 253.0083948051264 L200 266.803480592776 L201 276.700763616324 L202 282.11998070416206 L203 282.74279512168687 L204 278.5314684160225 L205 269.7310997195449 L206 256.8553043680872 L207 240.6561727394167 L208 222.0802697361088 L209 202.2132516530104 L210 182.21634265070887 L211 163.25838888189423 L212 146.44746673701488 L213 132.7660476246308 L214 123.01351367757624 L215 117.759388924473 L216 117.31002387452318 L217 121.69068469935543 L218 130.64409717771628 L219 143.64553289303154 L220 159.93355705104807 L221 178.55464026653715 L222 198.41902435262298 L223 218.36457205496018 L224 237.2248614790417 L225 253.89753522989642 L226 267.408896868194 L227 276.97096444057337 L228 282.02763014108416 L229 282.28721121092883 L230 277.739473082907 L231 268.6561152456151 L232 255.57468036032992 L233 239.2668211973611 L234 220.6927810035398 L235 200.9447569578415 L236 181.18247550152591 L237 162.5647735135721 L238 146.18122268539355 L239 132.98784099391256 L240 123.75070357467104 L241 119.00080811141841 L242 119.00289283254581 L243 123.74008585345818 L244 132.9153301119464 L245 145.96953270581096 L246 162.11538919600468 L247 180.3848911585672 L248 199.68769500443412 L249 218.87686193360398 L250 236.81801406950808 L251 252.4577202228774 L252 264.88694307429955 L253 273.3956502251956 L254 277.5152022216728 L255 277.04585467664276 L256 272.0676092593621 L257 262.9336686426603 L258 250.24683390756502 L259 234.82026426585077 L260 217.62503109230235 L261 199.72777570459786 L262 182.22246323861236 L263 166.16066292111154 L264 152.48494065161404 L265 141.96980190005922 L266 135.1741691245536 L267 132.40863634962844 L268 133.71975352258391 L269 138.89241456769003 L270 147.4701337006099 L271 158.7916867975851 L272 172.04136910929608 L273 186.30907895586873 L274 200.65567288998926 L275 214.1786273546396 L276 226.0730345539734 L277 235.68337107523377 L278 242.54228226962044 L279 246.39375864837615 L280 247.19944122599935 L281 245.12825200381337 L282 240.53096074452986 L283 233.9025293084609 L284 225.83599907204047 L285 216.9722190704823 L286 207.94981190262362 L287 199.35945078500242 L288 191.70583188770308 L289 185.37976723145775 L290 180.64171526103104 L291 177.61693643019876 L292 176.30142819200591 L293 176.57695303973912 L294 178.23288774100922 L295 180.99231869575843 L296 184.53978008892688 L297 188.54824238187066 L298 192.70335303907024 L299 196.72344339604126 L300 200.37437841350777 L301 203.4788794210369 L302 205.92044527273507 L303 207.64240059961276 L304 208.6428921183465 L305 208.96683018174713 L306 208.69583931596716 L307 207.9372531682384 L308 206.81308609639788 L309 205.44975786627208 L310 203.96916171770957 L311 202.4814695256637 L312 201.07987777451552 L313 199.8373275208381 L314 198.80508928813973 L315 198.0129948673162 L316 197.47102380315394 L317 197.17191162708087 L318 197.09443621783782 L319 197.20705316527815 L320 197.47158501131048 L321 197.84671683889508 L322 198.29110618081143 L323 198.765973486179 L324 199.23709606536113 L325 199.67618010642428 L326 200.06162956056056 L327 200.37876591362647 L328 200.61957844046054 L329 200.78210056208405 L330 200.86951507326637 L331 200.88909040103985 L332 200.8510431045932 L333 200.76741009183004 L334 200.65099908858775 L335 200.51446925341412 L336 200.36957682460033 L337 200.22660444306325 L338 200.09397819467605 L339 199.97806408179295 L340 199.8831259389985 L341 199.81141989659645 L342 199.76339631355216 L343 199.73797843648074 L344 199.73288756129713 L345 199.744986770408 L346 199.77061894319309 L347 199.80591923890427 L348 199.84708720101636 L349 199.89060864872914 L350 199.93342228464633 L351 199.9730302082129 L352 200.00755510661284 L353 200.03574969469707 L354 200.05696595513143 L355 200.07109290819199 L356 200.07847208225965 L357 200.07979965993118 L358 200.07602356178683 L359 200.06824263221316 L360 200.0576137422537 L361 200.0452711489148 L362 200.03226096060578 L363 200.01949214810134 L364 200.00770428238698 L365 199.99745112603017 L366 199.98909838320762 L367 199.98283333572695 L368 199.97868375212167 L369 199.9765433344973 L370 199.97620103362664 L371 199.9773717807197 L372 199.97972651508357 L373 199.98291979106673 L374 199.98661368802541 L375 199.99049719046178 L376 199.9943006243187 L377 199.99780510824786 L378 200.00084729052705 L379 200.00331988450608 L380 200.00516868505636 L381 200.00638684748637 L382 200.00700724473066 L383 200.00709369723566 L384 200.00673180364632 L385 200.0060200008516 L386 200.005061360918 L387 200.0039565009851 L388 200.00279785013151 L389 200.00166539271646 L390 200.00062389709285 L391 199.9997215462616 L392 199.99898981553238 L393 199.9984443923942 L394 199.99808690494854 L395 199.99790721560066 L396 199.99788604356704 L397 199.9979976999049 L398 199.99821274871167 L399 199.99850044437775 " stroke = "blue" stroke-width = "4" fill = "none" /></svg>