<svg width="400" height="400" viewbox = "0 0 400 400"  xmlns="http://www.w3.org/2000/svg">

<!--
<topfunctions>



function YofX(){
    X = plotparams.g*(x - plotparams.x0) - funcparams.X0;
    Y = Math.sin(funcparams.phi + (Math.PI*2*X/funcparams.T));
    if(Y >= 1/Math.sqrt(2)){
        Y = 1;
    }
    else{
        Y = -1
    }
    y = plotparams.y0 - plotparams.G*(Y - funcparams.Y0);
}

function YofX2(){
    X = plotparams.g*(x - plotparams.x0) - funcparams.X0;
    Y = Math.sin(-0.5*Math.PI + funcparams.phi + (Math.PI*2*X/funcparams.T));
    if(Y >= 1/Math.sqrt(2)){
        Y = 1;
    }
    else{
        Y = -1
    }
    Y -= 3;
    y = plotparams.y0 - plotparams.G*(Y - funcparams.Y0);
}

function YofX3(){
    X = plotparams.g*(x - plotparams.x0) - funcparams.X0;
    Y = Math.sin(-Math.PI + funcparams.phi + (Math.PI*2*X/funcparams.T));
    if(Y >= 1/Math.sqrt(2)){
        Y = 1;
    }
    else{
        Y = -1
    }
    Y -= 6;
    y = plotparams.y0 - plotparams.G*(Y - funcparams.Y0);
}
function YofX4(){
    X = plotparams.g*(x - plotparams.x0) - funcparams.X0;
    Y = Math.sin(-1.5*Math.PI + funcparams.phi + (Math.PI*2*X/funcparams.T));
    if(Y >= 1/Math.sqrt(2)){
        Y = 1;
    }
    else{
        Y = -1
    }
    Y -= 9;
    y = plotparams.y0 - plotparams.G*(Y - funcparams.Y0);
}


function plotfunction(){

/*
    currentStroke = "blue";
    currentLineWidth = 4;
    ctx.strokeStyle = currentStroke;
    ctx.lineWidth = currentLineWidth;
    ctx.beginPath();	
    x = 0;
    y = 0;
    t= 0;
    XYofT();
    currentSVG += "	<path d = \"M";
    currentSVG += Math.round(x).toString() + " ";
    currentSVG += Math.round(y).toString() + " ";
    for(t = 1;t < plotparams.duration;t++){
        ctx.moveTo(x,y);
        XYofT();
        ctx.lineTo(x,y);
        currentSVG += "L" + x + " " + y + " ";
    }
    ctx.stroke();
    currentSVG += "\""+ " stroke = \"" + currentStroke + "\" stroke-width = \"" + currentLineWidth.toString() + "\" fill = \"" + "none" + "\" "+"/>";


    /*plot one function:*/
    currentStroke = "red";
    currentLineWidth = 4;
    ctx.strokeStyle = currentStroke;
    ctx.lineWidth = currentLineWidth;
    ctx.beginPath();	
    x = 0;
    YofX();
    currentSVG += "	<path d = \"M";
    currentSVG += Math.round(x).toString() + " ";
    currentSVG += Math.round(y).toString() + " ";
    for(x = 1;x < plotparams.plotwidth;x++){
        ctx.moveTo(x-1,y);
        YofX();
        ctx.lineTo(x,y);
        currentSVG += "L" + x + " " + y + " ";
    }
    ctx.stroke();
    currentSVG += "\""+ " stroke = \"" + currentStroke + "\" stroke-width = \"" + currentLineWidth.toString() + "\" fill = \"" + "none" + "\" "+"/>";
    /*finish plot one function*/
    
    /*plot one function:*/
    currentStroke = "green";
    currentLineWidth = 4;
    ctx.strokeStyle = currentStroke;
    ctx.lineWidth = currentLineWidth;
    ctx.beginPath();	
    x = 0;
    YofX2();
    currentSVG += "	<path d = \"M";
    currentSVG += Math.round(x).toString() + " ";
    currentSVG += Math.round(y).toString() + " ";
    for(x = 1;x < plotparams.plotwidth;x++){
        ctx.moveTo(x-1,y);
        YofX2();
        ctx.lineTo(x,y);
        currentSVG += "L" + x + " " + y + " ";
    }
    ctx.stroke();
    currentSVG += "\""+ " stroke = \"" + currentStroke + "\" stroke-width = \"" + currentLineWidth.toString() + "\" fill = \"" + "none" + "\" "+"/>";
    /*finish plot one function*/
    
     /*plot one function:*/
    currentStroke = "blue";
    currentLineWidth = 4;
    ctx.strokeStyle = currentStroke;
    ctx.lineWidth = currentLineWidth;
    ctx.beginPath();	
    x = 0;
    YofX3();
    currentSVG += "	<path d = \"M";
    currentSVG += Math.round(x).toString() + " ";
    currentSVG += Math.round(y).toString() + " ";
    for(x = 1;x < plotparams.plotwidth;x++){
        ctx.moveTo(x-1,y);
        YofX3();
        ctx.lineTo(x,y);
        currentSVG += "L" + x + " " + y + " ";
    }
    ctx.stroke();
    currentSVG += "\""+ " stroke = \"" + currentStroke + "\" stroke-width = \"" + currentLineWidth.toString() + "\" fill = \"" + "none" + "\" "+"/>";
    /*finish plot one function*/


    /*plot one function:*/
    currentStroke = "purple";
    currentLineWidth = 4;
    ctx.strokeStyle = currentStroke;
    ctx.lineWidth = currentLineWidth;
    ctx.beginPath();	
    x = 0;
    YofX4();
    currentSVG += "	<path d = \"M";
    currentSVG += Math.round(x).toString() + " ";
    currentSVG += Math.round(y).toString() + " ";
    for(x = 1;x < plotparams.plotwidth;x++){
        ctx.moveTo(x-1,y);
        YofX4();
        ctx.lineTo(x,y);
        currentSVG += "L" + x + " " + y + " ";
    }
    ctx.stroke();
    currentSVG += "\""+ " stroke = \"" + currentStroke + "\" stroke-width = \"" + currentLineWidth.toString() + "\" fill = \"" + "none" + "\" "+"/>";
    /*finish plot one function*/

}

</topfunctions>
-->

<!--
<imgurl>

</imgurl>
-->

<!--
<currentjson>
{
    "constants": {},
    "imgurl": "",
    "plotparams": {
        "G": 21.76291357901485,
        "g": 0.0197844668900135,
        "duration": 409.8080732190423,
        "plotwidth": 400,
        "plotheight": 400,
        "x0": 101.33887168983345,
        "y0": 93.30147604194663
    },
    "funcparams": {
        "phi": 0.2688139066614501,
        "T": 1.4465183912692552,
        "X0": 0,
        "Y0": 0
    }
}
</currentjson>
-->

<!--
<equation>




<h2>Sin</h2>
<p style="color:blue">

</p><p class="bigeq">
$$
Y = \sin{\left(\phi + \frac{2\pi X}{T}\right)}

$$
</p>
<p></p>

$$
X = g(x - x_0) - X_0
$$
$$
Y = f(X)
$$
    
$$
y = y_0 - G(Y - Y_0)
$$


<p>
    X and Y, and $X_0$ and $Y_0$ in physical units of the System. x and y and x0 and y0 in pixels.  G is in pixels per Y unit and g is in X units per pixel. 
</p>





</equation>
-->
	<path d = "M0 115 L1 115.06438962096148 L2 115.06438962096148 L3 115.06438962096148 L4 115.06438962096148 L5 115.06438962096148 L6 115.06438962096148 L7 115.06438962096148 L8 115.06438962096148 L9 115.06438962096148 L10 115.06438962096148 L11 115.06438962096148 L12 115.06438962096148 L13 115.06438962096148 L14 115.06438962096148 L15 115.06438962096148 L16 115.06438962096148 L17 115.06438962096148 L18 115.06438962096148 L19 115.06438962096148 L20 115.06438962096148 L21 115.06438962096148 L22 115.06438962096148 L23 115.06438962096148 L24 115.06438962096148 L25 115.06438962096148 L26 115.06438962096148 L27 115.06438962096148 L28 115.06438962096148 L29 115.06438962096148 L30 115.06438962096148 L31 115.06438962096148 L32 115.06438962096148 L33 115.06438962096148 L34 115.06438962096148 L35 71.53856246293178 L36 71.53856246293178 L37 71.53856246293178 L38 71.53856246293178 L39 71.53856246293178 L40 71.53856246293178 L41 71.53856246293178 L42 71.53856246293178 L43 71.53856246293178 L44 71.53856246293178 L45 71.53856246293178 L46 71.53856246293178 L47 71.53856246293178 L48 71.53856246293178 L49 71.53856246293178 L50 71.53856246293178 L51 71.53856246293178 L52 71.53856246293178 L53 115.06438962096148 L54 115.06438962096148 L55 115.06438962096148 L56 115.06438962096148 L57 115.06438962096148 L58 115.06438962096148 L59 115.06438962096148 L60 115.06438962096148 L61 115.06438962096148 L62 115.06438962096148 L63 115.06438962096148 L64 115.06438962096148 L65 115.06438962096148 L66 115.06438962096148 L67 115.06438962096148 L68 115.06438962096148 L69 115.06438962096148 L70 115.06438962096148 L71 115.06438962096148 L72 115.06438962096148 L73 115.06438962096148 L74 115.06438962096148 L75 115.06438962096148 L76 115.06438962096148 L77 115.06438962096148 L78 115.06438962096148 L79 115.06438962096148 L80 115.06438962096148 L81 115.06438962096148 L82 115.06438962096148 L83 115.06438962096148 L84 115.06438962096148 L85 115.06438962096148 L86 115.06438962096148 L87 115.06438962096148 L88 115.06438962096148 L89 115.06438962096148 L90 115.06438962096148 L91 115.06438962096148 L92 115.06438962096148 L93 115.06438962096148 L94 115.06438962096148 L95 115.06438962096148 L96 115.06438962096148 L97 115.06438962096148 L98 115.06438962096148 L99 115.06438962096148 L100 115.06438962096148 L101 115.06438962096148 L102 115.06438962096148 L103 115.06438962096148 L104 115.06438962096148 L105 115.06438962096148 L106 115.06438962096148 L107 115.06438962096148 L108 71.53856246293178 L109 71.53856246293178 L110 71.53856246293178 L111 71.53856246293178 L112 71.53856246293178 L113 71.53856246293178 L114 71.53856246293178 L115 71.53856246293178 L116 71.53856246293178 L117 71.53856246293178 L118 71.53856246293178 L119 71.53856246293178 L120 71.53856246293178 L121 71.53856246293178 L122 71.53856246293178 L123 71.53856246293178 L124 71.53856246293178 L125 71.53856246293178 L126 115.06438962096148 L127 115.06438962096148 L128 115.06438962096148 L129 115.06438962096148 L130 115.06438962096148 L131 115.06438962096148 L132 115.06438962096148 L133 115.06438962096148 L134 115.06438962096148 L135 115.06438962096148 L136 115.06438962096148 L137 115.06438962096148 L138 115.06438962096148 L139 115.06438962096148 L140 115.06438962096148 L141 115.06438962096148 L142 115.06438962096148 L143 115.06438962096148 L144 115.06438962096148 L145 115.06438962096148 L146 115.06438962096148 L147 115.06438962096148 L148 115.06438962096148 L149 115.06438962096148 L150 115.06438962096148 L151 115.06438962096148 L152 115.06438962096148 L153 115.06438962096148 L154 115.06438962096148 L155 115.06438962096148 L156 115.06438962096148 L157 115.06438962096148 L158 115.06438962096148 L159 115.06438962096148 L160 115.06438962096148 L161 115.06438962096148 L162 115.06438962096148 L163 115.06438962096148 L164 115.06438962096148 L165 115.06438962096148 L166 115.06438962096148 L167 115.06438962096148 L168 115.06438962096148 L169 115.06438962096148 L170 115.06438962096148 L171 115.06438962096148 L172 115.06438962096148 L173 115.06438962096148 L174 115.06438962096148 L175 115.06438962096148 L176 115.06438962096148 L177 115.06438962096148 L178 115.06438962096148 L179 115.06438962096148 L180 115.06438962096148 L181 71.53856246293178 L182 71.53856246293178 L183 71.53856246293178 L184 71.53856246293178 L185 71.53856246293178 L186 71.53856246293178 L187 71.53856246293178 L188 71.53856246293178 L189 71.53856246293178 L190 71.53856246293178 L191 71.53856246293178 L192 71.53856246293178 L193 71.53856246293178 L194 71.53856246293178 L195 71.53856246293178 L196 71.53856246293178 L197 71.53856246293178 L198 71.53856246293178 L199 115.06438962096148 L200 115.06438962096148 L201 115.06438962096148 L202 115.06438962096148 L203 115.06438962096148 L204 115.06438962096148 L205 115.06438962096148 L206 115.06438962096148 L207 115.06438962096148 L208 115.06438962096148 L209 115.06438962096148 L210 115.06438962096148 L211 115.06438962096148 L212 115.06438962096148 L213 115.06438962096148 L214 115.06438962096148 L215 115.06438962096148 L216 115.06438962096148 L217 115.06438962096148 L218 115.06438962096148 L219 115.06438962096148 L220 115.06438962096148 L221 115.06438962096148 L222 115.06438962096148 L223 115.06438962096148 L224 115.06438962096148 L225 115.06438962096148 L226 115.06438962096148 L227 115.06438962096148 L228 115.06438962096148 L229 115.06438962096148 L230 115.06438962096148 L231 115.06438962096148 L232 115.06438962096148 L233 115.06438962096148 L234 115.06438962096148 L235 115.06438962096148 L236 115.06438962096148 L237 115.06438962096148 L238 115.06438962096148 L239 115.06438962096148 L240 115.06438962096148 L241 115.06438962096148 L242 115.06438962096148 L243 115.06438962096148 L244 115.06438962096148 L245 115.06438962096148 L246 115.06438962096148 L247 115.06438962096148 L248 115.06438962096148 L249 115.06438962096148 L250 115.06438962096148 L251 115.06438962096148 L252 115.06438962096148 L253 115.06438962096148 L254 71.53856246293178 L255 71.53856246293178 L256 71.53856246293178 L257 71.53856246293178 L258 71.53856246293178 L259 71.53856246293178 L260 71.53856246293178 L261 71.53856246293178 L262 71.53856246293178 L263 71.53856246293178 L264 71.53856246293178 L265 71.53856246293178 L266 71.53856246293178 L267 71.53856246293178 L268 71.53856246293178 L269 71.53856246293178 L270 71.53856246293178 L271 71.53856246293178 L272 115.06438962096148 L273 115.06438962096148 L274 115.06438962096148 L275 115.06438962096148 L276 115.06438962096148 L277 115.06438962096148 L278 115.06438962096148 L279 115.06438962096148 L280 115.06438962096148 L281 115.06438962096148 L282 115.06438962096148 L283 115.06438962096148 L284 115.06438962096148 L285 115.06438962096148 L286 115.06438962096148 L287 115.06438962096148 L288 115.06438962096148 L289 115.06438962096148 L290 115.06438962096148 L291 115.06438962096148 L292 115.06438962096148 L293 115.06438962096148 L294 115.06438962096148 L295 115.06438962096148 L296 115.06438962096148 L297 115.06438962096148 L298 115.06438962096148 L299 115.06438962096148 L300 115.06438962096148 L301 115.06438962096148 L302 115.06438962096148 L303 115.06438962096148 L304 115.06438962096148 L305 115.06438962096148 L306 115.06438962096148 L307 115.06438962096148 L308 115.06438962096148 L309 115.06438962096148 L310 115.06438962096148 L311 115.06438962096148 L312 115.06438962096148 L313 115.06438962096148 L314 115.06438962096148 L315 115.06438962096148 L316 115.06438962096148 L317 115.06438962096148 L318 115.06438962096148 L319 115.06438962096148 L320 115.06438962096148 L321 115.06438962096148 L322 115.06438962096148 L323 115.06438962096148 L324 115.06438962096148 L325 115.06438962096148 L326 115.06438962096148 L327 71.53856246293178 L328 71.53856246293178 L329 71.53856246293178 L330 71.53856246293178 L331 71.53856246293178 L332 71.53856246293178 L333 71.53856246293178 L334 71.53856246293178 L335 71.53856246293178 L336 71.53856246293178 L337 71.53856246293178 L338 71.53856246293178 L339 71.53856246293178 L340 71.53856246293178 L341 71.53856246293178 L342 71.53856246293178 L343 71.53856246293178 L344 71.53856246293178 L345 115.06438962096148 L346 115.06438962096148 L347 115.06438962096148 L348 115.06438962096148 L349 115.06438962096148 L350 115.06438962096148 L351 115.06438962096148 L352 115.06438962096148 L353 115.06438962096148 L354 115.06438962096148 L355 115.06438962096148 L356 115.06438962096148 L357 115.06438962096148 L358 115.06438962096148 L359 115.06438962096148 L360 115.06438962096148 L361 115.06438962096148 L362 115.06438962096148 L363 115.06438962096148 L364 115.06438962096148 L365 115.06438962096148 L366 115.06438962096148 L367 115.06438962096148 L368 115.06438962096148 L369 115.06438962096148 L370 115.06438962096148 L371 115.06438962096148 L372 115.06438962096148 L373 115.06438962096148 L374 115.06438962096148 L375 115.06438962096148 L376 115.06438962096148 L377 115.06438962096148 L378 115.06438962096148 L379 115.06438962096148 L380 115.06438962096148 L381 115.06438962096148 L382 115.06438962096148 L383 115.06438962096148 L384 115.06438962096148 L385 115.06438962096148 L386 115.06438962096148 L387 115.06438962096148 L388 115.06438962096148 L389 115.06438962096148 L390 115.06438962096148 L391 115.06438962096148 L392 115.06438962096148 L393 115.06438962096148 L394 115.06438962096148 L395 115.06438962096148 L396 115.06438962096148 L397 115.06438962096148 L398 115.06438962096148 L399 115.06438962096148 " stroke = "red" stroke-width = "4" fill = "none" />	<path d = "M0 180 L1 180.353130358006 L2 180.353130358006 L3 180.353130358006 L4 180.353130358006 L5 180.353130358006 L6 180.353130358006 L7 180.353130358006 L8 180.353130358006 L9 180.353130358006 L10 180.353130358006 L11 180.353130358006 L12 180.353130358006 L13 180.353130358006 L14 180.353130358006 L15 180.353130358006 L16 180.353130358006 L17 180.353130358006 L18 180.353130358006 L19 180.353130358006 L20 180.353130358006 L21 180.353130358006 L22 180.353130358006 L23 180.353130358006 L24 180.353130358006 L25 180.353130358006 L26 180.353130358006 L27 180.353130358006 L28 180.353130358006 L29 180.353130358006 L30 180.353130358006 L31 180.353130358006 L32 180.353130358006 L33 180.353130358006 L34 180.353130358006 L35 180.353130358006 L36 180.353130358006 L37 180.353130358006 L38 180.353130358006 L39 180.353130358006 L40 180.353130358006 L41 180.353130358006 L42 180.353130358006 L43 180.353130358006 L44 180.353130358006 L45 180.353130358006 L46 180.353130358006 L47 180.353130358006 L48 180.353130358006 L49 180.353130358006 L50 180.353130358006 L51 180.353130358006 L52 180.353130358006 L53 136.8273031999763 L54 136.8273031999763 L55 136.8273031999763 L56 136.8273031999763 L57 136.8273031999763 L58 136.8273031999763 L59 136.8273031999763 L60 136.8273031999763 L61 136.8273031999763 L62 136.8273031999763 L63 136.8273031999763 L64 136.8273031999763 L65 136.8273031999763 L66 136.8273031999763 L67 136.8273031999763 L68 136.8273031999763 L69 136.8273031999763 L70 136.8273031999763 L71 180.353130358006 L72 180.353130358006 L73 180.353130358006 L74 180.353130358006 L75 180.353130358006 L76 180.353130358006 L77 180.353130358006 L78 180.353130358006 L79 180.353130358006 L80 180.353130358006 L81 180.353130358006 L82 180.353130358006 L83 180.353130358006 L84 180.353130358006 L85 180.353130358006 L86 180.353130358006 L87 180.353130358006 L88 180.353130358006 L89 180.353130358006 L90 180.353130358006 L91 180.353130358006 L92 180.353130358006 L93 180.353130358006 L94 180.353130358006 L95 180.353130358006 L96 180.353130358006 L97 180.353130358006 L98 180.353130358006 L99 180.353130358006 L100 180.353130358006 L101 180.353130358006 L102 180.353130358006 L103 180.353130358006 L104 180.353130358006 L105 180.353130358006 L106 180.353130358006 L107 180.353130358006 L108 180.353130358006 L109 180.353130358006 L110 180.353130358006 L111 180.353130358006 L112 180.353130358006 L113 180.353130358006 L114 180.353130358006 L115 180.353130358006 L116 180.353130358006 L117 180.353130358006 L118 180.353130358006 L119 180.353130358006 L120 180.353130358006 L121 180.353130358006 L122 180.353130358006 L123 180.353130358006 L124 180.353130358006 L125 180.353130358006 L126 136.8273031999763 L127 136.8273031999763 L128 136.8273031999763 L129 136.8273031999763 L130 136.8273031999763 L131 136.8273031999763 L132 136.8273031999763 L133 136.8273031999763 L134 136.8273031999763 L135 136.8273031999763 L136 136.8273031999763 L137 136.8273031999763 L138 136.8273031999763 L139 136.8273031999763 L140 136.8273031999763 L141 136.8273031999763 L142 136.8273031999763 L143 136.8273031999763 L144 180.353130358006 L145 180.353130358006 L146 180.353130358006 L147 180.353130358006 L148 180.353130358006 L149 180.353130358006 L150 180.353130358006 L151 180.353130358006 L152 180.353130358006 L153 180.353130358006 L154 180.353130358006 L155 180.353130358006 L156 180.353130358006 L157 180.353130358006 L158 180.353130358006 L159 180.353130358006 L160 180.353130358006 L161 180.353130358006 L162 180.353130358006 L163 180.353130358006 L164 180.353130358006 L165 180.353130358006 L166 180.353130358006 L167 180.353130358006 L168 180.353130358006 L169 180.353130358006 L170 180.353130358006 L171 180.353130358006 L172 180.353130358006 L173 180.353130358006 L174 180.353130358006 L175 180.353130358006 L176 180.353130358006 L177 180.353130358006 L178 180.353130358006 L179 180.353130358006 L180 180.353130358006 L181 180.353130358006 L182 180.353130358006 L183 180.353130358006 L184 180.353130358006 L185 180.353130358006 L186 180.353130358006 L187 180.353130358006 L188 180.353130358006 L189 180.353130358006 L190 180.353130358006 L191 180.353130358006 L192 180.353130358006 L193 180.353130358006 L194 180.353130358006 L195 180.353130358006 L196 180.353130358006 L197 180.353130358006 L198 180.353130358006 L199 136.8273031999763 L200 136.8273031999763 L201 136.8273031999763 L202 136.8273031999763 L203 136.8273031999763 L204 136.8273031999763 L205 136.8273031999763 L206 136.8273031999763 L207 136.8273031999763 L208 136.8273031999763 L209 136.8273031999763 L210 136.8273031999763 L211 136.8273031999763 L212 136.8273031999763 L213 136.8273031999763 L214 136.8273031999763 L215 136.8273031999763 L216 136.8273031999763 L217 136.8273031999763 L218 180.353130358006 L219 180.353130358006 L220 180.353130358006 L221 180.353130358006 L222 180.353130358006 L223 180.353130358006 L224 180.353130358006 L225 180.353130358006 L226 180.353130358006 L227 180.353130358006 L228 180.353130358006 L229 180.353130358006 L230 180.353130358006 L231 180.353130358006 L232 180.353130358006 L233 180.353130358006 L234 180.353130358006 L235 180.353130358006 L236 180.353130358006 L237 180.353130358006 L238 180.353130358006 L239 180.353130358006 L240 180.353130358006 L241 180.353130358006 L242 180.353130358006 L243 180.353130358006 L244 180.353130358006 L245 180.353130358006 L246 180.353130358006 L247 180.353130358006 L248 180.353130358006 L249 180.353130358006 L250 180.353130358006 L251 180.353130358006 L252 180.353130358006 L253 180.353130358006 L254 180.353130358006 L255 180.353130358006 L256 180.353130358006 L257 180.353130358006 L258 180.353130358006 L259 180.353130358006 L260 180.353130358006 L261 180.353130358006 L262 180.353130358006 L263 180.353130358006 L264 180.353130358006 L265 180.353130358006 L266 180.353130358006 L267 180.353130358006 L268 180.353130358006 L269 180.353130358006 L270 180.353130358006 L271 180.353130358006 L272 136.8273031999763 L273 136.8273031999763 L274 136.8273031999763 L275 136.8273031999763 L276 136.8273031999763 L277 136.8273031999763 L278 136.8273031999763 L279 136.8273031999763 L280 136.8273031999763 L281 136.8273031999763 L282 136.8273031999763 L283 136.8273031999763 L284 136.8273031999763 L285 136.8273031999763 L286 136.8273031999763 L287 136.8273031999763 L288 136.8273031999763 L289 136.8273031999763 L290 136.8273031999763 L291 180.353130358006 L292 180.353130358006 L293 180.353130358006 L294 180.353130358006 L295 180.353130358006 L296 180.353130358006 L297 180.353130358006 L298 180.353130358006 L299 180.353130358006 L300 180.353130358006 L301 180.353130358006 L302 180.353130358006 L303 180.353130358006 L304 180.353130358006 L305 180.353130358006 L306 180.353130358006 L307 180.353130358006 L308 180.353130358006 L309 180.353130358006 L310 180.353130358006 L311 180.353130358006 L312 180.353130358006 L313 180.353130358006 L314 180.353130358006 L315 180.353130358006 L316 180.353130358006 L317 180.353130358006 L318 180.353130358006 L319 180.353130358006 L320 180.353130358006 L321 180.353130358006 L322 180.353130358006 L323 180.353130358006 L324 180.353130358006 L325 180.353130358006 L326 180.353130358006 L327 180.353130358006 L328 180.353130358006 L329 180.353130358006 L330 180.353130358006 L331 180.353130358006 L332 180.353130358006 L333 180.353130358006 L334 180.353130358006 L335 180.353130358006 L336 180.353130358006 L337 180.353130358006 L338 180.353130358006 L339 180.353130358006 L340 180.353130358006 L341 180.353130358006 L342 180.353130358006 L343 180.353130358006 L344 180.353130358006 L345 136.8273031999763 L346 136.8273031999763 L347 136.8273031999763 L348 136.8273031999763 L349 136.8273031999763 L350 136.8273031999763 L351 136.8273031999763 L352 136.8273031999763 L353 136.8273031999763 L354 136.8273031999763 L355 136.8273031999763 L356 136.8273031999763 L357 136.8273031999763 L358 136.8273031999763 L359 136.8273031999763 L360 136.8273031999763 L361 136.8273031999763 L362 136.8273031999763 L363 136.8273031999763 L364 180.353130358006 L365 180.353130358006 L366 180.353130358006 L367 180.353130358006 L368 180.353130358006 L369 180.353130358006 L370 180.353130358006 L371 180.353130358006 L372 180.353130358006 L373 180.353130358006 L374 180.353130358006 L375 180.353130358006 L376 180.353130358006 L377 180.353130358006 L378 180.353130358006 L379 180.353130358006 L380 180.353130358006 L381 180.353130358006 L382 180.353130358006 L383 180.353130358006 L384 180.353130358006 L385 180.353130358006 L386 180.353130358006 L387 180.353130358006 L388 180.353130358006 L389 180.353130358006 L390 180.353130358006 L391 180.353130358006 L392 180.353130358006 L393 180.353130358006 L394 180.353130358006 L395 180.353130358006 L396 180.353130358006 L397 180.353130358006 L398 180.353130358006 L399 180.353130358006 " stroke = "green" stroke-width = "4" fill = "none" />	<path d = "M0 202 L1 202.1160439370209 L2 202.1160439370209 L3 202.1160439370209 L4 202.1160439370209 L5 202.1160439370209 L6 202.1160439370209 L7 202.1160439370209 L8 202.1160439370209 L9 202.1160439370209 L10 202.1160439370209 L11 202.1160439370209 L12 202.1160439370209 L13 202.1160439370209 L14 202.1160439370209 L15 202.1160439370209 L16 245.6418710950506 L17 245.6418710950506 L18 245.6418710950506 L19 245.6418710950506 L20 245.6418710950506 L21 245.6418710950506 L22 245.6418710950506 L23 245.6418710950506 L24 245.6418710950506 L25 245.6418710950506 L26 245.6418710950506 L27 245.6418710950506 L28 245.6418710950506 L29 245.6418710950506 L30 245.6418710950506 L31 245.6418710950506 L32 245.6418710950506 L33 245.6418710950506 L34 245.6418710950506 L35 245.6418710950506 L36 245.6418710950506 L37 245.6418710950506 L38 245.6418710950506 L39 245.6418710950506 L40 245.6418710950506 L41 245.6418710950506 L42 245.6418710950506 L43 245.6418710950506 L44 245.6418710950506 L45 245.6418710950506 L46 245.6418710950506 L47 245.6418710950506 L48 245.6418710950506 L49 245.6418710950506 L50 245.6418710950506 L51 245.6418710950506 L52 245.6418710950506 L53 245.6418710950506 L54 245.6418710950506 L55 245.6418710950506 L56 245.6418710950506 L57 245.6418710950506 L58 245.6418710950506 L59 245.6418710950506 L60 245.6418710950506 L61 245.6418710950506 L62 245.6418710950506 L63 245.6418710950506 L64 245.6418710950506 L65 245.6418710950506 L66 245.6418710950506 L67 245.6418710950506 L68 245.6418710950506 L69 245.6418710950506 L70 245.6418710950506 L71 202.1160439370209 L72 202.1160439370209 L73 202.1160439370209 L74 202.1160439370209 L75 202.1160439370209 L76 202.1160439370209 L77 202.1160439370209 L78 202.1160439370209 L79 202.1160439370209 L80 202.1160439370209 L81 202.1160439370209 L82 202.1160439370209 L83 202.1160439370209 L84 202.1160439370209 L85 202.1160439370209 L86 202.1160439370209 L87 202.1160439370209 L88 202.1160439370209 L89 202.1160439370209 L90 245.6418710950506 L91 245.6418710950506 L92 245.6418710950506 L93 245.6418710950506 L94 245.6418710950506 L95 245.6418710950506 L96 245.6418710950506 L97 245.6418710950506 L98 245.6418710950506 L99 245.6418710950506 L100 245.6418710950506 L101 245.6418710950506 L102 245.6418710950506 L103 245.6418710950506 L104 245.6418710950506 L105 245.6418710950506 L106 245.6418710950506 L107 245.6418710950506 L108 245.6418710950506 L109 245.6418710950506 L110 245.6418710950506 L111 245.6418710950506 L112 245.6418710950506 L113 245.6418710950506 L114 245.6418710950506 L115 245.6418710950506 L116 245.6418710950506 L117 245.6418710950506 L118 245.6418710950506 L119 245.6418710950506 L120 245.6418710950506 L121 245.6418710950506 L122 245.6418710950506 L123 245.6418710950506 L124 245.6418710950506 L125 245.6418710950506 L126 245.6418710950506 L127 245.6418710950506 L128 245.6418710950506 L129 245.6418710950506 L130 245.6418710950506 L131 245.6418710950506 L132 245.6418710950506 L133 245.6418710950506 L134 245.6418710950506 L135 245.6418710950506 L136 245.6418710950506 L137 245.6418710950506 L138 245.6418710950506 L139 245.6418710950506 L140 245.6418710950506 L141 245.6418710950506 L142 245.6418710950506 L143 245.6418710950506 L144 202.1160439370209 L145 202.1160439370209 L146 202.1160439370209 L147 202.1160439370209 L148 202.1160439370209 L149 202.1160439370209 L150 202.1160439370209 L151 202.1160439370209 L152 202.1160439370209 L153 202.1160439370209 L154 202.1160439370209 L155 202.1160439370209 L156 202.1160439370209 L157 202.1160439370209 L158 202.1160439370209 L159 202.1160439370209 L160 202.1160439370209 L161 202.1160439370209 L162 202.1160439370209 L163 245.6418710950506 L164 245.6418710950506 L165 245.6418710950506 L166 245.6418710950506 L167 245.6418710950506 L168 245.6418710950506 L169 245.6418710950506 L170 245.6418710950506 L171 245.6418710950506 L172 245.6418710950506 L173 245.6418710950506 L174 245.6418710950506 L175 245.6418710950506 L176 245.6418710950506 L177 245.6418710950506 L178 245.6418710950506 L179 245.6418710950506 L180 245.6418710950506 L181 245.6418710950506 L182 245.6418710950506 L183 245.6418710950506 L184 245.6418710950506 L185 245.6418710950506 L186 245.6418710950506 L187 245.6418710950506 L188 245.6418710950506 L189 245.6418710950506 L190 245.6418710950506 L191 245.6418710950506 L192 245.6418710950506 L193 245.6418710950506 L194 245.6418710950506 L195 245.6418710950506 L196 245.6418710950506 L197 245.6418710950506 L198 245.6418710950506 L199 245.6418710950506 L200 245.6418710950506 L201 245.6418710950506 L202 245.6418710950506 L203 245.6418710950506 L204 245.6418710950506 L205 245.6418710950506 L206 245.6418710950506 L207 245.6418710950506 L208 245.6418710950506 L209 245.6418710950506 L210 245.6418710950506 L211 245.6418710950506 L212 245.6418710950506 L213 245.6418710950506 L214 245.6418710950506 L215 245.6418710950506 L216 245.6418710950506 L217 245.6418710950506 L218 202.1160439370209 L219 202.1160439370209 L220 202.1160439370209 L221 202.1160439370209 L222 202.1160439370209 L223 202.1160439370209 L224 202.1160439370209 L225 202.1160439370209 L226 202.1160439370209 L227 202.1160439370209 L228 202.1160439370209 L229 202.1160439370209 L230 202.1160439370209 L231 202.1160439370209 L232 202.1160439370209 L233 202.1160439370209 L234 202.1160439370209 L235 202.1160439370209 L236 245.6418710950506 L237 245.6418710950506 L238 245.6418710950506 L239 245.6418710950506 L240 245.6418710950506 L241 245.6418710950506 L242 245.6418710950506 L243 245.6418710950506 L244 245.6418710950506 L245 245.6418710950506 L246 245.6418710950506 L247 245.6418710950506 L248 245.6418710950506 L249 245.6418710950506 L250 245.6418710950506 L251 245.6418710950506 L252 245.6418710950506 L253 245.6418710950506 L254 245.6418710950506 L255 245.6418710950506 L256 245.6418710950506 L257 245.6418710950506 L258 245.6418710950506 L259 245.6418710950506 L260 245.6418710950506 L261 245.6418710950506 L262 245.6418710950506 L263 245.6418710950506 L264 245.6418710950506 L265 245.6418710950506 L266 245.6418710950506 L267 245.6418710950506 L268 245.6418710950506 L269 245.6418710950506 L270 245.6418710950506 L271 245.6418710950506 L272 245.6418710950506 L273 245.6418710950506 L274 245.6418710950506 L275 245.6418710950506 L276 245.6418710950506 L277 245.6418710950506 L278 245.6418710950506 L279 245.6418710950506 L280 245.6418710950506 L281 245.6418710950506 L282 245.6418710950506 L283 245.6418710950506 L284 245.6418710950506 L285 245.6418710950506 L286 245.6418710950506 L287 245.6418710950506 L288 245.6418710950506 L289 245.6418710950506 L290 245.6418710950506 L291 202.1160439370209 L292 202.1160439370209 L293 202.1160439370209 L294 202.1160439370209 L295 202.1160439370209 L296 202.1160439370209 L297 202.1160439370209 L298 202.1160439370209 L299 202.1160439370209 L300 202.1160439370209 L301 202.1160439370209 L302 202.1160439370209 L303 202.1160439370209 L304 202.1160439370209 L305 202.1160439370209 L306 202.1160439370209 L307 202.1160439370209 L308 202.1160439370209 L309 245.6418710950506 L310 245.6418710950506 L311 245.6418710950506 L312 245.6418710950506 L313 245.6418710950506 L314 245.6418710950506 L315 245.6418710950506 L316 245.6418710950506 L317 245.6418710950506 L318 245.6418710950506 L319 245.6418710950506 L320 245.6418710950506 L321 245.6418710950506 L322 245.6418710950506 L323 245.6418710950506 L324 245.6418710950506 L325 245.6418710950506 L326 245.6418710950506 L327 245.6418710950506 L328 245.6418710950506 L329 245.6418710950506 L330 245.6418710950506 L331 245.6418710950506 L332 245.6418710950506 L333 245.6418710950506 L334 245.6418710950506 L335 245.6418710950506 L336 245.6418710950506 L337 245.6418710950506 L338 245.6418710950506 L339 245.6418710950506 L340 245.6418710950506 L341 245.6418710950506 L342 245.6418710950506 L343 245.6418710950506 L344 245.6418710950506 L345 245.6418710950506 L346 245.6418710950506 L347 245.6418710950506 L348 245.6418710950506 L349 245.6418710950506 L350 245.6418710950506 L351 245.6418710950506 L352 245.6418710950506 L353 245.6418710950506 L354 245.6418710950506 L355 245.6418710950506 L356 245.6418710950506 L357 245.6418710950506 L358 245.6418710950506 L359 245.6418710950506 L360 245.6418710950506 L361 245.6418710950506 L362 245.6418710950506 L363 245.6418710950506 L364 202.1160439370209 L365 202.1160439370209 L366 202.1160439370209 L367 202.1160439370209 L368 202.1160439370209 L369 202.1160439370209 L370 202.1160439370209 L371 202.1160439370209 L372 202.1160439370209 L373 202.1160439370209 L374 202.1160439370209 L375 202.1160439370209 L376 202.1160439370209 L377 202.1160439370209 L378 202.1160439370209 L379 202.1160439370209 L380 202.1160439370209 L381 202.1160439370209 L382 245.6418710950506 L383 245.6418710950506 L384 245.6418710950506 L385 245.6418710950506 L386 245.6418710950506 L387 245.6418710950506 L388 245.6418710950506 L389 245.6418710950506 L390 245.6418710950506 L391 245.6418710950506 L392 245.6418710950506 L393 245.6418710950506 L394 245.6418710950506 L395 245.6418710950506 L396 245.6418710950506 L397 245.6418710950506 L398 245.6418710950506 L399 245.6418710950506 " stroke = "blue" stroke-width = "4" fill = "none" />	<path d = "M0 311 L1 310.9306118320951 L2 310.9306118320951 L3 310.9306118320951 L4 310.9306118320951 L5 310.9306118320951 L6 310.9306118320951 L7 310.9306118320951 L8 310.9306118320951 L9 310.9306118320951 L10 310.9306118320951 L11 310.9306118320951 L12 310.9306118320951 L13 310.9306118320951 L14 310.9306118320951 L15 310.9306118320951 L16 267.4047846740654 L17 267.4047846740654 L18 267.4047846740654 L19 267.4047846740654 L20 267.4047846740654 L21 267.4047846740654 L22 267.4047846740654 L23 267.4047846740654 L24 267.4047846740654 L25 267.4047846740654 L26 267.4047846740654 L27 267.4047846740654 L28 267.4047846740654 L29 267.4047846740654 L30 267.4047846740654 L31 267.4047846740654 L32 267.4047846740654 L33 267.4047846740654 L34 267.4047846740654 L35 310.9306118320951 L36 310.9306118320951 L37 310.9306118320951 L38 310.9306118320951 L39 310.9306118320951 L40 310.9306118320951 L41 310.9306118320951 L42 310.9306118320951 L43 310.9306118320951 L44 310.9306118320951 L45 310.9306118320951 L46 310.9306118320951 L47 310.9306118320951 L48 310.9306118320951 L49 310.9306118320951 L50 310.9306118320951 L51 310.9306118320951 L52 310.9306118320951 L53 310.9306118320951 L54 310.9306118320951 L55 310.9306118320951 L56 310.9306118320951 L57 310.9306118320951 L58 310.9306118320951 L59 310.9306118320951 L60 310.9306118320951 L61 310.9306118320951 L62 310.9306118320951 L63 310.9306118320951 L64 310.9306118320951 L65 310.9306118320951 L66 310.9306118320951 L67 310.9306118320951 L68 310.9306118320951 L69 310.9306118320951 L70 310.9306118320951 L71 310.9306118320951 L72 310.9306118320951 L73 310.9306118320951 L74 310.9306118320951 L75 310.9306118320951 L76 310.9306118320951 L77 310.9306118320951 L78 310.9306118320951 L79 310.9306118320951 L80 310.9306118320951 L81 310.9306118320951 L82 310.9306118320951 L83 310.9306118320951 L84 310.9306118320951 L85 310.9306118320951 L86 310.9306118320951 L87 310.9306118320951 L88 310.9306118320951 L89 310.9306118320951 L90 267.4047846740654 L91 267.4047846740654 L92 267.4047846740654 L93 267.4047846740654 L94 267.4047846740654 L95 267.4047846740654 L96 267.4047846740654 L97 267.4047846740654 L98 267.4047846740654 L99 267.4047846740654 L100 267.4047846740654 L101 267.4047846740654 L102 267.4047846740654 L103 267.4047846740654 L104 267.4047846740654 L105 267.4047846740654 L106 267.4047846740654 L107 267.4047846740654 L108 310.9306118320951 L109 310.9306118320951 L110 310.9306118320951 L111 310.9306118320951 L112 310.9306118320951 L113 310.9306118320951 L114 310.9306118320951 L115 310.9306118320951 L116 310.9306118320951 L117 310.9306118320951 L118 310.9306118320951 L119 310.9306118320951 L120 310.9306118320951 L121 310.9306118320951 L122 310.9306118320951 L123 310.9306118320951 L124 310.9306118320951 L125 310.9306118320951 L126 310.9306118320951 L127 310.9306118320951 L128 310.9306118320951 L129 310.9306118320951 L130 310.9306118320951 L131 310.9306118320951 L132 310.9306118320951 L133 310.9306118320951 L134 310.9306118320951 L135 310.9306118320951 L136 310.9306118320951 L137 310.9306118320951 L138 310.9306118320951 L139 310.9306118320951 L140 310.9306118320951 L141 310.9306118320951 L142 310.9306118320951 L143 310.9306118320951 L144 310.9306118320951 L145 310.9306118320951 L146 310.9306118320951 L147 310.9306118320951 L148 310.9306118320951 L149 310.9306118320951 L150 310.9306118320951 L151 310.9306118320951 L152 310.9306118320951 L153 310.9306118320951 L154 310.9306118320951 L155 310.9306118320951 L156 310.9306118320951 L157 310.9306118320951 L158 310.9306118320951 L159 310.9306118320951 L160 310.9306118320951 L161 310.9306118320951 L162 310.9306118320951 L163 267.4047846740654 L164 267.4047846740654 L165 267.4047846740654 L166 267.4047846740654 L167 267.4047846740654 L168 267.4047846740654 L169 267.4047846740654 L170 267.4047846740654 L171 267.4047846740654 L172 267.4047846740654 L173 267.4047846740654 L174 267.4047846740654 L175 267.4047846740654 L176 267.4047846740654 L177 267.4047846740654 L178 267.4047846740654 L179 267.4047846740654 L180 267.4047846740654 L181 310.9306118320951 L182 310.9306118320951 L183 310.9306118320951 L184 310.9306118320951 L185 310.9306118320951 L186 310.9306118320951 L187 310.9306118320951 L188 310.9306118320951 L189 310.9306118320951 L190 310.9306118320951 L191 310.9306118320951 L192 310.9306118320951 L193 310.9306118320951 L194 310.9306118320951 L195 310.9306118320951 L196 310.9306118320951 L197 310.9306118320951 L198 310.9306118320951 L199 310.9306118320951 L200 310.9306118320951 L201 310.9306118320951 L202 310.9306118320951 L203 310.9306118320951 L204 310.9306118320951 L205 310.9306118320951 L206 310.9306118320951 L207 310.9306118320951 L208 310.9306118320951 L209 310.9306118320951 L210 310.9306118320951 L211 310.9306118320951 L212 310.9306118320951 L213 310.9306118320951 L214 310.9306118320951 L215 310.9306118320951 L216 310.9306118320951 L217 310.9306118320951 L218 310.9306118320951 L219 310.9306118320951 L220 310.9306118320951 L221 310.9306118320951 L222 310.9306118320951 L223 310.9306118320951 L224 310.9306118320951 L225 310.9306118320951 L226 310.9306118320951 L227 310.9306118320951 L228 310.9306118320951 L229 310.9306118320951 L230 310.9306118320951 L231 310.9306118320951 L232 310.9306118320951 L233 310.9306118320951 L234 310.9306118320951 L235 310.9306118320951 L236 267.4047846740654 L237 267.4047846740654 L238 267.4047846740654 L239 267.4047846740654 L240 267.4047846740654 L241 267.4047846740654 L242 267.4047846740654 L243 267.4047846740654 L244 267.4047846740654 L245 267.4047846740654 L246 267.4047846740654 L247 267.4047846740654 L248 267.4047846740654 L249 267.4047846740654 L250 267.4047846740654 L251 267.4047846740654 L252 267.4047846740654 L253 267.4047846740654 L254 310.9306118320951 L255 310.9306118320951 L256 310.9306118320951 L257 310.9306118320951 L258 310.9306118320951 L259 310.9306118320951 L260 310.9306118320951 L261 310.9306118320951 L262 310.9306118320951 L263 310.9306118320951 L264 310.9306118320951 L265 310.9306118320951 L266 310.9306118320951 L267 310.9306118320951 L268 310.9306118320951 L269 310.9306118320951 L270 310.9306118320951 L271 310.9306118320951 L272 310.9306118320951 L273 310.9306118320951 L274 310.9306118320951 L275 310.9306118320951 L276 310.9306118320951 L277 310.9306118320951 L278 310.9306118320951 L279 310.9306118320951 L280 310.9306118320951 L281 310.9306118320951 L282 310.9306118320951 L283 310.9306118320951 L284 310.9306118320951 L285 310.9306118320951 L286 310.9306118320951 L287 310.9306118320951 L288 310.9306118320951 L289 310.9306118320951 L290 310.9306118320951 L291 310.9306118320951 L292 310.9306118320951 L293 310.9306118320951 L294 310.9306118320951 L295 310.9306118320951 L296 310.9306118320951 L297 310.9306118320951 L298 310.9306118320951 L299 310.9306118320951 L300 310.9306118320951 L301 310.9306118320951 L302 310.9306118320951 L303 310.9306118320951 L304 310.9306118320951 L305 310.9306118320951 L306 310.9306118320951 L307 310.9306118320951 L308 310.9306118320951 L309 267.4047846740654 L310 267.4047846740654 L311 267.4047846740654 L312 267.4047846740654 L313 267.4047846740654 L314 267.4047846740654 L315 267.4047846740654 L316 267.4047846740654 L317 267.4047846740654 L318 267.4047846740654 L319 267.4047846740654 L320 267.4047846740654 L321 267.4047846740654 L322 267.4047846740654 L323 267.4047846740654 L324 267.4047846740654 L325 267.4047846740654 L326 267.4047846740654 L327 310.9306118320951 L328 310.9306118320951 L329 310.9306118320951 L330 310.9306118320951 L331 310.9306118320951 L332 310.9306118320951 L333 310.9306118320951 L334 310.9306118320951 L335 310.9306118320951 L336 310.9306118320951 L337 310.9306118320951 L338 310.9306118320951 L339 310.9306118320951 L340 310.9306118320951 L341 310.9306118320951 L342 310.9306118320951 L343 310.9306118320951 L344 310.9306118320951 L345 310.9306118320951 L346 310.9306118320951 L347 310.9306118320951 L348 310.9306118320951 L349 310.9306118320951 L350 310.9306118320951 L351 310.9306118320951 L352 310.9306118320951 L353 310.9306118320951 L354 310.9306118320951 L355 310.9306118320951 L356 310.9306118320951 L357 310.9306118320951 L358 310.9306118320951 L359 310.9306118320951 L360 310.9306118320951 L361 310.9306118320951 L362 310.9306118320951 L363 310.9306118320951 L364 310.9306118320951 L365 310.9306118320951 L366 310.9306118320951 L367 310.9306118320951 L368 310.9306118320951 L369 310.9306118320951 L370 310.9306118320951 L371 310.9306118320951 L372 310.9306118320951 L373 310.9306118320951 L374 310.9306118320951 L375 310.9306118320951 L376 310.9306118320951 L377 310.9306118320951 L378 310.9306118320951 L379 310.9306118320951 L380 310.9306118320951 L381 310.9306118320951 L382 267.4047846740654 L383 267.4047846740654 L384 267.4047846740654 L385 267.4047846740654 L386 267.4047846740654 L387 267.4047846740654 L388 267.4047846740654 L389 267.4047846740654 L390 267.4047846740654 L391 267.4047846740654 L392 267.4047846740654 L393 267.4047846740654 L394 267.4047846740654 L395 267.4047846740654 L396 267.4047846740654 L397 267.4047846740654 L398 267.4047846740654 L399 267.4047846740654 " stroke = "purple" stroke-width = "4" fill = "none" /></svg>