<svg width="500" height="500" viewbox = "0 0 500 500"  xmlns="http://www.w3.org/2000/svg">

<!--
<json>
{
    "imgurl": "",
    "imgw": 4.743971328437736,
    "imgleft": -2.2873205904167726,
    "imgtop": -3.171985664218851,
    "imgangle": 0,
    "svgwidth": 500,
    "svgheight": 500,
    "unit": 100,
    "x0": 684,
    "y0": 399,
    "x0rel": 0,
    "y0rel": 0,
    "glyph": "0321,0337,0337,0337,0337,0347,0300,0331,0332,0350,0335,0211,0211,0211,0304,0334,0336,0336,0362,0203,0335,0337,0337,0203,0203,0335,0336,0203,0335,0203,0203,0203,0203,0335,0336,0203,0363,0335,0337,0330,0330,0330,0330,0336,0336,0330,0337,0334,0362,0203,0335,0203,0334,0331,0350,0335,0345,0335,0335,0345,0335,0330,0335,0335,0203,0335,0335,0203,0363,0335,0335,0304,0336,0330,0337,0337,0337,0331,0331,0336,0331,0336,0336,0330,0335,0337,0306,0362,0203,0335,0335,0203,0203,0335,0335,0203,0203,0335,0335,0203,0363,0304,0334,0336,0336,0330,0330,0337,0337,0337,0337,",
    "table": []
}
</json>
-->
    <circle cx="250" cy = "250" r = "1600" stroke = "white" stroke-width = "4" fill = "white" />
	<path d = "M150 350 L124 324 L229 218 L335 112 L388 165 L335 218 L282 271 L229 324 L176 376 L150 350 Z" stroke = "black" stroke-width = "4" fill = "black" />	<path d = "M375 125 L349 98 L375 72 M375.0411113046763 72.00803897657626           A37.44190490571605 37.44190490571605 0 0 1 427.99196102342364 72.00803897657624M427.99196102342364 72.00803897657624           A37.44190490571605 37.44190490571605 0 0 1 427.99196102342364 124.95888869532361L402 151 L375 125 Z" stroke = "black" stroke-width = "4" fill = "black" />	<path d = "M137 363 L163 390 L127 399 L91 409 L101 373 L110 337 L137 363 Z" stroke = "black" stroke-width = "4" fill = "black" /></svg>