<svg width="300" height="300" viewbox = "0 0 300 300"  xmlns="http://www.w3.org/2000/svg">

<!--
<json>
{
    "imgurl": "",
    "imgw": 2.983971328437751,
    "imgleft": -1.4873205904167783,
    "imgtop": -1.0519856642188752,
    "imgangle": 0,
    "svgwidth": 300,
    "svgheight": 300,
    "unit": 100,
    "x0": 752.5,
    "y0": 439,
    "x0rel": 0,
    "y0rel": 0,
    "glyph": "0211,0200,0330,0336,0336,0331,0335,0362,0203,0335,0337,0337,0203,0335,0203,0335,0336,0336,0203,0335,0203,0203,0203,0334,0203,0203,0203,0354,0335,0330,0333,0362,0203,0335,0337,0337,0203,0335,0203,0335,0336,0336,0203,0335,0337,0203,0336,0203,0334,0203,0203,0203,0354,0335,0330,0333,0362,0203,0335,0203,0203,0203,0203,0335,0203,0203,0203,0203,0335,0203,0335,0203,0203,0203,0334,0203,0203,0203,0354,",
    "table": []
}
</json>
-->
	<path d = "M150 150 L150 36 L36 36 L36 150 L150 150 Z" stroke = "black" stroke-width = "8" fill = "none" />	<path d = "M150 64 L179 64 L179 179 L64 179 L64 150 L93 150 L121 150 L150 150 L150 121 L150 93 L150 64 Z" stroke = "black" stroke-width = "8" fill = "none" />	<path d = "M179 93 L207 93 L207 207 L93 207 L93 179 L150 179 L179 179 L179 150 L179 121 L179 93 Z" stroke = "black" stroke-width = "8" fill = "none" />	<path d = "M207 121 L236 121 L236 150 L236 179 L236 207 L236 236 L207 236 L179 236 L150 236 L121 236 L121 207 L150 207 L179 207 L207 207 L207 179 L207 150 L207 121 Z" stroke = "black" stroke-width = "8" fill = "none" /></svg>