<svg width="372.55279383549293" height="490.1480247034604" viewbox = "0 0 372.55279383549293 490.1480247034604"  xmlns="http://www.w3.org/2000/svg">

<!--
<topfunctions>





function YofX(){
//foobar foobar
    X = plotparams.g*(x - plotparams.x0) - funcparams.X0;
    Y = Math.sin(funcparams.phi + (Math.PI*2*X/funcparams.T));
    y = plotparams.y0 - plotparams.G*(Y - funcparams.Y0);
}

//foo
function YofX2(){
    X = plotparams.g*(x - plotparams.x0) - funcparams.X0;
    Y = Math.sin(0.5*Math.PI + funcparams.phi + (Math.PI*2*X/funcparams.T));    
    y = plotparams.y0 - plotparams.G*(Y - funcparams.Y0);
 }

function XYofT(){
    T = plotparams.g*t;
    X = Math.exp(-T/funcparams.tau)*Math.cos(2*Math.PI*T/funcparams.T);
    Y = Math.exp(-T/funcparams.tau)*Math.sin(2*Math.PI*T/funcparams.T);
    y = plotparams.y0 - plotparams.G*(Y - funcparams.Y0);
    x = plotparams.x0 - plotparams.G*(X - funcparams.X0);    
}


function plotfunction(){

/*
    currentStroke = "blue";
    currentLineWidth = 4;
    ctx.strokeStyle = currentStroke;
    ctx.lineWidth = currentLineWidth;
    ctx.beginPath();	
    x = 0;
    y = 0;
    t= 0;
    XYofT();
    currentSVG += "	<path d = \"M";
    currentSVG += Math.round(x).toString() + " ";
    currentSVG += Math.round(y).toString() + " ";
    for(t = 1;t < plotparams.duration;t++){
        ctx.moveTo(x,y);
        XYofT();
        ctx.lineTo(x,y);
        currentSVG += "L" + x + " " + y + " ";
    }
    ctx.stroke();
    currentSVG += "\""+ " stroke = \"" + currentStroke + "\" stroke-width = \"" + currentLineWidth.toString() + "\" fill = \"" + "none" + "\" "+"/>";


    /*plot one function:*/
    currentStroke = "blue";
    currentLineWidth = 4;
    ctx.strokeStyle = currentStroke;
    ctx.lineWidth = currentLineWidth;
    ctx.beginPath();	
    x = 0;
    YofX();
    currentSVG += "	<path d = \"M";
    currentSVG += Math.round(x).toString() + " ";
    currentSVG += Math.round(y).toString() + " ";
    for(x = 1;x < plotparams.plotwidth;x++){
        ctx.moveTo(x-1,y);
        YofX();
        ctx.lineTo(x,y);
        currentSVG += "L" + x + " " + y + " ";
    }
    ctx.stroke();
    currentSVG += "\""+ " stroke = \"" + currentStroke + "\" stroke-width = \"" + currentLineWidth.toString() + "\" fill = \"" + "none" + "\" "+"/>";
    /*finish plot one function*/
    
    
        /*plot one function:*/
    currentStroke = "red";
    currentLineWidth = 4;
    ctx.strokeStyle = currentStroke;
    ctx.lineWidth = currentLineWidth;
    ctx.beginPath();	
    x = 0;
    YofX2();
    currentSVG += "	<path d = \"M";
    currentSVG += Math.round(x).toString() + " ";
    currentSVG += Math.round(y).toString() + " ";
    for(x = 1;x < plotparams.plotwidth;x++){
        ctx.moveTo(x-1,y);
        YofX2();
        ctx.lineTo(x,y);
        currentSVG += "L" + x + " " + y + " ";
    }
    ctx.stroke();
    currentSVG += "\""+ " stroke = \"" + currentStroke + "\" stroke-width = \"" + currentLineWidth.toString() + "\" fill = \"" + "none" + "\" "+"/>";
    /*finish plot one function*/

}























</topfunctions>
-->

<!--
<imgurl>

</imgurl>
-->

<!--
<currentjson>
{
    "constants": {},
    "imgurl": "",
    "plotparams": {
        "G": 161.0510000000001,
        "g": 0.017985878990921366,
        "duration": 409.8080732190423,
        "plotwidth": 372.55279383549293,
        "plotheight": 490.1480247034604,
        "x0": 92.12624699075768,
        "y0": 223.48293984071955
    },
    "funcparams": {
        "phi": 1.3636363636363646,
        "T": 6.734212753702516,
        "X0": 0,
        "Y0": 0
    }
}
</currentjson>
-->

<!--
<equation>


<h2>Sin/Cos</h2>
<p style="color:blue">

</p><p class="bigeq">
$$
Y = \cos{\phi + \frac{2\pi X}{T}}

$$
</p>
<p></p>

$$
X = g(x - x_0) - X_0
$$
$$
Y = f(X)
$$
    
$$
y = y_0 - G(Y - Y_0)
$$


<p>
    X and Y, and $X_0$ and $Y_0$ in physical units of the System. x and y and x0 and y0 in pixels.  G is in pixels per Y unit and g is in X units per pixel. 
</p>



</equation>
-->
	<path d = "M0 253 L1 250.02765915413602 L2 247.35837019330032 L3 244.68235780967692 L4 242.0003755797406 L5 239.31317876110023 L6 236.62152407981532 L7 233.92616951729818 L8 231.22787409686356 L9 228.52739766998437 L10 225.825500702314 L11 223.12294405953645 L12 220.42048879310275 L13 217.71889592591614 L14 215.01892623802453 L15 212.3213400523815 L16 209.6268970207364 L17 206.936355909713 L18 204.25047438713756 L19 201.57000880867645 L20 198.8957140048432 L21 196.22834306843475 L22 193.56864714245773 L23 190.917375208603 L24 188.27527387632955 L25 185.64308717261576 L26 183.02155633243856 L27 180.41141959003838 L28 177.81341197102896 L29 175.22826508541172 L30 172.65670692155044 L31 170.0994616411672 L32 167.55724937541515 L33 165.03078602208663 L34 162.52078304401311 L35 160.02794726871434 L36 157.55298068935286 L37 155.0965802670494 L38 152.65943773461595 L39 150.24223940176083 L40 147.84566596182077 L41 145.4703923000749 L42 143.1170873036943 L43 140.7864136733802 L44 138.47902773674497 L45 136.1955792634873 L46 133.93671128241442 L47 131.70305990036218 L48 129.49525412306497 L49 127.31391567802488 L50 125.15965883943058 L51 123.03309025517511 L52 120.93480877602134 L53 118.86540528696283 L54 116.82546254082838 L55 114.81555499417614 L56 112.83624864552431 L57 110.88810087596343 L58 108.9716602921957 L59 107.08746657204479 L60 105.23605031248034 L61 103.41793288019971 L62 101.63362626480864 L63 99.88363293464305 L64 98.16844569527174 L65 96.48854755072017 L66 94.84441156745459 L67 93.23650074116435 L68 91.66526786638053 L69 90.13115540896698 L70 88.63459538151997 L71 87.17600922171184 L72 85.75580767361208 L73 84.37439067202018 L74 83.03214722984237 L75 81.72945532854376 L76 80.46668181170736 L77 79.24418228172911 L78 78.06230099967894 L79 76.92137078835529 L80 75.82171293856084 L81 74.76363711862564 L82 73.74744128720315 L83 72.77341160936382 L84 71.8418223760099 L85 70.95293592663381 L86 70.10700257544232 L87 69.30426054086692 L88 68.54493587848057 L89 67.82924241733946 L90 67.15738169976785 L91 66.52954292460285 L92 65.9459028939153 L93 65.4066259632215 L94 64.91186399519995 L95 64.46175631692628 L96 64.05642968063813 L97 63.695998228041105 L98 63.38056345816605 L99 63.11021419878648 L100 62.885026581404304 L101 62.705064019810806 L102 62.57037719222919 L103 62.48100402704327 L104 62.436969692116634 L105 62.43828658770542 L106 62.484954342966205 L107 62.57695981606054 L108 62.71427709785564 L109 62.89686751922065 L110 63.12467966191588 L111 63.39764937307251 L112 63.71569978325829 L113 64.07874132812424 L114 64.48667177362645 L115 64.93937624481555 L116 65.43672725818595 L117 65.97858475757587 L118 66.56479615360766 L119 67.19519636665754 L120 67.86960787334294 L121 68.58784075651366 L122 69.34969275873343 L123 70.15494933923628 L124 71.00338373434258 L125 71.89475702131608 L126 72.82881818564607 L127 73.8053041917338 L128 74.82394005696455 L129 75.88443892914398 L130 76.98650216727674 L131 78.12981942566529 L132 79.31406874130423 L133 80.53891662454686 L134 81.80401815301698 L135 83.10901706874057 L136 84.45354587846964 L137 85.83722595716984 L138 87.25966765464278 L139 88.72047040525337 L140 90.21922284073074 L141 91.75550290601103 L142 93.32887797809053 L143 94.9389049878533 L144 96.58513054484227 L145 98.26709106493502 L146 99.98431290089161 L147 101.73631247573553 L148 103.52259641893099 L149 105.34266170531814 L150 107.19599579676715 L151 109.08207678651112 L152 111.00037354611725 L153 112.95034587505485 L154 114.93144465281799 L155 116.94311199356058 L156 118.9847814031988 L157 121.05587793893872 L158 123.15581837118248 L159 125.28401134776814 L160 127.43985756049722 L161 129.62274991390188 L162 131.83207369620652 L163 134.06720675243224 L164 136.327519659599 L165 138.61237590397337 L166 140.9211320603141 L167 143.25313797306256 L168 145.60773693943025 L169 147.98426589432813 L170 150.38205559708948 L171 152.80043081993028 L172 155.23871053809657 L173 157.6962081216438 L174 160.17223152879453 L175 162.66608350082092 L176 165.17706175839515 L177 167.70445919935463 L178 170.24756409782458 L179 172.80566030464388 L180 175.37802744903465 L181 177.9639411414624 L182 180.56267317762735 L183 183.17349174352924 L184 185.79566162154984 L185 188.4284443974928 L186 191.07109866852497 L187 193.7228802519579 L188 196.38304239481323 L189 199.05083598411122 L190 201.7255097578247 L191 204.40631051643703 L192 207.09248333504638 L193 209.78327177595648 L194 212.47791810169159 L195 215.17566348837977 L196 217.87574823943976 L197 220.57741199951587 L198 223.27989396859624 L199 225.9824331162584 L200 228.68426839597763 L201 231.38463895944176 L202 234.08278437080878 L203 236.77794482084926 L204 239.4693613409112 L205 242.15627601664931 L206 244.83793220145714 L207 247.51357472954115 L208 250.18245012857957 L209 252.84380683190284 L210 255.49689539013792 L211 258.14096868225676 L212 260.77528212596866 L213 263.39909388739767 L214 266.0116650899863 L215 268.6122600225664 L216 271.200146346538 L217 273.7745953020998 L218 276.33488191347067 L219 278.8802851930454 L220 281.41008834442886 L221 283.9235789642882 L222 286.4200492429687 L223 288.8987961638164 L224 291.35912170115023 L225 293.80033301682914 L226 296.2217426553582 L227 298.622668737479 L228 301.0024351521897 L229 303.3603717471412 L230 305.6958145173541 L231 308.0081057922061 L232 310.29659442063434 L233 312.5606359545026 L234 314.7995928300802 L235 317.0128345475835 L236 319.1997378487264 L237 321.3596868922331 L238 323.4920734272614 L239 325.59629696468886 L240 327.6717649462129 L241 329.71789291121775 L242 331.73410466136147 L243 333.7198324228353 L244 335.67451700625145 L245 337.5976079641132 L246 339.48856374582317 L247 341.3468518501865 L248 343.171948975365 L249 344.9633411662417 L250 346.7205239591527 L251 348.4430025239455 L252 350.1302918033266 L253 351.78191664945496 L254 353.3974119577451 L255 354.97632279784375 L256 356.51820454173946 L257 358.02262298897165 L258 359.4891544889037 L259 360.9173860600244 L260 362.3069155062457 L261 363.6573515301624 L262 364.9683138432433 L263 366.2394332729226 L264 367.47035186655967 L265 368.6607229922403 L266 369.81021143639003 L267 370.9184934981715 L268 371.9852570806396 L269 373.0102017786303 L270 373.9930389633548 L271 374.93349186367965 L272 375.831295644066 L273 376.68619747914875 L274 377.49795662493307 L275 378.26634448658933 L276 378.9911446828256 L277 379.6721531068225 L278 380.3091779837097 L279 380.90203992457106 L280 381.4505719769612 L281 381.9546196719199 L282 382.4140410674713 L283 382.82870678859535 L284 383.1985000636605 L285 383.5233167573067 L286 383.80306539977096 L287 384.037667212645 L288 384.22705613105995 L289 384.3711788222905 L290 384.4699947007735 L291 384.5234759395371 L292 384.5316074780368 L293 384.4943870263968 L294 384.4118250660546 L295 384.2839448468097 L296 384.1107823802759 L297 383.8923864297408 L298 383.62881849643327 L299 383.32015280220503 L300 382.9664762686291 L301 382.5678884925223 L302 382.1245017178986 L303 381.63644080436063 L304 381.1038431919384 L305 380.526858862386 L306 379.9056502969462 L307 379.2403924305942 L308 378.5312726027764 L309 377.7784905046538 L310 376.9822581228687 L311 376.14279967984817 L312 375.2603515706619 L313 374.3351622964526 L314 373.36749239445726 L315 372.3576143646379 L316 371.30581259294524 L317 370.2123832712342 L318 369.0776343138547 L319 367.9018852709419 L320 366.68546723842974 L321 365.4287227648125 L322 364.132005754682 L323 362.7956813690664 L324 361.42012592259925 L325 360.00572677754803 L326 358.5528822347306 L327 357.06200142135305 L328 355.5335041757967 L329 353.9678209293902 L330 352.3653925851984 L331 350.72667039386215 L332 349.052115826524 L333 347.3422004448762 L334 345.59740576836646 L335 343.81822313860044 L336 342.00515358097834 L337 340.15870766360246 L338 338.2794053535011 L339 336.3677758702018 L340 334.4243575367017 L341 332.44969762787395 L342 330.4443522163518 L343 328.4088860159367 L344 326.34387222257254 L345 324.24989235293083 L346 322.1275360806542 L347 319.97740107030006 L348 317.8000928090373 L349 315.5962244361374 L350 313.366416570313 L351 311.1112971349478 L352 308.83150118127094 L353 306.5276707095252 L354 304.20045448817484 L355 301.8505078712111 L356 299.4784926136013 L357 297.08507668493627 L358 294.67093408132644 L359 292.2367446356021 L360 289.78319382586983 L361 287.3109725824783 L362 284.82077709345054 L363 282.3133086084329 L364 279.7892732412208 L365 277.24938177091525 L366 274.6943494417619 L367 272.12489576173806 L368 269.5417442999339 L369 266.94562248279357 L370 264.337261389268 L371 261.71739554494155 L372 259.08676271518436 " stroke = "blue" stroke-width = "4" fill = "none" />	<path d = "M0 65 L1 64.63457668399084 L2 64.2115098023128 L3 63.8332944331037 L4 63.50003708342095 L5 63.211831599952404 L6 62.96875914258865 L7 62.77088816156808 L8 62.61827437820091 L9 62.51096076917804 L10 62.4489775544684 L11 62.43234218880903 L12 62.46105935678972 L13 62.53512097153373 L14 62.65450617697519 L15 62.819181353732176 L16 63.029100128574214 L17 63.28420338748097 L18 63.5844192922892 L19 63.9296633009225 L20 64.3198381911989 L21 64.75483408820892 L22 65.23452849525691 L23 65.75878632835648 L24 66.32745995427089 L25 66.94038923208717 L26 67.59740155831236 L27 68.2983119154795 L28 69.04292292424941 L29 69.83102489899326 L30 70.66239590684134 L31 71.53680183017994 L32 72.45399643258008 L33 73.41372142813864 L34 74.41570655421285 L35 75.4596696475273 L36 76.54531672363237 L37 77.67234205969154 L38 78.84042828057423 L39 80.04924644822984 L40 81.29845615431836 L41 82.58770561607056 L42 83.91663177535176 L43 85.28486040090033 L44 86.69200619371281 L45 88.13767289554605 L46 89.62145340050478 L47 91.14292986968465 L48 92.70167384883746 L49 94.29724638902545 L50 95.9291981702315 L51 97.59706962788934 L52 99.30039108229896 L53 101.0386828708904 L54 102.81145548329881 L55 104.61820969921263 L56 106.45843672895612 L57 108.33161835676667 L58 110.23722708672672 L59 112.1747262913087 L60 114.14357036249167 L61 116.14320486540693 L62 118.17306669446909 L63 120.23258423194913 L64 122.32117750894439 L65 124.43825836870019 L66 126.58323063223717 L67 128.75549026623833 L68 130.95442555314662 L69 133.17941726342792 L70 135.42983882994827 L71 137.70505652441796 L72 140.0044296358522 L73 142.32731065099802 L74 144.6730454366766 L75 147.04097342399018 L76 149.43042779434097 L77 151.8407356672101 L78 154.27121828964368 L79 156.72119122739238 L80 159.18996455765125 L81 161.67684306334473 L82 164.18112642890293 L83 166.7021094374732 L84 169.23908216951253 L85 171.79133020270356 L86 174.35813481313923 L87 176.93877317771836 L88 179.53251857769573 L89 182.13864060332924 L90 184.75640535956614 L91 187.38507567271142 L92 190.02391129801873 L93 192.67216912814655 L94 195.32910340242046 L95 197.99396591684234 L96 200.66600623478803 L97 203.34447189833324 L98 206.0286086401491 L99 208.71766059590695 L100 211.41087051713285 L101 214.10747998445225 L102 216.8067296211639 L103 219.50785930708358 L104 222.21010839259725 L105 224.91271591286318 L106 227.61492080210283 L107 230.3159621079204 L108 233.01507920558998 L109 235.71151201225098 L110 238.4045012009505 L111 241.09328841447325 L112 243.77711647889774 L113 246.45522961682028 L114 249.12687366018463 L115 251.7912962626592 L116 254.4477471115008 L117 257.0954781388461 L118 259.73374373237044 L119 262.3618009452557 L120 264.97890970540743 L121 267.5843330238614 L122 270.1773372023243 L123 272.7571920397848 L124 275.3231710381425 L125 277.87455160679195 L126 280.4106152661078 L127 282.9306478497715 L128 285.43393970588363 L129 287.919785896805 L130 290.38748639766976 L131 292.8363462935158 L132 295.2656759749754 L133 297.6747913324724 L134 300.0630139488704 L135 302.4296712905175 L136 304.77409689663517 L137 307.09563056699625 L138 309.39361854784 L139 311.667413715972 L140 313.91637576099697 L141 316.1398713656326 L142 318.3372743840548 L143 320.50796601822253 L144 322.6513349921346 L145 324.7667777239667 L146 326.85369849604353 L147 328.91150962259485 L148 330.9396316152506 L149 332.93749334622714 L150 334.90453220915913 L151 336.8401942775322 L152 338.7439344606708 L153 340.61521665723814 L154 342.4535139062044 L155 344.25830853524167 L156 346.0290923065021 L157 347.7653665597404 L158 349.4666423527381 L159 351.1324405989922 L160 352.7622922026279 L161 354.35573819049796 L162 355.91232984143124 L163 357.4316288125949 L164 358.9132072629334 L165 360.3566479736503 L166 361.7615444656991 L167 363.12750111424907 L168 364.4541332600953 L169 365.7410673179801 L170 366.98794088179625 L171 368.1944028266422 L172 369.3601134077004 L173 370.4847443559104 L174 371.56797897041145 L175 372.6095122077265 L176 373.60905076766375 L177 374.5663131759112 L178 375.48102986330116 L179 376.35294324172196 L180 377.1818077766558 L181 377.96739005632236 L182 378.70946885740887 L183 379.407835207367 L184 380.06229244326073 L185 380.6726562671475 L186 381.238754797977 L187 381.7604286199941 L188 382.2375308276305 L189 382.66992706687427 L190 383.05749557310435 L191 383.40012720538016 L192 383.69772547717594 L193 383.950206583552 L194 384.1574994247544 L195 384.31954562623685 L196 384.4362995550995 L197 384.507728332939 L198 384.53381184510783 L199 384.51454274637774 L200 384.449926463009 L201 384.3399811912219 L202 384.1847378920729 L203 383.98424028273575 L204 383.7385448241904 L205 383.44772070532343 L206 383.1118498234444 L207 382.7310267612229 L208 382.30535876005376 L209 381.83496568985754 L210 381.31998001532463 L211 380.76054675861235 L212 380.15682345850655 L213 379.5089801260575 L214 378.81719919670456 L215 378.0816754789013 L216 377.30261609925645 L217 376.48024044420686 L218 375.61478009823634 L219 374.70647877866134 L220 373.7555922669985 L221 372.76238833693617 L222 371.7271466789274 L223 370.6501588214287 L224 369.53172804880353 L225 368.37216931591706 L226 367.1718091594429 L227 365.9309856059091 L228 364.6500480765086 L229 363.32935728870075 L230 361.9692851546314 L231 360.5702146764011 L232 359.1325398382104 L233 357.65666549541163 L234 356.1430072605001 L235 354.59199138607613 L236 353.00405464481025 L237 351.3796442064462 L238 349.71921751187574 L239 348.0232421443222 L240 346.29219569766616 L241 344.5265656419533 L242 342.7268491861207 L243 340.89355313798114 L244 339.02719376150327 L245 337.1282966314295 L246 335.1973964852724 L247 333.23503707272994 L248 331.2417710025635 L249 329.2181595869806 L250 327.164772683567 L251 325.0821885348131 L252 322.97099360527744 L253 320.83178241643594 L254 318.6651573792631 L255 316.4717286245892 L256 314.2521138312853 L257 312.006938052323 L258 309.7368335387556 L259 307.4424395616745 L260 305.1244022321873 L261 302.7833743194703 L262 300.42001506694584 L263 298.0349900066365 L264 295.6289707717485 L265 293.20263490753723 L266 290.75666568050724 L267 288.2917518860013 L268 285.8085876542334 L269 283.3078722548181 L270 280.7903098998536 L271 278.2566095456124 L272 275.707484692896 L273 273.1436531861108 L274 270.56583701111947 L275 267.9747620919262 L276 265.3711580862549 L277 262.7557581800729 L278 260.1292988811234 L279 257.49251981152156 L280 254.8461634994742 L281 252.19097517018034 L282 249.5277025359722 L283 246.85709558575715 L284 244.17990637381712 L285 241.49688880802665 L286 238.80879843754954 L287 236.11639224007328 L288 233.42042840864062 L289 230.7216661381387 L290 228.02086541150757 L291 225.3187867857247 L292 222.61619117762993 L293 219.91383964964695 L294 217.21249319546584 L295 214.51291252574373 L296 211.8158578538849 L297 209.122088681962 L298 206.43236358683717 L299 203.7474400065433 L300 201.06807402698595 L301 198.39502016902662 L302 195.72903117600725 L303 193.070857801773 L304 190.42124859925758 L305 187.7809497096878 L306 185.15070465246677 L307 182.53125411579518 L308 179.92333574809132 L309 177.3276839502651 L310 174.74502966890876 L311 172.17610019045804 L312 169.62161893638594 L313 167.08230525948414 L314 164.55887424129008 L315 162.0520364907166 L316 159.562497943942 L317 157.09095966561534 L318 154.63811765143308 L319 152.20466263214428 L320 149.791279879038 L321 147.3986490109673 L322 145.02744380296656 L323 142.67833199651275 L324 140.3519751114868 L325 138.0490282598878 L326 135.77013996134863 L327 133.51595196051233 L328 131.28709904631228 L329 129.08420887321387 L330 126.907901784464 L331 124.75879063740007 L332 122.63748063086669 L333 120.54456913478866 L334 118.48064552194955 L335 116.44629100202143 L336 114.44207845789458 L337 112.46857228434985 L338 110.52632822912425 L339 108.61589323640862 L340 106.73780529282648 L341 104.8925932759352 L342 103.08077680529072 L343 101.30286609612129 L344 99.5593618156484 L345 97.85075494209661 L346 96.17752662643275 L347 94.54014805687066 L348 92.9390803261833 L349 91.37477430185672 L350 89.84767049912446 L351 88.35819895691577 L352 86.90677911675513 L353 85.49381970464623 L354 84.11971861597218 L355 82.78486280344691 L356 81.48962816814753 L357 80.23437945365939 L358 79.01947014336196 L359 77.84524236088703 L360 76.71202677377502 L361 75.62014250035742 L362 74.56989701989235 L363 73.56158608597624 L364 72.59549364325878 L365 71.67189174748319 L366 70.79104048887345 L367 69.95318791889261 L368 69.1585699803897 L369 68.40741044115762 L370 67.69992083091913 L371 67.03630038175925 L372 66.41673597202038 " stroke = "red" stroke-width = "4" fill = "none" /></svg>