<svg width="550" height="550" viewbox = "0 0 550 550"  xmlns="http://www.w3.org/2000/svg">

<!--
<json>
{
    "imgurl": "",
    "imgw": 2.983971328437751,
    "imgleft": -1.4873205904167783,
    "imgtop": -1.0519856642188752,
    "imgangle": 0,
    "svgwidth": 550,
    "svgheight": 550,
    "unit": 100,
    "x0": 615.5,
    "y0": 359,
    "x0rel": 0,
    "y0rel": 0,
    "glyph": "0336,0331,0333,0330,0330,0330,0332,0236,0337,0244,0336,0336,0330,0332,0331,0336,0330,0332,0337,060,0365,061,0330,0330,0365,062,0330,0330,0365,063,0330,0330,0365,064,0330,0330,0365,065,0330,0330,0365,066,0330,0330,0365,067,0330,0330,0365,0330,0333,0333,0330,060,0365,061,0333,0333,0365,062,0333,0333,0365,063,0333,0333,0365,064,0333,0333,0365,065,0333,0333,0365,066,0333,0333,0365,067,0333,0333,0365,0330,0330,0332,0332,0332,0332,0332,0332,0332,0332,0332,0332,0332,0332,0332,0332,0332,0332,0332,0332,060,060,0171,0170,0365,0331,0331,0333,0331,0171,0365,0330,0333,0333,0330,0333,0170,0365,",
    "table": []
}
</json>
-->
	<path d = "M175 175 L175 125 L125 125 L125 175 L175 175 Z" stroke = "black" stroke-width = "2" fill = "none" />    <text x="138" y = "162" fill = "black" font-size = "25px" font-family = "arial">8</text>
	<path d = "M225 175 L225 125 L175 125 L175 175 L225 175 Z" stroke = "black" stroke-width = "2" fill = "none" />    <text x="188" y = "162" fill = "black" font-size = "25px" font-family = "arial">9</text>
	<path d = "M275 175 L275 125 L225 125 L225 175 L275 175 Z" stroke = "black" stroke-width = "2" fill = "none" />    <text x="237" y = "163" fill = "black" font-size = "25px" font-family = "arial">"</text>
	<path d = "M325 175 L325 125 L275 125 L275 175 L325 175 Z" stroke = "black" stroke-width = "2" fill = "none" />    <text x="287" y = "163" fill = "black" font-size = "25px" font-family = "arial">;</text>
	<path d = "M375 175 L375 125 L325 125 L325 175 L375 175 Z" stroke = "black" stroke-width = "2" fill = "none" />    <text x="338" y = "163" fill = "black" font-size = "25px" font-family = "arial">&lt;</text>
	<path d = "M425 175 L425 125 L375 125 L375 175 L425 175 Z" stroke = "black" stroke-width = "2" fill = "none" />    <text x="388" y = "163" fill = "black" font-size = "25px" font-family = "arial">=</text>
	<path d = "M475 175 L475 125 L425 125 L425 175 L475 175 Z" stroke = "black" stroke-width = "2" fill = "none" />    <text x="438" y = "162" fill = "black" font-size = "25px" font-family = "arial">&gt;</text>
	<path d = "M525 175 L525 125 L475 125 L475 175 L525 175 Z" stroke = "black" stroke-width = "2" fill = "none" />    <text x="488" y = "162" fill = "black" font-size = "25px" font-family = "arial">?</text>
	<path d = "M175 225 L175 175 L125 175 L125 225 L175 225 Z" stroke = "black" stroke-width = "2" fill = "none" />    <text x="138" y = "213" fill = "black" font-size = "25px" font-family = "arial">0</text>
	<path d = "M225 225 L225 175 L175 175 L175 225 L225 225 Z" stroke = "black" stroke-width = "2" fill = "none" />    <text x="188" y = "213" fill = "black" font-size = "25px" font-family = "arial">1</text>
	<path d = "M275 225 L275 175 L225 175 L225 225 L275 225 Z" stroke = "black" stroke-width = "2" fill = "none" />    <text x="238" y = "213" fill = "black" font-size = "25px" font-family = "arial">2</text>
	<path d = "M325 225 L325 175 L275 175 L275 225 L325 225 Z" stroke = "black" stroke-width = "2" fill = "none" />    <text x="288" y = "213" fill = "black" font-size = "25px" font-family = "arial">3</text>
	<path d = "M375 225 L375 175 L325 175 L325 225 L375 225 Z" stroke = "black" stroke-width = "2" fill = "none" />    <text x="338" y = "213" fill = "black" font-size = "25px" font-family = "arial">4</text>
	<path d = "M425 225 L425 175 L375 175 L375 225 L425 225 Z" stroke = "black" stroke-width = "2" fill = "none" />    <text x="388" y = "213" fill = "black" font-size = "25px" font-family = "arial">5</text>
	<path d = "M475 225 L475 175 L425 175 L425 225 L475 225 Z" stroke = "black" stroke-width = "2" fill = "none" />    <text x="438" y = "213" fill = "black" font-size = "25px" font-family = "arial">6</text>
	<path d = "M525 225 L525 175 L475 175 L475 225 L525 225 Z" stroke = "black" stroke-width = "2" fill = "none" />    <text x="488" y = "213" fill = "black" font-size = "25px" font-family = "arial">7</text>
	<path d = "M175 275 L175 225 L125 225 L125 275 L175 275 Z" stroke = "black" stroke-width = "2" fill = "none" />    <text x="137" y = "262" fill = "black" font-size = "25px" font-family = "arial">(</text>
	<path d = "M225 275 L225 225 L175 225 L175 275 L225 275 Z" stroke = "black" stroke-width = "2" fill = "none" />    <text x="187" y = "262" fill = "black" font-size = "25px" font-family = "arial">)</text>
	<path d = "M275 275 L275 225 L225 225 L225 275 L275 275 Z" stroke = "black" stroke-width = "2" fill = "none" />    <text x="237" y = "262" fill = "black" font-size = "25px" font-family = "arial">*</text>
	<path d = "M325 275 L325 225 L275 225 L275 275 L325 275 Z" stroke = "black" stroke-width = "2" fill = "none" />    <text x="287" y = "262" fill = "black" font-size = "25px" font-family = "arial">+</text>
	<path d = "M375 275 L375 225 L325 225 L325 275 L375 275 Z" stroke = "black" stroke-width = "2" fill = "none" />    <text x="337" y = "262" fill = "black" font-size = "25px" font-family = "arial">,</text>
	<path d = "M425 275 L425 225 L375 225 L375 275 L425 275 Z" stroke = "black" stroke-width = "2" fill = "none" />    <text x="387" y = "263" fill = "black" font-size = "25px" font-family = "arial">-</text>
	<path d = "M475 275 L475 225 L425 225 L425 275 L475 275 Z" stroke = "black" stroke-width = "2" fill = "none" />    <text x="437" y = "263" fill = "black" font-size = "25px" font-family = "arial">.</text>
	<path d = "M525 275 L525 225 L475 225 L475 275 L525 275 Z" stroke = "black" stroke-width = "2" fill = "none" />    <text x="487" y = "263" fill = "black" font-size = "25px" font-family = "arial">/</text>
	<path d = "M175 325 L175 275 L125 275 L125 325 L175 325 Z" stroke = "black" stroke-width = "2" fill = "none" />    <text x="137" y = "312" fill = "black" font-size = "25px" font-family = "arial"> </text>
	<path d = "M225 325 L225 275 L175 275 L175 325 L225 325 Z" stroke = "black" stroke-width = "2" fill = "none" />    <text x="187" y = "312" fill = "black" font-size = "25px" font-family = "arial">!</text>
	<path d = "M275 325 L275 275 L225 275 L225 325 L275 325 Z" stroke = "black" stroke-width = "2" fill = "none" />    <text x="237" y = "312" fill = "black" font-size = "25px" font-family = "arial">"</text>
	<path d = "M325 325 L325 275 L275 275 L275 325 L325 325 Z" stroke = "black" stroke-width = "2" fill = "none" />    <text x="287" y = "312" fill = "black" font-size = "25px" font-family = "arial">#</text>
	<path d = "M375 325 L375 275 L325 275 L325 325 L375 325 Z" stroke = "black" stroke-width = "2" fill = "none" />    <text x="337" y = "312" fill = "black" font-size = "25px" font-family = "arial">$</text>
	<path d = "M425 325 L425 275 L375 275 L375 325 L425 325 Z" stroke = "black" stroke-width = "2" fill = "none" />    <text x="387" y = "313" fill = "black" font-size = "25px" font-family = "arial">%</text>
	<path d = "M475 325 L475 275 L425 275 L425 325 L475 325 Z" stroke = "black" stroke-width = "2" fill = "none" />    <text x="437" y = "313" fill = "black" font-size = "25px" font-family = "arial">&amp;</text>
	<path d = "M525 325 L525 275 L475 275 L475 325 L525 325 Z" stroke = "black" stroke-width = "2" fill = "none" />    <text x="487" y = "313" fill = "black" font-size = "25px" font-family = "arial">'</text>
	<path d = "M175 375 L175 325 L125 325 L125 375 L175 375 Z" stroke = "black" stroke-width = "2" fill = "none" />	<path d = "M150 350 L137 350 L150 337 L162 350 L150 350 " stroke = "black" stroke-width = "2" fill = "none" />	<path d = "M225 375 L225 325 L175 325 L175 375 L225 375 Z" stroke = "black" stroke-width = "2" fill = "none" />	<path d = "M200 350 L212 350 L200 362 L187 350 L200 350 " stroke = "black" stroke-width = "2" fill = "none" />	<path d = "M275 375 L275 325 L225 325 L225 375 L275 375 Z" stroke = "black" stroke-width = "2" fill = "none" />	<path d = "M250 350 L250 362 L237 350 L250 337 L250 350 " stroke = "black" stroke-width = "2" fill = "none" />	<path d = "M325 375 L325 325 L275 325 L275 375 L325 375 Z" stroke = "black" stroke-width = "2" fill = "none" />	<path d = "M300 350 L300 337 L312 350 L300 362 L300 350 " stroke = "black" stroke-width = "2" fill = "none" />	<path d = "M475 375 L475 325 L425 325 L425 375 L475 375 Z" stroke = "black" stroke-width = "2" fill = "none" />	<path d = "M437 350 L437 338 L450 350 L437 363 L437 350 " stroke = "black" stroke-width = "2" fill = "none" />	<path d = "M450 350 L462 338 L462 350 L462 363 L450 350 " stroke = "black" stroke-width = "2" fill = "none" />	<path d = "M525 375 L525 325 L475 325 L475 375 L525 375 Z" stroke = "black" stroke-width = "2" fill = "none" />	<path d = "M487 350 L487 363 L475 350 L487 338 L487 350 " stroke = "black" stroke-width = "2" fill = "none" />	<path d = "M525 350 L512 363 L512 350 L512 338 L525 350 " stroke = "black" stroke-width = "2" fill = "none" />	<path d = "M175 425 L175 375 L125 375 L125 425 L175 425 Z" stroke = "black" stroke-width = "2" fill = "none" />	<path d = "M144 400 L144 387 L131 387 L131 400 L144 400 Z" stroke = "black" stroke-width = "2" fill = "none" />	<path d = "M169 400 L169 387 L156 387 L156 400 L169 400 Z" stroke = "black" stroke-width = "2" fill = "none" />    <line x1="144" y1="394" x2="156" y2="394" style="stroke:black;stroke-width:2" />
    <line x1="144" y1="394" x2="148" y2="398" style="stroke:black;stroke-width:2" />
    <line x1="144" y1="394" x2="148" y2="389" style="stroke:black;stroke-width:2" />
	<path d = "M225 425 L225 375 L175 375 L175 425 L225 425 Z" stroke = "black" stroke-width = "2" fill = "none" />	<path d = "M194 400 L194 387 L181 387 L181 400 L194 400 Z" stroke = "black" stroke-width = "2" fill = "none" />	<path d = "M219 400 L219 387 L206 387 L206 400 L219 400 Z" stroke = "black" stroke-width = "2" fill = "none" />    <line x1="194" y1="394" x2="206" y2="394" style="stroke:black;stroke-width:2" />
    <line x1="206" y1="394" x2="202" y2="398" style="stroke:black;stroke-width:2" />
    <line x1="206" y1="394" x2="202" y2="389" style="stroke:black;stroke-width:2" />
	<path d = "M275 425 L275 375 L225 375 L225 425 L275 425 Z" stroke = "black" stroke-width = "2" fill = "none" />	<path d = "M244 394 L244 381 L231 381 L231 394 L244 394 Z" stroke = "black" stroke-width = "2" fill = "none" />	<path d = "M256 394 L256 381 L244 381 L244 394 L256 394 Z" stroke = "black" stroke-width = "2" fill = "none" />	<path d = "M269 394 L269 381 L256 381 L256 394 L269 394 Z" stroke = "black" stroke-width = "2" fill = "none" />	<path d = "M244 419 L244 406 L231 406 L231 419 L244 419 Z" stroke = "black" stroke-width = "2" fill = "none" />	<path d = "M256 419 L256 406 L244 406 L244 419 L256 419 Z" stroke = "black" stroke-width = "2" fill = "none" />	<path d = "M269 419 L269 406 L256 406 L256 419 L269 419 Z" stroke = "black" stroke-width = "2" fill = "none" />    <line x1="250" y1="406" x2="250" y2="394" style="stroke:black;stroke-width:2" />
    <line x1="250" y1="394" x2="254" y2="398" style="stroke:black;stroke-width:2" />
    <line x1="250" y1="394" x2="246" y2="398" style="stroke:black;stroke-width:2" />
	<path d = "M325 425 L325 375 L275 375 L275 425 L325 425 Z" stroke = "black" stroke-width = "2" fill = "none" />	<path d = "M294 394 L294 381 L281 381 L281 394 L294 394 Z" stroke = "black" stroke-width = "2" fill = "none" />	<path d = "M306 394 L306 381 L294 381 L294 394 L306 394 Z" stroke = "black" stroke-width = "2" fill = "none" />	<path d = "M319 394 L319 381 L306 381 L306 394 L319 394 Z" stroke = "black" stroke-width = "2" fill = "none" />	<path d = "M294 419 L294 406 L281 406 L281 419 L294 419 Z" stroke = "black" stroke-width = "2" fill = "none" />	<path d = "M306 419 L306 406 L294 406 L294 419 L306 419 Z" stroke = "black" stroke-width = "2" fill = "none" />	<path d = "M319 419 L319 406 L306 406 L306 419 L319 419 Z" stroke = "black" stroke-width = "2" fill = "none" />    <line x1="300" y1="394" x2="300" y2="406" style="stroke:black;stroke-width:2" />
    <line x1="300" y1="406" x2="296" y2="402" style="stroke:black;stroke-width:2" />
    <line x1="300" y1="406" x2="304" y2="402" style="stroke:black;stroke-width:2" />
	<path d = "M375 425 L375 375 L325 375 L325 425 L375 425 Z" stroke = "black" stroke-width = "2" fill = "none" />	<path d = "M362 413 L362 388 L337 388 L337 413 L362 413 Z" stroke = "black" stroke-width = "2" fill = "none" />	<path d = "M356 406 L356 394 L344 394 L344 406 L356 406 Z" stroke = "black" stroke-width = "2" fill = "none" />	<path d = "M353 403 L353 397 L347 397 L347 403 L353 403 Z" stroke = "black" stroke-width = "2" fill = "none" />	<path d = "M425 425 L425 375 L375 375 L375 425 L425 425 Z" stroke = "black" stroke-width = "2" fill = "none" />	<path d = "M406 406 L406 394 L394 394 L394 406 L406 406 Z" stroke = "black" stroke-width = "2" fill = "none" />	<path d = "M403 403 L403 397 L397 397 L397 403 L403 403 Z" stroke = "black" stroke-width = "2" fill = "none" />	<path d = "M475 425 L475 375 L425 375 L425 425 L475 425 Z" stroke = "black" stroke-width = "2" fill = "none" />	<path d = "M456 406 L456 394 L444 394 L444 406 L456 406 Z" stroke = "black" stroke-width = "2" fill = "none" />    <line x1="456" y1="406" x2="467" y2="400" style="stroke:black;stroke-width:2" />
    <line x1="456" y1="394" x2="467" y2="388" style="stroke:black;stroke-width:2" />
    <line x1="467" y1="388" x2="467" y2="400" style="stroke:black;stroke-width:2" />
    <line x1="444" y1="394" x2="455" y2="388" style="stroke:black;stroke-width:2" />
    <line x1="455" y1="388" x2="467" y2="388" style="stroke:black;stroke-width:2" />
    <line x1="431" y1="400" x2="444" y2="400" style="stroke:black;stroke-width:2" />
    <line x1="444" y1="400" x2="439" y2="404" style="stroke:black;stroke-width:2" />
    <line x1="444" y1="400" x2="439" y2="396" style="stroke:black;stroke-width:2" />
	<path d = "M525 425 L525 375 L475 375 L475 425 L525 425 Z" stroke = "black" stroke-width = "2" fill = "none" />	<path d = "M494 406 L494 394 L481 394 L481 406 L494 406 Z" stroke = "black" stroke-width = "2" fill = "none" />    <line x1="494" y1="406" x2="505" y2="400" style="stroke:black;stroke-width:2" />
    <line x1="494" y1="394" x2="505" y2="388" style="stroke:black;stroke-width:2" />
    <line x1="505" y1="388" x2="505" y2="400" style="stroke:black;stroke-width:2" />
    <line x1="481" y1="394" x2="492" y2="388" style="stroke:black;stroke-width:2" />
    <line x1="492" y1="388" x2="505" y2="388" style="stroke:black;stroke-width:2" />
    <line x1="506" y1="394" x2="519" y2="394" style="stroke:black;stroke-width:2" />
    <line x1="519" y1="394" x2="514" y2="398" style="stroke:black;stroke-width:2" />
    <line x1="519" y1="394" x2="514" y2="389" style="stroke:black;stroke-width:2" />
	<path d = "M175 475 L175 425 L125 425 L125 475 L175 475 Z" stroke = "black" stroke-width = "2" fill = "none" />    <line x1="175" y1="475" x2="125" y2="425" style="stroke:black;stroke-width:2" />
    <line x1="125" y1="475" x2="175" y2="425" style="stroke:black;stroke-width:2" />
	<path d = "M225 475 L225 425 L175 425 L175 475 L225 475 Z" stroke = "black" stroke-width = "2" fill = "none" />	<path d = "M275 475 L275 425 L225 425 L225 475 L275 475 Z" stroke = "black" stroke-width = "2" fill = "none" />	<path d = "M325 475 L325 425 L275 425 L275 475 L325 475 Z" stroke = "black" stroke-width = "2" fill = "none" />	<path d = "M375 475 L375 425 L325 425 L325 475 L375 475 Z" stroke = "black" stroke-width = "2" fill = "none" />	<path d = "M425 475 L425 425 L375 425 L375 475 L425 475 Z" stroke = "black" stroke-width = "2" fill = "none" />	<path d = "M475 475 L475 425 L425 425 L425 475 L475 475 Z" stroke = "black" stroke-width = "2" fill = "none" />	<path d = "M525 475 L525 425 L475 425 L475 475 L525 475 Z" stroke = "black" stroke-width = "2" fill = "none" />	<path d = "M525 525 L525 475 L475 475 L475 525 L525 525 Z" stroke = "black" stroke-width = "2" fill = "none" />	<path d = "M475 525 L475 475 L425 475 L425 525 L475 525 Z" stroke = "black" stroke-width = "2" fill = "none" />	<path d = "M425 525 L425 475 L375 475 L375 525 L425 525 Z" stroke = "black" stroke-width = "2" fill = "none" />	<path d = "M375 525 L375 475 L325 475 L325 525 L375 525 Z" stroke = "black" stroke-width = "2" fill = "none" />	<path d = "M325 525 L325 475 L275 475 L275 525 L325 525 Z" stroke = "black" stroke-width = "2" fill = "none" />	<path d = "M275 525 L275 475 L225 475 L225 525 L275 525 Z" stroke = "black" stroke-width = "2" fill = "none" />	<path d = "M225 525 L225 475 L175 475 L175 525 L225 525 Z" stroke = "black" stroke-width = "2" fill = "none" />	<path d = "M175 525 L175 475 L125 475 L125 525 L175 525 Z" stroke = "black" stroke-width = "2" fill = "none" />    <text x="87" y = "512" fill = "black" font-size = "25px" font-family = "arial">0</text>
    <text x="87" y = "462" fill = "black" font-size = "25px" font-family = "arial">1</text>
    <text x="87" y = "412" fill = "black" font-size = "25px" font-family = "arial">2</text>
    <text x="88" y = "362" fill = "black" font-size = "25px" font-family = "arial">3</text>
    <text x="88" y = "312" fill = "black" font-size = "25px" font-family = "arial">4</text>
    <text x="88" y = "262" fill = "black" font-size = "25px" font-family = "arial">5</text>
    <text x="88" y = "212" fill = "black" font-size = "25px" font-family = "arial">6</text>
    <text x="88" y = "162" fill = "black" font-size = "25px" font-family = "arial">7</text>
    <text x="138" y = "112" fill = "black" font-size = "25px" font-family = "arial">0</text>
    <text x="188" y = "112" fill = "black" font-size = "25px" font-family = "arial">1</text>
    <text x="238" y = "112" fill = "black" font-size = "25px" font-family = "arial">2</text>
    <text x="288" y = "112" fill = "black" font-size = "25px" font-family = "arial">3</text>
    <text x="338" y = "112" fill = "black" font-size = "25px" font-family = "arial">4</text>
    <text x="388" y = "113" fill = "black" font-size = "25px" font-family = "arial">5</text>
    <text x="438" y = "113" fill = "black" font-size = "25px" font-family = "arial">6</text>
    <text x="488" y = "113" fill = "black" font-size = "25px" font-family = "arial">7</text>
    <text x="38" y = "62" fill = "black" font-size = "25px" font-family = "arial">00yx</text>
    <text x="63" y = "137" fill = "black" font-size = "25px" font-family = "arial">y</text>
    <text x="138" y = "87" fill = "black" font-size = "25px" font-family = "arial">x</text>
</svg>