<svg width="600" height="600" viewbox = "0 0 600 600"  xmlns="http://www.w3.org/2000/svg">

<!--
<json>
{
    "imgurl": "",
    "imgw": 2.983971328437751,
    "imgleft": -1.4873205904167783,
    "imgtop": -1.0519856642188752,
    "imgangle": 0,
    "svgwidth": 600,
    "svgheight": 600,
    "unit": 100,
    "x0": 615.5,
    "y0": 359,
    "x0rel": 0,
    "y0rel": 0,
    "glyph": "0330,0330,0336,0331,0331,0330,0330,0332,0331,0236,0330,0331,01030,01031,01032,01033,01034,01035,01036,01037,0331,0332,0332,0332,0332,0332,0332,0332,0332,01020,01021,01022,01023,01024,01025,01026,01027,0331,0332,0332,0332,0332,0332,0332,0332,0332,01010,01011,0331,0200,0333,0200,0333,0200,0333,0200,0333,0200,0333,0200,0333,0200,0333,0200,0330,0200,0332,0200,0332,0200,0332,0200,0332,0200,0332,0200,0332,0200,0200,0333,0331,0330,0330,0330,0330,0333,0333,0333,0200,0331,0332,0200,0331,0331,0331,0331,",
    "table": []
}
</json>
-->
	<path d = "M150 150 L150 100 L100 100 L100 150 L150 150 Z" stroke = "black" stroke-width = "4" fill = "none" />    <text x="113" y = "137" fill = "black" font-size = "25px" font-family = "arial">8</text>
	<path d = "M200 150 L200 100 L150 100 L150 150 L200 150 Z" stroke = "black" stroke-width = "4" fill = "none" />    <text x="163" y = "137" fill = "black" font-size = "25px" font-family = "arial">9</text>
	<path d = "M250 150 L250 100 L200 100 L200 150 L250 150 Z" stroke = "black" stroke-width = "4" fill = "none" />    <text x="212" y = "138" fill = "black" font-size = "25px" font-family = "arial">"</text>
	<path d = "M300 150 L300 100 L250 100 L250 150 L300 150 Z" stroke = "black" stroke-width = "4" fill = "none" />    <text x="262" y = "138" fill = "black" font-size = "25px" font-family = "arial">;</text>
	<path d = "M350 150 L350 100 L300 100 L300 150 L350 150 Z" stroke = "black" stroke-width = "4" fill = "none" />    <text x="313" y = "138" fill = "black" font-size = "25px" font-family = "arial">&lt;</text>
	<path d = "M400 150 L400 100 L350 100 L350 150 L400 150 Z" stroke = "black" stroke-width = "4" fill = "none" />    <text x="363" y = "138" fill = "black" font-size = "25px" font-family = "arial">=</text>
	<path d = "M450 150 L450 100 L400 100 L400 150 L450 150 Z" stroke = "black" stroke-width = "4" fill = "none" />    <text x="413" y = "137" fill = "black" font-size = "25px" font-family = "arial">&gt;</text>
	<path d = "M500 150 L500 100 L450 100 L450 150 L500 150 Z" stroke = "black" stroke-width = "4" fill = "none" />    <text x="463" y = "137" fill = "black" font-size = "25px" font-family = "arial">?</text>
	<path d = "M150 200 L150 150 L100 150 L100 200 L150 200 Z" stroke = "black" stroke-width = "4" fill = "none" />    <text x="113" y = "188" fill = "black" font-size = "25px" font-family = "arial">0</text>
	<path d = "M200 200 L200 150 L150 150 L150 200 L200 200 Z" stroke = "black" stroke-width = "4" fill = "none" />    <text x="163" y = "188" fill = "black" font-size = "25px" font-family = "arial">1</text>
	<path d = "M250 200 L250 150 L200 150 L200 200 L250 200 Z" stroke = "black" stroke-width = "4" fill = "none" />    <text x="213" y = "188" fill = "black" font-size = "25px" font-family = "arial">2</text>
	<path d = "M300 200 L300 150 L250 150 L250 200 L300 200 Z" stroke = "black" stroke-width = "4" fill = "none" />    <text x="263" y = "188" fill = "black" font-size = "25px" font-family = "arial">3</text>
	<path d = "M350 200 L350 150 L300 150 L300 200 L350 200 Z" stroke = "black" stroke-width = "4" fill = "none" />    <text x="313" y = "188" fill = "black" font-size = "25px" font-family = "arial">4</text>
	<path d = "M400 200 L400 150 L350 150 L350 200 L400 200 Z" stroke = "black" stroke-width = "4" fill = "none" />    <text x="363" y = "188" fill = "black" font-size = "25px" font-family = "arial">5</text>
	<path d = "M450 200 L450 150 L400 150 L400 200 L450 200 Z" stroke = "black" stroke-width = "4" fill = "none" />    <text x="413" y = "188" fill = "black" font-size = "25px" font-family = "arial">6</text>
	<path d = "M500 200 L500 150 L450 150 L450 200 L500 200 Z" stroke = "black" stroke-width = "4" fill = "none" />    <text x="463" y = "188" fill = "black" font-size = "25px" font-family = "arial">7</text>
	<path d = "M150 250 L150 200 L100 200 L100 250 L150 250 Z" stroke = "black" stroke-width = "4" fill = "none" />    <text x="112" y = "237" fill = "black" font-size = "25px" font-family = "arial">(</text>
	<path d = "M200 250 L200 200 L150 200 L150 250 L200 250 Z" stroke = "black" stroke-width = "4" fill = "none" />    <text x="162" y = "237" fill = "black" font-size = "25px" font-family = "arial">)</text>
	<path d = "M250 250 L250 200 L200 200 L200 250 L250 250 Z" stroke = "black" stroke-width = "4" fill = "none" />    <text x="212" y = "237" fill = "black" font-size = "25px" font-family = "arial">*</text>
	<path d = "M300 250 L300 200 L250 200 L250 250 L300 250 Z" stroke = "black" stroke-width = "4" fill = "none" />    <text x="262" y = "237" fill = "black" font-size = "25px" font-family = "arial">+</text>
	<path d = "M350 250 L350 200 L300 200 L300 250 L350 250 Z" stroke = "black" stroke-width = "4" fill = "none" />    <text x="312" y = "237" fill = "black" font-size = "25px" font-family = "arial">,</text>
	<path d = "M400 250 L400 200 L350 200 L350 250 L400 250 Z" stroke = "black" stroke-width = "4" fill = "none" />    <text x="362" y = "238" fill = "black" font-size = "25px" font-family = "arial">-</text>
	<path d = "M450 250 L450 200 L400 200 L400 250 L450 250 Z" stroke = "black" stroke-width = "4" fill = "none" />    <text x="412" y = "238" fill = "black" font-size = "25px" font-family = "arial">.</text>
	<path d = "M500 250 L500 200 L450 200 L450 250 L500 250 Z" stroke = "black" stroke-width = "4" fill = "none" />    <text x="462" y = "238" fill = "black" font-size = "25px" font-family = "arial">/</text>
	<path d = "M150 300 L150 250 L100 250 L100 300 L150 300 Z" stroke = "black" stroke-width = "4" fill = "none" />    <text x="112" y = "287" fill = "black" font-size = "25px" font-family = "arial"> </text>
	<path d = "M200 300 L200 250 L150 250 L150 300 L200 300 Z" stroke = "black" stroke-width = "4" fill = "none" />    <text x="162" y = "287" fill = "black" font-size = "25px" font-family = "arial">!</text>
	<path d = "M250 300 L250 250 L200 250 L200 300 L250 300 Z" stroke = "black" stroke-width = "4" fill = "none" />    <text x="212" y = "287" fill = "black" font-size = "25px" font-family = "arial">"</text>
	<path d = "M300 300 L300 250 L250 250 L250 300 L300 300 Z" stroke = "black" stroke-width = "4" fill = "none" />    <text x="262" y = "287" fill = "black" font-size = "25px" font-family = "arial">#</text>
	<path d = "M350 300 L350 250 L300 250 L300 300 L350 300 Z" stroke = "black" stroke-width = "4" fill = "none" />    <text x="312" y = "287" fill = "black" font-size = "25px" font-family = "arial">$</text>
	<path d = "M400 300 L400 250 L350 250 L350 300 L400 300 Z" stroke = "black" stroke-width = "4" fill = "none" />    <text x="362" y = "288" fill = "black" font-size = "25px" font-family = "arial">%</text>
	<path d = "M450 300 L450 250 L400 250 L400 300 L450 300 Z" stroke = "black" stroke-width = "4" fill = "none" />    <text x="412" y = "288" fill = "black" font-size = "25px" font-family = "arial">&amp;</text>
	<path d = "M500 300 L500 250 L450 250 L450 300 L500 300 Z" stroke = "black" stroke-width = "4" fill = "none" />    <text x="462" y = "288" fill = "black" font-size = "25px" font-family = "arial">'</text>
	<path d = "M150 350 L150 300 L100 300 L100 350 L150 350 Z" stroke = "black" stroke-width = "4" fill = "none" />	<path d = "M125 325 L112 325 L125 312 L137 325 L125 325 " stroke = "black" stroke-width = "4" fill = "none" />	<path d = "M200 350 L200 300 L150 300 L150 350 L200 350 Z" stroke = "black" stroke-width = "4" fill = "none" />	<path d = "M175 325 L187 325 L175 337 L162 325 L175 325 " stroke = "black" stroke-width = "4" fill = "none" />	<path d = "M250 350 L250 300 L200 300 L200 350 L250 350 Z" stroke = "black" stroke-width = "4" fill = "none" />	<path d = "M225 325 L225 337 L212 325 L225 312 L225 325 " stroke = "black" stroke-width = "4" fill = "none" />	<path d = "M300 350 L300 300 L250 300 L250 350 L300 350 Z" stroke = "black" stroke-width = "4" fill = "none" />	<path d = "M275 325 L275 312 L287 325 L275 337 L275 325 " stroke = "black" stroke-width = "4" fill = "none" />	<path d = "M450 350 L450 300 L400 300 L400 350 L450 350 Z" stroke = "black" stroke-width = "4" fill = "none" />	<path d = "M412 325 L412 313 L425 325 L412 338 L412 325 " stroke = "black" stroke-width = "4" fill = "none" />	<path d = "M425 325 L437 313 L437 325 L437 338 L425 325 " stroke = "black" stroke-width = "4" fill = "none" />	<path d = "M500 350 L500 300 L450 300 L450 350 L500 350 Z" stroke = "black" stroke-width = "4" fill = "none" />	<path d = "M462 325 L462 338 L450 325 L462 313 L462 325 " stroke = "black" stroke-width = "4" fill = "none" />	<path d = "M500 325 L487 338 L487 325 L487 313 L500 325 " stroke = "black" stroke-width = "4" fill = "none" />	<path d = "M150 400 L150 350 L100 350 L100 400 L150 400 Z" stroke = "black" stroke-width = "4" fill = "none" />	<path d = "M119 375 L119 362 L106 362 L106 375 L119 375 Z" stroke = "black" stroke-width = "4" fill = "none" />	<path d = "M144 375 L144 362 L131 362 L131 375 L144 375 Z" stroke = "black" stroke-width = "4" fill = "none" />    <line x1="119" y1="369" x2="131" y2="369" style="stroke:black;stroke-width:4" />
    <line x1="119" y1="369" x2="123" y2="373" style="stroke:black;stroke-width:4" />
    <line x1="119" y1="369" x2="123" y2="364" style="stroke:black;stroke-width:4" />
	<path d = "M200 400 L200 350 L150 350 L150 400 L200 400 Z" stroke = "black" stroke-width = "4" fill = "none" />	<path d = "M169 375 L169 362 L156 362 L156 375 L169 375 Z" stroke = "black" stroke-width = "4" fill = "none" />	<path d = "M194 375 L194 362 L181 362 L181 375 L194 375 Z" stroke = "black" stroke-width = "4" fill = "none" />    <line x1="169" y1="369" x2="181" y2="369" style="stroke:black;stroke-width:4" />
    <line x1="181" y1="369" x2="177" y2="373" style="stroke:black;stroke-width:4" />
    <line x1="181" y1="369" x2="177" y2="364" style="stroke:black;stroke-width:4" />
	<path d = "M250 400 L250 350 L200 350 L200 400 L250 400 Z" stroke = "black" stroke-width = "4" fill = "none" />	<path d = "M219 369 L219 356 L206 356 L206 369 L219 369 Z" stroke = "black" stroke-width = "4" fill = "none" />	<path d = "M231 369 L231 356 L219 356 L219 369 L231 369 Z" stroke = "black" stroke-width = "4" fill = "none" />	<path d = "M244 369 L244 356 L231 356 L231 369 L244 369 Z" stroke = "black" stroke-width = "4" fill = "none" />	<path d = "M219 394 L219 381 L206 381 L206 394 L219 394 Z" stroke = "black" stroke-width = "4" fill = "none" />	<path d = "M231 394 L231 381 L219 381 L219 394 L231 394 Z" stroke = "black" stroke-width = "4" fill = "none" />	<path d = "M244 394 L244 381 L231 381 L231 394 L244 394 Z" stroke = "black" stroke-width = "4" fill = "none" />    <line x1="225" y1="381" x2="225" y2="369" style="stroke:black;stroke-width:4" />
    <line x1="225" y1="369" x2="229" y2="373" style="stroke:black;stroke-width:4" />
    <line x1="225" y1="369" x2="221" y2="373" style="stroke:black;stroke-width:4" />
	<path d = "M300 400 L300 350 L250 350 L250 400 L300 400 Z" stroke = "black" stroke-width = "4" fill = "none" />	<path d = "M269 369 L269 356 L256 356 L256 369 L269 369 Z" stroke = "black" stroke-width = "4" fill = "none" />	<path d = "M281 369 L281 356 L269 356 L269 369 L281 369 Z" stroke = "black" stroke-width = "4" fill = "none" />	<path d = "M294 369 L294 356 L281 356 L281 369 L294 369 Z" stroke = "black" stroke-width = "4" fill = "none" />	<path d = "M269 394 L269 381 L256 381 L256 394 L269 394 Z" stroke = "black" stroke-width = "4" fill = "none" />	<path d = "M281 394 L281 381 L269 381 L269 394 L281 394 Z" stroke = "black" stroke-width = "4" fill = "none" />	<path d = "M294 394 L294 381 L281 381 L281 394 L294 394 Z" stroke = "black" stroke-width = "4" fill = "none" />    <line x1="275" y1="369" x2="275" y2="381" style="stroke:black;stroke-width:4" />
    <line x1="275" y1="381" x2="271" y2="377" style="stroke:black;stroke-width:4" />
    <line x1="275" y1="381" x2="279" y2="377" style="stroke:black;stroke-width:4" />
	<path d = "M350 400 L350 350 L300 350 L300 400 L350 400 Z" stroke = "black" stroke-width = "4" fill = "none" />	<path d = "M337 388 L337 363 L312 363 L312 388 L337 388 Z" stroke = "black" stroke-width = "4" fill = "none" />	<path d = "M331 381 L331 369 L319 369 L319 381 L331 381 Z" stroke = "black" stroke-width = "4" fill = "none" />	<path d = "M328 378 L328 372 L322 372 L322 378 L328 378 Z" stroke = "black" stroke-width = "4" fill = "none" />	<path d = "M400 400 L400 350 L350 350 L350 400 L400 400 Z" stroke = "black" stroke-width = "4" fill = "none" />	<path d = "M381 381 L381 369 L369 369 L369 381 L381 381 Z" stroke = "black" stroke-width = "4" fill = "none" />	<path d = "M378 378 L378 372 L372 372 L372 378 L378 378 Z" stroke = "black" stroke-width = "4" fill = "none" />	<path d = "M450 400 L450 350 L400 350 L400 400 L450 400 Z" stroke = "black" stroke-width = "4" fill = "none" />	<path d = "M431 381 L431 369 L419 369 L419 381 L431 381 Z" stroke = "black" stroke-width = "4" fill = "none" />    <line x1="431" y1="381" x2="442" y2="375" style="stroke:black;stroke-width:4" />
    <line x1="431" y1="369" x2="442" y2="363" style="stroke:black;stroke-width:4" />
    <line x1="442" y1="363" x2="442" y2="375" style="stroke:black;stroke-width:4" />
    <line x1="419" y1="369" x2="430" y2="363" style="stroke:black;stroke-width:4" />
    <line x1="430" y1="363" x2="442" y2="363" style="stroke:black;stroke-width:4" />
    <line x1="406" y1="375" x2="419" y2="375" style="stroke:black;stroke-width:4" />
    <line x1="419" y1="375" x2="414" y2="379" style="stroke:black;stroke-width:4" />
    <line x1="419" y1="375" x2="414" y2="371" style="stroke:black;stroke-width:4" />
	<path d = "M500 400 L500 350 L450 350 L450 400 L500 400 Z" stroke = "black" stroke-width = "4" fill = "none" />	<path d = "M469 381 L469 369 L456 369 L456 381 L469 381 Z" stroke = "black" stroke-width = "4" fill = "none" />    <line x1="469" y1="381" x2="480" y2="375" style="stroke:black;stroke-width:4" />
    <line x1="469" y1="369" x2="480" y2="363" style="stroke:black;stroke-width:4" />
    <line x1="480" y1="363" x2="480" y2="375" style="stroke:black;stroke-width:4" />
    <line x1="456" y1="369" x2="467" y2="363" style="stroke:black;stroke-width:4" />
    <line x1="467" y1="363" x2="480" y2="363" style="stroke:black;stroke-width:4" />
    <line x1="481" y1="369" x2="494" y2="369" style="stroke:black;stroke-width:4" />
    <line x1="494" y1="369" x2="489" y2="373" style="stroke:black;stroke-width:4" />
    <line x1="494" y1="369" x2="489" y2="364" style="stroke:black;stroke-width:4" />
	<path d = "M150 450 L150 400 L100 400 L100 450 L150 450 Z" stroke = "black" stroke-width = "4" fill = "none" />    <line x1="150" y1="450" x2="100" y2="400" style="stroke:black;stroke-width:4" />
    <line x1="100" y1="450" x2="150" y2="400" style="stroke:black;stroke-width:4" />
	<path d = "M150 500 L150 450 L100 450 L100 500 L150 500 Z" stroke = "black" stroke-width = "4" fill = "none" />	<path d = "M200 500 L200 450 L150 450 L150 500 L200 500 Z" stroke = "black" stroke-width = "4" fill = "none" />	<path d = "M250 500 L250 450 L200 450 L200 500 L250 500 Z" stroke = "black" stroke-width = "4" fill = "none" />	<path d = "M300 500 L300 450 L250 450 L250 500 L300 500 Z" stroke = "black" stroke-width = "4" fill = "none" />	<path d = "M350 500 L350 450 L300 450 L300 500 L350 500 Z" stroke = "black" stroke-width = "4" fill = "none" />	<path d = "M400 500 L400 450 L350 450 L350 500 L400 500 Z" stroke = "black" stroke-width = "4" fill = "none" />	<path d = "M450 500 L450 450 L400 450 L400 500 L450 500 Z" stroke = "black" stroke-width = "4" fill = "none" />	<path d = "M500 500 L500 450 L450 450 L450 500 L500 500 Z" stroke = "black" stroke-width = "4" fill = "none" />	<path d = "M500 450 L500 400 L450 400 L450 450 L500 450 Z" stroke = "black" stroke-width = "4" fill = "none" />	<path d = "M450 450 L450 400 L400 400 L400 450 L450 450 Z" stroke = "black" stroke-width = "4" fill = "none" />	<path d = "M400 450 L400 400 L350 400 L350 450 L400 450 Z" stroke = "black" stroke-width = "4" fill = "none" />	<path d = "M350 450 L350 400 L300 400 L300 450 L350 450 Z" stroke = "black" stroke-width = "4" fill = "none" />	<path d = "M300 450 L300 400 L250 400 L250 450 L300 450 Z" stroke = "black" stroke-width = "4" fill = "none" />	<path d = "M250 450 L250 400 L200 400 L200 450 L250 450 Z" stroke = "black" stroke-width = "4" fill = "none" />	<path d = "M200 450 L200 400 L150 400 L150 450 L200 450 Z" stroke = "black" stroke-width = "4" fill = "none" />	<path d = "M200 450 L200 400 L150 400 L150 450 L200 450 Z" stroke = "black" stroke-width = "4" fill = "none" />	<path d = "M400 300 L400 250 L350 250 L350 300 L400 300 Z" stroke = "black" stroke-width = "4" fill = "none" />	<path d = "M350 350 L350 300 L300 300 L300 350 L350 350 Z" stroke = "black" stroke-width = "4" fill = "none" /></svg>