<svg width="550" height="550" viewbox = "0 0 550 550"  xmlns="http://www.w3.org/2000/svg">

<!--
<json>
{
    "imgurl": "",
    "imgw": 2.983971328437751,
    "imgleft": -1.4873205904167783,
    "imgtop": -1.0519856642188752,
    "imgangle": 0,
    "svgwidth": 550,
    "svgheight": 550,
    "unit": 100,
    "x0": 615.5,
    "y0": 359,
    "x0rel": 0,
    "y0rel": 0,
    "glyph": "0330,0336,0333,0332,0234,0333,0333,0333,0235,0330,0332,0336,0336,0330,0333,0337,060,0365,",
    "table": []
}
</json>
-->
	<path d = "M175 175 L175 125 L125 125 L125 175 L175 175 Z" stroke = "black" stroke-width = "2" fill = "none" />    <text x="138" y = "162" fill = "black" font-size = "25px" font-family = "arial">x</text>
	<path d = "M225 175 L225 125 L175 125 L175 175 L225 175 Z" stroke = "black" stroke-width = "2" fill = "none" />    <text x="188" y = "162" fill = "black" font-size = "25px" font-family = "arial">y</text>
	<path d = "M275 175 L275 125 L225 125 L225 175 L275 175 Z" stroke = "black" stroke-width = "2" fill = "none" />    <text x="237" y = "163" fill = "black" font-size = "25px" font-family = "arial">z</text>
	<path d = "M325 175 L325 125 L275 125 L275 175 L325 175 Z" stroke = "black" stroke-width = "2" fill = "none" />    <text x="287" y = "163" fill = "black" font-size = "25px" font-family = "arial">{</text>
	<path d = "M375 175 L375 125 L325 125 L325 175 L375 175 Z" stroke = "black" stroke-width = "2" fill = "none" />    <text x="338" y = "163" fill = "black" font-size = "25px" font-family = "arial">|</text>
	<path d = "M425 175 L425 125 L375 125 L375 175 L425 175 Z" stroke = "black" stroke-width = "2" fill = "none" />    <text x="388" y = "163" fill = "black" font-size = "25px" font-family = "arial">}</text>
	<path d = "M475 175 L475 125 L425 125 L425 175 L475 175 Z" stroke = "black" stroke-width = "2" fill = "none" />    <text x="438" y = "162" fill = "black" font-size = "25px" font-family = "arial">~</text>
	<path d = "M525 175 L525 125 L475 125 L475 175 L525 175 Z" stroke = "black" stroke-width = "2" fill = "none" />    <text x="488" y = "162" fill = "black" font-size = "25px" font-family = "arial"></text>
	<path d = "M175 225 L175 175 L125 175 L125 225 L175 225 Z" stroke = "black" stroke-width = "2" fill = "none" />    <text x="138" y = "213" fill = "black" font-size = "25px" font-family = "arial">p</text>
	<path d = "M225 225 L225 175 L175 175 L175 225 L225 225 Z" stroke = "black" stroke-width = "2" fill = "none" />    <text x="188" y = "213" fill = "black" font-size = "25px" font-family = "arial">q</text>
	<path d = "M275 225 L275 175 L225 175 L225 225 L275 225 Z" stroke = "black" stroke-width = "2" fill = "none" />    <text x="238" y = "213" fill = "black" font-size = "25px" font-family = "arial">r</text>
	<path d = "M325 225 L325 175 L275 175 L275 225 L325 225 Z" stroke = "black" stroke-width = "2" fill = "none" />    <text x="288" y = "213" fill = "black" font-size = "25px" font-family = "arial">s</text>
	<path d = "M375 225 L375 175 L325 175 L325 225 L375 225 Z" stroke = "black" stroke-width = "2" fill = "none" />    <text x="338" y = "213" fill = "black" font-size = "25px" font-family = "arial">t</text>
	<path d = "M425 225 L425 175 L375 175 L375 225 L425 225 Z" stroke = "black" stroke-width = "2" fill = "none" />    <text x="388" y = "213" fill = "black" font-size = "25px" font-family = "arial">u</text>
	<path d = "M475 225 L475 175 L425 175 L425 225 L475 225 Z" stroke = "black" stroke-width = "2" fill = "none" />    <text x="438" y = "213" fill = "black" font-size = "25px" font-family = "arial">v</text>
	<path d = "M525 225 L525 175 L475 175 L475 225 L525 225 Z" stroke = "black" stroke-width = "2" fill = "none" />    <text x="488" y = "213" fill = "black" font-size = "25px" font-family = "arial">w</text>
	<path d = "M175 275 L175 225 L125 225 L125 275 L175 275 Z" stroke = "black" stroke-width = "2" fill = "none" />    <text x="137" y = "262" fill = "black" font-size = "25px" font-family = "arial">h</text>
	<path d = "M225 275 L225 225 L175 225 L175 275 L225 275 Z" stroke = "black" stroke-width = "2" fill = "none" />    <text x="187" y = "262" fill = "black" font-size = "25px" font-family = "arial">i</text>
	<path d = "M275 275 L275 225 L225 225 L225 275 L275 275 Z" stroke = "black" stroke-width = "2" fill = "none" />    <text x="237" y = "262" fill = "black" font-size = "25px" font-family = "arial">j</text>
	<path d = "M325 275 L325 225 L275 225 L275 275 L325 275 Z" stroke = "black" stroke-width = "2" fill = "none" />    <text x="287" y = "262" fill = "black" font-size = "25px" font-family = "arial">k</text>
	<path d = "M375 275 L375 225 L325 225 L325 275 L375 275 Z" stroke = "black" stroke-width = "2" fill = "none" />    <text x="337" y = "262" fill = "black" font-size = "25px" font-family = "arial">l</text>
	<path d = "M425 275 L425 225 L375 225 L375 275 L425 275 Z" stroke = "black" stroke-width = "2" fill = "none" />    <text x="387" y = "263" fill = "black" font-size = "25px" font-family = "arial">m</text>
	<path d = "M475 275 L475 225 L425 225 L425 275 L475 275 Z" stroke = "black" stroke-width = "2" fill = "none" />    <text x="437" y = "263" fill = "black" font-size = "25px" font-family = "arial">n</text>
	<path d = "M525 275 L525 225 L475 225 L475 275 L525 275 Z" stroke = "black" stroke-width = "2" fill = "none" />    <text x="487" y = "263" fill = "black" font-size = "25px" font-family = "arial">o</text>
	<path d = "M175 325 L175 275 L125 275 L125 325 L175 325 Z" stroke = "black" stroke-width = "2" fill = "none" />    <text x="137" y = "312" fill = "black" font-size = "25px" font-family = "arial">`</text>
	<path d = "M225 325 L225 275 L175 275 L175 325 L225 325 Z" stroke = "black" stroke-width = "2" fill = "none" />    <text x="187" y = "312" fill = "black" font-size = "25px" font-family = "arial">a</text>
	<path d = "M275 325 L275 275 L225 275 L225 325 L275 325 Z" stroke = "black" stroke-width = "2" fill = "none" />    <text x="237" y = "312" fill = "black" font-size = "25px" font-family = "arial">b</text>
	<path d = "M325 325 L325 275 L275 275 L275 325 L325 325 Z" stroke = "black" stroke-width = "2" fill = "none" />    <text x="287" y = "312" fill = "black" font-size = "25px" font-family = "arial">c</text>
	<path d = "M375 325 L375 275 L325 275 L325 325 L375 325 Z" stroke = "black" stroke-width = "2" fill = "none" />    <text x="337" y = "312" fill = "black" font-size = "25px" font-family = "arial">d</text>
	<path d = "M425 325 L425 275 L375 275 L375 325 L425 325 Z" stroke = "black" stroke-width = "2" fill = "none" />    <text x="387" y = "313" fill = "black" font-size = "25px" font-family = "arial">e</text>
	<path d = "M475 325 L475 275 L425 275 L425 325 L475 325 Z" stroke = "black" stroke-width = "2" fill = "none" />    <text x="437" y = "313" fill = "black" font-size = "25px" font-family = "arial">f</text>
	<path d = "M525 325 L525 275 L475 275 L475 325 L525 325 Z" stroke = "black" stroke-width = "2" fill = "none" />    <text x="487" y = "313" fill = "black" font-size = "25px" font-family = "arial">g</text>
	<path d = "M175 375 L175 325 L125 325 L125 375 L175 375 Z" stroke = "black" stroke-width = "2" fill = "none" />    <text x="137" y = "362" fill = "black" font-size = "25px" font-family = "arial">X</text>
	<path d = "M225 375 L225 325 L175 325 L175 375 L225 375 Z" stroke = "black" stroke-width = "2" fill = "none" />    <text x="187" y = "362" fill = "black" font-size = "25px" font-family = "arial">Y</text>
	<path d = "M275 375 L275 325 L225 325 L225 375 L275 375 Z" stroke = "black" stroke-width = "2" fill = "none" />    <text x="237" y = "362" fill = "black" font-size = "25px" font-family = "arial">Z</text>
	<path d = "M325 375 L325 325 L275 325 L275 375 L325 375 Z" stroke = "black" stroke-width = "2" fill = "none" />    <text x="287" y = "362" fill = "black" font-size = "25px" font-family = "arial">[</text>
	<path d = "M375 375 L375 325 L325 325 L325 375 L375 375 Z" stroke = "black" stroke-width = "2" fill = "none" />    <text x="337" y = "362" fill = "black" font-size = "25px" font-family = "arial">\</text>
	<path d = "M425 375 L425 325 L375 325 L375 375 L425 375 Z" stroke = "black" stroke-width = "2" fill = "none" />    <text x="387" y = "363" fill = "black" font-size = "25px" font-family = "arial">]</text>
	<path d = "M475 375 L475 325 L425 325 L425 375 L475 375 Z" stroke = "black" stroke-width = "2" fill = "none" />    <text x="437" y = "363" fill = "black" font-size = "25px" font-family = "arial">^</text>
	<path d = "M525 375 L525 325 L475 325 L475 375 L525 375 Z" stroke = "black" stroke-width = "2" fill = "none" />    <text x="487" y = "363" fill = "black" font-size = "25px" font-family = "arial">_</text>
	<path d = "M175 425 L175 375 L125 375 L125 425 L175 425 Z" stroke = "black" stroke-width = "2" fill = "none" />    <text x="137" y = "412" fill = "black" font-size = "25px" font-family = "arial">P</text>
	<path d = "M225 425 L225 375 L175 375 L175 425 L225 425 Z" stroke = "black" stroke-width = "2" fill = "none" />    <text x="187" y = "412" fill = "black" font-size = "25px" font-family = "arial">Q</text>
	<path d = "M275 425 L275 375 L225 375 L225 425 L275 425 Z" stroke = "black" stroke-width = "2" fill = "none" />    <text x="237" y = "412" fill = "black" font-size = "25px" font-family = "arial">R</text>
	<path d = "M325 425 L325 375 L275 375 L275 425 L325 425 Z" stroke = "black" stroke-width = "2" fill = "none" />    <text x="287" y = "412" fill = "black" font-size = "25px" font-family = "arial">S</text>
	<path d = "M375 425 L375 375 L325 375 L325 425 L375 425 Z" stroke = "black" stroke-width = "2" fill = "none" />    <text x="337" y = "412" fill = "black" font-size = "25px" font-family = "arial">T</text>
	<path d = "M425 425 L425 375 L375 375 L375 425 L425 425 Z" stroke = "black" stroke-width = "2" fill = "none" />    <text x="387" y = "413" fill = "black" font-size = "25px" font-family = "arial">U</text>
	<path d = "M475 425 L475 375 L425 375 L425 425 L475 425 Z" stroke = "black" stroke-width = "2" fill = "none" />    <text x="437" y = "413" fill = "black" font-size = "25px" font-family = "arial">V</text>
	<path d = "M525 425 L525 375 L475 375 L475 425 L525 425 Z" stroke = "black" stroke-width = "2" fill = "none" />    <text x="487" y = "413" fill = "black" font-size = "25px" font-family = "arial">W</text>
	<path d = "M175 475 L175 425 L125 425 L125 475 L175 475 Z" stroke = "black" stroke-width = "2" fill = "none" />    <text x="137" y = "462" fill = "black" font-size = "25px" font-family = "arial">H</text>
	<path d = "M225 475 L225 425 L175 425 L175 475 L225 475 Z" stroke = "black" stroke-width = "2" fill = "none" />    <text x="187" y = "462" fill = "black" font-size = "25px" font-family = "arial">I</text>
	<path d = "M275 475 L275 425 L225 425 L225 475 L275 475 Z" stroke = "black" stroke-width = "2" fill = "none" />    <text x="237" y = "462" fill = "black" font-size = "25px" font-family = "arial">J</text>
	<path d = "M325 475 L325 425 L275 425 L275 475 L325 475 Z" stroke = "black" stroke-width = "2" fill = "none" />    <text x="287" y = "462" fill = "black" font-size = "25px" font-family = "arial">K</text>
	<path d = "M375 475 L375 425 L325 425 L325 475 L375 475 Z" stroke = "black" stroke-width = "2" fill = "none" />    <text x="337" y = "462" fill = "black" font-size = "25px" font-family = "arial">L</text>
	<path d = "M425 475 L425 425 L375 425 L375 475 L425 475 Z" stroke = "black" stroke-width = "2" fill = "none" />    <text x="387" y = "463" fill = "black" font-size = "25px" font-family = "arial">M</text>
	<path d = "M475 475 L475 425 L425 425 L425 475 L475 475 Z" stroke = "black" stroke-width = "2" fill = "none" />    <text x="437" y = "463" fill = "black" font-size = "25px" font-family = "arial">N</text>
	<path d = "M525 475 L525 425 L475 425 L475 475 L525 475 Z" stroke = "black" stroke-width = "2" fill = "none" />    <text x="487" y = "463" fill = "black" font-size = "25px" font-family = "arial">O</text>
	<path d = "M175 525 L175 475 L125 475 L125 525 L175 525 Z" stroke = "black" stroke-width = "2" fill = "none" />    <text x="137" y = "512" fill = "black" font-size = "25px" font-family = "arial">@</text>
	<path d = "M225 525 L225 475 L175 475 L175 525 L225 525 Z" stroke = "black" stroke-width = "2" fill = "none" />    <text x="187" y = "512" fill = "black" font-size = "25px" font-family = "arial">A</text>
	<path d = "M275 525 L275 475 L225 475 L225 525 L275 525 Z" stroke = "black" stroke-width = "2" fill = "none" />    <text x="237" y = "512" fill = "black" font-size = "25px" font-family = "arial">B</text>
	<path d = "M325 525 L325 475 L275 475 L275 525 L325 525 Z" stroke = "black" stroke-width = "2" fill = "none" />    <text x="287" y = "512" fill = "black" font-size = "25px" font-family = "arial">C</text>
	<path d = "M375 525 L375 475 L325 475 L325 525 L375 525 Z" stroke = "black" stroke-width = "2" fill = "none" />    <text x="337" y = "512" fill = "black" font-size = "25px" font-family = "arial">D</text>
	<path d = "M425 525 L425 475 L375 475 L375 525 L425 525 Z" stroke = "black" stroke-width = "2" fill = "none" />    <text x="387" y = "513" fill = "black" font-size = "25px" font-family = "arial">E</text>
	<path d = "M475 525 L475 475 L425 475 L425 525 L475 525 Z" stroke = "black" stroke-width = "2" fill = "none" />    <text x="437" y = "513" fill = "black" font-size = "25px" font-family = "arial">F</text>
	<path d = "M525 525 L525 475 L475 475 L475 525 L525 525 Z" stroke = "black" stroke-width = "2" fill = "none" />    <text x="487" y = "513" fill = "black" font-size = "25px" font-family = "arial">G</text>
    <text x="87" y = "512" fill = "black" font-size = "25px" font-family = "arial">0</text>
</svg>