<svg width="400" height="400" viewbox = "0 0 400 400"  xmlns="http://www.w3.org/2000/svg">

<!--
<topfunctions>







function YofX(){
    X = plotparams.g*(x - plotparams.x0) - funcparams.X0;
    Y = 0.5*(1 + Math.tanh(X));
    y = plotparams.y0 - plotparams.G*(Y - funcparams.Y0);
}



function plotfunction(){

/*plot one function:*/
    currentStroke = "blue";
    currentLineWidth = 1;
    ctx.strokeStyle = currentStroke;
    ctx.lineWidth = currentLineWidth;
    ctx.beginPath();	
    x = 0;
    YofX();
    currentSVG += "	<path d = \"M";
    currentSVG += Math.round(x).toString() + " ";
    currentSVG += Math.round(y).toString() + " ";
    for(x = 1;x < plotparams.plotwidth;x++){
        YofX();
        ctx.lineTo(x,y);
        currentSVG += "L" + x + " " + y + " ";
    }

    ctx.lineTo(400,400);
    currentSVG += "L" + "400" + " " + "400" + " ";
    ctx.lineTo(0,400);
    currentSVG += "L" + "0" + " " + "400" + " ";
    ctx.lineTo(0,plotparams.y0);
    currentSVG += "L" + "0" + " " + plotparams.y0.toString() + " ";
    ctx.fillStyle = "blue";
    ctx.fill();		
    ctx.closePath();
    ctx.stroke();		

    currentSVG += "Z\""+ " stroke = \"" + currentStroke + "\" stroke-width = \"" + currentLineWidth.toString() + "\" fill = \"" + "blue" + "\" "+"/>";
    /*finish plot one function*/


    /*plot one function:*/
    currentStroke = "black";
    currentLineWidth = 6;
    ctx.strokeStyle = currentStroke;
    ctx.lineWidth = currentLineWidth;
    ctx.beginPath();	
    x = 0;
    YofX();
    currentSVG += "	<path d = \"M";
    currentSVG += Math.round(x).toString() + " ";
    currentSVG += Math.round(y).toString() + " ";
    for(x = 1;x < plotparams.plotwidth;x++){
        ctx.moveTo(x-1,y);
        YofX();
        ctx.lineTo(x,y);
        currentSVG += "L" + x + " " + y + " ";
    }
    ctx.stroke();
    currentSVG += "\""+ " stroke = \"" + currentStroke + "\" stroke-width = \"" + currentLineWidth.toString() + "\" fill = \"" + "none" + "\" "+"/>";
    /*finish plot one function*/
    
    

}





</topfunctions>
-->

<!--
<imgurl>

</imgurl>
-->

<!--
<currentjson>
{
    "constants": {},
    "imgurl": "",
    "plotparams": {
        "G": 83.30146206611592,
        "g": 0.07513148009015776,
        "duration": 545.4545454545454,
        "plotwidth": 400,
        "plotheight": 400,
        "x0": 200,
        "y0": 223.13366933306332
    },
    "funcparams": {
        "a": 0.12727272727272726,
        "b": 0,
        "c": 0,
        "X0": 0,
        "Y0": 0
    }
}
</currentjson>
-->

<!--
<equation>






<h2>Filled Fermi Function</h2>
<p style="color:blue">

</p><p class="bigeq">
$$
Y = \frac{1}{2}(\tanh{X} + 1)$$
</p>
<p></p>

$$
X = g(x - x_0) - X_0
$$
$$
Y = f(X)
$$
    
$$
y = y_0 - G(Y - Y_0)
$$


<p>
    X and Y, and $X_0$ and $Y_0$ in physical units of the System. x and y and x0 and y0 in pixels.  G is in pixels per Y unit and g is in X units per pixel. 
</p>







</equation>
-->
	<path d = "M0 223 L1 223.13366933305474 L2 223.13366933305335 L3 223.13366933305173 L4 223.13366933304982 L5 223.13366933304764 L6 223.1336693330451 L7 223.13366933304215 L8 223.1336693330387 L9 223.13366933303473 L10 223.1336693330301 L11 223.1336693330247 L12 223.13366933301845 L13 223.13366933301117 L14 223.1336693330027 L15 223.13366933299287 L16 223.13366933298147 L17 223.13366933296817 L18 223.13366933295276 L19 223.13366933293483 L20 223.133669332914 L21 223.13366933288978 L22 223.13366933286164 L23 223.13366933282893 L24 223.13366933279093 L25 223.13366933274676 L26 223.13366933269546 L27 223.1336693326358 L28 223.13366933256648 L29 223.13366933248594 L30 223.13366933239232 L31 223.13366933228352 L32 223.13366933215707 L33 223.13366933201013 L34 223.13366933183937 L35 223.13366933164093 L36 223.1336693314103 L37 223.13366933114227 L38 223.1336693308308 L39 223.13366933046882 L40 223.13366933004815 L41 223.13366932955927 L42 223.13366932899112 L43 223.13366932833085 L44 223.13366932756352 L45 223.1336693266718 L46 223.13366932563548 L47 223.13366932443114 L48 223.1336693230315 L49 223.13366932140494 L50 223.13366931951467 L51 223.1336693173179 L52 223.13366931476492 L53 223.13366931179803 L54 223.13366930835008 L55 223.13366930434307 L56 223.13366929968637 L57 223.13366929427463 L58 223.13366928798544 L59 223.13366928067654 L60 223.13366927218254 L61 223.13366926231134 L62 223.13366925083963 L63 223.13366923750792 L64 223.13366922201456 L65 223.13366920400915 L66 223.13366918308432 L67 223.13366915876676 L68 223.13366913050635 L69 223.1336690976638 L70 223.13366905949619 L71 223.13366901514004 L72 223.13366896359204 L73 223.13366890368604 L74 223.1336688340669 L75 223.13366875315972 L76 223.13366865913426 L77 223.13366854986353 L78 223.13366842287567 L79 223.13366827529802 L80 223.1336681037922 L81 223.13366790447841 L82 223.13366767284793 L83 223.13366740366098 L84 223.13366709082806 L85 223.1336667272725 L86 223.13366630477012 L87 223.1336658137633 L88 223.13366524314472 L89 223.13366458000618 L90 223.1336638093465 L91 223.13366291373222 L92 223.13366187290328 L93 223.13366066331454 L94 223.13365925760337 L95 223.13365762397055 L96 223.13365572546093 L97 223.13365351912742 L98 223.1336509550596 L99 223.13364797525452 L100 223.13364451230473 L101 223.13364048787332 L102 223.1336358109219 L103 223.13363037565117 L104 223.1336240591076 L105 223.13361671840218 L106 223.13360818747785 L107 223.13359827335336 L108 223.1335867517577 L109 223.1335733620568 L110 223.13355780135794 L111 223.13353971765778 L112 223.13351870187998 L113 223.1334942786215 L114 223.1334658953988 L115 223.1334329101504 L116 223.13339457671321 L117 223.1333500279446 L118 223.13329825610742 L119 223.13323809007585 L120 223.1331681688452 L121 223.13308691074772 L122 223.13299247767782 L123 223.13288273351793 L124 223.1327551958253 L125 223.13260697968747 L126 223.1324347324775 L127 223.13223455803444 L128 223.13200192855612 L129 223.13173158221332 L130 223.13141740417345 L131 223.13105228834684 L132 223.1306279767347 L133 223.13013487275393 L134 223.12956182432745 L135 223.12889587185003 L136 223.1281219553498 L137 223.12722257425122 L138 223.12617739208267 L139 223.1249627772408 L140 223.12355126949646 L141 223.1219109602727 L142 223.12000477280878 L143 223.11778962610768 L144 223.1152154639965 L145 223.11222412766512 L146 223.1087480466213 L147 223.10470871904803 L148 223.10001494799488 L149 223.09456079459264 L150 223.0882232034617 L151 223.08085924858074 L152 223.07230293999046 L153 223.06236152270375 L154 223.05081118896555 L155 223.03739211342543 L156 223.02180270775014 L157 223.00369297661007 L158 222.98265684076975 L159 222.9582232751846 L160 222.92984609063785 L161 222.89689216673935 L162 222.8586279224375 L163 222.81420378820084 L164 222.76263642269845 L165 222.70278839762094 L166 222.63334505936515 L167 222.5527882686519 L168 222.4593667228929 L169 222.35106258688464 L170 222.22555420266437 L171 222.08017472892854 L172 221.91186668692905 L173 221.7171325791727 L174 221.4919820192175 L175 221.23187618890438 L176 220.93167095055153 L177 220.58556061543493 L178 220.1870252356798 L179 219.72878536935568 L180 219.20276958112566 L181 218.60010147339656 L182 217.9111147472059 L183 217.12540656077832 L184 216.23194109607743 L185 215.21921646017307 L186 214.07550841026514 L187 212.78920333750776 L188 211.34922981030877 L189 209.74559207509242 L190 207.969999684682 L191 206.01657467769073 L192 203.882601930426 L193 201.5692708634164 L194 199.0823401641791 L195 196.43264520187682 L196 193.63636454058124 L197 190.71497119231086 L198 187.694818073512 L199 184.60634464157746 L200 181.48293830000537 L201 178.35953195843325 L202 175.2710585264987 L203 172.25090540769986 L204 169.3295120594295 L205 166.5332313981339 L206 163.88353643583162 L207 161.39660573659435 L208 159.08327466958474 L209 156.94930192232 L210 154.99587691532872 L211 153.22028452491833 L212 151.61664678970195 L213 150.17667326250296 L214 148.89036818974557 L215 147.74666013983767 L216 146.73393550393328 L217 145.8404700392324 L218 145.05476185280486 L219 144.36577512661415 L220 143.76310701888505 L221 143.23709123065504 L222 142.77885136433093 L223 142.38031598457582 L224 142.0342056494592 L225 141.73400041110636 L226 141.47389458079323 L227 141.24874402083805 L228 141.0540099130817 L229 140.88570187108218 L230 140.74032239734635 L231 140.61481401312608 L232 140.50650987711785 L233 140.4130883313588 L234 140.33253154064556 L235 140.26308820238978 L236 140.20324017731227 L237 140.15167281180987 L238 140.10724867757324 L239 140.06898443327137 L240 140.0360305093729 L241 140.00765332482615 L242 139.98321975924097 L243 139.96218362340068 L244 139.9440738922606 L245 139.92848448658532 L246 139.9150654110452 L247 139.90351507730696 L248 139.89357366002028 L249 139.88501735142998 L250 139.87765339654905 L251 139.87131580541808 L252 139.86586165201584 L253 139.86116788096268 L254 139.85712855338943 L255 139.85365247234563 L256 139.85066113601425 L257 139.84808697390307 L258 139.84587182720196 L259 139.84396563973806 L260 139.84232533051426 L261 139.84091382276995 L262 139.83969920792805 L263 139.83865402575952 L264 139.83775464466095 L265 139.8369807281607 L266 139.83631477568326 L267 139.8357417272568 L268 139.83524862327602 L269 139.8348243116639 L270 139.83445919583727 L271 139.83414501779743 L272 139.83387467145462 L273 139.83364204197628 L274 139.83344186753322 L275 139.83326962032325 L276 139.83312140418542 L277 139.8329938664928 L278 139.83288412233293 L279 139.83278968926302 L280 139.83270843116554 L281 139.8326385099349 L282 139.8325783439033 L283 139.83252657206614 L284 139.83248202329753 L285 139.83244368986036 L286 139.83241070461193 L287 139.83238232138922 L288 139.83235789813074 L289 139.83233688235293 L290 139.8323187986528 L291 139.8323032379539 L292 139.83228984825303 L293 139.8322783266574 L294 139.83226841253287 L295 139.83225988160854 L296 139.83225254090314 L297 139.83224622435955 L298 139.83224078908884 L299 139.83223611213742 L300 139.832232087706 L301 139.8322286247562 L302 139.83222564495114 L303 139.8322230808833 L304 139.83222087454982 L305 139.83221897604017 L306 139.83221734240735 L307 139.83221593669617 L308 139.83221472710747 L309 139.8322136862785 L310 139.83221279066424 L311 139.83221202000456 L312 139.83221135686603 L313 139.83221078624746 L314 139.8322102952406 L315 139.83220987273825 L316 139.83220950918266 L317 139.83220919634977 L318 139.83220892716278 L319 139.8322086955323 L320 139.83220849621853 L321 139.8322083247127 L322 139.83220817713504 L323 139.8322080501472 L324 139.83220794087646 L325 139.83220784685102 L326 139.83220776594385 L327 139.8322076963247 L328 139.83220763641867 L329 139.83220758487067 L330 139.83220754051456 L331 139.83220750234693 L332 139.83220746950437 L333 139.83220744124395 L334 139.8322074169264 L335 139.8322073960016 L336 139.83220737799616 L337 139.83220736250283 L338 139.83220734917109 L339 139.8322073376994 L340 139.8322073278282 L341 139.8322073193342 L342 139.83220731202528 L343 139.83220730573612 L344 139.83220730032434 L345 139.83220729566767 L346 139.83220729166067 L347 139.83220728821271 L348 139.83220728524583 L349 139.83220728269285 L350 139.83220728049605 L351 139.83220727860578 L352 139.83220727697923 L353 139.8322072755796 L354 139.83220727437526 L355 139.83220727333895 L356 139.8322072724472 L357 139.83220727167986 L358 139.83220727101963 L359 139.83220727045148 L360 139.83220726996257 L361 139.83220726954193 L362 139.83220726917995 L363 139.83220726886844 L364 139.83220726860043 L365 139.8322072683698 L366 139.83220726817135 L367 139.8322072680006 L368 139.83220726785365 L369 139.8322072677272 L370 139.8322072676184 L371 139.83220726752478 L372 139.83220726744423 L373 139.83220726737494 L374 139.83220726731528 L375 139.83220726726395 L376 139.8322072672198 L377 139.8322072671818 L378 139.8322072671491 L379 139.83220726712094 L380 139.83220726709675 L381 139.8322072670759 L382 139.83220726705798 L383 139.83220726704255 L384 139.83220726702928 L385 139.83220726701785 L386 139.83220726700802 L387 139.83220726699955 L388 139.83220726699227 L389 139.83220726698602 L390 139.83220726698065 L391 139.832207266976 L392 139.832207266972 L393 139.83220726696857 L394 139.8322072669656 L395 139.83220726696308 L396 139.8322072669609 L397 139.83220726695902 L398 139.8322072669574 L399 139.832207266956 L400 400 L0 400 L0 223.13366933306332 Z" stroke = "blue" stroke-width = "1" fill = "blue" />	<path d = "M0 223 L1 223.13366933305474 L2 223.13366933305335 L3 223.13366933305173 L4 223.13366933304982 L5 223.13366933304764 L6 223.1336693330451 L7 223.13366933304215 L8 223.1336693330387 L9 223.13366933303473 L10 223.1336693330301 L11 223.1336693330247 L12 223.13366933301845 L13 223.13366933301117 L14 223.1336693330027 L15 223.13366933299287 L16 223.13366933298147 L17 223.13366933296817 L18 223.13366933295276 L19 223.13366933293483 L20 223.133669332914 L21 223.13366933288978 L22 223.13366933286164 L23 223.13366933282893 L24 223.13366933279093 L25 223.13366933274676 L26 223.13366933269546 L27 223.1336693326358 L28 223.13366933256648 L29 223.13366933248594 L30 223.13366933239232 L31 223.13366933228352 L32 223.13366933215707 L33 223.13366933201013 L34 223.13366933183937 L35 223.13366933164093 L36 223.1336693314103 L37 223.13366933114227 L38 223.1336693308308 L39 223.13366933046882 L40 223.13366933004815 L41 223.13366932955927 L42 223.13366932899112 L43 223.13366932833085 L44 223.13366932756352 L45 223.1336693266718 L46 223.13366932563548 L47 223.13366932443114 L48 223.1336693230315 L49 223.13366932140494 L50 223.13366931951467 L51 223.1336693173179 L52 223.13366931476492 L53 223.13366931179803 L54 223.13366930835008 L55 223.13366930434307 L56 223.13366929968637 L57 223.13366929427463 L58 223.13366928798544 L59 223.13366928067654 L60 223.13366927218254 L61 223.13366926231134 L62 223.13366925083963 L63 223.13366923750792 L64 223.13366922201456 L65 223.13366920400915 L66 223.13366918308432 L67 223.13366915876676 L68 223.13366913050635 L69 223.1336690976638 L70 223.13366905949619 L71 223.13366901514004 L72 223.13366896359204 L73 223.13366890368604 L74 223.1336688340669 L75 223.13366875315972 L76 223.13366865913426 L77 223.13366854986353 L78 223.13366842287567 L79 223.13366827529802 L80 223.1336681037922 L81 223.13366790447841 L82 223.13366767284793 L83 223.13366740366098 L84 223.13366709082806 L85 223.1336667272725 L86 223.13366630477012 L87 223.1336658137633 L88 223.13366524314472 L89 223.13366458000618 L90 223.1336638093465 L91 223.13366291373222 L92 223.13366187290328 L93 223.13366066331454 L94 223.13365925760337 L95 223.13365762397055 L96 223.13365572546093 L97 223.13365351912742 L98 223.1336509550596 L99 223.13364797525452 L100 223.13364451230473 L101 223.13364048787332 L102 223.1336358109219 L103 223.13363037565117 L104 223.1336240591076 L105 223.13361671840218 L106 223.13360818747785 L107 223.13359827335336 L108 223.1335867517577 L109 223.1335733620568 L110 223.13355780135794 L111 223.13353971765778 L112 223.13351870187998 L113 223.1334942786215 L114 223.1334658953988 L115 223.1334329101504 L116 223.13339457671321 L117 223.1333500279446 L118 223.13329825610742 L119 223.13323809007585 L120 223.1331681688452 L121 223.13308691074772 L122 223.13299247767782 L123 223.13288273351793 L124 223.1327551958253 L125 223.13260697968747 L126 223.1324347324775 L127 223.13223455803444 L128 223.13200192855612 L129 223.13173158221332 L130 223.13141740417345 L131 223.13105228834684 L132 223.1306279767347 L133 223.13013487275393 L134 223.12956182432745 L135 223.12889587185003 L136 223.1281219553498 L137 223.12722257425122 L138 223.12617739208267 L139 223.1249627772408 L140 223.12355126949646 L141 223.1219109602727 L142 223.12000477280878 L143 223.11778962610768 L144 223.1152154639965 L145 223.11222412766512 L146 223.1087480466213 L147 223.10470871904803 L148 223.10001494799488 L149 223.09456079459264 L150 223.0882232034617 L151 223.08085924858074 L152 223.07230293999046 L153 223.06236152270375 L154 223.05081118896555 L155 223.03739211342543 L156 223.02180270775014 L157 223.00369297661007 L158 222.98265684076975 L159 222.9582232751846 L160 222.92984609063785 L161 222.89689216673935 L162 222.8586279224375 L163 222.81420378820084 L164 222.76263642269845 L165 222.70278839762094 L166 222.63334505936515 L167 222.5527882686519 L168 222.4593667228929 L169 222.35106258688464 L170 222.22555420266437 L171 222.08017472892854 L172 221.91186668692905 L173 221.7171325791727 L174 221.4919820192175 L175 221.23187618890438 L176 220.93167095055153 L177 220.58556061543493 L178 220.1870252356798 L179 219.72878536935568 L180 219.20276958112566 L181 218.60010147339656 L182 217.9111147472059 L183 217.12540656077832 L184 216.23194109607743 L185 215.21921646017307 L186 214.07550841026514 L187 212.78920333750776 L188 211.34922981030877 L189 209.74559207509242 L190 207.969999684682 L191 206.01657467769073 L192 203.882601930426 L193 201.5692708634164 L194 199.0823401641791 L195 196.43264520187682 L196 193.63636454058124 L197 190.71497119231086 L198 187.694818073512 L199 184.60634464157746 L200 181.48293830000537 L201 178.35953195843325 L202 175.2710585264987 L203 172.25090540769986 L204 169.3295120594295 L205 166.5332313981339 L206 163.88353643583162 L207 161.39660573659435 L208 159.08327466958474 L209 156.94930192232 L210 154.99587691532872 L211 153.22028452491833 L212 151.61664678970195 L213 150.17667326250296 L214 148.89036818974557 L215 147.74666013983767 L216 146.73393550393328 L217 145.8404700392324 L218 145.05476185280486 L219 144.36577512661415 L220 143.76310701888505 L221 143.23709123065504 L222 142.77885136433093 L223 142.38031598457582 L224 142.0342056494592 L225 141.73400041110636 L226 141.47389458079323 L227 141.24874402083805 L228 141.0540099130817 L229 140.88570187108218 L230 140.74032239734635 L231 140.61481401312608 L232 140.50650987711785 L233 140.4130883313588 L234 140.33253154064556 L235 140.26308820238978 L236 140.20324017731227 L237 140.15167281180987 L238 140.10724867757324 L239 140.06898443327137 L240 140.0360305093729 L241 140.00765332482615 L242 139.98321975924097 L243 139.96218362340068 L244 139.9440738922606 L245 139.92848448658532 L246 139.9150654110452 L247 139.90351507730696 L248 139.89357366002028 L249 139.88501735142998 L250 139.87765339654905 L251 139.87131580541808 L252 139.86586165201584 L253 139.86116788096268 L254 139.85712855338943 L255 139.85365247234563 L256 139.85066113601425 L257 139.84808697390307 L258 139.84587182720196 L259 139.84396563973806 L260 139.84232533051426 L261 139.84091382276995 L262 139.83969920792805 L263 139.83865402575952 L264 139.83775464466095 L265 139.8369807281607 L266 139.83631477568326 L267 139.8357417272568 L268 139.83524862327602 L269 139.8348243116639 L270 139.83445919583727 L271 139.83414501779743 L272 139.83387467145462 L273 139.83364204197628 L274 139.83344186753322 L275 139.83326962032325 L276 139.83312140418542 L277 139.8329938664928 L278 139.83288412233293 L279 139.83278968926302 L280 139.83270843116554 L281 139.8326385099349 L282 139.8325783439033 L283 139.83252657206614 L284 139.83248202329753 L285 139.83244368986036 L286 139.83241070461193 L287 139.83238232138922 L288 139.83235789813074 L289 139.83233688235293 L290 139.8323187986528 L291 139.8323032379539 L292 139.83228984825303 L293 139.8322783266574 L294 139.83226841253287 L295 139.83225988160854 L296 139.83225254090314 L297 139.83224622435955 L298 139.83224078908884 L299 139.83223611213742 L300 139.832232087706 L301 139.8322286247562 L302 139.83222564495114 L303 139.8322230808833 L304 139.83222087454982 L305 139.83221897604017 L306 139.83221734240735 L307 139.83221593669617 L308 139.83221472710747 L309 139.8322136862785 L310 139.83221279066424 L311 139.83221202000456 L312 139.83221135686603 L313 139.83221078624746 L314 139.8322102952406 L315 139.83220987273825 L316 139.83220950918266 L317 139.83220919634977 L318 139.83220892716278 L319 139.8322086955323 L320 139.83220849621853 L321 139.8322083247127 L322 139.83220817713504 L323 139.8322080501472 L324 139.83220794087646 L325 139.83220784685102 L326 139.83220776594385 L327 139.8322076963247 L328 139.83220763641867 L329 139.83220758487067 L330 139.83220754051456 L331 139.83220750234693 L332 139.83220746950437 L333 139.83220744124395 L334 139.8322074169264 L335 139.8322073960016 L336 139.83220737799616 L337 139.83220736250283 L338 139.83220734917109 L339 139.8322073376994 L340 139.8322073278282 L341 139.8322073193342 L342 139.83220731202528 L343 139.83220730573612 L344 139.83220730032434 L345 139.83220729566767 L346 139.83220729166067 L347 139.83220728821271 L348 139.83220728524583 L349 139.83220728269285 L350 139.83220728049605 L351 139.83220727860578 L352 139.83220727697923 L353 139.8322072755796 L354 139.83220727437526 L355 139.83220727333895 L356 139.8322072724472 L357 139.83220727167986 L358 139.83220727101963 L359 139.83220727045148 L360 139.83220726996257 L361 139.83220726954193 L362 139.83220726917995 L363 139.83220726886844 L364 139.83220726860043 L365 139.8322072683698 L366 139.83220726817135 L367 139.8322072680006 L368 139.83220726785365 L369 139.8322072677272 L370 139.8322072676184 L371 139.83220726752478 L372 139.83220726744423 L373 139.83220726737494 L374 139.83220726731528 L375 139.83220726726395 L376 139.8322072672198 L377 139.8322072671818 L378 139.8322072671491 L379 139.83220726712094 L380 139.83220726709675 L381 139.8322072670759 L382 139.83220726705798 L383 139.83220726704255 L384 139.83220726702928 L385 139.83220726701785 L386 139.83220726700802 L387 139.83220726699955 L388 139.83220726699227 L389 139.83220726698602 L390 139.83220726698065 L391 139.832207266976 L392 139.832207266972 L393 139.83220726696857 L394 139.8322072669656 L395 139.83220726696308 L396 139.8322072669609 L397 139.83220726695902 L398 139.8322072669574 L399 139.832207266956 " stroke = "black" stroke-width = "6" fill = "none" /></svg>