<svg width="400" height="400" viewbox = "0 0 400 400"  xmlns="http://www.w3.org/2000/svg">

<!--
<topfunctions>







function YofX(){
    X = plotparams.g*(x - plotparams.x0) - funcparams.X0;
    Y = 0.5*(1 + Math.tanh(X));
    y = plotparams.y0 - plotparams.G*(Y - funcparams.Y0);
}



function plotfunction(){

/*plot one function:*/
    currentStroke = "red";
    currentLineWidth = 1;
    ctx.strokeStyle = currentStroke;
    ctx.lineWidth = currentLineWidth;
    ctx.beginPath();	
    x = 0;
    YofX();
    currentSVG += "	<path d = \"M";
    currentSVG += Math.round(x).toString() + " ";
    currentSVG += Math.round(y).toString() + " ";
    for(x = 1;x < plotparams.plotwidth;x++){
        YofX();
        ctx.lineTo(x,y);
        currentSVG += "L" + x + " " + y + " ";
    }

    ctx.lineTo(400,400);
    currentSVG += "L" + "400" + " " + "400" + " ";
    ctx.lineTo(0,400);
    currentSVG += "L" + "0" + " " + "400" + " ";
    ctx.lineTo(0,plotparams.y0);
    currentSVG += "L" + "0" + " " + plotparams.y0.toString() + " ";
    ctx.fillStyle = "red";
    ctx.fill();		
    ctx.closePath();
    ctx.stroke();		

    currentSVG += "Z\""+ " stroke = \"" + currentStroke + "\" stroke-width = \"" + currentLineWidth.toString() + "\" fill = \"" + "blue" + "\" "+"/>";
    /*finish plot one function*/


    /*plot one function:*/
    currentStroke = "black";
    currentLineWidth = 6;
    ctx.strokeStyle = currentStroke;
    ctx.lineWidth = currentLineWidth;
    ctx.beginPath();	
    x = 0;
    YofX();
    currentSVG += "	<path d = \"M";
    currentSVG += Math.round(x).toString() + " ";
    currentSVG += Math.round(y).toString() + " ";
    for(x = 1;x < plotparams.plotwidth;x++){
        ctx.moveTo(x-1,y);
        YofX();
        ctx.lineTo(x,y);
        currentSVG += "L" + x + " " + y + " ";
    }
    ctx.stroke();
    currentSVG += "\""+ " stroke = \"" + currentStroke + "\" stroke-width = \"" + currentLineWidth.toString() + "\" fill = \"" + "none" + "\" "+"/>";
    /*finish plot one function*/
    
    

}





</topfunctions>
-->

<!--
<imgurl>

</imgurl>
-->

<!--
<currentjson>
{
    "constants": {},
    "imgurl": "",
    "plotparams": {
        "G": 196.42049013572228,
        "g": 0.02393920493691634,
        "duration": 545.4545454545454,
        "plotwidth": 400,
        "plotheight": 400,
        "x0": 225.7177692391267,
        "y0": 289.01529428549946
    },
    "funcparams": {
        "a": 0.12727272727272726,
        "b": 0,
        "c": 0,
        "X0": 0,
        "Y0": 0
    }
}
</currentjson>
-->

<!--
<equation>






<h2>Filled Fermi Function</h2>
<p style="color:blue">

</p><p class="bigeq">
$$
Y = \frac{1}{2}(\tanh{X} + 1)$$
</p>
<p></p>

$$
X = g(x - x_0) - X_0
$$
$$
Y = f(X)
$$
    
$$
y = y_0 - G(Y - Y_0)
$$


<p>
    X and Y, and $X_0$ and $Y_0$ in physical units of the System. x and y and x0 and y0 in pixels.  G is in pixels per Y unit and g is in X units per pixel. 
</p>







</equation>
-->
	<path d = "M0 289 L1 289.01112033776786 L2 289.010915639019 L3 289.01070090166866 L4 289.01047563343883 L5 289.0102393179133 L6 289.0099914133544 L7 289.0097313514613 L8 289.0094585360685 L9 289.00917234177916 L10 289.0088721125327 L11 289.0085571601015 L12 289.00822676251397 L13 289.0078801624012 L14 289.007516565261 L15 289.0071351376389 L16 289.0067350052181 L17 289.00631525081747 L18 289.0058749122905 L19 289.0054129803216 L20 289.00492839611485 L21 289.0044200489691 L22 289.00388677373445 L23 289.0033273481445 L24 289.0027404900177 L25 289.00212485432155 L26 289.0014790300939 L27 289.00080153721245 L28 289.00009082300716 L29 288.99934525870617 L30 288.9985631357085 L31 288.9977426616737 L32 288.9968819564211 L33 288.9959790476274 L34 288.99503186631495 L35 288.99403824211913 L36 288.9929958983236 L37 288.99190244665425 L38 288.99075538181745 L39 288.9895520757724 L40 288.98828977172303 L41 288.9869655778169 L42 288.985576460536 L43 288.98411923776536 L44 288.98259057152296 L45 288.9809869603348 L46 288.9793047312384 L47 288.977540031396 L48 288.9756888192988 L49 288.9737468555423 L50 288.9717096931526 L51 288.9695726674409 L52 288.96733088536405 L53 288.9649792143672 L54 288.96251227068365 L55 288.9599244070649 L56 288.95720969991464 L57 288.954361935797 L58 288.95137459728966 L59 288.9482408481492 L60 288.944953517757 L61 288.94150508481056 L62 288.9378876602233 L63 288.93409296919646 L64 288.93011233242214 L65 288.9259366463766 L66 288.92155636266057 L67 288.9169614663402 L68 288.9121414532426 L69 288.907085306155 L70 288.90178146987586 L71 288.89621782506396 L72 288.8903816608286 L73 288.8842596460005 L74 288.877837799023 L75 288.8711014563971 L76 288.86403523961377 L77 288.85662302050144 L78 288.8488478849165 L79 288.8406920946979 L80 288.83213704780644 L81 288.8231632365641 L82 288.8137502039061 L83 288.80387649755454 L84 288.7935196220169 L85 288.78265598831234 L86 288.77126086132057 L87 288.75930830464586 L88 288.74677112288487 L89 288.73362080118085 L90 288.71982744194304 L91 288.7053596986053 L92 288.690184706293 L93 288.67426800926125 L94 288.6575734849651 L95 288.64006326461293 L96 288.62169765005353 L97 288.60243502683755 L98 288.5822317732926 L99 288.56104216544253 L100 288.5388182775972 L101 288.5155098784343 L102 288.4910643223871 L103 288.46542643614885 L104 288.43853840009666 L105 288.41033962443464 L106 288.38076661984917 L107 288.34975286246527 L108 288.317228652887 L109 288.2831209691019 L110 288.24735331302355 L111 288.20984555044475 L112 288.1705137441681 L113 288.1292699800806 L114 288.086022185935 L115 288.0406739426006 L116 287.99312428754604 L117 287.9432675103162 L118 287.8909929397693 L119 287.8361847228414 L120 287.7787215946123 L121 287.71847663945266 L122 287.65531704303936 L123 287.5891038350396 L124 287.5196916222737 L125 287.4469283121854 L126 287.3706548264647 L127 287.29070480469136 L128 287.20690429789084 L129 287.11907145192725 L130 287.02701618068687 L131 286.9305398290477 L132 286.8294348256733 L133 286.723484325717 L134 286.61246184358026 L135 286.49613087592996 L136 286.37424451524885 L137 286.2465450542718 L138 286.1127635817466 L139 285.9726195700527 L140 285.82582045531734 L141 285.67206121078544 L142 285.5110239143256 L143 285.34237731109573 L144 285.16577637254517 L145 284.98086185309506 L146 284.78725984602266 L147 284.58458134026966 L148 284.37242178010933 L149 284.1503606298367 L150 283.91796094589154 L151 283.67476895909283 L152 283.420313669943 L153 283.15410646026663 L154 282.87564072476715 L155 282.5843915264285 L156 282.2798152800454 L157 281.96134946854664 L158 281.62841239716766 L159 281.2804029909438 L160 280.9167006414181 L161 280.53666510889815 L162 280.13963648704316 L163 279.72493523701877 L164 279.2918622989114 L165 278.83969928855186 L166 278.36770878834216 L167 277.8751347411143 L168 277.3612029564586 L169 276.8251217393413 L170 276.26608265117164 L171 275.6832614137679 L172 275.0758189669005 L173 274.4429026902426 L174 273.78364780062054 L175 273.0971789354141 L176 272.38261193279266 L177 271.63905581916987 L178 270.8656150138001 L179 270.06139175980405 L180 269.2254887900814 L181 268.35701223552405 L182 267.45507478166996 L183 266.5187990784132 L184 265.5473214055966 L185 264.5397955952473 L186 263.4953972088593 L187 262.41332796547476 L188 261.29282041336575 L189 260.1331428348709 L190 258.9336043704112 L191 257.69356034390375 L192 256.41241776774655 L193 255.08964100128628 L194 253.72475753225245 L195 252.31736384609394 L196 250.86713134355722 L197 249.3738122622657 L198 247.83724555358643 L199 246.2573626617953 L200 244.6341931485746 L201 242.9678701023115 L202 241.25863526862094 L203 239.5068438361136 L204 237.71296880978338 L205 235.87760490361165 L206 234.00147188418805 L207 232.0854172984212 L208 230.1304185208402 L209 228.13758405963085 L210 226.10815406544714 L211 224.0434999932009 L212 221.94512337444246 L213 219.8146536665531 L214 217.65384515468992 L215 215.46457289313986 L216 213.24882768429575 L217 211.00871010568187 L218 208.74642360811401 L219 206.4642667209414 L220 204.1646244131324 L221 201.8499586714555 L222 199.52279836890904 L223 197.1857285075885 L224 194.84137893009847 L225 192.49241260217514 L226 190.141513576181 L227 187.79137475038794 L228 185.4446855423503 L229 183.1041195960996 L230 180.77232264232788 L231 178.45190062818705 L232 176.14540822887733 L233 173.85533784693973 L234 171.5841091972692 L235 169.33405956650722 L236 167.10743482489647 L237 164.90638125712127 L238 162.73293826639096 L239 160.58903199331624 L240 158.47646987825564 L241 156.396936183031 L242 154.35198847547585 L243 152.34305506841375 L244 150.3714333935596 L245 148.43828928066853 L246 146.54465710315014 L247 144.69144074342816 L248 142.87941532461406 L249 141.10922964961568 L250 139.38140928461712 L251 137.69636022091368 L252 136.05437304731947 L253 134.45562756470747 L254 132.9001977746045 L255 131.38805717504434 L256 129.9190842989711 L257 128.49306843326326 L258 127.10971545980345 L259 125.76865376382872 L260 124.46944015895588 L261 123.21156578267548 L262 121.99446192065065 L263 120.81750572275811 L264 119.68002577838473 L265 118.58130752298058 L266 117.52059845220961 L267 116.49711312418304 L268 115.51003793417425 L269 114.55853564986663 L270 113.64174969855733 L271 112.75880820082102 L272 111.90882774791882 L273 111.09091692272261 L274 110.30417956611609 L275 109.54771779274262 L276 108.82063476160715 L277 108.12203720842086 L278 107.45103774771846 L279 106.80675695370016 L280 106.18832522946624 L281 105.59488447484782 L282 105.02558956340573 L283 104.47960963939173 L284 103.95612924556042 L285 103.45434929270064 L286 102.97348788164075 L287 102.51278098828601 L288 102.07148302198058 L289 101.64886726716767 L290 101.2442262179562 L291 100.85687181480404 L292 100.48613559210335 L293 100.13136874501234 L294 99.79194212342526 L295 99.46724616051625 L296 99.15669074283622 L297 98.85970502849068 L298 98.57573721948302 L299 98.3042542938772 L300 98.04474170301455 L301 97.79670303861786 L302 97.55965967423029 L303 97.33315038506893 L304 97.11673095002368 L305 96.90997373920277 L306 96.71246729011452 L307 96.52381587528322 L308 96.34363906382373 L309 96.17157127924426 L310 96.0072613555092 L311 95.85037209317431 L312 95.70057981720228 L313 95.55757393787835 L314 95.4210565160742 L315 95.29074183394698 L316 95.16635597201719 L317 95.04763639343463 L318 94.93433153612136 L319 94.82620041337003 L320 94.72301222337688 L321 94.62454596809746 L322 94.53059008173346 L323 94.4409420690838 L324 94.35540815393054 L325 94.27380293756872 L326 94.19594906753997 L327 94.12167691658186 L328 94.05082427176501 L329 93.98323603375516 L330 93.91876392610394 L331 93.85726621444809 L332 93.79860743547124 L333 93.74265813546302 L334 93.68929461829478 L335 93.63839870261467 L336 93.58985748805563 L337 93.54356313023905 L338 93.49941262434976 L339 93.45730759705313 L340 93.41715410651989 L341 93.37886245032277 L342 93.34234698096753 L343 93.30752592881996 L344 93.27432123219245 L345 93.24265837435419 L346 93.2124662272322 L347 93.18367690157277 L348 93.15622560333694 L349 93.13005049610689 L350 93.10509256928563 L351 93.0812955118754 L352 93.05860559162684 L353 93.036971539355 L354 93.01634443822391 L355 92.99667761780691 L356 92.9779265527356 L357 92.96004876575498 L358 92.94300373500957 L359 92.92675280538916 L360 92.91125910376891 L361 92.89648745798536 L362 92.88240431939295 L363 92.86897768885302 L364 92.85617704601162 L365 92.8439732817279 L366 92.8323386335199 L367 92.82124662389904 L368 92.81067200147098 L369 92.80059068468245 L370 92.79097970810207 L371 92.78181717112355 L372 92.77308218898727 L373 92.76475484601846 L374 92.75681615098554 L375 92.74924799448485 L376 92.74203310826289 L377 92.73515502639071 L378 92.72859804820769 L379 92.72234720295663 L380 92.71638821603497 L381 92.7107074767894 L382 92.70529200778506 L383 92.70012943548369 L384 92.6952079622665 L385 92.69051633974206 L386 92.6860438432808 L387 92.6817802477207 L388 92.67771580419151 L389 92.67384121800626 L390 92.67014762757219 L391 92.66662658427433 L392 92.66327003328757 L393 92.66007029527512 L394 92.65702004893234 L395 92.65411231433822 L396 92.65134043707653 L397 92.64869807309222 L398 92.64617917424908 L399 92.64377797455614 L400 400 L0 400 L0 289.01529428549946 Z" stroke = "red" stroke-width = "1" fill = "blue" />	<path d = "M0 289 L1 289.01112033776786 L2 289.010915639019 L3 289.01070090166866 L4 289.01047563343883 L5 289.0102393179133 L6 289.0099914133544 L7 289.0097313514613 L8 289.0094585360685 L9 289.00917234177916 L10 289.0088721125327 L11 289.0085571601015 L12 289.00822676251397 L13 289.0078801624012 L14 289.007516565261 L15 289.0071351376389 L16 289.0067350052181 L17 289.00631525081747 L18 289.0058749122905 L19 289.0054129803216 L20 289.00492839611485 L21 289.0044200489691 L22 289.00388677373445 L23 289.0033273481445 L24 289.0027404900177 L25 289.00212485432155 L26 289.0014790300939 L27 289.00080153721245 L28 289.00009082300716 L29 288.99934525870617 L30 288.9985631357085 L31 288.9977426616737 L32 288.9968819564211 L33 288.9959790476274 L34 288.99503186631495 L35 288.99403824211913 L36 288.9929958983236 L37 288.99190244665425 L38 288.99075538181745 L39 288.9895520757724 L40 288.98828977172303 L41 288.9869655778169 L42 288.985576460536 L43 288.98411923776536 L44 288.98259057152296 L45 288.9809869603348 L46 288.9793047312384 L47 288.977540031396 L48 288.9756888192988 L49 288.9737468555423 L50 288.9717096931526 L51 288.9695726674409 L52 288.96733088536405 L53 288.9649792143672 L54 288.96251227068365 L55 288.9599244070649 L56 288.95720969991464 L57 288.954361935797 L58 288.95137459728966 L59 288.9482408481492 L60 288.944953517757 L61 288.94150508481056 L62 288.9378876602233 L63 288.93409296919646 L64 288.93011233242214 L65 288.9259366463766 L66 288.92155636266057 L67 288.9169614663402 L68 288.9121414532426 L69 288.907085306155 L70 288.90178146987586 L71 288.89621782506396 L72 288.8903816608286 L73 288.8842596460005 L74 288.877837799023 L75 288.8711014563971 L76 288.86403523961377 L77 288.85662302050144 L78 288.8488478849165 L79 288.8406920946979 L80 288.83213704780644 L81 288.8231632365641 L82 288.8137502039061 L83 288.80387649755454 L84 288.7935196220169 L85 288.78265598831234 L86 288.77126086132057 L87 288.75930830464586 L88 288.74677112288487 L89 288.73362080118085 L90 288.71982744194304 L91 288.7053596986053 L92 288.690184706293 L93 288.67426800926125 L94 288.6575734849651 L95 288.64006326461293 L96 288.62169765005353 L97 288.60243502683755 L98 288.5822317732926 L99 288.56104216544253 L100 288.5388182775972 L101 288.5155098784343 L102 288.4910643223871 L103 288.46542643614885 L104 288.43853840009666 L105 288.41033962443464 L106 288.38076661984917 L107 288.34975286246527 L108 288.317228652887 L109 288.2831209691019 L110 288.24735331302355 L111 288.20984555044475 L112 288.1705137441681 L113 288.1292699800806 L114 288.086022185935 L115 288.0406739426006 L116 287.99312428754604 L117 287.9432675103162 L118 287.8909929397693 L119 287.8361847228414 L120 287.7787215946123 L121 287.71847663945266 L122 287.65531704303936 L123 287.5891038350396 L124 287.5196916222737 L125 287.4469283121854 L126 287.3706548264647 L127 287.29070480469136 L128 287.20690429789084 L129 287.11907145192725 L130 287.02701618068687 L131 286.9305398290477 L132 286.8294348256733 L133 286.723484325717 L134 286.61246184358026 L135 286.49613087592996 L136 286.37424451524885 L137 286.2465450542718 L138 286.1127635817466 L139 285.9726195700527 L140 285.82582045531734 L141 285.67206121078544 L142 285.5110239143256 L143 285.34237731109573 L144 285.16577637254517 L145 284.98086185309506 L146 284.78725984602266 L147 284.58458134026966 L148 284.37242178010933 L149 284.1503606298367 L150 283.91796094589154 L151 283.67476895909283 L152 283.420313669943 L153 283.15410646026663 L154 282.87564072476715 L155 282.5843915264285 L156 282.2798152800454 L157 281.96134946854664 L158 281.62841239716766 L159 281.2804029909438 L160 280.9167006414181 L161 280.53666510889815 L162 280.13963648704316 L163 279.72493523701877 L164 279.2918622989114 L165 278.83969928855186 L166 278.36770878834216 L167 277.8751347411143 L168 277.3612029564586 L169 276.8251217393413 L170 276.26608265117164 L171 275.6832614137679 L172 275.0758189669005 L173 274.4429026902426 L174 273.78364780062054 L175 273.0971789354141 L176 272.38261193279266 L177 271.63905581916987 L178 270.8656150138001 L179 270.06139175980405 L180 269.2254887900814 L181 268.35701223552405 L182 267.45507478166996 L183 266.5187990784132 L184 265.5473214055966 L185 264.5397955952473 L186 263.4953972088593 L187 262.41332796547476 L188 261.29282041336575 L189 260.1331428348709 L190 258.9336043704112 L191 257.69356034390375 L192 256.41241776774655 L193 255.08964100128628 L194 253.72475753225245 L195 252.31736384609394 L196 250.86713134355722 L197 249.3738122622657 L198 247.83724555358643 L199 246.2573626617953 L200 244.6341931485746 L201 242.9678701023115 L202 241.25863526862094 L203 239.5068438361136 L204 237.71296880978338 L205 235.87760490361165 L206 234.00147188418805 L207 232.0854172984212 L208 230.1304185208402 L209 228.13758405963085 L210 226.10815406544714 L211 224.0434999932009 L212 221.94512337444246 L213 219.8146536665531 L214 217.65384515468992 L215 215.46457289313986 L216 213.24882768429575 L217 211.00871010568187 L218 208.74642360811401 L219 206.4642667209414 L220 204.1646244131324 L221 201.8499586714555 L222 199.52279836890904 L223 197.1857285075885 L224 194.84137893009847 L225 192.49241260217514 L226 190.141513576181 L227 187.79137475038794 L228 185.4446855423503 L229 183.1041195960996 L230 180.77232264232788 L231 178.45190062818705 L232 176.14540822887733 L233 173.85533784693973 L234 171.5841091972692 L235 169.33405956650722 L236 167.10743482489647 L237 164.90638125712127 L238 162.73293826639096 L239 160.58903199331624 L240 158.47646987825564 L241 156.396936183031 L242 154.35198847547585 L243 152.34305506841375 L244 150.3714333935596 L245 148.43828928066853 L246 146.54465710315014 L247 144.69144074342816 L248 142.87941532461406 L249 141.10922964961568 L250 139.38140928461712 L251 137.69636022091368 L252 136.05437304731947 L253 134.45562756470747 L254 132.9001977746045 L255 131.38805717504434 L256 129.9190842989711 L257 128.49306843326326 L258 127.10971545980345 L259 125.76865376382872 L260 124.46944015895588 L261 123.21156578267548 L262 121.99446192065065 L263 120.81750572275811 L264 119.68002577838473 L265 118.58130752298058 L266 117.52059845220961 L267 116.49711312418304 L268 115.51003793417425 L269 114.55853564986663 L270 113.64174969855733 L271 112.75880820082102 L272 111.90882774791882 L273 111.09091692272261 L274 110.30417956611609 L275 109.54771779274262 L276 108.82063476160715 L277 108.12203720842086 L278 107.45103774771846 L279 106.80675695370016 L280 106.18832522946624 L281 105.59488447484782 L282 105.02558956340573 L283 104.47960963939173 L284 103.95612924556042 L285 103.45434929270064 L286 102.97348788164075 L287 102.51278098828601 L288 102.07148302198058 L289 101.64886726716767 L290 101.2442262179562 L291 100.85687181480404 L292 100.48613559210335 L293 100.13136874501234 L294 99.79194212342526 L295 99.46724616051625 L296 99.15669074283622 L297 98.85970502849068 L298 98.57573721948302 L299 98.3042542938772 L300 98.04474170301455 L301 97.79670303861786 L302 97.55965967423029 L303 97.33315038506893 L304 97.11673095002368 L305 96.90997373920277 L306 96.71246729011452 L307 96.52381587528322 L308 96.34363906382373 L309 96.17157127924426 L310 96.0072613555092 L311 95.85037209317431 L312 95.70057981720228 L313 95.55757393787835 L314 95.4210565160742 L315 95.29074183394698 L316 95.16635597201719 L317 95.04763639343463 L318 94.93433153612136 L319 94.82620041337003 L320 94.72301222337688 L321 94.62454596809746 L322 94.53059008173346 L323 94.4409420690838 L324 94.35540815393054 L325 94.27380293756872 L326 94.19594906753997 L327 94.12167691658186 L328 94.05082427176501 L329 93.98323603375516 L330 93.91876392610394 L331 93.85726621444809 L332 93.79860743547124 L333 93.74265813546302 L334 93.68929461829478 L335 93.63839870261467 L336 93.58985748805563 L337 93.54356313023905 L338 93.49941262434976 L339 93.45730759705313 L340 93.41715410651989 L341 93.37886245032277 L342 93.34234698096753 L343 93.30752592881996 L344 93.27432123219245 L345 93.24265837435419 L346 93.2124662272322 L347 93.18367690157277 L348 93.15622560333694 L349 93.13005049610689 L350 93.10509256928563 L351 93.0812955118754 L352 93.05860559162684 L353 93.036971539355 L354 93.01634443822391 L355 92.99667761780691 L356 92.9779265527356 L357 92.96004876575498 L358 92.94300373500957 L359 92.92675280538916 L360 92.91125910376891 L361 92.89648745798536 L362 92.88240431939295 L363 92.86897768885302 L364 92.85617704601162 L365 92.8439732817279 L366 92.8323386335199 L367 92.82124662389904 L368 92.81067200147098 L369 92.80059068468245 L370 92.79097970810207 L371 92.78181717112355 L372 92.77308218898727 L373 92.76475484601846 L374 92.75681615098554 L375 92.74924799448485 L376 92.74203310826289 L377 92.73515502639071 L378 92.72859804820769 L379 92.72234720295663 L380 92.71638821603497 L381 92.7107074767894 L382 92.70529200778506 L383 92.70012943548369 L384 92.6952079622665 L385 92.69051633974206 L386 92.6860438432808 L387 92.6817802477207 L388 92.67771580419151 L389 92.67384121800626 L390 92.67014762757219 L391 92.66662658427433 L392 92.66327003328757 L393 92.66007029527512 L394 92.65702004893234 L395 92.65411231433822 L396 92.65134043707653 L397 92.64869807309222 L398 92.64617917424908 L399 92.64377797455614 " stroke = "black" stroke-width = "6" fill = "none" /></svg>