<svg width="600" height="100" viewbox = "0 0 600 100"  xmlns="http://www.w3.org/2000/svg">

<!--
<json>
{
    "imgurl": "",
    "imgw": 2.983971328437751,
    "imgleft": -1.4873205904167783,
    "imgtop": -1.0519856642188752,
    "imgangle": 0,
    "svgwidth": 600,
    "svgheight": 100,
    "unit": 68.30134553650707,
    "x0": 349.76584999999994,
    "y0": 407.72377962594976,
    "x0rel": -265.73415000000006,
    "y0rel": 48.72377962594976,
    "glyph": "01330,01331,01332,01333,01334,01335,01336,01337,0NaN,",
    "table": []
}
</json>
-->
	<path d = "M103 99 L103 30 L34 30 L34 99 L103 99 Z" stroke = "black" stroke-width = "6" fill = "none" />	<path d = "M77 82 L60 82 L60 65 L51 65 L60 56 L68 47 L77 56 L85 65 L77 65 L77 82 Z" stroke = "black" stroke-width = "6" fill = "none" />	<path d = "M171 99 L171 30 L103 30 L103 99 L171 99 Z" stroke = "black" stroke-width = "6" fill = "none" />	<path d = "M128 47 L145 47 L145 65 L154 65 L145 73 L137 82 L128 73 L120 65 L128 65 L128 47 Z" stroke = "black" stroke-width = "6" fill = "none" />	<path d = "M239 99 L239 30 L171 30 L171 99 L239 99 Z" stroke = "black" stroke-width = "6" fill = "none" />	<path d = "M222 56 L222 73 L205 73 L205 82 L196 73 L188 65 L196 56 L205 47 L205 56 L222 56 Z" stroke = "black" stroke-width = "6" fill = "none" />	<path d = "M307 99 L307 30 L239 30 L239 99 L307 99 Z" stroke = "black" stroke-width = "6" fill = "none" />	<path d = "M256 73 L256 56 L273 56 L273 47 L282 56 L290 65 L282 73 L273 82 L273 73 L256 73 Z" stroke = "black" stroke-width = "6" fill = "none" />	<path d = "M376 99 L376 30 L307 30 L307 99 L376 99 Z" stroke = "black" stroke-width = "6" fill = "none" />  <path d="M329.5478187660243 52.499020709438796           A17.075336384126768 17.075336384126768 0 0 1 353.6959910625391 52.49902070943874" fill = "none" stroke = "black" stroke-width = "6" />
  <path d="M329.54781876602436 76.64719300595365           A17.075336384126768 17.075336384126768 0 0 1 329.5478187660243 52.499020709438796" fill = "none" stroke = "black" stroke-width = "6" />
  <path d="M353.69599106253924 76.64719300595354           A17.075336384126768 17.075336384126768 0 0 1 329.54781876602436 76.64719300595365" fill = "none" stroke = "black" stroke-width = "6" />
	<path d = "M347 92 L354 77 L338 70 " stroke = "black" stroke-width = "6" fill = "none" />	<path d = "M444 99 L444 30 L376 30 L376 99 L444 99 Z" stroke = "black" stroke-width = "6" fill = "none" />  <path d="M421.9973365990463 76.64719300595355           A17.075336384126768 17.075336384126768 0 0 1 397.8491643025315 76.64719300595357" fill = "none" stroke = "black" stroke-width = "6" />
  <path d="M397.8491643025315 76.64719300595357           A17.075336384126768 17.075336384126768 0 0 1 397.84916430253145 52.4990207094387" fill = "none" stroke = "black" stroke-width = "6" />
  <path d="M397.84916430253145 52.4990207094387           A17.075336384126768 17.075336384126768 0 0 1 421.9973365990463 52.49902070943874" fill = "none" stroke = "black" stroke-width = "6" />
	<path d = "M406 59 L422 52 L415 37 " stroke = "black" stroke-width = "6" fill = "none" />	<path d = "M512 99 L512 30 L444 30 L444 99 L512 99 Z" stroke = "black" stroke-width = "6" fill = "none" />    <line x1="495" y1="65" x2="461" y2="65" style="stroke:black;stroke-width:6" />
	<path d = "M581 99 L581 30 L512 30 L512 99 L581 99 Z" stroke = "black" stroke-width = "6" fill = "none" />    <line x1="547" y1="65" x2="547" y2="47" style="stroke:black;stroke-width:6" />
    <line x1="547" y1="65" x2="529" y2="65" style="stroke:black;stroke-width:6" />
    <line x1="547" y1="65" x2="547" y2="82" style="stroke:black;stroke-width:6" />
    <line x1="547" y1="65" x2="564" y2="65" style="stroke:black;stroke-width:6" />
</svg>