<svg width="600" height="100" viewbox = "0 0 600 100"  xmlns="http://www.w3.org/2000/svg">

<!--
<json>
{
    "imgurl": "",
    "imgw": 2.983971328437751,
    "imgleft": -1.4873205904167783,
    "imgtop": -1.0519856642188752,
    "imgangle": 0,
    "svgwidth": 600,
    "svgheight": 100,
    "unit": 68.30134553650707,
    "x0": 349.76584999999994,
    "y0": 407.72377962594976,
    "x0rel": -265.73415000000006,
    "y0rel": 48.72377962594976,
    "glyph": "0336,0336,0330,0337,0337,01330,01331,01332,01333,01334,01335,01336,01337,",
    "table": []
}
</json>
-->
	<path d = "M103 82 L103 13 L34 13 L34 82 L103 82 Z" stroke = "black" stroke-width = "6" fill = "none" />	<path d = "M77 65 L60 65 L60 47 L51 47 L60 39 L68 30 L77 39 L85 47 L77 47 L77 65 Z" stroke = "black" stroke-width = "6" fill = "none" />	<path d = "M171 82 L171 13 L103 13 L103 82 L171 82 Z" stroke = "black" stroke-width = "6" fill = "none" />	<path d = "M128 30 L145 30 L145 47 L154 47 L145 56 L137 65 L128 56 L120 47 L128 47 L128 30 Z" stroke = "black" stroke-width = "6" fill = "none" />	<path d = "M239 82 L239 13 L171 13 L171 82 L239 82 Z" stroke = "black" stroke-width = "6" fill = "none" />	<path d = "M222 39 L222 56 L205 56 L205 65 L196 56 L188 47 L196 39 L205 30 L205 39 L222 39 Z" stroke = "black" stroke-width = "6" fill = "none" />	<path d = "M307 82 L307 13 L239 13 L239 82 L307 82 Z" stroke = "black" stroke-width = "6" fill = "none" />	<path d = "M256 56 L256 39 L273 39 L273 30 L282 39 L290 47 L282 56 L273 65 L273 56 L256 56 Z" stroke = "black" stroke-width = "6" fill = "none" />	<path d = "M376 82 L376 13 L307 13 L307 82 L376 82 Z" stroke = "black" stroke-width = "6" fill = "none" />  <path d="M329.5478187660243 35.423684325311996           A17.075336384126768 17.075336384126768 0 0 1 353.6959910625391 35.423684325311946" fill = "none" stroke = "black" stroke-width = "6" />
  <path d="M329.54781876602436 59.57185662182686           A17.075336384126768 17.075336384126768 0 0 1 329.5478187660243 35.423684325311996" fill = "none" stroke = "black" stroke-width = "6" />
  <path d="M353.69599106253924 59.57185662182674           A17.075336384126768 17.075336384126768 0 0 1 329.54781876602436 59.57185662182686" fill = "none" stroke = "black" stroke-width = "6" />
	<path d = "M347 75 L354 60 L338 53 " stroke = "black" stroke-width = "6" fill = "none" />	<path d = "M444 82 L444 13 L376 13 L376 82 L444 82 Z" stroke = "black" stroke-width = "6" fill = "none" />  <path d="M421.9973365990463 59.57185662182676           A17.075336384126768 17.075336384126768 0 0 1 397.8491643025315 59.57185662182678" fill = "none" stroke = "black" stroke-width = "6" />
  <path d="M397.8491643025315 59.57185662182678           A17.075336384126768 17.075336384126768 0 0 1 397.84916430253145 35.42368432531192" fill = "none" stroke = "black" stroke-width = "6" />
  <path d="M397.84916430253145 35.42368432531192           A17.075336384126768 17.075336384126768 0 0 1 421.9973365990463 35.42368432531195" fill = "none" stroke = "black" stroke-width = "6" />
	<path d = "M406 42 L422 35 L415 20 " stroke = "black" stroke-width = "6" fill = "none" />	<path d = "M512 82 L512 13 L444 13 L444 82 L512 82 Z" stroke = "black" stroke-width = "6" fill = "none" />    <line x1="495" y1="47" x2="461" y2="47" style="stroke:black;stroke-width:6" />
	<path d = "M581 82 L581 13 L512 13 L512 82 L581 82 Z" stroke = "black" stroke-width = "6" fill = "none" />    <line x1="547" y1="47" x2="547" y2="30" style="stroke:black;stroke-width:6" />
    <line x1="547" y1="47" x2="529" y2="47" style="stroke:black;stroke-width:6" />
    <line x1="547" y1="47" x2="547" y2="65" style="stroke:black;stroke-width:6" />
    <line x1="547" y1="47" x2="564" y2="47" style="stroke:black;stroke-width:6" />
</svg>