<svg width="400" height="400" viewbox = "0 0 400 400"  xmlns="http://www.w3.org/2000/svg">

<!--
<json>
{
    "imgurl": "",
    "imgw": 2.983971328437751,
    "imgleft": -1.4873205904167783,
    "imgtop": -1.0519856642188752,
    "imgangle": 0,
    "svgwidth": 400,
    "svgheight": 400,
    "unit": 100,
    "x0": 684,
    "y0": 399,
    "x0rel": 0,
    "y0rel": 0,
    "glyph": "0336,0336,0336,0362,0203,0335,0203,0211,0335,0203,0203,0335,0203,0211,0203,0335,0203,0211,0203,0203,0335,0203,0203,0203,0335,0203,0203,0211,0203,0203,0335,0203,0203,0211,0203,0203,0335,0203,0203,0203,0211,0203,0203,0335,0211,0203,0203,0203,0211,0211,0203,0203,0335,0203,0203,0203,0203,0203,0335,0203,0203,0203,0203,0203,0203,0203,0335,0203,0203,0203,0203,0203,0203,0203,0335,0203,0203,0203,0203,0203,0203,0203,0203,0364,",
    "table": []
}
</json>
-->
	<path d = "M200 200 L200 188 L213 188 L213 202 L213 216 L198 216 L182 216 L182 200 L182 181 L182 162 L201 162 L219 162 L238 162 L238 181 L238 200 L238 221 L238 243 L217 243 L195 243 L171 243 L146 243 L146 218 L146 194 L146 169 L146 141 L146 113 L178 113 L210 113 L242 113 L284 113 L326 113 L326 155 L326 197 L326 239 L326 281 L326 323 L284 323 L242 323 L200 323 L158 323 L116 323 L74 323 L32 323 L32 281 L32 239 L32 197 L32 155 L32 113 L32 71 L32 29 L74 29 L116 29 L158 29 L200 29 L242 29 L284 29 L326 29 L368 29 " stroke = "black" stroke-width = "4" fill = "none" /></svg>