<svg width="400" height="500" viewbox = "0 0 400 500"  xmlns="http://www.w3.org/2000/svg">

<!--
<json>
{
    "imgurl": "",
    "imgw": 4.743971328437736,
    "imgleft": -2.2873205904167726,
    "imgtop": -3.171985664218851,
    "imgangle": 0,
    "svgwidth": 400,
    "svgheight": 500,
    "unit": 100,
    "x0": 684,
    "y0": 399,
    "x0rel": 0,
    "y0rel": 0,
    "glyph": "0330,0330,0332,0336,0336,0336,0333,0333,0333,0331,0333,0331,0333,0331,0333,0331,0332,0330,0337,0337,0331,0332,0332,01061,0336,0333,0337,01062,0336,0333,0337,01063,0336,0337,0333,01064,0331,0331,0332,0332,0332,0332,0332,0332,01065,0336,0333,0337,01066,0336,0333,0337,01067,0336,0333,0337,01060,0331,0331,0332,0332,0332,0332,0332,0332,01101,01123,01104,01106,0331,0331,0332,0332,0332,0332,0332,0332,01172,01170,01143,01166,",
    "table": []
}
</json>
-->
	<path d = "M63 138 L63 88 L113 88 " stroke = "black" stroke-width = "4" fill = "none" />	<path d = "M113 88 L102 81 L102 94 L113 88 Z" stroke = "black" stroke-width = "4" fill = "black" />    <text x="69" y = "137" fill = "black" font-size = "25px" font-family = "arial">4</text>
    <text x="87" y = "119" fill = "black" font-size = "12.5px" font-family = "arial">1</text>
	<path d = "M137 138 L137 88 L187 88 " stroke = "black" stroke-width = "4" fill = "none" />	<path d = "M187 88 L177 81 L177 94 L187 88 Z" stroke = "black" stroke-width = "4" fill = "black" />    <text x="144" y = "138" fill = "black" font-size = "25px" font-family = "arial">4</text>
    <text x="162" y = "119" fill = "black" font-size = "12.5px" font-family = "arial">2</text>
	<path d = "M212 138 L212 88 L262 88 " stroke = "black" stroke-width = "4" fill = "none" />	<path d = "M262 88 L252 81 L252 94 L262 88 Z" stroke = "black" stroke-width = "4" fill = "black" />    <text x="219" y = "137" fill = "black" font-size = "25px" font-family = "arial">4</text>
    <text x="237" y = "119" fill = "black" font-size = "12.5px" font-family = "arial">3</text>
	<path d = "M312 138 L312 88 L362 88 " stroke = "black" stroke-width = "4" fill = "none" />	<path d = "M362 88 L352 81 L352 94 L362 88 Z" stroke = "black" stroke-width = "4" fill = "black" />    <text x="319" y = "138" fill = "black" font-size = "25px" font-family = "arial">4</text>
    <text x="337" y = "119" fill = "black" font-size = "12.5px" font-family = "arial">4</text>
	<path d = "M62 237 L62 187 L112 187 " stroke = "black" stroke-width = "4" fill = "none" />	<path d = "M112 187 L102 181 L102 194 L112 187 Z" stroke = "black" stroke-width = "4" fill = "black" />    <text x="69" y = "237" fill = "black" font-size = "25px" font-family = "arial">4</text>
    <text x="87" y = "219" fill = "black" font-size = "12.5px" font-family = "arial">5</text>
	<path d = "M137 237 L137 187 L187 187 " stroke = "black" stroke-width = "4" fill = "none" />	<path d = "M187 187 L177 181 L177 194 L187 187 Z" stroke = "black" stroke-width = "4" fill = "black" />    <text x="144" y = "237" fill = "black" font-size = "25px" font-family = "arial">4</text>
    <text x="162" y = "219" fill = "black" font-size = "12.5px" font-family = "arial">6</text>
	<path d = "M212 238 L212 188 L262 188 " stroke = "black" stroke-width = "4" fill = "none" />	<path d = "M262 188 L252 181 L252 194 L262 188 Z" stroke = "black" stroke-width = "4" fill = "black" />    <text x="219" y = "238" fill = "black" font-size = "25px" font-family = "arial">4</text>
    <text x="237" y = "219" fill = "black" font-size = "12.5px" font-family = "arial">7</text>
	<path d = "M287 188 L337 188 L337 238 " stroke = "black" stroke-width = "4" fill = "none" />	<path d = "M337 238 L344 227 L331 227 L337 238 Z" stroke = "black" stroke-width = "4" fill = "black" />    <circle cx="312" cy = "213" r = "6.25" stroke = "black" stroke-width = "4" fill = "black" />
    <text x="306" y = "269" fill = "black" font-size = "25px" font-family = "arial">0</text>
	<path d = "M50 300 L100 300 L60 329 L75 282 L90 329 L50 300 Z" stroke = "black" stroke-width = "4" fill = "none" />    <text x="62" y = "363" fill = "black" font-size = "25px" font-family = "arial">A</text>
	<path d = "M150 288 L172 288 L161 306 L150 325 L139 306 L128 288 L150 288 Z" stroke = "black" stroke-width = "4" fill = "none" />	<path d = "M172 313 L150 275 L128 313 L172 313 Z" stroke = "black" stroke-width = "4" fill = "none" />    <text x="137" y = "363" fill = "black" font-size = "25px" font-family = "arial">S</text>
	<path d = "M241 325 L241 292 L209 292 L209 325 L241 325 Z" stroke = "black" stroke-width = "4" fill = "none" />	<path d = "M225 332 L248 309 L225 285 L202 309 L225 332 Z" stroke = "black" stroke-width = "4" fill = "none" />    <text x="219" y = "363" fill = "black" font-size = "25px" font-family = "arial">D</text>
	<path d = "M300 288 L322 288 L311 306 L300 325 L289 306 L278 288 L300 288 Z" stroke = "black" stroke-width = "4" fill = "none" />	<path d = "M308 290 L325 304 L304 312 L284 319 L288 298 L291 277 L308 290 Z" stroke = "black" stroke-width = "4" fill = "none" />	<path d = "M312 298 L316 319 L296 312 L275 304 L292 290 L309 277 L312 298 Z" stroke = "black" stroke-width = "4" fill = "none" />    <text x="287" y = "363" fill = "black" font-size = "25px" font-family = "arial">F</text>
    <circle cx="75" cy = "412" r = "6.25" stroke = "black" stroke-width = "4" fill = "black" />
    <text x="69" y = "462" fill = "black" font-size = "25px" font-family = "arial">z</text>
    <circle cx="137" cy = "412" r = "6.25" stroke = "black" stroke-width = "4" fill = "black" />
    <circle cx="162" cy = "412" r = "6.25" stroke = "black" stroke-width = "4" fill = "black" />
    <text x="144" y = "462" fill = "black" font-size = "25px" font-family = "arial">x</text>
    <circle cx="212" cy = "425" r = "6.25" stroke = "black" stroke-width = "4" fill = "black" />
    <circle cx="237" cy = "425" r = "6.25" stroke = "black" stroke-width = "4" fill = "black" />
    <circle cx="225" cy = "403" r = "6.25" stroke = "black" stroke-width = "4" fill = "black" />
    <text x="219" y = "463" fill = "black" font-size = "25px" font-family = "arial">c</text>
    <circle cx="287" cy = "425" r = "6.25" stroke = "black" stroke-width = "4" fill = "black" />
    <circle cx="312" cy = "425" r = "6.25" stroke = "black" stroke-width = "4" fill = "black" />
    <circle cx="312" cy = "400" r = "6.25" stroke = "black" stroke-width = "4" fill = "black" />
    <circle cx="287" cy = "400" r = "6.25" stroke = "black" stroke-width = "4" fill = "black" />
    <text x="294" y = "463" fill = "black" font-size = "25px" font-family = "arial">v</text>
</svg>