<svg width="600" height="600" viewbox = "0 0 600 600"  xmlns="http://www.w3.org/2000/svg">

<!--
<json>
{
    "imgurl": "",
    "imgw": 4.743971328437736,
    "imgleft": -2.2873205904167726,
    "imgtop": -3.171985664218851,
    "imgangle": 0,
    "svgwidth": 600,
    "svgheight": 600,
    "unit": 100,
    "x0": 684,
    "y0": 399,
    "x0rel": 0,
    "y0rel": 0,
    "glyph": "0330,0332,0336,0330,0332,0332,0330,0332,01141,01163,01144,01146,0331,0331,0331,0332,0332,0332,0332,0332,0332,",
    "table": []
}
</json>
-->
	<path d = "M63 100 L113 100 L88 57 L62 100 Z" stroke = "red" stroke-width = "6" fill = "red" />	<path d = "M62 100 L113 100 L88 57 L63 100 Z" stroke = "black" stroke-width = "6" fill = "none" />	<path d = "M94 50 L81 50 L81 38 L81 31 L75 31 L81 25 L88 19 L94 25 L100 31 L94 31 L94 38 L94 50 Z" stroke = "black" stroke-width = "6" fill = "black" />    <text x="81" y = "125" fill = "black" font-size = "25px" font-family = "arial">a</text>
	<path d = "M138 100 L188 100 L163 57 L138 100 Z" stroke = "red" stroke-width = "6" fill = "red" />	<path d = "M138 100 L188 100 L163 57 L138 100 Z" stroke = "black" stroke-width = "6" fill = "none" />	<path d = "M156 19 L169 19 L169 31 L169 38 L175 38 L169 44 L163 50 L156 44 L150 38 L156 38 L156 31 L156 19 Z" stroke = "black" stroke-width = "6" fill = "black" />    <text x="156" y = "125" fill = "black" font-size = "25px" font-family = "arial">s</text>
	<path d = "M263 100 L263 50 L213 50 L213 100 L263 100 Z" stroke = "blue" stroke-width = "6" fill = "blue" />	<path d = "M263 100 L238 75 L213 100 L263 100 Z" stroke = "white" stroke-width = "6" fill = "white" />	<path d = "M263 100 L263 50 L213 50 L213 100 L263 100 Z" stroke = "black" stroke-width = "6" fill = "none" />	<path d = "M213 100 L238 75 L263 100 " stroke = "black" stroke-width = "6" fill = "none" />	<path d = "M244 50 L231 50 L231 38 L231 31 L225 31 L231 25 L238 19 L244 25 L250 31 L244 31 L244 38 L244 50 Z" stroke = "black" stroke-width = "6" fill = "black" />    <text x="231" y = "125" fill = "black" font-size = "24.999999999999993px" font-family = "arial">d</text>
	<path d = "M337 100 L338 50 L288 50 L287 100 L337 100 Z" stroke = "blue" stroke-width = "6" fill = "blue" />	<path d = "M337 100 L312 75 L287 100 L337 100 Z" stroke = "white" stroke-width = "6" fill = "white" />	<path d = "M337 100 L337 50 L287 50 L287 100 L337 100 Z" stroke = "black" stroke-width = "6" fill = "none" />	<path d = "M287 100 L312 75 L337 100 " stroke = "black" stroke-width = "6" fill = "none" />	<path d = "M308 25 L317 25 L317 34 L317 38 L321 38 L317 43 L312 47 L308 43 L304 38 L308 38 L308 34 L308 25 Z" stroke = "black" stroke-width = "6" fill = "black" />    <text x="306" y = "125" fill = "black" font-size = "24.999999999999993px" font-family = "arial">f</text>
</svg>