<svg width="700" height="700" viewbox = "0 0 700 700"  xmlns="http://www.w3.org/2000/svg">

<!--
<json>
{
    "imgurl": "",
    "imgw": 4.743971328437736,
    "imgleft": -2.2873205904167726,
    "imgtop": -3.171985664218851,
    "imgangle": 0,
    "svgwidth": 700,
    "svgheight": 700,
    "unit": 100,
    "x0": 684,
    "y0": 399,
    "x0rel": 0,
    "y0rel": 0,
    "glyph": "0330,0332,0332,0332,0332,0330,0333,0336,0336,0330,0337,0337,01161,01167,01145,01162,0331,0331,0332,0332,0332,0332,0332,0332,0331,0336,0330,0337,01141,01163,01144,01146,0331,0331,0331,0332,0332,0332,0332,0332,0332,0336,0330,0337,01101,01123,01104,01106,0331,0331,0332,0332,0332,0332,0332,0332,01172,01170,01143,01166,",
    "table": []
}
</json>
-->
    <line x1="125" y1="50" x2="125" y2="25" style="stroke:black;stroke-width:4" />
    <line x1="125" y1="100" x2="125" y2="75" style="stroke:black;stroke-width:4" />
    <line x1="113" y1="63" x2="88" y2="63" style="stroke:black;stroke-width:4" />
    <line x1="138" y1="63" x2="163" y2="63" style="stroke:black;stroke-width:4" />
    <text x="113" y = "175" fill = "black" font-size = "50px" font-family = "arial">q</text>
    <line x1="225" y1="125" x2="225" y2="100" style="stroke:black;stroke-width:4" />
    <line x1="225" y1="125" x2="225" y2="150" style="stroke:black;stroke-width:4" />
    <line x1="225" y1="125" x2="325" y2="125" style="stroke:black;stroke-width:4" />
    <line x1="325" y1="125" x2="325" y2="100" style="stroke:black;stroke-width:4" />
    <line x1="325" y1="125" x2="325" y2="150" style="stroke:black;stroke-width:4" />
    <text x="250" y = "175" fill = "black" font-size = "50px" font-family = "arial">w</text>
    <line x1="375" y1="125" x2="375" y2="100" style="stroke:black;stroke-width:4" />
    <line x1="375" y1="125" x2="375" y2="150" style="stroke:black;stroke-width:4" />
    <line x1="375" y1="125" x2="475" y2="125" style="stroke:black;stroke-width:4" />
    <line x1="475" y1="125" x2="475" y2="100" style="stroke:black;stroke-width:4" />
    <line x1="475" y1="125" x2="475" y2="150" style="stroke:black;stroke-width:4" />
	<path d = "M450 100 L450 50 L400 50 L400 100 L450 100 Z" stroke = "white" stroke-width = "1" fill = "white" />	<path d = "M450 100 L450 50 L400 50 L400 100 L450 100 Z" stroke = "black" stroke-width = "4" fill = "none" />    <line x1="425" y1="75" x2="438" y2="75" style="stroke:black;stroke-width:4" />
    <line x1="425" y1="75" x2="413" y2="75" style="stroke:black;stroke-width:4" />
    <text x="413" y = "175" fill = "black" font-size = "50px" font-family = "arial">e</text>
    <line x1="525" y1="125" x2="525" y2="100" style="stroke:black;stroke-width:4" />
    <line x1="525" y1="125" x2="525" y2="150" style="stroke:black;stroke-width:4" />
    <line x1="525" y1="125" x2="625" y2="125" style="stroke:black;stroke-width:4" />
    <line x1="625" y1="125" x2="625" y2="100" style="stroke:black;stroke-width:4" />
    <line x1="625" y1="125" x2="625" y2="150" style="stroke:black;stroke-width:4" />
	<path d = "M600 100 L600 50 L550 50 L550 100 L600 100 Z" stroke = "white" stroke-width = "1" fill = "white" />	<path d = "M600 100 L600 50 L550 50 L550 100 L600 100 Z" stroke = "black" stroke-width = "4" fill = "none" />    <line x1="575" y1="75" x2="575" y2="63" style="stroke:black;stroke-width:4" />
    <line x1="575" y1="75" x2="588" y2="75" style="stroke:black;stroke-width:4" />
    <line x1="575" y1="75" x2="575" y2="88" style="stroke:black;stroke-width:4" />
    <line x1="575" y1="75" x2="563" y2="75" style="stroke:black;stroke-width:4" />
    <text x="563" y = "175" fill = "black" font-size = "50px" font-family = "arial">r</text>
	<path d = "M75 375 L175 375 L125 288 L75 375 Z" stroke = "red" stroke-width = "1" fill = "red" />	<path d = "M75 375 L175 375 L125 288 L75 375 Z" stroke = "black" stroke-width = "4" fill = "none" />	<path d = "M138 275 L113 275 L113 250 L113 238 L100 238 L113 225 L125 213 L138 225 L150 238 L138 238 L138 250 L138 275 Z" stroke = "black" stroke-width = "4" fill = "black" />    <text x="113" y = "425" fill = "black" font-size = "50px" font-family = "arial">a</text>
	<path d = "M225 375 L325 375 L275 288 L225 375 Z" stroke = "red" stroke-width = "1" fill = "red" />	<path d = "M225 375 L325 375 L275 288 L225 375 Z" stroke = "black" stroke-width = "4" fill = "none" />	<path d = "M263 213 L288 213 L288 238 L288 250 L300 250 L288 263 L275 275 L263 263 L250 250 L263 250 L263 238 L263 213 Z" stroke = "black" stroke-width = "4" fill = "black" />    <text x="263" y = "425" fill = "black" font-size = "50px" font-family = "arial">s</text>
	<path d = "M475 375 L475 275 L375 275 L375 375 L475 375 Z" stroke = "blue" stroke-width = "1" fill = "blue" />	<path d = "M475 375 L425 325 L375 375 L475 375 Z" stroke = "white" stroke-width = "1" fill = "white" />	<path d = "M475 375 L475 275 L375 275 L375 375 L475 375 Z" stroke = "black" stroke-width = "4" fill = "none" />	<path d = "M375 375 L425 325 L475 375 " stroke = "black" stroke-width = "4" fill = "none" />	<path d = "M438 275 L413 275 L413 250 L413 237 L400 237 L413 225 L425 212 L438 225 L450 237 L438 237 L438 250 L438 275 Z" stroke = "black" stroke-width = "4" fill = "black" />    <text x="412" y = "425" fill = "black" font-size = "49.999999999999986px" font-family = "arial">d</text>
	<path d = "M625 375 L625 275 L525 275 L525 375 L625 375 Z" stroke = "blue" stroke-width = "1" fill = "blue" />	<path d = "M625 375 L575 325 L525 375 L625 375 Z" stroke = "white" stroke-width = "1" fill = "white" />	<path d = "M625 375 L625 275 L525 275 L525 375 L625 375 Z" stroke = "black" stroke-width = "4" fill = "none" />	<path d = "M525 375 L575 325 L625 375 " stroke = "black" stroke-width = "4" fill = "none" />	<path d = "M566 225 L584 225 L584 243 L584 252 L593 252 L584 260 L575 269 L566 260 L557 252 L566 252 L566 243 L566 225 Z" stroke = "black" stroke-width = "4" fill = "black" />    <text x="562" y = "425" fill = "black" font-size = "49.999999999999986px" font-family = "arial">f</text>
	<path d = "M75 550 L175 550 L94 609 L125 514 L156 609 L75 550 Z" stroke = "black" stroke-width = "4" fill = "none" />    <text x="100" y = "675" fill = "black" font-size = "49.999999999999986px" font-family = "arial">A</text>
	<path d = "M275 525 L318 525 L297 562 L275 600 L253 562 L232 525 L275 525 Z" stroke = "black" stroke-width = "4" fill = "none" />	<path d = "M318 575 L275 500 L232 575 L318 575 Z" stroke = "black" stroke-width = "4" fill = "none" />    <text x="250" y = "675" fill = "black" font-size = "49.999999999999986px" font-family = "arial">S</text>
	<path d = "M458 600 L458 535 L392 535 L392 600 L458 600 Z" stroke = "black" stroke-width = "4" fill = "none" />	<path d = "M425 614 L471 567 L425 521 L379 567 L425 614 Z" stroke = "black" stroke-width = "4" fill = "none" />    <text x="412" y = "675" fill = "black" font-size = "49.999999999999986px" font-family = "arial">D</text>
	<path d = "M575 525 L618 525 L597 562 L575 600 L553 562 L532 525 L575 525 Z" stroke = "black" stroke-width = "4" fill = "none" />	<path d = "M591 531 L624 559 L584 573 L543 588 L550 546 L558 503 L591 531 Z" stroke = "black" stroke-width = "4" fill = "none" />	<path d = "M600 546 L607 588 L566 573 L526 559 L559 531 L592 503 L600 546 Z" stroke = "black" stroke-width = "4" fill = "none" />    <text x="550" y = "675" fill = "black" font-size = "49.999999999999986px" font-family = "arial">F</text>
    <circle cx="125" cy = "775" r = "12.499999999999996" stroke = "black" stroke-width = "4" fill = "black" />
    <text x="112" y = "875" fill = "black" font-size = "49.999999999999986px" font-family = "arial">z</text>
    <circle cx="250" cy = "775" r = "12.499999999999996" stroke = "black" stroke-width = "4" fill = "black" />
    <circle cx="300" cy = "775" r = "12.499999999999996" stroke = "black" stroke-width = "4" fill = "black" />
    <text x="262" y = "875" fill = "black" font-size = "49.999999999999986px" font-family = "arial">x</text>
    <circle cx="400" cy = "800" r = "12.499999999999996" stroke = "black" stroke-width = "4" fill = "black" />
    <circle cx="450" cy = "800" r = "12.499999999999996" stroke = "black" stroke-width = "4" fill = "black" />
    <circle cx="425" cy = "757" r = "12.499999999999996" stroke = "black" stroke-width = "4" fill = "black" />
    <text x="412" y = "875" fill = "black" font-size = "49.999999999999986px" font-family = "arial">c</text>
    <circle cx="550" cy = "800" r = "12.499999999999996" stroke = "black" stroke-width = "4" fill = "black" />
    <circle cx="600" cy = "800" r = "12.499999999999996" stroke = "black" stroke-width = "4" fill = "black" />
    <circle cx="600" cy = "750" r = "12.499999999999996" stroke = "black" stroke-width = "4" fill = "black" />
    <circle cx="550" cy = "750" r = "12.499999999999996" stroke = "black" stroke-width = "4" fill = "black" />
    <text x="562" y = "875" fill = "black" font-size = "49.999999999999986px" font-family = "arial">v</text>
</svg>