<svg width="500" height="500" viewbox = "0 0 500 500"  xmlns="http://www.w3.org/2000/svg">

<!--
<json>
{
    "imgurl": "",
    "imgw": 4.743971328437736,
    "imgleft": -2.2873205904167726,
    "imgtop": -3.171985664218851,
    "imgangle": 0,
    "svgwidth": 500,
    "svgheight": 500,
    "unit": 100,
    "x0": 684,
    "y0": 399,
    "x0rel": 0,
    "y0rel": 0,
    "glyph": "0330,0332,0332,0331,0331,0331,0336,01101,01123,01104,01106,0330,0330,0330,0332,0332,0332,0332,0332,0332,0332,0336,0331,0332,0337,01164,01171,01165,01151,01171,0330,0332,0332,0332,0330,0332,0332,0332,0332,01064,0336,0333,0337,01065,0336,0333,0337,01066,0336,0333,0337,01067,0330,0330,0332,0332,0332,0332,0332,01060,0336,0333,0337,01061,0336,0333,0337,01062,0336,0333,0337,01063,",
    "table": []
}
</json>
-->
    <circle cx="87" cy = "425" r = "25" stroke = "black" stroke-width = "6" fill = "none" />
    <line x1="87" y1="425" x2="87" y2="400" style="stroke:black;stroke-width:6" />
    <line x1="87" y1="425" x2="112" y2="425" style="stroke:black;stroke-width:6" />
    <line x1="87" y1="425" x2="87" y2="450" style="stroke:black;stroke-width:6" />
    <line x1="87" y1="425" x2="62" y2="425" style="stroke:black;stroke-width:6" />
    <text x="87" y = "475" fill = "black" font-size = "25px" font-family = "arial">A</text>
    <circle cx="162" cy = "425" r = "25" stroke = "black" stroke-width = "6" fill = "none" />
    <circle cx="187" cy = "425" r = "25" stroke = "black" stroke-width = "6" fill = "none" />
<circle cx="187" cy = "425" r = "6" stroke = "black" stroke-width = "6" fill = "black" />
<circle cx="162" cy = "425" r = "6" stroke = "black" stroke-width = "6" fill = "black" />
    <text x="175" y = "475" fill = "black" font-size = "25px" font-family = "arial">S</text>
<circle cx="275" cy = "400" r = "6" stroke = "black" stroke-width = "6" fill = "black" />
    <circle cx="275" cy = "400" r = "25" stroke = "black" stroke-width = "6" fill = "none" />
<circle cx="288" cy = "422" r = "6" stroke = "black" stroke-width = "6" fill = "black" />
    <circle cx="288" cy = "422" r = "25" stroke = "black" stroke-width = "6" fill = "none" />
<circle cx="263" cy = "422" r = "6" stroke = "black" stroke-width = "6" fill = "black" />
    <circle cx="263" cy = "422" r = "25" stroke = "black" stroke-width = "6" fill = "none" />
	<path d = "M263 422 L275 400 L288 422 L263 422 Z" stroke = "black" stroke-width = "6" fill = "none" />    <text x="275" y = "475" fill = "black" font-size = "25px" font-family = "arial">D</text>
    <circle cx="363" cy = "425" r = "25" stroke = "black" stroke-width = "6" fill = "none" />
<circle cx="363" cy = "425" r = "6" stroke = "black" stroke-width = "6" fill = "black" />
<circle cx="388" cy = "425" r = "6" stroke = "black" stroke-width = "6" fill = "black" />
    <circle cx="388" cy = "425" r = "25" stroke = "black" stroke-width = "6" fill = "none" />
<circle cx="387" cy = "400" r = "6" stroke = "black" stroke-width = "6" fill = "black" />
    <circle cx="387" cy = "400" r = "25" stroke = "black" stroke-width = "6" fill = "none" />
<circle cx="362" cy = "400" r = "6" stroke = "black" stroke-width = "6" fill = "black" />
    <circle cx="362" cy = "400" r = "25" stroke = "black" stroke-width = "6" fill = "none" />
    <text x="375" y = "475" fill = "black" font-size = "25px" font-family = "arial">F</text>
	<path d = "M112 325 L112 275 L62 275 L62 325 L112 325 Z" stroke = "black" stroke-width = "6" fill = "none" />	<path d = "M62 325 L73 319 L73 331 L62 325 Z" stroke = "black" stroke-width = "6" fill = "black" />	<path d = "M50 313 L75 313 L62 291 L50 313 Z" stroke = "red" stroke-width = "6" fill = "red" />	<path d = "M50 313 L75 313 L62 291 L50 313 Z" stroke = "black" stroke-width = "6" fill = "none" />	<path d = "M100 288 L100 263 L75 263 L75 288 L100 288 Z" stroke = "blue" stroke-width = "6" fill = "blue" />	<path d = "M100 288 L100 263 L75 263 L75 288 L100 288 Z" stroke = "black" stroke-width = "6" fill = "none" />    <text x="87" y = "363" fill = "black" font-size = "25px" font-family = "arial">t</text>
	<path d = "M137 325 L137 275 L162 275 L162 325 L187 325 " stroke = "black" stroke-width = "6" fill = "none" />	<path d = "M187 325 L177 319 L177 331 L187 325 Z" stroke = "black" stroke-width = "6" fill = "black" />	<path d = "M125 313 L150 313 L137 291 L125 313 Z" stroke = "red" stroke-width = "6" fill = "red" />	<path d = "M125 313 L150 313 L137 291 L125 313 Z" stroke = "black" stroke-width = "6" fill = "none" />	<path d = "M156 281 L156 269 L144 269 L144 281 L156 281 Z" stroke = "blue" stroke-width = "6" fill = "blue" />	<path d = "M156 281 L156 269 L144 269 L144 281 L156 281 Z" stroke = "black" stroke-width = "6" fill = "none" />    <text x="150" y = "350" fill = "black" font-size = "25px" font-family = "arial">y</text>
    <circle cx="237" cy = "300" r = "25" stroke = "green" stroke-width = "6" fill = "green" />
    <circle cx="237" cy = "300" r = "25" stroke = "black" stroke-width = "6" fill = "none" />
	<path d = "M225 300 M224.99999999999886 299.9999999999993           A6.25 6.25 0 0 1 237.49999999999886 299.99999999999915M249.99999999999886 299.9999999999989           A6.25 6.25 0 0 1 237.49999999999886 299.99999999999915" stroke = "black" stroke-width = "6" fill = "none" />    <text x="225" y = "350" fill = "black" font-size = "25px" font-family = "arial">u</text>
	<path d = "M300 262 L325 262 L343 280 L343 305 L325 323 L300 323 L282 305 L282 280 L300 262 Z" stroke = "red" stroke-width = "6" fill = "red" />	<path d = "M300 262 L325 262 L343 280 L343 305 L325 323 L300 323 L282 305 L282 280 L300 262 Z" stroke = "black" stroke-width = "6" fill = "none" />	<path d = "M300 294 M299.9999999999987 293.7499999999983           A6.25 6.25 0 0 1 312.4999999999987 293.7499999999982M324.9999999999987 293.74999999999807           A6.25 6.25 0 0 1 312.4999999999987 293.7499999999982" stroke = "black" stroke-width = "6" fill = "none" />    <text x="312" y = "350" fill = "black" font-size = "25px" font-family = "arial">i</text>
	<path d = "M362 325 L362 275 L387 275 L387 325 L412 325 " stroke = "black" stroke-width = "6" fill = "none" />	<path d = "M412 325 L402 319 L402 331 L412 325 Z" stroke = "black" stroke-width = "6" fill = "black" />	<path d = "M350 312 L375 312 L362 291 L350 312 Z" stroke = "red" stroke-width = "6" fill = "red" />	<path d = "M350 312 L375 312 L362 291 L350 312 Z" stroke = "black" stroke-width = "6" fill = "none" />	<path d = "M381 281 L381 269 L369 269 L369 281 L381 281 Z" stroke = "blue" stroke-width = "6" fill = "blue" />	<path d = "M381 281 L381 269 L369 269 L369 281 L381 281 Z" stroke = "black" stroke-width = "6" fill = "none" />    <text x="375" y = "350" fill = "black" font-size = "25px" font-family = "arial">y</text>
	<path d = "M75 225 L75 175 L125 175 " stroke = "black" stroke-width = "6" fill = "none" />	<path d = "M125 175 L114 169 L114 181 L125 175 Z" stroke = "black" stroke-width = "6" fill = "black" />    <text x="81" y = "225" fill = "black" font-size = "25px" font-family = "arial">4</text>
    <text x="100" y = "206" fill = "black" font-size = "12.5px" font-family = "arial">4</text>
	<path d = "M150 225 L150 175 L200 175 " stroke = "black" stroke-width = "6" fill = "none" />	<path d = "M200 175 L189 169 L189 181 L200 175 Z" stroke = "black" stroke-width = "6" fill = "black" />    <text x="156" y = "225" fill = "black" font-size = "25px" font-family = "arial">4</text>
    <text x="175" y = "206" fill = "black" font-size = "12.5px" font-family = "arial">5</text>
	<path d = "M225 225 L225 175 L275 175 " stroke = "black" stroke-width = "6" fill = "none" />	<path d = "M275 175 L264 169 L264 181 L275 175 Z" stroke = "black" stroke-width = "6" fill = "black" />    <text x="231" y = "225" fill = "black" font-size = "25px" font-family = "arial">4</text>
    <text x="250" y = "206" fill = "black" font-size = "12.5px" font-family = "arial">6</text>
	<path d = "M300 225 L300 175 L350 175 " stroke = "black" stroke-width = "6" fill = "none" />	<path d = "M350 175 L339 169 L339 181 L350 175 Z" stroke = "black" stroke-width = "6" fill = "black" />    <text x="306" y = "225" fill = "black" font-size = "25px" font-family = "arial">4</text>
    <text x="325" y = "206" fill = "black" font-size = "12.5px" font-family = "arial">7</text>
	<path d = "M100 75 L150 75 L150 125 " stroke = "black" stroke-width = "6" fill = "none" />	<path d = "M150 125 L156 114 L144 114 L150 125 Z" stroke = "black" stroke-width = "6" fill = "black" />    <circle cx="125" cy = "100" r = "6.25" stroke = "black" stroke-width = "6" fill = "black" />
    <text x="119" y = "156" fill = "black" font-size = "25px" font-family = "arial">0</text>
	<path d = "M175 125 L175 75 L225 75 " stroke = "black" stroke-width = "6" fill = "none" />	<path d = "M225 75 L214 69 L214 81 L225 75 Z" stroke = "black" stroke-width = "6" fill = "black" />    <text x="181" y = "125" fill = "black" font-size = "25px" font-family = "arial">4</text>
    <text x="200" y = "106" fill = "black" font-size = "12.5px" font-family = "arial">1</text>
	<path d = "M250 125 L250 75 L300 75 " stroke = "black" stroke-width = "6" fill = "none" />	<path d = "M300 75 L289 69 L289 81 L300 75 Z" stroke = "black" stroke-width = "6" fill = "black" />    <text x="256" y = "125" fill = "black" font-size = "25px" font-family = "arial">4</text>
    <text x="275" y = "106" fill = "black" font-size = "12.5px" font-family = "arial">2</text>
	<path d = "M325 125 L325 75 L375 75 " stroke = "black" stroke-width = "6" fill = "none" />	<path d = "M375 75 L364 69 L364 81 L375 75 Z" stroke = "black" stroke-width = "6" fill = "black" />    <text x="331" y = "125" fill = "black" font-size = "25px" font-family = "arial">4</text>
    <text x="350" y = "106" fill = "black" font-size = "12.5px" font-family = "arial">3</text>
</svg>