<svg width="400" height="500" viewbox = "0 0 400 500"  xmlns="http://www.w3.org/2000/svg">

<!--
<json>
{
    "imgurl": "",
    "imgw": 4.743971328437736,
    "imgleft": -2.2873205904167726,
    "imgtop": -3.171985664218851,
    "imgangle": 0,
    "svgwidth": 400,
    "svgheight": 500,
    "unit": 100,
    "x0": 684,
    "y0": 399,
    "x0rel": 0,
    "y0rel": 0,
    "glyph": "0336,0336,0330,0330,0336,0331,0337,0337,0337,0330,0332,0330,0332,0336,0331,0333,01161,01167,01145,01162,0331,0331,0331,0332,0332,0332,0332,0332,0332,01164,01171,01165,01151,0331,0331,0332,0332,0332,0332,0332,0332,0336,0331,0337,01141,01163,01144,01146,0331,0331,0332,0332,0332,0332,0332,0332,0336,0331,0337,01147,01150,01152,01153,",
    "table": []
}
</json>
-->
    <line x1="88" y1="25" x2="88" y2="12" style="stroke:black;stroke-width:4" />
    <line x1="88" y1="50" x2="88" y2="37" style="stroke:black;stroke-width:4" />
    <line x1="81" y1="31" x2="69" y2="31" style="stroke:black;stroke-width:4" />
    <line x1="94" y1="31" x2="106" y2="31" style="stroke:black;stroke-width:4" />
    <text x="81" y = "87" fill = "black" font-size = "25px" font-family = "arial">q</text>
    <line x1="138" y1="62" x2="138" y2="50" style="stroke:black;stroke-width:4" />
    <line x1="138" y1="62" x2="138" y2="75" style="stroke:black;stroke-width:4" />
    <line x1="138" y1="62" x2="188" y2="62" style="stroke:black;stroke-width:4" />
    <line x1="188" y1="62" x2="188" y2="50" style="stroke:black;stroke-width:4" />
    <line x1="188" y1="62" x2="188" y2="75" style="stroke:black;stroke-width:4" />
    <text x="150" y = "87" fill = "black" font-size = "25px" font-family = "arial">w</text>
    <line x1="213" y1="62" x2="213" y2="50" style="stroke:black;stroke-width:4" />
    <line x1="213" y1="62" x2="213" y2="75" style="stroke:black;stroke-width:4" />
    <line x1="213" y1="62" x2="263" y2="62" style="stroke:black;stroke-width:4" />
    <line x1="263" y1="62" x2="263" y2="50" style="stroke:black;stroke-width:4" />
    <line x1="263" y1="62" x2="263" y2="75" style="stroke:black;stroke-width:4" />
	<path d = "M250 50 L250 25 L225 25 L225 50 L250 50 Z" stroke = "white" stroke-width = "1" fill = "white" />	<path d = "M250 50 L250 25 L225 25 L225 50 L250 50 Z" stroke = "black" stroke-width = "4" fill = "none" />    <line x1="238" y1="37" x2="244" y2="37" style="stroke:black;stroke-width:4" />
    <line x1="238" y1="37" x2="231" y2="37" style="stroke:black;stroke-width:4" />
    <text x="231" y = "87" fill = "black" font-size = "25px" font-family = "arial">e</text>
    <line x1="288" y1="62" x2="288" y2="50" style="stroke:black;stroke-width:4" />
    <line x1="288" y1="62" x2="288" y2="75" style="stroke:black;stroke-width:4" />
    <line x1="288" y1="62" x2="338" y2="62" style="stroke:black;stroke-width:4" />
    <line x1="338" y1="62" x2="338" y2="50" style="stroke:black;stroke-width:4" />
    <line x1="338" y1="62" x2="338" y2="75" style="stroke:black;stroke-width:4" />
	<path d = "M325 50 L325 25 L300 25 L300 50 L325 50 Z" stroke = "white" stroke-width = "1" fill = "white" />	<path d = "M325 50 L325 25 L300 25 L300 50 L325 50 Z" stroke = "black" stroke-width = "4" fill = "none" />    <line x1="313" y1="37" x2="313" y2="31" style="stroke:black;stroke-width:4" />
    <line x1="313" y1="37" x2="319" y2="37" style="stroke:black;stroke-width:4" />
    <line x1="313" y1="37" x2="313" y2="44" style="stroke:black;stroke-width:4" />
    <line x1="313" y1="37" x2="306" y2="37" style="stroke:black;stroke-width:4" />
    <text x="306" y = "87" fill = "black" font-size = "25px" font-family = "arial">r</text>
	<path d = "M113 212 L113 162 L63 162 L62 212 L113 212 Z" stroke = "black" stroke-width = "4" fill = "none" />	<path d = "M113 212 L119 202 L106 202 L112 212 Z" stroke = "black" stroke-width = "4" fill = "black" />	<path d = "M50 200 L75 200 L63 178 L50 200 Z" stroke = "red" stroke-width = "1" fill = "red" />	<path d = "M50 200 L75 200 L63 178 L50 200 Z" stroke = "black" stroke-width = "4" fill = "none" />	<path d = "M75 175 L100 175 L100 150 L75 150 L75 175 Z" stroke = "blue" stroke-width = "1" fill = "blue" />	<path d = "M75 175 L88 162 L75 150 L75 175 Z" stroke = "white" stroke-width = "1" fill = "white" />	<path d = "M75 175 L100 175 L100 150 L75 150 L75 175 Z" stroke = "black" stroke-width = "4" fill = "none" />	<path d = "M75 150 L88 162 L75 175 " stroke = "black" stroke-width = "4" fill = "none" />    <text x="81" y = "237" fill = "black" font-size = "24.999999999999996px" font-family = "arial">t</text>
	<path d = "M138 212 L138 162 L163 162 L163 212 L188 212 " stroke = "black" stroke-width = "4" fill = "none" />	<path d = "M188 212 L177 206 L177 219 L188 212 Z" stroke = "black" stroke-width = "4" fill = "black" />	<path d = "M125 200 L150 200 L138 178 L125 200 Z" stroke = "red" stroke-width = "1" fill = "red" />	<path d = "M125 200 L150 200 L138 178 L125 200 Z" stroke = "black" stroke-width = "4" fill = "none" />	<path d = "M138 175 L163 175 L163 150 L138 150 L138 175 Z" stroke = "blue" stroke-width = "1" fill = "blue" />	<path d = "M138 175 L150 162 L138 150 L138 175 Z" stroke = "white" stroke-width = "1" fill = "white" />	<path d = "M138 175 L163 175 L163 150 L138 150 L138 175 Z" stroke = "black" stroke-width = "4" fill = "none" />	<path d = "M138 150 L150 162 L138 175 " stroke = "black" stroke-width = "4" fill = "none" />    <text x="156" y = "237" fill = "black" font-size = "24.999999999999996px" font-family = "arial">y</text>
    <circle cx="238" cy = "188" r = "24.999999999999996" stroke = "green" stroke-width = "1" fill = "green" />
    <circle cx="238" cy = "188" r = "24.999999999999996" stroke = "black" stroke-width = "4" fill = "none" />
	<path d = "M225 188 M225.00000000000063 187.5000000000003           A6.249999999999999 6.249999999999999 0 0 1 237.50000000000063 187.5000000000005M250.00000000000063 187.50000000000074           A6.249999999999999 6.249999999999999 0 0 1 237.50000000000063 187.5000000000005" stroke = "black" stroke-width = "4" fill = "none" />    <text x="225" y = "238" fill = "black" font-size = "24.999999999999996px" font-family = "arial">u</text>
	<path d = "M300 150 L325 150 L343 168 L343 193 L325 210 L300 210 L282 193 L282 168 L300 150 Z" stroke = "red" stroke-width = "1" fill = "red" />	<path d = "M300 150 L325 150 L343 168 L343 193 L325 210 L300 210 L282 193 L282 168 L300 150 Z" stroke = "black" stroke-width = "4" fill = "none" />	<path d = "M300 181 M300.00000000000057 181.25000000000267           A6.249999999999999 6.249999999999999 0 0 1 312.50000000000057 181.25000000000293M325.00000000000057 181.2500000000032           A6.249999999999999 6.249999999999999 0 0 1 312.50000000000057 181.2500000000029" stroke = "black" stroke-width = "4" fill = "none" />    <text x="312" y = "238" fill = "black" font-size = "24.999999999999996px" font-family = "arial">i</text>
	<path d = "M62 337 L112 337 L87 294 L62 337 Z" stroke = "red" stroke-width = "1" fill = "red" />	<path d = "M62 337 L112 337 L87 294 L62 337 Z" stroke = "black" stroke-width = "4" fill = "none" />	<path d = "M94 287 L81 287 L81 275 L81 269 L75 269 L81 262 L87 256 L94 262 L100 269 L94 269 L94 275 L94 287 Z" stroke = "black" stroke-width = "4" fill = "black" />    <text x="81" y = "362" fill = "black" font-size = "24.999999999999993px" font-family = "arial">a</text>
	<path d = "M137 337 L187 337 L162 294 L137 337 Z" stroke = "red" stroke-width = "1" fill = "red" />	<path d = "M137 337 L187 337 L162 294 L137 337 Z" stroke = "black" stroke-width = "4" fill = "none" />	<path d = "M156 256 L169 256 L169 269 L169 275 L175 275 L169 281 L162 287 L156 281 L150 275 L156 275 L156 269 L156 256 Z" stroke = "black" stroke-width = "4" fill = "black" />    <text x="156" y = "362" fill = "black" font-size = "24.999999999999993px" font-family = "arial">s</text>
	<path d = "M262 338 L262 288 L212 288 L212 338 L262 338 Z" stroke = "blue" stroke-width = "1" fill = "blue" />	<path d = "M262 338 L237 313 L212 338 L262 338 Z" stroke = "white" stroke-width = "1" fill = "white" />	<path d = "M262 338 L262 288 L212 288 L212 338 L262 338 Z" stroke = "black" stroke-width = "4" fill = "none" />	<path d = "M212 338 L237 313 L262 338 " stroke = "black" stroke-width = "4" fill = "none" />	<path d = "M244 288 L231 288 L231 275 L231 269 L225 269 L231 263 L237 256 L244 263 L250 269 L244 269 L244 275 L244 288 Z" stroke = "black" stroke-width = "4" fill = "black" />    <text x="231" y = "363" fill = "black" font-size = "24.999999999999993px" font-family = "arial">d</text>
	<path d = "M337 338 L337 288 L287 288 L287 338 L337 338 Z" stroke = "blue" stroke-width = "1" fill = "blue" />	<path d = "M337 338 L312 313 L287 338 L337 338 Z" stroke = "white" stroke-width = "1" fill = "white" />	<path d = "M337 338 L337 288 L287 288 L287 338 L337 338 Z" stroke = "black" stroke-width = "4" fill = "none" />	<path d = "M287 338 L312 313 L337 338 " stroke = "black" stroke-width = "4" fill = "none" />	<path d = "M308 263 L317 263 L317 271 L317 276 L321 276 L317 280 L312 285 L308 280 L304 276 L308 276 L308 271 L308 263 Z" stroke = "black" stroke-width = "4" fill = "black" />    <text x="306" y = "363" fill = "black" font-size = "24.999999999999993px" font-family = "arial">f</text>
	<path d = "M62 463 L112 463 L87 419 L62 463 Z" stroke = "red" stroke-width = "1" fill = "red" />	<path d = "M62 463 L112 463 L87 419 L62 463 Z" stroke = "black" stroke-width = "4" fill = "none" />	<path d = "M100 463 L100 438 L75 438 L75 463 L100 463 Z" stroke = "white" stroke-width = "1" fill = "white" />	<path d = "M100 463 L100 438 L75 438 L75 463 L100 463 Z" stroke = "black" stroke-width = "4" fill = "none" />    <line x1="87" y1="450" x2="94" y2="450" style="stroke:black;stroke-width:4" />
    <line x1="87" y1="450" x2="81" y2="450" style="stroke:black;stroke-width:4" />
    <text x="81" y = "488" fill = "black" font-size = "24.999999999999993px" font-family = "arial">g</text>
	<path d = "M137 463 L187 463 L162 419 L137 463 Z" stroke = "red" stroke-width = "1" fill = "red" />	<path d = "M137 463 L187 463 L162 419 L137 463 Z" stroke = "black" stroke-width = "4" fill = "none" />	<path d = "M175 463 L175 438 L150 438 L150 463 L175 463 Z" stroke = "white" stroke-width = "1" fill = "white" />	<path d = "M175 463 L175 438 L150 438 L150 463 L175 463 Z" stroke = "black" stroke-width = "4" fill = "none" />    <line x1="162" y1="450" x2="162" y2="444" style="stroke:black;stroke-width:4" />
    <line x1="162" y1="450" x2="169" y2="450" style="stroke:black;stroke-width:4" />
    <line x1="162" y1="450" x2="162" y2="456" style="stroke:black;stroke-width:4" />
    <line x1="162" y1="450" x2="156" y2="450" style="stroke:black;stroke-width:4" />
    <text x="156" y = "488" fill = "black" font-size = "24.999999999999993px" font-family = "arial">h</text>
	<path d = "M262 463 L262 413 L212 413 L212 463 L262 463 Z" stroke = "blue" stroke-width = "1" fill = "blue" />	<path d = "M262 463 L237 438 L212 463 L262 463 Z" stroke = "white" stroke-width = "1" fill = "white" />	<path d = "M262 463 L262 413 L212 413 L212 463 L262 463 Z" stroke = "black" stroke-width = "4" fill = "none" />	<path d = "M212 463 L237 438 L262 463 " stroke = "black" stroke-width = "4" fill = "none" />	<path d = "M250 450 L250 425 L225 425 L225 450 L250 450 Z" stroke = "white" stroke-width = "1" fill = "white" />	<path d = "M250 450 L250 425 L225 425 L225 450 L250 450 Z" stroke = "black" stroke-width = "4" fill = "none" />    <line x1="237" y1="438" x2="244" y2="438" style="stroke:black;stroke-width:4" />
    <line x1="237" y1="438" x2="231" y2="438" style="stroke:black;stroke-width:4" />
    <text x="231" y = "488" fill = "black" font-size = "24.999999999999993px" font-family = "arial">j</text>
	<path d = "M337 463 L337 413 L287 413 L287 463 L337 463 Z" stroke = "blue" stroke-width = "1" fill = "blue" />	<path d = "M337 463 L312 438 L287 463 L337 463 Z" stroke = "white" stroke-width = "1" fill = "white" />	<path d = "M337 463 L337 413 L287 413 L287 463 L337 463 Z" stroke = "black" stroke-width = "4" fill = "none" />	<path d = "M287 463 L312 438 L337 463 " stroke = "black" stroke-width = "4" fill = "none" />	<path d = "M325 450 L325 425 L300 425 L300 450 L325 450 Z" stroke = "white" stroke-width = "1" fill = "white" />	<path d = "M325 450 L325 425 L300 425 L300 450 L325 450 Z" stroke = "black" stroke-width = "4" fill = "none" />    <line x1="312" y1="438" x2="312" y2="431" style="stroke:black;stroke-width:4" />
    <line x1="312" y1="438" x2="319" y2="438" style="stroke:black;stroke-width:4" />
    <line x1="312" y1="438" x2="312" y2="444" style="stroke:black;stroke-width:4" />
    <line x1="312" y1="438" x2="306" y2="438" style="stroke:black;stroke-width:4" />
    <text x="306" y = "488" fill = "black" font-size = "24.999999999999993px" font-family = "arial">k</text>
</svg>