<svg width="600" height="600" viewbox = "0 0 600 600"  xmlns="http://www.w3.org/2000/svg">

<!--
<json>
{
    "imgurl": "",
    "imgw": 4.743971328437736,
    "imgleft": -2.2873205904167726,
    "imgtop": -3.171985664218851,
    "imgangle": 0,
    "svgwidth": 600,
    "svgheight": 600,
    "unit": 100,
    "x0": 684,
    "y0": 399,
    "x0rel": 0,
    "y0rel": 0,
    "glyph": "0332,0332,0332,0336,0333,0331,0331,0331,0336,0332,0336,0332,0332,0337,0337,0337,01147,01150,01152,01153,0330,0332,0332,0332,0332,0332,0332,0330,01141,01163,01144,01146,",
    "table": []
}
</json>
-->
	<path d = "M25 450 L125 450 L75 363 L25 450 Z" stroke = "red" stroke-width = "6" fill = "red" />	<path d = "M25 450 L125 450 L75 363 L25 450 Z" stroke = "black" stroke-width = "6" fill = "none" />	<path d = "M100 450 L100 400 L50 400 L50 450 L100 450 Z" stroke = "white" stroke-width = "6" fill = "white" />	<path d = "M100 450 L100 400 L50 400 L50 450 L100 450 Z" stroke = "black" stroke-width = "6" fill = "none" />    <line x1="75" y1="425" x2="87" y2="425" style="stroke:black;stroke-width:6" />
    <line x1="75" y1="425" x2="62" y2="425" style="stroke:black;stroke-width:6" />
    <text x="62" y = "500" fill = "black" font-size = "50px" font-family = "arial">g</text>
	<path d = "M175 450 L275 450 L225 363 L175 450 Z" stroke = "red" stroke-width = "6" fill = "red" />	<path d = "M175 450 L275 450 L225 363 L175 450 Z" stroke = "black" stroke-width = "6" fill = "none" />	<path d = "M250 450 L250 400 L200 400 L200 450 L250 450 Z" stroke = "white" stroke-width = "6" fill = "white" />	<path d = "M250 450 L250 400 L200 400 L200 450 L250 450 Z" stroke = "black" stroke-width = "6" fill = "none" />    <line x1="225" y1="425" x2="225" y2="413" style="stroke:black;stroke-width:6" />
    <line x1="225" y1="425" x2="237" y2="425" style="stroke:black;stroke-width:6" />
    <line x1="225" y1="425" x2="225" y2="438" style="stroke:black;stroke-width:6" />
    <line x1="225" y1="425" x2="212" y2="425" style="stroke:black;stroke-width:6" />
    <text x="212" y = "500" fill = "black" font-size = "50px" font-family = "arial">h</text>
	<path d = "M425 450 L425 350 L325 350 L325 450 L425 450 Z" stroke = "blue" stroke-width = "6" fill = "blue" />	<path d = "M425 450 L375 400 L325 450 L425 450 Z" stroke = "white" stroke-width = "6" fill = "white" />	<path d = "M425 450 L425 350 L325 350 L325 450 L425 450 Z" stroke = "black" stroke-width = "6" fill = "none" />	<path d = "M325 450 L375 400 L425 450 " stroke = "black" stroke-width = "6" fill = "none" />	<path d = "M400 425 L400 375 L350 375 L350 425 L400 425 Z" stroke = "white" stroke-width = "6" fill = "white" />	<path d = "M400 425 L400 375 L350 375 L350 425 L400 425 Z" stroke = "black" stroke-width = "6" fill = "none" />    <line x1="375" y1="400" x2="388" y2="400" style="stroke:black;stroke-width:6" />
    <line x1="375" y1="400" x2="363" y2="400" style="stroke:black;stroke-width:6" />
    <text x="363" y = "500" fill = "black" font-size = "49.99999999999999px" font-family = "arial">j</text>
	<path d = "M575 450 L575 350 L475 350 L475 450 L575 450 Z" stroke = "blue" stroke-width = "6" fill = "blue" />	<path d = "M575 450 L525 400 L475 450 L575 450 Z" stroke = "white" stroke-width = "6" fill = "white" />	<path d = "M575 450 L575 350 L475 350 L475 450 L575 450 Z" stroke = "black" stroke-width = "6" fill = "none" />	<path d = "M475 450 L525 400 L575 450 " stroke = "black" stroke-width = "6" fill = "none" />	<path d = "M550 425 L550 375 L500 375 L500 425 L550 425 Z" stroke = "white" stroke-width = "6" fill = "white" />	<path d = "M550 425 L550 375 L500 375 L500 425 L550 425 Z" stroke = "black" stroke-width = "6" fill = "none" />    <line x1="525" y1="400" x2="525" y2="387" style="stroke:black;stroke-width:6" />
    <line x1="525" y1="400" x2="538" y2="400" style="stroke:black;stroke-width:6" />
    <line x1="525" y1="400" x2="525" y2="412" style="stroke:black;stroke-width:6" />
    <line x1="525" y1="400" x2="513" y2="400" style="stroke:black;stroke-width:6" />
    <text x="512" y = "500" fill = "black" font-size = "49.99999999999999px" font-family = "arial">k</text>
	<path d = "M25 250 L125 250 L75 163 L25 250 Z" stroke = "red" stroke-width = "6" fill = "red" />	<path d = "M25 250 L125 250 L75 163 L25 250 Z" stroke = "black" stroke-width = "6" fill = "none" />	<path d = "M88 150 L63 150 L63 125 L63 112 L50 112 L63 100 L75 87 L88 100 L100 112 L88 112 L88 125 L88 150 Z" stroke = "black" stroke-width = "6" fill = "black" />    <text x="63" y = "300" fill = "black" font-size = "49.999999999999986px" font-family = "arial">(a</text>
	<path d = "M175 250 L275 250 L225 163 L175 250 Z" stroke = "red" stroke-width = "6" fill = "red" />	<path d = "M175 250 L275 250 L225 163 L175 250 Z" stroke = "black" stroke-width = "6" fill = "none" />	<path d = "M212 87 L237 87 L238 112 L238 125 L250 125 L238 137 L225 150 L213 137 L200 125 L213 125 L213 112 L212 87 Z" stroke = "black" stroke-width = "6" fill = "black" />    <text x="213" y = "300" fill = "black" font-size = "49.999999999999986px" font-family = "arial">s</text>
	<path d = "M425 250 L425 150 L325 150 L325 250 L425 250 Z" stroke = "blue" stroke-width = "6" fill = "blue" />	<path d = "M425 250 L375 200 L325 250 L425 250 Z" stroke = "white" stroke-width = "6" fill = "white" />	<path d = "M425 250 L425 150 L325 150 L325 250 L425 250 Z" stroke = "black" stroke-width = "6" fill = "none" />	<path d = "M325 250 L375 200 L425 250 " stroke = "black" stroke-width = "6" fill = "none" />	<path d = "M388 150 L363 150 L363 125 L363 112 L350 112 L363 100 L375 87 L388 100 L400 112 L388 112 L388 125 L388 150 Z" stroke = "black" stroke-width = "6" fill = "black" />    <text x="363" y = "300" fill = "black" font-size = "49.999999999999986px" font-family = "arial">d</text>
	<path d = "M575 250 L575 150 L475 150 L475 250 L575 250 Z" stroke = "blue" stroke-width = "6" fill = "blue" />	<path d = "M575 250 L525 200 L475 250 L575 250 Z" stroke = "white" stroke-width = "6" fill = "white" />	<path d = "M575 250 L575 150 L475 150 L475 250 L575 250 Z" stroke = "black" stroke-width = "6" fill = "none" />	<path d = "M475 250 L525 200 L575 250 " stroke = "black" stroke-width = "6" fill = "none" />	<path d = "M516 100 L534 100 L534 118 L534 127 L543 127 L534 135 L525 144 L516 135 L507 127 L516 127 L516 118 L516 100 Z" stroke = "black" stroke-width = "6" fill = "black" />    <text x="513" y = "300" fill = "black" font-size = "49.999999999999986px" font-family = "arial">f</text>
</svg>