<svg width="400" height="400" viewbox = "0 0 400 400"  xmlns="http://www.w3.org/2000/svg">

<!--
<json>
{
    "imgurl": "",
    "imgw": 2.983971328437751,
    "imgleft": -1.4873205904167783,
    "imgtop": -1.0519856642188752,
    "imgangle": 0,
    "svgwidth": 400,
    "svgheight": 400,
    "unit": 100,
    "x0": 615.5,
    "y0": 359,
    "x0rel": 0,
    "y0rel": 0,
    "glyph": "0316,0336,0322,0350,0335,0310,0337,0362,0203,0203,0203,0203,0203,0335,0335,0335,0336,0203,0335,0337,0203,0203,0203,0203,0335,0336,0203,0363,0335,0335,0324,0362,0203,0335,0337,0203,0203,0203,0203,0335,0336,0203,0335,0335,0335,0337,0203,0203,0203,0203,0203,0363,0335,0335,0335,0336,0330,0322,0362,0203,0335,0337,0203,0203,0203,0335,0336,0203,0335,0335,0335,0337,0203,0203,0203,0203,0363,0335,0335,0335,0336,0330,0324,0335,0337,0362,0203,0203,0203,0334,0334,0334,0336,0203,0334,0337,0203,0203,0334,0336,0203,0363,0331,0334,0334,0334,0322,0337,0362,0203,0203,0334,0334,0334,0336,0203,0334,0337,0203,0334,0336,0203,0363,0331,0335,0335,0335,0335,0324,0362,0203,0335,0335,0203,0335,0335,0335,0337,0203,0363,0334,0336,0331,0304,0335,0331,0331,0331,0331,0331,0334,0330,0350,0335,0337,0362,0203,0203,0203,0203,0334,0334,0334,0336,0203,0334,0337,0203,0203,0203,0334,0336,0203,0363,0331,0335,0335,0335,0335,0335,0322,0337,0362,0203,0203,0203,0334,0334,0334,0336,0203,0334,0337,0203,0203,0334,0336,0203,0363,0331,0335,0335,0335,0335,0324,0362,0203,0335,0337,0203,0335,0336,0203,0335,0335,0335,0337,0203,0203,0363,0335,0335,0335,0336,0330,0322,0335,0337,0362,0203,0334,0334,0334,0336,0203,0334,0334,0203,0363,0331,0320,0316,0337,0313,0304,0336,0336,0336,0333,0337,0337,0337,",
    "table": []
}
</json>
-->
	<path d = "M200 200 L220 180 L240 160 L260 140 L280 120 L300 100 L300 120 L280 140 L260 160 L240 180 L220 200 L200 200 Z" stroke = "red" stroke-width = "1" fill = "red" />	<path d = "M200 200 L200 180 L220 160 L240 140 L260 120 L280 100 L300 100 L280 120 L260 140 L240 160 L220 180 L200 200 Z" stroke = "yellow" stroke-width = "1" fill = "yellow" />	<path d = "M200 180 L200 160 L220 140 L240 120 L260 100 L280 100 L260 120 L240 140 L220 160 L200 180 Z" stroke = "red" stroke-width = "1" fill = "red" />	<path d = "M200 160 L220 140 L240 120 L260 100 L240 100 L220 120 L200 140 L200 160 Z" stroke = "yellow" stroke-width = "1" fill = "yellow" />	<path d = "M200 140 L220 120 L240 100 L220 100 L200 120 L200 140 Z" stroke = "red" stroke-width = "1" fill = "red" />	<path d = "M200 120 L200 100 L220 100 L200 120 Z" stroke = "yellow" stroke-width = "1" fill = "yellow" />	<path d = "M300 120 L280 140 L260 160 L240 180 L220 200 L240 200 L260 180 L280 160 L300 140 L300 120 Z" stroke = "yellow" stroke-width = "1" fill = "yellow" />	<path d = "M300 140 L280 160 L260 180 L240 200 L260 200 L280 180 L300 160 L300 140 Z" stroke = "red" stroke-width = "1" fill = "red" />	<path d = "M300 160 L300 180 L280 200 L260 200 L280 180 L300 160 Z" stroke = "yellow" stroke-width = "1" fill = "yellow" />	<path d = "M300 180 L280 200 L300 200 L300 180 Z" stroke = "red" stroke-width = "1" fill = "red" /></svg>