<svg width="400" height="400" viewbox = "0 0 400 400"  xmlns="http://www.w3.org/2000/svg">

<!--
<topfunctions>






function YofX(){
//foobar foobar
    X = plotparams.g*(x - plotparams.x0) - funcparams.X0;

    Y = Math.sin(X);

    y = plotparams.y0 - plotparams.G*(Y - funcparams.Y0);
}





function plotfunction(){
    
    /*plot one function:*/
    currentStroke = "blue";
    currentLineWidth = 4;
    ctx.strokeStyle = currentStroke;
    ctx.lineWidth = currentLineWidth;
    ctx.beginPath();	
    x = 0;
    intx = x;
    YofX();
    currentSVG += "	<path d = \"M";
    currentSVG += Math.round(x).toString() + " ";
    currentSVG += Math.round(y).toString() + " ";
    for(x = 1;x < plotparams.plotwidth;x++){
        ctx.moveTo(x-1,y);
        YofX();
        ctx.lineTo(x,y);
        currentSVG += "L" + x + " " + y + " ";
    }
    ctx.stroke();
    currentSVG += "\""+ " stroke = \"" + currentStroke + "\" stroke-width = \"" + currentLineWidth.toString() + "\" fill = \"" + "none" + "\" "+"/>";
    /*finish plot one function*/
    
    

}





























</topfunctions>
-->

<!--
<imgurl>

</imgurl>
-->

<!--
<currentjson>
{
    "constants": {},
    "imgurl": "",
    "plotparams": {
        "G": 142.04293198443185,
        "g": 0.047362440744766865,
        "duration": 450.78888054094654,
        "plotwidth": 400,
        "plotheight": 400,
        "x0": 0,
        "y0": 200.00000000000003
    },
    "funcparams": {
        "phi": 0.2688139066614501,
        "T": 1.4465183912692552,
        "X0": 0,
        "Y0": 0
    }
}
</currentjson>
-->

<!--
<equation>
<h2>Sine</h2>
<p style="color:blue">

</p><p class="bigeq">
$$
Y = \sin{X}
$$
</p>
<p></p>

$$
X = g(x - x_0) - X_0
$$
$$
Y = f(X)
$$
    
$$
y = y_0 - G(Y - Y_0)
$$


<p>
    X and Y, and $X_0$ and $Y_0$ in physical units of the System. x and y and x0 and y0 in pixels.  G is in pixels per Y unit and g is in X units per pixel. 
</p>






</equation>
-->
	<path d = "M0 200 L1 193.27501495745636 L2 186.56511258692365 L3 179.88534173327517 L4 173.25068366297572 L5 166.67601846437435 L6 160.17609167491764 L7 153.7654812101311 L8 147.45856466854008 L9 141.26948708585772 L10 135.21212921076074 L11 129.300076373403 L12 123.54658801648863 L13 117.9645679572391 L14 112.56653544695081 L15 107.36459709305001 L16 102.37041970661758 L17 97.59520413628107 L18 93.04966014715868 L19 88.74398240119619 L20 84.6878275927679 L21 80.89029279082104 L22 77.35989503613791 L23 74.10455223947457 L24 71.13156542341684 L25 68.44760234778218 L26 66.05868255529123 L27 63.97016387104881 L28 62.186730386113 L29 60.71238195210228 L30 59.550425210402324 L31 58.703466176092036 L32 58.173404393221034 L33 57.96142867454736 L34 58.068014435290394 L35 58.492922626878226 L36 59.23520027308152 L37 60.293182607330806 L38 61.66449680642427 L39 63.34606731225165 L40 65.33412272959913 L41 67.6242042845646 L42 70.21117582461338 L43 73.08923533784612 L44 76.25192796564352 L45 79.69216047950395 L46 83.40221718960518 L47 87.37377724941044 L48 91.5979333175094 L49 96.06521153483834 L50 100.76559277247614 L51 105.68853510236127 L52 110.82299744053277 L53 116.15746430986928 L54 121.67997166678782 L55 127.3781337339795 L56 133.23917077900168 L57 139.2499377764253 L58 145.39695388925466 L59 151.66643270349948 L60 158.04431314808863 L61 164.5162910307804 L62 171.06785111934028 L63 177.68429969603483 L64 184.35079751243043 L65 191.05239307058454 L66 197.77405615598894 L67 204.5007115470568 L68 211.21727282555022 L69 217.90867621212055 L70 224.55991435107333 L71 231.1560699685883 L72 237.6823493289051 L73 244.12411541343988 L74 250.4669207484198 L75 256.69653980741015 L76 262.79900091606123 L77 268.7606175875215 L78 274.56801921823705 L79 280.2081810752934 L80 285.66845350804607 L81 290.93659031852235 L82 296.00077622696784 L83 300.84965337093746 L84 305.47234677849855 L85 309.8584887584175 L86 313.99824215262475 L87 317.88232239881205 L88 321.5020183536762 L89 324.8492118301101 L90 327.91639580452306 L91 330.696691253454 L92 333.183862581718 L93 335.3723316074837 L94 337.25719007291684 L95 338.8342106523295 L96 340.09985643314803 L97 341.0512888484353 L98 341.6863740431762 L99 342.00368766004794 L100 342.0025180339422 L101 341.68286778807476 L102 341.0454538281022 L103 340.0917057342589 L104 338.823762555121 L105 337.2444680101881 L106 335.3573641120415 L107 333.16668322238417 L108 330.6773385597778 L109 327.8949131803678 L110 324.8256474563076 L111 321.4764250799679 L112 317.8547576253188 L113 313.9687677011105 L114 309.8271707336365 L115 305.43925541993747 L116 300.81486289528283 L117 295.96436466165466 L118 290.8986393267356 L119 285.62904820556787 L120 280.1674098396069 L121 274.52597349031515 L122 268.7173916667449 L123 262.75469174872507 L124 256.65124676929497 L125 250.42074542191352 L126 244.07716135971026 L127 237.6347218556349 L128 231.1078758937934 L129 224.5112617635328 L130 217.85967422895735 L131 211.16803134750558 L132 204.4513410120064 L133 197.72466729125517 L134 191.00309664459937 L135 184.3017040863059 L136 177.63551937559865 L137 171.01949330819224 L138 164.4684641849247 L139 157.9971245326901 L140 151.61998815231146 L141 145.35135756725725 L142 139.20529194620565 L143 133.19557557140163 L144 127.33568692352405 L145 121.63876845239797 L146 116.11759710135173 L147 110.78455565132516 L148 105.65160494899709 L149 100.7302570812199 L150 96.03154955592457 L151 91.56602054740155 L152 87.34368526147871 L153 83.37401347360328 L154 79.6659082902043 L155 76.22768618097042 L156 73.06705832682566 L157 70.19111332543557 L158 67.6063012930313 L159 65.31841939820842 L160 63.33259886014466 L161 61.65329344039614 L162 60.28426945408353 L163 59.228597322870286 L164 58.488644688677596 L165 58.06607110358098 L166 57.96182430779757 L167 58.176138104111914 L168 58.708531833507436 L169 59.55781145317948 L170 60.72207221451259 L171 62.19870293501529 L172 63.984391854631866 L173 66.07513406329676 L174 68.46624048307248 L175 71.15234838472696 L176 74.12743341516358 L177 77.38482310872828 L178 80.9172118520928 L179 84.71667726914859 L180 88.77469798916545 L181 93.08217275836418 L182 97.62944085204005 L183 102.40630374145763 L184 107.40204796692164 L185 112.60546916572709 L186 118.004897201096 L187 123.58822233574432 L188 129.34292239137667 L189 135.2560908331963 L190 141.31446571644173 L191 147.5044594300321 L192 153.81218917060937 L193 160.22350807863268 L194 166.7240369666933 L195 173.29919656889015 L196 179.93424023893766 L197 186.61428702367027 L198 193.32435503777035 L199 200.04939506486227 L200 206.77432430961673 L201 213.48406022516505 L202 220.16355433995636 L203 226.79782600819013 L204 233.37199600813298 L205 239.87131991296073 L206 246.2812211592863 L207 252.58732373920648 L208 258.77548444254626 L209 264.8318245769891 L210 270.74276109495065 L211 276.49503705738755 L212 282.07575136621415 L213 287.4723876986469 L214 292.6728425785816 L215 297.66545252204526 L216 302.4390201958422 L217 306.9828395307263 L218 311.28671973277426 L219 315.3410081391101 L220 319.1366118667187 L221 322.6650182057955 L222 325.9183137118945 L223 328.88920195405524 L224 331.571019879103 L225 333.9577527554212 L226 336.0440476626801 L227 337.8252254972676 L228 339.29729146649606 L229 340.45694404804937 L230 341.3015823945766 L231 341.8293121668236 L232 342.03894978222274 L233 341.93002506940934 L234 341.50278232271364 L235 340.7581797542622 L236 339.6978873449168 L237 338.32428309887314 L238 336.6404477103164 L239 334.6501576540973 L240 332.35787671592476 L241 329.7687459810695 L242 326.88857230403295 L243 323.72381528504195 L244 320.2815727825763 L245 316.5695649944237 L246 312.5961171429625 L247 308.3701408035072 L248 303.90111391759274 L249 299.1990595360215 L250 294.27452333935133 L251 289.13854998623816 L252 283.8026583426797 L253 278.27881564771593 L254 272.5794106735276 L255 266.71722594012607 L256 260.70540904695457 L257 254.5574431856955 L258 248.28711690041752 L259 241.90849316288393 L260 235.43587783237993 L261 228.88378757079673 L262 222.26691728492966 L263 215.600107169014 L264 208.89830942141177 L265 202.17655471009792 L266 195.44991846215606 L267 188.73348705289055 L268 182.04232397038172 L269 175.39143603137438 L270 168.7957397242668 L271 162.2700277546866 L272 155.82893586868408 L273 149.4869100279518 L274 143.25817401068986 L275 137.15669751077792 L276 131.1961648068052 L277 125.38994407122355 L278 119.75105738845758 L279 114.29215154921441 L280 109.02546968649642 L281 103.96282381692781 L282 99.11556834898315 L283 94.49457461752992 L284 90.1102065017999 L285 85.97229718147234 L286 82.09012708300128 L287 78.4724030656458 L288 75.12723889388789 L289 72.06213704003139 L290 69.28397185779596 L291 66.79897416464377 L292 64.61271726741731 L293 62.730104462630294 L294 61.155358039444394 L295 59.89200980999763 L296 58.94289318832142 L297 58.31013683561193 L298 57.99515988610813 L299 57.998668764283934 L300 58.32065560049227 L301 58.96039824861512 L302 59.91646190567937 L303 61.18670232980642 L304 62.76827064927829 L305 64.65761975193405 L306 66.85051224056775 L307 69.3420299364843 L308 72.12658490989953 L309 75.19793201244588 L310 78.54918288367547 L311 82.17282140014764 L312 86.06072053245101 L313 90.20416057235536 L314 94.59384868921148 L315 99.21993977173983 L316 104.07205850846401 L317 109.13932265726747 L318 114.41036745188408 L319 119.8733710905867 L320 125.51608124990452 L321 131.32584256390777 L322 137.28962500742807 L323 143.3940531195579 L324 149.62543600188695 L325 155.96979802419486 L326 162.41291016873748 L327 168.94032194282352 L328 175.53739378811255 L329 182.18932991394541 L330 188.8812114810701 L331 195.5980300613372 L332 202.32472129832652 L333 209.04619869340573 L334 215.7473874414507 L335 222.41325824033947 L336 229.02886099839282 L337 235.57935836416362 L338 242.05005900337287 L339 248.4264505483647 L340 254.6942321461741 L341 260.8393465322148 L342 266.84801155765433 L343 272.70675109976116 L344 278.40242528590306 L345 283.9222599634111 L346 289.2538753492122 L347 294.385313794978 L348 299.30506660551697 L349 304.0020998502632 L350 308.46587910997164 L351 312.68639310311846 L352 316.6541761390188 L353 320.36032934730076 L354 323.7965406361298 L355 326.95510333441257 L356 329.8289334761769 L357 332.4115856883598 L358 334.6972676463704 L359 336.6808530650086 L360 338.35789319560274 L361 339.72462680358075 L362 340.77798860409735 L363 341.51561613679826 L364 341.9358550643026 L365 342.0377628825199 L366 341.82111103448153 L367 341.286385422943 L368 340.434785320611 L369 339.26822068043685 L370 337.7893078520086 L371 336.0013637136516 L372 333.908398233394 L373 331.51510547548594 L374 328.82685307263796 L375 325.84967018759465 L376 322.5902339910391 L377 319.0558546861589 L378 315.25445911345673 L379 311.19457297258066 L380 306.8853017010412 L381 302.33631005270513 L382 297.5578004218646 L383 292.56048996149576 L384 287.3555865470264 L385 281.95476363952037 L386 276.37013410465516 L387 270.6142230462108 L388 264.6999397149989 L389 258.6405485562339 L390 252.44963946028074 L391 246.14109728349968 L392 239.72907070754934 L393 233.22794050698252 L394 226.6522872963129 L395 220.01685882888222 L396 213.336536920872 L397 206.6263040746415 L398 199.90120987624883 L399 193.17633724251763 " stroke = "blue" stroke-width = "4" fill = "none" /></svg>