<svg width="400" height="400" viewbox = "0 0 400 400"  xmlns="http://www.w3.org/2000/svg">

<!--
<topfunctions>










function YofX(){
    X = plotparams.g*(x - plotparams.x0) - funcparams.X0;
    Y = funcparams.a*X*X*X + funcparams.b*X*X + funcparams.c*X + funcparams.d;
    y = plotparams.y0 - plotparams.G*(Y - funcparams.Y0);
}


function YofX2(){
    X = plotparams.g*(x - plotparams.x0) - funcparams.X0;
    Y = funcparams.b*X*X + funcparams.c*X + funcparams.d;
    y = plotparams.y0 - plotparams.G*(Y - funcparams.Y0);
 }

function XYofT(){
    T = plotparams.g*t;
    tau = 0.25*funcparams.T/Math.log(constants.phi);
    X = Math.exp(-T/tau)*Math.cos(2*Math.PI*T/funcparams.T);
    Y = Math.exp(-T/tau)*Math.sin(2*Math.PI*T/funcparams.T);
    y = plotparams.y0 - plotparams.G*(Y - funcparams.Y0);
    x = plotparams.x0 - plotparams.G*(X - funcparams.X0);    
}


function plotfunction(){


    currentStroke = "blue";
    currentLineWidth = 4;
    ctx.strokeStyle = currentStroke;
    ctx.lineWidth = currentLineWidth;
    ctx.beginPath();	
    x = 0;
    y = 0;
    t= 0;
    XYofT();
    currentSVG += "	<path d = \"M";
    currentSVG += Math.round(x).toString() + " ";
    currentSVG += Math.round(y).toString() + " ";
    for(t = 1;t < plotparams.duration;t++){
        ctx.moveTo(x,y);
        XYofT();
        ctx.lineTo(x,y);
        currentSVG += "L" + x + " " + y + " ";
    }
    ctx.stroke();
    currentSVG += "\""+ " stroke = \"" + currentStroke + "\" stroke-width = \"" + currentLineWidth.toString() + "\" fill = \"" + "none" + "\" "+"/>";


    /*plot one function:
    currentStroke = "blue";
    currentLineWidth = 4;
    ctx.strokeStyle = currentStroke;
    ctx.lineWidth = currentLineWidth;
    ctx.beginPath();	
    x = 0;
    YofX();
    currentSVG += "	<path d = \"M";
    currentSVG += Math.round(x).toString() + " ";
    currentSVG += Math.round(y).toString() + " ";
    for(x = 1;x < plotparams.plotwidth;x++){
        ctx.moveTo(x-1,y);
        YofX();
        ctx.lineTo(x,y);
        currentSVG += "L" + x + " " + y + " ";
    }
    ctx.stroke();
    currentSVG += "\""+ " stroke = \"" + currentStroke + "\" stroke-width = \"" + currentLineWidth.toString() + "\" fill = \"" + "none" + "\" "+"/>";
    /*finish plot one function*/
    

}


























</topfunctions>
-->

<!--
<imgurl>
https://i.imgur.com/kGoAPS0.jpg
</imgurl>
-->

<!--
<currentjson>
{
    "constants": {
        "phi": 1.618
    },
    "imgurl": "https://i.imgur.com/kGoAPS0.jpg",
    "plotparams": {
        "G": 304.61276624219545,
        "g": 0.017985878990921366,
        "duration": 545.4545454545454,
        "plotwidth": 400,
        "plotheight": 400,
        "x0": 200,
        "y0": 202
    },
    "funcparams": {
        "tau": 0.9418499929055854,
        "T": 1.4510503978369063,
        "X0": 0,
        "Y0": 0
    }
}
</currentjson>
-->

<!--
<equation>



<h2>Golden Spiral</h2>
<p>
    Radius reduced by $\phi$ on every quarter turn.  One full turn takes T, so a quarter turn is $\frac{T}{4}$.  If we consider a quarter rotation starting at time $t_0$ and going to time $t_0 + \frac{T}{4}$ that should go down by $\phi$.  So  
    $$
    \frac{e^{-t_0/\tau}}{e^{-(t_0 + \frac{T}{4})/\tau}}=\phi
    $$
    $$
    e^{T/4\tau} = \phi
    $$
    $$
    \frac{T}{4\tau} = \ln{\phi}
    $$
    $$
    \tau = \frac{T}{4\ln{\phi}}
    $$
    
</p>
<p class="bigeq">
$$
(X,Y) = (e^{-t/\tau}\cos{\frac{2\pi t}{T}},e^{-t/\tau}\sin{\frac{2\pi t}{T}})
$$
</p>
<p></p>

$$
X = g(x - x_0) - X_0
$$
$$
Y = f(X)
$$
    
$$
y = y_0 - G(Y - Y_0)
$$


<p>
    X and Y, and $X_0$ and $Y_0$ in physical units of the System. x and y and x0 and y0 in pixels.  G is in pixels per Y unit and g is in X units per pixel. 
</p>




</equation>
-->
	<path d = "M-105 202 L-96.52988447049216 178.859283280137 L-86.9035355671461 156.94664166471932 L-75.8679693239527 136.34674182777354 L-63.56030515086269 117.13180517662066 L-50.11951049313933 99.36172008813926 L-35.68541488248184 83.08422877409616 L-20.397764345964163 68.33518408823801 L-4.395320415209312 55.13887135335503 L12.184992508252435 43.50839009484008 L29.20888816361247 33.446090417622656 L46.54546503611175 24.944058654763438 L64.06789625765734 17.98464684724604 L81.65406097762971 12.54104058418406 L99.18711584281563 8.577859739179672 L116.55600567662353 6.05178668016697 L133.65591288383018 4.912216604845838 L150.38864552594134 5.101924759726472 L166.66296441193236 6.5577454357305385 L182.39484992795286 9.211257794999113 L197.50770968606886 12.989473769753886 L211.93252840499608 17.815523482389068 L225.6079617440016 23.60933386407021 L238.4803760938667 30.28829639456879 L250.5038365853713 37.76792014648629 L261.6400458057359 45.96246659002091 L271.8582359165914 54.78556289765913 L281.1350170432747 64.15079077931912 L289.45418495468175 73.97224817527916 L296.806491175831 84.16508143450645 L303.18937877213955 94.64598590765839 L308.60668711577046 105.33367318502737 L313.06832899102017 116.14930350814915 L316.58994341839934 127.01688217784755 L319.192527576818 137.86361906947582 L320.9020511811654 148.62025064643598 L321.74905662974595 159.22132413425624 L321.7682481737429 169.60544377826798 L320.9980732804278 179.71547935701656 L319.4802992645982 189.49873735992787 L317.25958815011023 198.9070954604698 L314.3830725968244 207.89710112430447 L310.89993558927495 216.43003538504544 L306.8609964333817 224.47194299766315 L302.3183054480306 231.99363034091417 L297.3247495708373 238.9706325851002 L291.933670923326 245.3831517698241 L286.19850020154735 251.2159675481417 L280.1724065752111 256.4583224486575 L273.9079655930938 261.1037835858435 L267.45684640610034 265.15008281141985 L260.8695194331658 268.5989373463791 L254.1949854103908 271.4558529645949 L247.48052658152048 273.72991181543955 L240.77148060918728 275.433546975042 L234.11103761221705 276.5823058043824 L227.54006056566857 277.19460416806544 L221.0969291379701 277.2914735310981 L214.8174068842917 276.89630290311237 L208.7345315678261 276.03457754107524 L202.87852824152958 274.73361625347223 L197.2767445926168 273.022309072133 L191.95360793114313 270.93085697319185 L186.9306030926783 268.4905152370617 L182.22627042367304 265.73334193965366 L177.85622292681398 262.6919529643197 L173.83318156259648 259.3992848170323 L170.16702763254557 255.88836641702636 L166.86487110898022 252.19210092239314 L163.93113372584943 248.34305853577126 L161.3676456048226 244.37328112014237 L159.17375416029196 240.31409933959188 L157.34644400597372 236.19596292548638 L155.88046657407537 232.0482845555513 L154.76847815516564 227.8992977224716 L154.00118507255314 223.77592886050533 L153.5674947187129 219.70368389376722 L153.45467120263046 215.7065492688295 L153.648494385374 211.80690743757972 L154.1334211162355 208.0254666642953 L154.89274752287284 204.38120494401446 L155.90877125548138 200.89132773783078 L157.16295263657736 197.5712391549879 L158.63607372390913 194.43452614182664 L160.30839435377263 191.49295517391337 L162.1598042950175 188.7564808901867 L164.16997070974 186.23326605678028 L166.31848018451024 183.92971220334974 L168.58497466543963 181.85050023624476 L170.94928070093152 179.99864030068161 L173.39153146707164 178.3755301380938 L175.89228112181 176.98102116495645 L178.43261110490923 175.81349148543177 L180.99422807063044 174.86992504198554 L183.55955320889402 174.14599610546338 L186.11180277779678 173.63615830874616 L188.63505973552515 173.33373743576925 L191.11433642255616 173.23102719009879 L193.5356283052757 173.31938718411408 L195.88595884950527 173.58934241082937 L198.15341564667125 174.03068348517314 L200.32717796627392 174.63256696979116 L202.39753595573768 175.38361513180683 L204.35590175250724 176.2720145111093 L206.19481281328373 177.2856127172975 L207.90792780148314 178.41201291103772 L209.490015406294 179.63866546594315 L210.9369364950823 180.95295634882152 L212.2456200253424 182.34229179891778 L213.41403316293867 183.79417893028602 L214.44114607008538 185.2963019253344 L215.32689183943057 186.8365935316051 L216.0721220598442 188.40330161767764 L216.67855850516952 189.98505058745206 L217.1487414394122 191.57089749471638 L217.4859750307556 193.15038274158306 L217.6942703625712 194.7135752848769 L217.7782865224051 196.2511123136543 L217.743270239957 197.7542333985501 L217.59499453251593 199.21480914941287 L217.33969680138253 200.62536445154942 L216.98401680569626 201.97909638272708 L216.5349349210107 203.26988694276685 L215.99971106913662 204.49231075500654 L215.38582468341622 205.64163792404946 L214.70091604991833 206.7138322569859 L213.95272934027176 207.7055450756424 L213.1490576261874 208.61410486536099 L212.29769013937508 209.43750302132983 L211.40636201373292 210.1743759665936 L210.48270671957778 210.82398392659368 L209.53421137247864 211.3861866534647 L208.56817507213594 211.86141639940266 L207.5916703998859 212.25064844228527 L206.61150817696563 212.5553694684495 L205.634205559802 212.77754411719775 L204.66595752342542 212.91957998931818 L203.71261175978975 212.98429141776342 L202.77964699442094 212.97486229275654 L201.87215470252082 212.89480822609744 L200.99482418452249 212.74793833045243 L200.1519309412021 212.53831687905296 L199.34732826987926 212.27022509963666 L198.58444198603632 211.94812334376698 L197.8662681589073 211.57661385900138 L197.19537373526353 211.16040437687602 L196.57389991278268 210.7042727144684 L196.00356811304187 210.2130325715227 L195.4856883943296 209.69150068890033 L195.02117013612008 209.14446551758098 L194.61053482017752 208.57665753070384 L194.25393072783953 207.99272129432802 L193.9511493690277 207.39718939581144 L193.70164345591488 206.79445831207232 L193.5045462328942 206.18876628360195 L193.3586919744875 205.58417324404172 L193.2626374640461 204.98454283950576 L193.2146842684651 204.39352655670592 L193.21290162758888 203.81454996439416 L193.25514978145253 203.25080105874156 L193.33910356391084 202.70522069008783 L193.46227609746884 202.18049503606935 L193.6220424311703 201.6790500745124 L193.81566297113764 201.20304799870325 L194.0403065617073 200.7543855077419 L194.29307308398626 200.33469389568035 L194.57101544798584 199.94534085505555 L194.8711608641851 199.5874339032561 L195.1905312903616 199.2618253339213 L195.52616295972064 198.96911859025283 L195.87512490668115 198.70967595271722 L196.2345364170642 198.48362743011597 L196.60158333980812 198.29088074038148 L196.97353320763557 198.131132265696 L197.34774912425996 198.00387886559844 L197.72170238568162 197.9084304316099 L198.09298381283327 197.8439230675329 L198.45931378223793 197.80933278092684 L198.81855095039472 197.80348957328633 L199.16869967626585 197.82509181910862 L199.5079161544643 197.87272082728245 L199.8345132795033 197.94485548201473 L200.14696426873627 198.03988686478718 L200.44390507836664 198.15613276354608 L200.72413565311996 198.29185198043047 L200.9866200558313 198.44525835477987 L201.2304855282994 198.6145344238872 L201.4550205392853 198.79784464991943 L201.65967187948948 198.99334814757376 L201.84404086672313 199.19921085331856 L202.00787872730652 199.4136170834398 L202.15108122198396 199.6347804345312 L202.2736825863551 199.86095398648393 L202.3758488569995 200.0904397744093 L202.45787065513215 200.32159750222576 L202.52015549979376 200.55285247682295 L202.56321972226996 200.78270274774403 L202.58768005267646 201.00972544317443 L202.59424494846292 201.2325822986583 L202.5837057330114 201.4500243803572 L202.55692761055633 201.66089600979814 L202.5148406213692 201.86413790190244 L202.45843059855846 202.05878953263465 L202.38873018496517 202.2439907568346 L202.30680996552204 202.41898270069552 L202.21376976711522 202.58310795690636 L202.1107301744795 202.73581011368665 L201.99882430699654 202.8766326518013 L201.8791898974866 203.0052172461453 L201.75296171021373 203.1213015106406 L201.62126433139352 203.22471622698518 L201.48520536152992 203.31538209924946 L201.34586903493843 203.39330607742662 L201.20431028786638 203.45857729382766 L201.0615492927176 203.51136265667304 L200.91856647205572 203.55190214538598 L200.7762980023162 203.58050385195028 L200.63563181352325 203.5975388122731 L200.49740408780357 203.60343567080506 L200.36239625612785 203.59867522073472 L200.23133248951234 203.58378486090803 L200.1048776778859 203.55933300924562 L199.98363588698749 203.5259235108592 L199.86814928101174 203.48419007732207 L199.758897496278 203.43479079164936 L199.65629744896242 203.37840271150745 L199.56070355791366 203.3157166010206 L199.47240836176832 203.24743181929566 L199.39164350799808 203.1742513914603 L199.31858109015414 203.09687728562653 L199.253335308426 203.01600591676703 L199.1959644276973 202.93232389604455 L199.14647300655847 202.84650404168156 L199.1048143702171 202.7592016650142 L199.07089329992988 202.6710511429565 L199.0445689114525 202.58266278572418 L199.02565769506137 202.49462000634216 L199.01393668993475 202.40747679620225 L199.00914676607778 202.32175550875718 L199.01099598752916 202.2379449513443 L199.01916303128525 202.15649878313755 L199.03330063720693 202.0778342153372 L199.053039065127 202.00233100793145 L199.077989536437 201.9303307557071 L199.10774763859192 201.86213645465537 L199.14189667221558 201.7980123385151 L199.1800109218084 201.7381839739251 L199.22165883243846 201.6828386015197 L199.26640607622704 201.63212570929903 L199.3138184939077 201.58615782373863 L199.3634648982322 201.5450115033705 L199.41491972750867 201.5087285189675 L199.46776553907202 201.47731720399491 L199.5215953339998 201.4507539586507 L199.5760147058836 201.42898489059957 L199.63064380793986 201.41192757540725 L199.6851191341878 201.39947291969858 L199.739095111824 201.39148711018873 L199.7922455032801 201.38781363196583 L199.84426461775269 201.38827533972986 L199.8948683332384 201.39267656610818 L199.94379493128542 201.40080525166874 L199.99080574778276 201.41243508182768 L200.03568564414513 201.42732761649305 L200.078243304211 201.44523439899342 L200.1183113630518 201.4658990316008 L200.155746374691 201.48905920576513 L200.19042862644736 201.5144486760241 L200.2222618082512 201.54179916743175 L200.25117254583273 201.57084220725199 L200.2771098071475 201.60131087258603 L200.30004419178937 201.63294144653378 L200.319967113444 201.66547497642765 L200.33688988566064 201.69865872861175 L200.3508427213666 201.73224753516652 L200.36187365662235 201.76600502889391 L200.37004740911533 201.79970476377218 L200.37544418182569 201.83313121896228 L200.37815842216435 201.86608068528992 L200.37829754669357 201.89836203393983 L200.37598064129077 201.9297973678727 L200.37133714631713 201.9602225572111 L200.3645055360029 201.98948766053456 L200.35563200087057 202.01745723467164 L200.34486914158543 202.04401053617812 L200.33237468215918 202.06904161824428 L200.31831020993656 202.0924593272757 L200.30283994927618 202.11418720384424 L200.28612957529634 202.13416329310738 L200.26834507349972 202.1523398701403 L200.249651650524 202.16868308592532 L200.23021270068884 202.1831725399868 L200.2101888324316 202.19580078585736 L200.18973695814483 202.20657277570717 L200.16900945035528 202.21550525056696 L200.14815336661687 202.22262608262824 L200.12730974493508 202.22797357611282 L200.1066129709984 202.23159573316826 L200.08619021796864 202.2335494911734 L200.06616095907611 202.23389993772346 L200.04663655278435 202.23271950941916 L200.0277198998281 202.23008718040114 L200.00950517099707 202.2260876463633 L199.99207760413168 202.22081050953807 L199.97551336841994 202.21434946988646 L199.959879493739 202.20680152744103 L199.94523386246735 202.1982662004466 L199.9316252609106 202.1888447636256 L199.9190934872297 202.17863951056282 L199.90766951254028 202.16775304386167 L199.89737569166232 202.15628759637445 L199.88822601984222 202.14434438645395 L199.88022643164265 202.132023009816 L199.87337513810039 202.11942087024474 L199.86766299818535 202.10663265101732 L199.86307392055792 202.09374982857315 L199.85958529161087 202.08086022960842 L199.85716842579978 202.0680476324404 L199.85578903430738 202.0553914131603 L199.85540770815282 202.04296623677843 L199.85598041194473 202.03084179326567 L199.85745898458475 202.0190825781084 L199.85979164335575 202.00774771672346 L199.86292348797278 201.99689083182682 L199.86679700133493 201.98655995261308 L199.871352543889 201.9767974643858 L199.87652883870177 201.96764009708033 L199.88226344453292 201.95911895094042 L199.8884932144042 201.95125955745235 L199.89515473737168 201.94408197349824 L199.9021847614228 201.93760090657142 L199.9095205956397 201.9318258687959 L199.91710048999053 201.92676135741016 L199.92486399133236 201.9224070593138 L199.93275227442825 201.9187580772312 L199.940708447 201.91580517502044 L199.9486778280507 201.9135350396473 L199.95660819890037 201.91193055735118 L199.96445002658092 201.91097110155363 L199.97215665943128 201.91063283009788 L199.9796844949222 201.91088898946018 L199.98699311991734 201.9117102236383 L199.99404542374714 201.91306488549856 L200.00080768462988 201.91491934845178 L200.00724963012235 201.91723831642366 L200.0133444724188 201.91998513019277 L200.01906891944125 201.9231220682812 L200.02440316277782 201.92661064070379 L200.0293308436254 201.93041187400627 L200.0338389979826 201.93448658615284 L200.03791798241437 201.93879564995598 L200.0415613817742 201.94330024387662 L200.0447659003222 201.9479620891593 L200.0475312377181 201.95274367240353 L200.04985995139592 201.95760845280844 L200.05175730684732 201.96252105346352 L200.05323111734526 201.96744743618947 L200.05429157463848 201.97235505956408 L200.05495107213375 201.9772130198931 L200.0552240220606 201.98199217500795 L200.05512666808312 201.98666525088908 L200.05467689478382 201.99120693122444 L200.0538940353998 201.99559393011856 L200.05279867913657 201.99980504826647 L200.05141247932775 202.0038212129991 L200.04975796364297 202.00762550269252 L200.04785834747744 202.01120315611115 L200.04573735158368 202.0145415673271 L200.0434190249282 202.0176302669198 L200.04092757367687 202.02046089021783 L200.03828719713087 202.02302713339128 L200.03552193135147 202.02532469824615 L200.0326555011282 202.02735122660388 L200.02971118086003 202.02910622517666 L200.02671166483495 202.03059098186742 L200.02367894731046 202.0318084744365 L200.0206342127143 202.03276327248162 L200.01759773620498 202.03346143367776 L200.01458879475356 202.033910395216 L200.01162558883192 202.03411886136828 L200.00872517472033 202.0340966880863 L200.00590340737816 202.0338547655202 L200.00317489375522 202.03340489931472 L200.0005529563597 202.03275969150818 L199.99804960684057 202.03193242182422 L199.99567552928886 202.03093693010658 L199.99344007291356 202.02978750060484 L199.991351253702 202.02849874877438 L199.98941576463588 202.02708551120605 L199.98763899399813 202.0255627392527 L199.9860250512747 202.0239453968692 L199.98457680013007 202.02224836313067 L199.9832958979131 202.02048633984282 L199.98218284113338 202.01867376460459 L199.9812370163351 202.01682472963284 L199.98045675578788 202.01495290660552 L199.9798393974092 202.01307147772977 L199.97938134833336 202.01119307319146 L199.9790781515456 202.0093297150938 L199.97892455500684 202.0074927679451 L199.97891458270547 202.00569289571212 L199.9790416070866 202.00394002541026 L199.97929842232492 202.00224331716242 L199.9796773179283 202.0006111406185 L199.98017015217945 201.9990510575923 L199.98076842494777 201.99756981073818 L199.9814633494295 201.99617331805956 L199.98224592240143 201.99486667301315 L199.98310699260236 201.99365414994736 L199.984037326887 201.9925392145912 L199.98502767382783 201.9915245392904 L199.98606882447152 201.9906120226709 L199.98715166998963 201.98980281339612 L199.98826725599466 201.98909733767357 L199.98940683332532 201.9884953301574 L199.99056190513647 201.98799586788962 L199.9917242701612 201.9875974069174 L199.99288606204323 201.9872978212256 L199.9940397846679 201.98709444362424 L199.99517834344974 201.98698410823474 L199.99629507256202 201.986963194226 L199.99738375812137 201.9870276704582 L199.99843865736568 201.98717314070342 L199.9994545138878 201.98739488912332 L200.0004265690102 201.98768792569706 L200.00135056940675 201.98804703130818 L200.00222277109708 201.98846680221402 L200.00303993995684 201.9889416936384 L200.00379934890253 201.9894660622467 L200.00449877192452 201.99003420727965 L200.0051364751536 201.9906404101427 L200.00571120515679 201.99127897226575 L200.0062221746679 201.99194425106958 L200.00666904596434 201.99263069389383 L200.00705191210747 201.99333286976153 L200.00737127626792 201.99404549887606 L200.00762802935841 201.99476347976463 L200.00782342619829 201.99548191400223 L200.00795906043217 201.9961961284689 L200.00803683842338 201.9969016951112 L200.0080589523388 201.99759444819568 L200.00802785263733 201.9982704990602 L200.00794622016755 201.9989262483836 L200.00781693807392 201.99955839601037 L200.0076430637019 202.00016394838002 L200.00742780068418 202.00074022362546 L200.00717447138044 202.00128485441516 L200.00688648983237 202.00179578862654 L200.0065673353851 202.00227128794668 L200.00622052711526 202.00270992450632 L200.00584959919271 202.00311057566068 L200.0054580772931 202.00347241703685 L200.00504945616413 202.0037949139739 L200.0046271784375 202.00407781148593 L200.00419461476557 202.00432112288163 L200.00375504534964 202.0045251171772 L200.00331164291447 202.0046903054396 L200.00286745717227 202.00481742619917 L200.00242540080689 202.00490743006884 L200.00198823699836 202.0049614637069 L200.00155856849705 202.00498085325734 L200.00113882824544 202.00496708739985 L200.0007312715365 202.0049218001371 L200.00033796968782 202.00484675344282 L199.99996080520165 202.00474381989005 L199.99960146837319 202.00461496537247 L199.99926145530148 202.00446223202667 L199.99894206725025 202.00428772145634 L199.99864441130046 202.0040935783533 L199.99836940222949 202.00388197460228 L199.99811776554816 202.00365509395084 L199.99789004162176 202.00341511731617 L199.99768659079785 202.00316420879528 L199.99750759946082 202.0029045024357 L199.9973530869308 202.0026380898174 L199.99722291312278 202.00236700848805 L199.9971167868813 202.00209323128718 L199.99703427490454 202.00181865658675 L199.9969748111736 202.00154509946861 L199.9969377068013 202.00127428385244 L199.9969221602179 202.0010078355806 L199.99692726761185 202.00074727646046 L199.99695203354605 202.00049401925796 L199.99699538167278 202.00024936363022 L199.99705616547317 202.00001449298057 L199.99713317895086 201.99979047221234 L199.9972251672123 201.99957824635507 L199.9973308368708 201.99937864003067 L199.997448866215 201.99919235772418 L199.99757791508702 201.99901998481988 L199.99771663441967 201.99886198936025 L199.9978636753872 201.99871872448287 L199.9980176981277 201.99859043148766 L199.99817738000155 201.9984772434855 L199.9983414233531 201.99837918957735 L199.9985085627492 201.99829619951217 L199.99867757167172 201.998228108771 L199.9988472686462 201.99817466402473 L199.99901652279337 201.99813552891237 L199.99918425879434 201.9981102900881 L199.99934946126467 201.99809846348478 L199.9995111785365 201.9980995007435 L199.99966852585192 201.9981127957601 L199.99982068797445 201.99813769130037 L199.99996692122826 201.99817348563818 L200.00010655497954 201.99821943917232 L200.00023899257533 201.9982747809804 L200.00036371176014 201.99833871527014 L200.0004802645908 201.99841042769094 L200.00058827687477 201.99848909147178 L200.0006874471564 201.99857387335348 L200.00077754527993 201.99866393928644 L200.00085841055758 201.9987584598681 L200.00092994957322 201.998856615497 L200.00099213365257 201.99895760122317 L200.00104499603253 201.99906063127756 L200.001088628761 201.99916494326644 L200.0011231793607 201.9992698020188 L200.00114884728902 201.99937450307831 L200.0011658802267 201.99947837583363 L200.00117457022702 201.99958078628381 L200.0011752497572 201.99968113943766 L200.00116828766264 201.99977888134882 L200.00115408508327 201.99987350079013 L200.00113307135172 201.99996453057358 L200.0011056998993 202.0000515485232 L200.00107244419746 202.00013417811172 L200.00103379375787 202.00021208877138 L200.00099025021547 202.0002849958931 L200.00094232351555 202.000352660528 L200.0008905282243 202.00041488880692 L200.0008353799818 202.00047153109543 L200.00077739211295 202.00052248090168 L200.00071707241165 202.00056767355554 L200.00065492011024 202.00060708467893 L200.00059142304593 202.00064072846604 L200.000527055033 202.00066865579433 L200.00046227344788 202.0006909521858 L200.0003975170338 202.0007077356389 L200.00033320392782 202.00071915435132 L200.00026972991353 202.00072538435322 L200.00020746689987 202.0007266270705 L200.00014676162525 202.0007231068374 L200.00008793458537 202.00071506837628 L200.00003127918055 202.00070277426312 L199.99997706107845 202.00068650239544 " stroke = "blue" stroke-width = "4" fill = "none" /></svg>