<svg width="400" height="400" viewbox = "0 0 400 400"  xmlns="http://www.w3.org/2000/svg">

<!--
<json>
{
    "imgurl": "",
    "imgw": 2.983971328437751,
    "imgleft": -1.4873205904167783,
    "imgtop": -1.0519856642188752,
    "imgangle": 0,
    "svgwidth": 400,
    "svgheight": 400,
    "unit": 100,
    "x0": 684,
    "y0": 399,
    "x0rel": 0,
    "y0rel": 0,
    "glyph": "0332,0336,0332,0337,01101,01102,01103,01104,",
    "table": []
}
</json>
-->
    <circle cx="50" cy = "200" r = "3.125" stroke = "black" stroke-width = "6" fill = "black" />
    <circle cx="50" cy = "188" r = "3.125" stroke = "black" stroke-width = "6" fill = "black" />
    <circle cx="50" cy = "175" r = "3.125" stroke = "black" stroke-width = "6" fill = "black" />
    <circle cx="50" cy = "163" r = "3.125" stroke = "black" stroke-width = "6" fill = "black" />
    <circle cx="50" cy = "150" r = "3.125" stroke = "black" stroke-width = "6" fill = "black" />
    <circle cx="50" cy = "138" r = "3.125" stroke = "black" stroke-width = "6" fill = "black" />
    <circle cx="63" cy = "125" r = "3.125" stroke = "black" stroke-width = "6" fill = "black" />
    <circle cx="75" cy = "125" r = "3.125" stroke = "black" stroke-width = "6" fill = "black" />
    <circle cx="88" cy = "125" r = "3.125" stroke = "black" stroke-width = "6" fill = "black" />
    <circle cx="100" cy = "138" r = "3.125" stroke = "black" stroke-width = "6" fill = "black" />
    <circle cx="100" cy = "150" r = "3.125" stroke = "black" stroke-width = "6" fill = "black" />
    <circle cx="100" cy = "163" r = "3.125" stroke = "black" stroke-width = "6" fill = "black" />
    <circle cx="100" cy = "175" r = "3.125" stroke = "black" stroke-width = "6" fill = "black" />
    <circle cx="100" cy = "188" r = "3.125" stroke = "black" stroke-width = "6" fill = "black" />
    <circle cx="100" cy = "200" r = "3.125" stroke = "black" stroke-width = "6" fill = "black" />
    <circle cx="88" cy = "163" r = "3.125" stroke = "black" stroke-width = "6" fill = "black" />
    <circle cx="75" cy = "163" r = "3.125" stroke = "black" stroke-width = "6" fill = "black" />
    <circle cx="63" cy = "163" r = "3.125" stroke = "black" stroke-width = "6" fill = "black" />
    <circle cx="125" cy = "200" r = "3.125" stroke = "black" stroke-width = "6" fill = "black" />
    <circle cx="125" cy = "188" r = "3.125" stroke = "black" stroke-width = "6" fill = "black" />
    <circle cx="125" cy = "175" r = "3.125" stroke = "black" stroke-width = "6" fill = "black" />
    <circle cx="125" cy = "163" r = "3.125" stroke = "black" stroke-width = "6" fill = "black" />
    <circle cx="125" cy = "150" r = "3.125" stroke = "black" stroke-width = "6" fill = "black" />
    <circle cx="125" cy = "138" r = "3.125" stroke = "black" stroke-width = "6" fill = "black" />
    <circle cx="125" cy = "125" r = "3.125" stroke = "black" stroke-width = "6" fill = "black" />
    <circle cx="138" cy = "125" r = "3.125" stroke = "black" stroke-width = "6" fill = "black" />
    <circle cx="150" cy = "125" r = "3.125" stroke = "black" stroke-width = "6" fill = "black" />
    <circle cx="163" cy = "125" r = "3.125" stroke = "black" stroke-width = "6" fill = "black" />
    <circle cx="175" cy = "138" r = "3.125" stroke = "black" stroke-width = "6" fill = "black" />
    <circle cx="175" cy = "150" r = "3.125" stroke = "black" stroke-width = "6" fill = "black" />
    <circle cx="163" cy = "163" r = "3.125" stroke = "black" stroke-width = "6" fill = "black" />
    <circle cx="150" cy = "163" r = "3.125" stroke = "black" stroke-width = "6" fill = "black" />
    <circle cx="138" cy = "163" r = "3.125" stroke = "black" stroke-width = "6" fill = "black" />
    <circle cx="175" cy = "175" r = "3.125" stroke = "black" stroke-width = "6" fill = "black" />
    <circle cx="175" cy = "188" r = "3.125" stroke = "black" stroke-width = "6" fill = "black" />
    <circle cx="163" cy = "200" r = "3.125" stroke = "black" stroke-width = "6" fill = "black" />
    <circle cx="150" cy = "200" r = "3.125" stroke = "black" stroke-width = "6" fill = "black" />
    <circle cx="138" cy = "200" r = "3.125" stroke = "black" stroke-width = "6" fill = "black" />
    <circle cx="200" cy = "188" r = "3.125" stroke = "black" stroke-width = "6" fill = "black" />
    <circle cx="200" cy = "175" r = "3.125" stroke = "black" stroke-width = "6" fill = "black" />
    <circle cx="200" cy = "163" r = "3.125" stroke = "black" stroke-width = "6" fill = "black" />
    <circle cx="200" cy = "150" r = "3.125" stroke = "black" stroke-width = "6" fill = "black" />
    <circle cx="200" cy = "138" r = "3.125" stroke = "black" stroke-width = "6" fill = "black" />
    <circle cx="212" cy = "125" r = "3.125" stroke = "black" stroke-width = "6" fill = "black" />
    <circle cx="225" cy = "125" r = "3.125" stroke = "black" stroke-width = "6" fill = "black" />
    <circle cx="237" cy = "125" r = "3.125" stroke = "black" stroke-width = "6" fill = "black" />
    <circle cx="250" cy = "137" r = "3.125" stroke = "black" stroke-width = "6" fill = "black" />
    <circle cx="250" cy = "187" r = "3.125" stroke = "black" stroke-width = "6" fill = "black" />
    <circle cx="237" cy = "200" r = "3.125" stroke = "black" stroke-width = "6" fill = "black" />
    <circle cx="225" cy = "200" r = "3.125" stroke = "black" stroke-width = "6" fill = "black" />
    <circle cx="212" cy = "200" r = "3.125" stroke = "black" stroke-width = "6" fill = "black" />
    <circle cx="275" cy = "200" r = "3.125" stroke = "black" stroke-width = "6" fill = "black" />
    <circle cx="275" cy = "188" r = "3.125" stroke = "black" stroke-width = "6" fill = "black" />
    <circle cx="275" cy = "175" r = "3.125" stroke = "black" stroke-width = "6" fill = "black" />
    <circle cx="275" cy = "163" r = "3.125" stroke = "black" stroke-width = "6" fill = "black" />
    <circle cx="275" cy = "150" r = "3.125" stroke = "black" stroke-width = "6" fill = "black" />
    <circle cx="275" cy = "138" r = "3.125" stroke = "black" stroke-width = "6" fill = "black" />
    <circle cx="275" cy = "125" r = "3.125" stroke = "black" stroke-width = "6" fill = "black" />
    <circle cx="288" cy = "125" r = "3.125" stroke = "black" stroke-width = "6" fill = "black" />
    <circle cx="300" cy = "125" r = "3.125" stroke = "black" stroke-width = "6" fill = "black" />
    <circle cx="313" cy = "138" r = "3.125" stroke = "black" stroke-width = "6" fill = "black" />
    <circle cx="325" cy = "150" r = "3.125" stroke = "black" stroke-width = "6" fill = "black" />
    <circle cx="325" cy = "163" r = "3.125" stroke = "black" stroke-width = "6" fill = "black" />
    <circle cx="325" cy = "175" r = "3.125" stroke = "black" stroke-width = "6" fill = "black" />
    <circle cx="312" cy = "188" r = "3.125" stroke = "black" stroke-width = "6" fill = "black" />
    <circle cx="300" cy = "200" r = "3.125" stroke = "black" stroke-width = "6" fill = "black" />
    <circle cx="287" cy = "200" r = "3.125" stroke = "black" stroke-width = "6" fill = "black" />
</svg>