<svg width="400" height="400" viewbox = "0 0 400 400"  xmlns="http://www.w3.org/2000/svg">

<!--
<topfunctions>









function YofX(){
    X = plotparams.g*(x - plotparams.x0) - funcparams.X0;
    Y =  (1/Math.PI)*0.5/(X*X + 0.25);
    y = plotparams.y0 - plotparams.G*(Y - funcparams.Y0);
}





function plotfunction(){
/*

    currentStroke = "blue";
    currentLineWidth = 4;
    ctx.strokeStyle = currentStroke;
    ctx.lineWidth = currentLineWidth;
    ctx.beginPath();	
    x = 0;
    y = 0;
    t= 0;
    XYofT();
    currentSVG += "	<path d = \"M";
    currentSVG += Math.round(x).toString() + " ";
    currentSVG += Math.round(y).toString() + " ";
    for(t = 1;t < plotparams.duration;t++){
        ctx.moveTo(x,y);
        XYofT();
        ctx.lineTo(x,y);
        currentSVG += "L" + x + " " + y + " ";
    }
    ctx.stroke();
    currentSVG += "\""+ " stroke = \"" + currentStroke + "\" stroke-width = \"" + currentLineWidth.toString() + "\" fill = \"" + "none" + "\" "+"/>";


    /*plot one function:*/
    currentStroke = "blue";
    currentLineWidth = 4;
    ctx.strokeStyle = currentStroke;
    ctx.lineWidth = currentLineWidth;
    ctx.beginPath();	
    x = 0;
    YofX();
    currentSVG += "	<path d = \"M";
    currentSVG += Math.round(x).toString() + " ";
    currentSVG += Math.round(y).toString() + " ";
    for(x = 1;x < plotparams.plotwidth;x++){
        ctx.moveTo(x-1,y);
        YofX();
        ctx.lineTo(x,y);
        currentSVG += "L" + x + " " + y + " ";
    }
    ctx.stroke();
    currentSVG += "\""+ " stroke = \"" + currentStroke + "\" stroke-width = \"" + currentLineWidth.toString() + "\" fill = \"" + "none" + "\" "+"/>";
    /*finish plot one function*/
    

}






























</topfunctions>
-->

<!--
<imgurl>

</imgurl>
-->

<!--
<currentjson>
{
    "constants": {},
    "imgurl": "",
    "plotparams": {
        "G": 237.6687930642238,
        "g": 0.009229599817706394,
        "duration": 545.4545454545454,
        "plotwidth": 400,
        "plotheight": 400,
        "x0": 200,
        "y0": 272.7272727272727
    },
    "funcparams": {
        "mu": 0,
        "sigma": 1,
        "X0": 0,
        "Y0": 0
    }
}
</currentjson>
-->

<!--
<equation>





<h2>Gaussian</h2>
<p style="color:blue">
</p><p class="bigeq">
$$
Y = \frac{1}{\pi}\frac{0.5}{0.25 + X^2}
$$
</p>
<p></p>

$$
X = g(x - x_0) - X_0
$$
$$
Y = f(X)
$$
    
$$
y = y_0 - G(Y - Y_0)
$$


<p>
    X and Y, and $X_0$ and $Y_0$ in physical units of the System. x and y and x0 and y0 in pixels.  G is in pixels per Y unit and g is in X units per pixel. 
</p>






</equation>
-->
	<path d = "M0 262 L1 262.2879520677447 L2 262.1896005930383 L3 262.0898879805645 L4 261.9887896921456 L5 261.8862806514157 L6 261.78233523011625 L7 261.6769272340011 L8 261.5700298883396 L9 261.46161582300516 L10 261.3516570571366 L11 261.24012498335986 L12 261.12699035155504 L13 261.0122232521564 L14 260.89579309897016 L15 260.7776686114951 L16 260.6578177967315 L17 260.5362079304617 L18 260.4128055379869 L19 260.28757637430283 L20 260.1604854036977 L21 260.03149677875416 L22 259.90057381873737 L23 259.76767898735 L24 259.6327738698358 L25 259.49581914940984 L26 259.3567745829979 L27 259.2155989762604 L28 259.0722501578828 L29 258.92668495310716 L30 258.778859156484 L31 258.62872750381996 L32 258.47624364329783 L33 258.321360105743 L34 258.16402827401237 L35 258.00419835147864 L36 257.8418193295837 L37 257.67683895443366 L38 257.5092036924072 L39 257.33885869474926 L40 257.16574776112026 L41 256.9898133020707 L42 256.8109963004109 L43 256.6292362714455 L44 256.44447122203854 L45 256.25663760847976 L46 256.065670293117 L47 255.87150249972234 L48 255.67406576755744 L49 255.47328990410477 L50 255.26910293642862 L51 255.0614310611321 L52 254.850198592874 L53 254.6353279114102 L54 254.41673940712457 L55 254.19435142501254 L56 253.96808020708323 L57 253.73783983314362 L58 253.50354215993042 L59 253.2650967585552 L60 253.0224108502286 L61 252.77538924023108 L62 252.5239342500979 L63 252.2679456479883 L64 252.00732057720924 L65 251.74195348286682 L66 251.47173603662048 L67 251.1965570595169 L68 250.9163024428843 L69 250.6308550672707 L70 250.340094719413 L71 250.04389800722922 L72 249.7421382728296 L73 249.43468550354876 L74 249.12140624100667 L75 248.80216348821304 L76 248.47681661473806 L77 248.14522125997934 L78 247.8072292345666 L79 247.4626884199538 L80 247.11144266626226 L81 246.75333168844952 L82 246.3881909608942 L83 246.015851610502 L84 245.63614030845628 L85 245.2488791607549 L86 244.85388559769711 L87 244.45097226250658 L88 244.03994689930266 L89 243.62061224066005 L90 243.1927658950271 L91 242.75620023430713 L92 242.3107022819434 L93 241.8560536018892 L94 241.39203018888685 L95 240.91840236052957 L96 240.43493465162973 L97 239.94138571147568 L98 239.43750820462037 L99 238.9230487159123 L100 238.39774766055228 L101 237.86133920003914 L102 237.31355116495328 L103 236.75410498562 L104 236.1827156317958 L105 235.59909156262978 L106 235.00293468827044 L107 234.39394034461486 L108 233.77179728283508 L109 233.1361876754643 L110 232.48678714098332 L111 231.82326478901987 L112 231.14528328845523 L113 230.4524989609293 L114 229.74456190244382 L115 229.02111613598885 L116 228.28179979835357 L117 227.5262453645372 L118 226.75407991344412 L119 225.9649254388309 L120 225.15839920977356 L121 224.33411418523787 L122 223.49167948766745 L123 222.63070094084915 L124 221.75078167767538 L125 220.85152282379545 L126 219.93252426353175 L127 218.99338549482988 L128 218.03370658041106 L129 217.05308920269925 L130 216.05113783049654 L131 215.02746100577866 L132 213.98167275936814 L133 212.91339416460957 L134 211.82225503851498 L135 210.7078958001522 L136 209.5699694963094 L137 208.4081440046711 L138 207.2221044248668 L139 206.01155566779443 L140 204.7762252535489 L141 203.51586632809045 L142 202.23026090843808 L143 200.91922336564716 L144 199.58260415410345 L145 198.2202937947007 L146 196.83222711823987 L147 195.41838777385772 L148 193.9788130054239 L149 192.51359869660178 L150 191.02290468261194 L151 189.50696032362447 L152 187.9660703311054 L153 186.40062083431152 L154 184.81108566943726 L155 183.19803286863814 L156 181.5621313202651 L157 179.9041575651345 L158 178.2250026865276 L159 176.52567924387574 L160 174.8073281917809 L161 173.07122571719412 L162 171.31878991831243 L163 169.55158723916287 L164 167.77133856406192 L165 165.97992486634485 L166 164.1793922961652 L167 162.37195658302358 L168 160.5600066202846 L169 158.74610709162175 L170 156.9329999934488 L171 155.12360490336408 L172 153.32101784286922 L173 151.52850858356567 L174 149.7495162501293 L175 147.9876430810337 L176 146.2466462196383 L177 144.53042742421292 L178 142.8430206060009 L179 141.18857712968202 L180 139.5713488406133 L181 137.99566881787425 L182 136.4659298911183 L183 134.9865610020378 L184 133.56200153718262 L185 132.19667380701875 L186 130.8949538953601 L187 129.6611411523506 L188 128.49942665156127 L189 127.41386097592732 L190 126.4083217365573 L191 125.48648126126992 L192 124.65177491451888 L193 123.90737052574414 L194 123.25613940798772 L195 122.70062944196596 L196 122.24304068220533 L197 121.88520391124226 L198 121.62856252562779 L199 121.47415808437952 L200 121.42261978784873 L201 121.47415808437952 L202 121.62856252562779 L203 121.88520391124226 L204 122.24304068220533 L205 122.70062944196596 L206 123.25613940798772 L207 123.90737052574414 L208 124.65177491451888 L209 125.48648126126992 L210 126.4083217365573 L211 127.41386097592732 L212 128.49942665156127 L213 129.6611411523506 L214 130.8949538953601 L215 132.19667380701875 L216 133.56200153718262 L217 134.9865610020378 L218 136.4659298911183 L219 137.99566881787425 L220 139.5713488406133 L221 141.18857712968202 L222 142.8430206060009 L223 144.53042742421292 L224 146.2466462196383 L225 147.9876430810337 L226 149.7495162501293 L227 151.52850858356567 L228 153.32101784286922 L229 155.12360490336408 L230 156.9329999934488 L231 158.74610709162175 L232 160.5600066202846 L233 162.37195658302358 L234 164.1793922961652 L235 165.97992486634485 L236 167.77133856406192 L237 169.55158723916287 L238 171.31878991831243 L239 173.07122571719412 L240 174.8073281917809 L241 176.52567924387574 L242 178.2250026865276 L243 179.9041575651345 L244 181.5621313202651 L245 183.19803286863814 L246 184.81108566943726 L247 186.40062083431152 L248 187.9660703311054 L249 189.50696032362447 L250 191.02290468261194 L251 192.51359869660178 L252 193.9788130054239 L253 195.41838777385772 L254 196.83222711823987 L255 198.2202937947007 L256 199.58260415410345 L257 200.91922336564716 L258 202.23026090843808 L259 203.51586632809045 L260 204.7762252535489 L261 206.01155566779443 L262 207.2221044248668 L263 208.4081440046711 L264 209.5699694963094 L265 210.7078958001522 L266 211.82225503851498 L267 212.91339416460957 L268 213.98167275936814 L269 215.02746100577866 L270 216.05113783049654 L271 217.05308920269925 L272 218.03370658041106 L273 218.99338549482988 L274 219.93252426353175 L275 220.85152282379545 L276 221.75078167767538 L277 222.63070094084915 L278 223.49167948766745 L279 224.33411418523787 L280 225.15839920977356 L281 225.9649254388309 L282 226.75407991344412 L283 227.5262453645372 L284 228.28179979835357 L285 229.02111613598885 L286 229.74456190244382 L287 230.4524989609293 L288 231.14528328845523 L289 231.82326478901987 L290 232.48678714098332 L291 233.1361876754643 L292 233.77179728283508 L293 234.39394034461486 L294 235.00293468827044 L295 235.59909156262978 L296 236.1827156317958 L297 236.75410498562 L298 237.31355116495328 L299 237.86133920003914 L300 238.39774766055228 L301 238.9230487159123 L302 239.43750820462037 L303 239.94138571147568 L304 240.43493465162973 L305 240.91840236052957 L306 241.39203018888685 L307 241.8560536018892 L308 242.3107022819434 L309 242.75620023430713 L310 243.1927658950271 L311 243.62061224066005 L312 244.03994689930266 L313 244.45097226250658 L314 244.85388559769711 L315 245.2488791607549 L316 245.63614030845628 L317 246.015851610502 L318 246.3881909608942 L319 246.75333168844952 L320 247.11144266626226 L321 247.4626884199538 L322 247.8072292345666 L323 248.14522125997934 L324 248.47681661473806 L325 248.80216348821304 L326 249.12140624100667 L327 249.43468550354876 L328 249.7421382728296 L329 250.04389800722922 L330 250.340094719413 L331 250.6308550672707 L332 250.9163024428843 L333 251.1965570595169 L334 251.47173603662048 L335 251.74195348286682 L336 252.00732057720924 L337 252.2679456479883 L338 252.5239342500979 L339 252.77538924023108 L340 253.0224108502286 L341 253.2650967585552 L342 253.50354215993042 L343 253.73783983314362 L344 253.96808020708323 L345 254.19435142501254 L346 254.41673940712457 L347 254.6353279114102 L348 254.850198592874 L349 255.0614310611321 L350 255.26910293642862 L351 255.47328990410477 L352 255.67406576755744 L353 255.87150249972234 L354 256.065670293117 L355 256.25663760847976 L356 256.44447122203854 L357 256.6292362714455 L358 256.8109963004109 L359 256.9898133020707 L360 257.16574776112026 L361 257.33885869474926 L362 257.5092036924072 L363 257.67683895443366 L364 257.8418193295837 L365 258.00419835147864 L366 258.16402827401237 L367 258.321360105743 L368 258.47624364329783 L369 258.62872750381996 L370 258.778859156484 L371 258.92668495310716 L372 259.0722501578828 L373 259.2155989762604 L374 259.3567745829979 L375 259.49581914940984 L376 259.6327738698358 L377 259.76767898735 L378 259.90057381873737 L379 260.03149677875416 L380 260.1604854036977 L381 260.28757637430283 L382 260.4128055379869 L383 260.5362079304617 L384 260.6578177967315 L385 260.7776686114951 L386 260.89579309897016 L387 261.0122232521564 L388 261.12699035155504 L389 261.24012498335986 L390 261.3516570571366 L391 261.46161582300516 L392 261.5700298883396 L393 261.6769272340011 L394 261.78233523011625 L395 261.8862806514157 L396 261.9887896921456 L397 262.0898879805645 L398 262.1896005930383 L399 262.2879520677447 " stroke = "blue" stroke-width = "4" fill = "none" /></svg>