<svg width="500" height="500" viewbox = "0 0 500 500"  xmlns="http://www.w3.org/2000/svg">

<!--
<json>
{
    "imgurl": "",
    "imgw": 4.743971328437736,
    "imgleft": -2.2873205904167726,
    "imgtop": -3.171985664218851,
    "imgangle": 0,
    "svgwidth": 500,
    "svgheight": 500,
    "unit": 100,
    "x0": 684,
    "y0": 399,
    "x0rel": 0,
    "y0rel": 0,
    "glyph": "0230,",
    "table": []
}
</json>
-->
	<path d = "M250 250 L250 150 L293 175 L250 250 Z" stroke = "blue" stroke-width = "1" fill = "blue" />	<path d = "M250 250 L293 250 L293 175 L250 250 Z" stroke = "red" stroke-width = "1" fill = "red" />	<path d = "M293 250 L293 175 L326 194 L293 250 Z" stroke = "blue" stroke-width = "1" fill = "blue" />	<path d = "M293 250 L326 250 L326 194 L293 250 Z" stroke = "red" stroke-width = "1" fill = "red" />	<path d = "M326 250 L326 194 L350 208 L326 250 Z" stroke = "blue" stroke-width = "1" fill = "blue" />	<path d = "M326 250 L350 250 L350 208 L326 250 Z" stroke = "red" stroke-width = "1" fill = "red" />	<path d = "M350 250 L350 208 L368 218 L350 250 Z" stroke = "blue" stroke-width = "1" fill = "blue" />	<path d = "M350 250 L368 250 L368 218 L350 250 Z" stroke = "red" stroke-width = "1" fill = "red" />	<path d = "M368 250 L368 218 L382 226 L368 250 Z" stroke = "blue" stroke-width = "1" fill = "blue" />	<path d = "M368 250 L382 250 L382 226 L368 250 Z" stroke = "red" stroke-width = "1" fill = "red" />	<path d = "M382 250 L382 226 L392 232 L382 250 Z" stroke = "blue" stroke-width = "1" fill = "blue" />	<path d = "M382 250 L392 250 L392 232 L382 250 Z" stroke = "red" stroke-width = "1" fill = "red" />	<path d = "M392 250 L392 232 L400 237 L392 250 Z" stroke = "blue" stroke-width = "1" fill = "blue" />	<path d = "M392 250 L400 250 L400 237 L392 250 Z" stroke = "red" stroke-width = "1" fill = "red" />	<path d = "M400 250 L400 237 L406 240 L400 250 Z" stroke = "blue" stroke-width = "1" fill = "blue" />	<path d = "M400 250 L406 250 L406 240 L400 250 Z" stroke = "red" stroke-width = "1" fill = "red" />	<path d = "M406 250 L406 240 L410 242 L406 250 Z" stroke = "blue" stroke-width = "1" fill = "blue" />	<path d = "M406 250 L410 250 L410 242 L406 250 Z" stroke = "red" stroke-width = "1" fill = "red" />	<path d = "M410 250 L410 242 L423 250 L410 250 Z" stroke = "blue" stroke-width = "1" fill = "blue" />	<path d = "M250 250 L250 150 L423 250 L250 250 Z" stroke = "black" stroke-width = "6" fill = "none" /></svg>