<svg width="500" height="500" viewbox = "0 0 500 500"  xmlns="http://www.w3.org/2000/svg">

<!--
<json>
{
    "imgurl": "",
    "imgw": 4.743971328437736,
    "imgleft": -2.2873205904167726,
    "imgtop": -3.171985664218851,
    "imgangle": 0,
    "svgwidth": 500,
    "svgheight": 500,
    "unit": 100,
    "x0": 684,
    "y0": 399,
    "x0rel": 0,
    "y0rel": 0,
    "glyph": "0332,0330,0332,0220,0333,0333,0221,0333,0331,0331,0332,0332,0332,0224,0333,0330,0333,0336,0331,0337,0333,0333,0225,0331,0332,0336,0330,0337,0331,0332,0230,",
    "table": []
}
</json>
-->
	<path d = "M100 150 L100 100 L50 100 L50 150 L100 150 Z" stroke = "purple" stroke-width = "1" fill = "purple" />	<path d = "M150 100 L150 50 L100 50 L100 100 L150 100 Z" stroke = "purple" stroke-width = "1" fill = "purple" />	<path d = "M150 150 L150 100 L100 100 L100 150 L150 150 Z" stroke = "blue" stroke-width = "1" fill = "blue" />    <text x="100" y = "100" fill = "blue" font-size = "50px" font-family = "arial"></text>
	<path d = "M100 100 L100 50 L50 50 L50 100 L100 100 Z" stroke = "blue" stroke-width = "1" fill = "blue" />	<path d = "M150 150 L150 50 L50 50 L50 150 L150 150 Z" stroke = "black" stroke-width = "6" fill = "none" />	<path d = "M250 150 L300 150 L275 107 L250 150 Z" stroke = "red" stroke-width = "1" fill = "red" />	<path d = "M275 107 L300 63 L325 107 L275 107 Z" stroke = "blue" stroke-width = "1" fill = "blue" />	<path d = "M275 107 L300 150 L325 107 L275 107 Z" stroke = "yellow" stroke-width = "1" fill = "yellow" />	<path d = "M300 150 L350 150 L325 107 L300 150 Z" stroke = "green" stroke-width = "1" fill = "green" />	<path d = "M350 150 L300 63 L250 150 L350 150 Z" stroke = "black" stroke-width = "6" fill = "none" />	<path d = "M50 350 L150 350 L131 291 L50 350 Z" stroke = "yellow" stroke-width = "1" fill = "yellow" />	<path d = "M50 350 L131 291 L69 291 L50 350 Z" stroke = "red" stroke-width = "1" fill = "red" />	<path d = "M69 291 L131 291 L119 255 L69 291 Z" stroke = "yellow" stroke-width = "1" fill = "yellow" />	<path d = "M69 291 L119 255 L81 255 L69 291 Z" stroke = "red" stroke-width = "1" fill = "red" />	<path d = "M81 255 L119 255 L112 232 L81 255 Z" stroke = "yellow" stroke-width = "1" fill = "yellow" />	<path d = "M81 255 L112 232 L88 232 L81 255 Z" stroke = "red" stroke-width = "1" fill = "red" />	<path d = "M88 232 L112 232 L100 196 L88 232 Z" stroke = "yellow" stroke-width = "1" fill = "yellow" />	<path d = "M100 196 L50 350 L150 350 L100 196 Z" stroke = "black" stroke-width = "6" fill = "none" />	<path d = "M450 300 L369 241 L350 300 L450 300 Z" stroke = "yellow" stroke-width = "1" fill = "yellow" />	<path d = "M369 241 L288 300 L350 300 L369 241 Z" stroke = "red" stroke-width = "1" fill = "red" />	<path d = "M350 300 L319 278 L312 300 L350 300 Z" stroke = "yellow" stroke-width = "1" fill = "yellow" />	<path d = "M288 300 L369 241 L450 300 L288 300 	<path d = "M250 450 L250 350 L293 375 L250 450 Z" stroke = "blue" stroke-width = "1" fill = "blue" />	<path d = "M250 450 	<path d = "M250 450 L293 450 L293 375 L250 450 Z" stroke = "red" stroke-width = "1" fill = "red" />	<path d = "M293 450 L293 375 L326 394 L293 450 Z" stroke = "blue" stroke-width = "1" fill = "blue" />	<path d = "M293 450 	<path d = "M293 450 L326 450 L326 394 L293 450 Z" stroke = "red" stroke-width = "1" fill = "red" />	<path d = "M326 450 L326 394 L350 408 L326 450 Z" stroke = "blue" stroke-width = "1" fill = "blue" />	<path d = "M326 450 	<path d = "M326 450 L350 450 L350 408 L326 450 Z" stroke = "red" stroke-width = "1" fill = "red" />	<path d = "M350 450 L350 408 L368 418 L350 450 Z" stroke = "blue" stroke-width = "1" fill = "blue" />	<path d = "M350 450 	<path d = "M350 450 L368 450 L368 418 L350 450 Z" stroke = "red" stroke-width = "1" fill = "red" />	<path d = "M368 450 L368 418 L382 426 L368 450 Z" stroke = "blue" stroke-width = "1" fill = "blue" />	<path d = "M368 450 	<path d = "M368 450 L382 450 L382 426 L368 450 Z" stroke = "red" stroke-width = "1" fill = "red" />	<path d = "M382 450 L382 426 L392 432 L382 450 Z" stroke = "blue" stroke-width = "1" fill = "blue" />	<path d = "M382 450 	<path d = "M382 450 L392 450 L392 432 L382 450 Z" stroke = "red" stroke-width = "1" fill = "red" />	<path d = "M392 450 L392 432 L400 437 L392 450 Z" stroke = "blue" stroke-width = "1" fill = "blue" />	<path d = "M392 450 	<path d = "M392 450 L400 450 L400 437 L392 450 Z" stroke = "red" stroke-width = "1" fill = "red" />	<path d = "M400 450 L400 437 L406 440 L400 450 Z" stroke = "blue" stroke-width = "1" fill = "blue" />	<path d = "M400 450 	<path d = "M400 450 L406 450 L406 440 L400 450 Z" stroke = "red" stroke-width = "1" fill = "red" />	<path d = "M406 450 L406 440 L410 442 L406 450 Z" stroke = "blue" stroke-width = "1" fill = "blue" />	<path d = "M406 450 	<path d = "M406 450 L410 450 L410 442 L406 450 Z" stroke = "red" stroke-width = "1" fill = "red" />	<path d = "M410 450 L410 442 L423 450 L410 450 Z" stroke = "blue" stroke-width = "1" fill = "blue" />	<path d = "M250 450 L250 350 L423 450 L250 450 Z" stroke = "black" stroke-width = "6" fill = "none" /></svg>