<svg width="500" height="500" viewbox = "0 0 500 500"  xmlns="http://www.w3.org/2000/svg">

<!--
<json>
{
    "imgurl": "",
    "imgw": 4.743971328437736,
    "imgleft": -2.2873205904167726,
    "imgtop": -3.171985664218851,
    "imgangle": 0,
    "svgwidth": 500,
    "svgheight": 500,
    "unit": 100,
    "x0": 684,
    "y0": 399,
    "x0rel": 0,
    "y0rel": 0,
    "glyph": "0331,0331,0332,0332,0333,0337,0337,0336,0211,0211,0224,",
    "table": []
}
</json>
-->
	<path d = "M150 450 L412 450 L362 296 L150 450 Z" stroke = "yellow" stroke-width = "1" fill = "yellow" />	<path d = "M150 450 L362 296 L200 296 L150 450 Z" stroke = "red" stroke-width = "1" fill = "red" />	<path d = "M200 296 L362 296 L331 201 L200 296 Z" stroke = "yellow" stroke-width = "1" fill = "yellow" />	<path d = "M200 296 L331 201 L231 201 L200 296 Z" stroke = "red" stroke-width = "1" fill = "red" />	<path d = "M231 201 L331 201 L312 142 L231 201 Z" stroke = "yellow" stroke-width = "1" fill = "yellow" />	<path d = "M231 201 L312 142 L250 142 L231 201 Z" stroke = "red" stroke-width = "1" fill = "red" />	<path d = "M250 142 L312 142 L281 47 L250 142 Z" stroke = "yellow" stroke-width = "1" fill = "yellow" />	<path d = "M281 47 L150 450 L412 450 L281 47 Z" stroke = "black" stroke-width = "6" fill = "none" /></svg>