<svg width="400" height="400" viewbox = "0 0 400 400"  xmlns="http://www.w3.org/2000/svg">

<!--
<topfunctions>









function YofX(){
    X = plotparams.g*(x - plotparams.x0) - funcparams.X0;
    if(X == 0){
        Y = 1;
    }   
    else{
        Y = X/Math.tanh(X);
    }
    y = plotparams.y0 - plotparams.G*(Y - funcparams.Y0);
}



function plotfunction(){
/*

    currentStroke = "blue";
    currentLineWidth = 4;
    ctx.strokeStyle = currentStroke;
    ctx.lineWidth = currentLineWidth;
    ctx.beginPath();	
    x = 0;
    y = 0;
    t= 0;
    XYofT();
    currentSVG += "	<path d = \"M";
    currentSVG += Math.round(x).toString() + " ";
    currentSVG += Math.round(y).toString() + " ";
    for(t = 1;t < plotparams.duration;t++){
        ctx.moveTo(x,y);
        XYofT();
        ctx.lineTo(x,y);
        currentSVG += "L" + x + " " + y + " ";
    }
    ctx.stroke();
    currentSVG += "\""+ " stroke = \"" + currentStroke + "\" stroke-width = \"" + currentLineWidth.toString() + "\" fill = \"" + "none" + "\" "+"/>";


    /*plot one function:*/
    currentStroke = "blue";
    currentLineWidth = 4;
    ctx.strokeStyle = currentStroke;
    ctx.lineWidth = currentLineWidth;
    ctx.beginPath();	
    x = 0;
    YofX();
    currentSVG += "	<path d = \"M";
    currentSVG += Math.round(x).toString() + " ";
    currentSVG += Math.round(y).toString() + " ";
    for(x = 1;x < plotparams.plotwidth;x++){
        ctx.moveTo(x-1,y);
        YofX();
        ctx.lineTo(x,y);
        currentSVG += "L" + x + " " + y + " ";
    }
    ctx.stroke();
    currentSVG += "\""+ " stroke = \"" + currentStroke + "\" stroke-width = \"" + currentLineWidth.toString() + "\" fill = \"" + "none" + "\" "+"/>";
    /*finish plot one function*/
    

}






























</topfunctions>
-->

<!--
<imgurl>

</imgurl>
-->

<!--
<currentjson>
{
    "constants": {},
    "imgurl": "",
    "plotparams": {
        "G": 21.935878491400615,
        "g": 0.06830134553650705,
        "duration": 545.4545454545454,
        "plotwidth": 400,
        "plotheight": 400,
        "x0": 200,
        "y0": 400
    },
    "funcparams": {
        "a": 0.12727272727272726,
        "b": 0,
        "c": 0,
        "X0": 0,
        "Y0": 0
    }
}
</currentjson>
-->

<!--
<equation>





<h2>X  times Hyperbolic Cotangent</h2>
<p style="color:blue">

</p><p class="bigeq">
$$
Y = X\coth{X}$$
</p>
<p></p>

$$
X = g(x - x_0) - X_0
$$
$$
Y = f(X)
$$
    
$$
y = y_0 - G(Y - Y_0)
$$


<p>
    X and Y, and $X_0$ and $Y_0$ in physical units of the System. x and y and x0 and y0 in pixels.  G is in pixels per Y unit and g is in X units per pixel. 
</p>






</equation>
-->
	<path d = "M0 100 L1 101.84824671795826 L2 103.34649673431517 L3 104.8447467506536 L4 106.34299676697111 L5 107.84124678326464 L6 109.33949679953088 L7 110.83774681576608 L8 112.33599683196582 L9 113.83424684812519 L10 115.33249686423846 L11 116.83074688029922 L12 118.32899689630011 L13 119.82724691223285 L14 121.32549692808783 L15 122.82374694385419 L16 124.3219969595196 L17 125.82024697506989 L18 127.31849699048905 L19 128.81674700575877 L20 130.3149970208582 L21 131.81324703576354 L22 133.3114970504477 L23 134.80974706488 L24 136.30799707902526 L25 137.80624709284348 L26 139.30449710628898 L27 140.80274711931014 L28 142.3009971318478 L29 143.79924714383463 L30 145.297497155194 L31 146.79574716583872 L32 148.2939971756695 L33 149.79224718457317 L34 151.290497192421 L35 152.78874719906634 L36 154.28699720434233 L37 155.785247208059 L38 157.28349721 L39 158.7817472099193 L40 160.27999720753652 L41 161.77824720253275 L42 163.27649719454521 L43 164.77474718316068 L44 166.27299716790912 L45 167.77124714825572 L46 169.26949712359183 L47 170.76774709322504 L48 172.26599705636738 L49 173.7642470121227 L50 175.26249695947132 L51 176.76074689725345 L52 178.25899682414982 L53 179.75724673866003 L54 181.2554966390775 L55 182.7537465234615 L56 184.25199638960524 L57 185.75024623499908 L58 187.24849605678992 L59 188.7467458517336 L60 190.24499561614226 L61 191.74324534582345 L62 193.24149503601157 L63 194.73974468129018 L64 196.23799427550298 L65 197.73624381165408 L66 199.23449328179328 L67 200.73274267688706 L68 202.23099198667185 L69 203.72924119948706 L70 205.2274903020865 L71 206.72573927942355 L72 208.22398811440834 L73 209.7222367876317 L74 211.22048527705223 L75 212.71873355764205 L76 214.21698160098416 L77 215.71522937481708 L78 217.21347684251768 L79 218.71172396251606 L80 220.2099706876316 L81 221.70821696432125 L82 223.20646273182814 L83 224.70470792121623 L84 226.20295245427818 L85 227.70119624229798 L86 229.19943918465012 L87 230.697681167214 L88 232.19592206057902 L89 233.69416171801373 L90 235.1923999731677 L91 236.6906366374719 L92 238.1888714971984 L93 239.68710431013523 L94 241.18533480182694 L95 242.68356266132488 L96 244.18178753638392 L97 245.68000902803556 L98 247.17822668445615 L99 248.67643999404214 L100 250.17464837758965 L101 251.67285117946597 L102 253.1710476576445 L103 254.66923697246034 L104 256.1674181739246 L105 257.66559018741737 L106 259.16375179755516 L107 260.6619016300069 L108 262.16003813100167 L109 263.65815954424204 L110 265.15626388490506 L111 266.65434891036887 L112 268.1524120872672 L113 269.65045055442073 L114 271.14846108114637 L115 272.64644002038403 L116 274.14438325601674 L117 275.64228614368915 L118 277.14014344434844 L119 278.6379492496451 L120 280.13569689823345 L121 281.63337888190637 L122 283.13098674037883 L123 284.62851094340834 L124 286.1259407587976 L125 287.62326410466875 L126 289.12046738423146 L127 290.61753530108075 L128 292.11445065285966 L129 293.61119410090566 L130 295.10774391326197 L131 296.60407567818305 L132 298.1001619849893 L133 299.5959720688353 L134 301.0914714156434 L135 302.58662132312753 L136 304.08137841348196 L137 305.57569409294774 L138 307.06951395309204 L139 308.56277710824503 L140 310.05541546314413 L141 311.54735290443637 L142 313.0385044092951 L143 314.52877506402655 L144 316.0180589851822 L145 317.5062381353687 L146 318.99318102567145 L147 320.4787412964017 L148 321.9627561677521 L149 323.44504475193764 L150 324.9254062185267 L151 326.40361780496124 L152 327.87943266477026 L153 329.35257754672534 L154 330.8227502992227 L155 332.28961719554866 L156 333.75281007744405 L157 335.2119233165873 L158 336.6665105963182 L159 338.11608151918466 L160 339.5600980497685 L161 340.997970806788 L162 342.42905522372723 L163 343.85264760324606 L164 345.2679810973965 L165 346.6742216532146 L166 348.07046397154903 L167 349.455727535965 L168 350.8289527781355 L169 352.1889974561523 L170 353.5346333324623 L171 354.86454324839883 L172 356.1773187022147 L173 357.4714580467356 L174 358.7453654307807 L175 359.99735061481147 L176 361.2256297952882 L177 362.4283275733036 L178 363.60348020057285 L179 364.74904022915 L180 365.86288267969303 L181 366.942812826206 L182 367.9865756725428 L183 368.99186716735824 L184 369.9563471696642 L185 370.8776541369962 L186 371.7534214630568 L187 372.58129534256295 L188 373.35895398923753 L189 374.08412798015064 L190 374.7546214479524 L191 375.368333794188 L192 375.9232815542535 L193 376.41762001003093 L194 376.84966412212384 L195 377.2179083418776 L196 377.5210448655689 L197 377.7579799102415 L198 377.92784762291797 L199 378.0300212818323 L200 378.0641215085994 L201 378.0300212818323 L202 377.92784762291797 L203 377.7579799102415 L204 377.5210448655689 L205 377.2179083418776 L206 376.84966412212384 L207 376.41762001003093 L208 375.9232815542535 L209 375.368333794188 L210 374.7546214479524 L211 374.08412798015064 L212 373.35895398923753 L213 372.58129534256295 L214 371.7534214630568 L215 370.8776541369962 L216 369.9563471696642 L217 368.99186716735824 L218 367.9865756725428 L219 366.942812826206 L220 365.86288267969303 L221 364.74904022915 L222 363.60348020057285 L223 362.4283275733036 L224 361.2256297952882 L225 359.99735061481147 L226 358.7453654307807 L227 357.4714580467356 L228 356.1773187022147 L229 354.86454324839883 L230 353.5346333324623 L231 352.1889974561523 L232 350.8289527781355 L233 349.455727535965 L234 348.07046397154903 L235 346.6742216532146 L236 345.2679810973965 L237 343.85264760324606 L238 342.42905522372723 L239 340.997970806788 L240 339.5600980497685 L241 338.11608151918466 L242 336.6665105963182 L243 335.2119233165873 L244 333.75281007744405 L245 332.28961719554866 L246 330.8227502992227 L247 329.35257754672534 L248 327.87943266477026 L249 326.40361780496124 L250 324.9254062185267 L251 323.44504475193764 L252 321.9627561677521 L253 320.4787412964017 L254 318.99318102567145 L255 317.5062381353687 L256 316.0180589851822 L257 314.52877506402655 L258 313.0385044092951 L259 311.54735290443637 L260 310.05541546314413 L261 308.56277710824503 L262 307.06951395309204 L263 305.57569409294774 L264 304.08137841348196 L265 302.58662132312753 L266 301.0914714156434 L267 299.5959720688353 L268 298.1001619849893 L269 296.60407567818305 L270 295.10774391326197 L271 293.61119410090566 L272 292.11445065285966 L273 290.61753530108075 L274 289.12046738423146 L275 287.62326410466875 L276 286.1259407587976 L277 284.62851094340834 L278 283.13098674037883 L279 281.63337888190637 L280 280.13569689823345 L281 278.6379492496451 L282 277.14014344434844 L283 275.64228614368915 L284 274.14438325601674 L285 272.64644002038403 L286 271.14846108114637 L287 269.65045055442073 L288 268.1524120872672 L289 266.65434891036887 L290 265.15626388490506 L291 263.65815954424204 L292 262.16003813100167 L293 260.6619016300069 L294 259.16375179755516 L295 257.66559018741737 L296 256.1674181739246 L297 254.66923697246034 L298 253.1710476576445 L299 251.67285117946597 L300 250.17464837758965 L301 248.67643999404214 L302 247.17822668445615 L303 245.68000902803556 L304 244.18178753638392 L305 242.68356266132488 L306 241.18533480182694 L307 239.68710431013523 L308 238.1888714971984 L309 236.6906366374719 L310 235.1923999731677 L311 233.69416171801373 L312 232.19592206057902 L313 230.697681167214 L314 229.19943918465012 L315 227.70119624229798 L316 226.20295245427818 L317 224.70470792121623 L318 223.20646273182814 L319 221.70821696432125 L320 220.2099706876316 L321 218.71172396251606 L322 217.21347684251768 L323 215.71522937481708 L324 214.21698160098416 L325 212.71873355764205 L326 211.22048527705223 L327 209.7222367876317 L328 208.22398811440834 L329 206.72573927942355 L330 205.2274903020865 L331 203.72924119948706 L332 202.23099198667185 L333 200.73274267688706 L334 199.23449328179328 L335 197.73624381165408 L336 196.23799427550298 L337 194.73974468129018 L338 193.24149503601157 L339 191.74324534582345 L340 190.24499561614226 L341 188.7467458517336 L342 187.24849605678992 L343 185.75024623499908 L344 184.25199638960524 L345 182.7537465234615 L346 181.2554966390775 L347 179.75724673866003 L348 178.25899682414982 L349 176.76074689725345 L350 175.26249695947132 L351 173.7642470121227 L352 172.26599705636738 L353 170.76774709322504 L354 169.26949712359183 L355 167.77124714825572 L356 166.27299716790912 L357 164.77474718316068 L358 163.27649719454521 L359 161.77824720253275 L360 160.27999720753652 L361 158.7817472099193 L362 157.28349721 L363 155.785247208059 L364 154.28699720434233 L365 152.78874719906634 L366 151.290497192421 L367 149.79224718457317 L368 148.2939971756695 L369 146.79574716583872 L370 145.297497155194 L371 143.79924714383463 L372 142.3009971318478 L373 140.80274711931014 L374 139.30449710628898 L375 137.80624709284348 L376 136.30799707902526 L377 134.80974706488 L378 133.3114970504477 L379 131.81324703576354 L380 130.3149970208582 L381 128.81674700575877 L382 127.31849699048905 L383 125.82024697506989 L384 124.3219969595196 L385 122.82374694385419 L386 121.32549692808783 L387 119.82724691223285 L388 118.32899689630011 L389 116.83074688029922 L390 115.33249686423846 L391 113.83424684812519 L392 112.33599683196582 L393 110.83774681576608 L394 109.33949679953088 L395 107.84124678326464 L396 106.34299676697111 L397 104.8447467506536 L398 103.34649673431517 L399 101.84824671795826 " stroke = "blue" stroke-width = "4" fill = "none" /></svg>