<svg width="400" height="400" viewbox = "0 0 400 400"  xmlns="http://www.w3.org/2000/svg">

<!--
<json>
{
    "imgurl": "",
    "imgw": 2.983971328437751,
    "imgleft": -1.4873205904167783,
    "imgtop": -1.0519856642188752,
    "imgangle": 0,
    "svgwidth": 400,
    "svgheight": 400,
    "unit": 100,
    "x0": 684,
    "y0": 399,
    "x0rel": 0,
    "y0rel": 0,
    "glyph": "0336,0332,0224,0220,0225,0340,0335,0362,0203,0203,0335,0203,0220,0221,0222,0335,0335,0223,0332,0330,0332,0330,0223,0332,0332,",
    "table": []
}
</json>
-->
    <line x1="150" y1="200" x2="150" y2="194" style="stroke:black;stroke-width:4" />
    <circle cx="150" cy = "181" r = "12.5" stroke = "black" stroke-width = "4" fill = "none" />
    <circle cx="150" cy = "169" r = "12.5" stroke = "black" stroke-width = "4" fill = "none" />
    <line x1="150" y1="156" x2="150" y2="150" style="stroke:black;stroke-width:4" />
	<path d = "M150 150 L150 148 L150 145 L145 142 L150 139 L155 136 L150 133 L145 130 L150 127 L155 123 L150 120 L145 117 L150 114 L155 111 L150 108 L150 102 L150 100 " stroke = "black" stroke-width = "4" fill = "none" />    <line x1="150" y1="100" x2="150" y2="94" style="stroke:black;stroke-width:4" />
    <circle cx="150" cy = "81" r = "12.5" stroke = "black" stroke-width = "4" fill = "none" />
    <text x="144" y = "88" fill = "black" font-size = "12.5px" font-family = "arial">V</text>
<circle cx="150" cy = "100" r = "4" stroke = "black" stroke-width = "4" fill = "black" />
	<path d = "M150 100 L200 100 L250 100 L250 150 	<path d = "M250 150 L250 152 L250 155 L255 158 L250 161 L245 164 L250 167 L255 170 L250 173 L245 177 L250 180 L255 183 L250 186 L245 189 L250 192 L250 198 L250 200 " stroke = "black" stroke-width = "4" fill = "none" />	<path d = "M250 200  M250,200 C250,208 233,213 233,204  M233,204 C233,196 250,204 250,213  M250,213 C250,221 233,225 233,217  M233,217 C233,208 250,217 250,225  M250,225 C250,233 233,238 233,229  M233,229 C233,221 250,229 250,238  M250,238 C250,246 233,250 233,242  M233,242 C233,233 250,242 250,250 " stroke = "black" stroke-width = "4" fill = "none" />    <line x1="250" y1="250" x2="250" y2="263" style="stroke:black;stroke-width:4" />
    <line x1="250" y1="263" x2="250" y2="269" style="stroke:black;stroke-width:4" />
    <line x1="250" y1="269" x2="262" y2="269" style="stroke:black;stroke-width:4" />
    <line x1="250" y1="269" x2="237" y2="269" style="stroke:black;stroke-width:4" />
    <line x1="250" y1="281" x2="237" y2="281" style="stroke:black;stroke-width:4" />
    <line x1="250" y1="281" x2="262" y2="281" style="stroke:black;stroke-width:4" />
    <line x1="250" y1="281" x2="250" y2="288" style="stroke:black;stroke-width:4" />
    <line x1="250" y1="288" x2="250" y2="300" style="stroke:black;stroke-width:4" />
    <line x1="250" y1="325" x2="250" y2="300" style="stroke:black;stroke-width:4" />
    <line x1="250" y1="325" x2="262" y2="325" style="stroke:black;stroke-width:4" />
    <line x1="262" y1="325" x2="250" y2="338" style="stroke:black;stroke-width:4" />
    <line x1="250" y1="338" x2="237" y2="325" style="stroke:black;stroke-width:4" />
    <line x1="237" y1="325" x2="250" y2="325" style="stroke:black;stroke-width:4" />
    <line x1="150" y1="225" x2="150" y2="200" style="stroke:black;stroke-width:4" />
    <line x1="150" y1="225" x2="162" y2="225" style="stroke:black;stroke-width:4" />
    <line x1="162" y1="225" x2="150" y2="237" style="stroke:black;stroke-width:4" />
    <line x1="150" y1="237" x2="137" y2="225" style="stroke:black;stroke-width:4" />
    <line x1="137" y1="225" x2="150" y2="225" style="stroke:black;stroke-width:4" />
</svg>