<svg width="500" height="500" viewbox = "0 0 500 500"  xmlns="http://www.w3.org/2000/svg">

<!--
<json>
{
    "imgurl": "",
    "imgw": 2.983971328437751,
    "imgleft": -1.4873205904167783,
    "imgtop": -1.0519856642188752,
    "imgangle": 0,
    "svgwidth": 500,
    "svgheight": 500,
    "unit": 100,
    "x0": 634,
    "y0": 449,
    "x0rel": -50,
    "y0rel": 50,
    "glyph": "0350,0335,0304,0232,0335,0232,0335,0334,0331,0333,0232,0334,0232,0350,0334,0304,0335,0336,0336,0362,0203,0334,0337,0337,0203,0203,0334,0203,0203,0203,0364,0331,0332,0331,0331,0332,0336,0336,0330,0337,0337,0350,0335,0330,0334,0334,0330,0335,0310,0337,0342,0304,0330,0313,0336,0336,0336,0336,0330,0341,0335,0337,0336,0333,0337,0337,0337,0333,0333,0350,0335,0310,0337,0330,0335,0335,0330,0334,0336,0336,0336,0336,0313,0304,0334,0333,0337,0337,0337,0330,0334,0330,0336,0330,0336,0336,0336,0310,0336,0330,0341,0331,0335,0337,0313,0337,0337,0337,0333,0333,0333,0331,0331,0336,0336,0332,0337,0350,0334,0310,0337,0340,0337,0330,0334,0334,0330,0340,0331,0340,0335,0335,0335,0313,0304,0336,0362,0203,0335,0203,0336,0203,0336,0203,0364,0330,0330,0362,0203,0203,0203,0364,0334,0336,0310,0337,0333,0341,0336,0313,0337,0332,0332,0332,0332,0332,0332,0332,0332,0332,0332,0332,0332,0332,0336,0333,0336,0332,0337,0337,0337,0331,0331,0335,0337,0337,0350,0335,0330,0335,0335,0330,0334,0340,0336,0362,0203,0304,0334,0203,0203,0203,0364,0334,0336,0336,0310,0336,0333,0341,0330,0330,0330,",
    "table": []
}
</json>
-->
    <line x1="200" y1="300" x2="271" y2="229" style="stroke:black;stroke-width:4" />
    <line x1="227" y1="238" x2="262" y2="273" style="stroke:black;stroke-width:4" />
	<path d = "M244 256 L244 291 L209 256 L244 256 Z" stroke = "black" stroke-width = "4" fill = "black" />    <line x1="271" y1="229" x2="341" y2="300" style="stroke:black;stroke-width:4" />
    <line x1="333" y1="256" x2="297" y2="291" style="stroke:black;stroke-width:4" />
	<path d = "M315 273 L280 273 L315 238 L315 273 Z" stroke = "black" stroke-width = "4" fill = "black" />    <line x1="200" y1="300" x2="271" y2="371" style="stroke:black;stroke-width:4" />
    <line x1="262" y1="327" x2="227" y2="362" style="stroke:black;stroke-width:4" />
	<path d = "M244 344 L209 344 L244 309 L244 344 Z" stroke = "black" stroke-width = "4" fill = "black" />    <line x1="271" y1="371" x2="341" y2="300" style="stroke:black;stroke-width:4" />
    <line x1="297" y1="309" x2="333" y2="344" style="stroke:black;stroke-width:4" />
	<path d = "M315 327 L315 362 L280 327 L315 327 Z" stroke = "black" stroke-width = "4" fill = "black" />	<path d = "M341 300 L366 300 L366 200 L366 100 L266 100 L166 100 L66 100 " stroke = "black" stroke-width = "4" fill = "none" />    <line x1="200" y1="300" x2="59" y2="300" style="stroke:black;stroke-width:4" />
    <circle cx="50" cy = "300" r = "8.838834764831851" stroke = "black" stroke-width = "4" fill = "none" />
    <circle cx="58" cy = "100" r = "8.838834764831848" stroke = "black" stroke-width = "4" fill = "none" />
<circle cx="341" cy = "300" r = "4" stroke = "black" stroke-width = "4" fill = "black" />
<circle cx="200" cy = "300" r = "4" stroke = "black" stroke-width = "4" fill = "black" />
<circle cx="271" cy = "229" r = "4" stroke = "black" stroke-width = "4" fill = "black" />
	<path d = "M271 229 L271 179 L321 179 L346 179 L358 179 " stroke = "black" stroke-width = "4" fill = "none" />	<path d = "M383 179 L396 179 L408 179 L421 179 " stroke = "black" stroke-width = "4" fill = "none" />    <circle cx="430" cy = "179" r = "8.838834764831851" stroke = "black" stroke-width = "4" fill = "none" />
<circle cx="270" cy = "371" r = "4" stroke = "black" stroke-width = "4" fill = "black" />
	<path d = "M270 371 L270 421 L320 421 L370 421 L420 421 " stroke = "black" stroke-width = "4" fill = "none" />    <circle cx="429" cy = "421" r = "8.83883476483185" stroke = "black" stroke-width = "4" fill = "none" />
</svg>