<svg width="200" height="400" viewbox = "0 0 200 400"  xmlns="http://www.w3.org/2000/svg">

<!--
<json>
{
    "imgurl": "",
    "imgw": 2.983971328437751,
    "imgleft": -1.4873205904167783,
    "imgtop": -1.0519856642188752,
    "imgangle": 0,
    "svgwidth": 200,
    "svgheight": 400,
    "unit": 100,
    "x0": 684,
    "y0": 380.5,
    "x0rel": 0,
    "y0rel": 0,
    "glyph": "0331,0336,0336,0336,0331,0337,0337,0332,0211,0211,0211,0221,0221,0221,0335,0335,0332,0335,0334,0331,0221,0221,0221,0221,0221,0335,0335,0332,0336,0333,0337,0336,0336,0336,0336,0333,0337,0337,0337,0337,0362,0203,0203,0203,0203,0203,0364,0334,0334,0336,0336,0336,0333,0337,0337,0337,0337,0362,0203,0203,0336,0203,0364,",
    "table": []
}
</json>
-->
	<path d = "M50 313  M50,313 C50,300 75,294 75,306  M75,306 C75,319 50,306 50,294  M50,294 C50,281 75,275 75,288  M75,288 C75,300 50,288 50,275  M50,275 C50,263 75,256 75,269  M75,269 C75,281 50,269 50,256  M50,256 C50,244 75,238 75,250  M75,250 C75,263 50,250 50,238 " stroke = "black" stroke-width = "4" fill = "none" />	<path d = "M50 238  M50,238 C50,225 75,219 75,231  M75,231 C75,244 50,231 50,219  M50,219 C50,206 75,200 75,213  M75,213 C75,225 50,213 50,200  M50,200 C50,188 75,181 75,194  M75,194 C75,206 50,194 50,181  M50,181 C50,169 75,163 75,175  M75,175 C75,188 50,175 50,163 " stroke = "black" stroke-width = "4" fill = "none" />	<path d = "M50 163  M50,163 C50,150 75,144 75,156  M75,156 C75,169 50,156 50,144  M50,144 C50,132 75,125 75,138  M75,138 C75,150 50,138 50,125  M50,125 C50,113 75,107 75,119  M75,119 C75,132 50,119 50,107  M50,107 C50,94 75,88 75,100  M75,100 C75,113 50,100 50,88 " stroke = "black" stroke-width = "4" fill = "none" />	<path d = "M125 13  M125,13 C125,25 100,32 100,19  M100,19 C100,7 125,19 125,32  M125,32 C125,44 100,50 100,38  M100,38 C100,25 125,38 125,50  M125,50 C125,63 100,69 100,57  M100,57 C100,44 125,57 125,69  M125,69 C125,82 100,88 100,75  M100,75 C100,63 125,75 125,88 " stroke = "black" stroke-width = "4" fill = "none" />	<path d = "M125 88  M125,88 C125,100 100,107 100,94  M100,94 C100,82 125,94 125,107  M125,107 C125,119 100,125 100,113  M100,113 C100,100 125,113 125,125  M125,125 C125,138 100,144 100,132  M100,132 C100,119 125,132 125,144  M125,144 C125,156 100,163 100,150  M100,150 C100,138 125,150 125,163 " stroke = "black" stroke-width = "4" fill = "none" />	<path d = "M125 163  M125,163 C125,175 100,181 100,169  M100,169 C100,156 125,169 125,181  M125,181 C125,194 100,200 100,188  M100,188 C100,175 125,188 125,200  M125,200 C125,213 100,219 100,206  M100,206 C100,194 125,206 125,219  M125,219 C125,231 100,238 100,225  M100,225 C100,213 125,225 125,238 " stroke = "black" stroke-width = "4" fill = "none" />	<path d = "M125 238  M125,238 C125,250 100,256 100,244  M100,244 C100,231 125,244 125,256  M125,256 C125,269 100,275 100,263  M100,263 C100,250 125,263 125,275  M125,275 C125,288 100,294 100,281  M100,281 C100,269 125,281 125,294  M125,294 C125,306 100,313 100,300  M100,300 C100,288 125,300 125,312 " stroke = "black" stroke-width = "4" fill = "none" />	<path d = "M125 312  M125,312 C125,325 100,331 100,319  M100,319 C100,306 125,319 125,331  M125,331 C125,344 100,350 100,337  M100,337 C100,325 125,337 125,350  M125,350 C125,362 100,369 100,356  M100,356 C100,344 125,356 125,369  M125,369 C125,381 100,387 100,375  M100,375 C100,362 125,375 125,387 " stroke = "black" stroke-width = "4" fill = "none" />	<path d = "M92 387 L92 313 L92 238 L92 163 L92 88 L92 13 " stroke = "black" stroke-width = "4" fill = "none" />	<path d = "M83 13 L83 163 L83 313 L83 387 " stroke = "black" stroke-width = "4" fill = "none" /></svg>