<svg width="200" height="200" viewbox = "0 0 200 200"  xmlns="http://www.w3.org/2000/svg">

<!--
<json>
{
    "imgurl": "",
    "imgw": 4.743971328437736,
    "imgleft": -2.2873205904167726,
    "imgtop": -3.171985664218851,
    "imgangle": 0,
    "svgwidth": 200,
    "svgheight": 200,
    "unit": 100,
    "x0": 684,
    "y0": 399,
    "x0rel": 0,
    "y0rel": 0,
    "glyph": "0210,0336,0332,0332,0332,0336,0333,0333,0333,0350,0335,0336,0362,0337,0360,0334,0304,0333,0336,0333,0330,0330,0334,0361,0335,0335,0360,0334,0331,0331,0333,0333,0333,0350,0334,0361,0335,0335,0335,0335,0360,0334,0330,0330,0330,0335,0335,0330,0330,0335,0335,0361,0335,0335,0335,0335,0360,0334,0332,0332,0335,0330,0330,0330,0335,0335,0335,0361,0364,0335,0304,0335,0337,0337,0337,0332,0336,0336,0331,0331,0333,0337,0337,0235,",
    "table": []
}
</json>
-->
	<path d = "M34 100  M34,100 C50,85 56,78 67,78  M67,78 C78,78 92,92 100,100  M100,100 C108,108 122,122 133,122  M133,122 C144,122 158,108 166,100 " stroke = "black" stroke-width = "10" fill = "none" />	<path d = "M13 144 L13 100 L13 56 M12.596795110235796 56.29839755511797           A43.701602444882106 43.701602444882106 0 0 1 56.29839755511796 12.596795110235853L100 13 L144 13 M143.701602444882 12.596795110236123           A43.701602444882106 43.701602444882106 0 0 1 187.40320488976405 56.29839755511836L187 100 L187 144 M187.40320488976366 143.70160244488244           A43.701602444882106 43.701602444882106 0 0 1 143.70160244488136 187.4032048897644L100 187 L56 187 M56.298397555117305 187.40320488976383           A43.701602444882106 43.701602444882106 0 0 1 12.596795110235405 143.70160244488144" stroke = "black" stroke-width = "10" fill = "none" /></svg>