<svg width="500" height="800" viewbox = "0 0 500 800"  xmlns="http://www.w3.org/2000/svg">

<!--
<json>
{
    "imgurl": "",
    "imgw": 4.743971328437736,
    "imgleft": -2.2873205904167726,
    "imgtop": -3.171985664218851,
    "imgangle": 0,
    "svgwidth": 500,
    "svgheight": 800,
    "unit": 82.64462809917354,
    "x0": 684,
    "y0": 399,
    "x0rel": 0,
    "y0rel": 0,
    "glyph": "0320,0336,0223,0330,0330,0330,0332,0330,0224,0333,0333,0333,0331,0331,0331,0331,0331,0331,0332,0332,0226,0330,0330,0330,0330,0330,0330,0333,0330,0330,0330,0332,0332,0331,0332,0332,0331,0332,0227,0330,0333,0333,0333,0337,0231,0333,0331,0333,0336,0225,0337,0337,0331,0331,0331,0332,0336,0330,0336,0333,0337,0234,0333,0333,0330,0336,0335,0335,0333,0333,0331,0333,0333,0336,0220,0331,0331,0331,0331,0331,0331,0220,0337,0337,0331,0332,0336,0331,0336,0331,0335,0350,0334,0337,0304,0220,0336,0350,0334,0335,0335,0335,0335,0304,0332,0332,0332,0332,0332,0332,0332,0332,0335,0337,0350,0335,0220,0350,0334,0304,0334,0330,0332,0336,0330,0335,0330,0337,0222,0330,0333,0335,0331,0331,0336,0336,0330,0332,0332,0337,0337,0222,",
    "table": []
}
</json>
-->
	<path d = "M250 400 L271 400 L271 379 L291 359 L291 338 L271 338 L250 338 L229 338 L209 338 L209 359 L229 379 L229 400 L250 400 Z" stroke = "black" stroke-width = "6" fill = "none" />	<path d = "M229 307 L235 307 L235 312 L235 317 L240 317 L235 323 L229 328 L224 323 L219 317 L224 317 L224 312 L224 307 L229 307 Z" stroke = "black" stroke-width = "6" fill = "black" />	<path d = "M271 307 L276 307 L276 312 L276 317 L281 317 L276 323 L271 328 L265 323 L260 317 L265 317 L265 312 L265 307 L271 307 Z" stroke = "black" stroke-width = "6" fill = "black" />	<path d = "M250 369 L255 369 L255 374 L255 379 L260 379 L255 385 L250 390 L245 385 L240 379 L245 379 L245 374 L245 369 L250 369 Z" stroke = "black" stroke-width = "6" fill = "black" />	<path d = "M250 348 L245 348 L247 353 L250 357 L253 353 L255 348 L250 348 Z" stroke = "black" stroke-width = "6" fill = "black" />	<path d = "M229 348 L224 348 L227 353 L229 357 L232 353 L235 348 L229 348 Z" stroke = "black" stroke-width = "6" fill = "black" />	<path d = "M271 348 L265 348 L268 353 L271 357 L273 353 L276 348 L271 348 Z" stroke = "black" stroke-width = "6" fill = "black" />    <circle cx="209" cy = "224" r = "2.5826446280991733" stroke = "black" stroke-width = "6" fill = "black" />
    <circle cx="209" cy = "193" r = "2.5826446280991733" stroke = "black" stroke-width = "6" fill = "black" />
	<path d = "M209 235 L207 235 L207 214 L210 214 L210 235 L209 235 Z" stroke = "black" stroke-width = "6" fill = "black" />	<path d = "M209 235 L209 233 L229 233 L229 236 L209 236 L209 235 Z" stroke = "black" stroke-width = "6" fill = "black" />	<path d = "M209 235 L209 236 L188 236 L188 233 L209 233 L209 235 Z" stroke = "black" stroke-width = "6" fill = "black" />	<path d = "M265 457 L265 462 L260 462 L255 462 L255 467 L250 462 L245 457 L250 452 L255 446 L255 452 L260 452 L265 452 L265 457 Z" stroke = "black" stroke-width = "6" fill = "black" />	<path d = "M265 457 L265 452 L271 452 L276 452 L276 446 L281 452 L286 457 L281 462 L276 467 L276 462 L271 462 L265 462 L265 457 Z" stroke = "black" stroke-width = "6" fill = "black" />	<path d = "M224 498 L229 498 L229 503 L229 508 L235 508 L229 514 L224 519 L219 514 L214 508 L219 508 L219 503 L219 498 L224 498 Z" stroke = "black" stroke-width = "6" fill = "black" />	<path d = "M224 498 L219 498 L219 493 L219 488 L214 488 L219 483 L224 477 L229 483 L235 488 L229 488 L229 493 L229 498 L224 498 Z" stroke = "black" stroke-width = "6" fill = "black" />	<path d = "M235 467 L235 446 L214 446 L214 467 L235 467 Z" stroke = "black" stroke-width = "6" fill = "none" />	<path d = "M291 524 L291 441 L209 441 L209 524 L291 524 Z" stroke = "black" stroke-width = "6" fill = "none" />	<path d = "M105 214 L105 173 L64 173 L64 214 L105 214 Z" stroke = "black" stroke-width = "6" fill = "none" />	<path d = "M126 235 L126 152 L43 152 L43 235 L126 235 Z" stroke = "black" stroke-width = "6" fill = "none" />    <line x1="126" y1="235" x2="105" y2="214" style="stroke:black;stroke-width:6" />
    <line x1="126" y1="152" x2="105" y2="173" style="stroke:black;stroke-width:6" />
    <line x1="43" y1="152" x2="64" y2="173" style="stroke:black;stroke-width:6" />
    <line x1="43" y1="235" x2="64" y2="214" style="stroke:black;stroke-width:6" />
	<path d = "M209 152 L209 131 L188 131 L188 152 L209 152 Z" stroke = "red" stroke-width = "6" fill = "red" />	<path d = "M209 152 L209 131 L188 131 L188 152 L209 152 Z" stroke = "black" stroke-width = "6" fill = "none" />	<path d = "M209 121 L209 100 L188 100 L188 121 L209 121 Z" stroke = "yellow" stroke-width = "6" fill = "yellow" />	<path d = "M209 121 L209 100 L188 100 L188 121 L209 121 Z" stroke = "black" stroke-width = "6" fill = "none" />	<path d = "M209 90 L209 69 L188 69 L188 90 L209 90 Z" stroke = "blue" stroke-width = "6" fill = "blue" />	<path d = "M209 90 L209 69 L188 69 L188 90 L209 90 Z" stroke = "black" stroke-width = "6" fill = "none" />    <line x1="219" y1="80" x2="240" y2="80" style="stroke:blue;stroke-width:6" />
    <line x1="219" y1="111" x2="240" y2="111" style="stroke:yellow;stroke-width:6" />
    <line x1="219" y1="142" x2="240" y2="142" style="stroke:red;stroke-width:6" />
	<path d = "M333 235 L333 193 L374 193 L415 193 L415 235 L374 235 L333 235 Z" stroke = "black" stroke-width = "6" fill = "none" />    <circle cx="374" cy = "214" r = "18.05851340697607" stroke = "black" stroke-width = "6" fill = "none" />
    <circle cx="374" cy = "214" r = "9.029256703488034" stroke = "black" stroke-width = "6" fill = "none" />
    <circle cx="343" cy = "204" r = "5.165289256198345" stroke = "black" stroke-width = "6" fill = "none" />
	<path d = "M353 193 L364 183 L374 183 L384 183 L395 193 " stroke = "black" stroke-width = "6" fill = "none" /><path    d = "M250,627 C232,617 268,576 250,565" fill = "none" stroke-width = "6" stroke = "black" /><path    d = "M268,638 C268,617 322,627 322,607" fill = "none" stroke-width = "6" stroke = "black" /><path    d = "M268,658 C286,648 304,700 322,689" fill = "none" stroke-width = "6" stroke = "black" /><path    d = "M250,669 C268,679 232,720 250,731" fill = "none" stroke-width = "6" stroke = "black" /><path    d = "M232,658 C232,679 178,669 178,689" fill = "none" stroke-width = "6" stroke = "black" /><path    d = "M232,638 C214,648 196,596 178,607" fill = "none" stroke-width = "6" stroke = "black" />    <circle cx="250" cy = "648" r = "10.33057851239669" stroke = "black" stroke-width = "6" fill = "black" />
	<path d = "M250 524 L255 524 L255 529 L255 534 L260 534 L255 539 L250 545 L245 539 L240 534 L245 534 L245 529 L245 524 L250 524 Z" stroke = "black" stroke-width = "6" fill = "black" />	<path d = "M250 400 L255 400 L255 405 L255 410 L260 410 L255 415 L250 421 L245 415 L240 410 L245 410 L245 405 L245 400 L250 400 Z" stroke = "black" stroke-width = "6" fill = "black" />	<path d = "M333 255 L340 263 L333 270 L325 277 L333 285 L318 285 L303 285 L303 270 L303 255 L311 263 L318 255 L325 248 L333 255 Z" stroke = "black" stroke-width = "6" fill = "black" />	<path d = "M167 255 L175 248 L182 255 L189 263 L197 255 L197 270 L197 285 L182 285 L167 285 L175 277 L167 270 L160 263 L167 255 Z" stroke = "black" stroke-width = "6" fill = "black" />	<path d = "M147 193 L147 204 L156 199 L165 193 L156 188 L147 183 L147 193 Z" stroke = "black" stroke-width = "6" fill = "black" />	<path d = "M209 162 L198 162 L204 171 L209 180 L214 171 L219 162 L209 162 Z" stroke = "black" stroke-width = "6" fill = "black" /></svg>