<svg width="600" height="800" viewbox = "0 0 600 800"  xmlns="http://www.w3.org/2000/svg">

<!--
<json>
{
    "imgurl": "",
    "imgw": 4.743971328437736,
    "imgleft": -2.2873205904167726,
    "imgtop": -3.171985664218851,
    "imgangle": 0,
    "svgwidth": 600,
    "svgheight": 800,
    "unit": 90.9090909090909,
    "x0": 684,
    "y0": 454,
    "x0rel": 0,
    "y0rel": 55,
    "glyph": "0330,0332,0330,0332,0330,0330,0331,0331,0333,0336,0333,0237,0330,0330,0332,0332,0331,0331,0332,0245,0333,0335,0336,0332,0336,0330,0337,0220,0334,0330,0330,0330,0330,0333,0333,0333,0336,0333,0330,0330,0337,0337,0244,0335,0335,0330,0336,0336,0330,0337,0220,0330,0330,0330,0331,0330,0330,0330,0330,0332,0332,0350,0334,0304,0220,0350,0334,0304,0330,0330,0330,0330,0335,0350,0335,0304,0220,0350,0335,0304,0335,0333,0333,0336,0331,0337,0337,0330,0242,0330,0330,0330,0246,0335,0335,0330,0336,0331,0336,0330,0337,0220,0337,0337,0335,0335,0331,0331,0331,0332,0336,0330,0236,0331,0335,0335,0336,0220,0330,0330,0337,0335,0335,0331,0336,0331,0337,0243,0331,0335,0335,0336,0330,0220,0330,0330,0335,0335,0337,0331,0331,0336,0330,0337,0241,",
    "table": []
}
</json>
-->
	<path d = "M209 273 L209 250 L209 228 M209.09090909090912 227.7272727272728           A22.727272727272727 22.727272727272727 0 0 1 231.81818181818184 205.00000000000009L255 205 L277 205 M277.2727272727273 205.00000000000009           A22.727272727272727 22.727272727272727 0 0 1 300.00000000000006 227.7272727272728L300 250 L300 273 M300.00000000000006 273.18181818181824           A22.727272727272727 22.727272727272727 0 0 1 277.2727272727273 295.909090909091L255 296 L232 296 M231.81818181818187 295.909090909091           A22.727272727272727 22.727272727272727 0 0 1 209.09090909090915 273.18181818181824" stroke = "black" stroke-width = "4" fill = "none" />    <circle cx="255" cy = "262" r = "2.840909090909091" stroke = "black" stroke-width = "4" fill = "black" />
    <circle cx="255" cy = "228" r = "2.840909090909091" stroke = "black" stroke-width = "4" fill = "black" />
	<path d = "M255 273 L253 273 L253 250 L256 250 L256 273 L255 273 Z" stroke = "black" stroke-width = "4" fill = "black" />	<path d = "M255 273 L255 272 L277 272 L277 275 L255 275 L255 273 Z" stroke = "black" stroke-width = "4" fill = "black" />	<path d = "M255 273 L255 275 L232 275 L232 272 L255 272 L255 273 Z" stroke = "black" stroke-width = "4" fill = "black" />	<path d = "M73 273 L73 250 L73 228 M72.72727272727334 227.72727272727116           A22.727272727272727 22.727272727272727 0 0 1 95.45454545454632 204.99999999999866L118 205 L141 205 M140.90909090909176 204.99999999999923           A22.727272727272727 22.727272727272727 0 0 1 163.6363636363643 227.72727272727218L164 250 L164 273 M163.63636363636397 273.1818181818178           A22.727272727272727 22.727272727272727 0 0 1 140.90909090909108 295.9090909090903L118 296 L95 296 M95.4545454545454 295.9090909090902           A22.727272727272727 22.727272727272727 0 0 1 72.72727272727283 273.1818181818174" stroke = "black" stroke-width = "4" fill = "none" />	<path d = "M118 285 L118 268 L101 268 L101 285 L118 285 Z" stroke = "red" stroke-width = "4" fill = "red" />	<path d = "M118 285 L118 268 L101 268 L101 285 L118 285 Z" stroke = "black" stroke-width = "4" fill = "none" />	<path d = "M118 259 L118 242 L101 242 L101 259 L118 259 Z" stroke = "yellow" stroke-width = "1" fill = "yellow" />	<path d = "M118 259 L118 242 L101 242 L101 259 L118 259 Z" stroke = "black" stroke-width = "4" fill = "none" />	<path d = "M118 233 L118 216 L101 216 L101 233 L118 233 Z" stroke = "blue" stroke-width = "1" fill = "blue" />	<path d = "M118 233 L118 216 L101 216 L101 233 L118 233 Z" stroke = "black" stroke-width = "4" fill = "none" />    <line x1="127" y1="225" x2="144" y2="225" style="stroke:blue;stroke-width:1" />
    <line x1="127" y1="251" x2="144" y2="251" style="stroke:yellow;stroke-width:1" />
    <line x1="127" y1="276" x2="144" y2="276" style="stroke:red;stroke-width:4" />
	<path d = "M175 250 L175 245 L181 245 L186 245 L186 239 L192 245 L198 250 L192 256 L186 262 L186 256 L181 256 L175 256 L175 250 Z" stroke = "black" stroke-width = "4" fill = "black" />	<path d = "M209 137 L209 114 L209 91 M209.090909090905 91.36363636363305           A22.72727272727273 22.72727272727273 0 0 1 231.81818181817718 68.63636363635979L255 69 L277 69 M277.27272727272265 68.63636363635874           A22.72727272727273 22.72727272727273 0 0 1 299.9999999999959 91.36363636363095L300 114 L300 137 M299.99999999999693 136.81818181817638           A22.72727272727273 22.72727272727273 0 0 1 277.2727272727247 159.54545454544962L255 160 L232 160 M231.8181818181793 159.54545454545058           A22.72727272727273 22.72727272727273 0 0 1 209.09090909090608 136.81818181817835" stroke = "black" stroke-width = "4" fill = "none" />	<path d = "M272 131 L272 97 L237 97 L237 131 L272 131 Z" stroke = "black" stroke-width = "4" fill = "none" />	<path d = "M289 149 L289 79 L220 79 L220 149 L289 149 Z" stroke = "black" stroke-width = "4" fill = "none" />    <line x1="289" y1="149" x2="272" y2="131" style="stroke:black;stroke-width:4" />
    <line x1="289" y1="79" x2="272" y2="97" style="stroke:black;stroke-width:4" />
    <line x1="220" y1="79" x2="237" y2="97" style="stroke:black;stroke-width:4" />
    <line x1="220" y1="149" x2="237" y2="131" style="stroke:black;stroke-width:4" />
	<path d = "M255 171 L260 171 L260 177 L260 182 L266 182 L260 188 L255 194 L249 188 L243 182 L249 182 L249 177 L249 171 L255 171 Z" stroke = "black" stroke-width = "4" fill = "black" />	<path d = "M300 307 L304 303 L308 307 L312 311 L316 307 L316 315 L316 323 L308 323 L300 323 L304 319 L300 315 L296 311 L300 307 Z" stroke = "black" stroke-width = "4" fill = "black" />	<path d = "M391 307 L395 311 L391 315 L387 319 L391 323 L383 323 L375 323 L375 315 L375 307 L379 311 L383 307 L387 303 L391 307 Z" stroke = "black" stroke-width = "4" fill = "black" />	<path d = "M391 273 L391 250 L391 228 M390.90909090909014 227.72727272726613           A22.727272727272734 22.727272727272734 0 0 1 413.6363636363625 204.99999999999295L436 205 L459 205 M459.09090909090787 204.99999999999227           A22.727272727272734 22.727272727272734 0 0 1 481.818181818181 227.72727272726468L482 250 L482 273 M481.8181818181816 273.1818181818101           A22.727272727272734 22.727272727272734 0 0 1 459.0909090909091 295.9090909090832L436 296 L414 296 M413.6363636363637 295.9090909090838           A22.727272727272734 22.727272727272734 0 0 1 390.90909090909065 273.1818181818113" stroke = "black" stroke-width = "4" fill = "none" />	<path d = "M397 273 L397 233 L436 233 L476 233 L476 273 L436 273 L397 273 Z" stroke = "black" stroke-width = "4" fill = "none" />    <circle cx="436" cy = "253" r = "17.36209142045933" stroke = "black" stroke-width = "4" fill = "none" />
    <circle cx="436" cy = "253" r = "8.681045710229665" stroke = "black" stroke-width = "4" fill = "none" />
    <circle cx="407" cy = "243" r = "4.9660911869184226" stroke = "black" stroke-width = "4" fill = "none" />
	<path d = "M416 233 L426 224 L436 224 L446 224 L456 233 " stroke = "black" stroke-width = "4" fill = "none" />	<path d = "M391 137 L391 114 L391 91 M390.90909090908946 91.36363636362972           A22.727272727272734 22.727272727272734 0 0 1 413.63636363636203 68.6363636363568L436 69 L459 69 M459.09090909090753 68.63636363635658           A22.727272727272734 22.727272727272734 0 0 1 481.81818181818045 91.3636363636292L482 114 L482 137 M481.8181818181808 136.81818181817482           A22.727272727272734 22.727272727272734 0 0 1 459.0909090909082 159.54545454544768L436 160 L414 160 M413.6363636363625 159.54545454544825           A22.727272727272734 22.727272727272734 0 0 1 390.90909090908957 136.8181818181758" stroke = "black" stroke-width = "4" fill = "none" />    <text x="414" y = "103" fill = "black" font-size = "22.727272727272734px" font-family = "arial">ABC</text>
	<path d = "M436 114 L442 114 L442 120 L442 125 L448 125 L442 131 L436 137 L431 131 L425 125 L431 125 L431 120 L431 114 L436 114 Z" stroke = "black" stroke-width = "4" fill = "black" />	<path d = "M436 171 L442 171 L442 177 L442 182 L448 182 L442 188 L436 194 L431 188 L425 182 L431 182 L431 177 L431 171 L436 171 Z" stroke = "black" stroke-width = "4" fill = "black" />	<path d = "M300 398 L300 375 L300 353 M300.00000000000506 352.72727272727053           A22.727272727272734 22.727272727272734 0 0 1 322.72727272727707 329.99999999999716L345 330 L368 330 M368.1818181818226 329.99999999999545           A22.727272727272734 22.727272727272734 0 0 1 390.9090909090961 352.72727272726735L391 375 L391 398 M390.9090909090977 398.1818181818131           A22.727272727272734 22.727272727272734 0 0 1 368.18181818182575 420.90909090908656L345 421 L323 421 M322.72727272727997 420.9090909090885           A22.727272727272734 22.727272727272734 0 0 1 300.0000000000064 398.1818181818167" stroke = "black" stroke-width = "4" fill = "none" />	<path d = "M345 410 L360 410 L360 395 L375 380 L375 365 L360 365 L345 365 L331 365 L316 365 L316 380 L331 395 L331 410 L345 410 Z" stroke = "black" stroke-width = "4" fill = "none" />	<path d = "M331 343 L334 343 L334 346 L334 350 L338 350 L334 354 L331 357 L327 354 L323 350 L327 350 L327 346 L327 343 L331 343 Z" stroke = "black" stroke-width = "4" fill = "black" />	<path d = "M360 343 L364 343 L364 346 L364 350 L368 350 L364 354 L360 357 L357 354 L353 350 L357 350 L357 346 L357 343 L360 343 Z" stroke = "black" stroke-width = "4" fill = "black" />	<path d = "M345 387 L349 387 L349 391 L349 395 L353 395 L349 398 L345 402 L342 398 L338 395 L342 395 L342 391 L342 387 L345 387 Z" stroke = "black" stroke-width = "4" fill = "black" />	<path d = "M345 372 L342 372 L344 376 L345 379 L347 376 L349 372 L345 372 Z" stroke = "black" stroke-width = "4" fill = "black" />	<path d = "M331 372 L327 372 L329 376 L331 379 L332 376 L334 372 L331 372 Z" stroke = "black" stroke-width = "4" fill = "black" />	<path d = "M360 372 L357 372 L358 376 L360 379 L362 376 L364 372 L360 372 Z" stroke = "black" stroke-width = "4" fill = "black" />	<path d = "M345 444 L351 444 L351 449 L351 455 L357 455 L351 461 L345 466 L340 461 L334 455 L340 455 L340 449 L340 444 L345 444 Z" stroke = "black" stroke-width = "4" fill = "black" />	<path d = "M300 557 L300 535 L300 512 M300.00000000003865 511.8181818181906           A22.727272727272734 22.727272727272734 0 0 1 322.7272727273055 489.0909090909121L345 489 L368 489 M368.18181818185127 489.0909090909           A22.727272727272734 22.727272727272734 0 0 1 390.90909090912993 511.81818181816675L391 535 L391 557 M390.9090909091423 557.2727272727125           A22.727272727272734 22.727272727272734 0 0 1 368.18181818187577 579.9999999999912L345 580 L323 580 M322.72727272733005 580.0000000000038           A22.727272727272734 22.727272727272734 0 0 1 300.0000000000511 557.2727272727373" stroke = "black" stroke-width = "4" fill = "none" />	<path d = "M358 513 L358 518 L354 518 L350 518 L350 522 L345 518 L341 513 L345 509 L350 505 L350 509 L354 509 L358 509 L358 513 Z" stroke = "black" stroke-width = "4" fill = "black" />	<path d = "M358 513 L358 509 L362 509 L367 509 L367 505 L371 509 L375 513 L371 518 L367 522 L367 518 L362 518 L358 518 L358 513 Z" stroke = "black" stroke-width = "4" fill = "black" />	<path d = "M324 547 L328 547 L328 552 L328 556 L333 556 L328 560 L324 564 L320 560 L316 556 L320 556 L320 552 L320 547 L324 547 Z" stroke = "black" stroke-width = "4" fill = "black" />	<path d = "M324 547 L320 547 L320 543 L320 539 L316 539 L320 535 L324 530 L328 535 L333 539 L328 539 L328 543 L328 547 L324 547 Z" stroke = "black" stroke-width = "4" fill = "black" />	<path d = "M333 522 L333 505 L316 505 L316 522 L333 522 Z" stroke = "black" stroke-width = "4" fill = "none" />	<path d = "M379 569 L379 501 L311 501 L311 569 L379 569 Z" stroke = "black" stroke-width = "4" fill = "none" />	<path d = "M345 603 L351 603 L351 608 L351 614 L357 614 L351 620 L345 625 L340 620 L334 614 L340 614 L340 608 L340 603 L345 603 Z" stroke = "black" stroke-width = "4" fill = "black" />	<path d = "M300 716 L300 694 L300 671 M300.0000000000918 670.9090909091033           A22.727272727272734 22.727272727272734 0 0 1 322.7272727273562 648.1818181818222L345 648 L368 648 M368.181818181902 648.1818181818052           A22.727272727272734 22.727272727272734 0 0 1 390.9090909091831 670.9090909090694L391 694 L391 716 M390.90909090920036 716.3636363636151           A22.727272727272734 22.727272727272734 0 0 1 368.18181818193625 739.0909090908964L345 739 L323 739 M322.7272727273905 739.0909090909139           A22.727272727272734 22.727272727272734 0 0 1 300.00000000010914 716.3636363636499" stroke = "black" stroke-width = "4" fill = "none" /><path    d = "M345,682 C336,677 355,654 345,648" fill = "none" stroke-width = "4" stroke = "black" /><path    d = "M355,688 C355,677 385,682 385,671" fill = "none" stroke-width = "4" stroke = "black" /><path    d = "M355,699 C365,694 375,722 385,716" fill = "none" stroke-width = "4" stroke = "black" /><path    d = "M345,705 C355,711 336,733 345,739" fill = "none" stroke-width = "4" stroke = "black" /><path    d = "M336,699 C336,711 306,705 306,716" fill = "none" stroke-width = "4" stroke = "black" /><path    d = "M336,688 C326,694 316,665 306,671" fill = "none" stroke-width = "4" stroke = "black" />    <circle cx="345" cy = "694" r = "5.681818181818183" stroke = "black" stroke-width = "4" fill = "black" />
</svg>