<svg width="800" height="800" viewbox = "0 0 800 800"  xmlns="http://www.w3.org/2000/svg">

<!--
<json>
{
    "imgurl": "",
    "imgw": 4.743971328437736,
    "imgleft": -2.2873205904167726,
    "imgtop": -3.171985664218851,
    "imgangle": 0,
    "svgwidth": 800,
    "svgheight": 800,
    "unit": 68.30134553650706,
    "x0": 684,
    "y0": 399,
    "x0rel": 0,
    "y0rel": 0,
    "glyph": "0330,0330,0330,0331,0331,0331,0333,0333,0331,0210,0332,0330,0332,0331,0236,0330,0330,0332,0332,0332,0332,0333,0333,0237,0333,0333,0330,0330,0332,0332,0332,0332,0332,0331,0245,0333,0333,0333,0333,0333,0333,0333,0331,0332,0333,0242,0333,0331,0331,0331,0331,0332,0332,0332,0332,0331,0333,0243,0333,0333,0330,0330,0330,0330,0330,0330,0332,0332,0332,0330,0332,0244,",
    "table": []
}
</json>
-->
	<path d = "M358 468 L358 438 L358 409 M357.50999612779674 408.6037805547679           A29.848782490869546 29.848782490869546 0 0 1 387.3587786186663 378.75499806389837L417 379 L447 379 M447.0563436004054 378.75499806389837           A29.848782490869546 29.848782490869546 0 0 1 476.90512609127495 408.6037805547679L477 438 L477 468 M476.90512609127495 468.30134553650703           A29.848782490869546 29.848782490869546 0 0 1 447.0563436004054 498.1501280273766L417 498 L387 498 M387.3587786186663 498.1501280273766           A29.848782490869546 29.848782490869546 0 0 1 357.50999612779674 468.30134553650703Z" stroke = "black" stroke-width = "6" fill = "none" />	<path d = "M417 483 L437 483 L437 464 L456 444 L456 425 L437 425 L417 425 L398 425 L378 425 L378 444 L398 464 L398 483 L417 483 Z" stroke = "black" stroke-width = "6" fill = "none" />	<path d = "M398 395 L403 395 L403 400 L403 405 L407 405 L403 410 L398 415 L393 410 L388 405 L393 405 L393 400 L393 395 L398 395 Z" stroke = "black" stroke-width = "6" fill = "black" />	<path d = "M437 395 L442 395 L442 400 L442 405 L447 405 L442 410 L437 415 L432 410 L427 405 L432 405 L432 400 L432 395 L437 395 Z" stroke = "black" stroke-width = "6" fill = "black" />	<path d = "M417 454 L422 454 L422 459 L422 464 L427 464 L422 469 L417 473 L412 469 L407 464 L412 464 L412 459 L412 454 L417 454 Z" stroke = "black" stroke-width = "6" fill = "black" />	<path d = "M417 434 L412 434 L415 439 L417 443 L420 439 L422 434 L417 434 Z" stroke = "black" stroke-width = "6" fill = "black" />	<path d = "M398 434 L393 434 L395 439 L398 443 L400 439 L403 434 L398 434 Z" stroke = "black" stroke-width = "6" fill = "black" />	<path d = "M437 434 L432 434 L434 439 L437 443 L439 439 L442 434 L437 434 Z" stroke = "black" stroke-width = "6" fill = "black" />	<path d = "M238 349 L238 319 L238 289 M238.11486616432023 289.2086505912874           A29.848782490869546 29.848782490869546 0 0 1 267.9636486551902 259.3598681004182L298 259 L328 259 M327.6612136369293 259.359868100419           A29.848782490869546 29.848782490869546 0 0 1 357.50999612779844 289.208650591289L358 319 L358 349 M357.50999612779765 348.9062155730281           A29.848782490869546 29.848782490869546 0 0 1 327.6612136369277 378.75499806389723L298 379 L268 379 M267.96364865518865 378.75499806389644           A29.848782490869546 29.848782490869546 0 0 1 238.1148661643195 348.9062155730265Z" stroke = "black" stroke-width = "6" fill = "none" />    <circle cx="298" cy = "334" r = "3.7310978113586932" stroke = "black" stroke-width = "6" fill = "black" />
    <circle cx="298" cy = "289" r = "3.7310978113586932" stroke = "black" stroke-width = "6" fill = "black" />
	<path d = "M298 349 L296 349 L296 319 L300 319 L300 349 L298 349 Z" stroke = "black" stroke-width = "6" fill = "black" />	<path d = "M298 349 L298 347 L328 347 L328 351 L298 351 L298 349 Z" stroke = "black" stroke-width = "6" fill = "black" />	<path d = "M298 349 L298 351 L268 351 L268 347 L298 347 L298 349 Z" stroke = "black" stroke-width = "6" fill = "black" />	<path d = "M59 289 L59 259 L59 230 M59.02217121910602 229.5110856095422           A29.848782490869546 29.848782490869546 0 0 1 88.87095370997653 199.66230311867378L119 200 L149 200 M148.56851869171595 199.66230311867537           A29.848782490869546 29.848782490869546 0 0 1 178.41730118258454 229.51108560954572L178 259 L178 289 M178.41730118258323 289.20865059128516           A29.848782490869546 29.848782490869546 0 0 1 148.56851869171302 319.0574330821539L119 319 L89 319 M88.8709537099736 319.057433082153           A29.848782490869546 29.848782490869546 0 0 1 59.0221712191047 289.208650591283Z" stroke = "black" stroke-width = "6" fill = "none" />	<path d = "M119 304 L119 282 L96 282 L96 304 L119 304 Z" stroke = "red" stroke-width = "6" fill = "red" />	<path d = "M119 304 L119 282 L96 282 L96 304 L119 304 Z" stroke = "black" stroke-width = "6" fill = "none" />	<path d = "M119 271 L119 248 L96 248 L96 271 L119 271 Z" stroke = "yellow" stroke-width = "6" fill = "yellow" />	<path d = "M119 271 L119 248 L96 248 L96 271 L119 271 Z" stroke = "black" stroke-width = "6" fill = "none" />	<path d = "M119 237 L119 215 L96 215 L96 237 L119 237 Z" stroke = "blue" stroke-width = "6" fill = "blue" />	<path d = "M119 237 L119 215 L96 215 L96 237 L119 237 Z" stroke = "black" stroke-width = "6" fill = "none" />    <line x1="130" y1="226" x2="152" y2="226" style="stroke:blue;stroke-width:6" />
    <line x1="130" y1="259" x2="152" y2="259" style="stroke:yellow;stroke-width:6" />
    <line x1="130" y1="293" x2="152" y2="293" style="stroke:red;stroke-width:6" />
	<path d = "M477 349 L477 319 L477 289 M476.9051260912787 289.2086505912775           A29.848782490869546 29.848782490869546 0 0 1 506.7539085821478 259.3598681004075L537 259 L566 259 M566.4514735638869 259.35986810040646           A29.848782490869546 29.848782490869546 0 0 1 596.3002560547569 289.2086505912755L596 319 L596 349 M596.3002560547578 348.9062155730146           A29.848782490869546 29.848782490869546 0 0 1 566.4514735638887 378.7549980638846L537 379 L507 379 M506.7539085821497 378.7549980638855           A29.848782490869546 29.848782490869546 0 0 1 476.90512609127967 348.9062155730164Z" stroke = "black" stroke-width = "6" fill = "none" />	<path d = "M484 349 L484 297 L537 297 L589 297 L589 349 L537 349 L484 349 Z" stroke = "black" stroke-width = "6" fill = "none" />    <circle cx="537" cy = "323" r = "22.802440777418838" stroke = "black" stroke-width = "6" fill = "none" />
    <circle cx="537" cy = "323" r = "11.401220388709419" stroke = "black" stroke-width = "6" fill = "none" />
    <circle cx="497" cy = "310" r = "6.522198129398693" stroke = "black" stroke-width = "6" fill = "none" />
	<path d = "M511 297 L524 284 L537 284 L550 284 L563 297 " stroke = "black" stroke-width = "6" fill = "none" />	<path d = "M358 647 L358 618 L358 588 M357.50999612780447 587.6964754999739           A29.848782490869542 29.848782490869542 0 0 1 387.3587786186736 557.8476930091039L417 558 L447 558 M447.0563436004126 557.8476930091032           A29.848782490869542 29.848782490869542 0 0 1 476.90512609128257 587.6964754999724L477 618 L477 647 M476.90512609128314 647.3940404817114           A29.848782490869542 29.848782490869542 0 0 1 447.05634360041387 677.2428229725813L417 677 L387 677 M387.3587786186749 677.2428229725817           A29.848782490869542 29.848782490869542 0 0 1 357.50999612780504 647.3940404817124Z" stroke = "black" stroke-width = "6" fill = "none" />	<path d = "M434 590 L434 595 L428 595 L423 595 L423 601 L417 595 L412 590 L417 584 L423 578 L423 584 L428 584 L434 584 L434 590 Z" stroke = "black" stroke-width = "6" fill = "black" />	<path d = "M434 590 L434 584 L440 584 L445 584 L445 578 L451 584 L456 590 L451 595 L445 601 L445 595 L440 595 L434 595 L434 590 Z" stroke = "black" stroke-width = "6" fill = "black" />	<path d = "M389 634 L395 634 L395 640 L395 645 L400 645 L395 651 L389 657 L384 651 L378 645 L384 645 L384 640 L384 634 L389 634 Z" stroke = "black" stroke-width = "6" fill = "black" />	<path d = "M389 634 L384 634 L384 629 L384 623 L378 623 L384 618 L389 612 L395 618 L400 623 L395 623 L395 629 L395 634 L389 634 Z" stroke = "black" stroke-width = "6" fill = "black" />	<path d = "M400 601 L400 578 L378 578 L378 601 L400 601 Z" stroke = "black" stroke-width = "6" fill = "none" />	<path d = "M462 662 L462 573 L373 573 L373 662 L462 662 Z" stroke = "black" stroke-width = "6" fill = "none" />	<path d = "M238 200 L238 170 L238 140 M238.1148661643009 139.96473813693876           A29.84878249086954 29.84878249086954 0 0 1 267.96364865516887 110.1159556460678L298 110 L328 110 M327.66121363690826 110.11595564606434           A29.84878249086954 29.84878249086954 0 0 1 357.5099961277794 139.96473813693214L358 170 L358 200 M357.50999612778315 199.66230311867156           A29.84878249086954 29.84878249086954 0 0 1 327.6612136369155 229.51108560954282L298 230 L268 230 M267.96364865517603 229.51108560954697           A29.84878249086954 29.84878249086954 0 0 1 238.1148661643046 199.6623031186795Z" stroke = "black" stroke-width = "6" fill = "none" />	<path d = "M321 193 L321 147 L275 147 L275 193 L321 193 Z" stroke = "black" stroke-width = "6" fill = "none" />	<path d = "M343 215 L343 124 L252 124 L252 215 L343 215 Z" stroke = "black" stroke-width = "6" fill = "none" />    <line x1="343" y1="215" x2="321" y2="193" style="stroke:black;stroke-width:6" />
    <line x1="343" y1="124" x2="321" y2="147" style="stroke:black;stroke-width:6" />
    <line x1="252" y1="124" x2="275" y2="147" style="stroke:black;stroke-width:6" />
    <line x1="252" y1="215" x2="275" y2="193" style="stroke:black;stroke-width:6" />
</svg>