<svg width="800" height="800" viewbox = "0 0 800 800"  xmlns="http://www.w3.org/2000/svg">

<!--
<json>
{
    "imgurl": "",
    "imgw": 4.743971328437736,
    "imgleft": -2.2873205904167726,
    "imgtop": -3.171985664218851,
    "imgangle": 0,
    "svgwidth": 800,
    "svgheight": 800,
    "unit": 68.30134553650706,
    "x0": 684,
    "y0": 399,
    "x0rel": 0,
    "y0rel": 0,
    "glyph": "0330,0330,0330,0330,0331,0331,0331,0333,0333,0331,0210,0332,0330,0332,0331,0236,0330,0330,0332,0332,0332,0332,0333,0333,0237,0333,0333,0330,0330,0332,0332,0332,0332,0332,0331,0245,0333,0333,0333,0333,0333,0333,0333,0331,0332,0333,0242,0333,0331,0331,0331,0331,0332,0332,0332,0332,0331,0333,0243,0333,0333,0330,0330,0330,0330,0330,0330,0332,0332,0332,0330,0332,0244,0331,0331,0331,0331,0331,0331,0331,0331,0331,0331,0333,0333,0331,0336,0330,0337,0241,",
    "table": []
}
</json>
-->
	<path d = "M358 400 L358 370 L358 340 M357.50999612779674 340.3024350182609           A29.848782490869546 29.848782490869546 0 0 1 387.3587786186663 310.45365252739134L417 310 L447 310 M447.0563436004054 310.45365252739134           A29.848782490869546 29.848782490869546 0 0 1 476.90512609127495 340.3024350182609L477 370 L477 400 M476.90512609127495 400           A29.848782490869546 29.848782490869546 0 0 1 447.0563436004054 429.84878249086955L417 430 L387 430 M387.3587786186663 429.84878249086955           A29.848782490869546 29.848782490869546 0 0 1 357.50999612779674 400Z" stroke = "black" stroke-width = "6" fill = "none" />	<path d = "M417 415 L437 415 L437 395 L456 376 L456 356 L437 356 L417 356 L398 356 L378 356 L378 376 L398 395 L398 415 L417 415 Z" stroke = "black" stroke-width = "6" fill = "none" />	<path d = "M398 327 L403 327 L403 332 L403 337 L407 337 L403 342 L398 347 L393 342 L388 337 L393 337 L393 332 L393 327 L398 327 Z" stroke = "black" stroke-width = "6" fill = "black" />	<path d = "M437 327 L442 327 L442 332 L442 337 L447 337 L442 342 L437 347 L432 342 L427 337 L432 337 L432 332 L432 327 L437 327 Z" stroke = "black" stroke-width = "6" fill = "black" />	<path d = "M417 386 L422 386 L422 391 L422 395 L427 395 L422 400 L417 405 L412 400 L407 395 L412 395 L412 391 L412 386 L417 386 Z" stroke = "black" stroke-width = "6" fill = "black" />	<path d = "M417 366 L412 366 L415 370 L417 375 L420 370 L422 366 L417 366 Z" stroke = "black" stroke-width = "6" fill = "black" />	<path d = "M398 366 L393 366 L395 370 L398 375 L400 370 L403 366 L398 366 Z" stroke = "black" stroke-width = "6" fill = "black" />	<path d = "M437 366 L432 366 L434 370 L437 375 L439 370 L442 366 L437 366 Z" stroke = "black" stroke-width = "6" fill = "black" />	<path d = "M238 281 L238 251 L238 221 M238.11486616432023 220.90730505478035           A29.848782490869546 29.848782490869546 0 0 1 267.9636486551902 191.0585225639112L298 191 L328 191 M327.6612136369293 191.058522563912           A29.848782490869546 29.848782490869546 0 0 1 357.50999612779844 220.90730505478194L358 251 L358 281 M357.50999612779765 280.60487003652105           A29.848782490869546 29.848782490869546 0 0 1 327.6612136369277 310.4536525273902L298 310 L268 310 M267.96364865518865 310.4536525273894           A29.848782490869546 29.848782490869546 0 0 1 238.1148661643195 280.60487003651946Z" stroke = "black" stroke-width = "6" fill = "none" />    <circle cx="298" cy = "266" r = "3.7310978113586932" stroke = "black" stroke-width = "6" fill = "black" />
    <circle cx="298" cy = "221" r = "3.7310978113586932" stroke = "black" stroke-width = "6" fill = "black" />
	<path d = "M298 281 L296 281 L296 251 L300 251 L300 281 L298 281 Z" stroke = "black" stroke-width = "6" fill = "black" />	<path d = "M298 281 L298 279 L328 279 L328 282 L298 282 L298 281 Z" stroke = "black" stroke-width = "6" fill = "black" />	<path d = "M298 281 L298 282 L268 282 L268 279 L298 279 L298 281 Z" stroke = "black" stroke-width = "6" fill = "black" />	<path d = "M59 221 L59 191 L59 161 M59.02217121910602 161.20974007303516           A29.848782490869546 29.848782490869546 0 0 1 88.87095370997653 131.36095758216675L119 131 L149 131 M148.56851869171595 131.36095758216834           A29.848782490869546 29.848782490869546 0 0 1 178.41730118258454 161.2097400730387L178 191 L178 221 M178.41730118258323 220.9073050547781           A29.848782490869546 29.848782490869546 0 0 1 148.56851869171302 250.75608754564686L119 251 L89 251 M88.8709537099736 250.7560875456459           A29.848782490869546 29.848782490869546 0 0 1 59.0221712191047 220.90730505477586Z" stroke = "black" stroke-width = "6" fill = "none" />	<path d = "M119 236 L119 213 L96 213 L96 236 L119 236 Z" stroke = "red" stroke-width = "6" fill = "red" />	<path d = "M119 236 L119 213 L96 213 L96 236 L119 236 Z" stroke = "black" stroke-width = "6" fill = "none" />	<path d = "M119 202 L119 180 L96 180 L96 202 L119 202 Z" stroke = "yellow" stroke-width = "6" fill = "yellow" />	<path d = "M119 202 L119 180 L96 180 L96 202 L119 202 Z" stroke = "black" stroke-width = "6" fill = "none" />	<path d = "M119 169 L119 146 L96 146 L96 169 L119 169 Z" stroke = "blue" stroke-width = "6" fill = "blue" />	<path d = "M119 169 L119 146 L96 146 L96 169 L119 169 Z" stroke = "black" stroke-width = "6" fill = "none" />    <line x1="130" y1="158" x2="152" y2="158" style="stroke:blue;stroke-width:6" />
    <line x1="130" y1="191" x2="152" y2="191" style="stroke:yellow;stroke-width:6" />
    <line x1="130" y1="225" x2="152" y2="225" style="stroke:red;stroke-width:6" />
	<path d = "M477 281 L477 251 L477 221 M476.9051260912787 220.9073050547704           A29.848782490869546 29.848782490869546 0 0 1 506.7539085821478 191.05852256390037L537 191 L566 191 M566.4514735638869 191.0585225638994           A29.848782490869546 29.848782490869546 0 0 1 596.3002560547569 220.90730505476847L596 251 L596 281 M596.3002560547578 280.6048700365076           A29.848782490869546 29.848782490869546 0 0 1 566.4514735638887 310.4536525273776L537 310 L507 310 M506.7539085821497 310.4536525273785           A29.848782490869546 29.848782490869546 0 0 1 476.90512609127967 280.6048700365094Z" stroke = "black" stroke-width = "6" fill = "none" />	<path d = "M484 281 L484 228 L537 228 L589 228 L589 281 L537 281 L484 281 Z" stroke = "black" stroke-width = "6" fill = "none" />    <circle cx="537" cy = "255" r = "22.802440777418838" stroke = "black" stroke-width = "6" fill = "none" />
    <circle cx="537" cy = "255" r = "11.401220388709419" stroke = "black" stroke-width = "6" fill = "none" />
    <circle cx="497" cy = "241" r = "6.522198129398693" stroke = "black" stroke-width = "6" fill = "none" />
	<path d = "M511 228 L524 215 L537 215 L550 215 L563 228 " stroke = "black" stroke-width = "6" fill = "none" />	<path d = "M358 579 L358 549 L358 519 M357.50999612780447 519.395129963467           A29.848782490869542 29.848782490869542 0 0 1 387.3587786186736 489.54634747259695L417 490 L447 490 M447.0563436004126 489.54634747259627           A29.848782490869542 29.848782490869542 0 0 1 476.90512609128257 519.3951299634655L477 549 L477 579 M476.90512609128314 579.0926949452045           A29.848782490869542 29.848782490869542 0 0 1 447.05634360041387 608.9414774360744L417 609 L387 609 M387.3587786186749 608.9414774360748           A29.848782490869542 29.848782490869542 0 0 1 357.50999612780504 579.0926949452055Z" stroke = "black" stroke-width = "6" fill = "none" />	<path d = "M434 521 L434 527 L428 527 L423 527 L423 532 L417 527 L412 521 L417 516 L423 510 L423 516 L428 516 L434 516 L434 521 Z" stroke = "black" stroke-width = "6" fill = "black" />	<path d = "M434 521 L434 516 L440 516 L445 516 L445 510 L451 516 L456 521 L451 527 L445 532 L445 527 L440 527 L434 527 L434 521 Z" stroke = "black" stroke-width = "6" fill = "black" />	<path d = "M389 566 L395 566 L395 572 L395 577 L400 577 L395 583 L389 588 L384 583 L378 577 L384 577 L384 572 L384 566 L389 566 Z" stroke = "black" stroke-width = "6" fill = "black" />	<path d = "M389 566 L384 566 L384 560 L384 555 L378 555 L384 549 L389 544 L395 549 L400 555 L395 555 L395 560 L395 566 L389 566 Z" stroke = "black" stroke-width = "6" fill = "black" />	<path d = "M400 532 L400 510 L378 510 L378 532 L400 532 Z" stroke = "black" stroke-width = "6" fill = "none" />	<path d = "M462 594 L462 505 L373 505 L373 594 L462 594 Z" stroke = "black" stroke-width = "6" fill = "none" />	<path d = "M238 131 L238 102 L238 72 M238.1148661643009 71.6633926004319           A29.84878249086954 29.84878249086954 0 0 1 267.96364865516887 41.814610109560945L298 42 L328 42 M327.66121363690826 41.814610109557464           A29.84878249086954 29.84878249086954 0 0 1 357.5099961277794 71.66339260042527L358 102 L358 131 M357.50999612778315 131.3609575821647           A29.84878249086954 29.84878249086954 0 0 1 327.6612136369155 161.20974007303596L298 161 L268 161 M267.96364865517603 161.2097400730401           A29.84878249086954 29.84878249086954 0 0 1 238.1148661643046 131.36095758217263Z" stroke = "black" stroke-width = "6" fill = "none" />	<path d = "M321 124 L321 79 L275 79 L275 124 L321 124 Z" stroke = "black" stroke-width = "6" fill = "none" />	<path d = "M343 147 L343 56 L252 56 L252 147 L343 147 Z" stroke = "black" stroke-width = "6" fill = "none" />    <line x1="343" y1="147" x2="321" y2="124" style="stroke:black;stroke-width:6" />
    <line x1="343" y1="56" x2="321" y2="79" style="stroke:black;stroke-width:6" />
    <line x1="252" y1="56" x2="275" y2="79" style="stroke:black;stroke-width:6" />
    <line x1="252" y1="147" x2="275" y2="124" style="stroke:black;stroke-width:6" />
	<path d = "M358 728 L358 698 L358 669 M357.50999612783465 668.6390424178145           A29.848782490869535 29.848782490869535 0 0 1 387.35877861870136 638.7902599269421L417 639 L447 639 M447.05634360044036 638.7902599269364           A29.848782490869535 29.848782490869535 0 0 1 476.90512609131275 668.6390424178031L477 698 L477 728 M476.9051260913182 728.3366073995421           A29.848782490869535 29.848782490869535 0 0 1 447.0563436004514 758.1853898904145L417 758 L387 758 M387.3587786187124 758.18538989042           A29.848782490869535 29.848782490869535 0 0 1 357.5099961278401 728.3366073995531Z" stroke = "black" stroke-width = "6" fill = "none" /><path    d = "M417,684 C404,676 430,646 417,639" fill = "none" stroke-width = "6" stroke = "black" /><path    d = "M430,691 C430,676 469,684 469,669" fill = "none" stroke-width = "6" stroke = "black" /><path    d = "M430,706 C443,698 456,736 469,728" fill = "none" stroke-width = "6" stroke = "black" /><path    d = "M417,713 C430,721 404,751 417,758" fill = "none" stroke-width = "6" stroke = "black" /><path    d = "M404,706 C404,721 366,713 366,728" fill = "none" stroke-width = "6" stroke = "black" /><path    d = "M404,691 C391,698 378,661 366,669" fill = "none" stroke-width = "6" stroke = "black" />    <circle cx="417" cy = "698" r = "7.462195622717384" stroke = "black" stroke-width = "6" fill = "black" />
</svg>