<svg width="200" height="200" viewbox = "0 0 200 200"  xmlns="http://www.w3.org/2000/svg">

<!--
<json>
{
    "imgurl": "",
    "imgw": 4.743971328437736,
    "imgleft": -2.2873205904167726,
    "imgtop": -3.171985664218851,
    "imgangle": 0,
    "svgwidth": 200,
    "svgheight": 200,
    "unit": 110.00000000000001,
    "x0": 684,
    "y0": 399,
    "x0rel": 0,
    "y0rel": 0,
    "glyph": "0336,0336,0331,0336,0336,0333,0331,0337,0337,0337,0337,0336,0260,",
    "table": []
}
</json>
-->
	<path d = "M52 107 L52 79 L52 52 L66 52 L66 38 L93 38 L93 52 L107 52 L107 79 L107 107 L93 107 L93 121 L66 121 L66 107 L52 107 Z" stroke = "white" stroke-width = "2" fill = "white" />    <circle cx="66" cy = "107" r = "13.750000000000002" stroke = "white" stroke-width = "2" fill = "white" />
    <circle cx="66" cy = "52" r = "13.750000000000002" stroke = "white" stroke-width = "2" fill = "white" />
    <circle cx="93" cy = "52" r = "13.750000000000002" stroke = "white" stroke-width = "2" fill = "white" />
    <circle cx="93" cy = "107" r = "13.750000000000002" stroke = "white" stroke-width = "2" fill = "white" />
	<path d = "M52 107 L52 79 L52 52 M51.874999999999986 51.875           A13.750000000000002 13.750000000000002 0 0 1 65.62499999999999 38.125L79 38 L93 38 M93.12499999999999 38.125           A13.750000000000002 13.750000000000002 0 0 1 106.87499999999999 51.875L107 66 L107 79 L107 93 L107 107 M106.87499999999999 106.87499999999999           A13.750000000000002 13.750000000000002 0 0 1 93.125 120.625L79 121 L66 121 M65.62500000000003 120.625           A13.750000000000002 13.750000000000002 0 0 1 51.875000000000014 106.875" stroke = "black" stroke-width = "10" fill = "none" />	<path d = "M66 121 L66 93 L66 66 L79 66 L79 52 L107 52 L107 66 L121 66 L121 93 L121 121 L107 121 L107 134 L79 134 L79 121 L66 121 Z" stroke = "white" stroke-width = "2" fill = "white" />    <circle cx="79" cy = "121" r = "13.750000000000002" stroke = "white" stroke-width = "2" fill = "white" />
    <circle cx="79" cy = "66" r = "13.750000000000002" stroke = "white" stroke-width = "2" fill = "white" />
    <circle cx="107" cy = "66" r = "13.750000000000002" stroke = "white" stroke-width = "2" fill = "white" />
    <circle cx="107" cy = "121" r = "13.750000000000002" stroke = "white" stroke-width = "2" fill = "white" />
	<path d = "M66 121 L66 93 L66 66 M65.62500000000009 65.62499999999993           A13.750000000000002 13.750000000000002 0 0 1 79.3750000000001 51.874999999999915L93 52 L107 52 M106.87500000000006 51.874999999999986           A13.750000000000002 13.750000000000002 0 0 1 120.62500000000004 65.62500000000003L121 79 L121 93 L121 107 L121 121 M120.62499999999982 120.62499999999999           A13.750000000000002 13.750000000000002 0 0 1 106.87499999999976 134.37499999999994L93 134 L79 134 M79.37499999999982 134.37499999999977           A13.750000000000002 13.750000000000002 0 0 1 65.62499999999987 120.62499999999969" stroke = "black" stroke-width = "10" fill = "none" />	<path d = "M79 134 L79 107 L79 79 L93 79 L93 66 L121 66 L121 79 L134 79 L134 107 L134 134 L121 134 L121 148 L93 148 L93 134 L79 134 Z" stroke = "white" stroke-width = "2" fill = "white" />    <circle cx="93" cy = "134" r = "13.750000000000002" stroke = "white" stroke-width = "2" fill = "white" />
    <circle cx="93" cy = "79" r = "13.750000000000002" stroke = "white" stroke-width = "2" fill = "white" />
    <circle cx="121" cy = "79" r = "13.750000000000002" stroke = "white" stroke-width = "2" fill = "white" />
    <circle cx="121" cy = "134" r = "13.750000000000002" stroke = "white" stroke-width = "2" fill = "white" />
	<path d = "M79 134 L79 107 L79 79 M79.37500000000036 79.37499999999974           A13.750000000000002 13.750000000000002 0 0 1 93.12500000000051 65.62499999999987L107 66 L121 66 M120.62500000000051 65.62500000000024           A13.750000000000002 13.750000000000002 0 0 1 134.37500000000043 79.37500000000037L134 93 L134 107 L134 121 L134 134 M134.37499999999997 134.37500000000048           A13.750000000000002 13.750000000000002 0 0 1 120.62499999999987 148.12500000000034L107 148 L93 148 M93.12499999999973 148.12500000000028           A13.750000000000002 13.750000000000002 0 0 1 79.37499999999983 134.37500000000026" stroke = "black" stroke-width = "10" fill = "none" />	<path d = "M93 148 L93 121 L93 93 L107 93 L107 79 L134 79 L134 93 L148 93 L148 121 L148 148 L134 148 L134 162 L107 162 L107 148 L93 148 Z" stroke = "white" stroke-width = "2" fill = "white" />    <circle cx="107" cy = "148" r = "13.750000000000002" stroke = "white" stroke-width = "2" fill = "white" />
    <circle cx="107" cy = "93" r = "13.750000000000002" stroke = "white" stroke-width = "2" fill = "white" />
    <circle cx="134" cy = "93" r = "13.750000000000002" stroke = "white" stroke-width = "2" fill = "white" />
    <circle cx="134" cy = "148" r = "13.750000000000002" stroke = "white" stroke-width = "2" fill = "white" />
	<path d = "M93 148 L93 121 L93 93 M93.12499999999991 93.1250000000002           A13.750000000000002 13.750000000000002 0 0 1 106.87499999999997 79.37500000000033L121 79 L134 79 M134.3750000000001 79.37500000000027           A13.750000000000002 13.750000000000002 0 0 1 148.12500000000006 93.12500000000024L148 107 L148 121 L148 134 L148 148 M148.1250000000004 148.1250000000004           A13.750000000000002 13.750000000000002 0 0 1 134.37500000000048 161.87500000000043L121 162 L107 162 M106.87500000000034 161.87500000000077           A13.750000000000002 13.750000000000002 0 0 1 93.12500000000024 148.12500000000094" stroke = "black" stroke-width = "10" fill = "none" />	<path d = "M18 141 L17 100 L17 59 M17.49999999999865 58.750000000002515           A41.25000000000001 41.25000000000001 0 0 1 58.74999999999792 17.50000000000199L100 18 L141 18 M141.24999999999838 17.50000000000007           A41.25000000000001 41.25000000000001 0 0 1 182.49999999999912 58.74999999999912L183 100 L183 141 M182.5000000000015 141.24999999999955           A41.25000000000001 41.25000000000001 0 0 1 141.2500000000027 182.5000000000005L100 183 L59 183 M58.750000000002245 182.5000000000033           A41.25000000000001 41.25000000000001 0 0 1 17.50000000000106 141.2500000000047" stroke = "black" stroke-width = "10" fill = "none" /></svg>