<svg width="400" height="400" viewbox = "0 0 400 400"  xmlns="http://www.w3.org/2000/svg">

<!--
<json>
{
    "imgurl": "",
    "imgw": 4.743971328437736,
    "imgleft": -2.2873205904167726,
    "imgtop": -3.171985664218851,
    "imgangle": 0,
    "svgwidth": 400,
    "svgheight": 400,
    "unit": 121.00000000000003,
    "x0": 684,
    "y0": 399,
    "x0rel": 0,
    "y0rel": 0,
    "glyph": "0331,0332,0331,0336,0330,0332,0337,0252,",
    "table": []
}
</json>
-->
	<path d = "M134 266 L113 244 L156 202 L198 159 L241 116 L284 159 L241 202 L198 244 L156 287 L134 266 Z" stroke = "black" stroke-width = "10" fill = "black" />	<path d = "M284 116 L263 95 L284 73 L305 95 L327 116 L305 137 L284 116 Z" stroke = "black" stroke-width = "10" fill = "black" />    <circle cx="305" cy = "95" r = "30.250000000000007" stroke = "black" stroke-width = "10" fill = "black" />
	<path d = "M113 287 L134 308 L105 316 L76 324 L84 295 L92 266 L113 287 Z" stroke = "black" stroke-width = "10" fill = "black" />	<path d = "M15 291 L15 198 L15 106 M15.128450554948188 105.87845055494965           A92.43577472252545 92.43577472252545 0 0 1 107.56422527747308 13.44267583242349L200 13 L292 13 M292.43577472252366 13.442675832422694           A92.43577472252545 92.43577472252545 0 0 1 384.8715494450497 105.87845055494775L385 198 L385 291 M384.87154944505016 290.7499999999983           A92.43577472252545 92.43577472252545 0 0 1 292.4357747225249 383.1857747225241L200 383 L108 383 M107.56422527747434 383.18577472252423           A92.43577472252545 92.43577472252545 0 0 1 15.128450554948643 290.7499999999988" stroke = "black" stroke-width = "10" fill = "none" /></svg>