<svg width="200" height="200" viewbox = "0 0 200 200"  xmlns="http://www.w3.org/2000/svg">

<!--
<json>
{
    "imgurl": "",
    "imgw": 4.743971328437736,
    "imgleft": -2.2873205904167726,
    "imgtop": -3.171985664218851,
    "imgangle": 0,
    "svgwidth": 200,
    "svgheight": 200,
    "unit": 100,
    "x0": 684,
    "y0": 399,
    "x0rel": 0,
    "y0rel": 0,
    "glyph": "0336,0331,0336,0336,0330,0336,0333,0337,0337,0337,0211,0260,",
    "table": []
}
</json>
-->
	<path d = "M49 109 L49 80 L49 52 M49.04385971823157 51.69078957734736           A14.301535070442107 14.301535070442107 0 0 1 63.34539478867368 37.38925450690525L92 37 M91.9484649295579 37.38925450690525           A14.301535070442107 14.301535070442107 0 0 1 106.25 51.69078957734736L106 66 L106 80 L106 95 L106 109 M106.25 108.89692985911577           A14.301535070442107 14.301535070442107 0 0 1 91.9484649295579 123.19846492955787L78 123 L63 123 M63.345394788673694 123.19846492955787           A14.301535070442107 14.301535070442107 0 0 1 49.04385971823159 108.89692985911577Z" stroke = "white" stroke-width = "2" fill = "white" />	<path d = "M49 109 L49 95 L49 80 L49 66 L49 52 M49.04385971823159 51.69078957734737           A14.301535070442107 14.301535070442107 0 0 1 63.345394788673694 37.38925450690526L78 37 L92 37 M91.9484649295579 37.38925450690526           A14.301535070442107 14.301535070442107 0 0 1 106.25 51.69078957734737L106 66 L106 80 L106 95 L106 109 M106.25 108.89692985911576           A14.301535070442107 14.301535070442107 0 0 1 91.94846492955791 123.19846492955787L78 123 L63 123 M63.34539478867373 123.19846492955787           A14.301535070442107 14.301535070442107 0 0 1 49.04385971823161 108.89692985911577" stroke = "black" stroke-width = "10" fill = "none" />	<path d = "M63 123 L63 95 L63 66 M63.345394788673765 65.99232464778949           A14.301535070442107 14.301535070442107 0 0 1 77.64692985911589 51.69078957734738L106 52 M106.25000000000004 51.690789577347466           A14.301535070442107 14.301535070442107 0 0 1 120.55153507044213 65.99232464778962L121 80 L121 95 L121 109 L121 123 M120.55153507044184 123.19846492955796           A14.301535070442107 14.301535070442107 0 0 1 106.24999999999967 137.50000000000003L92 137 L78 137 M77.64692985911546 137.49999999999986           A14.301535070442107 14.301535070442107 0 0 1 63.345394788673424 123.19846492955766Z" stroke = "white" stroke-width = "2" fill = "white" />	<path d = "M63 123 L63 109 L63 95 L63 80 L63 66 M63.34539478867391 65.99232464778929           A14.301535070442107 14.301535070442107 0 0 1 77.64692985911613 51.69078957734728L92 52 L106 52 M106.25000000000028 51.690789577347566           A14.301535070442107 14.301535070442107 0 0 1 120.55153507044227 65.99232464778981L121 80 L121 95 L121 109 L121 123 M120.55153507044159 123.19846492955817           A14.301535070442107 14.301535070442107 0 0 1 106.24999999999932 137.50000000000014L92 137 L78 137 M77.64692985911516 137.49999999999974           A14.301535070442107 14.301535070442107 0 0 1 63.345394788673225 123.19846492955746" stroke = "black" stroke-width = "10" fill = "none" />	<path d = "M78 137 L78 109 L78 80 M77.64692985911597 80.29385971823132           A14.301535070442107 14.301535070442107 0 0 1 91.94846492955828 65.99232464778939L121 66 M120.55153507044244 65.99232464778987           A14.301535070442107 14.301535070442107 0 0 1 134.85307014088434 80.29385971823221L135 95 L135 109 L135 123 L135 138 M134.85307014088332 137.50000000000057           A14.301535070442107 14.301535070442107 0 0 1 120.55153507044095 151.80153507044244L106 152 L92 152 M91.94846492955674 151.80153507044187           A14.301535070442107 14.301535070442107 0 0 1 77.64692985911489 137.4999999999995Z" stroke = "white" stroke-width = "2" fill = "white" />	<path d = "M78 137 L78 123 L78 109 L78 95 L78 80 M77.64692985911614 80.29385971823115           A14.301535070442107 14.301535070442107 0 0 1 91.94846492955855 65.99232464778933L106 66 L121 66 M120.55153507044275 65.99232464779001           A14.301535070442107 14.301535070442107 0 0 1 134.85307014088454 80.29385971823245L135 95 L135 109 L135 123 L135 138 M134.8530701408833 137.50000000000097           A14.301535070442107 14.301535070442107 0 0 1 120.55153507044088 151.80153507044272L106 152 L92 152 M91.94846492955652 151.80153507044227           A14.301535070442107 14.301535070442107 0 0 1 77.64692985911472 137.49999999999994" stroke = "black" stroke-width = "10" fill = "none" />	<path d = "M92 152 L92 123 L92 95 M91.9484649295573 94.59539478867373           A14.301535070442107 14.301535070442107 0 0 1 106.24999999999956 80.29385971823186L135 80 M134.85307014088394 80.29385971823203           A14.301535070442107 14.301535070442107 0 0 1 149.15460521132587 94.59539478867421L149 109 L149 123 L149 138 L149 152 M149.15460521132587 151.80153507044278           A14.301535070442107 14.301535070442107 0 0 1 134.85307014088377 166.1030701408848L121 166 L106 166 M106.24999999999957 166.10307014088497           A14.301535070442107 14.301535070442107 0 0 1 91.94846492955747 151.80153507044295Z" stroke = "white" stroke-width = "2" fill = "white" />	<path d = "M92 152 L92 138 L92 123 L92 109 L92 95 M91.94846492955685 94.5953947886744           A14.301535070442107 14.301535070442107 0 0 1 106.24999999999879 80.29385971823223L121 80 L135 80 M134.85307014088318 80.29385971823177           A14.301535070442107 14.301535070442107 0 0 1 149.15460521132542 94.59539478867364L149 109 L149 123 L149 137 L149 152 M149.15460521132667 151.80153507044218           A14.301535070442107 14.301535070442107 0 0 1 134.85307014088488 166.1030701408845L121 166 L106 166 M106.25000000000053 166.10307014088525           A14.301535070442107 14.301535070442107 0 0 1 91.94846492955813 151.80153507044352" stroke = "black" stroke-width = "10" fill = "none" />	<path d = "M13 145 L13 102 L13 59 M13.290022042123589 58.84155711257264           A42.90460521132632 42.90460521132632 0 0 1 56.19462725344853 15.936951901245173L99 16 L142 16 M142.00383767610165 15.936951901241962           A42.90460521132632 42.90460521132632 0 0 1 184.90844288742935 58.841557112566676L185 102 L185 145 M184.90844288743304 144.65076753521979           A42.90460521132632 42.90460521132632 0 0 1 142.00383767610856 187.55537274654773L99 188 L56 188 M56.19462725345545 187.55537274655188           A42.90460521132632 42.90460521132632 0 0 1 13.29002204212729 144.65076753522763" stroke = "black" stroke-width = "10" fill = "none" /></svg>