<svg width="250" height="250" viewbox = "0 0 250 250"  xmlns="http://www.w3.org/2000/svg">

<!--
<json>
{
    "imgurl": "",
    "imgw": 4.743971328437736,
    "imgleft": -2.2873205904167726,
    "imgtop": -3.171985664218851,
    "imgangle": 0,
    "svgwidth": 250,
    "svgheight": 250,
    "unit": 100,
    "x0": 684,
    "y0": 399,
    "x0rel": 0,
    "y0rel": 0,
    "glyph": "0336,0331,0331,0336,0336,0331,0337,0337,0337,0223,",
    "table": []
}
</json>
-->
	<path d = "M125 238 L175 238 L175 188 L225 138 L225 88 L175 88 L125 88 L75 88 L25 88 L25 138 L75 188 L75 238 L125 238 Z" stroke = "black" stroke-width = "6" fill = "none" />	<path d = "M75 12 L88 13 L88 25 L88 38 L100 38 L88 50 L75 63 L63 50 L50 38 L63 38 L63 25 L63 13 L75 13 Z" stroke = "black" stroke-width = "6" fill = "black" />	<path d = "M175 13 L188 13 L188 25 L188 38 L200 38 L188 50 L175 63 L163 50 L150 38 L163 38 L163 25 L163 13 L175 12 Z" stroke = "black" stroke-width = "6" fill = "black" />	<path d = "M125 163 L138 163 L138 175 L138 188 L150 188 L138 200 L125 213 L113 200 L100 188 L113 188 L113 175 L113 163 L125 163 Z" stroke = "black" stroke-width = "6" fill = "black" />	<path d = "M125 113 L113 113 L119 123 L125 134 L131 123 L138 113 L125 113 Z" stroke = "black" stroke-width = "6" fill = "black" />	<path d = "M75 113 L63 113 L69 123 L75 134 L81 123 L88 113 L75 113 Z" stroke = "black" stroke-width = "6" fill = "black" />	<path d = "M175 113 L163 113 L169 123 L175 134 L181 123 L188 113 L175 113 Z" stroke = "black" stroke-width = "6" fill = "black" /></svg>