<svg width="500" height="500" viewbox = "0 0 500 500"  xmlns="http://www.w3.org/2000/svg">

<!--
<json>
{
    "imgurl": "",
    "imgw": 4.743971328437736,
    "imgleft": -2.2873205904167726,
    "imgtop": -3.171985664218851,
    "imgangle": 0,
    "svgwidth": 500,
    "svgheight": 500,
    "unit": 62.0921323059155,
    "x0": 684,
    "y0": 399,
    "x0rel": 0,
    "y0rel": 0,
    "glyph": "0336,0223,0330,0330,0330,0332,0330,0224,0333,0333,0333,0331,0331,0331,0331,0331,0331,0332,0332,0226,0330,0330,0330,0330,0330,0330,0333,0330,0330,0330,0332,0332,0331,0332,0332,0331,0332,0227,0330,0333,0333,0333,0337,0231,0333,0331,0333,0336,0225,0337,0337,0331,0331,0331,0332,0336,0330,0336,0333,0337,0234,0333,0333,0330,0336,0335,0335,0333,0333,0331,0333,0333,0336,0220,0331,0331,0331,0331,0331,0331,0220,0337,0337,0331,0332,0336,0331,0336,0331,0335,0350,0334,0337,0304,0220,0336,0350,0334,0335,0335,0335,0335,0304,0332,0332,0332,0332,0332,0332,0332,0332,0335,0337,0350,0335,0220,0350,0334,0304,0334,0330,0332,0336,0330,0335,0330,0337,0222,0330,0333,0335,0331,0331,0336,0336,0330,0332,0332,0337,0337,0222,",
    "table": []
}
</json>
-->
	<path d = "M250 250 L266 250 L266 234 L281 219 L281 203 L266 203 L250 203 L234 203 L219 203 L219 219 L234 234 L234 250 L250 250 Z" stroke = "black" stroke-width = "6" fill = "none" />	<path d = "M234 180 L238 180 L238 184 L238 188 L242 188 L238 192 L234 196 L231 192 L227 188 L231 188 L231 184 L231 180 L234 180 Z" stroke = "black" stroke-width = "6" fill = "black" />	<path d = "M266 180 L269 180 L269 184 L269 188 L273 188 L269 192 L266 196 L262 192 L258 188 L262 188 L262 184 L262 180 L266 180 Z" stroke = "black" stroke-width = "6" fill = "black" />	<path d = "M250 227 L254 227 L254 231 L254 234 L258 234 L254 238 L250 242 L246 238 L242 234 L246 234 L246 231 L246 227 L250 227 Z" stroke = "black" stroke-width = "6" fill = "black" />	<path d = "M250 211 L246 211 L248 215 L250 218 L252 215 L254 211 L250 211 Z" stroke = "black" stroke-width = "6" fill = "black" />	<path d = "M234 211 L231 211 L233 215 L234 218 L236 215 L238 211 L234 211 Z" stroke = "black" stroke-width = "6" fill = "black" />	<path d = "M266 211 L262 211 L264 215 L266 218 L267 215 L269 211 L266 211 Z" stroke = "black" stroke-width = "6" fill = "black" />    <circle cx="219" cy = "118" r = "1.9403791345598593" stroke = "black" stroke-width = "6" fill = "black" />
    <circle cx="219" cy = "95" r = "1.9403791345598593" stroke = "black" stroke-width = "6" fill = "black" />
	<path d = "M219 126 L218 126 L218 110 L220 110 L220 126 L219 126 Z" stroke = "black" stroke-width = "6" fill = "black" />	<path d = "M219 126 L219 125 L234 125 L234 127 L219 127 L219 126 Z" stroke = "black" stroke-width = "6" fill = "black" />	<path d = "M219 126 L219 127 L203 127 L203 125 L219 125 L219 126 Z" stroke = "black" stroke-width = "6" fill = "black" />	<path d = "M262 293 L262 297 L258 297 L254 297 L254 300 L250 297 L246 293 L250 289 L254 285 L254 289 L258 289 L262 289 L262 293 Z" stroke = "black" stroke-width = "6" fill = "black" />	<path d = "M262 293 L262 289 L266 289 L269 289 L269 285 L273 289 L277 293 L273 297 L269 300 L269 297 L266 297 L262 297 L262 293 Z" stroke = "black" stroke-width = "6" fill = "black" />	<path d = "M231 324 L234 324 L234 328 L234 331 L238 331 L234 335 L231 339 L227 335 L223 331 L227 331 L227 328 L227 324 L231 324 Z" stroke = "black" stroke-width = "6" fill = "black" />	<path d = "M231 324 L227 324 L227 320 L227 316 L223 316 L227 312 L231 308 L234 312 L238 316 L234 316 L234 320 L234 324 L231 324 Z" stroke = "black" stroke-width = "6" fill = "black" />	<path d = "M238 300 L238 285 L223 285 L223 300 L238 300 Z" stroke = "black" stroke-width = "6" fill = "none" />	<path d = "M281 343 L281 281 L219 281 L219 343 L281 343 Z" stroke = "black" stroke-width = "6" fill = "none" />	<path d = "M141 110 L141 79 L110 79 L110 110 L141 110 Z" stroke = "black" stroke-width = "6" fill = "none" />	<path d = "M157 126 L157 64 L95 64 L95 126 L157 126 Z" stroke = "black" stroke-width = "6" fill = "none" />    <line x1="157" y1="126" x2="141" y2="110" style="stroke:black;stroke-width:6" />
    <line x1="157" y1="64" x2="141" y2="79" style="stroke:black;stroke-width:6" />
    <line x1="95" y1="64" x2="110" y2="79" style="stroke:black;stroke-width:6" />
    <line x1="95" y1="126" x2="110" y2="110" style="stroke:black;stroke-width:6" />
	<path d = "M219 64 L219 48 L203 48 L203 64 L219 64 Z" stroke = "red" stroke-width = "6" fill = "red" />	<path d = "M219 64 L219 48 L203 48 L203 64 L219 64 Z" stroke = "black" stroke-width = "6" fill = "none" />	<path d = "M219 40 L219 25 L203 25 L203 40 L219 40 Z" stroke = "yellow" stroke-width = "6" fill = "yellow" />	<path d = "M219 40 L219 25 L203 25 L203 40 L219 40 Z" stroke = "black" stroke-width = "6" fill = "none" />	<path d = "M219 17 L219 2 L203 2 L203 17 L219 17 Z" stroke = "blue" stroke-width = "6" fill = "blue" />	<path d = "M219 17 L219 2 L203 2 L203 17 L219 17 Z" stroke = "black" stroke-width = "6" fill = "none" />    <line x1="227" y1="9" x2="242" y2="9" style="stroke:blue;stroke-width:6" />
    <line x1="227" y1="33" x2="242" y2="33" style="stroke:yellow;stroke-width:6" />
    <line x1="227" y1="56" x2="242" y2="56" style="stroke:red;stroke-width:6" />
	<path d = "M312 126 L312 95 L343 95 L374 95 L374 126 L343 126 L312 126 Z" stroke = "black" stroke-width = "6" fill = "none" />    <circle cx="343" cy = "110" r = "13.567628404940697" stroke = "black" stroke-width = "6" fill = "none" />
    <circle cx="343" cy = "110" r = "6.7838142024703485" stroke = "black" stroke-width = "6" fill = "none" />
    <circle cx="320" cy = "103" r = "3.8807582691197173" stroke = "black" stroke-width = "6" fill = "none" />
	<path d = "M328 95 L335 87 L343 87 L351 87 L359 95 " stroke = "black" stroke-width = "6" fill = "none" /><path    d = "M250,421 C237,413 263,382 250,374" fill = "none" stroke-width = "6" stroke = "black" /><path    d = "M263,429 C263,413 304,421 304,405" fill = "none" stroke-width = "6" stroke = "black" /><path    d = "M263,444 C277,436 290,475 304,467" fill = "none" stroke-width = "6" stroke = "black" /><path    d = "M250,452 C263,460 237,491 250,498" fill = "none" stroke-width = "6" stroke = "black" /><path    d = "M237,444 C237,460 196,452 196,467" fill = "none" stroke-width = "6" stroke = "black" /><path    d = "M237,429 C223,436 210,397 196,405" fill = "none" stroke-width = "6" stroke = "black" />    <circle cx="250" cy = "436" r = "7.761516538239435" stroke = "black" stroke-width = "6" fill = "black" />
	<path d = "M250 343 L254 343 L254 347 L254 351 L258 351 L254 355 L250 359 L246 355 L242 351 L246 351 L246 347 L246 343 L250 343 Z" stroke = "black" stroke-width = "6" fill = "black" />	<path d = "M250 250 L254 250 L254 254 L254 258 L258 258 L254 262 L250 266 L246 262 L242 258 L246 258 L246 254 L246 250 L250 250 Z" stroke = "black" stroke-width = "6" fill = "black" />	<path d = "M312 141 L318 147 L312 152 L307 158 L312 163 L301 163 L290 163 L290 152 L290 141 L296 147 L301 141 L307 136 L312 141 Z" stroke = "black" stroke-width = "6" fill = "black" />	<path d = "M188 141 L193 136 L199 141 L204 147 L210 141 L210 152 L210 163 L199 163 L188 163 L193 158 L188 152 L182 147 L188 141 Z" stroke = "black" stroke-width = "6" fill = "black" />	<path d = "M172 95 L172 103 L179 99 L186 95 L179 91 L172 87 L172 95 Z" stroke = "black" stroke-width = "6" fill = "black" />	<path d = "M219 71 L211 71 L215 78 L219 85 L223 78 L227 71 L219 71 Z" stroke = "black" stroke-width = "6" fill = "black" /></svg>