<svg width="600" height="600" viewbox = "0 0 600 600"  xmlns="http://www.w3.org/2000/svg">

<!--
<json>
{
    "imgurl": "",
    "imgw": 2.983971328437751,
    "imgleft": -1.4873205904167783,
    "imgtop": -1.0519856642188752,
    "imgangle": 0,
    "svgwidth": 600,
    "svgheight": 600,
    "unit": 100,
    "x0": 684,
    "y0": 399,
    "x0rel": 0,
    "y0rel": 0,
    "glyph": "0334,0331,0332,0337,0336,0336,0332,0332,0337,0337,0223,0335,0336,0336,0336,0336,0336,0330,0330,0330,0330,0330,0330,0330,0330,0330,0330,0333,0331,0331,0336,0336,0330,0333,0337,0337,0214,0214,0214,0337,0337,0337,0337,0332,0330,0337,0225,0336,0336,0336,0336,0336,0332,0332,0332,0332,0332,0332,0336,0336,0331,0332,0332,0331,0330,0332,0337,0337,0214,0214,0214,0214,0214,0337,0337,0337,0337,0211,0211,0211,0226,0300,0331,0331,0331,0330,0334,0330,0335,0335,0337,0220,0322,0336,0336,0336,0347,0337,0337,0337,0330,0323,0336,0336,0336,0347,0334,0337,0337,0337,0330,0324,0336,0336,0336,0347,0334,0337,0337,0337,0330,0325,0336,0336,0336,0347,0334,0337,0337,0337,0330,0326,0336,0336,0336,0347,0334,0337,0337,0337,0330,0336,0336,0336,0327,0347,0334,0337,0337,0337,0330,0336,0336,0336,0320,0347,",
    "table": []
}
</json>
-->
	<path d = "M400 500 L200 500 L75 344 L120 149 L300 62 L480 149 L525 344 L400 500 Z" stroke = "black" stroke-width = "6" fill = "none" />	<path d = "M515 341 L86 341 L473 155 L205 491 L300 72 L396 491 L128 155 L515 341 Z" stroke = "black" stroke-width = "6" fill = "none" />	<path d = "M74 343 L300 60 L526 343 L199 500 L119 147 L481 147 L400 500 Z" stroke = "black" stroke-width = "6" fill = "none" />    <circle cx="200" cy = "500" r = "25" stroke = "red" stroke-width = "6" fill = "red" />
    <circle cx="400" cy = "500" r = "25" stroke = "orange" stroke-width = "6" fill = "orange" />
    <circle cx="525" cy = "344" r = "25" stroke = "yellow" stroke-width = "6" fill = "yellow" />
    <circle cx="480" cy = "149" r = "25" stroke = "green" stroke-width = "6" fill = "green" />
    <circle cx="300" cy = "62" r = "25" stroke = "blue" stroke-width = "6" fill = "blue" />
    <circle cx="120" cy = "149" r = "25" stroke = "purple" stroke-width = "6" fill = "purple" />
    <circle cx="75" cy = "344" r = "25" stroke = "black" stroke-width = "6" fill = "black" />
</svg>