<svg width="400" height="400" viewbox = "0 0 400 400"  xmlns="http://www.w3.org/2000/svg">

<!--
<topfunctions>







function YofX(){
    X = plotparams.g*(x - plotparams.x0) - funcparams.X0;
    Y = 0.5*(1 + Math.tanh(X));
    y = plotparams.y0 - plotparams.G*(Y - funcparams.Y0);
}



function plotfunction(){

/*plot one function:*/
    currentStroke = "red";
    currentLineWidth = 1;
    ctx.strokeStyle = currentStroke;
    ctx.lineWidth = currentLineWidth;
    ctx.beginPath();	
    x = 0;
    YofX();
    currentSVG += "	<path d = \"M";
    currentSVG += Math.round(x).toString() + " ";
    currentSVG += Math.round(y).toString() + " ";
    for(x = 1;x < plotparams.plotwidth;x++){
        YofX();
        ctx.lineTo(x,y);
        currentSVG += "L" + x + " " + y + " ";
    }

    ctx.lineTo(400,400);
    currentSVG += "L" + "400" + " " + "400" + " ";
    ctx.lineTo(0,400);
    currentSVG += "L" + "0" + " " + "400" + " ";
    ctx.lineTo(0,plotparams.y0);
    currentSVG += "L" + "0" + " " + plotparams.y0.toString() + " ";
    ctx.fillStyle = "red";
    ctx.fill();		
    ctx.closePath();
    ctx.stroke();		

    currentSVG += "Z\""+ " stroke = \"" + currentStroke + "\" stroke-width = \"" + currentLineWidth.toString() + "\" fill = \"" + "blue" + "\" "+"/>";
    /*finish plot one function*/


    /*plot one function:*/
    currentStroke = "black";
    currentLineWidth = 6;
    ctx.strokeStyle = currentStroke;
    ctx.lineWidth = currentLineWidth;
    ctx.beginPath();	
    x = 0;
    YofX();
    currentSVG += "	<path d = \"M";
    currentSVG += Math.round(x).toString() + " ";
    currentSVG += Math.round(y).toString() + " ";
    for(x = 1;x < plotparams.plotwidth;x++){
        ctx.moveTo(x-1,y);
        YofX();
        ctx.lineTo(x,y);
        currentSVG += "L" + x + " " + y + " ";
    }
    ctx.stroke();
    currentSVG += "\""+ " stroke = \"" + currentStroke + "\" stroke-width = \"" + currentLineWidth.toString() + "\" fill = \"" + "none" + "\" "+"/>";
    /*finish plot one function*/
    
    

}





</topfunctions>
-->

<!--
<imgurl>

</imgurl>
-->

<!--
<currentjson>
{
    "constants": {},
    "imgurl": "",
    "plotparams": {
        "G": 151.64603937149306,
        "g": 0.02393920493691634,
        "duration": 545.4545454545454,
        "plotwidth": 400,
        "plotheight": 400,
        "x0": 225.7177692391267,
        "y0": 289.01529428549946
    },
    "funcparams": {
        "a": 0.12727272727272726,
        "b": 0,
        "c": 0,
        "X0": 0,
        "Y0": 0
    }
}
</currentjson>
-->

<!--
<equation>






<h2>Filled Fermi Function</h2>
<p style="color:blue">

</p><p class="bigeq">
$$
Y = \frac{1}{2}(\tanh{X} + 1)$$
</p>
<p></p>

$$
X = g(x - x_0) - X_0
$$
$$
Y = f(X)
$$
    
$$
y = y_0 - G(Y - Y_0)
$$


<p>
    X and Y, and $X_0$ and $Y_0$ in physical units of the System. x and y and x0 and y0 in pixels.  G is in pixels per Y unit and g is in X units per pixel. 
</p>







</equation>
-->
	<path d = "M0 289 L1 289.01207179765413 L2 289.01191376040197 L3 289.01174797286797 L4 289.0115740549899 L5 289.01139160806974 L6 289.01120021385987 L7 289.01099943360504 L8 289.0107888070366 L9 289.0105678513184 L10 289.01033605994013 L11 289.010092901557 L12 289.00983781877255 L13 289.00957022686134 L14 289.0092895124298 L15 289.00899503201094 L16 289.0086861105904 L17 289.0083620400603 L18 289.00802207759733 L19 289.00766544396157 L20 289.00729132171165 L21 289.0068988533331 L22 289.00648713927427 L23 289.0060552358869 L24 289.0056021532653 L25 289.00512685297997 L26 289.0046282457003 L27 289.004105188701 L28 289.00355648324626 L29 289.00298087184615 L30 289.0023770353787 L31 289.00174359007116 L32 289.00107908433375 L33 289.0003819954385 L34 288.9996507260353 L35 288.9988836004986 L36 288.99807886109414 L37 288.9972346639598 L38 288.9963490748887 L39 288.9954200649073 L40 288.99444550563686 L41 288.9934231644285 L42 288.99235069926095 L43 288.9912256533887 L44 288.99004544972956 L45 288.98880738497775 L46 288.98750862342996 L47 288.98614619051074 L48 288.9847169659813 L49 288.9832176768182 L50 288.9816448897442 L51 288.9799950033958 L52 288.97826424010907 L53 288.9764486373055 L54 288.9745440384589 L55 288.97254608362255 L56 288.97045019949604 L57 288.96825158900896 L58 288.9659452203985 L59 288.9635258157569 L60 288.9609878390227 L61 288.9583254833896 L62 288.9555326581044 L63 288.95260297462556 L64 288.94952973211105 L65 288.946305902204 L66 288.9429241130821 L67 288.93937663273607 L68 288.93565535144074 L69 288.9317517633793 L70 288.927656947382 L71 288.9233615467361 L72 288.9188557480243 L73 288.9141292589446 L74 288.90917128506464 L75 288.9039705054599 L76 288.8985150471836 L77 288.89279245851395 L78 288.88678968092074 L79 288.8804930196929 L80 288.8738881131639 L81 288.86695990047065 L82 288.85969258777806 L83 288.85206961289845 L84 288.84407360823286 L85 288.83568636195656 L86 288.82688877737036 L87 288.81766083033267 L88 288.8079815246878 L89 288.7978288455987 L90 288.78717971069125 L91 288.77600991891296 L92 288.7642940970042 L93 288.75200564347745 L94 288.7391166699953 L95 288.72559794003445 L96 288.711418804718 L97 288.69654713569514 L98 288.68094925494256 L99 288.66458986135746 L100 288.64743195400854 L101 288.6294367519056 L102 288.6105636101462 L103 288.5907699322911 L104 288.57001107881825 L105 288.5482402714991 L106 288.52540849353846 L107 288.5014643853141 L108 288.4763541355493 L109 288.45002136774804 L110 288.4224070217186 L111 288.3934492300094 L112 288.3630831890783 L113 288.33124102501324 L114 288.2978516536233 L115 288.262840634715 L116 288.22613002037167 L117 288.1876381970517 L118 288.1472797213254 L119 288.1049651490708 L120 288.0606008579532 L121 288.0140888630195 L122 287.96532662524197 L123 287.9142068528582 L124 287.86061729535993 L125 287.8044405299989 L126 287.7455537406899 L127 287.68382848920913 L128 287.61913047860526 L129 287.55131930876297 L130 287.48024822408524 L131 287.40576385328984 L132 287.32770594134905 L133 287.2459070736408 L134 287.16019239241996 L135 287.07037930576985 L136 286.9762771892446 L137 286.8776870804751 L138 286.7744013670767 L139 286.66620346827125 L140 286.55286751071674 L141 286.4341579991281 L142 286.30982948237124 L143 286.17962621582 L144 286.04328182088454 L145 285.9005189427474 L146 285.7510489074847 L147 285.5945713799012 L148 285.43077402357204 L149 285.2593321647626 L150 285.07990846208725 L151 284.89215258397377 L152 284.6957008962194 L153 284.49017616215696 L154 284.27518725819897 L155 284.0503289077913 L156 283.8151814370834 L157 283.56931055591593 L158 283.3122671680307 L159 283.0435872147254 L160 282.7627915565048 L161 282.4693858976182 L162 282.1628607587194 L163 281.84269150323513 L164 281.5083384233829 L165 281.159246892128 L166 280.79484758771576 L167 280.4145567977494 L168 280.0177768100999 L169 279.60389639822887 L170 279.17229140876873 L171 278.72232545942813 L172 278.2533507554656 L173 277.76470903309433 L174 277.2557326382264 L175 276.7257457489336 L176 276.17406574987535 L177 275.6000047667089 L178 275.0028713681435 L179 274.3819724428089 L180 273.7366152574678 L181 273.06610970229576 L182 272.3697707279694 L183 271.64692097812645 L184 270.8968936193785 L185 270.11903536946545 L186 269.31270972231795 L187 268.47730036674824 L188 267.6122147932128 L189 266.7168880805813 L190 265.79078685212306 L191 264.833413386981 L192 263.8443098702848 L193 262.823062761759 L194 261.76930725926746 L195 260.6827318302228 L196 259.5630827802406 L197 258.4101688248826 L198 257.2238656268797 L199 256.00412025792474 L200 254.7509555410544 L201 253.4644742268868 L202 252.14486295463172 L203 250.79239594693263 L204 249.4074383863317 L205 247.990449420547 L206 246.54198474390824 L207 245.06269870328 L208 243.55334587867696 L209 242.01478209158628 L210 240.4479647977947 L211 238.85395282627366 L212 237.2339054313986 L213 235.58908063242205 L214 233.92083282162676 L215 232.23060963085607 L216 230.5199480550429 L217 228.79046984078673 L218 227.0438761578022 L219 225.28194158099217 L220 223.50650742079134 L221 221.7194744490701 L222 219.92279507707644 L223 218.11846505041348 L224 216.30851473370797 L225 214.49500006423312 L226 212.67999325914894 L227 210.86557336508167 L228 209.05381674137692 L229 207.24678756946386 L230 205.4465284803349 L231 203.65505139018137 L232 201.87432863078857 L233 200.1062844564622 L234 198.35278700315877 L235 196.61564076826963 L236 194.89657967134164 L237 193.19726074709416 L238 191.51925851262135 L239 189.8640600408589 L240 188.2330607624545 L241 186.6275610083174 L242 185.04876329552138 L243 183.49777035007287 L244 181.97558385148494 L245 180.48310387624565 L246 179.0211290102393 L247 177.59035709405015 L248 176.19138655989784 L249 174.82471831474598 L250 173.4907581208966 L251 172.1898194231024 L252 170.92212656986544 L253 169.68781837608353 L254 168.48695197448478 L255 167.3195069042801 L256 166.18538938707638 L257 165.0844367422374 L258 164.0164218964695 L259 162.98105794535184 L260 161.97800272773992 L261 161.00686337736968 L262 160.0672008194956 L263 159.15853418394852 L264 158.280345109532 L265 157.43208191814057 L266 156.6131636403342 L267 155.82298387730225 L268 155.0609144871726 L269 154.32630908644032 L270 153.61850635989475 L271 152.93683317480125 L272 152.28060749724216 L273 151.64914111043916 L274 151.0417421365717 L275 150.4577173650789 L276 149.89637439169704 L277 149.35702357355115 L278 148.83897980650008 L279 148.34156413164615 L280 147.86410517847403 L281 147.40594045249594 L282 146.96641747556578 L283 146.54489478719523 L284 146.14074281527877 L285 145.7533446246184 L286 145.38209655155111 L287 145.0264087328306 L288 144.6857055367095 L289 144.35942590392227 L290 144.04702360598662 L291 143.74796742793438 L292 143.46174128225448 L293 143.18784426049015 L294 142.92579062858363 L295 142.67510977170843 L296 142.43534609397813 L297 142.20605887807056 L298 141.98682210946635 L299 141.7772242696653 L300 141.57686810242348 L301 141.38537035674145 L302 141.20236151003797 L303 141.02748547465876 L304 140.86039929060053 L305 140.70077280707622 L306 140.5482883553071 L307 140.4026404147016 L308 140.2635352743696 L309 140.13069069172508 L310 140.00383554974556 L311 139.88270951428686 L312 139.76706269269556 L313 139.65665529481498 L314 139.5512572973479 L315 139.45064811241565 L316 139.35461626104197 L317 139.26295905218632 L318 139.1754822678588 L319 139.09199985476278 L320 139.01233362283574 L321 138.93631295098757 L322 138.86377450027453 L323 138.79456193468909 L324 138.7285256496968 L325 138.66552250860508 L326 138.60541558680967 L327 138.54807392392806 L328 138.49337228379855 L329 138.44119092229596 L330 138.39141536289026 L331 138.34393617985506 L332 138.2986487890128 L333 138.25545324589 L334 138.21425405114255 L335 138.17495996309836 L336 138.13748381725904 L337 138.10174235259166 L338 138.06765604443854 L339 138.03514894386694 L340 138.00414852327893 L341 137.97458552809826 L342 137.9463938343514 L343 137.91951031195882 L344 137.89387469355356 L345 137.86942944864538 L346 137.84611966295037 L347 137.82389292270847 L348 137.80269920381392 L349 137.78249076558623 L350 137.7632220490142 L351 137.74484957930665 L352 137.72733187258996 L353 137.71062934659423 L354 137.69470423517595 L355 137.67952050652724 L356 137.6650437849281 L357 137.6512412759003 L358 137.63808169462794 L359 137.62553519751177 L360 137.61357331673096 L361 137.6021688976883 L362 137.5912960392203 L363 137.58093003645715 L364 137.57104732622173 L365 137.56162543486118 L366 137.55264292840778 L367 137.54407936497043 L368 137.5359152492615 L369 137.52813198916695 L370 137.52071185427218 L371 137.5136379362587 L372 137.5068941110904 L373 137.50046500291114 L374 137.4943359495792 L375 137.48849296976647 L376 137.48292273155295 L377 137.4776125224517 L378 137.4725502207997 L379 137.46772426845433 L380 137.46312364473778 L381 137.45873784157286 L382 137.4545568397574 L383 137.45057108632642 L384 137.44677147295238 L385 137.44314931533754 L386 137.43969633355348 L387 137.43640463328472 L388 137.4332666879358 L389 137.43027532156262 L390 137.4274236925905 L391 137.42470527828348 L392 137.42211385993025 L393 137.41964350871444 L394 137.41728857223777 L395 137.41504366166637 L396 137.4129036394718 L397 137.41086360773926 L398 137.40891889701751 L399 137.40706505568497 L400 400 L0 400 L0 289.01529428549946 Z" stroke = "red" stroke-width = "1" fill = "blue" />	<path d = "M0 289 L1 289.01207179765413 L2 289.01191376040197 L3 289.01174797286797 L4 289.0115740549899 L5 289.01139160806974 L6 289.01120021385987 L7 289.01099943360504 L8 289.0107888070366 L9 289.0105678513184 L10 289.01033605994013 L11 289.010092901557 L12 289.00983781877255 L13 289.00957022686134 L14 289.0092895124298 L15 289.00899503201094 L16 289.0086861105904 L17 289.0083620400603 L18 289.00802207759733 L19 289.00766544396157 L20 289.00729132171165 L21 289.0068988533331 L22 289.00648713927427 L23 289.0060552358869 L24 289.0056021532653 L25 289.00512685297997 L26 289.0046282457003 L27 289.004105188701 L28 289.00355648324626 L29 289.00298087184615 L30 289.0023770353787 L31 289.00174359007116 L32 289.00107908433375 L33 289.0003819954385 L34 288.9996507260353 L35 288.9988836004986 L36 288.99807886109414 L37 288.9972346639598 L38 288.9963490748887 L39 288.9954200649073 L40 288.99444550563686 L41 288.9934231644285 L42 288.99235069926095 L43 288.9912256533887 L44 288.99004544972956 L45 288.98880738497775 L46 288.98750862342996 L47 288.98614619051074 L48 288.9847169659813 L49 288.9832176768182 L50 288.9816448897442 L51 288.9799950033958 L52 288.97826424010907 L53 288.9764486373055 L54 288.9745440384589 L55 288.97254608362255 L56 288.97045019949604 L57 288.96825158900896 L58 288.9659452203985 L59 288.9635258157569 L60 288.9609878390227 L61 288.9583254833896 L62 288.9555326581044 L63 288.95260297462556 L64 288.94952973211105 L65 288.946305902204 L66 288.9429241130821 L67 288.93937663273607 L68 288.93565535144074 L69 288.9317517633793 L70 288.927656947382 L71 288.9233615467361 L72 288.9188557480243 L73 288.9141292589446 L74 288.90917128506464 L75 288.9039705054599 L76 288.8985150471836 L77 288.89279245851395 L78 288.88678968092074 L79 288.8804930196929 L80 288.8738881131639 L81 288.86695990047065 L82 288.85969258777806 L83 288.85206961289845 L84 288.84407360823286 L85 288.83568636195656 L86 288.82688877737036 L87 288.81766083033267 L88 288.8079815246878 L89 288.7978288455987 L90 288.78717971069125 L91 288.77600991891296 L92 288.7642940970042 L93 288.75200564347745 L94 288.7391166699953 L95 288.72559794003445 L96 288.711418804718 L97 288.69654713569514 L98 288.68094925494256 L99 288.66458986135746 L100 288.64743195400854 L101 288.6294367519056 L102 288.6105636101462 L103 288.5907699322911 L104 288.57001107881825 L105 288.5482402714991 L106 288.52540849353846 L107 288.5014643853141 L108 288.4763541355493 L109 288.45002136774804 L110 288.4224070217186 L111 288.3934492300094 L112 288.3630831890783 L113 288.33124102501324 L114 288.2978516536233 L115 288.262840634715 L116 288.22613002037167 L117 288.1876381970517 L118 288.1472797213254 L119 288.1049651490708 L120 288.0606008579532 L121 288.0140888630195 L122 287.96532662524197 L123 287.9142068528582 L124 287.86061729535993 L125 287.8044405299989 L126 287.7455537406899 L127 287.68382848920913 L128 287.61913047860526 L129 287.55131930876297 L130 287.48024822408524 L131 287.40576385328984 L132 287.32770594134905 L133 287.2459070736408 L134 287.16019239241996 L135 287.07037930576985 L136 286.9762771892446 L137 286.8776870804751 L138 286.7744013670767 L139 286.66620346827125 L140 286.55286751071674 L141 286.4341579991281 L142 286.30982948237124 L143 286.17962621582 L144 286.04328182088454 L145 285.9005189427474 L146 285.7510489074847 L147 285.5945713799012 L148 285.43077402357204 L149 285.2593321647626 L150 285.07990846208725 L151 284.89215258397377 L152 284.6957008962194 L153 284.49017616215696 L154 284.27518725819897 L155 284.0503289077913 L156 283.8151814370834 L157 283.56931055591593 L158 283.3122671680307 L159 283.0435872147254 L160 282.7627915565048 L161 282.4693858976182 L162 282.1628607587194 L163 281.84269150323513 L164 281.5083384233829 L165 281.159246892128 L166 280.79484758771576 L167 280.4145567977494 L168 280.0177768100999 L169 279.60389639822887 L170 279.17229140876873 L171 278.72232545942813 L172 278.2533507554656 L173 277.76470903309433 L174 277.2557326382264 L175 276.7257457489336 L176 276.17406574987535 L177 275.6000047667089 L178 275.0028713681435 L179 274.3819724428089 L180 273.7366152574678 L181 273.06610970229576 L182 272.3697707279694 L183 271.64692097812645 L184 270.8968936193785 L185 270.11903536946545 L186 269.31270972231795 L187 268.47730036674824 L188 267.6122147932128 L189 266.7168880805813 L190 265.79078685212306 L191 264.833413386981 L192 263.8443098702848 L193 262.823062761759 L194 261.76930725926746 L195 260.6827318302228 L196 259.5630827802406 L197 258.4101688248826 L198 257.2238656268797 L199 256.00412025792474 L200 254.7509555410544 L201 253.4644742268868 L202 252.14486295463172 L203 250.79239594693263 L204 249.4074383863317 L205 247.990449420547 L206 246.54198474390824 L207 245.06269870328 L208 243.55334587867696 L209 242.01478209158628 L210 240.4479647977947 L211 238.85395282627366 L212 237.2339054313986 L213 235.58908063242205 L214 233.92083282162676 L215 232.23060963085607 L216 230.5199480550429 L217 228.79046984078673 L218 227.0438761578022 L219 225.28194158099217 L220 223.50650742079134 L221 221.7194744490701 L222 219.92279507707644 L223 218.11846505041348 L224 216.30851473370797 L225 214.49500006423312 L226 212.67999325914894 L227 210.86557336508167 L228 209.05381674137692 L229 207.24678756946386 L230 205.4465284803349 L231 203.65505139018137 L232 201.87432863078857 L233 200.1062844564622 L234 198.35278700315877 L235 196.61564076826963 L236 194.89657967134164 L237 193.19726074709416 L238 191.51925851262135 L239 189.8640600408589 L240 188.2330607624545 L241 186.6275610083174 L242 185.04876329552138 L243 183.49777035007287 L244 181.97558385148494 L245 180.48310387624565 L246 179.0211290102393 L247 177.59035709405015 L248 176.19138655989784 L249 174.82471831474598 L250 173.4907581208966 L251 172.1898194231024 L252 170.92212656986544 L253 169.68781837608353 L254 168.48695197448478 L255 167.3195069042801 L256 166.18538938707638 L257 165.0844367422374 L258 164.0164218964695 L259 162.98105794535184 L260 161.97800272773992 L261 161.00686337736968 L262 160.0672008194956 L263 159.15853418394852 L264 158.280345109532 L265 157.43208191814057 L266 156.6131636403342 L267 155.82298387730225 L268 155.0609144871726 L269 154.32630908644032 L270 153.61850635989475 L271 152.93683317480125 L272 152.28060749724216 L273 151.64914111043916 L274 151.0417421365717 L275 150.4577173650789 L276 149.89637439169704 L277 149.35702357355115 L278 148.83897980650008 L279 148.34156413164615 L280 147.86410517847403 L281 147.40594045249594 L282 146.96641747556578 L283 146.54489478719523 L284 146.14074281527877 L285 145.7533446246184 L286 145.38209655155111 L287 145.0264087328306 L288 144.6857055367095 L289 144.35942590392227 L290 144.04702360598662 L291 143.74796742793438 L292 143.46174128225448 L293 143.18784426049015 L294 142.92579062858363 L295 142.67510977170843 L296 142.43534609397813 L297 142.20605887807056 L298 141.98682210946635 L299 141.7772242696653 L300 141.57686810242348 L301 141.38537035674145 L302 141.20236151003797 L303 141.02748547465876 L304 140.86039929060053 L305 140.70077280707622 L306 140.5482883553071 L307 140.4026404147016 L308 140.2635352743696 L309 140.13069069172508 L310 140.00383554974556 L311 139.88270951428686 L312 139.76706269269556 L313 139.65665529481498 L314 139.5512572973479 L315 139.45064811241565 L316 139.35461626104197 L317 139.26295905218632 L318 139.1754822678588 L319 139.09199985476278 L320 139.01233362283574 L321 138.93631295098757 L322 138.86377450027453 L323 138.79456193468909 L324 138.7285256496968 L325 138.66552250860508 L326 138.60541558680967 L327 138.54807392392806 L328 138.49337228379855 L329 138.44119092229596 L330 138.39141536289026 L331 138.34393617985506 L332 138.2986487890128 L333 138.25545324589 L334 138.21425405114255 L335 138.17495996309836 L336 138.13748381725904 L337 138.10174235259166 L338 138.06765604443854 L339 138.03514894386694 L340 138.00414852327893 L341 137.97458552809826 L342 137.9463938343514 L343 137.91951031195882 L344 137.89387469355356 L345 137.86942944864538 L346 137.84611966295037 L347 137.82389292270847 L348 137.80269920381392 L349 137.78249076558623 L350 137.7632220490142 L351 137.74484957930665 L352 137.72733187258996 L353 137.71062934659423 L354 137.69470423517595 L355 137.67952050652724 L356 137.6650437849281 L357 137.6512412759003 L358 137.63808169462794 L359 137.62553519751177 L360 137.61357331673096 L361 137.6021688976883 L362 137.5912960392203 L363 137.58093003645715 L364 137.57104732622173 L365 137.56162543486118 L366 137.55264292840778 L367 137.54407936497043 L368 137.5359152492615 L369 137.52813198916695 L370 137.52071185427218 L371 137.5136379362587 L372 137.5068941110904 L373 137.50046500291114 L374 137.4943359495792 L375 137.48849296976647 L376 137.48292273155295 L377 137.4776125224517 L378 137.4725502207997 L379 137.46772426845433 L380 137.46312364473778 L381 137.45873784157286 L382 137.4545568397574 L383 137.45057108632642 L384 137.44677147295238 L385 137.44314931533754 L386 137.43969633355348 L387 137.43640463328472 L388 137.4332666879358 L389 137.43027532156262 L390 137.4274236925905 L391 137.42470527828348 L392 137.42211385993025 L393 137.41964350871444 L394 137.41728857223777 L395 137.41504366166637 L396 137.4129036394718 L397 137.41086360773926 L398 137.40891889701751 L399 137.40706505568497 " stroke = "black" stroke-width = "6" fill = "none" /></svg>