<svg width="400" height="400" viewbox = "0 0 400 400"  xmlns="http://www.w3.org/2000/svg">

<!--
<topfunctions>







function YofX(){
    X = plotparams.g*(x - plotparams.x0) - funcparams.X0;
    Y = 0.5*(1 + Math.tanh(X));
    y = plotparams.y0 - plotparams.G*(Y - funcparams.Y0);
}



function plotfunction(){

/*plot one function:*/
    currentStroke = "blue";
    currentLineWidth = 1;
    ctx.strokeStyle = currentStroke;
    ctx.lineWidth = currentLineWidth;
    ctx.beginPath();	
    x = 0;
    YofX();
    currentSVG += "	<path d = \"M";
    currentSVG += Math.round(x).toString() + " ";
    currentSVG += Math.round(y).toString() + " ";
    for(x = 1;x < plotparams.plotwidth;x++){
        YofX();
        ctx.lineTo(x,y);
        currentSVG += "L" + x + " " + y + " ";
    }

    ctx.lineTo(400,400);
    currentSVG += "L" + "400" + " " + "400" + " ";
    ctx.lineTo(0,400);
    currentSVG += "L" + "0" + " " + "400" + " ";
    ctx.lineTo(0,plotparams.y0);
    currentSVG += "L" + "0" + " " + plotparams.y0.toString() + " ";
    ctx.fillStyle = "blue";
    ctx.fill();		
    ctx.closePath();
    ctx.stroke();		

    currentSVG += "Z\""+ " stroke = \"" + currentStroke + "\" stroke-width = \"" + currentLineWidth.toString() + "\" fill = \"" + "blue" + "\" "+"/>";
    /*finish plot one function*/


    /*plot one function:*/
    currentStroke = "black";
    currentLineWidth = 6;
    ctx.strokeStyle = currentStroke;
    ctx.lineWidth = currentLineWidth;
    ctx.beginPath();	
    x = 0;
    YofX();
    currentSVG += "	<path d = \"M";
    currentSVG += Math.round(x).toString() + " ";
    currentSVG += Math.round(y).toString() + " ";
    for(x = 1;x < plotparams.plotwidth;x++){
        ctx.moveTo(x-1,y);
        YofX();
        ctx.lineTo(x,y);
        currentSVG += "L" + x + " " + y + " ";
    }
    ctx.stroke();
    currentSVG += "\""+ " stroke = \"" + currentStroke + "\" stroke-width = \"" + currentLineWidth.toString() + "\" fill = \"" + "none" + "\" "+"/>";
    /*finish plot one function*/
    
    

}





</topfunctions>
-->

<!--
<imgurl>

</imgurl>
-->

<!--
<currentjson>
{
    "constants": {},
    "imgurl": "",
    "plotparams": {
        "G": 83.30146206611592,
        "g": 0.07513148009015776,
        "duration": 545.4545454545454,
        "plotwidth": 400,
        "plotheight": 400,
        "x0": 184.6966444964624,
        "y0": 289.01529428549946
    },
    "funcparams": {
        "a": 0.12727272727272726,
        "b": 0,
        "c": 0,
        "X0": 0,
        "Y0": 0
    }
}
</currentjson>
-->

<!--
<equation>






<h2>Filled Fermi Function</h2>
<p style="color:blue">

</p><p class="bigeq">
$$
Y = \frac{1}{2}(\tanh{X} + 1)$$
</p>
<p></p>

$$
X = g(x - x_0) - X_0
$$
$$
Y = f(X)
$$
    
$$
y = y_0 - G(Y - Y_0)
$$


<p>
    X and Y, and $X_0$ and $Y_0$ in physical units of the System. x and y and x0 and y0 in pixels.  G is in pixels per Y unit and g is in X units per pixel. 
</p>







</equation>
-->
	<path d = "M0 289 L1 289.0152942854138 L2 289.0152942853999 L3 289.01529428538373 L4 289.015294285365 L5 289.01529428534315 L6 289.01529428531785 L7 289.0152942852884 L8 289.01529428525413 L9 289.0152942852144 L10 289.0152942851682 L11 289.01529428511446 L12 289.015294285052 L13 289.01529428497946 L14 289.01529428489516 L15 289.01529428479716 L16 289.0152942846833 L17 289.015294284551 L18 289.01529428439716 L19 289.01529428421844 L20 289.01529428401074 L21 289.0152942837693 L22 289.0152942834888 L23 289.0152942831628 L24 289.01529428278394 L25 289.0152942823437 L26 289.015294281832 L27 289.01529428123735 L28 289.0152942805463 L29 289.01529427974316 L30 289.01529427880985 L31 289.0152942777252 L32 289.01529427646466 L33 289.0152942749998 L34 289.01529427329734 L35 289.0152942713189 L36 289.0152942690197 L37 289.01529426634767 L38 289.01529426324237 L39 289.0152942596336 L40 289.01529425543976 L41 289.0152942505659 L42 289.0152942449018 L43 289.01529423831926 L44 289.01529423066944 L45 289.01529422177936 L46 289.0152942114478 L47 289.01529419944103 L48 289.01529418548756 L49 289.0152941692716 L50 289.0152941504265 L51 289.01529412852574 L52 289.01529410307404 L53 289.0152940734956 L54 289.0152940391214 L55 289.0152939991737 L56 289.0152939527489 L57 289.0152938987968 L58 289.0152938360969 L59 289.01529376323083 L60 289.01529367855034 L61 289.0152935801397 L62 289.0152934657728 L63 289.01529333286254 L64 289.01529317840215 L65 289.0152929988976 L66 289.01529279028824 L67 289.015292547855 L68 289.0152922661137 L69 289.0152919386909 L70 289.01529155817985 L71 289.0152911159728 L72 289.01529060206644 L73 289.0152900048354 L74 289.0152893107694 L75 289.0152885041677 L76 289.0152875667838 L77 289.0152864774127 L78 289.0152852114112 L79 289.01528374014055 L80 289.0152820303184 L81 289.0152800432662 L82 289.0152777340338 L83 289.0152750503831 L84 289.01527193160604 L85 289.01526830715136 L86 289.0152640950288 L87 289.015259199954 L88 289.01525351119346 L89 289.0152469000595 L90 289.0152392169988 L91 289.01523028821003 L92 289.01521991171165 L93 289.0152078527732 L94 289.0151938386052 L95 289.0151775521888 L96 289.01515862510405 L97 289.01513662919643 L98 289.0151110668914 L99 289.015081359939 L100 289.01504683633397 L101 289.0150067151145 L102 289.0149600886972 L103 289.01490590234744 L104 289.01484293032246 L105 289.01476974814557 L106 289.01468470038674 L107 289.0145858632196 L108 289.01447100090877 L109 289.0143375152439 L110 289.0141823867776 L111 289.0140021065388 L112 289.01379259667874 L113 289.0135491182561 L114 289.01326616407914 L115 289.01293733418385 L116 289.0125551911371 L117 289.01211109189865 L118 289.0115949924481 L119 289.01099522077106 L120 289.01029821308606 L121 289.00948820736994 L122 289.0085468872817 L123 289.0074529684728 L124 289.0061817179865 L125 289.00470439595307 L126 289.0029876070602 L127 289.0009925472749 L128 288.99867412897214 L129 288.9959799649479 L130 288.9928491886919 L131 288.9892110847192 L132 288.9849834986321 L133 288.9800709918298 L134 288.9743627003172 L135 288.9677298507863 L136 288.96002287995265 L137 288.95106809491307 L138 288.9406638029296 L139 288.9285758284156 L140 288.9145323228943 L141 288.8982177601951 L142 288.87926599408087 L143 288.85725223879547 L144 288.8316838147162 L145 288.8019894814903 L146 288.76750715998077 L147 288.727469822497 L148 288.68098930887083 L149 288.6270378050754 L150 288.5644267029351 L151 288.49178254639446 L152 288.4075197651216 L153 288.30980990445994 L154 288.1965470880457 L155 288.0653095039167 L156 287.9133167972681 L157 287.7373833967549 L158 287.5338680134414 L159 287.29861985298504 L160 287.026922497075 L161 286.7134369674886 L162 286.3521462151649 L163 285.93630420602784 L164 285.45839392711724 L165 284.910100018356 L166 284.28230332733375 L167 283.56510642297917 L168 282.7479008590425 L169 281.8194885287852 L170 280.76827046108 L171 279.5825164056967 L172 278.25072694409965 L173 276.7620959582035 L174 275.10707442554167 L175 273.2780262103649 L176 271.2699527591572 L177 269.08124711025584 L178 266.7144201431265 L179 264.17672642601264 L180 261.4806072325186 L181 258.64386847263 L182 255.68952483790994 L183 252.64526969473138 L184 249.54257118904818 L185 246.4154429539007 L186 243.29898408608437 L187 240.2278180663746 L188 237.23457615277053 L189 234.34856376097085 L190 231.59472011603484 L191 228.99293850170085 L192 226.55776601507335 L193 224.29845717807723 L194 222.2193220857614 L195 220.320290437791 L196 218.59760768352027 L197 217.04458586597434 L198 215.6523455421439 L199 214.41050229505726 L200 213.3077685120963 L201 212.3324560799607 L202 211.47287733868293 L203 210.71764981375014 L204 210.0559152396624 L205 209.47748581762824 L206 208.97293120779287 L207 208.53361908175737 L208 208.1517206763625 L209 207.82019108281986 L210 207.5327322402971 L211 207.28374494267558 L212 207.06827469836804 L213 206.88195504053135 L214 206.72095087022905 L215 206.5819036104893 L216 206.4618793279123 L217 206.35832051071793 L218 206.26900184897073 L219 206.19199011810215 L220 206.12560809842282 L221 206.06840235256766 L222 206.01911461485633 L223 205.97665650964382 L224 205.94008730083428 L225 205.9085943749589 L226 205.8814761704569 L227 205.85812728228242 L228 205.83802549099033 L229 205.82072048711098 L230 205.8058240836094 L231 205.79300173065712 L232 205.78196516727905 L233 205.7724660633551 L234 205.76429052279462 L235 205.75725433441258 L236 205.75119887115 L237 205.7459875508638 L238 205.74150278306934 L239 205.7376433358618 L240 205.73432206589786 L241 205.7314639618971 L242 205.72900445874865 L243 205.7268879850797 L244 205.72506671216848 L245 205.72349947644565 L246 205.72215085161534 L247 205.7209903497049 L248 205.7199917331926 L249 205.71913242281718 L250 205.71839298779443 L251 205.7177567069994 L252 205.7172091912546 L253 205.71673805822834 L254 205.71633265262713 L255 205.71598380537793 L256 205.71568362637404 L257 205.71542532611045 L258 205.7152030621849 L259 205.7150118072007 L260 205.7148472350887 L261 205.7147056232817 L262 205.71458376853153 L263 205.7144789144667 L264 205.71438868925418 L265 205.71431105195575 L266 205.7142442463674 L267 205.71418676129713 L268 205.71413729638408 L269 205.71409473268588 L270 205.71405810736877 L271 205.7140265919288 L272 205.71399947345117 L273 205.71397613848399 L274 205.71395605916192 L275 205.71393878126548 L276 205.71392391394647 L277 205.7139111208867 L278 205.71390011269006 L279 205.71389064033625 L280 205.71388248954764 L281 205.7138754759422 L282 205.71386944086223 L283 205.71386424778584 L284 205.71385977923825 L285 205.71385593413456 L286 205.71385262549302 L287 205.7138497784674 L288 205.71384732865386 L289 205.71384522063408 L290 205.71384340672162 L291 205.7138418458831 L292 205.71384050281014 L293 205.71383934712043 L294 205.7138383526706 L295 205.7138374969647 L296 205.71383676064545 L297 205.71383612705625 L298 205.71383558186432 L299 205.71383511273663 L300 205.71383470906085 L301 205.71383436170527 L302 205.7138340628121 L303 205.71383380562008 L304 205.713833584311 L305 205.71383339387862 L306 205.71383323001504 L307 205.71383308901343 L308 205.71383296768414 L309 205.71383286328248 L310 205.71383277344677 L311 205.7138326961448 L312 205.71383262962786 L313 205.71383257239125 L314 205.71383252314024 L315 205.7138324807606 L316 205.7138324442937 L317 205.71383241291463 L318 205.7138323859135 L319 205.7138323626795 L320 205.7138323426871 L321 205.713832325484 L322 205.71383231068103 L323 205.71383229794338 L324 205.71383228698284 L325 205.7138322775515 L326 205.713832269436 L327 205.71383226245277 L328 205.71383225644382 L329 205.71383225127323 L330 205.71383224682404 L331 205.71383224299558 L332 205.71383223970128 L333 205.71383223686655 L334 205.71383223442737 L335 205.71383223232849 L336 205.71383223052243 L337 205.71383222896833 L338 205.7138322276311 L339 205.7138322264804 L340 205.71383222549025 L341 205.71383222463828 L342 205.71383222390514 L343 205.7138322232743 L344 205.71383222273147 L345 205.71383222226436 L346 205.71383222186245 L347 205.71383222151658 L348 205.71383222121898 L349 205.7138322209629 L350 205.71383222074257 L351 205.71383222055294 L352 205.7138322203898 L353 205.7138322202494 L354 205.7138322201286 L355 205.71383222002464 L356 205.71383221993523 L357 205.71383221985826 L358 205.713832219792 L359 205.71383221973502 L360 205.71383221968597 L361 205.7138322196438 L362 205.71383221960747 L363 205.71383221957626 L364 205.71383221954935 L365 205.71383221952624 L366 205.71383221950632 L367 205.71383221948918 L368 205.71383221947445 L369 205.71383221946178 L370 205.71383221945086 L371 205.71383221944146 L372 205.71383221943336 L373 205.71383221942642 L374 205.71383221942045 L375 205.71383221941528 L376 205.71383221941085 L377 205.71383221940704 L378 205.7138322194038 L379 205.71383221940096 L380 205.7138322193985 L381 205.71383221939644 L382 205.71383221939465 L383 205.7138322193931 L384 205.71383221939175 L385 205.7138322193906 L386 205.71383221938964 L387 205.7138322193888 L388 205.71383221938805 L389 205.71383221938743 L390 205.71383221938686 L391 205.7138322193864 L392 205.713832219386 L393 205.71383221938567 L394 205.71383221938538 L395 205.71383221938513 L396 205.7138322193849 L397 205.7138322193847 L398 205.71383221938453 L399 205.71383221938441 L400 400 L0 400 L0 289.01529428549946 Z" stroke = "blue" stroke-width = "1" fill = "blue" />	<path d = "M0 289 L1 289.0152942854138 L2 289.0152942853999 L3 289.01529428538373 L4 289.015294285365 L5 289.01529428534315 L6 289.01529428531785 L7 289.0152942852884 L8 289.01529428525413 L9 289.0152942852144 L10 289.0152942851682 L11 289.01529428511446 L12 289.015294285052 L13 289.01529428497946 L14 289.01529428489516 L15 289.01529428479716 L16 289.0152942846833 L17 289.015294284551 L18 289.01529428439716 L19 289.01529428421844 L20 289.01529428401074 L21 289.0152942837693 L22 289.0152942834888 L23 289.0152942831628 L24 289.01529428278394 L25 289.0152942823437 L26 289.015294281832 L27 289.01529428123735 L28 289.0152942805463 L29 289.01529427974316 L30 289.01529427880985 L31 289.0152942777252 L32 289.01529427646466 L33 289.0152942749998 L34 289.01529427329734 L35 289.0152942713189 L36 289.0152942690197 L37 289.01529426634767 L38 289.01529426324237 L39 289.0152942596336 L40 289.01529425543976 L41 289.0152942505659 L42 289.0152942449018 L43 289.01529423831926 L44 289.01529423066944 L45 289.01529422177936 L46 289.0152942114478 L47 289.01529419944103 L48 289.01529418548756 L49 289.0152941692716 L50 289.0152941504265 L51 289.01529412852574 L52 289.01529410307404 L53 289.0152940734956 L54 289.0152940391214 L55 289.0152939991737 L56 289.0152939527489 L57 289.0152938987968 L58 289.0152938360969 L59 289.01529376323083 L60 289.01529367855034 L61 289.0152935801397 L62 289.0152934657728 L63 289.01529333286254 L64 289.01529317840215 L65 289.0152929988976 L66 289.01529279028824 L67 289.015292547855 L68 289.0152922661137 L69 289.0152919386909 L70 289.01529155817985 L71 289.0152911159728 L72 289.01529060206644 L73 289.0152900048354 L74 289.0152893107694 L75 289.0152885041677 L76 289.0152875667838 L77 289.0152864774127 L78 289.0152852114112 L79 289.01528374014055 L80 289.0152820303184 L81 289.0152800432662 L82 289.0152777340338 L83 289.0152750503831 L84 289.01527193160604 L85 289.01526830715136 L86 289.0152640950288 L87 289.015259199954 L88 289.01525351119346 L89 289.0152469000595 L90 289.0152392169988 L91 289.01523028821003 L92 289.01521991171165 L93 289.0152078527732 L94 289.0151938386052 L95 289.0151775521888 L96 289.01515862510405 L97 289.01513662919643 L98 289.0151110668914 L99 289.015081359939 L100 289.01504683633397 L101 289.0150067151145 L102 289.0149600886972 L103 289.01490590234744 L104 289.01484293032246 L105 289.01476974814557 L106 289.01468470038674 L107 289.0145858632196 L108 289.01447100090877 L109 289.0143375152439 L110 289.0141823867776 L111 289.0140021065388 L112 289.01379259667874 L113 289.0135491182561 L114 289.01326616407914 L115 289.01293733418385 L116 289.0125551911371 L117 289.01211109189865 L118 289.0115949924481 L119 289.01099522077106 L120 289.01029821308606 L121 289.00948820736994 L122 289.0085468872817 L123 289.0074529684728 L124 289.0061817179865 L125 289.00470439595307 L126 289.0029876070602 L127 289.0009925472749 L128 288.99867412897214 L129 288.9959799649479 L130 288.9928491886919 L131 288.9892110847192 L132 288.9849834986321 L133 288.9800709918298 L134 288.9743627003172 L135 288.9677298507863 L136 288.96002287995265 L137 288.95106809491307 L138 288.9406638029296 L139 288.9285758284156 L140 288.9145323228943 L141 288.8982177601951 L142 288.87926599408087 L143 288.85725223879547 L144 288.8316838147162 L145 288.8019894814903 L146 288.76750715998077 L147 288.727469822497 L148 288.68098930887083 L149 288.6270378050754 L150 288.5644267029351 L151 288.49178254639446 L152 288.4075197651216 L153 288.30980990445994 L154 288.1965470880457 L155 288.0653095039167 L156 287.9133167972681 L157 287.7373833967549 L158 287.5338680134414 L159 287.29861985298504 L160 287.026922497075 L161 286.7134369674886 L162 286.3521462151649 L163 285.93630420602784 L164 285.45839392711724 L165 284.910100018356 L166 284.28230332733375 L167 283.56510642297917 L168 282.7479008590425 L169 281.8194885287852 L170 280.76827046108 L171 279.5825164056967 L172 278.25072694409965 L173 276.7620959582035 L174 275.10707442554167 L175 273.2780262103649 L176 271.2699527591572 L177 269.08124711025584 L178 266.7144201431265 L179 264.17672642601264 L180 261.4806072325186 L181 258.64386847263 L182 255.68952483790994 L183 252.64526969473138 L184 249.54257118904818 L185 246.4154429539007 L186 243.29898408608437 L187 240.2278180663746 L188 237.23457615277053 L189 234.34856376097085 L190 231.59472011603484 L191 228.99293850170085 L192 226.55776601507335 L193 224.29845717807723 L194 222.2193220857614 L195 220.320290437791 L196 218.59760768352027 L197 217.04458586597434 L198 215.6523455421439 L199 214.41050229505726 L200 213.3077685120963 L201 212.3324560799607 L202 211.47287733868293 L203 210.71764981375014 L204 210.0559152396624 L205 209.47748581762824 L206 208.97293120779287 L207 208.53361908175737 L208 208.1517206763625 L209 207.82019108281986 L210 207.5327322402971 L211 207.28374494267558 L212 207.06827469836804 L213 206.88195504053135 L214 206.72095087022905 L215 206.5819036104893 L216 206.4618793279123 L217 206.35832051071793 L218 206.26900184897073 L219 206.19199011810215 L220 206.12560809842282 L221 206.06840235256766 L222 206.01911461485633 L223 205.97665650964382 L224 205.94008730083428 L225 205.9085943749589 L226 205.8814761704569 L227 205.85812728228242 L228 205.83802549099033 L229 205.82072048711098 L230 205.8058240836094 L231 205.79300173065712 L232 205.78196516727905 L233 205.7724660633551 L234 205.76429052279462 L235 205.75725433441258 L236 205.75119887115 L237 205.7459875508638 L238 205.74150278306934 L239 205.7376433358618 L240 205.73432206589786 L241 205.7314639618971 L242 205.72900445874865 L243 205.7268879850797 L244 205.72506671216848 L245 205.72349947644565 L246 205.72215085161534 L247 205.7209903497049 L248 205.7199917331926 L249 205.71913242281718 L250 205.71839298779443 L251 205.7177567069994 L252 205.7172091912546 L253 205.71673805822834 L254 205.71633265262713 L255 205.71598380537793 L256 205.71568362637404 L257 205.71542532611045 L258 205.7152030621849 L259 205.7150118072007 L260 205.7148472350887 L261 205.7147056232817 L262 205.71458376853153 L263 205.7144789144667 L264 205.71438868925418 L265 205.71431105195575 L266 205.7142442463674 L267 205.71418676129713 L268 205.71413729638408 L269 205.71409473268588 L270 205.71405810736877 L271 205.7140265919288 L272 205.71399947345117 L273 205.71397613848399 L274 205.71395605916192 L275 205.71393878126548 L276 205.71392391394647 L277 205.7139111208867 L278 205.71390011269006 L279 205.71389064033625 L280 205.71388248954764 L281 205.7138754759422 L282 205.71386944086223 L283 205.71386424778584 L284 205.71385977923825 L285 205.71385593413456 L286 205.71385262549302 L287 205.7138497784674 L288 205.71384732865386 L289 205.71384522063408 L290 205.71384340672162 L291 205.7138418458831 L292 205.71384050281014 L293 205.71383934712043 L294 205.7138383526706 L295 205.7138374969647 L296 205.71383676064545 L297 205.71383612705625 L298 205.71383558186432 L299 205.71383511273663 L300 205.71383470906085 L301 205.71383436170527 L302 205.7138340628121 L303 205.71383380562008 L304 205.713833584311 L305 205.71383339387862 L306 205.71383323001504 L307 205.71383308901343 L308 205.71383296768414 L309 205.71383286328248 L310 205.71383277344677 L311 205.7138326961448 L312 205.71383262962786 L313 205.71383257239125 L314 205.71383252314024 L315 205.7138324807606 L316 205.7138324442937 L317 205.71383241291463 L318 205.7138323859135 L319 205.7138323626795 L320 205.7138323426871 L321 205.713832325484 L322 205.71383231068103 L323 205.71383229794338 L324 205.71383228698284 L325 205.7138322775515 L326 205.713832269436 L327 205.71383226245277 L328 205.71383225644382 L329 205.71383225127323 L330 205.71383224682404 L331 205.71383224299558 L332 205.71383223970128 L333 205.71383223686655 L334 205.71383223442737 L335 205.71383223232849 L336 205.71383223052243 L337 205.71383222896833 L338 205.7138322276311 L339 205.7138322264804 L340 205.71383222549025 L341 205.71383222463828 L342 205.71383222390514 L343 205.7138322232743 L344 205.71383222273147 L345 205.71383222226436 L346 205.71383222186245 L347 205.71383222151658 L348 205.71383222121898 L349 205.7138322209629 L350 205.71383222074257 L351 205.71383222055294 L352 205.7138322203898 L353 205.7138322202494 L354 205.7138322201286 L355 205.71383222002464 L356 205.71383221993523 L357 205.71383221985826 L358 205.713832219792 L359 205.71383221973502 L360 205.71383221968597 L361 205.7138322196438 L362 205.71383221960747 L363 205.71383221957626 L364 205.71383221954935 L365 205.71383221952624 L366 205.71383221950632 L367 205.71383221948918 L368 205.71383221947445 L369 205.71383221946178 L370 205.71383221945086 L371 205.71383221944146 L372 205.71383221943336 L373 205.71383221942642 L374 205.71383221942045 L375 205.71383221941528 L376 205.71383221941085 L377 205.71383221940704 L378 205.7138322194038 L379 205.71383221940096 L380 205.7138322193985 L381 205.71383221939644 L382 205.71383221939465 L383 205.7138322193931 L384 205.71383221939175 L385 205.7138322193906 L386 205.71383221938964 L387 205.7138322193888 L388 205.71383221938805 L389 205.71383221938743 L390 205.71383221938686 L391 205.7138322193864 L392 205.713832219386 L393 205.71383221938567 L394 205.71383221938538 L395 205.71383221938513 L396 205.7138322193849 L397 205.7138322193847 L398 205.71383221938453 L399 205.71383221938441 " stroke = "black" stroke-width = "6" fill = "none" /></svg>