<svg width="400" height="400" viewbox = "0 0 400 400"  xmlns="http://www.w3.org/2000/svg">

<!--
<topfunctions>



function YofX(){
    X = plotparams.g*(x - plotparams.x0) - funcparams.X0;
    Y = Math.sin(funcparams.phi + (Math.PI*2*X/funcparams.T));
    if(Y >= 1/Math.sqrt(2)){
        Y = 1;
    }
    else{
        Y = -1
    }
    y = plotparams.y0 - plotparams.G*(Y - funcparams.Y0);
}

function YofX2(){
    X = plotparams.g*(x - plotparams.x0) - funcparams.X0;
    Y = Math.sin(-0.5*Math.PI + funcparams.phi + (Math.PI*2*X/funcparams.T));
    if(Y >= 1/Math.sqrt(2)){
        Y = 1;
    }
    else{
        Y = -1
    }
    Y -= 3;
    y = plotparams.y0 - plotparams.G*(Y - funcparams.Y0);
}

function YofX3(){
    X = plotparams.g*(x - plotparams.x0) - funcparams.X0;
    Y = Math.sin(-Math.PI + funcparams.phi + (Math.PI*2*X/funcparams.T));
    if(Y >= 1/Math.sqrt(2)){
        Y = 1;
    }
    else{
        Y = -1
    }
    Y -= 6;
    y = plotparams.y0 - plotparams.G*(Y - funcparams.Y0);
}
function YofX4(){
    X = plotparams.g*(x - plotparams.x0) - funcparams.X0;
    Y = Math.sin(-1.5*Math.PI + funcparams.phi + (Math.PI*2*X/funcparams.T));
    if(Y >= 1/Math.sqrt(2)){
        Y = 1;
    }
    else{
        Y = -1
    }
    Y -= 9;
    y = plotparams.y0 - plotparams.G*(Y - funcparams.Y0);
}


function plotfunction(){

/*
    currentStroke = "blue";
    currentLineWidth = 4;
    ctx.strokeStyle = currentStroke;
    ctx.lineWidth = currentLineWidth;
    ctx.beginPath();	
    x = 0;
    y = 0;
    t= 0;
    XYofT();
    currentSVG += "	<path d = \"M";
    currentSVG += Math.round(x).toString() + " ";
    currentSVG += Math.round(y).toString() + " ";
    for(t = 1;t < plotparams.duration;t++){
        ctx.moveTo(x,y);
        XYofT();
        ctx.lineTo(x,y);
        currentSVG += "L" + x + " " + y + " ";
    }
    ctx.stroke();
    currentSVG += "\""+ " stroke = \"" + currentStroke + "\" stroke-width = \"" + currentLineWidth.toString() + "\" fill = \"" + "none" + "\" "+"/>";


    /*plot one function:*/
    currentStroke = "red";
    currentLineWidth = 4;
    ctx.strokeStyle = currentStroke;
    ctx.lineWidth = currentLineWidth;
    ctx.beginPath();	
    x = 0;
    YofX();
    currentSVG += "	<path d = \"M";
    currentSVG += Math.round(x).toString() + " ";
    currentSVG += Math.round(y).toString() + " ";
    for(x = 1;x < plotparams.plotwidth;x++){
        ctx.moveTo(x-1,y);
        YofX();
        ctx.lineTo(x,y);
        currentSVG += "L" + x + " " + y + " ";
    }
    ctx.stroke();
    currentSVG += "\""+ " stroke = \"" + currentStroke + "\" stroke-width = \"" + currentLineWidth.toString() + "\" fill = \"" + "none" + "\" "+"/>";
    /*finish plot one function*/
    
    /*plot one function:*/
    currentStroke = "green";
    currentLineWidth = 4;
    ctx.strokeStyle = currentStroke;
    ctx.lineWidth = currentLineWidth;
    ctx.beginPath();	
    x = 0;
    YofX2();
    currentSVG += "	<path d = \"M";
    currentSVG += Math.round(x).toString() + " ";
    currentSVG += Math.round(y).toString() + " ";
    for(x = 1;x < plotparams.plotwidth;x++){
        ctx.moveTo(x-1,y);
        YofX2();
        ctx.lineTo(x,y);
        currentSVG += "L" + x + " " + y + " ";
    }
    ctx.stroke();
    currentSVG += "\""+ " stroke = \"" + currentStroke + "\" stroke-width = \"" + currentLineWidth.toString() + "\" fill = \"" + "none" + "\" "+"/>";
    /*finish plot one function*/
    
     /*plot one function:*/
    currentStroke = "blue";
    currentLineWidth = 4;
    ctx.strokeStyle = currentStroke;
    ctx.lineWidth = currentLineWidth;
    ctx.beginPath();	
    x = 0;
    YofX3();
    currentSVG += "	<path d = \"M";
    currentSVG += Math.round(x).toString() + " ";
    currentSVG += Math.round(y).toString() + " ";
    for(x = 1;x < plotparams.plotwidth;x++){
        ctx.moveTo(x-1,y);
        YofX3();
        ctx.lineTo(x,y);
        currentSVG += "L" + x + " " + y + " ";
    }
    ctx.stroke();
    currentSVG += "\""+ " stroke = \"" + currentStroke + "\" stroke-width = \"" + currentLineWidth.toString() + "\" fill = \"" + "none" + "\" "+"/>";
    /*finish plot one function*/


    /*plot one function:*/
    currentStroke = "purple";
    currentLineWidth = 4;
    ctx.strokeStyle = currentStroke;
    ctx.lineWidth = currentLineWidth;
    ctx.beginPath();	
    x = 0;
    YofX4();
    currentSVG += "	<path d = \"M";
    currentSVG += Math.round(x).toString() + " ";
    currentSVG += Math.round(y).toString() + " ";
    for(x = 1;x < plotparams.plotwidth;x++){
        ctx.moveTo(x-1,y);
        YofX4();
        ctx.lineTo(x,y);
        currentSVG += "L" + x + " " + y + " ";
    }
    ctx.stroke();
    currentSVG += "\""+ " stroke = \"" + currentStroke + "\" stroke-width = \"" + currentLineWidth.toString() + "\" fill = \"" + "none" + "\" "+"/>";
    /*finish plot one function*/

}

</topfunctions>
-->

<!--
<imgurl>

</imgurl>
-->

<!--
<currentjson>
{
    "constants": {},
    "imgurl": "",
    "plotparams": {
        "G": 19.784466890013498,
        "g": 0.009229599817706406,
        "duration": 409.8080732190423,
        "plotwidth": 400,
        "plotheight": 400,
        "x0": 22.054291067807203,
        "y0": 136.6026910730141
    },
    "funcparams": {
        "phi": 0.2688139066614501,
        "T": 1.4465183912692552,
        "X0": 0,
        "Y0": 0
    }
}
</currentjson>
-->

<!--
<equation>




<h2>Sin</h2>
<p style="color:blue">

</p><p class="bigeq">
$$
Y = \sin{\left(\phi + \frac{2\pi X}{T}\right)}

$$
</p>
<p></p>

$$
X = g(x - x_0) - X_0
$$
$$
Y = f(X)
$$
    
$$
y = y_0 - G(Y - Y_0)
$$


<p>
    X and Y, and $X_0$ and $Y_0$ in physical units of the System. x and y and x0 and y0 in pixels.  G is in pixels per Y unit and g is in X units per pixel. 
</p>





</equation>
-->
	<path d = "M0 156 L1 156.38715796302762 L2 156.38715796302762 L3 156.38715796302762 L4 156.38715796302762 L5 156.38715796302762 L6 156.38715796302762 L7 156.38715796302762 L8 156.38715796302762 L9 156.38715796302762 L10 156.38715796302762 L11 156.38715796302762 L12 156.38715796302762 L13 156.38715796302762 L14 156.38715796302762 L15 156.38715796302762 L16 156.38715796302762 L17 156.38715796302762 L18 156.38715796302762 L19 156.38715796302762 L20 156.38715796302762 L21 156.38715796302762 L22 156.38715796302762 L23 156.38715796302762 L24 156.38715796302762 L25 156.38715796302762 L26 156.38715796302762 L27 156.38715796302762 L28 156.38715796302762 L29 156.38715796302762 L30 156.38715796302762 L31 156.38715796302762 L32 156.38715796302762 L33 156.38715796302762 L34 156.38715796302762 L35 116.81822418300061 L36 116.81822418300061 L37 116.81822418300061 L38 116.81822418300061 L39 116.81822418300061 L40 116.81822418300061 L41 116.81822418300061 L42 116.81822418300061 L43 116.81822418300061 L44 116.81822418300061 L45 116.81822418300061 L46 116.81822418300061 L47 116.81822418300061 L48 116.81822418300061 L49 116.81822418300061 L50 116.81822418300061 L51 116.81822418300061 L52 116.81822418300061 L53 116.81822418300061 L54 116.81822418300061 L55 116.81822418300061 L56 116.81822418300061 L57 116.81822418300061 L58 116.81822418300061 L59 116.81822418300061 L60 116.81822418300061 L61 116.81822418300061 L62 116.81822418300061 L63 116.81822418300061 L64 116.81822418300061 L65 116.81822418300061 L66 116.81822418300061 L67 116.81822418300061 L68 116.81822418300061 L69 116.81822418300061 L70 116.81822418300061 L71 116.81822418300061 L72 116.81822418300061 L73 116.81822418300061 L74 116.81822418300061 L75 156.38715796302762 L76 156.38715796302762 L77 156.38715796302762 L78 156.38715796302762 L79 156.38715796302762 L80 156.38715796302762 L81 156.38715796302762 L82 156.38715796302762 L83 156.38715796302762 L84 156.38715796302762 L85 156.38715796302762 L86 156.38715796302762 L87 156.38715796302762 L88 156.38715796302762 L89 156.38715796302762 L90 156.38715796302762 L91 156.38715796302762 L92 156.38715796302762 L93 156.38715796302762 L94 156.38715796302762 L95 156.38715796302762 L96 156.38715796302762 L97 156.38715796302762 L98 156.38715796302762 L99 156.38715796302762 L100 156.38715796302762 L101 156.38715796302762 L102 156.38715796302762 L103 156.38715796302762 L104 156.38715796302762 L105 156.38715796302762 L106 156.38715796302762 L107 156.38715796302762 L108 156.38715796302762 L109 156.38715796302762 L110 156.38715796302762 L111 156.38715796302762 L112 156.38715796302762 L113 156.38715796302762 L114 156.38715796302762 L115 156.38715796302762 L116 156.38715796302762 L117 156.38715796302762 L118 156.38715796302762 L119 156.38715796302762 L120 156.38715796302762 L121 156.38715796302762 L122 156.38715796302762 L123 156.38715796302762 L124 156.38715796302762 L125 156.38715796302762 L126 156.38715796302762 L127 156.38715796302762 L128 156.38715796302762 L129 156.38715796302762 L130 156.38715796302762 L131 156.38715796302762 L132 156.38715796302762 L133 156.38715796302762 L134 156.38715796302762 L135 156.38715796302762 L136 156.38715796302762 L137 156.38715796302762 L138 156.38715796302762 L139 156.38715796302762 L140 156.38715796302762 L141 156.38715796302762 L142 156.38715796302762 L143 156.38715796302762 L144 156.38715796302762 L145 156.38715796302762 L146 156.38715796302762 L147 156.38715796302762 L148 156.38715796302762 L149 156.38715796302762 L150 156.38715796302762 L151 156.38715796302762 L152 156.38715796302762 L153 156.38715796302762 L154 156.38715796302762 L155 156.38715796302762 L156 156.38715796302762 L157 156.38715796302762 L158 156.38715796302762 L159 156.38715796302762 L160 156.38715796302762 L161 156.38715796302762 L162 156.38715796302762 L163 156.38715796302762 L164 156.38715796302762 L165 156.38715796302762 L166 156.38715796302762 L167 156.38715796302762 L168 156.38715796302762 L169 156.38715796302762 L170 156.38715796302762 L171 156.38715796302762 L172 156.38715796302762 L173 156.38715796302762 L174 156.38715796302762 L175 156.38715796302762 L176 156.38715796302762 L177 156.38715796302762 L178 156.38715796302762 L179 156.38715796302762 L180 156.38715796302762 L181 156.38715796302762 L182 156.38715796302762 L183 156.38715796302762 L184 156.38715796302762 L185 156.38715796302762 L186 156.38715796302762 L187 156.38715796302762 L188 156.38715796302762 L189 156.38715796302762 L190 156.38715796302762 L191 156.38715796302762 L192 116.81822418300061 L193 116.81822418300061 L194 116.81822418300061 L195 116.81822418300061 L196 116.81822418300061 L197 116.81822418300061 L198 116.81822418300061 L199 116.81822418300061 L200 116.81822418300061 L201 116.81822418300061 L202 116.81822418300061 L203 116.81822418300061 L204 116.81822418300061 L205 116.81822418300061 L206 116.81822418300061 L207 116.81822418300061 L208 116.81822418300061 L209 116.81822418300061 L210 116.81822418300061 L211 116.81822418300061 L212 116.81822418300061 L213 116.81822418300061 L214 116.81822418300061 L215 116.81822418300061 L216 116.81822418300061 L217 116.81822418300061 L218 116.81822418300061 L219 116.81822418300061 L220 116.81822418300061 L221 116.81822418300061 L222 116.81822418300061 L223 116.81822418300061 L224 116.81822418300061 L225 116.81822418300061 L226 116.81822418300061 L227 116.81822418300061 L228 116.81822418300061 L229 116.81822418300061 L230 116.81822418300061 L231 156.38715796302762 L232 156.38715796302762 L233 156.38715796302762 L234 156.38715796302762 L235 156.38715796302762 L236 156.38715796302762 L237 156.38715796302762 L238 156.38715796302762 L239 156.38715796302762 L240 156.38715796302762 L241 156.38715796302762 L242 156.38715796302762 L243 156.38715796302762 L244 156.38715796302762 L245 156.38715796302762 L246 156.38715796302762 L247 156.38715796302762 L248 156.38715796302762 L249 156.38715796302762 L250 156.38715796302762 L251 156.38715796302762 L252 156.38715796302762 L253 156.38715796302762 L254 156.38715796302762 L255 156.38715796302762 L256 156.38715796302762 L257 156.38715796302762 L258 156.38715796302762 L259 156.38715796302762 L260 156.38715796302762 L261 156.38715796302762 L262 156.38715796302762 L263 156.38715796302762 L264 156.38715796302762 L265 156.38715796302762 L266 156.38715796302762 L267 156.38715796302762 L268 156.38715796302762 L269 156.38715796302762 L270 156.38715796302762 L271 156.38715796302762 L272 156.38715796302762 L273 156.38715796302762 L274 156.38715796302762 L275 156.38715796302762 L276 156.38715796302762 L277 156.38715796302762 L278 156.38715796302762 L279 156.38715796302762 L280 156.38715796302762 L281 156.38715796302762 L282 156.38715796302762 L283 156.38715796302762 L284 156.38715796302762 L285 156.38715796302762 L286 156.38715796302762 L287 156.38715796302762 L288 156.38715796302762 L289 156.38715796302762 L290 156.38715796302762 L291 156.38715796302762 L292 156.38715796302762 L293 156.38715796302762 L294 156.38715796302762 L295 156.38715796302762 L296 156.38715796302762 L297 156.38715796302762 L298 156.38715796302762 L299 156.38715796302762 L300 156.38715796302762 L301 156.38715796302762 L302 156.38715796302762 L303 156.38715796302762 L304 156.38715796302762 L305 156.38715796302762 L306 156.38715796302762 L307 156.38715796302762 L308 156.38715796302762 L309 156.38715796302762 L310 156.38715796302762 L311 156.38715796302762 L312 156.38715796302762 L313 156.38715796302762 L314 156.38715796302762 L315 156.38715796302762 L316 156.38715796302762 L317 156.38715796302762 L318 156.38715796302762 L319 156.38715796302762 L320 156.38715796302762 L321 156.38715796302762 L322 156.38715796302762 L323 156.38715796302762 L324 156.38715796302762 L325 156.38715796302762 L326 156.38715796302762 L327 156.38715796302762 L328 156.38715796302762 L329 156.38715796302762 L330 156.38715796302762 L331 156.38715796302762 L332 156.38715796302762 L333 156.38715796302762 L334 156.38715796302762 L335 156.38715796302762 L336 156.38715796302762 L337 156.38715796302762 L338 156.38715796302762 L339 156.38715796302762 L340 156.38715796302762 L341 156.38715796302762 L342 156.38715796302762 L343 156.38715796302762 L344 156.38715796302762 L345 156.38715796302762 L346 156.38715796302762 L347 156.38715796302762 L348 156.38715796302762 L349 116.81822418300061 L350 116.81822418300061 L351 116.81822418300061 L352 116.81822418300061 L353 116.81822418300061 L354 116.81822418300061 L355 116.81822418300061 L356 116.81822418300061 L357 116.81822418300061 L358 116.81822418300061 L359 116.81822418300061 L360 116.81822418300061 L361 116.81822418300061 L362 116.81822418300061 L363 116.81822418300061 L364 116.81822418300061 L365 116.81822418300061 L366 116.81822418300061 L367 116.81822418300061 L368 116.81822418300061 L369 116.81822418300061 L370 116.81822418300061 L371 116.81822418300061 L372 116.81822418300061 L373 116.81822418300061 L374 116.81822418300061 L375 116.81822418300061 L376 116.81822418300061 L377 116.81822418300061 L378 116.81822418300061 L379 116.81822418300061 L380 116.81822418300061 L381 116.81822418300061 L382 116.81822418300061 L383 116.81822418300061 L384 116.81822418300061 L385 116.81822418300061 L386 116.81822418300061 L387 116.81822418300061 L388 156.38715796302762 L389 156.38715796302762 L390 156.38715796302762 L391 156.38715796302762 L392 156.38715796302762 L393 156.38715796302762 L394 156.38715796302762 L395 156.38715796302762 L396 156.38715796302762 L397 156.38715796302762 L398 156.38715796302762 L399 156.38715796302762 " stroke = "red" stroke-width = "4" fill = "none" />	<path d = "M0 216 L1 215.7405586330681 L2 215.7405586330681 L3 215.7405586330681 L4 215.7405586330681 L5 215.7405586330681 L6 215.7405586330681 L7 215.7405586330681 L8 215.7405586330681 L9 215.7405586330681 L10 215.7405586330681 L11 215.7405586330681 L12 215.7405586330681 L13 215.7405586330681 L14 215.7405586330681 L15 215.7405586330681 L16 215.7405586330681 L17 215.7405586330681 L18 215.7405586330681 L19 215.7405586330681 L20 215.7405586330681 L21 215.7405586330681 L22 215.7405586330681 L23 215.7405586330681 L24 215.7405586330681 L25 215.7405586330681 L26 215.7405586330681 L27 215.7405586330681 L28 215.7405586330681 L29 215.7405586330681 L30 215.7405586330681 L31 215.7405586330681 L32 215.7405586330681 L33 215.7405586330681 L34 215.7405586330681 L35 215.7405586330681 L36 215.7405586330681 L37 215.7405586330681 L38 215.7405586330681 L39 215.7405586330681 L40 215.7405586330681 L41 215.7405586330681 L42 215.7405586330681 L43 215.7405586330681 L44 215.7405586330681 L45 215.7405586330681 L46 215.7405586330681 L47 215.7405586330681 L48 215.7405586330681 L49 215.7405586330681 L50 215.7405586330681 L51 215.7405586330681 L52 215.7405586330681 L53 215.7405586330681 L54 215.7405586330681 L55 215.7405586330681 L56 215.7405586330681 L57 215.7405586330681 L58 215.7405586330681 L59 215.7405586330681 L60 215.7405586330681 L61 215.7405586330681 L62 215.7405586330681 L63 215.7405586330681 L64 215.7405586330681 L65 215.7405586330681 L66 215.7405586330681 L67 215.7405586330681 L68 215.7405586330681 L69 215.7405586330681 L70 215.7405586330681 L71 215.7405586330681 L72 215.7405586330681 L73 215.7405586330681 L74 215.7405586330681 L75 176.17162485304112 L76 176.17162485304112 L77 176.17162485304112 L78 176.17162485304112 L79 176.17162485304112 L80 176.17162485304112 L81 176.17162485304112 L82 176.17162485304112 L83 176.17162485304112 L84 176.17162485304112 L85 176.17162485304112 L86 176.17162485304112 L87 176.17162485304112 L88 176.17162485304112 L89 176.17162485304112 L90 176.17162485304112 L91 176.17162485304112 L92 176.17162485304112 L93 176.17162485304112 L94 176.17162485304112 L95 176.17162485304112 L96 176.17162485304112 L97 176.17162485304112 L98 176.17162485304112 L99 176.17162485304112 L100 176.17162485304112 L101 176.17162485304112 L102 176.17162485304112 L103 176.17162485304112 L104 176.17162485304112 L105 176.17162485304112 L106 176.17162485304112 L107 176.17162485304112 L108 176.17162485304112 L109 176.17162485304112 L110 176.17162485304112 L111 176.17162485304112 L112 176.17162485304112 L113 176.17162485304112 L114 215.7405586330681 L115 215.7405586330681 L116 215.7405586330681 L117 215.7405586330681 L118 215.7405586330681 L119 215.7405586330681 L120 215.7405586330681 L121 215.7405586330681 L122 215.7405586330681 L123 215.7405586330681 L124 215.7405586330681 L125 215.7405586330681 L126 215.7405586330681 L127 215.7405586330681 L128 215.7405586330681 L129 215.7405586330681 L130 215.7405586330681 L131 215.7405586330681 L132 215.7405586330681 L133 215.7405586330681 L134 215.7405586330681 L135 215.7405586330681 L136 215.7405586330681 L137 215.7405586330681 L138 215.7405586330681 L139 215.7405586330681 L140 215.7405586330681 L141 215.7405586330681 L142 215.7405586330681 L143 215.7405586330681 L144 215.7405586330681 L145 215.7405586330681 L146 215.7405586330681 L147 215.7405586330681 L148 215.7405586330681 L149 215.7405586330681 L150 215.7405586330681 L151 215.7405586330681 L152 215.7405586330681 L153 215.7405586330681 L154 215.7405586330681 L155 215.7405586330681 L156 215.7405586330681 L157 215.7405586330681 L158 215.7405586330681 L159 215.7405586330681 L160 215.7405586330681 L161 215.7405586330681 L162 215.7405586330681 L163 215.7405586330681 L164 215.7405586330681 L165 215.7405586330681 L166 215.7405586330681 L167 215.7405586330681 L168 215.7405586330681 L169 215.7405586330681 L170 215.7405586330681 L171 215.7405586330681 L172 215.7405586330681 L173 215.7405586330681 L174 215.7405586330681 L175 215.7405586330681 L176 215.7405586330681 L177 215.7405586330681 L178 215.7405586330681 L179 215.7405586330681 L180 215.7405586330681 L181 215.7405586330681 L182 215.7405586330681 L183 215.7405586330681 L184 215.7405586330681 L185 215.7405586330681 L186 215.7405586330681 L187 215.7405586330681 L188 215.7405586330681 L189 215.7405586330681 L190 215.7405586330681 L191 215.7405586330681 L192 215.7405586330681 L193 215.7405586330681 L194 215.7405586330681 L195 215.7405586330681 L196 215.7405586330681 L197 215.7405586330681 L198 215.7405586330681 L199 215.7405586330681 L200 215.7405586330681 L201 215.7405586330681 L202 215.7405586330681 L203 215.7405586330681 L204 215.7405586330681 L205 215.7405586330681 L206 215.7405586330681 L207 215.7405586330681 L208 215.7405586330681 L209 215.7405586330681 L210 215.7405586330681 L211 215.7405586330681 L212 215.7405586330681 L213 215.7405586330681 L214 215.7405586330681 L215 215.7405586330681 L216 215.7405586330681 L217 215.7405586330681 L218 215.7405586330681 L219 215.7405586330681 L220 215.7405586330681 L221 215.7405586330681 L222 215.7405586330681 L223 215.7405586330681 L224 215.7405586330681 L225 215.7405586330681 L226 215.7405586330681 L227 215.7405586330681 L228 215.7405586330681 L229 215.7405586330681 L230 215.7405586330681 L231 176.17162485304112 L232 176.17162485304112 L233 176.17162485304112 L234 176.17162485304112 L235 176.17162485304112 L236 176.17162485304112 L237 176.17162485304112 L238 176.17162485304112 L239 176.17162485304112 L240 176.17162485304112 L241 176.17162485304112 L242 176.17162485304112 L243 176.17162485304112 L244 176.17162485304112 L245 176.17162485304112 L246 176.17162485304112 L247 176.17162485304112 L248 176.17162485304112 L249 176.17162485304112 L250 176.17162485304112 L251 176.17162485304112 L252 176.17162485304112 L253 176.17162485304112 L254 176.17162485304112 L255 176.17162485304112 L256 176.17162485304112 L257 176.17162485304112 L258 176.17162485304112 L259 176.17162485304112 L260 176.17162485304112 L261 176.17162485304112 L262 176.17162485304112 L263 176.17162485304112 L264 176.17162485304112 L265 176.17162485304112 L266 176.17162485304112 L267 176.17162485304112 L268 176.17162485304112 L269 176.17162485304112 L270 176.17162485304112 L271 215.7405586330681 L272 215.7405586330681 L273 215.7405586330681 L274 215.7405586330681 L275 215.7405586330681 L276 215.7405586330681 L277 215.7405586330681 L278 215.7405586330681 L279 215.7405586330681 L280 215.7405586330681 L281 215.7405586330681 L282 215.7405586330681 L283 215.7405586330681 L284 215.7405586330681 L285 215.7405586330681 L286 215.7405586330681 L287 215.7405586330681 L288 215.7405586330681 L289 215.7405586330681 L290 215.7405586330681 L291 215.7405586330681 L292 215.7405586330681 L293 215.7405586330681 L294 215.7405586330681 L295 215.7405586330681 L296 215.7405586330681 L297 215.7405586330681 L298 215.7405586330681 L299 215.7405586330681 L300 215.7405586330681 L301 215.7405586330681 L302 215.7405586330681 L303 215.7405586330681 L304 215.7405586330681 L305 215.7405586330681 L306 215.7405586330681 L307 215.7405586330681 L308 215.7405586330681 L309 215.7405586330681 L310 215.7405586330681 L311 215.7405586330681 L312 215.7405586330681 L313 215.7405586330681 L314 215.7405586330681 L315 215.7405586330681 L316 215.7405586330681 L317 215.7405586330681 L318 215.7405586330681 L319 215.7405586330681 L320 215.7405586330681 L321 215.7405586330681 L322 215.7405586330681 L323 215.7405586330681 L324 215.7405586330681 L325 215.7405586330681 L326 215.7405586330681 L327 215.7405586330681 L328 215.7405586330681 L329 215.7405586330681 L330 215.7405586330681 L331 215.7405586330681 L332 215.7405586330681 L333 215.7405586330681 L334 215.7405586330681 L335 215.7405586330681 L336 215.7405586330681 L337 215.7405586330681 L338 215.7405586330681 L339 215.7405586330681 L340 215.7405586330681 L341 215.7405586330681 L342 215.7405586330681 L343 215.7405586330681 L344 215.7405586330681 L345 215.7405586330681 L346 215.7405586330681 L347 215.7405586330681 L348 215.7405586330681 L349 215.7405586330681 L350 215.7405586330681 L351 215.7405586330681 L352 215.7405586330681 L353 215.7405586330681 L354 215.7405586330681 L355 215.7405586330681 L356 215.7405586330681 L357 215.7405586330681 L358 215.7405586330681 L359 215.7405586330681 L360 215.7405586330681 L361 215.7405586330681 L362 215.7405586330681 L363 215.7405586330681 L364 215.7405586330681 L365 215.7405586330681 L366 215.7405586330681 L367 215.7405586330681 L368 215.7405586330681 L369 215.7405586330681 L370 215.7405586330681 L371 215.7405586330681 L372 215.7405586330681 L373 215.7405586330681 L374 215.7405586330681 L375 215.7405586330681 L376 215.7405586330681 L377 215.7405586330681 L378 215.7405586330681 L379 215.7405586330681 L380 215.7405586330681 L381 215.7405586330681 L382 215.7405586330681 L383 215.7405586330681 L384 215.7405586330681 L385 215.7405586330681 L386 215.7405586330681 L387 215.7405586330681 L388 176.17162485304112 L389 176.17162485304112 L390 176.17162485304112 L391 176.17162485304112 L392 176.17162485304112 L393 176.17162485304112 L394 176.17162485304112 L395 176.17162485304112 L396 176.17162485304112 L397 176.17162485304112 L398 176.17162485304112 L399 176.17162485304112 " stroke = "green" stroke-width = "4" fill = "none" />	<path d = "M0 275 L1 275.0939593031086 L2 275.0939593031086 L3 275.0939593031086 L4 275.0939593031086 L5 275.0939593031086 L6 275.0939593031086 L7 275.0939593031086 L8 275.0939593031086 L9 275.0939593031086 L10 275.0939593031086 L11 275.0939593031086 L12 275.0939593031086 L13 275.0939593031086 L14 275.0939593031086 L15 275.0939593031086 L16 275.0939593031086 L17 275.0939593031086 L18 275.0939593031086 L19 275.0939593031086 L20 275.0939593031086 L21 275.0939593031086 L22 275.0939593031086 L23 275.0939593031086 L24 275.0939593031086 L25 275.0939593031086 L26 275.0939593031086 L27 275.0939593031086 L28 275.0939593031086 L29 275.0939593031086 L30 275.0939593031086 L31 275.0939593031086 L32 275.0939593031086 L33 275.0939593031086 L34 275.0939593031086 L35 275.0939593031086 L36 275.0939593031086 L37 275.0939593031086 L38 275.0939593031086 L39 275.0939593031086 L40 275.0939593031086 L41 275.0939593031086 L42 275.0939593031086 L43 275.0939593031086 L44 275.0939593031086 L45 275.0939593031086 L46 275.0939593031086 L47 275.0939593031086 L48 275.0939593031086 L49 275.0939593031086 L50 275.0939593031086 L51 275.0939593031086 L52 275.0939593031086 L53 275.0939593031086 L54 275.0939593031086 L55 275.0939593031086 L56 275.0939593031086 L57 275.0939593031086 L58 275.0939593031086 L59 275.0939593031086 L60 275.0939593031086 L61 275.0939593031086 L62 275.0939593031086 L63 275.0939593031086 L64 275.0939593031086 L65 275.0939593031086 L66 275.0939593031086 L67 275.0939593031086 L68 275.0939593031086 L69 275.0939593031086 L70 275.0939593031086 L71 275.0939593031086 L72 275.0939593031086 L73 275.0939593031086 L74 275.0939593031086 L75 275.0939593031086 L76 275.0939593031086 L77 275.0939593031086 L78 275.0939593031086 L79 275.0939593031086 L80 275.0939593031086 L81 275.0939593031086 L82 275.0939593031086 L83 275.0939593031086 L84 275.0939593031086 L85 275.0939593031086 L86 275.0939593031086 L87 275.0939593031086 L88 275.0939593031086 L89 275.0939593031086 L90 275.0939593031086 L91 275.0939593031086 L92 275.0939593031086 L93 275.0939593031086 L94 275.0939593031086 L95 275.0939593031086 L96 275.0939593031086 L97 275.0939593031086 L98 275.0939593031086 L99 275.0939593031086 L100 275.0939593031086 L101 275.0939593031086 L102 275.0939593031086 L103 275.0939593031086 L104 275.0939593031086 L105 275.0939593031086 L106 275.0939593031086 L107 275.0939593031086 L108 275.0939593031086 L109 275.0939593031086 L110 275.0939593031086 L111 275.0939593031086 L112 275.0939593031086 L113 275.0939593031086 L114 235.5250255230816 L115 235.5250255230816 L116 235.5250255230816 L117 235.5250255230816 L118 235.5250255230816 L119 235.5250255230816 L120 235.5250255230816 L121 235.5250255230816 L122 235.5250255230816 L123 235.5250255230816 L124 235.5250255230816 L125 235.5250255230816 L126 235.5250255230816 L127 235.5250255230816 L128 235.5250255230816 L129 235.5250255230816 L130 235.5250255230816 L131 235.5250255230816 L132 235.5250255230816 L133 235.5250255230816 L134 235.5250255230816 L135 235.5250255230816 L136 235.5250255230816 L137 235.5250255230816 L138 235.5250255230816 L139 235.5250255230816 L140 235.5250255230816 L141 235.5250255230816 L142 235.5250255230816 L143 235.5250255230816 L144 235.5250255230816 L145 235.5250255230816 L146 235.5250255230816 L147 235.5250255230816 L148 235.5250255230816 L149 235.5250255230816 L150 235.5250255230816 L151 235.5250255230816 L152 235.5250255230816 L153 275.0939593031086 L154 275.0939593031086 L155 275.0939593031086 L156 275.0939593031086 L157 275.0939593031086 L158 275.0939593031086 L159 275.0939593031086 L160 275.0939593031086 L161 275.0939593031086 L162 275.0939593031086 L163 275.0939593031086 L164 275.0939593031086 L165 275.0939593031086 L166 275.0939593031086 L167 275.0939593031086 L168 275.0939593031086 L169 275.0939593031086 L170 275.0939593031086 L171 275.0939593031086 L172 275.0939593031086 L173 275.0939593031086 L174 275.0939593031086 L175 275.0939593031086 L176 275.0939593031086 L177 275.0939593031086 L178 275.0939593031086 L179 275.0939593031086 L180 275.0939593031086 L181 275.0939593031086 L182 275.0939593031086 L183 275.0939593031086 L184 275.0939593031086 L185 275.0939593031086 L186 275.0939593031086 L187 275.0939593031086 L188 275.0939593031086 L189 275.0939593031086 L190 275.0939593031086 L191 275.0939593031086 L192 275.0939593031086 L193 275.0939593031086 L194 275.0939593031086 L195 275.0939593031086 L196 275.0939593031086 L197 275.0939593031086 L198 275.0939593031086 L199 275.0939593031086 L200 275.0939593031086 L201 275.0939593031086 L202 275.0939593031086 L203 275.0939593031086 L204 275.0939593031086 L205 275.0939593031086 L206 275.0939593031086 L207 275.0939593031086 L208 275.0939593031086 L209 275.0939593031086 L210 275.0939593031086 L211 275.0939593031086 L212 275.0939593031086 L213 275.0939593031086 L214 275.0939593031086 L215 275.0939593031086 L216 275.0939593031086 L217 275.0939593031086 L218 275.0939593031086 L219 275.0939593031086 L220 275.0939593031086 L221 275.0939593031086 L222 275.0939593031086 L223 275.0939593031086 L224 275.0939593031086 L225 275.0939593031086 L226 275.0939593031086 L227 275.0939593031086 L228 275.0939593031086 L229 275.0939593031086 L230 275.0939593031086 L231 275.0939593031086 L232 275.0939593031086 L233 275.0939593031086 L234 275.0939593031086 L235 275.0939593031086 L236 275.0939593031086 L237 275.0939593031086 L238 275.0939593031086 L239 275.0939593031086 L240 275.0939593031086 L241 275.0939593031086 L242 275.0939593031086 L243 275.0939593031086 L244 275.0939593031086 L245 275.0939593031086 L246 275.0939593031086 L247 275.0939593031086 L248 275.0939593031086 L249 275.0939593031086 L250 275.0939593031086 L251 275.0939593031086 L252 275.0939593031086 L253 275.0939593031086 L254 275.0939593031086 L255 275.0939593031086 L256 275.0939593031086 L257 275.0939593031086 L258 275.0939593031086 L259 275.0939593031086 L260 275.0939593031086 L261 275.0939593031086 L262 275.0939593031086 L263 275.0939593031086 L264 275.0939593031086 L265 275.0939593031086 L266 275.0939593031086 L267 275.0939593031086 L268 275.0939593031086 L269 275.0939593031086 L270 275.0939593031086 L271 235.5250255230816 L272 235.5250255230816 L273 235.5250255230816 L274 235.5250255230816 L275 235.5250255230816 L276 235.5250255230816 L277 235.5250255230816 L278 235.5250255230816 L279 235.5250255230816 L280 235.5250255230816 L281 235.5250255230816 L282 235.5250255230816 L283 235.5250255230816 L284 235.5250255230816 L285 235.5250255230816 L286 235.5250255230816 L287 235.5250255230816 L288 235.5250255230816 L289 235.5250255230816 L290 235.5250255230816 L291 235.5250255230816 L292 235.5250255230816 L293 235.5250255230816 L294 235.5250255230816 L295 235.5250255230816 L296 235.5250255230816 L297 235.5250255230816 L298 235.5250255230816 L299 235.5250255230816 L300 235.5250255230816 L301 235.5250255230816 L302 235.5250255230816 L303 235.5250255230816 L304 235.5250255230816 L305 235.5250255230816 L306 235.5250255230816 L307 235.5250255230816 L308 235.5250255230816 L309 235.5250255230816 L310 275.0939593031086 L311 275.0939593031086 L312 275.0939593031086 L313 275.0939593031086 L314 275.0939593031086 L315 275.0939593031086 L316 275.0939593031086 L317 275.0939593031086 L318 275.0939593031086 L319 275.0939593031086 L320 275.0939593031086 L321 275.0939593031086 L322 275.0939593031086 L323 275.0939593031086 L324 275.0939593031086 L325 275.0939593031086 L326 275.0939593031086 L327 275.0939593031086 L328 275.0939593031086 L329 275.0939593031086 L330 275.0939593031086 L331 275.0939593031086 L332 275.0939593031086 L333 275.0939593031086 L334 275.0939593031086 L335 275.0939593031086 L336 275.0939593031086 L337 275.0939593031086 L338 275.0939593031086 L339 275.0939593031086 L340 275.0939593031086 L341 275.0939593031086 L342 275.0939593031086 L343 275.0939593031086 L344 275.0939593031086 L345 275.0939593031086 L346 275.0939593031086 L347 275.0939593031086 L348 275.0939593031086 L349 275.0939593031086 L350 275.0939593031086 L351 275.0939593031086 L352 275.0939593031086 L353 275.0939593031086 L354 275.0939593031086 L355 275.0939593031086 L356 275.0939593031086 L357 275.0939593031086 L358 275.0939593031086 L359 275.0939593031086 L360 275.0939593031086 L361 275.0939593031086 L362 275.0939593031086 L363 275.0939593031086 L364 275.0939593031086 L365 275.0939593031086 L366 275.0939593031086 L367 275.0939593031086 L368 275.0939593031086 L369 275.0939593031086 L370 275.0939593031086 L371 275.0939593031086 L372 275.0939593031086 L373 275.0939593031086 L374 275.0939593031086 L375 275.0939593031086 L376 275.0939593031086 L377 275.0939593031086 L378 275.0939593031086 L379 275.0939593031086 L380 275.0939593031086 L381 275.0939593031086 L382 275.0939593031086 L383 275.0939593031086 L384 275.0939593031086 L385 275.0939593031086 L386 275.0939593031086 L387 275.0939593031086 L388 275.0939593031086 L389 275.0939593031086 L390 275.0939593031086 L391 275.0939593031086 L392 275.0939593031086 L393 275.0939593031086 L394 275.0939593031086 L395 275.0939593031086 L396 275.0939593031086 L397 275.0939593031086 L398 275.0939593031086 L399 275.0939593031086 " stroke = "blue" stroke-width = "4" fill = "none" />	<path d = "M0 295 L1 294.8784261931221 L2 294.8784261931221 L3 294.8784261931221 L4 294.8784261931221 L5 294.8784261931221 L6 294.8784261931221 L7 294.8784261931221 L8 294.8784261931221 L9 294.8784261931221 L10 294.8784261931221 L11 294.8784261931221 L12 294.8784261931221 L13 294.8784261931221 L14 294.8784261931221 L15 294.8784261931221 L16 294.8784261931221 L17 294.8784261931221 L18 294.8784261931221 L19 294.8784261931221 L20 294.8784261931221 L21 294.8784261931221 L22 294.8784261931221 L23 294.8784261931221 L24 294.8784261931221 L25 294.8784261931221 L26 294.8784261931221 L27 294.8784261931221 L28 294.8784261931221 L29 294.8784261931221 L30 294.8784261931221 L31 294.8784261931221 L32 294.8784261931221 L33 294.8784261931221 L34 294.8784261931221 L35 334.4473599731491 L36 334.4473599731491 L37 334.4473599731491 L38 334.4473599731491 L39 334.4473599731491 L40 334.4473599731491 L41 334.4473599731491 L42 334.4473599731491 L43 334.4473599731491 L44 334.4473599731491 L45 334.4473599731491 L46 334.4473599731491 L47 334.4473599731491 L48 334.4473599731491 L49 334.4473599731491 L50 334.4473599731491 L51 334.4473599731491 L52 334.4473599731491 L53 334.4473599731491 L54 334.4473599731491 L55 334.4473599731491 L56 334.4473599731491 L57 334.4473599731491 L58 334.4473599731491 L59 334.4473599731491 L60 334.4473599731491 L61 334.4473599731491 L62 334.4473599731491 L63 334.4473599731491 L64 334.4473599731491 L65 334.4473599731491 L66 334.4473599731491 L67 334.4473599731491 L68 334.4473599731491 L69 334.4473599731491 L70 334.4473599731491 L71 334.4473599731491 L72 334.4473599731491 L73 334.4473599731491 L74 334.4473599731491 L75 334.4473599731491 L76 334.4473599731491 L77 334.4473599731491 L78 334.4473599731491 L79 334.4473599731491 L80 334.4473599731491 L81 334.4473599731491 L82 334.4473599731491 L83 334.4473599731491 L84 334.4473599731491 L85 334.4473599731491 L86 334.4473599731491 L87 334.4473599731491 L88 334.4473599731491 L89 334.4473599731491 L90 334.4473599731491 L91 334.4473599731491 L92 334.4473599731491 L93 334.4473599731491 L94 334.4473599731491 L95 334.4473599731491 L96 334.4473599731491 L97 334.4473599731491 L98 334.4473599731491 L99 334.4473599731491 L100 334.4473599731491 L101 334.4473599731491 L102 334.4473599731491 L103 334.4473599731491 L104 334.4473599731491 L105 334.4473599731491 L106 334.4473599731491 L107 334.4473599731491 L108 334.4473599731491 L109 334.4473599731491 L110 334.4473599731491 L111 334.4473599731491 L112 334.4473599731491 L113 334.4473599731491 L114 334.4473599731491 L115 334.4473599731491 L116 334.4473599731491 L117 334.4473599731491 L118 334.4473599731491 L119 334.4473599731491 L120 334.4473599731491 L121 334.4473599731491 L122 334.4473599731491 L123 334.4473599731491 L124 334.4473599731491 L125 334.4473599731491 L126 334.4473599731491 L127 334.4473599731491 L128 334.4473599731491 L129 334.4473599731491 L130 334.4473599731491 L131 334.4473599731491 L132 334.4473599731491 L133 334.4473599731491 L134 334.4473599731491 L135 334.4473599731491 L136 334.4473599731491 L137 334.4473599731491 L138 334.4473599731491 L139 334.4473599731491 L140 334.4473599731491 L141 334.4473599731491 L142 334.4473599731491 L143 334.4473599731491 L144 334.4473599731491 L145 334.4473599731491 L146 334.4473599731491 L147 334.4473599731491 L148 334.4473599731491 L149 334.4473599731491 L150 334.4473599731491 L151 334.4473599731491 L152 334.4473599731491 L153 294.8784261931221 L154 294.8784261931221 L155 294.8784261931221 L156 294.8784261931221 L157 294.8784261931221 L158 294.8784261931221 L159 294.8784261931221 L160 294.8784261931221 L161 294.8784261931221 L162 294.8784261931221 L163 294.8784261931221 L164 294.8784261931221 L165 294.8784261931221 L166 294.8784261931221 L167 294.8784261931221 L168 294.8784261931221 L169 294.8784261931221 L170 294.8784261931221 L171 294.8784261931221 L172 294.8784261931221 L173 294.8784261931221 L174 294.8784261931221 L175 294.8784261931221 L176 294.8784261931221 L177 294.8784261931221 L178 294.8784261931221 L179 294.8784261931221 L180 294.8784261931221 L181 294.8784261931221 L182 294.8784261931221 L183 294.8784261931221 L184 294.8784261931221 L185 294.8784261931221 L186 294.8784261931221 L187 294.8784261931221 L188 294.8784261931221 L189 294.8784261931221 L190 294.8784261931221 L191 294.8784261931221 L192 334.4473599731491 L193 334.4473599731491 L194 334.4473599731491 L195 334.4473599731491 L196 334.4473599731491 L197 334.4473599731491 L198 334.4473599731491 L199 334.4473599731491 L200 334.4473599731491 L201 334.4473599731491 L202 334.4473599731491 L203 334.4473599731491 L204 334.4473599731491 L205 334.4473599731491 L206 334.4473599731491 L207 334.4473599731491 L208 334.4473599731491 L209 334.4473599731491 L210 334.4473599731491 L211 334.4473599731491 L212 334.4473599731491 L213 334.4473599731491 L214 334.4473599731491 L215 334.4473599731491 L216 334.4473599731491 L217 334.4473599731491 L218 334.4473599731491 L219 334.4473599731491 L220 334.4473599731491 L221 334.4473599731491 L222 334.4473599731491 L223 334.4473599731491 L224 334.4473599731491 L225 334.4473599731491 L226 334.4473599731491 L227 334.4473599731491 L228 334.4473599731491 L229 334.4473599731491 L230 334.4473599731491 L231 334.4473599731491 L232 334.4473599731491 L233 334.4473599731491 L234 334.4473599731491 L235 334.4473599731491 L236 334.4473599731491 L237 334.4473599731491 L238 334.4473599731491 L239 334.4473599731491 L240 334.4473599731491 L241 334.4473599731491 L242 334.4473599731491 L243 334.4473599731491 L244 334.4473599731491 L245 334.4473599731491 L246 334.4473599731491 L247 334.4473599731491 L248 334.4473599731491 L249 334.4473599731491 L250 334.4473599731491 L251 334.4473599731491 L252 334.4473599731491 L253 334.4473599731491 L254 334.4473599731491 L255 334.4473599731491 L256 334.4473599731491 L257 334.4473599731491 L258 334.4473599731491 L259 334.4473599731491 L260 334.4473599731491 L261 334.4473599731491 L262 334.4473599731491 L263 334.4473599731491 L264 334.4473599731491 L265 334.4473599731491 L266 334.4473599731491 L267 334.4473599731491 L268 334.4473599731491 L269 334.4473599731491 L270 334.4473599731491 L271 334.4473599731491 L272 334.4473599731491 L273 334.4473599731491 L274 334.4473599731491 L275 334.4473599731491 L276 334.4473599731491 L277 334.4473599731491 L278 334.4473599731491 L279 334.4473599731491 L280 334.4473599731491 L281 334.4473599731491 L282 334.4473599731491 L283 334.4473599731491 L284 334.4473599731491 L285 334.4473599731491 L286 334.4473599731491 L287 334.4473599731491 L288 334.4473599731491 L289 334.4473599731491 L290 334.4473599731491 L291 334.4473599731491 L292 334.4473599731491 L293 334.4473599731491 L294 334.4473599731491 L295 334.4473599731491 L296 334.4473599731491 L297 334.4473599731491 L298 334.4473599731491 L299 334.4473599731491 L300 334.4473599731491 L301 334.4473599731491 L302 334.4473599731491 L303 334.4473599731491 L304 334.4473599731491 L305 334.4473599731491 L306 334.4473599731491 L307 334.4473599731491 L308 334.4473599731491 L309 334.4473599731491 L310 294.8784261931221 L311 294.8784261931221 L312 294.8784261931221 L313 294.8784261931221 L314 294.8784261931221 L315 294.8784261931221 L316 294.8784261931221 L317 294.8784261931221 L318 294.8784261931221 L319 294.8784261931221 L320 294.8784261931221 L321 294.8784261931221 L322 294.8784261931221 L323 294.8784261931221 L324 294.8784261931221 L325 294.8784261931221 L326 294.8784261931221 L327 294.8784261931221 L328 294.8784261931221 L329 294.8784261931221 L330 294.8784261931221 L331 294.8784261931221 L332 294.8784261931221 L333 294.8784261931221 L334 294.8784261931221 L335 294.8784261931221 L336 294.8784261931221 L337 294.8784261931221 L338 294.8784261931221 L339 294.8784261931221 L340 294.8784261931221 L341 294.8784261931221 L342 294.8784261931221 L343 294.8784261931221 L344 294.8784261931221 L345 294.8784261931221 L346 294.8784261931221 L347 294.8784261931221 L348 294.8784261931221 L349 334.4473599731491 L350 334.4473599731491 L351 334.4473599731491 L352 334.4473599731491 L353 334.4473599731491 L354 334.4473599731491 L355 334.4473599731491 L356 334.4473599731491 L357 334.4473599731491 L358 334.4473599731491 L359 334.4473599731491 L360 334.4473599731491 L361 334.4473599731491 L362 334.4473599731491 L363 334.4473599731491 L364 334.4473599731491 L365 334.4473599731491 L366 334.4473599731491 L367 334.4473599731491 L368 334.4473599731491 L369 334.4473599731491 L370 334.4473599731491 L371 334.4473599731491 L372 334.4473599731491 L373 334.4473599731491 L374 334.4473599731491 L375 334.4473599731491 L376 334.4473599731491 L377 334.4473599731491 L378 334.4473599731491 L379 334.4473599731491 L380 334.4473599731491 L381 334.4473599731491 L382 334.4473599731491 L383 334.4473599731491 L384 334.4473599731491 L385 334.4473599731491 L386 334.4473599731491 L387 334.4473599731491 L388 334.4473599731491 L389 334.4473599731491 L390 334.4473599731491 L391 334.4473599731491 L392 334.4473599731491 L393 334.4473599731491 L394 334.4473599731491 L395 334.4473599731491 L396 334.4473599731491 L397 334.4473599731491 L398 334.4473599731491 L399 334.4473599731491 " stroke = "purple" stroke-width = "4" fill = "none" /></svg>