<svg width="400" height="400" viewbox = "0 0 400 400"  xmlns="http://www.w3.org/2000/svg">

<!--
<topfunctions>









function YofX(){
    X = plotparams.g*(x - plotparams.x0) - funcparams.X0;
    Y = 0.5*(1 + Math.tanh(X));
    y = plotparams.y0 - plotparams.G*(Y - funcparams.Y0);
}


function YofX2(){
    X = plotparams.g*(x - plotparams.x0) - funcparams.X0;
    Y = funcparams.b*X*X + funcparams.c*X + funcparams.d;
    y = plotparams.y0 - plotparams.G*(Y - funcparams.Y0);
 }

function XYofT(){
    T = plotparams.g*t;
    X = Math.exp(-T/funcparams.tau)*Math.cos(2*Math.PI*T/funcparams.T);
    Y = Math.exp(-T/funcparams.tau)*Math.sin(2*Math.PI*T/funcparams.T);
    y = plotparams.y0 - plotparams.G*(Y - funcparams.Y0);
    x = plotparams.x0 - plotparams.G*(X - funcparams.X0);    
}


function plotfunction(){
/*

    currentStroke = "blue";
    currentLineWidth = 4;
    ctx.strokeStyle = currentStroke;
    ctx.lineWidth = currentLineWidth;
    ctx.beginPath();	
    x = 0;
    y = 0;
    t= 0;
    XYofT();
    currentSVG += "	<path d = \"M";
    currentSVG += Math.round(x).toString() + " ";
    currentSVG += Math.round(y).toString() + " ";
    for(t = 1;t < plotparams.duration;t++){
        ctx.moveTo(x,y);
        XYofT();
        ctx.lineTo(x,y);
        currentSVG += "L" + x + " " + y + " ";
    }
    ctx.stroke();
    currentSVG += "\""+ " stroke = \"" + currentStroke + "\" stroke-width = \"" + currentLineWidth.toString() + "\" fill = \"" + "none" + "\" "+"/>";


    /*plot one function:*/
    currentStroke = "blue";
    currentLineWidth = 4;
    ctx.strokeStyle = currentStroke;
    ctx.lineWidth = currentLineWidth;
    ctx.beginPath();	
    x = 0;
    YofX();
    currentSVG += "	<path d = \"M";
    currentSVG += Math.round(x).toString() + " ";
    currentSVG += Math.round(y).toString() + " ";
    for(x = 1;x < plotparams.plotwidth;x++){
        ctx.moveTo(x-1,y);
        YofX();
        ctx.lineTo(x,y);
        currentSVG += "L" + x + " " + y + " ";
    }
    ctx.stroke();
    currentSVG += "\""+ " stroke = \"" + currentStroke + "\" stroke-width = \"" + currentLineWidth.toString() + "\" fill = \"" + "none" + "\" "+"/>";
    /*finish plot one function*/
    

}






























</topfunctions>
-->

<!--
<imgurl>

</imgurl>
-->

<!--
<currentjson>
{
    "constants": {},
    "imgurl": "",
    "plotparams": {
        "G": 68.84418352571562,
        "g": 0.04240976183724846,
        "duration": 545.4545454545454,
        "plotwidth": 400,
        "plotheight": 400,
        "x0": 200,
        "y0": 200
    },
    "funcparams": {
        "a": 0.12727272727272726,
        "b": 0,
        "c": 0,
        "X0": 0,
        "Y0": 0
    }
}
</currentjson>
-->

<!--
<equation>





<h2>Fermi Function</h2>
<p style="color:blue">

</p><p class="bigeq">
$$
Y = \frac{1}{2}(\tanh{X} + 1)$$
</p>
<p></p>

$$
X = g(x - x_0) - X_0
$$
$$
Y = f(X)
$$
    
$$
y = y_0 - G(Y - Y_0)
$$


<p>
    X and Y, and $X_0$ and $Y_0$ in physical units of the System. x and y and x0 and y0 in pixels.  G is in pixels per Y unit and g is in X units per pixel. 
</p>






</equation>
-->
	<path d = "M0 200 L1 199.99999678357324 L2 199.99999649885325 L3 199.99999618892966 L4 199.99999585157144 L5 199.9999954843501 L6 199.99999508462213 L7 199.99999464950997 L8 199.99999417588143 L9 199.99999366032702 L10 199.99999309913545 L11 199.99999248826688 L12 199.99999182332385 L13 199.9999910995197 L14 199.99999031164398 L15 199.99998945402504 L16 199.9999885204892 L17 199.99998750431624 L18 199.99998639819108 L19 199.9999851941511 L20 199.9999838835288 L21 199.99998245688954 L22 199.99998090396335 L23 199.99997921357132 L24 199.99997737354485 L25 199.99997537063825 L26 199.9999731904333 L27 199.99997081723546 L28 199.9999682339609 L29 199.9999654220136 L30 199.99996236115126 L31 199.99995902933992 L32 199.99995540259496 L33 199.99995145480884 L34 199.99994715756284 L35 199.99994247992268 L36 199.99993738821576 L37 199.99993184578872 L38 199.99992581274378 L39 199.99991924565128 L40 199.99991209723729 L41 199.9999043160431 L42 199.99989584605493 L43 199.99988662630074 L44 199.99987659041122 L45 199.99986566614209 L46 199.99985377485407 L47 199.99984083094682 L48 199.99982674124269 L49 199.99981140431612 L50 199.99979470976342 L51 199.99977653740817 L52 199.99975675643606 L53 199.99973522445342 L54 199.99971178646214 L55 199.99968627374406 L56 199.9996585026464 L57 199.9996282732601 L58 199.99959536798065 L59 199.99955954994198 L60 199.99952056131153 L61 199.9994781214344 L62 199.99943192481356 L63 199.9993816389107 L64 199.99932690175325 L65 199.99926731932888 L66 199.99920246274996 L67 199.9991318651669 L68 199.99905501840826 L69 199.99897136932367 L70 199.99888031580326 L71 199.99878120244466 L72 199.99867331583684 L73 199.99855587942645 L74 199.99842804793036 L75 199.9982889012536 L76 199.99813743786936 L77 199.99797256761352 L78 199.9977931038419 L79 199.9975977548937 L80 199.99738511480024 L81 199.997153653172 L82 199.9969017041915 L83 199.99662745463317 L84 199.9963289308241 L85 199.99600398445224 L86 199.99565027712063 L87 199.99526526353657 L88 199.99484617321565 L89 199.9943899905697 L90 199.9938934332362 L91 199.99335292849412 L92 199.9927645875978 L93 199.99212417784577 L94 199.99142709218486 L95 199.99066831613345 L96 199.9898423917876 L97 199.98894337865477 L98 199.98796481103594 L99 199.98689965165417 L100 199.98574024120015 L101 199.98447824343825 L102 199.98310458548386 L103 199.98160939283136 L104 199.97998191867418 L105 199.97821046701992 L106 199.97628230906085 L107 199.974183592214 L108 199.97189924119542 L109 199.9694128504391 L110 199.96670656711345 L111 199.96376096392467 L112 199.96055490083018 L113 199.95706537471042 L114 199.9532673559709 L115 199.94913361096042 L116 199.9446345090022 L117 199.93973781273638 L118 199.93440845036892 L119 199.92860826831142 L120 199.92229576257625 L121 199.91542578716687 L122 199.90794923756795 L123 199.89981270729876 L124 199.89095811534327 L125 199.8813223021123 L126 199.87083659142934 L127 199.85942631585814 L128 199.84701030251355 L129 199.83350031631218 L130 199.81880045743367 L131 199.8028065095737 L132 199.7854052353807 L133 199.7664736152843 L134 199.74587802574416 L135 199.72347335278263 L136 199.69910203651563 L137 199.67259304227179 L138 199.64376075379965 L139 199.61240378401348 L140 199.57830369873565 L141 199.54122364897083 L142 199.5009069074088 L143 199.45707530512334 L144 199.40942756483358 L145 199.35763752765007 L146 199.30135227097304 L147 199.24019011617963 L148 199.17373852597132 L149 199.10155189280135 L150 199.02314922171468 L151 198.93801171327038 L152 198.84558025504322 L153 198.74525283358682 L154 198.63638188276448 L155 198.51827158909126 L156 198.39017518027114 L157 198.2512922295338 L158 198.1007660157608 L159 197.93768098781197 L160 197.76106039097562 L161 197.56986412411197 L162 197.3629869078385 L163 197.13925685697964 L164 196.89743456437876 L165 196.63621281786573 L166 196.35421708742757 L167 196.05000693505056 L168 195.72207851476455 L169 195.36886834443314 L170 194.9887585429153 L171 194.58008373529182 L172 194.14113983360485 L173 193.67019489947586 L174 193.16550228633713 L175 192.6253162409457 L176 192.04791011437945 L177 191.43159728987433 L178 190.7747548768387 L179 190.0758501457028 L180 189.33346958601797 L181 188.54635036034364 L182 187.71341379999294 L183 186.83380044811446 L184 185.90690600499215 L185 184.93241737583574 L186 183.91034787061002 L187 182.84107046832696 L188 181.7253479458938 L189 180.5643585961575 L190 179.35971623334865 L191 178.1134832177841 L192 176.82817533421814 L193 175.50675753477105 L194 174.1526298081964 L195 172.76960275684817 L196 171.3618628392745 L197 169.93392765194892 L198 168.49059205504466 L199 167.03686636746102 L200 165.5779082371422 L201 164.11895010682338 L202 162.66522441923973 L203 161.22188882233547 L204 159.79395363500987 L205 158.38621371743622 L206 157.00318666608797 L207 155.6490589395133 L208 154.32764114006625 L209 153.04233325650026 L210 151.79610024093574 L211 150.59145787812687 L212 149.43046852839058 L213 148.3147460059574 L214 147.24546860367437 L215 146.22339909844862 L216 145.24891046929224 L217 144.32201602616993 L218 143.44240267429146 L219 142.60946611394075 L220 141.8223468882664 L221 141.07996632858158 L222 140.3810615974457 L223 139.72421918441006 L224 139.10790635990492 L225 138.5305002333387 L226 137.99031418794726 L227 137.4856215748085 L228 137.0146766406795 L229 136.57573273899254 L230 136.1670579313691 L231 135.78694812985123 L232 135.43373795951985 L233 135.1058095392338 L234 134.8015993868568 L235 134.51960365641867 L236 134.2583819099056 L237 134.01655961730472 L238 133.7928295664459 L239 133.58595235017242 L240 133.39475608330878 L241 133.21813548647242 L242 133.05505045852357 L243 132.9045242447506 L244 132.76564129401322 L245 132.6375448851931 L246 132.5194345915199 L247 132.41056364069755 L248 132.31023621924118 L249 132.217804761014 L250 132.13266725256972 L251 132.05426458148304 L252 131.98207794831308 L253 131.91562635810473 L254 131.85446420331132 L255 131.79817894663432 L256 131.7463889094508 L257 131.69874116916105 L258 131.6549095668756 L259 131.61459282531354 L260 131.5775127755487 L261 131.54341269027088 L262 131.5120557204847 L263 131.4832234320126 L264 131.45671443776877 L265 131.43234312150173 L266 131.40993844854023 L267 131.38934285900007 L268 131.37041123890367 L269 131.35300996471068 L270 131.3370160168507 L271 131.3223161579722 L272 131.3088061717708 L273 131.29639015842622 L274 131.28497988285505 L275 131.27449417217207 L276 131.26485835894113 L277 131.2560037669856 L278 131.24786723671644 L279 131.2403906871175 L280 131.23352071170814 L281 131.22720820597294 L282 131.22140802391544 L283 131.216078661548 L284 131.21118196528215 L285 131.20668286332398 L286 131.2025491183135 L287 131.19875109957394 L288 131.1952615734542 L289 131.1920555103597 L290 131.18910990717092 L291 131.18640362384525 L292 131.18391723308895 L293 131.1816328820704 L294 131.17953416522352 L295 131.17760600726444 L296 131.1758345556102 L297 131.17420708145303 L298 131.17271188880054 L299 131.17133823084612 L300 131.17007623308422 L301 131.16891682263022 L302 131.16785166324843 L303 131.16687309562963 L304 131.1659740824968 L305 131.16514815815094 L306 131.1643893820995 L307 131.16369229643863 L308 131.16305188668656 L309 131.16246354579027 L310 131.16192304104817 L311 131.16142648371468 L312 131.16097030106874 L313 131.1605512107478 L314 131.16016619716373 L315 131.15981248983212 L316 131.15948754346027 L317 131.1591890196512 L318 131.15891477009288 L319 131.1586628211124 L320 131.15843135948413 L321 131.15821871939067 L322 131.1580233704425 L323 131.15784390667085 L324 131.15767903641503 L325 131.1575275730308 L326 131.157388426354 L327 131.15726059485792 L328 131.15714315844755 L329 131.1570352718397 L330 131.15693615848113 L331 131.15684510496072 L332 131.15676145587614 L333 131.15668460911746 L334 131.1566140115344 L335 131.15654915495548 L336 131.15648957253114 L337 131.15643483537366 L338 131.15638454947083 L339 131.15633835284996 L340 131.15629591297287 L341 131.1562569243424 L342 131.15622110630375 L343 131.1561882010243 L344 131.15615797163798 L345 131.1561302005403 L346 131.15610468782222 L347 131.15608124983095 L348 131.15605971784834 L349 131.15603993687623 L350 131.15602176452097 L351 131.15600506996827 L352 131.15598973304168 L353 131.15597564333757 L354 131.1559626994303 L355 131.15595080814228 L356 131.15593988387315 L357 131.15592984798366 L358 131.15592062822947 L359 131.15591215824128 L360 131.15590437704708 L361 131.15589722863308 L362 131.15589066154058 L363 131.15588462849564 L364 131.15587908606864 L365 131.15587399436168 L366 131.15586931672152 L367 131.15586501947553 L368 131.1558610716894 L369 131.15585744494447 L370 131.1558541131331 L371 131.15585105227078 L372 131.15584824032345 L373 131.15584565704893 L374 131.15584328385108 L375 131.15584110364614 L376 131.15583910073954 L377 131.15583726071307 L378 131.15583557032102 L379 131.15583401739485 L380 131.15583259075555 L381 131.15583128013327 L382 131.1558300760933 L383 131.15582896996813 L384 131.15582795379515 L385 131.15582702025932 L386 131.1558261626404 L387 131.15582537476467 L388 131.15582465096054 L389 131.1558239860175 L390 131.15582337514894 L391 131.15582281395734 L392 131.15582229840294 L393 131.15582182477442 L394 131.15582138966226 L395 131.15582098993428 L396 131.15582062271292 L397 131.1558202853547 L398 131.15581997543114 L399 131.15581969071116 " stroke = "blue" stroke-width = "4" fill = "none" /></svg>