<svg width="800" height="600" viewbox = "0 0 800 600"  xmlns="http://www.w3.org/2000/svg">

<!--
<json>
{
    "imgurl": "",
    "imgw": 4.743971328437736,
    "imgleft": -2.2873205904167726,
    "imgtop": -3.171985664218851,
    "imgangle": 0,
    "svgwidth": 800,
    "svgheight": 600,
    "unit": 121.00000000000003,
    "x0": 684,
    "y0": 399,
    "x0rel": 0,
    "y0rel": 0,
    "glyph": "0330,0332,0332,0332,0330,0336,0331,01061,01062,01063,01064,01065,01066,01067,01070,0331,0331,0331,0332,0332,0332,0332,0332,0332,0332,0332,0332,0332,0332,0332,01161,01167,01145,01162,0331,0331,0331,0332,0332,0332,0332,0332,0332,01141,01163,01144,01146,01147,01150,01152,01153,",
    "table": []
}
</json>
-->
    <circle cx="82" cy = "88" r = "7.562500000000002" stroke = "black" stroke-width = "2" fill = "black" />
    <text x="75" y = "149" fill = "black" font-size = "30.250000000000007px" font-family = "arial">1</text>
    <circle cx="158" cy = "88" r = "7.562500000000002" stroke = "black" stroke-width = "2" fill = "black" />
    <circle cx="188" cy = "88" r = "7.562500000000002" stroke = "black" stroke-width = "2" fill = "black" />
    <text x="166" y = "149" fill = "black" font-size = "30.250000000000007px" font-family = "arial">2</text>
    <circle cx="249" cy = "103" r = "7.562500000000002" stroke = "black" stroke-width = "2" fill = "black" />
    <circle cx="279" cy = "103" r = "7.562500000000002" stroke = "black" stroke-width = "2" fill = "black" />
    <circle cx="264" cy = "81" r = "7.562500000000002" stroke = "black" stroke-width = "2" fill = "black" />
    <text x="256" y = "149" fill = "black" font-size = "30.250000000000007px" font-family = "arial">3</text>
    <circle cx="340" cy = "103" r = "7.562500000000002" stroke = "black" stroke-width = "2" fill = "black" />
    <circle cx="370" cy = "103" r = "7.562500000000002" stroke = "black" stroke-width = "2" fill = "black" />
    <circle cx="340" cy = "73" r = "7.562500000000002" stroke = "black" stroke-width = "2" fill = "black" />
    <circle cx="370" cy = "73" r = "7.562500000000002" stroke = "black" stroke-width = "2" fill = "black" />
    <text x="347" y = "149" fill = "black" font-size = "30.250000000000007px" font-family = "arial">4</text>
	<path d = "M415 73 L476 73 L427 109 L445 51 L464 109 L415 73 Z" stroke = "black" stroke-width = "2" fill = "none" />    <text x="438" y = "149" fill = "black" font-size = "30.250000000000007px" font-family = "arial">5</text>
	<path d = "M506 58 L566 58 L536 110 L506 58 Z" stroke = "black" stroke-width = "2" fill = "none" />	<path d = "M536 41 L566 93 L506 93 L536 41 Z" stroke = "black" stroke-width = "2" fill = "none" />    <text x="529" y = "149" fill = "black" font-size = "30.250000000000007px" font-family = "arial">6</text>
	<path d = "M597 73 L657 73 L603 99 L640 52 L627 111 L613 52 L651 99 L597 73 Z" stroke = "black" stroke-width = "2" fill = "none" />    <text x="619" y = "149" fill = "black" font-size = "30.250000000000007px" font-family = "arial">7</text>
	<path d = "M748 103 L748 43 L687 43 L687 103 L748 103 Z" stroke = "black" stroke-width = "2" fill = "none" />	<path d = "M718 30 L760 73 L718 116 L675 73 L718 30 Z" stroke = "black" stroke-width = "2" fill = "none" />    <text x="710" y = "149" fill = "black" font-size = "30.250000000000007px" font-family = "arial">8</text>
    <circle cx="82" cy = "270" r = "7.562500000000002" stroke = "black" stroke-width = "2" fill = "black" />
    <line x1="82" y1="255" x2="82" y2="240" style="stroke:black;stroke-width:2" />
    <line x1="98" y1="270" x2="113" y2="270" style="stroke:black;stroke-width:2" />
    <line x1="67" y1="270" x2="52" y2="270" style="stroke:black;stroke-width:2" />
    <line x1="82" y1="285" x2="82" y2="300" style="stroke:black;stroke-width:2" />
    <text x="75" y = "330" fill = "black" font-size = "30.250000000000007px" font-family = "arial">q</text>
	<path d = "M173 266 L158 266 L150 266 L150 258 L143 258 L143 266 L143 274 L143 281 L150 281 L150 274 L158 274 L166 274 L173 274 L181 274 L188 274 L196 274 L196 281 L203 281 L203 274 L203 266 L203 258 L196 258 L196 266 L188 266 L181 266 L173 266 Z" stroke = "black" stroke-width = "2" fill = "black" />    <text x="166" y = "330" fill = "black" font-size = "30.250000000000007px" font-family = "arial">w</text>
	<path d = "M264 266 L249 266 L241 266 L241 258 L234 258 L234 266 L234 274 L234 281 L241 281 L241 274 L249 274 L256 274 L264 274 L271 274 L279 274 L287 274 L287 281 L294 281 L294 274 L294 266 L294 258 L287 258 L287 266 L279 266 L271 266 L264 266 Z" stroke = "black" stroke-width = "2" fill = "black" />	<path d = "M264 226 L256 226 L256 230 L264 230 L271 230 L271 226 L264 226 Z" stroke = "black" stroke-width = "2" fill = "black" />	<path d = "M264 240 L271 240 L275 240 L275 232 L275 224 L275 217 L268 217 L260 217 L253 217 L253 224 L253 232 L253 240 L260 240 L264 240 Z" stroke = "black" stroke-width = "2" fill = "none" />    <text x="256" y = "330" fill = "black" font-size = "30.250000000000007px" font-family = "arial">e</text>
	<path d = "M355 266 L340 266 L332 266 L332 258 L324 258 L324 266 L324 274 L324 281 L332 281 L332 274 L340 274 L347 274 L355 274 L362 274 L370 274 L377 274 L377 281 L385 281 L385 274 L385 266 L385 258 L377 258 L377 266 L370 266 L362 266 L355 266 Z" stroke = "black" stroke-width = "2" fill = "black" />	<path d = "M355 226 L347 226 L347 230 L355 230 L362 230 L362 226 L355 226 Z" stroke = "black" stroke-width = "2" fill = "black" />	<path d = "M355 240 L362 240 L366 240 L366 232 L366 224 L366 217 L358 217 L351 217 L343 217 L343 224 L343 232 L343 240 L351 240 L355 240 Z" stroke = "black" stroke-width = "2" fill = "none" />	<path d = "M355 236 L353 236 L353 228 L353 221 L357 221 L357 228 L357 236 L355 236 Z" stroke = "black" stroke-width = "2" fill = "black" />    <text x="347" y = "330" fill = "black" font-size = "30.250000000000007px" font-family = "arial">r</text>
	<path d = "M113 482 L113 421 L52 421 L52 482 L113 482 Z" stroke = "black" stroke-width = "2" fill = "none" />    <line x1="98" y1="421" x2="98" y2="406" style="stroke:black;stroke-width:2" />
    <line x1="67" y1="421" x2="67" y2="406" style="stroke:black;stroke-width:2" />
    <line x1="52" y1="406" x2="113" y2="406" style="stroke:black;stroke-width:2" />
	<path d = "M52 482 L113 482 L82 429 L52 482 Z" stroke = "red" stroke-width = "4" fill = "red" />	<path d = "M52 482 L113 482 L82 429 L52 482 Z" stroke = "black" stroke-width = "2" fill = "none" />	<path d = "M82 391 L90 391 L90 383 L98 383 L90 376 L82 368 L75 376 L67 383 L75 383 L75 391 L82 391 Z" stroke = "black" stroke-width = "2" fill = "black" />    <text x="75" y = "512" fill = "black" font-size = "30.250000000000007px" font-family = "arial">a</text>
	<path d = "M203 482 L203 421 L143 421 L143 482 L203 482 Z" stroke = "black" stroke-width = "2" fill = "none" />    <line x1="188" y1="421" x2="188" y2="406" style="stroke:black;stroke-width:2" />
    <line x1="158" y1="421" x2="158" y2="406" style="stroke:black;stroke-width:2" />
    <line x1="143" y1="406" x2="203" y2="406" style="stroke:black;stroke-width:2" />
	<path d = "M143 482 L203 482 L173 429 L143 482 Z" stroke = "red" stroke-width = "4" fill = "red" />	<path d = "M143 482 L203 482 L173 429 L143 482 Z" stroke = "black" stroke-width = "2" fill = "none" />	<path d = "M173 361 L166 361 L166 368 L158 368 L166 376 L173 383 L181 376 L188 368 L181 368 L181 361 L173 361 Z" stroke = "black" stroke-width = "2" fill = "black" />    <text x="166" y = "512" fill = "black" font-size = "30.250000000000007px" font-family = "arial">s</text>
	<path d = "M294 482 L294 421 L234 421 L234 482 L294 482 Z" stroke = "black" stroke-width = "2" fill = "none" />    <line x1="279" y1="421" x2="279" y2="406" style="stroke:black;stroke-width:2" />
    <line x1="249" y1="421" x2="249" y2="406" style="stroke:black;stroke-width:2" />
    <line x1="234" y1="406" x2="294" y2="406" style="stroke:black;stroke-width:2" />
	<path d = "M287 474 L287 428 L241 428 L241 474 L287 474 Z" stroke = "blue" stroke-width = "4" fill = "blue" />	<path d = "M287 474 L287 428 L241 428 L241 474 L287 474 Z" stroke = "black" stroke-width = "2" fill = "none" />	<path d = "M264 391 L271 391 L271 383 L279 383 L271 376 L264 368 L256 376 L249 383 L256 383 L256 391 L264 391 Z" stroke = "black" stroke-width = "2" fill = "black" />    <text x="256" y = "512" fill = "black" font-size = "30.25px" font-family = "arial">d</text>
	<path d = "M385 482 L385 421 L324 421 L324 482 L385 482 Z" stroke = "black" stroke-width = "2" fill = "none" />    <line x1="370" y1="421" x2="370" y2="406" style="stroke:black;stroke-width:2" />
    <line x1="340" y1="421" x2="340" y2="406" style="stroke:black;stroke-width:2" />
    <line x1="324" y1="406" x2="385" y2="406" style="stroke:black;stroke-width:2" />
	<path d = "M378 474 L378 428 L332 428 L332 474 L378 474 Z" stroke = "blue" stroke-width = "4" fill = "blue" />	<path d = "M378 474 L378 428 L332 428 L332 474 L378 474 Z" stroke = "black" stroke-width = "2" fill = "none" />	<path d = "M355 361 L347 361 L347 368 L340 368 L347 376 L355 383 L362 376 L370 368 L362 368 L362 361 L355 361 Z" stroke = "black" stroke-width = "2" fill = "black" />    <text x="347" y = "512" fill = "black" font-size = "30.25px" font-family = "arial">f</text>
	<path d = "M476 482 L476 421 L415 421 L415 482 L476 482 Z" stroke = "black" stroke-width = "2" fill = "none" />    <line x1="461" y1="421" x2="461" y2="406" style="stroke:black;stroke-width:2" />
    <line x1="430" y1="421" x2="430" y2="406" style="stroke:black;stroke-width:2" />
    <line x1="415" y1="406" x2="476" y2="406" style="stroke:black;stroke-width:2" />
	<path d = "M415 482 L476 482 L445 429 L415 482 Z" stroke = "red" stroke-width = "4" fill = "red" />	<path d = "M415 482 L476 482 L445 429 L415 482 Z" stroke = "black" stroke-width = "2" fill = "none" />	<path d = "M445 378 L438 378 L438 381 L445 381 L453 381 L453 378 L445 378 Z" stroke = "black" stroke-width = "2" fill = "black" />	<path d = "M445 391 L453 391 L457 391 L457 383 L457 376 L457 368 L449 368 L442 368 L434 368 L434 376 L434 383 L434 391 L442 391 L445 391 Z" stroke = "black" stroke-width = "2" fill = "none" />    <text x="438" y = "512" fill = "black" font-size = "30.25px" font-family = "arial">g</text>
	<path d = "M566 482 L566 421 L506 421 L506 482 L566 482 Z" stroke = "black" stroke-width = "2" fill = "none" />    <line x1="551" y1="421" x2="551" y2="406" style="stroke:black;stroke-width:2" />
    <line x1="521" y1="421" x2="521" y2="406" style="stroke:black;stroke-width:2" />
    <line x1="506" y1="406" x2="566" y2="406" style="stroke:black;stroke-width:2" />
	<path d = "M506 482 L566 482 L536 429 L506 482 Z" stroke = "red" stroke-width = "4" fill = "red" />	<path d = "M506 482 L566 482 L536 429 L506 482 Z" stroke = "black" stroke-width = "2" fill = "none" />	<path d = "M536 378 L529 378 L529 381 L536 381 L544 381 L544 378 L536 378 Z" stroke = "black" stroke-width = "2" fill = "black" />	<path d = "M536 391 L544 391 L547 391 L547 383 L547 376 L547 368 L540 368 L532 368 L525 368 L525 376 L525 383 L525 391 L532 391 L536 391 Z" stroke = "black" stroke-width = "2" fill = "none" />	<path d = "M536 387 L534 387 L534 379 L534 372 L538 372 L538 379 L538 387 L536 387 Z" stroke = "black" stroke-width = "2" fill = "black" />    <text x="529" y = "512" fill = "black" font-size = "30.25px" font-family = "arial">h</text>
	<path d = "M657 482 L657 421 L597 421 L597 482 L657 482 Z" stroke = "black" stroke-width = "2" fill = "none" />    <line x1="642" y1="421" x2="642" y2="406" style="stroke:black;stroke-width:2" />
    <line x1="612" y1="421" x2="612" y2="406" style="stroke:black;stroke-width:2" />
    <line x1="597" y1="406" x2="657" y2="406" style="stroke:black;stroke-width:2" />
	<path d = "M650 474 L650 428 L604 428 L604 474 L650 474 Z" stroke = "blue" stroke-width = "4" fill = "blue" />	<path d = "M650 474 L650 428 L604 428 L604 474 L650 474 Z" stroke = "black" stroke-width = "2" fill = "none" />	<path d = "M627 378 L619 378 L619 381 L627 381 L634 381 L634 378 L627 378 Z" stroke = "black" stroke-width = "2" fill = "black" />	<path d = "M627 391 L634 391 L638 391 L638 383 L638 376 L638 368 L631 368 L623 368 L616 368 L616 376 L616 383 L616 391 L623 391 L627 391 Z" stroke = "black" stroke-width = "2" fill = "none" />    <text x="619" y = "512" fill = "black" font-size = "30.25px" font-family = "arial">j</text>
	<path d = "M748 482 L748 421 L687 421 L687 482 L748 482 Z" stroke = "black" stroke-width = "2" fill = "none" />    <line x1="733" y1="421" x2="733" y2="406" style="stroke:black;stroke-width:2" />
    <line x1="703" y1="421" x2="703" y2="406" style="stroke:black;stroke-width:2" />
    <line x1="687" y1="406" x2="748" y2="406" style="stroke:black;stroke-width:2" />
	<path d = "M741 474 L741 428 L695 428 L695 474 L741 474 Z" stroke = "blue" stroke-width = "4" fill = "blue" />	<path d = "M741 474 L741 428 L695 428 L695 474 L741 474 Z" stroke = "black" stroke-width = "2" fill = "none" />	<path d = "M718 378 L710 378 L710 381 L718 381 L725 381 L725 378 L718 378 Z" stroke = "black" stroke-width = "2" fill = "black" />	<path d = "M718 391 L725 391 L729 391 L729 383 L729 376 L729 368 L721 368 L714 368 L706 368 L706 376 L706 383 L706 391 L714 391 L718 391 Z" stroke = "black" stroke-width = "2" fill = "none" />	<path d = "M718 387 L716 387 L716 379 L716 372 L720 372 L720 379 L720 387 L718 387 Z" stroke = "black" stroke-width = "2" fill = "black" />    <text x="710" y = "512" fill = "black" font-size = "30.25px" font-family = "arial">k</text>
</svg>