<svg width="600" height="600" viewbox = "0 0 600 600"  xmlns="http://www.w3.org/2000/svg">

<!--
<json>
{
    "imgurl": "",
    "imgw": 2.983971328437751,
    "imgleft": -1.4873205904167783,
    "imgtop": -1.0519856642188752,
    "imgangle": 0,
    "svgwidth": 600,
    "svgheight": 600,
    "unit": 100,
    "x0": 615.5,
    "y0": 359,
    "x0rel": 0,
    "y0rel": 0,
    "glyph": "0210,0210,0337,0330,0336,0336,0336,0333,0331,0331,0333,0337,0337,01112,0331,0336,0336,0331,0337,0337,0333,0336,0333,0337,01112,01105,0331,0336,0336,0331,0337,0337,0333,0333,0333,0336,0332,0337,01112,01105,01110,0331,0336,0336,0331,0337,0337,0333,0333,0333,0333,0336,0332,0337,01112,01105,01110,01105,0331,0336,0336,0336,0336,0333,0333,0333,0333,0333,0333,0330,0330,0337,0337,0337,0330,0332,0332,0335,0337,0337,0337,0362,0203,0336,0203,0306,0334,0334,0337,0203,0336,0203,0336,0203,0334,0334,0203,0203,0203,0203,0203,0203,0203,0334,0334,0203,0354,",
    "table": []
}
</json>
-->
	<path d = "M298 114 L298 119 L300 123 L304 126 L308 129 L311 132 L310 137 L309 141 L307 146 L305 150 L303 154 L301 159 L299 163 L300 158 L301 154 L301 149 L299 145 L295 142 L291 140 L288 136 L287 131 L287 126 L289 122 L292 118 L295 114 L297 113 Z" stroke = "black" stroke-width = "6" fill = "black" />	<path d = "M336 209 L336 214 L339 218 L342 222 L346 224 L350 228 L349 232 L348 237 L346 241 L344 246 L342 250 L340 254 L337 258 L338 254 L340 249 L340 245 L337 241 L333 238 L330 235 L327 231 L326 227 L326 222 L328 217 L330 213 L334 210 L335 208 Z" stroke = "black" stroke-width = "6" fill = "black" />	<path d = "M247 210 L250 213 L252 214 L255 215 L259 215 L262 216 L265 216 L268 216 L271 217 L274 217 L278 217 L281 217 L284 217 L287 217 L290 218 L291 221 L291 224 L290 227 L289 230 L288 233 L287 235 L287 236 L286 238 L287 239 L287 241 L287 243 L287 244 L287 246 L287 247 L288 249 L288 250 L288 252 L288 254 L288 255 L289 257 L288 258 L287 259 L286 261 L286 262 L285 264 L284 265 L283 266 L282 268 L281 269 L280 270 L279 271 L278 273 L278 270 L278 266 L278 263 L278 260 L277 257 L277 254 L277 251 L277 247 L276 244 L276 241 L277 238 L277 235 L277 232 L276 230 L275 230 L273 230 L272 229 L270 229 L269 229 L267 229 L265 229 L264 229 L262 229 L261 229 L259 229 L257 229 L256 229 L254 229 L253 229 L251 229 L249 229 L248 229 L246 228 L245 228 L243 227 L242 227 L241 226 L239 225 L238 223 L238 222 L242 217 L246 212 L247 211 L247 210 Z" stroke = "black" stroke-width = "6" fill = "black" />	<path d = "M248 262 L248 256 L248 253 L248 250 L248 247 L248 243 L249 240 L249 237 L250 234 L248 237 L246 239 L244 242 L243 244 L241 247 L240 247 L240 248 L240 249 L240 250 L240 250 L239 254 L239 257 L239 260 L239 263 L239 266 L239 270 L239 273 L240 274 L241 272 L243 269 L245 267 L247 264 L248 263 Z" stroke = "black" stroke-width = "6" fill = "black" />	<path d = "M376 305 L376 310 L378 314 L382 317 L386 320 L389 323 L388 328 L387 333 L385 337 L383 342 L381 346 L379 350 L377 354 L378 350 L379 345 L379 340 L377 336 L373 334 L369 331 L366 327 L365 323 L365 318 L367 313 L370 309 L373 306 L375 304 Z" stroke = "black" stroke-width = "6" fill = "black" />	<path d = "M287 306 L289 309 L292 310 L295 311 L298 311 L301 312 L304 312 L307 312 L311 313 L314 313 L317 313 L320 313 L323 313 L327 313 L330 314 L331 317 L330 320 L329 323 L329 326 L327 329 L327 331 L326 332 L326 334 L326 335 L326 337 L326 338 L326 340 L327 342 L327 343 L327 345 L327 346 L327 348 L328 350 L328 351 L328 353 L327 354 L327 355 L326 357 L325 358 L324 359 L323 361 L322 362 L321 363 L320 365 L320 366 L319 367 L318 369 L318 366 L318 362 L317 359 L317 356 L317 353 L317 350 L316 346 L316 343 L316 340 L316 337 L316 334 L316 331 L317 327 L316 326 L314 326 L313 325 L311 325 L310 325 L308 325 L306 325 L305 325 L303 325 L302 325 L300 325 L298 325 L297 325 L295 325 L294 325 L292 325 L290 325 L289 325 L287 324 L286 324 L284 324 L283 323 L281 323 L280 322 L279 321 L278 319 L277 318 L281 313 L285 308 L286 307 L287 306 Z" stroke = "black" stroke-width = "6" fill = "black" />	<path d = "M287 358 L287 352 L287 349 L287 346 L288 342 L288 339 L288 336 L289 333 L289 330 L288 332 L286 335 L284 338 L282 340 L280 343 L279 343 L279 344 L279 345 L279 346 L279 346 L279 350 L278 353 L278 356 L278 359 L278 362 L279 365 L279 369 L279 370 L281 368 L282 365 L284 362 L286 360 L287 359 Z" stroke = "black" stroke-width = "6" fill = "black" />	<path d = "M225 306 L227 308 L229 310 L232 311 L234 311 L237 312 L238 312 L238 314 L238 315 L238 316 L238 318 L237 319 L237 320 L237 322 L237 323 L237 324 L237 330 L237 335 L237 341 L237 346 L237 352 L234 357 L231 361 L229 366 L226 371 L227 366 L226 360 L226 355 L226 349 L226 344 L227 338 L228 333 L229 331 L230 328 L229 325 L228 323 L225 323 L222 323 L220 322 L218 320 L217 319 L217 318 L220 314 L223 309 L225 307 Z" stroke = "black" stroke-width = "6" fill = "black" />	<path d = "M415 401 L415 406 L418 410 L421 413 L425 416 L428 419 L428 424 L427 429 L425 433 L423 438 L421 442 L418 446 L416 450 L417 445 L419 441 L419 436 L416 432 L412 430 L408 427 L406 423 L405 418 L405 414 L407 409 L409 405 L413 402 L414 400 Z" stroke = "black" stroke-width = "6" fill = "black" />	<path d = "M326 402 L329 404 L331 406 L334 407 L337 407 L341 407 L344 408 L347 408 L350 408 L353 408 L357 408 L360 408 L363 408 L366 409 L369 410 L370 413 L370 416 L369 419 L368 422 L367 425 L366 426 L366 428 L365 430 L365 431 L366 433 L366 434 L366 436 L366 437 L366 439 L366 441 L367 442 L367 444 L367 445 L367 447 L368 449 L367 450 L366 451 L365 453 L364 454 L364 455 L363 457 L362 458 L361 459 L360 461 L359 462 L358 463 L357 465 L357 461 L357 458 L357 455 L357 452 L356 449 L356 446 L356 442 L355 439 L355 436 L355 433 L355 430 L356 426 L356 423 L355 422 L354 421 L352 421 L351 421 L349 421 L347 421 L346 421 L344 421 L343 421 L341 421 L339 421 L338 421 L336 421 L335 421 L333 421 L331 421 L330 421 L328 421 L327 420 L325 420 L324 420 L322 419 L321 418 L319 417 L318 416 L317 415 L317 414 L321 409 L325 404 L326 403 L326 402 Z" stroke = "black" stroke-width = "6" fill = "black" />	<path d = "M327 454 L327 448 L327 445 L327 441 L327 438 L327 435 L328 432 L328 429 L329 426 L327 428 L325 431 L323 433 L321 436 L319 438 L319 439 L319 440 L319 441 L319 441 L318 442 L318 445 L318 449 L318 452 L318 455 L318 458 L318 461 L318 465 L318 466 L320 463 L322 461 L324 458 L326 456 L327 455 Z" stroke = "black" stroke-width = "6" fill = "black" />	<path d = "M265 402 L266 404 L269 406 L271 407 L274 407 L277 408 L278 408 L278 409 L278 411 L277 412 L277 414 L277 415 L277 416 L277 418 L276 419 L276 420 L276 426 L276 431 L276 437 L276 442 L276 448 L274 452 L271 457 L268 462 L266 467 L266 461 L266 456 L265 451 L265 445 L265 440 L266 434 L268 429 L269 426 L269 424 L269 421 L267 419 L265 419 L262 419 L259 418 L257 416 L257 415 L256 413 L260 410 L263 405 L264 403 Z" stroke = "black" stroke-width = "6" fill = "black" />	<path d = "M174 402 L177 405 L179 406 L182 407 L186 407 L189 408 L192 408 L195 408 L198 409 L201 409 L205 409 L208 409 L211 409 L214 409 L217 410 L218 413 L218 416 L217 419 L216 422 L215 425 L214 427 L214 428 L213 430 L214 431 L214 433 L214 434 L214 436 L214 438 L214 439 L215 441 L215 442 L215 444 L215 446 L215 447 L216 449 L215 450 L214 451 L213 453 L213 454 L212 455 L211 457 L210 458 L209 459 L208 461 L207 462 L206 463 L205 465 L205 462 L205 458 L205 455 L205 452 L204 449 L204 446 L204 443 L204 439 L203 436 L203 433 L204 430 L204 427 L204 423 L203 422 L202 422 L200 421 L199 421 L197 421 L196 421 L194 421 L192 421 L191 421 L189 421 L188 421 L186 421 L184 421 L183 421 L181 421 L180 421 L178 421 L176 421 L175 421 L173 420 L172 420 L170 419 L169 419 L168 418 L166 417 L165 415 L165 414 L169 409 L173 404 L174 403 L174 402 Z" stroke = "black" stroke-width = "6" fill = "black" />	<path d = "M175 454 L175 448 L175 445 L175 442 L175 438 L175 435 L176 432 L176 429 L177 426 L175 429 L173 431 L171 434 L170 436 L168 439 L167 439 L167 440 L167 441 L167 442 L167 442 L166 446 L166 449 L166 452 L166 455 L166 458 L166 462 L166 465 L166 466 L168 464 L170 461 L172 458 L174 456 L175 455 Z" stroke = "black" stroke-width = "6" fill = "black" />	<path d = "M104 502 L410 502 L563 502 L410 237 L334 105 L295 39 L257 105 L219 171 L181 237 L143 304 L104 370 L66 436 L28 502 L104 502 Z" stroke = "black" stroke-width = "6" fill = "none" /></svg>