<svg width="600" height="600" viewbox = "0 0 600 600"  xmlns="http://www.w3.org/2000/svg">

<!--
<json>
{
    "imgurl": "",
    "imgw": 2.983971328437751,
    "imgleft": -1.4873205904167783,
    "imgtop": -1.0519856642188752,
    "imgangle": 0,
    "svgwidth": 600,
    "svgheight": 600,
    "unit": 100,
    "x0": 615.5,
    "y0": 359,
    "x0rel": 0,
    "y0rel": 0,
    "glyph": "0330,0333,0333,01101,0332,0332,01126,",
    "table": []
}
</json>
-->
	<path d = "M427 109 L427 116 L428 119 L430 123 L432 126 L435 128 L438 130 L441 132 L444 134 L447 136 L450 138 L453 141 L456 143 L459 145 L462 147 L464 149 L467 152 L469 154 L472 157 L475 160 L477 162 L479 165 L481 169 L481 172 L480 176 L479 179 L477 183 L476 186 L474 189 L472 192 L470 195 L471 192 L471 188 L470 185 L468 182 L466 179 L463 176 L461 174 L458 171 L455 169 L453 166 L450 164 L447 162 L444 159 L441 157 L439 155 L436 153 L433 150 L430 148 L427 146 L425 143 L423 140 L421 137 L419 134 L419 130 L419 126 L420 123 L421 120 L423 116 L425 113 L427 110 Z" stroke = "black" stroke-width = "6" fill = "black" />	<path d = "M462 147 L466 141 L470 134 L463 132 L457 128 L457 126 L460 119 L464 113 L466 110 L468 113 L470 116 L474 117 L477 118 L481 118 L483 118 L477 132 L473 138 L468 143 L462 147 Z" stroke = "black" stroke-width = "6" fill = "black" />	<path d = "M429 149 L428 153 L427 157 L428 160 L429 164 L431 167 L433 170 L436 172 L439 174 L438 176 L435 182 L431 188 L430 192 L426 192 L422 193 L419 194 L416 195 L412 197 L414 194 L416 190 L418 187 L419 184 L418 181 L416 177 L415 174 L415 170 L415 167 L416 163 L418 160 L419 157 L422 154 L424 151 L427 149 Z" stroke = "black" stroke-width = "6" fill = "black" />	<path d = "M132 103 L135 107 L139 110 L143 111 L148 112 L153 112 L158 112 L163 112 L168 112 L172 112 L177 114 L180 117 L184 121 L186 125 L187 130 L187 135 L187 140 L187 145 L187 150 L187 155 L187 159 L187 164 L187 169 L187 174 L183 177 L181 182 L178 186 L175 190 L172 194 L172 189 L172 184 L172 179 L172 174 L172 169 L172 164 L172 160 L172 155 L172 150 L171 145 L170 141 L168 136 L164 133 L159 132 L155 132 L150 132 L145 132 L140 132 L138 132 L135 136 L134 141 L134 146 L134 151 L134 156 L135 160 L136 165 L137 170 L134 174 L131 178 L129 182 L126 186 L125 188 L116 192 L107 196 L102 197 L104 193 L106 188 L108 184 L110 179 L111 177 L120 173 L122 169 L122 165 L122 160 L122 155 L123 150 L125 146 L128 141 L130 137 L133 133 L130 130 L125 128 L121 125 L119 121 L119 118 L125 110 L128 107 L132 103 Z" stroke = "black" stroke-width = "6" fill = "black" /></svg>