<svg width="600" height="600" viewbox = "0 0 600 600"  xmlns="http://www.w3.org/2000/svg">

<!--
<json>
{
    "imgurl": "",
    "imgw": 2.983971328437751,
    "imgleft": -1.4873205904167783,
    "imgtop": -1.0519856642188752,
    "imgangle": 0,
    "svgwidth": 600,
    "svgheight": 600,
    "unit": 100,
    "x0": 684,
    "y0": 399,
    "x0rel": 0,
    "y0rel": 0,
    "glyph": "0333,0333,01101,0332,0332,01126,",
    "table": []
}
</json>
-->
	<path d = "M427 209 L427 216 L428 219 L430 223 L432 226 L435 228 L438 230 L441 232 L444 234 L447 236 L450 238 L453 241 L456 243 L459 245 L462 247 L464 249 L467 252 L469 254 L472 257 L475 260 L477 262 L479 265 L481 269 L481 272 L480 276 L479 279 L477 283 L476 286 L474 289 L472 292 L470 295 L471 292 L471 288 L470 285 L468 282 L466 279 L463 276 L461 274 L458 271 L455 269 L453 266 L450 264 L447 262 L444 259 L441 257 L439 255 L436 253 L433 250 L430 248 L427 246 L425 243 L423 240 L421 237 L419 234 L419 230 L419 226 L420 223 L421 220 L423 216 L425 213 L427 210 Z" stroke = "black" stroke-width = "6" fill = "black" />	<path d = "M462 247 L466 241 L470 234 L463 232 L457 228 L457 226 L460 219 L464 213 L466 210 L468 213 L470 216 L474 217 L477 218 L481 218 L483 218 L477 232 L473 238 L468 243 L462 247 Z" stroke = "black" stroke-width = "6" fill = "black" />	<path d = "M429 249 L428 253 L427 257 L428 260 L429 264 L431 267 L433 270 L436 272 L439 274 L438 276 L435 282 L431 288 L430 292 L426 292 L422 293 L419 294 L416 295 L412 297 L414 294 L416 290 L418 287 L419 284 L418 281 L416 277 L415 274 L415 270 L415 267 L416 263 L418 260 L419 257 L422 254 L424 251 L427 249 Z" stroke = "black" stroke-width = "6" fill = "black" />	<path d = "M132 203 L135 207 L139 210 L143 211 L148 212 L153 212 L158 212 L163 212 L168 212 L172 212 L177 214 L180 217 L184 221 L186 225 L187 230 L187 235 L187 240 L187 245 L187 250 L187 255 L187 259 L187 264 L187 269 L187 274 L183 277 L181 282 L178 286 L175 290 L172 294 L172 289 L172 284 L172 279 L172 274 L172 269 L172 264 L172 260 L172 255 L172 250 L171 245 L170 241 L168 236 L164 233 L159 232 L155 232 L150 232 L145 232 L140 232 L138 232 L135 236 L134 241 L134 246 L134 251 L134 256 L135 260 L136 265 L137 270 L134 274 L131 278 L129 282 L126 286 L125 288 L116 292 L107 296 L102 297 L104 293 L106 288 L108 284 L110 279 L111 277 L120 273 L122 269 L122 265 L122 260 L122 255 L123 250 L125 246 L128 241 L130 237 L133 233 L130 230 L125 228 L121 225 L119 221 L119 218 L125 210 L128 207 L132 203 Z" stroke = "black" stroke-width = "6" fill = "black" /></svg>