<svg width="400" height="532.4000000000002" viewbox = "0 0 400 532.4000000000002"  xmlns="http://www.w3.org/2000/svg">

<!--
<topfunctions>







function YofX(){
    X = plotparams.g*(x - plotparams.x0) - funcparams.X0;
    Y = funcparams.a*X*X*X + funcparams.b*X*X + funcparams.c*X + funcparams.d;
    y = plotparams.y0 - plotparams.G*(Y - funcparams.Y0);
}


function YofX2(){
    X = plotparams.g*(x - plotparams.x0) - funcparams.X0;
    Y = funcparams.b*X*X + funcparams.c*X + funcparams.d;
    y = plotparams.y0 - plotparams.G*(Y - funcparams.Y0);
 }

function XYofT(){
    T = plotparams.g*t;
    X = funcparams.a*Math.cos(2*Math.PI*T/funcparams.T);
    Y = funcparams.b*Math.sin(2*Math.PI*T/funcparams.T);

    Xrot = Math.cos(Math.PI*funcparams.theta/180)*X - Math.sin(funcparams.theta*Math.PI/180)*Y;
    Yrot = Math.sin(funcparams.theta*Math.PI/180)*X + Math.cos(funcparams.theta*Math.PI/180)*Y;
    X = Xrot;
    Y = Yrot;

    y = plotparams.y0 - plotparams.G*(Y - funcparams.Y0);
    x = plotparams.x0 - plotparams.G*(X - funcparams.X0);    
}


function plotfunction(){


    currentStroke = "blue";
    currentLineWidth = 4;
    ctx.strokeStyle = currentStroke;
    ctx.lineWidth = currentLineWidth;
    ctx.beginPath();	
    x = 0;
    y = 0;
    t= 0;
    XYofT();
    currentSVG += "	<path d = \"M";
    currentSVG += Math.round(x).toString() + " ";
    currentSVG += Math.round(y).toString() + " ";
    for(t = 1;t < plotparams.duration;t++){
        ctx.moveTo(x,y);
        XYofT();
        ctx.lineTo(x,y);
        currentSVG += "L" + x + " " + y + " ";
    }
    ctx.stroke();
    currentSVG += "\""+ " stroke = \"" + currentStroke + "\" stroke-width = \"" + currentLineWidth.toString() + "\" fill = \"" + "none" + "\" "+"/>";


    /*plot one function:
    currentStroke = "blue";
    currentLineWidth = 4;
    ctx.strokeStyle = currentStroke;
    ctx.lineWidth = currentLineWidth;
    ctx.beginPath();	
    x = 0;
    YofX();
    currentSVG += "	<path d = \"M";
    currentSVG += Math.round(x).toString() + " ";
    currentSVG += Math.round(y).toString() + " ";
    for(x = 1;x < plotparams.plotwidth;x++){
        ctx.moveTo(x-1,y);
        YofX();
        ctx.lineTo(x,y);
        currentSVG += "L" + x + " " + y + " ";
    }
    ctx.stroke();
    currentSVG += "\""+ " stroke = \"" + currentStroke + "\" stroke-width = \"" + currentLineWidth.toString() + "\" fill = \"" + "none" + "\" "+"/>";
    /*finish plot one function*/
    

}
























</topfunctions>
-->

<!--
<imgurl>
https://i.imgur.com/YonhNjg.jpg
</imgurl>
-->

<!--
<currentjson>
{
    "constants": {},
    "imgurl": "https://i.imgur.com/YonhNjg.jpg",
    "plotparams": {
        "G": -31.950838261641874,
        "g": 0.017985878990921366,
        "duration": 545.4545454545454,
        "plotwidth": 400,
        "plotheight": 532.4000000000002,
        "x0": 166.94214876033055,
        "y0": 348.7903105962161
    },
    "funcparams": {
        "theta": 89.99999999999997,
        "a": 1.5195480989023613,
        "b": 6.559168162061821,
        "T": 1.4655609018152753,
        "X0": 0,
        "Y0": 0
    }
}
</currentjson>
-->

<!--
<equation>


<h2>Ellipse</h2>
<p style="color:blue">

</p><p class="bigeq">
$$
(X,Y) = (a\cos{\frac{2\pi t}{T}},b\sin{\frac{2\pi t}{T}})
$$
</p>
<p></p>

$$
X = g(x - x_0) - X_0
$$
$$
Y = f(X)
$$
    
$$
y = y_0 - G(Y - Y_0)
$$


<p>
    X and Y, and $X_0$ and $Y_0$ in physical units of the System. x and y and x0 and y0 in pixels.  G is in pixels per Y unit and g is in X units per pixel. 
</p>



</equation>
-->
	<path d = "M167 397 L150.79825742736764 397.19687918710144 L134.7503080037236 396.7649357107318 L118.89367222330083 396.0478827129083 L103.32258485767773 395.0499815846596 L88.1295836860809 393.7771627759362 L73.4049595504533 392.23699055140065 L59.23621976389782 390.4386180365822 L45.70756806142042 388.3927328215532 L32.899404183583925 386.11149344539984 L20.887846067010003 383.6084571389564 L9.744277481313446 380.89849925522043 L-0.46507619917147736 377.9977248662702 L-9.679541567716825 374.9233730520548 L-17.844357762608468 371.693714449863 L-24.911001906751977 368.3279426733256 L-30.83747747541352 364.84606024624014 L-35.58856387834854 361.2687597291045 L-39.136025773071566 357.6173007448152 L-41.4587808653329 353.9133836343574 L-42.543025199578324 350.1790204933409 L-42.38231519479942 346.43640435580255 L-40.97760593824174 342.70777730270515 L-38.33724550939442 339.01529827895456 L-34.47692536799346 335.3809114044876 L-29.41958710087866 331.8262155620488 L-23.19528608190089 328.3723360366847 L-15.841012855137677 325.0397989697939 L-7.400473302924098 321.8484093738406 L2.0761710948575 318.8171334326836 L12.532601366609356 315.96398578699836 L23.90667574835146 313.3059224746478 L36.13079898746406 310.8587401622481 L49.13232405609472 308.6369822667899 L62.833983886879466 306.6538525252246 L77.15435056520407 304.9211365256677 L92.00831924906174 303.44913166655175 L107.30761394060924 302.2465859599759 L122.96131210365846 301.3206460429407 L138.8763850093425 300.67681470543175 L154.95825059872536 300.3189181877603 L171.11133557672952 300.2490834415105 L187.23964339690852 300.46772548922877 L203.24732476156584 300.9735449579771 L219.0392472467883 301.76353580140614 L234.5215606671531 302.8330031644591 L249.60225482018862 304.17559128453513 L264.19170629595897 305.78332126329974 L278.2032111021223 307.64663848466625 L291.5534999391146 309.7544693971471 L304.16323306321715 312.094287323122 L315.9574717965748 314.6521869039233 L326.8661238820175 317.4129667383172 L336.8243600359734 320.3602197232665 L345.77299922393513 323.47643056008695 L353.6588603688137 326.7430798465256 L360.4350784020045 330.1407541361492 L366.06138277889977 333.6492613109692 L370.50433680364995 337.24775058165176 L373.7375363408854 340.9148364021614 L375.7417667334696 344.62872556242263 L376.50511699373465 348.36734670369765 L376.0230505895682 352.1084814869802 L374.2984324046765 355.8298966348825 L371.34151171279973 359.50947606229863 L367.16986126706377 363.1253523106045 L361.8082728664543 366.6560365042887 L355.2886100200552 370.08054605769337 L347.64961858465506 373.37852937291336 L338.93669650108916 376.5303867877831 L329.20162399775467 379.5173870551672 L318.5022558646814 382.3217786613273 L306.9021776269461 384.9268953218079 L294.47032766076944 387.3172550278882 L281.28058749802767 389.4786520549737 L267.41134275396905 391.3982413861289 L252.94501728750697 393.0646150490294 L237.9675833625446 394.46786991266634 L222.56805072139304 395.59966654089646 L206.83793760669514 396.4532787530714 L190.87072687552063 397.0236335972141 L174.7613104379088 397.30734149818386 L158.60542532151624 397.30271640166166 L142.49908471379783 397.00978579424185 L126.5380073629896 396.4302905400812 L110.81704872892072 395.5676745350769 L95.42963726428357 394.42706424005684 L80.46721917649822 393.0152382146159 L66.01871496990593 391.3405868326555 L52.169990998027075 389.41306241903425 L39.003349166398735 387.244120103664 L26.597037818657128 384.84664974455023 L15.02478671262594 382.2348993243539 L4.355368850013463 379.4243902757213 L-5.347808236265564 376.43182523859997 L-14.027079308201792 373.27498879772844 L-21.63086412278136 369.9726417902122 L-28.11397396941976 366.5444098113057 L-33.43788022300504 363.0106665810038 L-37.57094331656623 359.3924128645845 L-40.488600772795024 355.71115166667016 L-42.17351317696705 351.98876044051804 L-42.615667223754826 348.2473610719922 L-41.812435225534045 344.5091884108903 L-39.76859072853017 340.79645813093543 L-36.49628014399869 337.1312347037285 L-32.01495056303341 333.53530027128414 L-26.35123418399479 330.03002519643 L-19.538790039394712 326.63624106037753 L-11.618103962845368 323.3741168622305 L-2.6362479848521616 320.2630391561692 L7.353399412657751 317.3214968386438 L18.291470520562655 314.5669712702795 L30.11296122029478 312.0158323854898 L42.7476172983354 309.6832414072099 L56.120351961623754 307.5830607449111 L70.15169207261518 305.72777161136304 L84.75825045204871 304.1283998477423 L99.85322144256511 302.79445039790335 L115.34689678807634 301.7338508212254 L131.14719876306066 300.9529041797343 L147.16022738342937 300.4562515794876 L163.29081844693846 300.2468445888374 L179.4431090867514 300.3259276974852 L195.52110747711222 300.69303092057544 L211.4292633054119 301.345972591779 L227.07303562037401 302.2808723287694 L242.35945468168717 303.49217409403764 L257.19767447204725 304.97267921399714 L271.4995125880783 306.7135891601498 L285.1799743015997 308.70455783806625 L298.1577576767842 310.9337530734329 L310.3557367413328 313.387926929757 L321.7014198402195 316.05249443983803 L332.12738044804314 318.91162028311106 L341.57165787970234 321.9483128937429 L349.97812551799893 325.14452544020645 L357.29682436982466 328.4812630762176 L363.48425996862915 331.93869582565145 L368.50366085870246 335.49627643057136 L372.3251971251189 339.132862462008 L374.92615767063626 342.82684196779564 L376.2910851860065 346.55626191074765 L376.41186801158045 350.2989586338745 L375.2877883442796 354.0326895772995 L372.92552650344464 357.73526546408766 L369.3391212302098 361.3846821694185 L364.5498862563397 364.95925148941427 L358.58628363835373 368.43773003247406 L351.4837546097064 371.7994454671217 L343.284508956251 375.02441937608876 L334.03727416671575 378.0934859865175 L323.797005848973 380.98840607068036 L312.6245611330726 383.6919753403127 L300.5863370019772 386.1881266903807 L287.7538756993828 388.4620256846551 L274.2034395596458 390.5001587156285 L260.01555778656973 392.2904133148508 L245.27454787451967 393.82215013640007 L230.06801451601333 395.08626618570065 L214.4863289737428 396.0752489179225 L198.62209201108763 396.7832208844594 L182.56958357286877 397.205974662156 L166.42420248686295 397.34099785770087 L150.28189951587837 397.1874880385878 L134.23860712971924 396.74635750191055 L118.389669385871 396.0202278526511 L102.82927530707117 395.01341442368215 L87.64989912316176 393.7319006300746 L72.94175070382762 392.18330241011995 L58.79223944825215 390.3768229643927 L45.28545481775484 388.3231980618345 L32.50166659856484 386.03463223790146 L20.516847864632553 383.5247262639457 L9.402223475470379 380.8083963188726 L-0.7761532077306015 377.9017853434326 L-9.957792872163168 374.82216710396125 L-18.088129736757935 371.5878435357091 L-25.118845832439376 368.2180359758427 L-31.008158152112458 364.73277093251073 L-35.721066963873966 361.1527610688406 L-39.229563811738046 357.4992821091674 L-41.512797967743126 353.7940463990351 L-42.55720034623121 350.0590738703908 L-42.3565641438845 346.316561178815 L-40.9120817262816 342.58874979049904 L-38.232337541760586 338.8977938029156 L-34.333257104699925 335.2656282847142 L-29.23801235140718 331.71383891728937 L-22.97688393107606 328.26353371272927 L-15.587081250208598 324.9352175705176 L-7.112521339964189 321.748670418487 L2.396432139394193 318.7228296622227 L12.883268205872355 315.8756776415129 L24.285664396181346 313.22413476268054 L36.53585714336339 310.78395894190515 L49.56104449047618 308.5696519571344 L63.283818747048514 306.5943732651282 L77.62262651705134 304.86986179581606 L92.49225336448235 303.406366188736 L107.80433023623203 302.2125838861542 L123.46785863259427 301.2956094448328 L139.38975140438023 300.66089237362183 L155.47538596271048 300.3122047474465 L171.6291666138144 300.2516187901542 L187.75509267691416 300.47949455944735 L203.757329008913 300.9944778070878 L219.54077554530824 301.7935080270905 L235.0116324725932 302.8718366440763 L250.07795767335597 304.223055233691 L264.65021313124277 305.83913360738086 L278.6417970485305 307.710467535188 L291.9695585139695 309.8259358229524 L304.554291662285 312.1729664047177 L316.3212063885626 314.7376110575556 L327.20037282011253 317.50462829478585 L337.1271369043453 320.45757394496405 L346.0425046428528 323.5788988783328 L353.89349268822065 326.85005329995505 L360.6334432200033 330.2515969897245 L366.22230122857434 333.7633148341035 L370.6268525589833 337.36433696299565 L373.82092130012984 341.03326277778274 L375.7855253462009 344.7482881334444 L376.50898920586997 348.48733491892057 L375.9870133888476 352.2281822656343 L374.2226999574227 355.9485986044111 L371.2265340911447 359.6264737859912 L367.01632177420373 363.23995047995294 L361.6170839758319 366.76755407115263 L355.0609079525994 370.188320281717 L347.3867565563072 373.4819197601404 L338.64023668074435 376.6287788970635 L328.873328223412 379.610196149734 L318.144075172975 382.408453183842 L306.51624065828474 385.0069201722239 L294.0589280089886 387.3901546246507 L280.8461700797386 389.54399316136426 L266.95648927860543 391.45563568495845 L252.47243091442468 393.1137214503771 L237.48007263635077 394.5083965809515 L222.06851288098267 395.6313726292344 L206.32934136718166 396.4759758346083 L190.35609478538908 397.0371867849333 L174.24370091624166 397.3116702465291 L158.08791448204403 397.2977949852133 L141.98474808379032 396.99564346060066 L126.02990160563257 396.40701133605256 L110.31819347780137 395.53539680718677 L94.94299717793942 394.3859798123691 L79.99568631967715 392.9655912487366 L65.56509162625034 391.2826723766991 L51.73697301631353 389.34722465417536 L38.593509939316846 387.170750298695 L26.212812989333344 384.76618393060085 L14.668459699783028 382.1478157035914 L4.029057277788894 379.331206379432 L-5.642165123198765 376.3330948515401 L-14.287732169416785 373.17129866702413 L-21.856263918294246 369.86460813836584 L-28.302781165514716 366.4326746740332 L-33.588972752981334 362.89589399166533 L-37.683423249094176 359.2752849078852 L-40.561799648253555 355.59236442508256 L-42.20699598004728 351.86901985751814 L-42.609234968723314 348.1273787566908 L-41.76612613878973 344.3896774089949 L-39.68268002142756 340.67812868717374 L-36.371278377287865 337.01479004091885 L-31.8516006126371 333.42143241113627 L-26.150506826152906 329.9194108469127 L-19.30187818141613 326.5295375940951 L-11.346415553750887 323.271958409708 L-2.3313976480414453 320.166032837263 L7.689599974989022 317.23021915447504 L18.657023294230953 314.48196467713194 L30.505693753173205 311.9376020710335 L43.1651956110711 309.6122522882101 L56.560294418296564 307.51973470426316 L70.6113841289115 305.67248499087475 L85.23496019329754 304.0814812115634 L100.34411581929722 302.7561785798941 L115.84905845262128 301.7044532678679 L131.65764340711945 300.9325555984358 L147.67592147359036 300.4450729003078 L163.808697252734 300.2449022458102 L179.9600948941162 300.3332332338064 L196.03412787900226 300.7095409200024 L211.93526946088372 301.37158893665 L227.56902037361465 302.31544278310963 L242.84247043330754 303.5354932082854 L257.664850696442 305.0244895459755 L271.94807289273876 306.7735828050252 L285.60725292700266 308.77237825820384 L298.5612153387931 311.00899721727154 L310.73297572197515 313.47014762711495 L322.0501982371353 316.14120305941026 L332.4456254979415 319.0062896363679 L341.85747827663397 322.0483803679711 L350.22982265324373 325.24939634207357 L357.5129024265907 328.59031416598805 L363.66343481158094 332.0512790210543 L368.6448676654756 335.61172265830163 L372.4275967144794 339.2504856339794 L374.98914148967015 342.9459430585092 L376.3142789267025 346.67613311154577 L376.3951338353147 350.418887559395 L375.2312257009795 354.1519634991264 L372.82947154056586 357.8531755464417 L369.2041447950374 361.5005276817142 L364.3767905034862 365.07234397064775 L358.37609726261735 368.54739738269353 L351.23772673261414 371.9050359416673 L343.0041017026266 375.1253054588601 L333.7241539753844 378.1890681192541 L323.4530335692423 381.0781162160903 L312.251780965846 383.7752803578753 L300.18696435122854 386.264531504759 L287.3302840061777 388.5310762278908 L273.75814619696257 390.5614446256337 L259.5512090987461 392.3435703741578 L244.79390345023344 393.8668624366779 L229.57393078825078 395.12226800517453 L213.98174224424457 396.1023263005376 L198.11000100012726 396.8012129114054 L182.0530315980906 397.2147744081951 L165.90625937707685 397.3405530266167 L149.76564336730476 397.1778012739774 L133.727106013094 396.7274863714738 L117.8859631131424 395.99228450607035 L102.33635736602595 394.9765649261253 L87.17069888735699 393.68636397528223 L72.4791160235526 392.1293492189429 L58.34891972596607 390.31477387651233 L44.86408466860205 388.25342183022616 L32.10475019305852 385.95754353736373 L20.1467440465604 383.44078322671965 L9.061131743466717 380.718097811997 L-1.0862057716338995 377.80566800401584 L-10.234963649334418 374.7208021499872 L-18.330771522504193 371.4818333713331 L-25.32551662521766 368.1080106113497 L-31.177629723235526 364.61938424021236 L-35.852332156779255 361.0366868971616 L-39.321842527440765 357.38121027801714 L-41.565541800905805 353.67467860026017 L-42.57009584429443 349.9391194976737 L-42.32953466989119 346.19673311180225 L-40.84528791432504 342.46976015821286 L-38.12617634234758 338.78034975162365 L-34.1883594257051 335.1504277754155 L-29.055239308635265 331.60156657778435 L-22.757321730716995 328.1548567689299 L-15.332034733597169 324.83078188117446 L-6.823506229008814 321.6490966369007 L2.7176982500331235 318.6287095477481 L13.234876056312629 315.7875705427793 L24.6655244079067 313.1425642934254 L36.94171183742813 310.7094098691774 L49.99048190352721 308.5025673203619 L63.734286765441894 306.53515174316755 L78.09144804386627 304.8188553376351 L92.9766422293043 303.36387792180767 L108.30140775314982 302.17886631499357 L123.97467070800838 301.2708629503819 L139.90328609295466 300.6452640224015 L155.99259136713687 300.30578741755045 L172.14696902200058 300.2544506192824 L188.2704148288193 300.4915587182562 L204.2671083844696 301.01570259920584 L220.0419825647462 301.82376731520446 L235.50128850099486 302.91095059955506 L250.5531527224601 304.27079140529395 L265.10812315328053 305.89520830269754 L279.0797007193233 307.77454750660024 L292.3848534055508 309.8976402480995 L304.944509708934 312.251869149695 L316.6840285543243 314.8232432093947 L327.5336428806536 317.59648094816913 L337.4288742612297 320.55510122660985 L346.31091609408645 323.6815211910785 L354.12698308511244 326.957160767258 L360.83062494701426 330.36255308011295 L366.38200244980817 333.87746014403336 L370.7481241823174 337.480993135635 L373.90304261759854 341.1517365344358 L375.82800831710585 344.8678753936518 L376.51158135717003 348.6073249847573 L375.94969931558603 352.3478620453322 L374.14570141427834 356.06725685020865 L371.11030867455975 359.743405321025 L366.8615602029246 363.3544603890689 L361.4247059860197 366.87896183073383 L354.8320568319083 370.295963803984 L347.1227923494139 373.5851593278876 L338.3427281067066 376.7270009654496 L328.54404335289104 379.7028169925319 L317.7849709207285 382.4949223624791 L306.12945115337084 385.08672380699636 L293.6467519118014 387.4628184486712 L280.4110569212442 389.60908533909395 L266.5010249029675 391.5127693785722 L251.99932211153407 393.16255711871094 L236.99213105557357 394.5486439973703 L221.56863832175023 395.6627926064258 L205.82050454570128 396.4983816460551 L189.84131967990606 397.0504452746148 L173.72604679576736 397.31570262025696 L157.57045772535827 397.29257727889933 L141.47056389675066 396.9812066826737 L125.52204574546883 396.38344128317783 L109.81968409297943 395.5028335543825 L94.45679687154112 394.344616880552 L79.52468454287433 392.9156744546415 L65.11208750651505 391.2244983720087 L51.30465872242159 389.28113916254256 L38.18445468199553 387.09714606113346 L25.829447752636895 384.68549837145514 L14.313062793941441 382.0605283309577 L3.7037407993855425 379.23783593547864 L-5.935467843258039 376.2341962296616 L-14.547278055538897 373.0674596141529 L-22.080510509162423 369.7564457620376 L-28.490395780820194 366.3208317749636 L-33.73884041343953 362.7810352436346 L-37.79465330268127 359.1580929076329 L-40.633731063282795 355.47353563568777 L-42.23920127363047 351.74926046937185 L-42.60152274726809 348.0074004906613 L-41.7185422354373 344.27019328672503 L-39.59550722366987 340.5598487936478 L-36.24503474638328 336.898417304482 L-31.68703640481175 333.3076584260452 L-25.94860003388581 329.80891176324394 L-19.063828721304446 326.42297009943695 L-11.073638135497873 323.16995582651646 L-2.0255133669447503 320.06920135907507 L8.026773272082352 317.1391342433467 L19.023481812250054 314.39716764371127 L30.89925965722091 311.8595968575937 L43.58352996913115 309.54150247375844 L57.00091110133157 307.4566607495261 L71.07166458573361 305.6174617395327 L85.71216901241526 304.0348356625837 L100.83541698526012 302.7181879442004 L116.35153220024137 301.6753433208976 L132.1683035734119 300.9124993383734 L148.1917332443099 300.43418951997023 L164.3265951980494 300.24325642429295 L180.477001186216 300.3408347521007 L196.5469705833956 300.72634460286736 L212.44100079267005 301.39749492108587 L228.0646348102354 302.3502971118356 L243.32502257613692 303.57908874469615 L258.1314727750689 305.0765672051385 L272.3959918078991 306.83383309340184 L286.03380673090055 308.84044311294633 L298.9638690548544 311.08447213416326 L311.10933641001316 313.5525840645071 L322.39802921441753 316.23011110387165 L332.7628596316173 319.10114091420155 L342.142230268553 322.1486111853002 L350.48040024413405 325.3544110348297 L357.7278164530294 328.69948863989885 L363.8414080559725 332.16396446058457 L368.7848424464654 335.72724938251855 L372.52874117266754 339.3681670764114 L375.05085453129095 343.06507984736015 L376.3361937958782 346.7960172260078 L376.3771202936566 350.538806537361 L375.17339080158575 354.27120467129726 L372.7321589918121 357.9710302716677 L369.0679329179454 361.6162955583923 L364.2024887948063 365.18533699915616 L358.16474158404856 368.65694405412177 L350.9905731547618 372.0104852285395 L342.72261904026817 375.22603068414355 L333.4100150584162 378.28447068065196 L323.10810530118 381.16762914348953 L311.8781132289614 383.85837168280614 L299.78677782425063 386.340707421844 L286.9059569669768 388.5998840294908 L273.3122003886227 390.6224753922555 L259.0862947430404 392.3964614046312 L244.31278349755627 393.91129940366125 L229.07946449762306 395.1579868231774 L213.47686819094417 396.12911469536135 L197.5977196119717 396.8189116816721 L181.53638732412395 397.22327837146895 L165.38832259463555 397.33981164449546 L149.24949213500264 397.1678189524382 L133.21580777816015 396.7083224346887 L117.38255648181588 395.9640528438476 L101.84383404534506 394.93943331707027 L86.6919859056858 393.640553089703 L72.01705833546082 392.0751313074224 L57.906263304893926 390.2524711519449 L44.44346018774438 388.18340455293026 L31.708657391481154 385.8802278146544 L19.777536873433917 383.3566285400129 L8.721004368735692 380.62760428614865 L-1.3952319970406108 377.70937343511685 L-10.511052206236712 374.6192788092825 L-18.572281637760142 371.3756846042585 L-25.53101302271577 367.99786725189523 L-31.345891153629708 364.5059008619246 L-35.98235865527994 360.92053792306325 L-39.412861356529305 357.26308597256275 L-41.61701204265498 353.55528096714613 L-42.58171161500064 349.8191581078862 L-42.301226937919125 346.0769208866901 L-40.777224910356864 342.35080913264994 L-38.0187625596013 338.66296684244185 L-34.042233216061646 335.0353105802502 L-28.87126908896377 331.4893992293074 L-22.53660082193761 328.04630586909917 L-15.075874863160465 324.7264925396711 L-6.533429735396965 321.5496886372904 L3.039967464440082 318.5347736641572 L13.587422770266585 315.6996650289665 L25.046253463295102 313.0612115651248 L37.34836059064446 310.6350933994205 L50.42063367218837 308.43572876623415 L64.18538519054381 306.47618832107526 L78.56081228202711 304.7681174626786 L93.46148288481996 303.3216671252902 L108.79884345514884 302.1454334524451 L124.48174523422429 301.2464067107431 L140.41698593833163 300.6299297472305 L156.50986365284902 300.29966623727 L172.66473963848503 300.2575789115979 L188.78560670497154 300.50391789196607 L204.77665977444133 301.03721920468763 L220.54286524366427 301.85431348092015 L235.9905257614774 302.95034479198233 L251.02783706494986 304.31879950776533 L265.56543356509826 305.95154500673823 L279.516919439728 307.83887800749426 L292.7993820771868 309.96958223460905 L305.33388481966426 312.3309950761061 L317.04593607769635 314.90908283638856 L327.8659320279859 317.6885241374197 L337.7295702635762 320.6528009724948 L346.57823193814386 323.78429687149344 L354.3593301333011 327.06440159420896 L361.0266223786276 330.4736217295815 " stroke = "blue" stroke-width = "4" fill = "none" /></svg>