<svg width="400" height="400" viewbox = "0 0 400 400"  xmlns="http://www.w3.org/2000/svg">

<!--
<topfunctions>








function YofX(){
//foobar foobar
    X = plotparams.g*(x - plotparams.x0) - funcparams.X0;
    Y = Math.tan(funcparams.phi + (Math.PI*2*X/funcparams.T));
    y = plotparams.y0 - plotparams.G*(Y - funcparams.Y0);
}

//foo

function XYofT(){
    T = plotparams.g*t;
    X = Math.exp(-T/funcparams.tau)*Math.cos(2*Math.PI*T/funcparams.T);
    Y = Math.exp(-T/funcparams.tau)*Math.sin(2*Math.PI*T/funcparams.T);
    y = plotparams.y0 - plotparams.G*(Y - funcparams.Y0);
    x = plotparams.x0 - plotparams.G*(X - funcparams.X0);    
}


function plotfunction(){

/*
    currentStroke = "blue";
    currentLineWidth = 4;
    ctx.strokeStyle = currentStroke;
    ctx.lineWidth = currentLineWidth;
    ctx.beginPath();	
    x = 0;
    y = 0;
    t= 0;
    XYofT();
    currentSVG += "	<path d = \"M";
    currentSVG += Math.round(x).toString() + " ";
    currentSVG += Math.round(y).toString() + " ";
    for(t = 1;t < plotparams.duration;t++){
        ctx.moveTo(x,y);
        XYofT();
        ctx.lineTo(x,y);
        currentSVG += "L" + x + " " + y + " ";
    }
    ctx.stroke();
    currentSVG += "\""+ " stroke = \"" + currentStroke + "\" stroke-width = \"" + currentLineWidth.toString() + "\" fill = \"" + "none" + "\" "+"/>";


    /*plot one function:*/
    currentStroke = "blue";
    currentLineWidth = 4;
    ctx.strokeStyle = currentStroke;
    ctx.lineWidth = currentLineWidth;
    ctx.beginPath();	
    x = 0;
    YofX();
    currentSVG += "	<path d = \"M";
    currentSVG += Math.round(x).toString() + " ";
    currentSVG += Math.round(y).toString() + " ";
    for(x = 1;x < plotparams.plotwidth;x++){
        ctx.moveTo(x-1,y);
        YofX();
        ctx.lineTo(x,y);
        currentSVG += "L" + x + " " + y + " ";
    }
    ctx.stroke();
    currentSVG += "\""+ " stroke = \"" + currentStroke + "\" stroke-width = \"" + currentLineWidth.toString() + "\" fill = \"" + "none" + "\" "+"/>";
    /*finish plot one function*/
    

}

























</topfunctions>
-->

<!--
<imgurl>

</imgurl>
-->

<!--
<currentjson>
{
    "constants": {},
    "imgurl": "",
    "plotparams": {
        "G": 30.28638256304965,
        "g": 0.03881825291649695,
        "duration": 409.8080732190423,
        "plotwidth": 400,
        "plotheight": 400,
        "x0": 0,
        "y0": 200
    },
    "funcparams": {
        "phi": 2.6573415000000042,
        "T": 6.734212753702516,
        "X0": 0,
        "Y0": 0
    }
}
</currentjson>
-->

<!--
<equation>



<h2>Tangent</h2>
<p style="color:blue">

</p><p class="bigeq">
$$
Y = \tan{\phi + \frac{2\pi X}{T}}

$$
</p>
<p></p>

$$
X = g(x - x_0) - X_0
$$
$$
Y = f(X)
$$
    
$$
y = y_0 - G(Y - Y_0)
$$


<p>
    X and Y, and $X_0$ and $Y_0$ in physical units of the System. x and y and x0 and y0 in pixels.  G is in pixels per Y unit and g is in X units per pixel. 
</p>




</equation>
-->
	<path d = "M0 216 L1 214.55657744546454 L2 213.2287905473106 L3 211.9423779286314 L4 210.69220725616373 L5 209.47361700908888 L6 208.2823404557541 L7 207.1144407018206 L8 205.96625459564996 L9 204.8343437023768 L10 203.71545088262738 L11 202.6064612587501 L12 201.50436653781594 L13 200.40623179889576 L14 199.3091639510826 L15 198.21028113455296 L16 197.10668237364905 L17 195.99541680071084 L18 194.87345175277076 L19 193.73763899925837 L20 192.58467828490427 L21 191.41107726357131 L22 190.21310674897873 L23 188.9867500075536 L24 187.72764455347277 L25 186.43101455778722 L26 185.09159152678686 L27 183.70352030416674 L28 182.26024665804692 L29 180.75438165878768 L30 179.17753663971413 L31 177.52012062158192 L32 175.77108947232193 L33 173.9176324727446 L34 171.9447769308048 L35 169.83488437559473 L36 167.56700166324555 L37 165.1160154765704 L38 162.45153671680973 L39 159.53640814862683 L40 156.32467770598657 L41 152.758799778101 L42 148.7656978061036 L43 144.25110804428238 L44 139.0912600596963 L45 133.12030601352882 L46 126.11072798802729 L47 117.74167697675708 L48 107.54557828932174 L49 94.81334879746699 L50 78.41524417140424 L51 56.43445402528573 L52 25.33693904319395 L53 -22.19037989229301 L54 -104.13453206576139 L55 -279.820697315565 L56 -929.0511539916131 L57 3421.799531759756 L58 863.4442540520774 L59 569.2555070449544 L60 455.35105955444294 L61 394.7559760970513 L62 357.06247314560557 L63 331.2939566132443 L64 312.5218131251973 L65 298.2041994956238 L66 286.8972239095647 L67 277.7198556529039 L68 270.103974154565 L69 263.6667473879042 L70 258.14075928712776 L71 253.33353720361856 L72 249.10299271882718 L73 245.34192482922123 L74 241.9679100275594 L75 238.91651412720117 L76 236.1366184932227 L77 233.5871300883046 L78 231.2346196605539 L79 229.05159616353487 L80 227.0152258951927 L81 225.10636799229752 L82 223.30883856592604 L83 221.60884247993806 L84 219.99452966931003 L85 218.45564509003253 L86 216.98324983500123 L87 215.56949688072694 L88 214.20744915124362 L89 212.89093062776683 L90 211.61440344975506 L91 210.3728655855391 L92 209.16176486399544 L93 207.97692606797963 L94 206.8144884764409 L95 205.6708517629168 L96 204.5426285547743 L97 203.42660225995579 L98 202.31968899775006 L99 201.21890264296832 L100 200.12132212021933 L101 199.0240601748381 L102 197.92423290497234 L103 196.8189293688798 L104 195.70518058439566 L105 194.57992721397082 L106 193.4399851772493 L107 192.2820083507537 L108 191.10244739581393 L109 189.8975035939423 L110 188.6630763528607 L111 187.39470276168927 L112 186.08748720023164 L113 184.73601851706147 L114 183.33427164580146 L115 181.87548967510403 L116 180.35204125030998 L117 178.75524665714283 L118 177.07516386761142 L119 175.30032299438452 L120 173.4173936774816 L121 171.4107644323454 L122 169.26200518958518 L123 166.94917302921783 L124 164.44590469631717 L125 161.72021507332562 L126 158.7328838030672 L127 155.43525507909004 L128 151.76618520049928 L129 147.64772587104116 L130 142.97888671941843 L131 137.62639970068713 L132 131.41065733321295 L133 124.08360137574253 L134 115.29261860330006 L135 104.5188939126987 L136 90.9663195295204 L137 73.34755479615214 L138 49.4358773578945 L139 15.016935590972082 L140 -38.966434695323585 L141 -136.17501994391313 L142 -364.1849834430892 L143 -1539.2416174645539 L144 1810.224024141407 L145 749.8560694752523 L146 531.0081224562148 L147 436.32340850172204 L148 383.3786051813697 L149 349.4853525558814 L150 325.87599772146353 L151 308.44688679750385 L152 295.02103488706337 L153 284.33613867156487 L154 275.6098086647092 L155 268.33125731940027 L156 262.15282274013464 L157 256.82963510169844 L158 252.18421526953355 L159 248.08475986626252 L160 244.43131315804217 L161 241.14667447524482 L162 238.17025118003363 L163 235.45380081947127 L164 232.95841795096555 L165 230.65236072728894 L166 228.5094561701151 L167 226.50791185896335 L168 224.62941796573543 L169 222.85845994614652 L170 221.1817862328171 L171 219.58799144738816 L172 218.06718671694796 L173 216.61073637240722 L174 215.21104572909186 L175 213.86138852261283 L176 212.5557653723572 L177 211.28878669067802 L178 210.05557496598223 L179 208.85168247279597 L180 207.67302130651132 L181 206.5158032789815 L182 205.3764876962409 L183 204.251735409315 L184 203.1383678108112 L185 202.03332966364857 L186 200.93365480837264 L187 199.836433912425 L188 198.73878350586455 L189 197.63781559835033 L190 196.53060719471932 L191 195.4141690225734 L192 194.28541275469206 L193 193.14111594998187 L194 191.97788384549253 L195 190.7921070031254 L196 189.57991363984692 L197 188.33711523798132 L198 187.05914372658066 L199 185.74097812403818 L200 184.3770580058118 L201 182.96118046752343 L202 181.4863763344284 L203 179.94476014118894 L204 178.32734675431146 L205 176.62382526577238 L206 174.8222777062159 L207 172.90882584993534 L208 170.8671833737575 L209 168.67808207118935 L210 166.31852845062787 L211 163.76082887919284 L212 160.9712942918128 L213 157.9084941572977 L214 154.52086513402804 L215 150.7433775922675 L216 146.49279620953675 L217 141.66079021166013 L218 136.10366152882125 L219 129.62658098292033 L220 121.95857122224976 L221 112.71121190292354 L222 101.30720698257564 L223 86.84959870087096 L224 67.86484294602337 L225 41.75062797729109 L226 3.4387939042750304 L227 -58.43240355729938 L228 -175.68645777292812 L229 -484.3974247361833 L230 -3583.16694343959 L231 1273.2059570239487 L232 669.4058462249288 L233 499.8918861617868 L234 419.89800976391086 L235 373.22741030345117 L236 342.5806079631784 L237 320.8657400655536 L238 304.6375241532234 L239 292.0203716806924 L240 281.90579910125956 L241 273.59659132971825 L242 266.63222177326986 L243 260.696241090492 L244 255.56399285644085 L245 251.07155543383897 L246 247.09649347855458 L247 243.54549220702216 L248 240.34616449430496 L249 237.44147532204298 L250 234.78585723749202 L251 232.3424471259834 L252 230.081083860453 L253 227.97683297309052 L254 226.00888316573415 L255 224.15970957218502 L256 222.41443129165026 L257 220.76031235938444 L258 219.18636995326474 L259 217.68306369064177 L260 216.242046885178 L261 214.85596559608544 L262 213.51829485789318 L263 212.22320405657746 L264 210.96544530676894 L265 209.74026008252298 L266 208.54330039759085 L267 207.37056161608447 L268 206.2183245686839 L269 205.0831051015061 L270 203.9616095293098 L271 202.85069472709213 L272 201.74733179268287 L273 200.6485723609526 L274 199.55151675727748 L275 198.4532832506318 L276 197.35097770955784 L277 196.24166297985172 L278 195.122327292044 L279 193.98985096899148 L280 192.84097063688276 L281 191.6722400426173 L282 190.47998644059328 L283 189.2602613234773 L284 188.00878402198222 L285 186.72087637075828 L286 185.39138620738876 L287 184.0145969063244 L288 182.58411940379276 L289 181.0927621795799 L290 179.53237333720548 L291 177.89364713729282 L292 176.1658849051925 L293 174.33669688360078 L294 172.39162693520973 L295 170.31367542078044 L296 168.08268617161053 L297 165.6745498263543 L298 163.06015567327358 L299 160.20399392277 L300 157.06226408440762 L301 153.58027279195073 L302 149.68878857771665 L303 145.29883057811458 L304 140.29404534034774 L305 134.51926019568967 L306 127.76277147693911 L307 119.72796489971608 L308 109.98593504607246 L309 97.89239734427714 L310 82.43298658347942 L311 61.91285073959648 L312 33.27085391083119 L313 -9.644960715980261 L314 -81.29603456044487 L315 -225.63672425950506 L316 -669.5126994253909 L317 21817.485313169527 L318 1004.6938586364192 L319 609.4289549030394 L320 474.0783070675741 L321 405.5728258016577 L322 364.1127730394193 L323 336.2614732567323 L324 316.21804046251117 L325 301.06797244580054 L326 289.18646464620986 L327 279.59604382485594 L328 271.67335521557806 L329 265.0020847114921 L330 259.29356141935205 L331 254.34129362167462 L332 249.99364326736747 L333 246.1367225013134 L334 242.6833126896732 L335 239.5654688558351 L336 236.72945447518566 L337 234.13219254786475 L338 231.73872842077662 L339 229.52038296909447 L340 227.453386343189 L341 225.51785230097693 L342 223.69699786485685 L343 221.97654230413943 L344 220.34423896482002 L345 218.78950672263403 L346 217.30313698050546 L347 215.87705853545916 L348 214.50414718575414 L349 213.1780702161869 L350 211.89315827488446 L351 210.64429890013574 L352 209.42684725033703 L353 208.23655055855738 L354 207.06948356304574 L355 205.92199271827786 L356 204.79064741231437 L357 203.67219673734067 L358 202.56353060453543 L359 201.4616441787291 L360 200.36360474488947 L361 199.26652021604662 L362 198.1675085569037 L363 197.0636674329846 L364 195.95204340389847 L365 194.8295999616472 L366 193.69318366983157 L367 192.53948758441265 L368 191.36501102676098 L369 190.16601462818414 L370 188.93846936217108 L371 187.67799801257723 L372 186.37980717411574 L373 185.0386074199335 L374 183.64851866397254 L375 182.20295694358623 L376 180.69449778085917 L377 179.11470985084017 L378 177.45395075072685 L379 175.70111402243336 L380 173.84331293392384 L381 171.86548142968957 L382 169.749865450904 L383 167.47536747983114 L384 165.0166920894457 L385 162.34321795020702 L386 159.41748806303485 L387 156.19315815282818 L388 152.61216161005126 L389 148.60071789902094 L390 144.06359352548492 L391 138.87565248383672 L392 132.8690746842462 L393 125.81340871099584 L394 117.3832886252479 L395 107.10389112065899 L396 94.2539011642452 L397 77.68160258903605 L398 55.42743495797629 L399 23.864873274485433 " stroke = "blue" stroke-width = "4" fill = "none" /></svg>