<svg width="400" height="400" viewbox = "0 0 400 400"  xmlns="http://www.w3.org/2000/svg">

<!--
<topfunctions>






function YofX(){
    X = plotparams.g*(x - plotparams.x0) - funcparams.X0;
    
    Y =  (1/Math.sqrt(2*Math.PI*funcparams.sigma*funcparams.sigma))*Math.exp(-(X - funcparams.mu)*(X - funcparams.mu)/(2*funcparams.sigma*funcparams.sigma));
    
    y = plotparams.y0 - plotparams.G*(Y - funcparams.Y0);
}





function plotfunction(){
/*

    currentStroke = "blue";
    currentLineWidth = 4;
    ctx.strokeStyle = currentStroke;
    ctx.lineWidth = currentLineWidth;
    ctx.beginPath();	
    x = 0;
    y = 0;
    t= 0;
    XYofT();
    currentSVG += "	<path d = \"M";
    currentSVG += Math.round(x).toString() + " ";
    currentSVG += Math.round(y).toString() + " ";
    for(t = 1;t < plotparams.duration;t++){
        ctx.moveTo(x,y);
        XYofT();
        ctx.lineTo(x,y);
        currentSVG += "L" + x + " " + y + " ";
    }
    ctx.stroke();
    currentSVG += "\""+ " stroke = \"" + currentStroke + "\" stroke-width = \"" + currentLineWidth.toString() + "\" fill = \"" + "none" + "\" "+"/>";


    /*plot one function:*/
    currentStroke = "blue";
    currentLineWidth = 4;
    ctx.strokeStyle = currentStroke;
    ctx.lineWidth = currentLineWidth;
    ctx.beginPath();	
    x = 0;
    YofX();
    currentSVG += "	<path d = \"M";
    currentSVG += Math.round(x).toString() + " ";
    currentSVG += Math.round(y).toString() + " ";
    for(x = 1;x < plotparams.plotwidth;x++){
        ctx.moveTo(x-1,y);
        YofX();
        ctx.lineTo(x,y);
        currentSVG += "L" + x + " " + y + " ";
    }
    ctx.stroke();
    currentSVG += "\""+ " stroke = \"" + currentStroke + "\" stroke-width = \"" + currentLineWidth.toString() + "\" fill = \"" + "none" + "\" "+"/>";
    /*finish plot one function*/
    

}




























</topfunctions>
-->

<!--
<imgurl>

</imgurl>
-->

<!--
<currentjson>
{
    "constants": {},
    "imgurl": "",
    "plotparams": {
        "G": 5213.679285981191,
        "g": 0.2357947691000001,
        "duration": 473.28153749590115,
        "plotwidth": 400,
        "plotheight": 400,
        "x0": 200,
        "y0": 272.7272727272727
    },
    "funcparams": {
        "mu": 0,
        "sigma": 10,
        "X0": 0,
        "Y0": 0
    }
}
</currentjson>
-->

<!--
<equation>




<h2>Gaussian</h2>
<p style="color:blue">
</p><p class="bigeq">
$$
Y = \frac{1}{\sqrt{2\pi\sigma^2}} e^{-\frac{(x - \mu)^2}{2\sigma^2}}$$
</p>
<p></p>

$$
X = g(x - x_0) - X_0
$$
$$
Y = f(X)
$$
    
$$
y = y_0 - G(Y - Y_0)
$$


<p>
    X and Y, and $X_0$ and $Y_0$ in physical units of the System. x and y and x0 and y0 in pixels.  G is in pixels per Y unit and g is in X units per pixel. 
</p>





</equation>
-->
	<path d = "M0 273 L1 272.7238296746829 L2 272.7234279225386 L3 272.7229816784484 L4 272.72248630335804 L5 272.7219367078799 L6 272.7213273122702 L7 272.72065200323846 L8 272.71990408737804 L9 272.71907624099646 L10 272.7181604561118 L11 272.7171479823743 L12 272.7160292646582 L13 272.71479387605996 L14 272.71343044602924 L15 272.71192658334576 L16 272.7102687936487 L17 272.70844239121124 L18 272.7064314046467 L19 272.70421847622083 L20 272.701784754438 L21 272.69910977955925 L22 272.696171361704 L23 272.69294545118055 L24 272.68940600068345 L25 272.68552481899405 L26 272.6812714158141 L27 272.67661283736345 L28 272.67151349237014 L29 272.66593496808383 L30 272.6598358359472 L31 272.653171446563 L32 272.6458937136051 L33 272.6379508863287 L34 272.62928731035 L35 272.61984317637786 L36 272.6095542566025 L37 272.5983516284622 L38 272.5861613855385 L39 272.5729043353565 L40 272.5584956838983 L41 272.5428447066751 L42 272.5258544062433 L43 272.50742115609233 L44 272.48743433088435 L45 272.4657759230763 L46 272.44232014601397 L47 272.4169330236522 L48 272.38947196712166 L49 272.3597853384374 L50 272.3277120017215 L51 272.29308086239797 L52 272.25571039490484 L53 272.2154081595646 L54 272.171970309353 L55 272.12518108741085 L56 272.0748123162541 L57 272.02062287975207 L58 271.9623581990633 L59 271.8997497038433 L60 271.83251430016617 L61 271.760353836736 L62 271.6829545710992 L63 271.59998663770904 L64 271.51110351983505 L65 271.41594152745625 L66 271.3141192834214 L67 271.2052372203083 L68 271.0888770905606 L69 270.9646014926299 L70 270.8319534159943 L71 270.6904558080708 L72 270.5396111661808 L73 270.3789011578628 L74 270.20778627296096 L75 270.02570551104566 L76 269.83207610783904 L77 269.6262933044331 L78 269.4077301631879 L79 269.17573743429114 L80 268.9296434770386 L81 268.6687542399632 L82 268.3923533039929 L83 268.09970199285374 L84 267.790039554958 L85 267.4625834210148 L86 267.1165295415883 L87 266.7510528087885 L88 266.3653075662205 L89 265.95842821123784 L90 265.5295298934366 L91 265.077709313198 L92 264.6020456239311 L93 264.1016014414793 L94 263.57542396394905 L95 263.0225462049741 L96 262.44198834316484 L97 261.8327591901922 L98 261.1938577796305 L99 260.52427507832766 L100 259.8229958216843 L101 259.0890004738115 L102 258.3212673130905 L103 257.51877464318886 L104 256.680503129088 L105 255.80543825715114 L106 254.89257291771227 L107 253.9409101080917 L108 252.94946575334828 L109 251.91727164146204 L110 250.84337846900797 L111 249.72685899272963 L112 248.56681128175958 L113 247.36236206455882 L114 246.11267016396562 L115 244.81693001305794 L116 243.4743752438454 L117 242.08428234012126 L118 240.64597434512496 L119 239.15882461399448 L120 237.6222606003317 L121 236.0357676655628 L122 234.39889289915766 L123 232.71124893718076 L124 230.9725177660801 L125 229.18245449809498 L126 227.34089110417045 L127 225.44774008981926 L128 223.50299809896967 L129 221.50674943048813 L130 219.4591694517678 L131 217.36052789353727 L132 215.21119200986828 L133 213.01162958725024 L134 210.76241178655886 L135 208.46421580177568 L136 206.11782731942063 L137 203.72414276283985 L138 201.28417130575204 L139 198.79903663979547 L140 196.26997848124017 L141 193.6983538025329 L142 191.08563777492884 L143 188.43342440913415 L144 185.74342688163165 L145 183.0174775351968 L146 180.25752754302027 L147 177.4656462268428 L148 174.6440200205713 L149 171.79495107198065 L150 168.92085547630887 L151 166.0242611368217 L152 163.10780524874957 L153 160.17423140438254 L154 157.22638631854085 L155 154.26721617511328 L156 151.299762596868 L157 148.3271582422836 L158 145.35262203471422 L159 142.3794540307852 L160 139.41102993650728 L161 136.45079528118814 L162 133.50225926080617 L163 130.56898826408 L164 127.6545990960112 L165 124.76275191519414 L166 121.89714290265624 L167 119.06149668141825 L168 116.25955850733087 L169 113.495086253045 L170 110.77184220820402 L171 108.09358472009271 L172 105.46405970004147 L173 102.88699202184753 L174 100.36607683934275 L175 97.90497085099341 L176 95.50728354006358 L177 93.17656841940007 L178 90.91631431030274 L179 88.72993668522122 L180 86.62076910417053 L181 84.59205477477397 L182 82.64693826572721 L183 80.78845740322623 L184 79.01953537951707 L185 77.34297310220526 L186 75.76144181230947 L187 74.27747599825952 L188 72.89346663212655 L189 71.6116547533332 L190 70.43412542393347 L191 69.36280207827599 L192 68.39944128847733 L193 67.5456279656425 L194 66.80277101518064 L195 66.1720994628854 L196 65.65465906668919 L197 65.2513094271657 L198 64.96272160795635 L199 64.78937627534026 L200 64.73156236416773 L201 64.78937627534026 L202 64.96272160795635 L203 65.2513094271657 L204 65.65465906668919 L205 66.1720994628854 L206 66.80277101518064 L207 67.5456279656425 L208 68.39944128847733 L209 69.36280207827599 L210 70.43412542393347 L211 71.6116547533332 L212 72.89346663212655 L213 74.27747599825952 L214 75.76144181230947 L215 77.34297310220526 L216 79.01953537951707 L217 80.78845740322623 L218 82.64693826572721 L219 84.59205477477397 L220 86.62076910417053 L221 88.72993668522122 L222 90.91631431030274 L223 93.17656841940007 L224 95.50728354006358 L225 97.90497085099341 L226 100.36607683934275 L227 102.88699202184753 L228 105.46405970004147 L229 108.09358472009271 L230 110.77184220820402 L231 113.495086253045 L232 116.25955850733087 L233 119.06149668141825 L234 121.89714290265624 L235 124.76275191519414 L236 127.6545990960112 L237 130.56898826408 L238 133.50225926080617 L239 136.45079528118814 L240 139.41102993650728 L241 142.3794540307852 L242 145.35262203471422 L243 148.3271582422836 L244 151.299762596868 L245 154.26721617511328 L246 157.22638631854085 L247 160.17423140438254 L248 163.10780524874957 L249 166.0242611368217 L250 168.92085547630887 L251 171.79495107198065 L252 174.6440200205713 L253 177.4656462268428 L254 180.25752754302027 L255 183.0174775351968 L256 185.74342688163165 L257 188.43342440913415 L258 191.08563777492884 L259 193.6983538025329 L260 196.26997848124017 L261 198.79903663979547 L262 201.28417130575204 L263 203.72414276283985 L264 206.11782731942063 L265 208.46421580177568 L266 210.76241178655886 L267 213.01162958725024 L268 215.21119200986828 L269 217.36052789353727 L270 219.4591694517678 L271 221.50674943048813 L272 223.50299809896967 L273 225.44774008981926 L274 227.34089110417045 L275 229.18245449809498 L276 230.9725177660801 L277 232.71124893718076 L278 234.39889289915766 L279 236.0357676655628 L280 237.6222606003317 L281 239.15882461399448 L282 240.64597434512496 L283 242.08428234012126 L284 243.4743752438454 L285 244.81693001305794 L286 246.11267016396562 L287 247.36236206455882 L288 248.56681128175958 L289 249.72685899272963 L290 250.84337846900797 L291 251.91727164146204 L292 252.94946575334828 L293 253.9409101080917 L294 254.89257291771227 L295 255.80543825715114 L296 256.680503129088 L297 257.51877464318886 L298 258.3212673130905 L299 259.0890004738115 L300 259.8229958216843 L301 260.52427507832766 L302 261.1938577796305 L303 261.8327591901922 L304 262.44198834316484 L305 263.0225462049741 L306 263.57542396394905 L307 264.1016014414793 L308 264.6020456239311 L309 265.077709313198 L310 265.5295298934366 L311 265.95842821123784 L312 266.3653075662205 L313 266.7510528087885 L314 267.1165295415883 L315 267.4625834210148 L316 267.790039554958 L317 268.09970199285374 L318 268.3923533039929 L319 268.6687542399632 L320 268.9296434770386 L321 269.17573743429114 L322 269.4077301631879 L323 269.6262933044331 L324 269.83207610783904 L325 270.02570551104566 L326 270.20778627296096 L327 270.3789011578628 L328 270.5396111661808 L329 270.6904558080708 L330 270.8319534159943 L331 270.9646014926299 L332 271.0888770905606 L333 271.2052372203083 L334 271.3141192834214 L335 271.41594152745625 L336 271.51110351983505 L337 271.59998663770904 L338 271.6829545710992 L339 271.760353836736 L340 271.83251430016617 L341 271.8997497038433 L342 271.9623581990633 L343 272.02062287975207 L344 272.0748123162541 L345 272.12518108741085 L346 272.171970309353 L347 272.2154081595646 L348 272.25571039490484 L349 272.29308086239797 L350 272.3277120017215 L351 272.3597853384374 L352 272.38947196712166 L353 272.4169330236522 L354 272.44232014601397 L355 272.4657759230763 L356 272.48743433088435 L357 272.50742115609233 L358 272.5258544062433 L359 272.5428447066751 L360 272.5584956838983 L361 272.5729043353565 L362 272.5861613855385 L363 272.5983516284622 L364 272.6095542566025 L365 272.61984317637786 L366 272.62928731035 L367 272.6379508863287 L368 272.6458937136051 L369 272.653171446563 L370 272.6598358359472 L371 272.66593496808383 L372 272.67151349237014 L373 272.67661283736345 L374 272.6812714158141 L375 272.68552481899405 L376 272.68940600068345 L377 272.69294545118055 L378 272.696171361704 L379 272.69910977955925 L380 272.701784754438 L381 272.70421847622083 L382 272.7064314046467 L383 272.70844239121124 L384 272.7102687936487 L385 272.71192658334576 L386 272.71343044602924 L387 272.71479387605996 L388 272.7160292646582 L389 272.7171479823743 L390 272.7181604561118 L391 272.71907624099646 L392 272.71990408737804 L393 272.72065200323846 L394 272.7213273122702 L395 272.7219367078799 L396 272.72248630335804 L397 272.7229816784484 L398 272.7234279225386 L399 272.7238296746829 " stroke = "blue" stroke-width = "4" fill = "none" /></svg>