<svg width="400" height="400" viewbox = "0 0 400 400"  xmlns="http://www.w3.org/2000/svg">

<!--
<json>
{
    "imgurl": "",
    "imgw": 2.983971328437751,
    "imgleft": -1.4873205904167783,
    "imgtop": -1.0519856642188752,
    "imgangle": 0,
    "svgwidth": 400,
    "svgheight": 400,
    "unit": 100,
    "x0": 615.5,
    "y0": 359,
    "x0rel": 0,
    "y0rel": 0,
    "glyph": "0330,0332,0336,0331,0332,0332,0336,0333,01101,01102,01103,01104,01105,01106,01107,01110,01111,01112,01113,01114,0331,0331,0332,0332,0332,0332,0332,0332,0332,0332,0332,0332,0332,0332,0332,01115,01116,01117,01120,01121,01122,01123,01124,01125,01126,01127,01130,0331,0331,0332,0332,0332,0332,01131,01132,",
    "table": []
}
</json>
-->
	<path d = "M25 150 L25 125 L38 125 L38 150 L25 150 Z" stroke = "white" stroke-width = "1" fill = "white" />	<path d = "M38 150 L37 125 L50 125 L43 138 L50 150 L38 150 Z" stroke = "blue" stroke-width = "1" fill = "blue" />	<path d = "M53 150 L53 125 L78 125 L71 137 L78 150 L66 150 L53 150 Z" stroke = "red" stroke-width = "1" fill = "red" />	<path d = "M81 125 L106 125 L106 130 L81 130 L81 125 Z" stroke = "blue" stroke-width = "1" fill = "blue" />	<path d = "M81 130 L106 130 L106 135 L81 135 L81 130 Z" stroke = "white" stroke-width = "1" fill = "white" />	<path d = "M81 135 L106 135 L106 140 L81 140 L81 135 Z" stroke = "red" stroke-width = "1" fill = "red" />	<path d = "M81 140 L106 140 L106 145 L81 145 L81 140 Z" stroke = "white" stroke-width = "1" fill = "white" />	<path d = "M81 145 L106 145 L106 150 L81 150 Z" stroke = "blue" stroke-width = "1" fill = "blue" />	<path d = "M109 150 L109 145 L134 145 L134 150 L109 150 Z" stroke = "yellow" stroke-width = "1" fill = "yellow" />	<path d = "M109 145 L134 145 L134 140 L134 135 L134 130 L109 130 L109 135 L109 140 L109 145 Z" stroke = "blue" stroke-width = "1" fill = "blue" />	<path d = "M109 130 L134 130 L134 125 L109 125 Z" stroke = "yellow" stroke-width = "1" fill = "yellow" />	<path d = "M137 150 L138 138 L150 138 L163 138 L162 150 L150 150 L137 150 Z" stroke = "red" stroke-width = "1" fill = "red" />	<path d = "M138 138 L138 125 L150 125 L163 125 L163 138 L150 138 L138 138 Z" stroke = "blue" stroke-width = "1" fill = "blue" />	<path d = "M191 150 L191 125 L166 125 L166 150 L191 150 Z" stroke = "white" stroke-width = "1" fill = "white" />	<path d = "M178 150 L166 138 L178 125 L191 138 L178 150 Z" stroke = "red" stroke-width = "1" fill = "red" />	<path d = "M194 150 L194 125 L199 125 L199 150 L194 150 Z" stroke = "yellow" stroke-width = "1" fill = "yellow" />	<path d = "M199 150 L199 125 L204 125 L204 150 L199 150 Z" stroke = "blue" stroke-width = "1" fill = "blue" />	<path d = "M204 150 L204 125 L209 125 L209 150 L204 150 Z" stroke = "yellow" stroke-width = "1" fill = "yellow" />	<path d = "M209 150 L209 125 L214 125 L214 150 L209 150 Z" stroke = "blue" stroke-width = "1" fill = "blue" />	<path d = "M214 150 L214 125 L219 125 L219 150 L214 150 Z" stroke = "yellow" stroke-width = "1" fill = "yellow" />	<path d = "M222 150 L222 125 L234 125 L234 150 L222 150 Z" stroke = "white" stroke-width = "1" fill = "white" />	<path d = "M234 150 L234 125 L247 125 L247 150 L234 150 Z" stroke = "red" stroke-width = "1" fill = "red" />	<path d = "M275 150 L275 125 L250 125 L250 150 L275 150 Z" stroke = "yellow" stroke-width = "1" fill = "yellow" />    <circle cx="263" cy = "138" r = "6.25" stroke = "black" stroke-width = "1" fill = "black" />
	<path d = "M278 150 L278 142 L303 142 L303 150 L278 150 Z" stroke = "blue" stroke-width = "1" fill = "blue" />	<path d = "M278 142 L278 133 L303 133 L303 142 L278 142 Z" stroke = "white" stroke-width = "1" fill = "white" />	<path d = "M278 133 L278 125 L303 125 L303 133 L278 133 Z" stroke = "blue" stroke-width = "1" fill = "blue" />	<path d = "M306 150 L306 125 L319 125 L319 150 L306 150 Z" stroke = "yellow" stroke-width = "1" fill = "yellow" />	<path d = "M319 150 L319 125 L331 125 L331 150 L319 150 Z" stroke = "blue" stroke-width = "1" fill = "blue" />	<path d = "M347 150 L347 137 L334 137 L334 150 L347 150 Z" stroke = "black" stroke-width = "1" fill = "black" />	<path d = "M359 137 L359 125 L347 125 L347 137 L359 137 Z" stroke = "black" stroke-width = "1" fill = "black" />	<path d = "M347 137 L347 125 L334 125 L334 137 L347 137 Z" stroke = "yellow" stroke-width = "1" fill = "yellow" />	<path d = "M359 150 L359 137 L347 137 L347 150 L359 150 Z" stroke = "yellow" stroke-width = "1" fill = "yellow" />	<path d = "M63 200 L63 175 L38 175 L38 200 L63 200 Z" stroke = "blue" stroke-width = "1" fill = "blue" />	<path d = "M63 200 L63 197 L59 194 L56 191 L53 188 L50 184 L47 181 L44 178 L41 175 L38 175 L38 178 L41 181 L44 184 L47 188 L50 191 L53 194 L56 197 L59 200 L63 200 Z" stroke = "white" stroke-width = "1" fill = "white" />	<path d = "M41 200 L44 197 L47 194 L50 191 L53 188 L56 184 L59 181 L63 178 L63 175 L59 175 L56 178 L53 181 L50 184 L47 188 L44 191 L41 194 L38 197 L38 200 L41 200 Z" stroke = "white" stroke-width = "1" fill = "white" />	<path d = "M72 200 L72 194 L66 194 L66 200 L72 200 Z" stroke = "white" stroke-width = "1" fill = "white" />	<path d = "M84 200 L84 194 L78 194 L78 200 L84 200 Z" stroke = "white" stroke-width = "1" fill = "white" />	<path d = "M91 194 L91 188 L84 188 L84 194 L91 194 Z" stroke = "white" stroke-width = "1" fill = "white" />	<path d = "M78 194 L78 188 L72 188 L72 194 L78 194 Z" stroke = "white" stroke-width = "1" fill = "white" />	<path d = "M72 188 L72 181 L66 181 L66 188 L72 188 Z" stroke = "white" stroke-width = "1" fill = "white" />	<path d = "M84 188 L84 181 L78 181 L78 188 L84 188 Z" stroke = "white" stroke-width = "1" fill = "white" />	<path d = "M91 181 L91 175 L84 175 L84 181 L91 181 Z" stroke = "white" stroke-width = "1" fill = "white" />	<path d = "M78 181 L78 175 L72 175 L72 181 L78 181 Z" stroke = "white" stroke-width = "1" fill = "white" />	<path d = "M72 181 L72 175 L66 175 L66 181 L72 181 Z" stroke = "blue" stroke-width = "1" fill = "blue" />	<path d = "M84 181 L84 175 L78 175 L78 181 L84 181 Z" stroke = "blue" stroke-width = "1" fill = "blue" />	<path d = "M78 188 L78 181 L72 181 L72 188 L78 188 Z" stroke = "blue" stroke-width = "1" fill = "blue" />	<path d = "M91 188 L91 181 L84 181 L84 188 L91 188 Z" stroke = "blue" stroke-width = "1" fill = "blue" />	<path d = "M84 194 L84 188 L78 188 L78 194 L84 194 Z" stroke = "blue" stroke-width = "1" fill = "blue" />	<path d = "M72 194 L72 188 L66 188 L66 194 L72 194 Z" stroke = "blue" stroke-width = "1" fill = "blue" />	<path d = "M78 200 L78 194 L72 194 L72 200 L78 200 Z" stroke = "blue" stroke-width = "1" fill = "blue" />	<path d = "M91 200 L91 194 L84 194 L84 200 L91 200 Z" stroke = "blue" stroke-width = "1" fill = "blue" />	<path d = "M94 200 L94 175 L119 200 L94 200 Z" stroke = "yellow" stroke-width = "1" fill = "yellow" />	<path d = "M119 200 L94 175 L119 175 L119 200 Z" stroke = "red" stroke-width = "1" fill = "red" />	<path d = "M147 200 L147 175 L122 175 L122 200 L147 200 Z" stroke = "blue" stroke-width = "1" fill = "blue" />	<path d = "M139 192 L139 183 L130 183 L130 192 L139 192 Z" stroke = "white" stroke-width = "1" fill = "white" />	<path d = "M175 200 L175 175 L150 175 L150 200 L175 200 Z" stroke = "yellow" stroke-width = "1" fill = "yellow" />	<path d = "M203 200 L203 175 L178 175 L178 200 L203 200 Z" stroke = "red" stroke-width = "1" fill = "red" />	<path d = "M193 200 L193 175 L188 175 L188 200 L193 200 Z" stroke = "yellow" stroke-width = "1" fill = "yellow" />	<path d = "M178 190 L203 190 L203 185 L178 185 L178 190 Z" stroke = "yellow" stroke-width = "1" fill = "yellow" />	<path d = "M231 200 L231 175 L206 175 L206 200 L231 200 Z" stroke = "white" stroke-width = "1" fill = "white" />	<path d = "M223 192 L223 183 L215 183 L215 192 L223 192 Z" stroke = "blue" stroke-width = "1" fill = "blue" />	<path d = "M234 200 L234 175 L243 175 L243 200 L234 200 Z" stroke = "red" stroke-width = "1" fill = "red" />	<path d = "M243 200 L243 175 L251 175 L251 200 L243 200 Z" stroke = "white" stroke-width = "1" fill = "white" />	<path d = "M251 200 L251 175 L259 175 L259 200 L251 200 Z" stroke = "blue" stroke-width = "1" fill = "blue" />	<path d = "M275 200 L275 188 L263 188 L263 200 L275 200 Z" stroke = "white" stroke-width = "1" fill = "white" />	<path d = "M288 188 L288 175 L275 175 L275 188 L288 188 Z" stroke = "white" stroke-width = "1" fill = "white" />	<path d = "M275 188 L275 175 L263 175 L263 188 L275 188 Z" stroke = "red" stroke-width = "1" fill = "red" />	<path d = "M288 200 L288 188 L275 188 L275 200 L288 200 Z" stroke = "red" stroke-width = "1" fill = "red" />	<path d = "M316 200 L316 175 L291 175 L291 200 L316 200 Z" stroke = "white" stroke-width = "1" fill = "white" />	<path d = "M316 200 L316 197 L313 194 L309 191 L306 188 L303 184 L300 181 L297 178 L294 175 L291 175 L291 178 L294 181 L297 184 L300 188 L303 191 L306 194 L309 197 L313 200 L316 200 Z" stroke = "red" stroke-width = "1" fill = "red" />	<path d = "M294 200 L297 197 L300 194 L303 191 L306 188 L309 184 L313 181 L316 178 L316 175 L313 175 L309 178 L306 181 L303 184 L300 188 L297 191 L294 194 L291 197 L291 200 L294 200 Z" stroke = "red" stroke-width = "1" fill = "red" />	<path d = "M344 200 L344 175 L319 175 L319 200 L344 200 Z" stroke = "blue" stroke-width = "1" fill = "blue" />	<path d = "M339 195 L339 180 L324 180 L324 195 L339 195 Z" stroke = "white" stroke-width = "1" fill = "white" />	<path d = "M334 190 L334 185 L329 185 L329 190 L334 190 Z" stroke = "red" stroke-width = "1" fill = "red" />	<path d = "M372 200 L372 175 L347 175 L347 200 L372 200 Z" stroke = "white" stroke-width = "1" fill = "white" />	<path d = "M362 200 L362 175 L357 175 L357 200 L362 200 Z" stroke = "blue" stroke-width = "1" fill = "blue" />	<path d = "M372 190 L347 190 L347 185 L372 185 L372 190 Z" stroke = "blue" stroke-width = "1" fill = "blue" />	<path d = "M275 250 L280 245 L285 240 L290 235 L295 230 L300 225 L300 230 L295 235 L290 240 L285 245 L280 250 L275 250 Z" stroke = "red" stroke-width = "1" fill = "red" />	<path d = "M275 250 L275 245 L280 240 L285 235 L290 230 L295 225 L300 225 L295 230 L290 235 L285 240 L280 245 L275 250 Z" stroke = "yellow" stroke-width = "1" fill = "yellow" />	<path d = "M275 245 L275 240 L280 235 L285 230 L290 225 L295 225 L290 230 L285 235 L280 240 L275 245 Z" stroke = "red" stroke-width = "1" fill = "red" />	<path d = "M275 240 L280 235 L285 230 L290 225 L285 225 L280 230 L275 235 L275 240 Z" stroke = "yellow" stroke-width = "1" fill = "yellow" />	<path d = "M275 235 L280 230 L285 225 L280 225 L275 230 L275 235 Z" stroke = "red" stroke-width = "1" fill = "red" />	<path d = "M275 230 L275 225 L280 225 L275 230 Z" stroke = "yellow" stroke-width = "1" fill = "yellow" />	<path d = "M300 230 L295 235 L290 240 L285 245 L280 250 L285 250 L290 245 L295 240 L300 235 L300 230 Z" stroke = "yellow" stroke-width = "1" fill = "yellow" />	<path d = "M300 235 L295 240 L290 245 L285 250 L290 250 L295 245 L300 240 L300 235 Z" stroke = "red" stroke-width = "1" fill = "red" />	<path d = "M300 240 L300 245 L295 250 L290 250 L295 245 L300 240 Z" stroke = "yellow" stroke-width = "1" fill = "yellow" />	<path d = "M300 245 L295 250 L300 250 L300 245 Z" stroke = "red" stroke-width = "1" fill = "red" />	<path d = "M303 250 L316 238 L303 225 L303 250 Z" stroke = "black" stroke-width = "1" fill = "black" />	<path d = "M303 250 L328 250 L316 238 L303 250 Z" stroke = "red" stroke-width = "1" fill = "red" />	<path d = "M316 238 L303 225 L328 225 L316 238 Z" stroke = "yellow" stroke-width = "1" fill = "yellow" />	<path d = "M316 238 L328 250 L328 225 L316 238 Z" stroke = "blue" stroke-width = "1" fill = "blue" /></svg>