<svg width="400" height="400" viewbox = "0 0 400 400"  xmlns="http://www.w3.org/2000/svg">

<!--
<json>
{
    "imgurl": "",
    "imgw": 2.983971328437751,
    "imgleft": -1.4873205904167783,
    "imgtop": -1.0519856642188752,
    "imgangle": 0,
    "svgwidth": 400,
    "svgheight": 400,
    "unit": 100,
    "x0": 615.5,
    "y0": 359,
    "x0rel": 0,
    "y0rel": 0,
    "glyph": "0330,0332,0332,0336,0333,01101,01102,01103,01104,01105,01106,0331,0332,0332,0332,0331,0332,0332,0332,0332,01107,01110,01111,01112,01113,01114,01115,0331,0332,0332,0332,0332,0332,0331,0332,0332,0332,01116,01117,01120,01121,01122,01123,01124,01125,01126,01127,01130,0331,0332,0332,0332,0332,0332,0332,0332,0332,0332,0331,0332,01131,0333,0333,01132,",
    "table": []
}
</json>
-->
	<path d = "M50 100 L50 50 L75 50 L75 100 L50 100 Z" stroke = "white" stroke-width = "1" fill = "white" />	<path d = "M75 100 L75 50 L100 50 L86 75 L100 100 L75 100 Z" stroke = "blue" stroke-width = "1" fill = "blue" />	<path d = "M106 100 L106 50 L156 50 L142 75 L156 100 L131 100 L106 100 Z" stroke = "red" stroke-width = "1" fill = "red" />	<path d = "M162 50 L212 50 L212 60 L162 60 L163 50 Z" stroke = "blue" stroke-width = "1" fill = "blue" />	<path d = "M162 60 L212 60 L212 70 L162 70 L162 60 Z" stroke = "white" stroke-width = "1" fill = "white" />	<path d = "M162 70 L212 70 L212 80 L162 80 L162 70 Z" stroke = "red" stroke-width = "1" fill = "red" />	<path d = "M162 80 L212 80 L212 90 L162 90 L162 80 Z" stroke = "white" stroke-width = "1" fill = "white" />	<path d = "M162 90 L212 90 L212 100 L162 100 Z" stroke = "blue" stroke-width = "1" fill = "blue" />	<path d = "M219 100 L219 90 L269 90 L269 100 L219 100 Z" stroke = "yellow" stroke-width = "1" fill = "yellow" />	<path d = "M219 90 L269 90 L269 80 L269 70 L269 60 L219 60 L219 70 L219 80 L219 90 Z" stroke = "blue" stroke-width = "1" fill = "blue" />	<path d = "M219 60 L269 60 L269 50 L219 50 Z" stroke = "yellow" stroke-width = "1" fill = "yellow" />	<path d = "M275 100 L275 75 L300 75 L325 75 L325 100 L300 100 L275 100 Z" stroke = "red" stroke-width = "1" fill = "red" />	<path d = "M275 75 L275 50 L300 50 L325 50 L325 75 L300 75 L275 75 Z" stroke = "blue" stroke-width = "1" fill = "blue" />	<path d = "M381 100 L381 50 L331 50 L331 100 L381 100 Z" stroke = "white" stroke-width = "1" fill = "white" />	<path d = "M356 100 L331 75 L356 50 L381 75 L356 100 Z" stroke = "red" stroke-width = "1" fill = "red" />	<path d = "M37 200 L37 150 L47 150 L47 200 L37 200 Z" stroke = "yellow" stroke-width = "1" fill = "yellow" />	<path d = "M47 200 L47 150 L57 150 L57 200 L47 200 Z" stroke = "blue" stroke-width = "1" fill = "blue" />	<path d = "M57 200 L57 150 L67 150 L67 200 L57 200 Z" stroke = "yellow" stroke-width = "1" fill = "yellow" />	<path d = "M67 200 L67 150 L77 150 L77 200 L67 200 Z" stroke = "blue" stroke-width = "1" fill = "blue" />	<path d = "M77 200 L77 150 L87 150 L87 200 L77 200 Z" stroke = "yellow" stroke-width = "1" fill = "yellow" />	<path d = "M94 200 L94 150 L119 150 L119 200 L94 200 Z" stroke = "white" stroke-width = "1" fill = "white" />	<path d = "M119 200 L119 150 L144 150 L144 200 L119 200 Z" stroke = "red" stroke-width = "1" fill = "red" />	<path d = "M200 200 L200 150 L150 150 L150 200 L200 200 Z" stroke = "yellow" stroke-width = "1" fill = "yellow" />    <circle cx="175" cy = "175" r = "12.5" stroke = "black" stroke-width = "1" fill = "black" />
	<path d = "M206 200 L206 183 L256 183 L256 200 L206 200 Z" stroke = "blue" stroke-width = "1" fill = "blue" />	<path d = "M206 183 L206 167 L256 167 L256 183 L206 183 Z" stroke = "white" stroke-width = "1" fill = "white" />	<path d = "M206 167 L206 150 L256 150 L256 167 L206 167 Z" stroke = "blue" stroke-width = "1" fill = "blue" />	<path d = "M262 200 L262 150 L287 150 L287 200 L262 200 Z" stroke = "yellow" stroke-width = "1" fill = "yellow" />	<path d = "M287 200 L287 150 L312 150 L312 200 L287 200 Z" stroke = "blue" stroke-width = "1" fill = "blue" />	<path d = "M344 200 L344 175 L319 175 L319 200 L344 200 Z" stroke = "black" stroke-width = "1" fill = "black" />	<path d = "M369 175 L369 150 L344 150 L344 175 L369 175 Z" stroke = "black" stroke-width = "1" fill = "black" />	<path d = "M344 175 L344 150 L319 150 L319 175 L344 175 Z" stroke = "yellow" stroke-width = "1" fill = "yellow" />	<path d = "M369 200 L369 175 L344 175 L344 200 L369 200 Z" stroke = "yellow" stroke-width = "1" fill = "yellow" />	<path d = "M425 200 L425 150 L375 150 L375 200 L425 200 Z" stroke = "blue" stroke-width = "1" fill = "blue" />	<path d = "M425 200 L425 194 L419 187 L412 181 L406 175 L400 169 L394 162 L387 156 L381 150 L375 150 L375 156 L381 162 L387 169 L394 175 L400 181 L406 187 L412 194 L419 200 L425 200 Z" stroke = "white" stroke-width = "1" fill = "white" />	<path d = "M381 200 L387 194 L394 187 L400 181 L406 175 L412 169 L419 162 L425 156 L425 150 L419 150 L412 156 L406 162 L400 169 L394 175 L387 181 L381 187 L375 194 L375 200 L381 200 Z" stroke = "white" stroke-width = "1" fill = "white" />	<path d = "M44 300 L44 287 L31 287 L31 300 L44 300 Z" stroke = "white" stroke-width = "1" fill = "white" />	<path d = "M69 300 L69 287 L56 287 L56 300 L69 300 Z" stroke = "white" stroke-width = "1" fill = "white" />	<path d = "M81 287 L81 275 L69 275 L69 287 L81 287 Z" stroke = "white" stroke-width = "1" fill = "white" />	<path d = "M56 287 L56 275 L44 275 L44 287 L56 287 Z" stroke = "white" stroke-width = "1" fill = "white" />	<path d = "M44 275 L44 262 L31 262 L31 275 L44 275 Z" stroke = "white" stroke-width = "1" fill = "white" />	<path d = "M69 275 L69 262 L56 262 L56 275 L69 275 Z" stroke = "white" stroke-width = "1" fill = "white" />	<path d = "M81 262 L81 250 L69 250 L69 262 L81 262 Z" stroke = "white" stroke-width = "1" fill = "white" />	<path d = "M56 262 L56 250 L44 250 L44 262 L56 262 Z" stroke = "white" stroke-width = "1" fill = "white" />	<path d = "M44 262 L44 250 L31 250 L31 262 L44 262 Z" stroke = "blue" stroke-width = "1" fill = "blue" />	<path d = "M69 262 L69 250 L56 250 L56 262 L69 262 Z" stroke = "blue" stroke-width = "1" fill = "blue" />	<path d = "M56 275 L56 262 L44 262 L44 275 L56 275 Z" stroke = "blue" stroke-width = "1" fill = "blue" />	<path d = "M81 275 L81 262 L69 262 L69 275 L81 275 Z" stroke = "blue" stroke-width = "1" fill = "blue" />	<path d = "M69 287 L69 275 L56 275 L56 287 L69 287 Z" stroke = "blue" stroke-width = "1" fill = "blue" />	<path d = "M44 287 L44 275 L31 275 L31 287 L44 287 Z" stroke = "blue" stroke-width = "1" fill = "blue" />	<path d = "M56 300 L56 287 L44 287 L44 300 L56 300 Z" stroke = "blue" stroke-width = "1" fill = "blue" />	<path d = "M81 300 L81 287 L69 287 L69 300 L81 300 Z" stroke = "blue" stroke-width = "1" fill = "blue" />	<path d = "M87 300 L87 250 L137 300 L87 300 Z" stroke = "yellow" stroke-width = "1" fill = "yellow" />	<path d = "M137 300 L87 250 L137 250 L137 300 Z" stroke = "red" stroke-width = "1" fill = "red" />	<path d = "M194 300 L194 250 L144 250 L144 300 L194 300 Z" stroke = "blue" stroke-width = "1" fill = "blue" />	<path d = "M177 283 L177 267 L160 267 L160 283 L177 283 Z" stroke = "white" stroke-width = "1" fill = "white" />	<path d = "M250 300 L250 250 L200 250 L200 300 L250 300 Z" stroke = "yellow" stroke-width = "1" fill = "yellow" />	<path d = "M306 300 L306 250 L256 250 L256 300 L306 300 Z" stroke = "red" stroke-width = "1" fill = "red" />	<path d = "M286 300 L286 250 L276 250 L276 300 L286 300 Z" stroke = "yellow" stroke-width = "1" fill = "yellow" />	<path d = "M256 280 L306 280 L306 270 L256 270 L256 280 Z" stroke = "yellow" stroke-width = "1" fill = "yellow" />	<path d = "M362 300 L362 250 L312 250 L312 300 L362 300 Z" stroke = "white" stroke-width = "1" fill = "white" />	<path d = "M346 283 L346 267 L329 267 L329 283 L346 283 Z" stroke = "blue" stroke-width = "1" fill = "blue" />	<path d = "M369 300 L369 250 L385 250 L385 300 L369 300 Z" stroke = "red" stroke-width = "1" fill = "red" />	<path d = "M385 300 L385 250 L402 250 L402 300 L385 300 Z" stroke = "white" stroke-width = "1" fill = "white" />	<path d = "M402 300 L402 250 L419 250 L419 300 L402 300 Z" stroke = "blue" stroke-width = "1" fill = "blue" />	<path d = "M450 300 L450 275 L425 275 L425 300 L450 300 Z" stroke = "white" stroke-width = "1" fill = "white" />	<path d = "M475 275 L475 250 L450 250 L450 275 L475 275 Z" stroke = "white" stroke-width = "1" fill = "white" />	<path d = "M450 275 L450 250 L425 250 L425 275 L450 275 Z" stroke = "red" stroke-width = "1" fill = "red" />	<path d = "M475 300 L475 275 L450 275 L450 300 L475 300 Z" stroke = "red" stroke-width = "1" fill = "red" />	<path d = "M531 300 L531 250 L481 250 L481 300 L531 300 Z" stroke = "white" stroke-width = "1" fill = "white" />	<path d = "M531 300 L531 294 L525 287 L519 281 L512 275 L506 269 L500 262 L494 256 L487 250 L481 250 L481 256 L487 262 L494 269 L500 275 L506 281 L512 287 L519 294 L525 300 L531 300 Z" stroke = "red" stroke-width = "1" fill = "red" />	<path d = "M487 300 L494 294 L500 287 L506 281 L512 275 L519 269 L525 262 L531 256 L531 250 L525 250 L519 256 L512 262 L506 269 L500 275 L494 281 L487 287 L481 294 L481 300 L487 300 Z" stroke = "red" stroke-width = "1" fill = "red" />	<path d = "M587 300 L587 250 L537 250 L537 300 L587 300 Z" stroke = "blue" stroke-width = "1" fill = "blue" />	<path d = "M577 290 L577 260 L547 260 L547 290 L577 290 Z" stroke = "white" stroke-width = "1" fill = "white" />	<path d = "M567 280 L567 270 L557 270 L557 280 L567 280 Z" stroke = "red" stroke-width = "1" fill = "red" />	<path d = "M644 300 L644 250 L594 250 L594 300 L644 300 Z" stroke = "white" stroke-width = "1" fill = "white" />	<path d = "M624 300 L624 250 L614 250 L614 300 L624 300 Z" stroke = "blue" stroke-width = "1" fill = "blue" />	<path d = "M644 280 L594 280 L594 270 L644 270 L644 280 Z" stroke = "blue" stroke-width = "1" fill = "blue" />	<path d = "M150 400 L160 390 L170 380 L180 370 L190 360 L200 350 L200 360 L190 370 L180 380 L170 390 L160 400 L150 400 Z" stroke = "red" stroke-width = "1" fill = "red" />	<path d = "M150 400 L150 390 L160 380 L170 370 L180 360 L190 350 L200 350 L190 360 L180 370 L170 380 L160 390 L150 400 Z" stroke = "yellow" stroke-width = "1" fill = "yellow" />	<path d = "M150 390 L150 380 L160 370 L170 360 L180 350 L190 350 L180 360 L170 370 L160 380 L150 390 Z" stroke = "red" stroke-width = "1" fill = "red" />	<path d = "M150 380 L160 370 L170 360 L180 350 L170 350 L160 360 L150 370 L150 380 Z" stroke = "yellow" stroke-width = "1" fill = "yellow" />	<path d = "M150 370 L160 360 L170 350 L160 350 L150 360 L150 370 Z" stroke = "red" stroke-width = "1" fill = "red" />	<path d = "M150 360 L150 350 L160 350 L150 360 Z" stroke = "yellow" stroke-width = "1" fill = "yellow" />	<path d = "M200 360 L190 370 L180 380 L170 390 L160 400 L170 400 L180 390 L190 380 L200 370 L200 360 Z" stroke = "yellow" stroke-width = "1" fill = "yellow" />	<path d = "M200 370 L190 380 L180 390 L170 400 L180 400 L190 390 L200 380 L200 370 Z" stroke = "red" stroke-width = "1" fill = "red" />	<path d = "M200 380 L200 390 L190 400 L180 400 L190 390 L200 380 Z" stroke = "yellow" stroke-width = "1" fill = "yellow" />L200 390 	<path d = "M200 390 L190 400 L200 400 L200 390 Z" stroke = "red" stroke-width = "1" fill = "red" />	<path d = "M306 400 L331 375 L306 350 L306 400 Z" stroke = "black" stroke-width = "1" fill = "black" />	<path d = "M306 400 L356 400 L331 375 L306 400 Z" stroke = "red" stroke-width = "1" fill = "red" />	<path d = "M331 375 L306 350 L356 350 L331 375 Z" stroke = "yellow" stroke-width = "1" fill = "yellow" />	<path d = "M331 375 L356 400 L356 350 L331 375 Z" stroke = "blue" stroke-width = "1" fill = "blue" /></svg>