<svg width="400" height="400" viewbox = "0 0 400 400"  xmlns="http://www.w3.org/2000/svg">

<!--
<json>
{
    "imgurl": "",
    "imgw": 4.743971328437736,
    "imgleft": -2.2873205904167726,
    "imgtop": -3.171985664218851,
    "imgangle": 0,
    "svgwidth": 400,
    "svgheight": 400,
    "unit": 100,
    "x0": 684,
    "y0": 399,
    "x0rel": 0,
    "y0rel": 0,
    "glyph": "0336,0304,0350,0334,0304,0313,0337,0350,0334,0310,0336,0362,0203,0335,0335,0335,0336,0203,0335,0335,0203,0363,0334,0334,0334,0337,0362,0203,0335,0335,0335,0336,0203,0335,0335,0203,0363,0334,0334,0334,0337,0362,0203,0335,0335,0335,0336,0203,0335,0335,0203,0363,0334,0334,0362,0203,0334,0334,0203,0334,0334,0334,0337,0203,0363,0330,0335,0335,0336,0333,0335,0335,0335,0335,0337,0313,0304,0305,0311,0335,0337,0362,0203,0334,0334,0350,0350,0334,0203,0363,0331,0335,0342,0334,0334,0330,0335,0335,0335,0335,0335,0335,0336,0313,0304,0334,0305,0311,0334,0337,0201,0335,0335,0362,0203,0335,0350,0335,0336,0304,0313,0350,0334,0310,0336,0203,0363,0334,0334,0362,0203,0334,0334,0334,0310,0337,0311,0305,0335,0337,0203,0363,0334,0334,0342,0350,0334,0330,0335,0335,0335,0336,0310,0304,0350,0336,0334,0330,0334,0334,0362,0203,0334,0334,0334,0337,0311,0305,0335,0337,0203,0363,0334,0334,0342,",
    "table": []
}
</json>
-->
	<path d = "M200 200 L129 200 L165 165 L200 200 Z" stroke = "black" stroke-width = "10" fill = "black" />	<path d = "M200 200 L200 129 L235 165 L200 200 Z" stroke = "black" stroke-width = "10" fill = "black" />	<path d = "M200 200 L271 200 L235 235 L200 200 Z" stroke = "black" stroke-width = "10" fill = "black" />	<path d = "M200 200 L165 235 L200 271 L200 200 Z" stroke = "black" stroke-width = "10" fill = "black" />	<path d = "M235 165 L200 56 L200 170 Z" stroke = "black" stroke-width = "10" fill = "black" />    <line x1="200" y1="56" x2="165" y2="165" style="stroke:black;stroke-width:10" />
    <line x1="235" y1="165" x2="344" y2="200" style="stroke:black;stroke-width:10" />
	<path d = "M344 200 L235 235 L200 200 Z" stroke = "black" stroke-width = "10" fill = "black" />	<path d = "M200 200 L165 235 L200 344 Z" stroke = "black" stroke-width = "10" fill = "black" />    <line x1="200" y1="344" x2="235" y2="235" style="stroke:black;stroke-width:10" />
	<path d = "M200 200 L165 165 L56 200 Z" stroke = "black" stroke-width = "10" fill = "black" />    <line x1="56" y1="200" x2="165" y2="235" style="stroke:black;stroke-width:10" />
</svg>