<svg width="400" height="400" viewbox = "0 0 400 400"  xmlns="http://www.w3.org/2000/svg">

<!--
<json>
{
    "imgurl": "",
    "imgw": 2.983971328437751,
    "imgleft": -1.4873205904167783,
    "imgtop": -1.0519856642188752,
    "imgangle": 0,
    "svgwidth": 400,
    "svgheight": 400,
    "unit": 100,
    "x0": 684,
    "y0": 399,
    "x0rel": 0,
    "y0rel": 0,
    "glyph": "0336,0336,0336,0336,0331,0331,0331,0337,0337,0337,0337,0230,0336,0230,0336,0230,0336,0230,0336,0230,0336,0230,",
    "table": []
}
</json>
-->
<path    d = "M200,219 C113,169 100,19 200,19" fill = "none" stroke-width = "4" stroke = "black" /><path    d = "M200,19 C300,19 287,169 200,219" fill = "none" stroke-width = "4" stroke = "black" /><path    d = "M200,219 C287,169 423,232 373,319" fill = "none" stroke-width = "4" stroke = "black" /><path    d = "M373,319 C323,405 200,319 200,219" fill = "none" stroke-width = "4" stroke = "black" /><path    d = "M200,219 C200,319 77,405 27,319" fill = "none" stroke-width = "4" stroke = "black" /><path    d = "M27,319 C-23,232 113,169 200,219" fill = "none" stroke-width = "4" stroke = "black" /><path    d = "M200,219 C157,194 150,119 200,119" fill = "none" stroke-width = "4" stroke = "black" /><path    d = "M200,119 C250,119 243,194 200,219" fill = "none" stroke-width = "4" stroke = "black" /><path    d = "M200,219 C243,194 312,225 287,269" fill = "none" stroke-width = "4" stroke = "black" /><path    d = "M287,269 C262,312 200,269 200,219" fill = "none" stroke-width = "4" stroke = "black" /><path    d = "M200,219 C200,269 138,312 113,269" fill = "none" stroke-width = "4" stroke = "black" /><path    d = "M113,269 C88,225 157,194 200,219" fill = "none" stroke-width = "4" stroke = "black" /><path    d = "M200,219 C178,206 175,169 200,169" fill = "none" stroke-width = "4" stroke = "black" /><path    d = "M200,169 C225,169 222,206 200,219" fill = "none" stroke-width = "4" stroke = "black" /><path    d = "M200,219 C222,206 256,222 243,244" fill = "none" stroke-width = "4" stroke = "black" /><path    d = "M243,244 C231,265 200,244 200,219" fill = "none" stroke-width = "4" stroke = "black" /><path    d = "M200,219 C200,244 169,265 157,244" fill = "none" stroke-width = "4" stroke = "black" /><path    d = "M157,244 C144,222 178,206 200,219" fill = "none" stroke-width = "4" stroke = "black" /><path    d = "M200,219 C189,213 188,194 200,194" fill = "none" stroke-width = "4" stroke = "black" /><path    d = "M200,194 C213,194 211,213 200,219" fill = "none" stroke-width = "4" stroke = "black" /><path    d = "M200,219 C211,213 228,220 222,231" fill = "none" stroke-width = "4" stroke = "black" /><path    d = "M222,231 C215,242 200,231 200,219" fill = "none" stroke-width = "4" stroke = "black" /><path    d = "M200,219 C200,231 185,242 178,231" fill = "none" stroke-width = "4" stroke = "black" /><path    d = "M178,231 C172,220 189,213 200,219" fill = "none" stroke-width = "4" stroke = "black" /><path    d = "M200,219 C195,216 194,206 200,206" fill = "none" stroke-width = "4" stroke = "black" /><path    d = "M200,206 C206,206 205,216 200,219" fill = "none" stroke-width = "4" stroke = "black" /><path    d = "M200,219 C205,216 214,220 211,225" fill = "none" stroke-width = "4" stroke = "black" /><path    d = "M211,225 C208,230 200,225 200,219" fill = "none" stroke-width = "4" stroke = "black" /><path    d = "M200,219 C200,225 192,230 189,225" fill = "none" stroke-width = "4" stroke = "black" /><path    d = "M189,225 C186,220 195,216 200,219" fill = "none" stroke-width = "4" stroke = "black" /><path    d = "M200,219 C197,217 197,213 200,213" fill = "none" stroke-width = "4" stroke = "black" /><path    d = "M200,213 C203,213 203,217 200,219" fill = "none" stroke-width = "4" stroke = "black" /><path    d = "M200,219 C203,217 207,219 205,222" fill = "none" stroke-width = "4" stroke = "black" /><path    d = "M205,222 C204,225 200,222 200,219" fill = "none" stroke-width = "4" stroke = "black" /><path    d = "M200,219 C200,222 196,225 195,222" fill = "none" stroke-width = "4" stroke = "black" /><path    d = "M195,222 C193,219 197,217 200,219" fill = "none" stroke-width = "4" stroke = "black" /></svg>