<svg width="400.00000000000006" height="400" viewbox = "0 0 400.00000000000006 400"  xmlns="http://www.w3.org/2000/svg">

<!--
<topfunctions>






function YofX(){
    X = plotparams.g*(x - plotparams.x0) - funcparams.X0;
    
    Y =  (1/Math.sqrt(2*Math.PI*funcparams.sigma*funcparams.sigma))*Math.exp(-(X - funcparams.mu)*(X - funcparams.mu)/(2*funcparams.sigma*funcparams.sigma));
    
    y = plotparams.y0 - plotparams.G*(Y - funcparams.Y0);
}





function plotfunction(){
/*

    currentStroke = "blue";
    currentLineWidth = 4;
    ctx.strokeStyle = currentStroke;
    ctx.lineWidth = currentLineWidth;
    ctx.beginPath();	
    x = 0;
    y = 0;
    t= 0;
    XYofT();
    currentSVG += "	<path d = \"M";
    currentSVG += Math.round(x).toString() + " ";
    currentSVG += Math.round(y).toString() + " ";
    for(t = 1;t < plotparams.duration;t++){
        ctx.moveTo(x,y);
        XYofT();
        ctx.lineTo(x,y);
        currentSVG += "L" + x + " " + y + " ";
    }
    ctx.stroke();
    currentSVG += "\""+ " stroke = \"" + currentStroke + "\" stroke-width = \"" + currentLineWidth.toString() + "\" fill = \"" + "none" + "\" "+"/>";


    /*plot one function:*/
    currentStroke = "blue";
    currentLineWidth = 4;
    ctx.strokeStyle = currentStroke;
    ctx.lineWidth = currentLineWidth;
    ctx.beginPath();	
    x = 0;
    YofX();
    currentSVG += "	<path d = \"M";
    currentSVG += Math.round(x).toString() + " ";
    currentSVG += Math.round(y).toString() + " ";
    for(x = 1;x < plotparams.plotwidth;x++){
        ctx.moveTo(x-1,y);
        YofX();
        ctx.lineTo(x,y);
        currentSVG += "L" + x + " " + y + " ";
    }
    ctx.stroke();
    currentSVG += "\""+ " stroke = \"" + currentStroke + "\" stroke-width = \"" + currentLineWidth.toString() + "\" fill = \"" + "none" + "\" "+"/>";
    /*finish plot one function*/
    

}




























</topfunctions>
-->

<!--
<imgurl>

</imgurl>
-->

<!--
<currentjson>
{
    "constants": {},
    "imgurl": "",
    "plotparams": {
        "G": 4739.708441801083,
        "g": 0.2357947691000001,
        "duration": 473.28153749590115,
        "plotwidth": 400.00000000000006,
        "plotheight": 400,
        "x0": 200,
        "y0": 272.7272727272727
    },
    "funcparams": {
        "mu": 0,
        "sigma": 10,
        "X0": 0,
        "Y0": 0
    }
}
</currentjson>
-->

<!--
<equation>




<h2>Gaussian</h2>
<p style="color:blue">
</p><p class="bigeq">
$$
Y = \frac{1}{\sqrt{2\pi\sigma^2}} e^{-\frac{(x - \mu)^2}{2\sigma^2}}$$
</p>
<p></p>

$$
X = g(x - x_0) - X_0
$$
$$
Y = f(X)
$$
    
$$
y = y_0 - G(Y - Y_0)
$$


<p>
    X and Y, and $X_0$ and $Y_0$ in physical units of the System. x and y and x0 and y0 in pixels.  G is in pixels per Y unit and g is in X units per pixel. 
</p>





</equation>
-->
	<path d = "M0 273 L1 272.72414267946385 L2 272.72377745024164 L3 272.72337177379603 L4 272.7229214328048 L5 272.72242180055196 L6 272.72186780454314 L7 272.7212538872415 L8 272.72057396373214 L9 272.71982137611246 L10 272.7189888443991 L11 272.7180684137287 L12 272.71705139762315 L13 272.7159283170793 L14 272.7146888352332 L15 272.7133216873391 L16 272.71181460579635 L17 272.7101542399441 L18 272.70832607034 L19 272.7063143172255 L20 272.70410184287755 L21 272.7016700475332 L22 272.6989987585739 L23 272.69606611264345 L24 272.6928484303734 L25 272.689320083383 L26 272.68545335321943 L27 272.68121828190067 L28 272.6765825137249 L29 272.6715111280101 L30 272.66596646243136 L31 272.65990792662757 L32 272.65329180575674 L33 272.6460710536873 L34 272.6381950755247 L35 272.6296094991865 L36 272.62025593575436 L37 272.610071728354 L38 272.5989896893325 L39 272.5869378255307 L40 272.57383905147776 L41 272.55961089036583 L42 272.5441651627005 L43 272.52740766256323 L44 272.50923782146515 L45 272.4895483598214 L46 272.4682249261284 L47 272.4451457239813 L48 272.4201811271354 L49 272.39319328287695 L50 272.36403570404434 L51 272.33255285011387 L52 272.29857969784734 L53 272.2619413020835 L54 272.2224523473457 L55 272.17991669103463 L56 272.134126899074 L57 272.0848637749812 L58 272.031895883446 L59 271.9749790696096 L60 271.91385597535765 L61 271.84825555405746 L62 271.7778925852968 L63 271.7024671913057 L64 271.6216643568748 L65 271.53515345471226 L66 271.442587778317 L67 271.34360408457775 L68 271.2378221484435 L69 271.1248443321429 L70 271.00425517156503 L71 270.8756209825437 L72 270.73848948991645 L73 270.5923894823546 L74 270.4368304960802 L75 270.27130253070266 L76 270.09527580051486 L77 269.90820052469127 L78 269.7095067599229 L79 269.4986042791076 L80 269.27488249978717 L81 269.0377104660823 L82 268.7864368879274 L83 268.52039024143727 L84 268.23887893425933 L85 267.94119153976555 L86 267.62659710392325 L87 267.29434552865064 L88 266.94366803540703 L89 266.5737777126956 L90 266.183870151058 L91 265.773124169023 L92 265.34070263332575 L93 264.8857533765514 L94 264.40741021516027 L95 263.9047940706376 L96 263.3770141962656 L97 262.82316951174494 L98 262.242350047598 L99 261.633638500959 L100 260.99611190401055 L101 260.3288434059444 L102 259.6309041689252 L103 258.9013653781056 L104 258.1393003652866 L105 257.34378684534397 L106 256.51390926403593 L107 255.64876125529 L108 254.74744820552323 L109 253.80908992199028 L110 252.8328234015775 L111 251.8178056958699 L112 250.76321686771533 L113 249.66826303389644 L114 248.53217948790262 L115 247.35423389616838 L116 246.13372956052064 L117 244.87000873895323 L118 243.5624560162293 L119 242.2105017152016 L120 240.81362533914452 L121 239.37135903480913 L122 237.88329106534994 L123 236.34906928173456 L124 234.76840458073397 L125 233.14107433711115 L126 231.46692579717975 L127 229.74587942049683 L128 227.97793215608812 L129 226.16316063928673 L130 224.30172429499552 L131 222.39386833296777 L132 220.43992662054143 L133 218.44032441816137 L134 216.3955809629874 L135 214.30631188591178 L136 212.17323144740718 L137 209.9971545777883 L138 207.77899870770847 L139 205.51978537502072 L140 203.22064159451588 L141 200.88280097750925 L142 198.5076045887783 L143 196.09650152896492 L144 193.65104923123536 L145 191.17291346174915 L146 188.66386801431594 L147 186.12579409051824 L148 183.5606793575442 L149 180.9706166770072 L150 178.35780249912375 L151 175.7245349177718 L152 173.07321138316078 L153 170.40632607009982 L154 167.72646690115283 L155 165.0363122253096 L156 162.33862715417752 L157 159.63625955910078 L158 156.93213573403773 L159 154.22925573046592 L160 151.53068837203142 L161 148.8395659581049 L162 146.1590786668486 L163 143.49246866982477 L164 140.84302397158044 L165 138.2140719890195 L166 135.6089728867123 L167 133.03111268558683 L168 130.48389616368922 L169 127.97073956888391 L170 125.49506316448299 L171 123.06028362983633 L172 120.66980633888068 L173 118.32701754052255 L174 116.03527646551822 L175 113.79790738520063 L176 111.6181916479917 L177 109.49935972011576 L178 107.44458325730002 L179 105.45696723449865 L180 103.53954216081618 L181 101.69525640681934 L182 99.92696867132227 L183 98.23744061450319 L184 96.62932968385849 L185 95.1051821590296 L186 93.6674264409425 L187 92.31836660998798 L188 91.06017627713985 L189 89.89489275096406 L190 88.82441154241886 L191 87.8504812281848 L192 86.97469869200418 L193 86.19850476215433 L194 85.52318026173447 L195 84.94984248692063 L196 84.47944212674224 L197 84.11276063626633 L198 83.85040807334877 L199 83.69282140733412 L200 83.6402633062682 L201 83.69282140733412 L202 83.85040807334877 L203 84.11276063626633 L204 84.47944212674224 L205 84.94984248692063 L206 85.52318026173447 L207 86.19850476215433 L208 86.97469869200418 L209 87.8504812281848 L210 88.82441154241886 L211 89.89489275096406 L212 91.06017627713985 L213 92.31836660998798 L214 93.6674264409425 L215 95.1051821590296 L216 96.62932968385849 L217 98.23744061450319 L218 99.92696867132227 L219 101.69525640681934 L220 103.53954216081618 L221 105.45696723449865 L222 107.44458325730002 L223 109.49935972011576 L224 111.6181916479917 L225 113.79790738520063 L226 116.03527646551822 L227 118.32701754052255 L228 120.66980633888068 L229 123.06028362983633 L230 125.49506316448299 L231 127.97073956888391 L232 130.48389616368922 L233 133.03111268558683 L234 135.6089728867123 L235 138.2140719890195 L236 140.84302397158044 L237 143.49246866982477 L238 146.1590786668486 L239 148.8395659581049 L240 151.53068837203142 L241 154.22925573046592 L242 156.93213573403773 L243 159.63625955910078 L244 162.33862715417752 L245 165.0363122253096 L246 167.72646690115283 L247 170.40632607009982 L248 173.07321138316078 L249 175.7245349177718 L250 178.35780249912375 L251 180.9706166770072 L252 183.5606793575442 L253 186.12579409051824 L254 188.66386801431594 L255 191.17291346174915 L256 193.65104923123536 L257 196.09650152896492 L258 198.5076045887783 L259 200.88280097750925 L260 203.22064159451588 L261 205.51978537502072 L262 207.77899870770847 L263 209.9971545777883 L264 212.17323144740718 L265 214.30631188591178 L266 216.3955809629874 L267 218.44032441816137 L268 220.43992662054143 L269 222.39386833296777 L270 224.30172429499552 L271 226.16316063928673 L272 227.97793215608812 L273 229.74587942049683 L274 231.46692579717975 L275 233.14107433711115 L276 234.76840458073397 L277 236.34906928173456 L278 237.88329106534994 L279 239.37135903480913 L280 240.81362533914452 L281 242.2105017152016 L282 243.5624560162293 L283 244.87000873895323 L284 246.13372956052064 L285 247.35423389616838 L286 248.53217948790262 L287 249.66826303389644 L288 250.76321686771533 L289 251.8178056958699 L290 252.8328234015775 L291 253.80908992199028 L292 254.74744820552323 L293 255.64876125529 L294 256.51390926403593 L295 257.34378684534397 L296 258.1393003652866 L297 258.9013653781056 L298 259.6309041689252 L299 260.3288434059444 L300 260.99611190401055 L301 261.633638500959 L302 262.242350047598 L303 262.82316951174494 L304 263.3770141962656 L305 263.9047940706376 L306 264.40741021516027 L307 264.8857533765514 L308 265.34070263332575 L309 265.773124169023 L310 266.183870151058 L311 266.5737777126956 L312 266.94366803540703 L313 267.29434552865064 L314 267.62659710392325 L315 267.94119153976555 L316 268.23887893425933 L317 268.52039024143727 L318 268.7864368879274 L319 269.0377104660823 L320 269.27488249978717 L321 269.4986042791076 L322 269.7095067599229 L323 269.90820052469127 L324 270.09527580051486 L325 270.27130253070266 L326 270.4368304960802 L327 270.5923894823546 L328 270.73848948991645 L329 270.8756209825437 L330 271.00425517156503 L331 271.1248443321429 L332 271.2378221484435 L333 271.34360408457775 L334 271.442587778317 L335 271.53515345471226 L336 271.6216643568748 L337 271.7024671913057 L338 271.7778925852968 L339 271.84825555405746 L340 271.91385597535765 L341 271.9749790696096 L342 272.031895883446 L343 272.0848637749812 L344 272.134126899074 L345 272.17991669103463 L346 272.2224523473457 L347 272.2619413020835 L348 272.29857969784734 L349 272.33255285011387 L350 272.36403570404434 L351 272.39319328287695 L352 272.4201811271354 L353 272.4451457239813 L354 272.4682249261284 L355 272.4895483598214 L356 272.50923782146515 L357 272.52740766256323 L358 272.5441651627005 L359 272.55961089036583 L360 272.57383905147776 L361 272.5869378255307 L362 272.5989896893325 L363 272.610071728354 L364 272.62025593575436 L365 272.6296094991865 L366 272.6381950755247 L367 272.6460710536873 L368 272.65329180575674 L369 272.65990792662757 L370 272.66596646243136 L371 272.6715111280101 L372 272.6765825137249 L373 272.68121828190067 L374 272.68545335321943 L375 272.689320083383 L376 272.6928484303734 L377 272.69606611264345 L378 272.6989987585739 L379 272.7016700475332 L380 272.70410184287755 L381 272.7063143172255 L382 272.70832607034 L383 272.7101542399441 L384 272.71181460579635 L385 272.7133216873391 L386 272.7146888352332 L387 272.7159283170793 L388 272.71705139762315 L389 272.7180684137287 L390 272.7189888443991 L391 272.71982137611246 L392 272.72057396373214 L393 272.7212538872415 L394 272.72186780454314 L395 272.72242180055196 L396 272.7229214328048 L397 272.72337177379603 L398 272.72377745024164 L399 272.72414267946385 L400 272.7244713030791 " stroke = "blue" stroke-width = "4" fill = "none" /></svg>