<svg width="1280" height="720" viewbox = "0 0 1280 720"  xmlns="http://www.w3.org/2000/svg">

<!--
<json>
{
    "imgurl": "",
    "imgw": 4.743971328437736,
    "imgleft": -2.2873205904167726,
    "imgtop": -3.171985664218851,
    "imgangle": 0,
    "svgwidth": 1280,
    "svgheight": 720,
    "unit": 82.64462809917354,
    "x0": 684,
    "y0": 399,
    "x0rel": 0,
    "y0rel": 0,
    "glyph": "0337,0332,0332,0332,0336,0330,0211,0211,0211,0246,",
    "table": []
}
</json>
-->
	<path d = "M268 277 L268 154 L144 154 L144 277 L268 277 Z" stroke = "black" stroke-width = "6" fill = "none" />	<path d = "M392 277 L392 154 L268 154 L268 277 L392 277 Z" stroke = "black" stroke-width = "6" fill = "none" />	<path d = "M515 277 L515 154 L392 154 L392 277 L515 277 Z" stroke = "black" stroke-width = "6" fill = "none" />	<path d = "M639 277 L639 154 L515 154 L515 277 L639 277 Z" stroke = "black" stroke-width = "6" fill = "none" />	<path d = "M763 277 L763 154 L639 154 L639 277 L763 277 Z" stroke = "black" stroke-width = "6" fill = "none" />	<path d = "M887 277 L887 154 L763 154 L763 277 L887 277 Z" stroke = "black" stroke-width = "6" fill = "none" />	<path d = "M1011 277 L1011 154 L887 154 L887 277 L1011 277 Z" stroke = "black" stroke-width = "6" fill = "none" />	<path d = "M1134 277 L1134 154 L1011 154 L1011 277 L1134 277 Z" stroke = "black" stroke-width = "6" fill = "none" />    <text x="175" y = "262" fill = "black" font-size = "61.8874461251505px" font-family = "arial">Q</text>
    <text x="299" y = "262" fill = "black" font-size = "61.8874461251505px" font-family = "arial">W</text>
    <text x="423" y = "262" fill = "black" font-size = "61.8874461251505px" font-family = "arial">E</text>
    <text x="546" y = "262" fill = "black" font-size = "61.8874461251505px" font-family = "arial">R</text>
    <text x="670" y = "262" fill = "black" font-size = "61.8874461251505px" font-family = "arial">T</text>
    <text x="794" y = "262" fill = "black" font-size = "61.8874461251505px" font-family = "arial">Y</text>
    <text x="918" y = "262" fill = "black" font-size = "61.8874461251505px" font-family = "arial">U</text>
    <text x="1042" y = "262" fill = "black" font-size = "61.8874461251505px" font-family = "arial">I</text>
    <text x="160" y = "200" fill = "black" font-size = "30.94372306257525px" font-family = "arial">0220</text>
    <text x="283" y = "200" fill = "black" font-size = "30.94372306257525px" font-family = "arial">0221</text>
    <text x="407" y = "200" fill = "black" font-size = "30.94372306257525px" font-family = "arial">0222</text>
    <text x="531" y = "200" fill = "black" font-size = "30.94372306257525px" font-family = "arial">0223</text>
    <text x="655" y = "200" fill = "black" font-size = "30.94372306257525px" font-family = "arial">0224</text>
    <text x="778" y = "200" fill = "black" font-size = "30.94372306257525px" font-family = "arial">0225</text>
    <text x="902" y = "200" fill = "black" font-size = "30.94372306257525px" font-family = "arial">0226</text>
    <text x="1026" y = "200" fill = "black" font-size = "30.94372306257525px" font-family = "arial">0227</text>
	<path d = "M299 401 L299 277 L175 277 L175 401 L299 401 Z" stroke = "black" stroke-width = "6" fill = "none" />	<path d = "M423 401 L423 277 L299 277 L299 401 L423 401 Z" stroke = "black" stroke-width = "6" fill = "none" />	<path d = "M546 401 L546 277 L423 277 L423 401 L546 401 Z" stroke = "black" stroke-width = "6" fill = "none" />	<path d = "M670 401 L670 277 L546 277 L546 401 L670 401 Z" stroke = "black" stroke-width = "6" fill = "none" />	<path d = "M794 401 L794 277 L670 277 L670 401 L794 401 Z" stroke = "black" stroke-width = "6" fill = "none" />	<path d = "M918 401 L918 277 L794 277 L794 401 L918 401 Z" stroke = "black" stroke-width = "6" fill = "none" />	<path d = "M1042 401 L1042 277 L918 277 L918 401 L1042 401 Z" stroke = "black" stroke-width = "6" fill = "none" />	<path d = "M1165 401 L1165 277 L1042 277 L1042 401 L1165 401 Z" stroke = "black" stroke-width = "6" fill = "none" />    <text x="206" y = "386" fill = "black" font-size = "61.8874461251505px" font-family = "arial">A</text>
    <text x="330" y = "386" fill = "black" font-size = "61.8874461251505px" font-family = "arial">S</text>
    <text x="454" y = "386" fill = "black" font-size = "61.8874461251505px" font-family = "arial">D</text>
    <text x="577" y = "386" fill = "black" font-size = "61.8874461251505px" font-family = "arial">F</text>
    <text x="701" y = "386" fill = "black" font-size = "61.8874461251505px" font-family = "arial">G</text>
    <text x="825" y = "386" fill = "black" font-size = "61.8874461251505px" font-family = "arial">H</text>
    <text x="949" y = "386" fill = "black" font-size = "61.8874461251505px" font-family = "arial">J</text>
    <text x="1072" y = "386" fill = "black" font-size = "61.8874461251505px" font-family = "arial">K</text>
    <text x="191" y = "324" fill = "black" font-size = "30.94372306257525px" font-family = "arial">0230</text>
    <text x="314" y = "324" fill = "black" font-size = "30.94372306257525px" font-family = "arial">0231</text>
    <text x="438" y = "324" fill = "black" font-size = "30.94372306257525px" font-family = "arial">0232</text>
    <text x="562" y = "324" fill = "black" font-size = "30.94372306257525px" font-family = "arial">0233</text>
    <text x="686" y = "324" fill = "black" font-size = "30.94372306257525px" font-family = "arial">0234</text>
    <text x="809" y = "324" fill = "black" font-size = "30.94372306257525px" font-family = "arial">0235</text>
    <text x="933" y = "324" fill = "black" font-size = "30.94372306257525px" font-family = "arial">0236</text>
    <text x="1057" y = "324" fill = "black" font-size = "30.94372306257525px" font-family = "arial">0237</text>
	<path d = "M361 525 L361 401 L237 401 L237 525 L361 525 Z" stroke = "black" stroke-width = "6" fill = "none" />	<path d = "M485 525 L485 401 L361 401 L361 525 L485 525 Z" stroke = "black" stroke-width = "6" fill = "none" />	<path d = "M608 525 L608 401 L485 401 L485 525 L608 525 Z" stroke = "black" stroke-width = "6" fill = "none" />	<path d = "M732 525 L732 401 L608 401 L608 525 L732 525 Z" stroke = "black" stroke-width = "6" fill = "none" />	<path d = "M856 525 L856 401 L732 401 L732 525 L856 525 Z" stroke = "black" stroke-width = "6" fill = "none" />	<path d = "M980 525 L980 401 L856 401 L856 525 L980 525 Z" stroke = "black" stroke-width = "6" fill = "none" />	<path d = "M1103 525 L1103 401 L980 401 L980 525 L1103 525 Z" stroke = "black" stroke-width = "6" fill = "none" />	<path d = "M1227 525 L1227 401 L1103 401 L1103 525 L1227 525 Z" stroke = "black" stroke-width = "6" fill = "none" />    <text x="268" y = "509" fill = "black" font-size = "61.8874461251505px" font-family = "arial">Z</text>
    <text x="392" y = "509" fill = "black" font-size = "61.8874461251505px" font-family = "arial">X</text>
    <text x="515" y = "509" fill = "black" font-size = "61.8874461251505px" font-family = "arial">C</text>
    <text x="639" y = "509" fill = "black" font-size = "61.8874461251505px" font-family = "arial">V</text>
    <text x="763" y = "509" fill = "black" font-size = "61.8874461251505px" font-family = "arial">B</text>
    <text x="887" y = "509" fill = "black" font-size = "61.8874461251505px" font-family = "arial">N</text>
    <text x="1011" y = "509" fill = "black" font-size = "61.8874461251505px" font-family = "arial">M</text>
    <text x="1134" y = "509" fill = "black" font-size = "61.8874461251505px" font-family = "arial">&lt;</text>
    <text x="252" y = "448" fill = "black" font-size = "30.94372306257525px" font-family = "arial">0240</text>
    <text x="376" y = "448" fill = "black" font-size = "30.94372306257525px" font-family = "arial">0241</text>
    <text x="500" y = "448" fill = "black" font-size = "30.94372306257525px" font-family = "arial">0242</text>
    <text x="624" y = "448" fill = "black" font-size = "30.94372306257525px" font-family = "arial">0243</text>
    <text x="748" y = "448" fill = "black" font-size = "30.94372306257525px" font-family = "arial">0244</text>
    <text x="871" y = "448" fill = "black" font-size = "30.94372306257525px" font-family = "arial">0245</text>
    <text x="995" y = "448" fill = "black" font-size = "30.94372306257525px" font-family = "arial">0246</text>
    <text x="1119" y = "448" fill = "black" font-size = "30.94372306257525px" font-family = "arial">0247</text>
</svg>