<svg width="1280" height="720" viewbox = "0 0 1280 720"  xmlns="http://www.w3.org/2000/svg">

<!--
<json>
{
    "imgurl": "",
    "imgw": 4.743971328437736,
    "imgleft": -2.2873205904167726,
    "imgtop": -3.171985664218851,
    "imgangle": 0,
    "svgwidth": 1280,
    "svgheight": 720,
    "unit": 90.9090909090909,
    "x0": 684,
    "y0": 399,
    "x0rel": 0,
    "y0rel": 0,
    "glyph": "0337,0225,",
    "table": []
}
</json>
-->
<circle cx="549" cy = "269" r = "6" stroke = "black" stroke-width = "6" fill = "black" />
    <circle cx="549" cy = "269" r = "181.8181818181818" stroke = "black" stroke-width = "6" fill = "none" />
<circle cx="731" cy = "269" r = "6" stroke = "black" stroke-width = "6" fill = "black" />
    <circle cx="731" cy = "269" r = "181.8181818181818" stroke = "black" stroke-width = "6" fill = "none" />
	<path d = "M504 633 L504 542 L413 542 L413 633 L504 633 Z" stroke = "black" stroke-width = "6" fill = "none" /><circle cx="458" cy = "587" r = "6" stroke = "black" stroke-width = "6" fill = "black" />
	<path d = "M595 633 L595 542 L504 542 L504 633 L595 633 Z" stroke = "black" stroke-width = "6" fill = "none" />    <circle cx="549" cy = "587" r = "45.45454545454545" stroke = "black" stroke-width = "6" fill = "none" />
<circle cx="549" cy = "587" r = "6" stroke = "black" stroke-width = "6" fill = "black" />
	<path d = "M685 633 L685 542 L595 542 L595 633 L685 633 Z" stroke = "black" stroke-width = "6" fill = "none" />	<path d = "M617 599 L617 576 L640 576 L640 565 L651 576 L663 587 L651 599 L640 610 L640 599 L617 599 Z" stroke = "black" stroke-width = "6" fill = "none" />	<path d = "M776 633 L776 542 L685 542 L685 633 L776 633 Z" stroke = "black" stroke-width = "6" fill = "none" /><circle cx="731" cy = "587" r = "6" stroke = "black" stroke-width = "6" fill = "black" />
	<path d = "M867 633 L867 542 L776 542 L776 633 L867 633 Z" stroke = "black" stroke-width = "6" fill = "none" />    <circle cx="822" cy = "587" r = "45.45454545454546" stroke = "black" stroke-width = "6" fill = "none" />
<circle cx="822" cy = "587" r = "6" stroke = "black" stroke-width = "6" fill = "black" />
</svg>