<svg width="1280" height="720" viewbox = "0 0 1280 720"  xmlns="http://www.w3.org/2000/svg">

<!--
<json>
{
    "imgurl": "",
    "imgw": 4.743971328437736,
    "imgleft": -2.2873205904167726,
    "imgtop": -3.171985664218851,
    "imgangle": 0,
    "svgwidth": 1280,
    "svgheight": 720,
    "unit": 75.13148009015777,
    "x0": 684,
    "y0": 399,
    "x0rel": 0,
    "y0rel": 0,
    "glyph": "0337,0233,",
    "table": []
}
</json>
-->
	<path d = "M490 210 L490 59 L339 59 L339 210 L490 210 Z" stroke = "black" stroke-width = "6" fill = "none" />	<path d = "M415 135 L377 135 L415 97 L452 135 L415 135 " stroke = "black" stroke-width = "6" fill = "none" />	<path d = "M640 210 L640 59 L490 59 L490 210 L640 210 Z" stroke = "black" stroke-width = "6" fill = "none" />	<path d = "M565 135 L602 135 L565 172 L527 135 L565 135 " stroke = "black" stroke-width = "6" fill = "none" />	<path d = "M790 210 L790 59 L640 59 L640 210 L790 210 Z" stroke = "black" stroke-width = "6" fill = "none" />	<path d = "M715 135 L715 172 L678 135 L715 97 L715 135 " stroke = "black" stroke-width = "6" fill = "none" />	<path d = "M941 210 L941 59 L790 59 L790 210 L941 210 Z" stroke = "black" stroke-width = "6" fill = "none" />	<path d = "M865 135 L865 97 L903 135 L865 172 L865 135 " stroke = "black" stroke-width = "6" fill = "none" />	<path d = "M640 510 L640 360 L490 360 L490 510 L640 510 Z" stroke = "black" stroke-width = "6" fill = "none" />	<path d = "M527 435 L527 398 L565 435 L527 473 L527 435 " stroke = "black" stroke-width = "6" fill = "none" />	<path d = "M565 435 L602 398 L602 435 L602 473 L565 435 " stroke = "black" stroke-width = "6" fill = "none" />	<path d = "M790 510 L790 360 L640 360 L640 510 L790 510 Z" stroke = "black" stroke-width = "6" fill = "none" />	<path d = "M678 435 L678 473 L640 435 L678 398 L678 435 " stroke = "black" stroke-width = "6" fill = "none" />	<path d = "M790 435 L753 473 L753 435 L753 398 L790 435 " stroke = "black" stroke-width = "6" fill = "none" />    <text x="377" y = "285" fill = "black" font-size = "75.13148009015777px" font-family = "arial">n</text>
    <text x="527" y = "285" fill = "black" font-size = "75.13148009015777px" font-family = "arial">m</text>
    <text x="678" y = "285" fill = "black" font-size = "75.13148009015777px" font-family = "arial">,</text>
    <text x="828" y = "285" fill = "black" font-size = "75.13148009015777px" font-family = "arial">.</text>
    <text x="527" y = "585" fill = "black" font-size = "75.13148009015777px" font-family = "arial">l</text>
    <text x="678" y = "585" fill = "black" font-size = "75.13148009015777px" font-family = "arial">;</text>
</svg>