<svg width="1280" height="720" viewbox = "0 0 1280 720"  xmlns="http://www.w3.org/2000/svg">

<!--
<json>
{
    "imgurl": "",
    "imgw": 4.743971328437736,
    "imgleft": -2.2873205904167726,
    "imgtop": -3.171985664218851,
    "imgangle": 0,
    "svgwidth": 1280,
    "svgheight": 720,
    "unit": 75.13148009015777,
    "x0": 684,
    "y0": 399,
    "x0rel": 0,
    "y0rel": 0,
    "glyph": "0337,0226,",
    "table": []
}
</json>
-->
	<path d = "M565 247 L565 97 L415 97 L415 247 L565 247 Z" stroke = "black" stroke-width = "6" fill = "none" />    <circle cx="490" cy = "172" r = "75.13148009015777" stroke = "black" stroke-width = "6" fill = "none" />
    <line x1="490" y1="172" x2="490" y2="97" style="stroke:black;stroke-width:6" />
    <line x1="490" y1="172" x2="565" y2="172" style="stroke:black;stroke-width:6" />
    <line x1="490" y1="172" x2="490" y2="247" style="stroke:black;stroke-width:6" />
    <line x1="490" y1="172" x2="415" y2="172" style="stroke:black;stroke-width:6" />
    <circle cx="463" cy = "146" r = "18.78287002253944" stroke = "black" stroke-width = "6" fill = "none" />
    <circle cx="516" cy = "146" r = "18.78287002253944" stroke = "black" stroke-width = "6" fill = "none" />
    <circle cx="516" cy = "199" r = "18.78287002253944" stroke = "black" stroke-width = "6" fill = "none" />
    <circle cx="463" cy = "199" r = "18.78287002253944" stroke = "black" stroke-width = "6" fill = "none" />
	<path d = "M715 247 L715 97 L565 97 L565 247 L715 247 Z" stroke = "black" stroke-width = "6" fill = "none" />    <line x1="640" y1="172" x2="640" y2="97" style="stroke:black;stroke-width:6" />
    <line x1="640" y1="172" x2="711" y2="149" style="stroke:black;stroke-width:6" />
    <line x1="640" y1="172" x2="684" y2="233" style="stroke:black;stroke-width:6" />
    <line x1="640" y1="172" x2="596" y2="233" style="stroke:black;stroke-width:6" />
    <line x1="640" y1="172" x2="569" y2="149" style="stroke:black;stroke-width:6" />
    <circle cx="640" cy = "172" r = "75.13148009015777" stroke = "black" stroke-width = "6" fill = "none" />
    <circle cx="662" cy = "142" r = "9.39143501126972" stroke = "black" stroke-width = "6" fill = "none" />
    <circle cx="676" cy = "184" r = "9.39143501126972" stroke = "black" stroke-width = "6" fill = "none" />
    <circle cx="640" cy = "210" r = "9.39143501126972" stroke = "black" stroke-width = "6" fill = "none" />
    <circle cx="604" cy = "184" r = "9.39143501126972" stroke = "black" stroke-width = "6" fill = "none" />
    <circle cx="618" cy = "142" r = "9.39143501126972" stroke = "black" stroke-width = "6" fill = "none" />
	<path d = "M865 247 L865 97 L715 97 L715 247 L865 247 Z" stroke = "black" stroke-width = "6" fill = "none" />    <line x1="790" y1="172" x2="790" y2="97" style="stroke:black;stroke-width:6" />
    <line x1="790" y1="172" x2="855" y2="135" style="stroke:black;stroke-width:6" />
    <line x1="790" y1="172" x2="855" y2="210" style="stroke:black;stroke-width:6" />
    <line x1="790" y1="172" x2="790" y2="247" style="stroke:black;stroke-width:6" />
    <line x1="790" y1="172" x2="725" y2="210" style="stroke:black;stroke-width:6" />
    <circle cx="790" cy = "172" r = "75.13148009015777" stroke = "black" stroke-width = "6" fill = "none" />
    <circle cx="771" cy = "140" r = "9.39143501126972" stroke = "black" stroke-width = "6" fill = "none" />
    <circle cx="809" cy = "140" r = "9.39143501126972" stroke = "black" stroke-width = "6" fill = "none" />
    <circle cx="828" cy = "172" r = "9.39143501126972" stroke = "black" stroke-width = "6" fill = "none" />
    <circle cx="809" cy = "205" r = "9.39143501126972" stroke = "black" stroke-width = "6" fill = "none" />
    <circle cx="771" cy = "205" r = "9.39143501126972" stroke = "black" stroke-width = "6" fill = "none" />
    <line x1="790" y1="172" x2="725" y2="135" style="stroke:black;stroke-width:6" />
    <circle cx="753" cy = "172" r = "9.39143501126972" stroke = "black" stroke-width = "6" fill = "none" />
	<path d = "M490 548 L490 398 L339 398 L339 548 L490 548 Z" stroke = "black" stroke-width = "6" fill = "none" />	<path d = "M468 420 L415 473 L468 526 " stroke = "black" stroke-width = "6" fill = "none" />    <line x1="415" y1="473" x2="433" y2="473" style="stroke:black;stroke-width:6" />
    <line x1="452" y1="473" x2="471" y2="473" style="stroke:black;stroke-width:6" />
	<path d = "M640 548 L640 398 L490 398 L490 548 L640 548 Z" stroke = "black" stroke-width = "6" fill = "none" />	<path d = "M618 526 L565 473 L578 459 " stroke = "black" stroke-width = "6" fill = "none" />    <line x1="591" y1="446" x2="605" y2="433" style="stroke:black;stroke-width:6" />
    <line x1="618" y1="420" x2="631" y2="406" style="stroke:black;stroke-width:6" />
    <line x1="565" y1="473" x2="640" y2="473" style="stroke:black;stroke-width:6" />
	<path d = "M790 548 L790 398 L640 398 L640 548 L790 548 Z" stroke = "black" stroke-width = "6" fill = "none" />    <line x1="715" y1="473" x2="768" y2="420" style="stroke:black;stroke-width:6" />
    <line x1="715" y1="473" x2="733" y2="468" style="stroke:black;stroke-width:6" />
    <line x1="751" y1="463" x2="770" y2="458" style="stroke:black;stroke-width:6" />
    <line x1="715" y1="473" x2="733" y2="478" style="stroke:black;stroke-width:6" />
    <line x1="751" y1="482" x2="770" y2="487" style="stroke:black;stroke-width:6" />
    <line x1="715" y1="473" x2="768" y2="526" style="stroke:black;stroke-width:6" />
	<path d = "M941 548 L941 398 L790 398 L790 548 L941 548 Z" stroke = "black" stroke-width = "6" fill = "none" />    <line x1="865" y1="473" x2="938" y2="453" style="stroke:black;stroke-width:6" />
    <line x1="865" y1="473" x2="938" y2="492" style="stroke:black;stroke-width:6" />
    <line x1="865" y1="473" x2="879" y2="486" style="stroke:black;stroke-width:6" />
    <line x1="892" y1="499" x2="905" y2="513" style="stroke:black;stroke-width:6" />
    <line x1="865" y1="473" x2="879" y2="459" style="stroke:black;stroke-width:6" />
    <line x1="892" y1="446" x2="905" y2="433" style="stroke:black;stroke-width:6" />
    <text x="452" y = "322" fill = "black" font-size = "75.13148009015777px" font-family = "arial">`</text>
    <text x="602" y = "322" fill = "black" font-size = "75.13148009015777px" font-family = "arial">1</text>
    <text x="753" y = "322" fill = "black" font-size = "75.13148009015777px" font-family = "arial">2</text>
    <text x="377" y = "623" fill = "black" font-size = "75.13148009015777px" font-family = "arial">3</text>
    <text x="527" y = "623" fill = "black" font-size = "75.13148009015777px" font-family = "arial">4</text>
    <text x="678" y = "623" fill = "black" font-size = "75.13148009015777px" font-family = "arial">5</text>
    <text x="828" y = "623" fill = "black" font-size = "75.13148009015777px" font-family = "arial">6</text>
</svg>