<svg width="1280" height="720" viewbox = "0 0 1280 720"  xmlns="http://www.w3.org/2000/svg">

<!--
<json>
{
    "imgurl": "",
    "imgw": 4.743971328437736,
    "imgleft": -2.2873205904167726,
    "imgtop": -3.171985664218851,
    "imgangle": 0,
    "svgwidth": 1280,
    "svgheight": 720,
    "unit": 68.30134553650706,
    "x0": 684,
    "y0": 399,
    "x0rel": 0,
    "y0rel": 0,
    "glyph": "0337,0230,",
    "table": []
}
</json>
-->
	<path d = "M691 155 L691 36 L572 36 L572 155 L691 155 Z" stroke = "black" stroke-width = "6" fill = "none" /><circle cx="602" cy = "125" r = "6" stroke = "black" stroke-width = "6" fill = "black" />
	<path d = "M602 125 L602 66 L661 66 " stroke = "black" stroke-width = "6" fill = "none" />	<path d = "M640 44 L661 66 L640 87 " stroke = "black" stroke-width = "6" fill = "none" />    <line x1="333" y1="394" x2="354" y2="373" style="stroke:black;stroke-width:6" />
    <line x1="363" y1="394" x2="384" y2="373" style="stroke:black;stroke-width:6" />
    <line x1="393" y1="394" x2="414" y2="373" style="stroke:black;stroke-width:6" />
    <line x1="422" y1="394" x2="444" y2="373" style="stroke:black;stroke-width:6" />
	<path d = "M452 394 L452 274 L333 274 L333 394 L452 394 Z" stroke = "black" stroke-width = "6" fill = "none" />    <line x1="363" y1="334" x2="422" y2="334" style="stroke:black;stroke-width:6" />
    <line x1="422" y1="334" x2="412" y2="345" style="stroke:black;stroke-width:6" />
    <line x1="422" y1="334" x2="412" y2="324" style="stroke:black;stroke-width:6" />
	<path d = "M572 394 L572 274 L452 274 L452 394 L572 394 Z" stroke = "black" stroke-width = "6" fill = "none" />    <line x1="482" y1="364" x2="542" y2="364" style="stroke:black;stroke-width:6" />
<circle cx="482" cy = "364" r = "6" stroke = "black" stroke-width = "6" fill = "black" />
<path    d = "M482,364 C542,364 482,304 542,304" fill = "none" stroke-width = "6" stroke = "black" />    <line x1="452" y1="394" x2="473" y2="373" style="stroke:black;stroke-width:6" />
    <line x1="482" y1="394" x2="503" y2="373" style="stroke:black;stroke-width:6" />
    <line x1="512" y1="394" x2="533" y2="373" style="stroke:black;stroke-width:6" />
    <line x1="542" y1="394" x2="563" y2="373" style="stroke:black;stroke-width:6" />
	<path d = "M691 394 L691 274 L572 274 L572 394 L691 394 Z" stroke = "black" stroke-width = "6" fill = "none" /><path    d = "M602,364 C661,364 602,304 661,304" fill = "none" stroke-width = "6" stroke = "black" /><circle cx="661" cy = "304" r = "6" stroke = "black" stroke-width = "6" fill = "black" />
    <line x1="661" y1="304" x2="602" y2="304" style="stroke:black;stroke-width:6" />
    <line x1="572" y1="394" x2="593" y2="373" style="stroke:black;stroke-width:6" />
    <line x1="602" y1="394" x2="623" y2="373" style="stroke:black;stroke-width:6" />
    <line x1="631" y1="394" x2="653" y2="373" style="stroke:black;stroke-width:6" />
    <line x1="661" y1="394" x2="682" y2="373" style="stroke:black;stroke-width:6" />
    <line x1="691" y1="394" x2="712" y2="373" style="stroke:black;stroke-width:6" />
    <line x1="721" y1="394" x2="742" y2="373" style="stroke:black;stroke-width:6" />
    <line x1="751" y1="394" x2="772" y2="373" style="stroke:black;stroke-width:6" />
    <line x1="781" y1="394" x2="802" y2="373" style="stroke:black;stroke-width:6" />
	<path d = "M810 394 L810 274 L691 274 L691 394 L810 394 Z" stroke = "black" stroke-width = "6" fill = "none" />  <path d="M691.093784426971 393.88622331743505           A119.39512996347818 119.39512996347818 0 0 1 810.4889143904493 274.4910933539569" fill = "none" stroke = "black" stroke-width = "6" />
    <line x1="810" y1="394" x2="832" y2="373" style="stroke:black;stroke-width:6" />
    <line x1="840" y1="394" x2="861" y2="373" style="stroke:black;stroke-width:6" />
    <line x1="870" y1="394" x2="891" y2="373" style="stroke:black;stroke-width:6" />
    <line x1="900" y1="394" x2="921" y2="373" style="stroke:black;stroke-width:6" />
	<path d = "M930 394 L930 274 L810 274 L810 394 L930 394 Z" stroke = "black" stroke-width = "6" fill = "none" />  <path d="M810.4889143904495 274.491093353957           A119.39512996347818 119.39512996347818 0 0 1 929.8840443539275 393.8862233174357" fill = "none" stroke = "black" stroke-width = "6" />
    <line x1="452" y1="633" x2="473" y2="612" style="stroke:black;stroke-width:6" />
    <line x1="482" y1="633" x2="503" y2="612" style="stroke:black;stroke-width:6" />
    <line x1="512" y1="633" x2="533" y2="612" style="stroke:black;stroke-width:6" />
    <line x1="542" y1="633" x2="563" y2="612" style="stroke:black;stroke-width:6" />
	<path d = "M572 633 L572 513 L452 513 L452 633 L572 633 Z" stroke = "black" stroke-width = "6" fill = "none" />	<path d = "M482 543 L542 543 L542 603 " stroke = "black" stroke-width = "6" fill = "none" />	<path d = "M521 582 L542 603 L563 582 " stroke = "black" stroke-width = "6" fill = "none" /><circle cx="542" cy = "603" r = "6" stroke = "black" stroke-width = "6" fill = "black" />
	<path d = "M691 633 L691 513 L572 513 L572 633 L691 633 Z" stroke = "black" stroke-width = "6" fill = "none" />	<path d = "M602 543 L661 543 L661 603 " stroke = "black" stroke-width = "6" fill = "none" /><circle cx="661" cy = "603" r = "6" stroke = "black" stroke-width = "6" fill = "black" />
    <line x1="661" y1="603" x2="672" y2="592" style="stroke:black;stroke-width:6" />
    <line x1="661" y1="603" x2="651" y2="592" style="stroke:black;stroke-width:6" />
    <line x1="661" y1="603" x2="602" y2="543" style="stroke:black;stroke-width:6" />
	<path d = "M810 633 L810 513 L691 513 L691 633 L810 633 Z" stroke = "black" stroke-width = "6" fill = "none" />	<path d = "M721 543 L781 543 L781 603 " stroke = "black" stroke-width = "6" fill = "none" />	<path d = "M760 582 L781 603 L802 582 " stroke = "black" stroke-width = "6" fill = "none" /><circle cx="781" cy = "603" r = "6" stroke = "black" stroke-width = "6" fill = "black" />
    <text x="602" y = "215" fill = "black" font-size = "59.69756498173909px" font-family = "arial">q</text>
    <text x="363" y = "454" fill = "black" font-size = "59.69756498173909px" font-family = "arial">w</text>
    <text x="482" y = "454" fill = "black" font-size = "59.69756498173909px" font-family = "arial">r</text>
    <text x="602" y = "454" fill = "black" font-size = "59.69756498173909px" font-family = "arial">u</text>
    <text x="721" y = "454" fill = "black" font-size = "59.69756498173909px" font-family = "arial">i</text>
    <text x="840" y = "454" fill = "black" font-size = "59.69756498173909px" font-family = "arial">o</text>
    <text x="482" y = "692" fill = "black" font-size = "59.69756498173909px" font-family = "arial">e</text>
    <text x="602" y = "692" fill = "black" font-size = "59.69756498173909px" font-family = "arial">}</text>
    <text x="721" y = "692" fill = "black" font-size = "59.69756498173909px" font-family = "arial">|</text>
</svg>