<svg width="400" height="400" viewbox = "0 0 400 400"  xmlns="http://www.w3.org/2000/svg">

<!--
<json>
{
    "imgurl": "",
    "imgw": 2.983971328437751,
    "imgleft": -1.4873205904167783,
    "imgtop": -1.0519856642188752,
    "imgangle": 0,
    "svgwidth": 400,
    "svgheight": 400,
    "unit": 100,
    "x0": 684,
    "y0": 399,
    "x0rel": 0,
    "y0rel": 0,
    "glyph": "0327,0236,",
    "table": []
}
</json>
-->
  <path d="M286.60254037844385 50           A100 100 0 0 1 200.00000000000003 200" fill = "none" stroke = "purple" stroke-width = "6" />
  <path d="M200.00000000000003 200           A100 100 0 0 1 113.3974596215561 50.000000000000064" fill = "none" stroke = "purple" stroke-width = "6" />
  <path d="M350.00000000000006 113.39745962155598           A100 100 0 0 1 200.00000000000014 200" fill = "none" stroke = "purple" stroke-width = "6" />
  <path d="M200.00000000000014 200           A100 100 0 0 1 200.00000000000006 26.79491924311222" fill = "none" stroke = "purple" stroke-width = "6" />
  <path d="M373.2050807568877 200           A100 100 0 0 1 199.99999999999994 199.99999999999977" fill = "none" stroke = "purple" stroke-width = "6" />
  <path d="M199.99999999999994 199.99999999999977           A100 100 0 0 1 286.602540378444 49.99999999999994" fill = "none" stroke = "purple" stroke-width = "6" />
  <path d="M350.0000000000002 286.6025403784436           A100 100 0 0 1 200.00000000000006 200.0000000000003" fill = "none" stroke = "purple" stroke-width = "6" />
  <path d="M200.00000000000006 200.0000000000003           A100 100 0 0 1 349.99999999999943 113.39745962155565" fill = "none" stroke = "purple" stroke-width = "6" />
  <path d="M286.6025403784453 349.9999999999999           A100 100 0 0 1 199.9999999999999 200.00000000000097" fill = "none" stroke = "purple" stroke-width = "6" />
  <path d="M199.9999999999999 200.00000000000097           A100 100 0 0 1 373.20508075688747 199.9999999999986" fill = "none" stroke = "purple" stroke-width = "6" />
  <path d="M200.00000000000267 373.20508075688906           A100 100 0 0 1 199.99999999999937 200.00000000000145" fill = "none" stroke = "purple" stroke-width = "6" />
  <path d="M199.99999999999937 200.00000000000145           A100 100 0 0 1 350.00000000000114 286.60254037844203" fill = "none" stroke = "purple" stroke-width = "6" />
  <path d="M113.39745962155841 350.0000000000036           A100 100 0 0 1 199.9999999999987 200.00000000000165" fill = "none" stroke = "purple" stroke-width = "6" />
  <path d="M199.9999999999987 200.00000000000165           A100 100 0 0 1 286.6025403784464 349.9999999999993" fill = "none" stroke = "purple" stroke-width = "6" />
  <path d="M50.00000000000054 286.6025403784495           A100 100 0 0 1 199.999999999998 200.00000000000148" fill = "none" stroke = "purple" stroke-width = "6" />
  <path d="M199.999999999998 200.00000000000148           A100 100 0 0 1 200.00000000000327 373.20508075688906" fill = "none" stroke = "purple" stroke-width = "6" />
  <path d="M26.794919243109916 200.0000000000066           A100 100 0 0 1 199.9999999999975 200.000000000001" fill = "none" stroke = "purple" stroke-width = "6" />
  <path d="M199.9999999999975 200.000000000001           A100 100 0 0 1 113.39745962155892 350.00000000000387" fill = "none" stroke = "purple" stroke-width = "6" />
  <path d="M49.99999999999425 113.39745962156202           A100 100 0 0 1 199.99999999999733 200.0000000000003" fill = "none" stroke = "purple" stroke-width = "6" />
  <path d="M199.99999999999733 200.0000000000003           A100 100 0 0 1 50.00000000000021 286.60254037844965" fill = "none" stroke = "purple" stroke-width = "6" />
  <path d="M113.39745962155037 50.00000000000347           A100 100 0 0 1 199.99999999999642 200.00000000000287" fill = "none" stroke = "purple" stroke-width = "6" />
  <path d="M199.99999999999642 200.00000000000287           A100 100 0 0 1 26.794919243108126 200.00000000000304" fill = "none" stroke = "purple" stroke-width = "6" />
  <path d="M199.99999999999847 26.79491924311698           A100 100 0 0 1 199.99999999999403 200.0000000000053" fill = "none" stroke = "purple" stroke-width = "6" />
  <path d="M199.99999999999403 200.0000000000053           A100 100 0 0 1 49.99999999999676 113.39745962155556" fill = "none" stroke = "purple" stroke-width = "6" />
  <path d="M286.6025403784445 50.00000000001118           A100 100 0 0 1 199.99999999999073 200.00000000000617" fill = "none" stroke = "purple" stroke-width = "6" />
  <path d="M199.99999999999073 200.00000000000617           A100 100 0 0 1 113.3974596215579 49.999999999999126" fill = "none" stroke = "purple" stroke-width = "6" />
</svg>