<svg width="200" height="200" viewbox = "0 0 200 200"  xmlns="http://www.w3.org/2000/svg">

<!--
<json>
{
    "imgurl": "",
    "imgw": 2.983971328437751,
    "imgleft": -1.4873205904167783,
    "imgtop": -1.0519856642188752,
    "imgangle": 0,
    "svgwidth": 200,
    "svgheight": 200,
    "unit": 100,
    "x0": 684,
    "y0": 399,
    "x0rel": 0,
    "y0rel": 0,
    "glyph": "0336,0236,",
    "table": []
}
</json>
-->
  <path d="M143.30127018922192 25           A50 50 0 0 1 100.00000000000001 100" fill = "none" stroke = "#4b0082" stroke-width = "4" />
  <path d="M100.00000000000001 100           A50 50 0 0 1 56.69872981077805 25.000000000000032" fill = "none" stroke = "#4b0082" stroke-width = "4" />
  <path d="M175.00000000000003 56.69872981077799           A50 50 0 0 1 100.00000000000007 100" fill = "none" stroke = "#4b0082" stroke-width = "4" />
  <path d="M100.00000000000007 100           A50 50 0 0 1 100.00000000000003 13.39745962155611" fill = "none" stroke = "#4b0082" stroke-width = "4" />
  <path d="M186.60254037844385 100           A50 50 0 0 1 99.99999999999997 99.99999999999989" fill = "none" stroke = "#4b0082" stroke-width = "4" />
  <path d="M99.99999999999997 99.99999999999989           A50 50 0 0 1 143.301270189222 24.99999999999997" fill = "none" stroke = "#4b0082" stroke-width = "4" />
  <path d="M175.0000000000001 143.3012701892218           A50 50 0 0 1 100.00000000000003 100.00000000000016" fill = "none" stroke = "#4b0082" stroke-width = "4" />
  <path d="M100.00000000000003 100.00000000000016           A50 50 0 0 1 174.99999999999972 56.69872981077783" fill = "none" stroke = "#4b0082" stroke-width = "4" />
  <path d="M143.30127018922266 174.99999999999994           A50 50 0 0 1 99.99999999999994 100.00000000000048" fill = "none" stroke = "#4b0082" stroke-width = "4" />
  <path d="M99.99999999999994 100.00000000000048           A50 50 0 0 1 186.60254037844373 99.9999999999993" fill = "none" stroke = "#4b0082" stroke-width = "4" />
  <path d="M100.00000000000134 186.60254037844453           A50 50 0 0 1 99.99999999999969 100.00000000000072" fill = "none" stroke = "#4b0082" stroke-width = "4" />
  <path d="M99.99999999999969 100.00000000000072           A50 50 0 0 1 175.00000000000057 143.30127018922101" fill = "none" stroke = "#4b0082" stroke-width = "4" />
  <path d="M56.698729810779206 175.0000000000018           A50 50 0 0 1 99.99999999999935 100.00000000000082" fill = "none" stroke = "#4b0082" stroke-width = "4" />
  <path d="M99.99999999999935 100.00000000000082           A50 50 0 0 1 143.3012701892232 174.99999999999966" fill = "none" stroke = "#4b0082" stroke-width = "4" />
  <path d="M25.00000000000027 143.30127018922474           A50 50 0 0 1 99.999999999999 100.00000000000074" fill = "none" stroke = "#4b0082" stroke-width = "4" />
  <path d="M99.999999999999 100.00000000000074           A50 50 0 0 1 100.00000000000163 186.60254037844453" fill = "none" stroke = "#4b0082" stroke-width = "4" />
  <path d="M13.397459621554958 100.0000000000033           A50 50 0 0 1 99.99999999999875 100.0000000000005" fill = "none" stroke = "#4b0082" stroke-width = "4" />
  <path d="M99.99999999999875 100.0000000000005           A50 50 0 0 1 56.69872981077946 175.00000000000193" fill = "none" stroke = "#4b0082" stroke-width = "4" />
  <path d="M24.999999999997126 56.69872981078101           A50 50 0 0 1 99.99999999999866 100.00000000000016" fill = "none" stroke = "#4b0082" stroke-width = "4" />
  <path d="M99.99999999999866 100.00000000000016           A50 50 0 0 1 25.000000000000107 143.30127018922482" fill = "none" stroke = "#4b0082" stroke-width = "4" />
  <path d="M56.698729810775184 25.000000000001734           A50 50 0 0 1 99.99999999999821 100.00000000000144" fill = "none" stroke = "#4b0082" stroke-width = "4" />
  <path d="M99.99999999999821 100.00000000000144           A50 50 0 0 1 13.397459621554063 100.00000000000152" fill = "none" stroke = "#4b0082" stroke-width = "4" />
  <path d="M99.99999999999923 13.39745962155849           A50 50 0 0 1 99.99999999999702 100.00000000000264" fill = "none" stroke = "#4b0082" stroke-width = "4" />
  <path d="M99.99999999999702 100.00000000000264           A50 50 0 0 1 24.99999999999838 56.69872981077778" fill = "none" stroke = "#4b0082" stroke-width = "4" />
  <path d="M143.30127018922224 25.00000000000559           A50 50 0 0 1 99.99999999999537 100.00000000000308" fill = "none" stroke = "#4b0082" stroke-width = "4" />
  <path d="M99.99999999999537 100.00000000000308           A50 50 0 0 1 56.69872981077895 24.999999999999563" fill = "none" stroke = "#4b0082" stroke-width = "4" />
</svg>