<svg width="400" height="400" viewbox = "0 0 400 400"  xmlns="http://www.w3.org/2000/svg">

<!--
<json>
{
    "imgurl": "",
    "imgw": 2.983971328437751,
    "imgleft": -1.4873205904167783,
    "imgtop": -1.0519856642188752,
    "imgangle": 0,
    "svgwidth": 400,
    "svgheight": 400,
    "unit": 100,
    "x0": 684,
    "y0": 399,
    "x0rel": 0,
    "y0rel": 0,
    "glyph": "0327,0234,",
    "table": []
}
</json>
-->
  <path d="M286.6025403784439 50.000000000000014           A100 100 0 0 1 113.39745962155612 50.00000000000003" fill = "none" stroke = "purple" stroke-width = "6" />
  <path d="M350 113.3974596215563           A100 100 0 0 1 200 26.79491924311226" fill = "none" stroke = "purple" stroke-width = "6" />
  <path d="M373.2050807568876 200           A100 100 0 0 1 286.6025403784439 49.99999999999994" fill = "none" stroke = "purple" stroke-width = "6" />
  <path d="M349.9999999999998 286.6025403784442           A100 100 0 0 1 350.0000000000003 113.39745962155655" fill = "none" stroke = "purple" stroke-width = "6" />
  <path d="M286.6025403784431 350.00000000000045           A100 100 0 0 1 373.20508075688775 200.00000000000102" fill = "none" stroke = "purple" stroke-width = "6" />
  <path d="M199.9999999999974 373.20508075688747           A100 100 0 0 1 349.999999999999 286.6025403784457" fill = "none" stroke = "purple" stroke-width = "6" />
  <path d="M113.39745962155285 349.99999999999744           A100 100 0 0 1 286.60254037844084 350.00000000000176" fill = "none" stroke = "purple" stroke-width = "6" />
  <path d="M49.99999999999787 286.6025403784384           A100 100 0 0 1 199.99999999999505 373.20508075688764" fill = "none" stroke = "purple" stroke-width = "6" />
  <path d="M26.79491924311344 199.99999999999235           A100 100 0 0 1 113.39745962155074 349.9999999999964" fill = "none" stroke = "purple" stroke-width = "6" />
  <path d="M50.000000000005976 113.39745962154849           A100 100 0 0 1 49.999999999996554 286.60254037843646" fill = "none" stroke = "purple" stroke-width = "6" />
  <path d="M113.39745962156333 49.99999999999659           A100 100 0 0 1 26.79491924311398 199.9999999999937" fill = "none" stroke = "purple" stroke-width = "6" />
  <path d="M200.0000000000057 26.79491924311155           A100 100 0 0 1 50.00000000000401 113.39745962155297" fill = "none" stroke = "purple" stroke-width = "6" />
</svg>