<svg width="200" height="600" viewbox = "0 0 200 600"  xmlns="http://www.w3.org/2000/svg">

<!--
<json>
{
    "imgurl": "",
    "imgw": 2.983971328437751,
    "imgleft": -1.4873205904167783,
    "imgtop": -1.0519856642188752,
    "imgangle": 0,
    "svgwidth": 200,
    "svgheight": 600,
    "unit": 100,
    "x0": 684,
    "y0": 399,
    "x0rel": 0,
    "y0rel": 0,
    "glyph": "0327,0332,0362,0203,0203,0203,0335,0203,0203,0335,0203,0203,0203,0203,0203,0203,0335,0203,0203,0335,0203,0203,0203,0363,0300,0336,0336,0331,0331,0331,0331,0331,0331,0331,0331,0331,0331,0221,0330,0330,0330,0336,0330,0337,0223,0330,0330,0330,0330,0336,0331,0337,0225,0330,0330,0336,0330,0337,0330,0227,0330,0336,0336,0330,0337,0337,0330,0330,0330,0331,0231,0330,0330,0336,0331,0337,0330,0232,0330,0330,0330,0236,",
    "table": []
}
</json>
-->
	<path d = "M0 300 L0 200 L0 100 L0 0 L100 0 L200 0 L200 100 L200 200 L200 300 L200 400 L200 500 L200 600 L100 600 L0 600 L0 500 L0 400 L0 300 Z" stroke = "#808080" stroke-width = "2" fill = "#808080" /><path    d = "M100,525 C109,516 118,532 135,515" fill = "none" stroke-width = "2" stroke = "red" /><path    d = "M135,515 C118,532 134,541 125,550" fill = "none" stroke-width = "2" stroke = "red" /><path    d = "M125,550 C134,559 118,568 135,585" fill = "none" stroke-width = "2" stroke = "red" /><path    d = "M135,585 C118,568 109,584 100,575" fill = "none" stroke-width = "2" stroke = "red" /><path    d = "M100,575 C91,584 82,568 65,585" fill = "none" stroke-width = "2" stroke = "red" /><path    d = "M65,585 C82,568 66,559 75,550" fill = "none" stroke-width = "2" stroke = "red" /><path    d = "M75,550 C66,541 82,532 65,515" fill = "none" stroke-width = "2" stroke = "red" /><path    d = "M65,515 C82,532 91,516 100,525" fill = "none" stroke-width = "2" stroke = "red" />    <circle cx="100" cy = "550" r = "25" stroke = "red" stroke-width = "2" fill = "none" />
	<path d = "M118 532 L82 532 L82 568 L118 568 L118 532 Z" stroke = "red" stroke-width = "2" fill = "none" />	<path d = "M100 545 L109 545 L104 553 L100 560 L96 553 L91 545 L100 545 Z" stroke = "red" stroke-width = "2" fill = "none" /><path    d = "M87,441 C87,428 100,438 100,425" fill = "none" stroke-width = "2" stroke = "orange" /><path    d = "M112,441 C112,428 100,438 100,425" fill = "none" stroke-width = "2" stroke = "orange" /><path    d = "M112,441 C123,435 122,450 132,444" fill = "none" stroke-width = "2" stroke = "orange" /><path    d = "M125,463 C136,456 122,450 132,444" fill = "none" stroke-width = "2" stroke = "orange" /><path    d = "M125,462 C136,469 122,475 132,481" fill = "none" stroke-width = "2" stroke = "orange" /><path    d = "M112,484 C123,490 122,475 132,481" fill = "none" stroke-width = "2" stroke = "orange" /><path    d = "M112,484 C112,497 100,488 100,500" fill = "none" stroke-width = "2" stroke = "orange" /><path    d = "M87,484 C87,497 100,488 100,500" fill = "none" stroke-width = "2" stroke = "orange" /><path    d = "M87,484 C77,490 78,475 68,481" fill = "none" stroke-width = "2" stroke = "orange" /><path    d = "M75,463 C64,469 78,475 68,481" fill = "none" stroke-width = "2" stroke = "orange" /><path    d = "M75,463 C64,456 78,450 68,444" fill = "none" stroke-width = "2" stroke = "orange" /><path    d = "M87,441 C77,435 78,450 68,444" fill = "none" stroke-width = "2" stroke = "orange" />    <circle cx="100" cy = "462" r = "24.999999999999996" stroke = "orange" stroke-width = "2" fill = "none" />
    <circle cx="100" cy = "462" r = "19.999999999999996" stroke = "orange" stroke-width = "2" fill = "none" />
    <circle cx="100" cy = "456" r = "13.33333333333333" stroke = "orange" stroke-width = "2" fill = "none" />
<path    d = "M92,351 C92,345 100,350 100,337" fill = "none" stroke-width = "2" stroke = "yellow" /><path    d = "M100,337 C100,350 108,345 108,351" fill = "none" stroke-width = "2" stroke = "yellow" /><path    d = "M108,351 C111,346 115,355 122,345" fill = "none" stroke-width = "2" stroke = "yellow" /><path    d = "M122,345 C115,355 124,355 120,360" fill = "none" stroke-width = "2" stroke = "yellow" /><path    d = "M120,360 C126,358 124,367 136,363" fill = "none" stroke-width = "2" stroke = "yellow" /><path    d = "M136,363 C124,367 131,373 125,375" fill = "none" stroke-width = "2" stroke = "yellow" /><path    d = "M125,375 C131,377 124,383 136,387" fill = "none" stroke-width = "2" stroke = "yellow" /><path    d = "M136,387 C124,383 126,392 120,390" fill = "none" stroke-width = "2" stroke = "yellow" /><path    d = "M120,390 C124,395 115,395 122,405" fill = "none" stroke-width = "2" stroke = "yellow" /><path    d = "M122,405 C115,395 111,404 108,399" fill = "none" stroke-width = "2" stroke = "yellow" /><path    d = "M108,399 C108,405 100,400 100,412" fill = "none" stroke-width = "2" stroke = "yellow" /><path    d = "M100,412 C100,400 92,405 92,399" fill = "none" stroke-width = "2" stroke = "yellow" /><path    d = "M92,399 C89,404 85,395 78,405" fill = "none" stroke-width = "2" stroke = "yellow" /><path    d = "M78,405 C85,395 76,395 80,390" fill = "none" stroke-width = "2" stroke = "yellow" /><path    d = "M80,390 C74,392 76,383 64,387" fill = "none" stroke-width = "2" stroke = "yellow" /><path    d = "M64,387 C76,383 69,377 75,375" fill = "none" stroke-width = "2" stroke = "yellow" /><path    d = "M75,375 C69,373 76,367 64,363" fill = "none" stroke-width = "2" stroke = "yellow" /><path    d = "M64,363 C76,367 74,358 80,360" fill = "none" stroke-width = "2" stroke = "yellow" /><path    d = "M80,360 C76,355 85,355 78,345" fill = "none" stroke-width = "2" stroke = "yellow" /><path    d = "M78,345 C85,355 89,346 92,351" fill = "none" stroke-width = "2" stroke = "yellow" />    <circle cx="100" cy = "375" r = "24.999999999999996" stroke = "yellow" stroke-width = "2" fill = "none" />
	<path d = "M100 400 L122 362 L78 362 L100 400 Z" stroke = "yellow" stroke-width = "2" fill = "none" /><path    d = "M112,266 C114,260 106,263 110,251" fill = "none" stroke-width = "2" stroke = "green" /><path    d = "M110,251 C106,263 102,256 100,262" fill = "none" stroke-width = "2" stroke = "green" /><path    d = "M122,275 C126,271 118,270 127,261" fill = "none" stroke-width = "2" stroke = "green" /><path    d = "M127,261 C118,270 117,261 112,266" fill = "none" stroke-width = "2" stroke = "green" /><path    d = "M125,287 C131,286 124,281 136,278" fill = "none" stroke-width = "2" stroke = "green" /><path    d = "M136,278 C124,281 128,273 122,275" fill = "none" stroke-width = "2" stroke = "green" /><path    d = "M122,300 C128,302 124,294 136,297" fill = "none" stroke-width = "2" stroke = "green" /><path    d = "M136,297 C124,294 131,289 125,287" fill = "none" stroke-width = "2" stroke = "green" /><path    d = "M113,309 C117,314 118,305 127,314" fill = "none" stroke-width = "2" stroke = "green" /><path    d = "M127,314 C118,305 126,304 122,300" fill = "none" stroke-width = "2" stroke = "green" /><path    d = "M100,312 C102,319 106,312 110,324" fill = "none" stroke-width = "2" stroke = "green" /><path    d = "M110,324 C106,312 114,315 113,309" fill = "none" stroke-width = "2" stroke = "green" /><path    d = "M88,309 C86,315 94,312 90,324" fill = "none" stroke-width = "2" stroke = "green" /><path    d = "M90,324 C94,312 98,319 100,312" fill = "none" stroke-width = "2" stroke = "green" /><path    d = "M78,300 C74,304 82,305 73,314" fill = "none" stroke-width = "2" stroke = "green" /><path    d = "M73,314 C82,305 83,314 88,309" fill = "none" stroke-width = "2" stroke = "green" /><path    d = "M75,288 C69,289 76,294 64,297" fill = "none" stroke-width = "2" stroke = "green" /><path    d = "M64,297 C76,294 72,302 78,300" fill = "none" stroke-width = "2" stroke = "green" /><path    d = "M78,275 C72,273 76,281 64,278" fill = "none" stroke-width = "2" stroke = "green" /><path    d = "M64,278 C76,281 69,286 75,288" fill = "none" stroke-width = "2" stroke = "green" /><path    d = "M87,266 C83,261 82,270 73,261" fill = "none" stroke-width = "2" stroke = "green" /><path    d = "M73,261 C82,270 74,271 78,275" fill = "none" stroke-width = "2" stroke = "green" /><path    d = "M100,262 C98,256 94,263 90,251" fill = "none" stroke-width = "2" stroke = "green" /><path    d = "M90,251 C94,263 86,260 87,266" fill = "none" stroke-width = "2" stroke = "green" />    <circle cx="100" cy = "287" r = "24.999999999999996" stroke = "green" stroke-width = "2" fill = "none" />
	<path d = "M100 262 L122 300 L78 300 L100 262 Z" stroke = "green" stroke-width = "2" fill = "none" />	<path d = "M122 275 L100 312 L78 275 L122 275 Z" stroke = "green" stroke-width = "2" fill = "none" /><path    d = "M95,182 C95,179 100,181 100,175" fill = "none" stroke-width = "2" stroke = "blue" /><path    d = "M100,175 C100,181 105,179 105,182" fill = "none" stroke-width = "2" stroke = "blue" /><path    d = "M105,182 C106,179 110,183 112,177" fill = "none" stroke-width = "2" stroke = "blue" /><path    d = "M112,177 C110,183 115,183 114,185" fill = "none" stroke-width = "2" stroke = "blue" /><path    d = "M114,185 C116,183 118,189 122,184" fill = "none" stroke-width = "2" stroke = "blue" /><path    d = "M122,184 C118,189 123,190 121,192" fill = "none" stroke-width = "2" stroke = "blue" /><path    d = "M121,192 C124,191 123,197 129,194" fill = "none" stroke-width = "2" stroke = "blue" /><path    d = "M129,194 C123,197 127,200 125,201" fill = "none" stroke-width = "2" stroke = "blue" /><path    d = "M125,201 C128,201 125,206 131,206" fill = "none" stroke-width = "2" stroke = "blue" /><path    d = "M131,206 C125,206 128,211 125,211" fill = "none" stroke-width = "2" stroke = "blue" /><path    d = "M125,211 C127,212 123,216 129,218" fill = "none" stroke-width = "2" stroke = "blue" /><path    d = "M129,218 C123,216 124,221 121,220" fill = "none" stroke-width = "2" stroke = "blue" /><path    d = "M121,220 C123,222 118,224 122,228" fill = "none" stroke-width = "2" stroke = "blue" /><path    d = "M122,228 C118,224 116,229 114,227" fill = "none" stroke-width = "2" stroke = "blue" /><path    d = "M114,227 C115,230 110,229 112,235" fill = "none" stroke-width = "2" stroke = "blue" /><path    d = "M112,235 C110,229 106,234 105,231" fill = "none" stroke-width = "2" stroke = "blue" /><path    d = "M105,231 C105,234 100,231 100,238" fill = "none" stroke-width = "2" stroke = "blue" /><path    d = "M100,238 C100,231 95,234 95,231" fill = "none" stroke-width = "2" stroke = "blue" /><path    d = "M95,231 C94,234 90,229 88,235" fill = "none" stroke-width = "2" stroke = "blue" /><path    d = "M88,235 C90,229 85,230 86,227" fill = "none" stroke-width = "2" stroke = "blue" /><path    d = "M86,227 C84,229 82,224 78,228" fill = "none" stroke-width = "2" stroke = "blue" /><path    d = "M78,228 C82,224 77,222 79,220" fill = "none" stroke-width = "2" stroke = "blue" /><path    d = "M79,220 C76,221 77,216 71,218" fill = "none" stroke-width = "2" stroke = "blue" /><path    d = "M71,218 C77,216 73,212 75,211" fill = "none" stroke-width = "2" stroke = "blue" /><path    d = "M75,211 C72,211 75,206 69,206" fill = "none" stroke-width = "2" stroke = "blue" /><path    d = "M69,206 C75,206 72,201 75,201" fill = "none" stroke-width = "2" stroke = "blue" /><path    d = "M75,201 C73,200 77,197 71,194" fill = "none" stroke-width = "2" stroke = "blue" /><path    d = "M71,194 C77,197 76,191 79,192" fill = "none" stroke-width = "2" stroke = "blue" /><path    d = "M79,192 C77,190 82,189 78,184" fill = "none" stroke-width = "2" stroke = "blue" /><path    d = "M78,184 C82,189 84,183 86,185" fill = "none" stroke-width = "2" stroke = "blue" /><path    d = "M86,185 C85,183 90,183 88,177" fill = "none" stroke-width = "2" stroke = "blue" /><path    d = "M88,177 C90,183 94,179 95,182" fill = "none" stroke-width = "2" stroke = "blue" />    <circle cx="100" cy = "206" r = "24.999999999999996" stroke = "blue" stroke-width = "2" fill = "none" />
	<path d = "M122 194 L78 194 L100 231 L122 194 Z" stroke = "blue" stroke-width = "2" fill = "none" />    <circle cx="100" cy = "206" r = "12.499999999999998" stroke = "blue" stroke-width = "2" fill = "none" />
    <circle cx="100" cy = "144" r = "24.999999999999996" stroke = "#87cefa" stroke-width = "2" fill = "none" />
<path    d = "M118,126 C130,126 125,144 150,144" fill = "none" stroke-width = "2" stroke = "#87cefa" /><path    d = "M150,144 C125,144 130,161 118,161" fill = "none" stroke-width = "2" stroke = "#87cefa" /><path    d = "M82,161 C70,161 75,144 50,144" fill = "none" stroke-width = "2" stroke = "#87cefa" /><path    d = "M50,144 C75,144 70,126 82,126" fill = "none" stroke-width = "2" stroke = "#87cefa" />	<path d = "M122 131 L78 131 L100 169 L122 131 Z" stroke = "#87cefa" stroke-width = "2" fill = "none" />  <path d="M121.65063509440606 31.24999999996946           A24.999999999999996 24.999999999999996 0 0 1 99.9999999998303 68.74999999998914" fill = "none" stroke = "#4b0082" stroke-width = "2" />
  <path d="M99.9999999998303 68.74999999998914           A24.999999999999996 24.999999999999996 0 0 1 78.349364905183 31.25000000001078" fill = "none" stroke = "#4b0082" stroke-width = "2" />
  <path d="M137.49999999981023 47.09936490533994           A24.999999999999996 24.999999999999996 0 0 1 99.99999999983345 68.74999999998998" fill = "none" stroke = "#4b0082" stroke-width = "2" />
  <path d="M99.99999999983345 68.74999999998998           A24.999999999999996 24.999999999999996 0 0 1 99.99999999978604 25.448729810768622" fill = "none" stroke = "#4b0082" stroke-width = "2" />
  <path d="M143.3012701890571 68.74999999994174           A24.999999999999996 24.999999999999996 0 0 1 99.99999999983575 68.7499999999923" fill = "none" stroke = "#4b0082" stroke-width = "2" />
  <path d="M99.99999999983575 68.7499999999923           A24.999999999999996 24.999999999999996 0 0 1 121.65063509440095 31.249999999966537" fill = "none" stroke = "#4b0082" stroke-width = "2" />
  <path d="M137.49999999986395 90.40063509455791           A24.999999999999996 24.999999999999996 0 0 1 99.9999999998366 68.74999999999545" fill = "none" stroke = "#4b0082" stroke-width = "2" />
  <path d="M99.9999999998366 68.74999999999545           A24.999999999999996 24.999999999999996 0 0 1 137.4999999998073 47.09936490533486" fill = "none" stroke = "#4b0082" stroke-width = "2" />
  <path d="M121.65063509449908 106.24999999996773           A24.999999999999996 24.999999999999996 0 0 1 99.99999999983575 68.74999999999861" fill = "none" stroke = "#4b0082" stroke-width = "2" />
  <path d="M99.99999999983575 68.74999999999861           A24.999999999999996 24.999999999999996 0 0 1 143.3012701890571 68.74999999993587" fill = "none" stroke = "#4b0082" stroke-width = "2" />
  <path d="M99.99999999989936 112.05127018922228           A24.999999999999996 24.999999999999996 0 0 1 99.99999999983345 68.75000000000091" fill = "none" stroke = "#4b0082" stroke-width = "2" />
  <path d="M99.99999999983345 68.75000000000091           A24.999999999999996 24.999999999999996 0 0 1 137.49999999986687 90.40063509455283" fill = "none" stroke = "#4b0082" stroke-width = "2" />
  <path d="M78.34936490528112 106.25000000003678           A24.999999999999996 24.999999999999996 0 0 1 99.9999999998303 68.75000000000176" fill = "none" stroke = "#4b0082" stroke-width = "2" />
  <path d="M99.9999999998303 68.75000000000176           A24.999999999999996 24.999999999999996 0 0 1 121.65063509450417 106.24999999996479" fill = "none" stroke = "#4b0082" stroke-width = "2" />
  <path d="M62.49999999986569 90.40063509467753           A24.999999999999996 24.999999999999996 0 0 1 99.99999999982714 68.75000000000091" fill = "none" stroke = "#4b0082" stroke-width = "2" />
  <path d="M99.99999999982714 68.75000000000091           A24.999999999999996 24.999999999999996 0 0 1 99.99999999990521 112.05127018922228" fill = "none" stroke = "#4b0082" stroke-width = "2" />
  <path d="M56.69872981060347 68.75000000007987           A24.999999999999996 24.999999999999996 0 0 1 99.99999999982484 68.74999999999861" fill = "none" stroke = "#4b0082" stroke-width = "2" />
  <path d="M99.99999999982484 68.74999999999861           A24.999999999999996 24.999999999999996 0 0 1 78.34936490528621 106.25000000003972" fill = "none" stroke = "#4b0082" stroke-width = "2" />
  <path d="M62.499999999781295 47.09936490545956           A24.999999999999996 24.999999999999996 0 0 1 99.99999999982398 68.74999999999545" fill = "none" stroke = "#4b0082" stroke-width = "2" />
  <path d="M99.99999999982398 68.74999999999545           A24.999999999999996 24.999999999999996 0 0 1 62.499999999868635 90.40063509468261" fill = "none" stroke = "#4b0082" stroke-width = "2" />
  <path d="M78.34936490513492 31.25000000003853           A24.999999999999996 24.999999999999996 0 0 1 99.99999999982482 68.7499999999923" fill = "none" stroke = "#4b0082" stroke-width = "2" />
  <path d="M99.99999999982482 68.7499999999923           A24.999999999999996 24.999999999999996 0 0 1 56.69872981060346 68.75000000008572" fill = "none" stroke = "#4b0082" stroke-width = "2" />
  <path d="M99.99999999973056 25.448729810768622           A24.999999999999996 24.999999999999996 0 0 1 99.99999999982715 68.74999999998998" fill = "none" stroke = "#4b0082" stroke-width = "2" />
  <path d="M99.99999999982715 68.74999999998998           A24.999999999999996 24.999999999999996 0 0 1 62.49999999977837 47.09936490546464" fill = "none" stroke = "#4b0082" stroke-width = "2" />
  <path d="M121.65063509435291 31.24999999993878           A24.999999999999996 24.999999999999996 0 0 1 99.99999999983031 68.74999999998914" fill = "none" stroke = "#4b0082" stroke-width = "2" />
  <path d="M99.99999999983031 68.74999999998914           A24.999999999999996 24.999999999999996 0 0 1 78.34936490512985 31.25000000004146" fill = "none" stroke = "#4b0082" stroke-width = "2" />
</svg>